G04*
G04 #@! TF.GenerationSoftware,Altium Limited,Altium Designer,25.3.3 (18)*
G04*
G04 Layer_Color=2752767*
%FSLAX44Y44*%
%MOMM*%
G71*
G04*
G04 #@! TF.SameCoordinates,03B7C616-348C-440E-9E9C-07167A9097DF*
G04*
G04*
G04 #@! TF.FilePolarity,Positive*
G04*
G01*
G75*
%ADD99C,0.1270*%
D99*
X266700Y377190D02*
Y374650D01*
X271780D01*
Y377190D01*
X274320D01*
Y382270D01*
X271780D01*
Y384810D01*
X266700D01*
Y382270D01*
X264160D01*
Y377190D01*
X266700D01*
X309959Y359209D02*
Y356669D01*
X315039D01*
Y359209D01*
X317579D01*
Y364289D01*
X315039D01*
Y366829D01*
X309959D01*
Y364289D01*
X307419D01*
Y359209D01*
X309959D01*
X631190Y553720D02*
Y551180D01*
X636270D01*
Y553720D01*
X638810D01*
Y558800D01*
X636270D01*
Y561340D01*
X631190D01*
Y558800D01*
X628650D01*
Y553720D01*
X631190D01*
X727710Y595630D02*
Y593090D01*
X732790D01*
Y595630D01*
X735330D01*
Y600710D01*
X732790D01*
Y603250D01*
X727710D01*
Y600710D01*
X725170D01*
Y595630D01*
X727710D01*
X758190Y815340D02*
Y812800D01*
X763270D01*
Y815340D01*
X765810D01*
Y820420D01*
X763270D01*
Y822960D01*
X758190D01*
Y820420D01*
X755650D01*
Y815340D01*
X758190D01*
X726440Y1054100D02*
Y1051560D01*
X731520D01*
Y1054100D01*
X734060D01*
Y1059180D01*
X731520D01*
Y1061720D01*
X726440D01*
Y1059180D01*
X723900D01*
Y1054100D01*
X726440D01*
X473710Y1203960D02*
Y1201420D01*
X478790D01*
Y1203960D01*
X481330D01*
Y1209040D01*
X478790D01*
Y1211580D01*
X473710D01*
Y1209040D01*
X471170D01*
Y1203960D01*
X473710D01*
X172720Y1070610D02*
Y1068070D01*
X177800D01*
Y1070610D01*
X180340D01*
Y1075690D01*
X177800D01*
Y1078230D01*
X172720D01*
Y1075690D01*
X170180D01*
Y1070610D01*
X172720D01*
X-633730Y594360D02*
Y591820D01*
X-628650D01*
Y594360D01*
X-626110D01*
Y599440D01*
X-628650D01*
Y601980D01*
X-633730D01*
Y599440D01*
X-636270D01*
Y594360D01*
X-633730D01*
X-703580Y814581D02*
Y812041D01*
X-698500D01*
Y814581D01*
X-695960D01*
Y819661D01*
X-698500D01*
Y822201D01*
X-703580D01*
Y819661D01*
X-706120D01*
Y814581D01*
X-703580D01*
Y1037590D02*
Y1035050D01*
X-698500D01*
Y1037590D01*
X-695960D01*
Y1042670D01*
X-698500D01*
Y1045210D01*
X-703580D01*
Y1042670D01*
X-706120D01*
Y1037590D01*
X-703580D01*
X-438150Y1188720D02*
Y1186180D01*
X-433070D01*
Y1188720D01*
X-430530D01*
Y1193800D01*
X-433070D01*
Y1196340D01*
X-438150D01*
Y1193800D01*
X-440690D01*
Y1188720D01*
X-438150D01*
X-111760Y1070610D02*
Y1068070D01*
X-106680D01*
Y1070610D01*
X-104140D01*
Y1075690D01*
X-106680D01*
Y1078230D01*
X-111760D01*
Y1075690D01*
X-114300D01*
Y1070610D01*
X-111760D01*
X-285750Y1046480D02*
Y1043940D01*
X-280670D01*
Y1046480D01*
X-278130D01*
Y1051560D01*
X-280670D01*
Y1054100D01*
X-285750D01*
Y1051560D01*
X-288290D01*
Y1046480D01*
X-285750D01*
X-299720Y1021080D02*
Y1018540D01*
X-294640D01*
Y1021080D01*
X-292100D01*
Y1026160D01*
X-294640D01*
Y1028700D01*
X-299720D01*
Y1026160D01*
X-302260D01*
Y1021080D01*
X-299720D01*
X266700Y358140D02*
Y355600D01*
X271780D01*
Y358140D01*
X274320D01*
Y363220D01*
X271780D01*
Y365760D01*
X266700D01*
Y363220D01*
X264160D01*
Y358140D01*
X266700D01*
X-88182Y630149D02*
Y627608D01*
X-83102D01*
Y630149D01*
X-80562D01*
Y635229D01*
X-83102D01*
Y637769D01*
X-88182D01*
Y635229D01*
X-90722D01*
Y630149D01*
X-88182D01*
X-306070Y1012190D02*
Y1009650D01*
X-300990D01*
Y1012190D01*
X-298450D01*
Y1017270D01*
X-300990D01*
Y1019810D01*
X-306070D01*
Y1017270D01*
X-308610D01*
Y1012190D01*
X-306070D01*
M02*
