G04*
G04 #@! TF.GenerationSoftware,Altium Limited,Altium Designer,25.3.3 (18)*
G04*
G04 Layer_Physical_Order=4*
G04 Layer_Color=16711680*
%FSLAX44Y44*%
%MOMM*%
G71*
G04*
G04 #@! TF.SameCoordinates,03B7C616-348C-440E-9E9C-07167A9097DF*
G04*
G04*
G04 #@! TF.FilePolarity,Positive*
G04*
G01*
G75*
%ADD14C,0.1500*%
%ADD17C,0.2540*%
%ADD21R,1.2000X0.6000*%
%ADD23R,0.6000X0.7500*%
%ADD25R,0.6000X0.6400*%
%ADD27R,0.6000X0.5000*%
%ADD28R,0.7500X0.6000*%
%ADD29R,0.6400X0.6000*%
%ADD31R,0.4000X0.5000*%
%ADD64C,0.4000*%
%ADD65C,1.8000*%
%ADD66C,4.0500*%
%ADD67O,1.6000X0.9000*%
%ADD68C,0.6000*%
%ADD69C,1.2700*%
%ADD70R,2.0000X1.8000*%
%ADD71R,1.6700X1.9700*%
%ADD72R,0.5000X0.6000*%
%ADD73R,0.6500X3.0000*%
%ADD74R,1.6500X3.2500*%
%ADD75R,1.6500X0.9500*%
%ADD76R,1.0000X5.5000*%
%ADD77R,1.6000X3.0000*%
%ADD78R,1.4000X0.6000*%
%ADD79R,1.9700X1.6700*%
%ADD80R,1.8000X1.9000*%
G04:AMPARAMS|DCode=81|XSize=1.6mm|YSize=1.4mm|CornerRadius=0.35mm|HoleSize=0mm|Usage=FLASHONLY|Rotation=90.000|XOffset=0mm|YOffset=0mm|HoleType=Round|Shape=RoundedRectangle|*
%AMROUNDEDRECTD81*
21,1,1.6000,0.7000,0,0,90.0*
21,1,0.9000,1.4000,0,0,90.0*
1,1,0.7000,0.3500,0.4500*
1,1,0.7000,0.3500,-0.4500*
1,1,0.7000,-0.3500,-0.4500*
1,1,0.7000,-0.3500,0.4500*
%
%ADD81ROUNDEDRECTD81*%
%ADD82O,1.3500X0.4000*%
%ADD83R,1.7000X2.5000*%
G36*
X468408Y1341259D02*
X513807Y1334304D01*
X537729Y1328920D01*
X561344Y1322258D01*
X592066Y1311481D01*
X643682Y1288065D01*
X684589Y1262409D01*
X692039Y1257177D01*
X706635Y1246260D01*
X740312Y1217277D01*
X746603Y1211190D01*
X748683Y1209275D01*
X756586Y1201002D01*
X763125Y1194030D01*
X768273Y1188170D01*
X781961Y1172060D01*
X798965Y1149518D01*
X818433Y1119567D01*
X837635Y1082325D01*
X849105Y1057980D01*
X857738Y1035049D01*
X862536Y1020394D01*
X871012Y989046D01*
X880196Y933281D01*
X882844Y894270D01*
X882727Y887058D01*
X880026Y835391D01*
X862536Y776836D01*
X834172Y704474D01*
X802992Y635978D01*
X801311Y632586D01*
X734971Y516132D01*
X682720Y441667D01*
X628672Y375584D01*
X588838Y332460D01*
X566629Y310089D01*
X564972Y308432D01*
X563771Y307282D01*
X563660Y307171D01*
X562507Y306072D01*
X562446Y306010D01*
X560623Y304332D01*
X557682Y301624D01*
X556419Y300298D01*
X555115Y299057D01*
X552882Y296934D01*
X544720Y289275D01*
X534498Y279883D01*
X498167Y248200D01*
X474210Y228663D01*
X439271Y201947D01*
X429129Y194310D01*
X424506Y191254D01*
X354763Y145134D01*
X285675Y107759D01*
X253330Y90261D01*
X193823Y64125D01*
X163703Y50895D01*
X105334Y29471D01*
X89890Y25244D01*
X72231Y19065D01*
X22982Y5636D01*
X11933Y2768D01*
X0Y0D01*
X-45707Y11490D01*
X-81816Y20724D01*
X-149774Y42833D01*
X-230117Y76770D01*
X-265136Y91562D01*
X-305914Y113983D01*
X-353478Y140135D01*
X-424831Y184098D01*
X-478828Y225545D01*
X-515674Y256134D01*
X-598334Y330121D01*
X-679275Y421515D01*
X-776503Y563161D01*
X-835851Y682504D01*
X-863544Y753630D01*
X-886869Y814113D01*
X-893954Y842673D01*
X-893216Y911625D01*
X-891875Y945999D01*
X-873998Y1025165D01*
X-840976Y1102617D01*
X-805907Y1157741D01*
X-789350Y1178755D01*
X-776503Y1194030D01*
X-744175Y1225561D01*
X-673129Y1277948D01*
X-623300Y1303727D01*
X-572054Y1322258D01*
X-533605Y1332744D01*
X-441162Y1340135D01*
X-406501D01*
X-361350Y1334304D01*
X-280991Y1314857D01*
X-200857Y1276306D01*
X-131494Y1224621D01*
X-83742Y1174372D01*
X-50286Y1125734D01*
X-26521Y1084612D01*
X-6558Y1036605D01*
X29382Y1114701D01*
X49276Y1146044D01*
X54307Y1151076D01*
X61593Y1162383D01*
X79837Y1180627D01*
X114324Y1219189D01*
X132451Y1236922D01*
X194828Y1280147D01*
X247960Y1307160D01*
X321431Y1331379D01*
X371461Y1340135D01*
X395570Y1342342D01*
X420162Y1342924D01*
X443820D01*
X468408Y1341259D01*
D02*
G37*
%LPC*%
G36*
X451567Y1266301D02*
X449975D01*
X448505Y1265692D01*
X447380Y1264567D01*
X447180Y1264085D01*
X231061D01*
X230378Y1263950D01*
X229799Y1263563D01*
X79939Y1113703D01*
X79553Y1113124D01*
X79417Y1112441D01*
Y1077932D01*
X78935Y1077732D01*
X77810Y1076607D01*
X77201Y1075137D01*
Y1073545D01*
X77810Y1072075D01*
X78935Y1070950D01*
X80405Y1070341D01*
X81997D01*
X83467Y1070950D01*
X84592Y1072075D01*
X85201Y1073545D01*
Y1075137D01*
X84592Y1076607D01*
X83467Y1077732D01*
X82985Y1077932D01*
Y1111702D01*
X231800Y1260517D01*
X447180D01*
X447380Y1260035D01*
X448505Y1258910D01*
X449975Y1258301D01*
X451567D01*
X453037Y1258910D01*
X454162Y1260035D01*
X454771Y1261505D01*
Y1263097D01*
X454162Y1264567D01*
X453037Y1265692D01*
X451567Y1266301D01*
D02*
G37*
G36*
X-442513D02*
X-444105D01*
X-445575Y1265692D01*
X-446700Y1264567D01*
X-446899Y1264085D01*
X-516969D01*
X-517652Y1263950D01*
X-518231Y1263563D01*
X-662488Y1119305D01*
X-768429D01*
X-769112Y1119169D01*
X-769691Y1118783D01*
X-786201Y1102273D01*
X-786587Y1101694D01*
X-786723Y1101011D01*
Y1070312D01*
X-787205Y1070112D01*
X-788330Y1068987D01*
X-788939Y1067517D01*
Y1065925D01*
X-788330Y1064455D01*
X-787205Y1063330D01*
X-785735Y1062721D01*
X-784143D01*
X-782673Y1063330D01*
X-781548Y1064455D01*
X-780939Y1065925D01*
Y1067517D01*
X-781548Y1068987D01*
X-782673Y1070112D01*
X-783155Y1070312D01*
Y1100272D01*
X-767690Y1115737D01*
X-661749D01*
X-661066Y1115873D01*
X-660487Y1116259D01*
X-516230Y1260517D01*
X-446899D01*
X-446700Y1260035D01*
X-445575Y1258910D01*
X-444105Y1258301D01*
X-442513D01*
X-441043Y1258910D01*
X-439918Y1260035D01*
X-439309Y1261505D01*
Y1263097D01*
X-439918Y1264567D01*
X-441043Y1265692D01*
X-442513Y1266301D01*
D02*
G37*
G36*
X-492043Y1188831D02*
X-493635D01*
X-495105Y1188222D01*
X-496230Y1187097D01*
X-496839Y1185627D01*
Y1184035D01*
X-496230Y1182565D01*
X-495105Y1181440D01*
X-493635Y1180831D01*
X-492043D01*
X-490573Y1181440D01*
X-489448Y1182565D01*
X-489249Y1183047D01*
X-182428D01*
X-140293Y1140912D01*
Y1132542D01*
X-140775Y1132342D01*
X-141900Y1131217D01*
X-142509Y1129747D01*
Y1128155D01*
X-141900Y1126685D01*
X-140775Y1125560D01*
X-139305Y1124951D01*
X-137713D01*
X-136243Y1125560D01*
X-135118Y1126685D01*
X-134509Y1128155D01*
Y1129747D01*
X-135118Y1131217D01*
X-136243Y1132342D01*
X-136725Y1132542D01*
Y1141651D01*
X-136861Y1142334D01*
X-137247Y1142913D01*
X-180427Y1186093D01*
X-181006Y1186479D01*
X-181689Y1186615D01*
X-489249D01*
X-489448Y1187097D01*
X-490573Y1188222D01*
X-492043Y1188831D01*
D02*
G37*
G36*
X410927Y1191371D02*
X409335D01*
X407865Y1190762D01*
X406740Y1189637D01*
X406131Y1188167D01*
Y1186575D01*
X406740Y1185105D01*
X407865Y1183980D01*
X409335Y1183371D01*
X410927D01*
X412397Y1183980D01*
X413522Y1185105D01*
X413722Y1185587D01*
X639262D01*
X701717Y1123132D01*
Y1116031D01*
X701235Y1115832D01*
X700110Y1114707D01*
X699501Y1113237D01*
Y1111645D01*
X700110Y1110175D01*
X701235Y1109050D01*
X702705Y1108441D01*
X704297D01*
X705767Y1109050D01*
X706892Y1110175D01*
X707501Y1111645D01*
Y1113237D01*
X706892Y1114707D01*
X705767Y1115832D01*
X705285Y1116031D01*
Y1123871D01*
X705150Y1124554D01*
X704763Y1125133D01*
X641263Y1188633D01*
X640684Y1189019D01*
X640001Y1189155D01*
X413722D01*
X413522Y1189637D01*
X412397Y1190762D01*
X410927Y1191371D01*
D02*
G37*
G36*
X-198594Y1075880D02*
X-200186D01*
X-201656Y1075271D01*
X-202781Y1074146D01*
X-203390Y1072676D01*
Y1071084D01*
X-202781Y1069614D01*
X-201656Y1068489D01*
X-201162Y1068285D01*
Y1066630D01*
X-201026Y1065947D01*
X-200640Y1065368D01*
X-160170Y1024898D01*
X-159591Y1024511D01*
X-158908Y1024376D01*
X123190D01*
X123873Y1024511D01*
X124452Y1024898D01*
X129453Y1029899D01*
X129839Y1030478D01*
X129975Y1031161D01*
Y1046620D01*
X130457Y1046820D01*
X131582Y1047945D01*
X132191Y1049415D01*
Y1051007D01*
X131582Y1052477D01*
X130457Y1053602D01*
X128987Y1054211D01*
X127395D01*
X125925Y1053602D01*
X124800Y1052477D01*
X124191Y1051007D01*
Y1049415D01*
X124800Y1047945D01*
X125925Y1046820D01*
X126407Y1046620D01*
Y1031900D01*
X122451Y1027944D01*
X-158169D01*
X-197346Y1067121D01*
X-197178Y1068467D01*
X-197124Y1068489D01*
X-195999Y1069614D01*
X-195390Y1071084D01*
Y1072676D01*
X-195999Y1074146D01*
X-197124Y1075271D01*
X-198594Y1075880D01*
D02*
G37*
G36*
X70099Y999600D02*
X69850D01*
Y989330D01*
X80120D01*
Y989579D01*
X79334Y992514D01*
X77814Y995146D01*
X75666Y997294D01*
X73034Y998813D01*
X70099Y999600D01*
D02*
G37*
G36*
X67310D02*
X67061D01*
X64126Y998813D01*
X61494Y997294D01*
X59346Y995146D01*
X57826Y992514D01*
X57040Y989579D01*
Y989330D01*
X67310D01*
Y999600D01*
D02*
G37*
G36*
X-209301D02*
X-209550D01*
Y989330D01*
X-199280D01*
Y989579D01*
X-200067Y992514D01*
X-201586Y995146D01*
X-203734Y997294D01*
X-206366Y998813D01*
X-209301Y999600D01*
D02*
G37*
G36*
X-212090D02*
X-212339D01*
X-215274Y998813D01*
X-217906Y997294D01*
X-220054Y995146D01*
X-221574Y992514D01*
X-222360Y989579D01*
Y989330D01*
X-212090D01*
Y999600D01*
D02*
G37*
G36*
X-310901D02*
X-311150D01*
Y989330D01*
X-300880D01*
Y989579D01*
X-301667Y992514D01*
X-303186Y995146D01*
X-305334Y997294D01*
X-307966Y998813D01*
X-310901Y999600D01*
D02*
G37*
G36*
X-313690D02*
X-313939D01*
X-316874Y998813D01*
X-319506Y997294D01*
X-321654Y995146D01*
X-323173Y992514D01*
X-323960Y989579D01*
Y989330D01*
X-313690D01*
Y999600D01*
D02*
G37*
G36*
X44496Y998060D02*
X41863D01*
X39320Y997378D01*
X37040Y996062D01*
X35178Y994200D01*
X33861Y991920D01*
X33180Y989377D01*
Y986743D01*
X33861Y984200D01*
X35178Y981920D01*
X37040Y980058D01*
X39320Y978742D01*
X41863Y978060D01*
X44496D01*
X47040Y978742D01*
X49320Y980058D01*
X51182Y981920D01*
X52498Y984200D01*
X53180Y986743D01*
Y989377D01*
X52498Y991920D01*
X51182Y994200D01*
X49320Y996062D01*
X47040Y997378D01*
X44496Y998060D01*
D02*
G37*
G36*
X19096D02*
X16464D01*
X13920Y997378D01*
X11640Y996062D01*
X9778Y994200D01*
X8461Y991920D01*
X7780Y989377D01*
Y986743D01*
X8461Y984200D01*
X9778Y981920D01*
X11640Y980058D01*
X13920Y978742D01*
X16464Y978060D01*
X19096D01*
X21640Y978742D01*
X23920Y980058D01*
X25782Y981920D01*
X27099Y984200D01*
X27780Y986743D01*
Y989377D01*
X27099Y991920D01*
X25782Y994200D01*
X23920Y996062D01*
X21640Y997378D01*
X19096Y998060D01*
D02*
G37*
G36*
X-6303D02*
X-8936D01*
X-11480Y997378D01*
X-13760Y996062D01*
X-15622Y994200D01*
X-16939Y991920D01*
X-17620Y989377D01*
Y986743D01*
X-16939Y984200D01*
X-15622Y981920D01*
X-13760Y980058D01*
X-11480Y978742D01*
X-8936Y978060D01*
X-6303D01*
X-3760Y978742D01*
X-1480Y980058D01*
X382Y981920D01*
X1699Y984200D01*
X2380Y986743D01*
Y989377D01*
X1699Y991920D01*
X382Y994200D01*
X-1480Y996062D01*
X-3760Y997378D01*
X-6303Y998060D01*
D02*
G37*
G36*
X-31704D02*
X-34337D01*
X-36880Y997378D01*
X-39160Y996062D01*
X-41022Y994200D01*
X-42339Y991920D01*
X-43020Y989377D01*
Y986743D01*
X-42339Y984200D01*
X-41022Y981920D01*
X-39160Y980058D01*
X-36880Y978742D01*
X-34337Y978060D01*
X-31704D01*
X-29160Y978742D01*
X-26880Y980058D01*
X-25018Y981920D01*
X-23702Y984200D01*
X-23020Y986743D01*
Y989377D01*
X-23702Y991920D01*
X-25018Y994200D01*
X-26880Y996062D01*
X-29160Y997378D01*
X-31704Y998060D01*
D02*
G37*
G36*
X-57104D02*
X-59736D01*
X-62280Y997378D01*
X-64560Y996062D01*
X-66422Y994200D01*
X-67738Y991920D01*
X-68420Y989377D01*
Y986743D01*
X-67738Y984200D01*
X-66422Y981920D01*
X-64560Y980058D01*
X-62280Y978742D01*
X-59736Y978060D01*
X-57104D01*
X-54560Y978742D01*
X-52280Y980058D01*
X-50418Y981920D01*
X-49102Y984200D01*
X-48420Y986743D01*
Y989377D01*
X-49102Y991920D01*
X-50418Y994200D01*
X-52280Y996062D01*
X-54560Y997378D01*
X-57104Y998060D01*
D02*
G37*
G36*
X-82503D02*
X-85136D01*
X-87680Y997378D01*
X-89960Y996062D01*
X-91822Y994200D01*
X-93139Y991920D01*
X-93820Y989377D01*
Y986743D01*
X-93139Y984200D01*
X-91822Y981920D01*
X-89960Y980058D01*
X-87680Y978742D01*
X-85136Y978060D01*
X-82503D01*
X-79960Y978742D01*
X-77680Y980058D01*
X-75818Y981920D01*
X-74502Y984200D01*
X-73820Y986743D01*
Y989377D01*
X-74502Y991920D01*
X-75818Y994200D01*
X-77680Y996062D01*
X-79960Y997378D01*
X-82503Y998060D01*
D02*
G37*
G36*
X-107903D02*
X-110536D01*
X-113080Y997378D01*
X-115360Y996062D01*
X-117222Y994200D01*
X-118539Y991920D01*
X-119220Y989377D01*
Y986743D01*
X-118539Y984200D01*
X-117222Y981920D01*
X-115360Y980058D01*
X-113080Y978742D01*
X-110536Y978060D01*
X-107903D01*
X-105360Y978742D01*
X-103080Y980058D01*
X-101218Y981920D01*
X-99902Y984200D01*
X-99220Y986743D01*
Y989377D01*
X-99902Y991920D01*
X-101218Y994200D01*
X-103080Y996062D01*
X-105360Y997378D01*
X-107903Y998060D01*
D02*
G37*
G36*
X-133303D02*
X-135936D01*
X-138480Y997378D01*
X-140760Y996062D01*
X-142622Y994200D01*
X-143939Y991920D01*
X-144620Y989377D01*
Y986743D01*
X-143939Y984200D01*
X-142622Y981920D01*
X-140760Y980058D01*
X-138480Y978742D01*
X-135936Y978060D01*
X-133303D01*
X-130760Y978742D01*
X-128480Y980058D01*
X-126618Y981920D01*
X-125302Y984200D01*
X-124620Y986743D01*
Y989377D01*
X-125302Y991920D01*
X-126618Y994200D01*
X-128480Y996062D01*
X-130760Y997378D01*
X-133303Y998060D01*
D02*
G37*
G36*
X-158703D02*
X-161336D01*
X-163880Y997378D01*
X-166160Y996062D01*
X-168022Y994200D01*
X-169338Y991920D01*
X-170020Y989377D01*
Y986743D01*
X-169338Y984200D01*
X-168022Y981920D01*
X-166160Y980058D01*
X-163880Y978742D01*
X-161336Y978060D01*
X-158703D01*
X-156160Y978742D01*
X-153880Y980058D01*
X-152018Y981920D01*
X-150702Y984200D01*
X-150020Y986743D01*
Y989377D01*
X-150702Y991920D01*
X-152018Y994200D01*
X-153880Y996062D01*
X-156160Y997378D01*
X-158703Y998060D01*
D02*
G37*
G36*
X-184104D02*
X-186737D01*
X-189280Y997378D01*
X-191560Y996062D01*
X-193422Y994200D01*
X-194739Y991920D01*
X-195420Y989377D01*
Y986743D01*
X-194739Y984200D01*
X-193422Y981920D01*
X-191560Y980058D01*
X-189280Y978742D01*
X-186737Y978060D01*
X-184104D01*
X-181560Y978742D01*
X-179280Y980058D01*
X-177418Y981920D01*
X-176101Y984200D01*
X-175420Y986743D01*
Y989377D01*
X-176101Y991920D01*
X-177418Y994200D01*
X-179280Y996062D01*
X-181560Y997378D01*
X-184104Y998060D01*
D02*
G37*
G36*
X-234904D02*
X-237537D01*
X-240080Y997378D01*
X-242360Y996062D01*
X-244222Y994200D01*
X-245539Y991920D01*
X-246220Y989377D01*
Y986743D01*
X-245539Y984200D01*
X-244222Y981920D01*
X-242360Y980058D01*
X-240080Y978742D01*
X-237537Y978060D01*
X-234904D01*
X-232360Y978742D01*
X-230080Y980058D01*
X-228218Y981920D01*
X-226901Y984200D01*
X-226220Y986743D01*
Y989377D01*
X-226901Y991920D01*
X-228218Y994200D01*
X-230080Y996062D01*
X-232360Y997378D01*
X-234904Y998060D01*
D02*
G37*
G36*
X-260303D02*
X-262936D01*
X-265480Y997378D01*
X-267760Y996062D01*
X-269622Y994200D01*
X-270938Y991920D01*
X-271620Y989377D01*
Y986743D01*
X-270938Y984200D01*
X-269622Y981920D01*
X-267760Y980058D01*
X-265480Y978742D01*
X-262936Y978060D01*
X-260303D01*
X-257760Y978742D01*
X-255480Y980058D01*
X-253618Y981920D01*
X-252302Y984200D01*
X-251620Y986743D01*
Y989377D01*
X-252302Y991920D01*
X-253618Y994200D01*
X-255480Y996062D01*
X-257760Y997378D01*
X-260303Y998060D01*
D02*
G37*
G36*
X-285704D02*
X-288337D01*
X-290880Y997378D01*
X-293160Y996062D01*
X-295022Y994200D01*
X-296339Y991920D01*
X-297020Y989377D01*
Y986743D01*
X-296339Y984200D01*
X-295022Y981920D01*
X-293160Y980058D01*
X-290880Y978742D01*
X-288337Y978060D01*
X-285704D01*
X-283160Y978742D01*
X-280880Y980058D01*
X-279018Y981920D01*
X-277701Y984200D01*
X-277020Y986743D01*
Y989377D01*
X-277701Y991920D01*
X-279018Y994200D01*
X-280880Y996062D01*
X-283160Y997378D01*
X-285704Y998060D01*
D02*
G37*
G36*
X80120Y986790D02*
X69850D01*
Y976520D01*
X70099D01*
X73034Y977307D01*
X75666Y978826D01*
X77814Y980974D01*
X79334Y983606D01*
X80120Y986541D01*
Y986790D01*
D02*
G37*
G36*
X67310D02*
X57040D01*
Y986541D01*
X57826Y983606D01*
X59346Y980974D01*
X61494Y978826D01*
X64126Y977307D01*
X67061Y976520D01*
X67310D01*
Y986790D01*
D02*
G37*
G36*
X-199280D02*
X-209550D01*
Y976520D01*
X-209301D01*
X-206366Y977307D01*
X-203734Y978826D01*
X-201586Y980974D01*
X-200067Y983606D01*
X-199280Y986541D01*
Y986790D01*
D02*
G37*
G36*
X-212090D02*
X-222360D01*
Y986541D01*
X-221574Y983606D01*
X-220054Y980974D01*
X-217906Y978826D01*
X-215274Y977307D01*
X-212339Y976520D01*
X-212090D01*
Y986790D01*
D02*
G37*
G36*
X-300880D02*
X-311150D01*
Y976520D01*
X-310901D01*
X-307966Y977307D01*
X-305334Y978826D01*
X-303186Y980974D01*
X-301667Y983606D01*
X-300880Y986541D01*
Y986790D01*
D02*
G37*
G36*
X-313690D02*
X-323960D01*
Y986541D01*
X-323173Y983606D01*
X-321654Y980974D01*
X-319506Y978826D01*
X-316874Y977307D01*
X-313939Y976520D01*
X-313690D01*
Y986790D01*
D02*
G37*
G36*
X384673Y1004310D02*
X380487D01*
X376382Y1003493D01*
X372514Y1001891D01*
X369034Y999566D01*
X366074Y996606D01*
X363749Y993126D01*
X362147Y989258D01*
X361330Y985153D01*
Y980967D01*
X362147Y976862D01*
X363749Y972994D01*
X366074Y969514D01*
X369034Y966554D01*
X372514Y964229D01*
X376382Y962627D01*
X380487Y961810D01*
X384673D01*
X388778Y962627D01*
X392646Y964229D01*
X396126Y966554D01*
X399086Y969514D01*
X401412Y972994D01*
X403013Y976862D01*
X403830Y980967D01*
Y985153D01*
X403013Y989258D01*
X401412Y993126D01*
X399086Y996606D01*
X396126Y999566D01*
X392646Y1001891D01*
X388778Y1003493D01*
X384673Y1004310D01*
D02*
G37*
G36*
X-365327D02*
X-369513D01*
X-373618Y1003493D01*
X-377486Y1001891D01*
X-380966Y999566D01*
X-383926Y996606D01*
X-386251Y993126D01*
X-387853Y989258D01*
X-388670Y985153D01*
Y980967D01*
X-387853Y976862D01*
X-386251Y972994D01*
X-383926Y969514D01*
X-380966Y966554D01*
X-377486Y964229D01*
X-373618Y962627D01*
X-369513Y961810D01*
X-365327D01*
X-361222Y962627D01*
X-357354Y964229D01*
X-353874Y966554D01*
X-350914Y969514D01*
X-348588Y972994D01*
X-346987Y976862D01*
X-346170Y980967D01*
Y985153D01*
X-346987Y989258D01*
X-348588Y993126D01*
X-350914Y996606D01*
X-353874Y999566D01*
X-357354Y1001891D01*
X-361222Y1003493D01*
X-365327Y1004310D01*
D02*
G37*
G36*
X654767Y1038971D02*
X653175D01*
X651705Y1038362D01*
X650580Y1037237D01*
X649971Y1035767D01*
Y1034175D01*
X650580Y1032705D01*
X651705Y1031580D01*
X652187Y1031380D01*
Y967661D01*
X652323Y966978D01*
X652709Y966399D01*
X733467Y885642D01*
Y876002D01*
X732985Y875802D01*
X731860Y874677D01*
X731251Y873207D01*
Y871615D01*
X731860Y870145D01*
X732985Y869020D01*
X734455Y868411D01*
X736047D01*
X737517Y869020D01*
X738642Y870145D01*
X739251Y871615D01*
Y873207D01*
X738642Y874677D01*
X737517Y875802D01*
X737035Y876002D01*
Y886381D01*
X736899Y887064D01*
X736513Y887643D01*
X655755Y968400D01*
Y1031380D01*
X656237Y1031580D01*
X657362Y1032705D01*
X657971Y1034175D01*
Y1035767D01*
X657362Y1037237D01*
X656237Y1038362D01*
X654767Y1038971D01*
D02*
G37*
G36*
X-740963Y1042781D02*
X-742555D01*
X-744025Y1042172D01*
X-745150Y1041047D01*
X-745759Y1039577D01*
Y1037985D01*
X-745150Y1036515D01*
X-744025Y1035390D01*
X-743543Y1035191D01*
Y908710D01*
X-800171Y852083D01*
X-800557Y851504D01*
X-800693Y850821D01*
Y821392D01*
X-801175Y821192D01*
X-802300Y820067D01*
X-802909Y818597D01*
Y817005D01*
X-802300Y815535D01*
X-801175Y814410D01*
X-799705Y813801D01*
X-798113D01*
X-796643Y814410D01*
X-795518Y815535D01*
X-794909Y817005D01*
Y818597D01*
X-795518Y820067D01*
X-796643Y821192D01*
X-797125Y821392D01*
Y850082D01*
X-740497Y906709D01*
X-740110Y907288D01*
X-739975Y907971D01*
Y1035191D01*
X-739493Y1035390D01*
X-738368Y1036515D01*
X-737759Y1037985D01*
Y1039577D01*
X-738368Y1041047D01*
X-739493Y1042172D01*
X-740963Y1042781D01*
D02*
G37*
G36*
X-337024Y687260D02*
X-338616D01*
X-340086Y686651D01*
X-341211Y685526D01*
X-341820Y684056D01*
Y682464D01*
X-341211Y680994D01*
X-340086Y679869D01*
X-338616Y679260D01*
X-337024D01*
X-335554Y679869D01*
X-334429Y680994D01*
X-334230Y681476D01*
X347189D01*
X349616Y679048D01*
X349060Y677706D01*
Y676114D01*
X349669Y674644D01*
X350794Y673519D01*
X352264Y672910D01*
X353856D01*
X355326Y673519D01*
X356451Y674644D01*
X357060Y676114D01*
Y677706D01*
X356451Y679176D01*
X355326Y680301D01*
X353856Y680910D01*
X352801D01*
X349189Y684522D01*
X348610Y684909D01*
X347928Y685044D01*
X-334230D01*
X-334429Y685526D01*
X-335554Y686651D01*
X-337024Y687260D01*
D02*
G37*
G36*
X70099Y679600D02*
X69850D01*
Y669330D01*
X80120D01*
Y669579D01*
X79334Y672514D01*
X77814Y675146D01*
X75666Y677294D01*
X73034Y678813D01*
X70099Y679600D01*
D02*
G37*
G36*
X67310D02*
X67061D01*
X64126Y678813D01*
X61494Y677294D01*
X59346Y675146D01*
X57826Y672514D01*
X57040Y669579D01*
Y669330D01*
X67310D01*
Y679600D01*
D02*
G37*
G36*
X-209301D02*
X-209550D01*
Y669330D01*
X-199280D01*
Y669579D01*
X-200067Y672514D01*
X-201586Y675146D01*
X-203734Y677294D01*
X-206366Y678813D01*
X-209301Y679600D01*
D02*
G37*
G36*
X-212090D02*
X-212339D01*
X-215274Y678813D01*
X-217906Y677294D01*
X-220054Y675146D01*
X-221574Y672514D01*
X-222360Y669579D01*
Y669330D01*
X-212090D01*
Y679600D01*
D02*
G37*
G36*
X-310901D02*
X-311150D01*
Y669330D01*
X-300880D01*
Y669579D01*
X-301667Y672514D01*
X-303186Y675146D01*
X-305334Y677294D01*
X-307966Y678813D01*
X-310901Y679600D01*
D02*
G37*
G36*
X-313690D02*
X-313939D01*
X-316874Y678813D01*
X-319506Y677294D01*
X-321654Y675146D01*
X-323173Y672514D01*
X-323960Y669579D01*
Y669330D01*
X-313690D01*
Y679600D01*
D02*
G37*
G36*
X44496Y678060D02*
X41863D01*
X39320Y677378D01*
X37040Y676062D01*
X35178Y674200D01*
X33861Y671920D01*
X33180Y669377D01*
Y666743D01*
X33861Y664200D01*
X35178Y661920D01*
X37040Y660058D01*
X39320Y658742D01*
X41863Y658060D01*
X44496D01*
X47040Y658742D01*
X49320Y660058D01*
X51182Y661920D01*
X52498Y664200D01*
X53180Y666743D01*
Y669377D01*
X52498Y671920D01*
X51182Y674200D01*
X49320Y676062D01*
X47040Y677378D01*
X44496Y678060D01*
D02*
G37*
G36*
X19096D02*
X16464D01*
X13920Y677378D01*
X11640Y676062D01*
X9778Y674200D01*
X8461Y671920D01*
X7780Y669377D01*
Y666743D01*
X8461Y664200D01*
X9778Y661920D01*
X11640Y660058D01*
X13920Y658742D01*
X16464Y658060D01*
X19096D01*
X21640Y658742D01*
X23920Y660058D01*
X25782Y661920D01*
X27099Y664200D01*
X27780Y666743D01*
Y669377D01*
X27099Y671920D01*
X25782Y674200D01*
X23920Y676062D01*
X21640Y677378D01*
X19096Y678060D01*
D02*
G37*
G36*
X-6303D02*
X-8936D01*
X-11480Y677378D01*
X-13760Y676062D01*
X-15622Y674200D01*
X-16939Y671920D01*
X-17620Y669377D01*
Y666743D01*
X-16939Y664200D01*
X-15622Y661920D01*
X-13760Y660058D01*
X-11480Y658742D01*
X-8936Y658060D01*
X-6303D01*
X-3760Y658742D01*
X-1480Y660058D01*
X382Y661920D01*
X1699Y664200D01*
X2380Y666743D01*
Y669377D01*
X1699Y671920D01*
X382Y674200D01*
X-1480Y676062D01*
X-3760Y677378D01*
X-6303Y678060D01*
D02*
G37*
G36*
X-31704D02*
X-34337D01*
X-36880Y677378D01*
X-39160Y676062D01*
X-41022Y674200D01*
X-42339Y671920D01*
X-43020Y669377D01*
Y666743D01*
X-42339Y664200D01*
X-41022Y661920D01*
X-39160Y660058D01*
X-36880Y658742D01*
X-34337Y658060D01*
X-31704D01*
X-29160Y658742D01*
X-26880Y660058D01*
X-25018Y661920D01*
X-23702Y664200D01*
X-23020Y666743D01*
Y669377D01*
X-23702Y671920D01*
X-25018Y674200D01*
X-26880Y676062D01*
X-29160Y677378D01*
X-31704Y678060D01*
D02*
G37*
G36*
X-57104D02*
X-59736D01*
X-62280Y677378D01*
X-64560Y676062D01*
X-66422Y674200D01*
X-67738Y671920D01*
X-68420Y669377D01*
Y666743D01*
X-67738Y664200D01*
X-66422Y661920D01*
X-64560Y660058D01*
X-62280Y658742D01*
X-59736Y658060D01*
X-57104D01*
X-54560Y658742D01*
X-52280Y660058D01*
X-50418Y661920D01*
X-49102Y664200D01*
X-48420Y666743D01*
Y669377D01*
X-49102Y671920D01*
X-50418Y674200D01*
X-52280Y676062D01*
X-54560Y677378D01*
X-57104Y678060D01*
D02*
G37*
G36*
X-82503D02*
X-85136D01*
X-87680Y677378D01*
X-89960Y676062D01*
X-91822Y674200D01*
X-93139Y671920D01*
X-93820Y669377D01*
Y666743D01*
X-93139Y664200D01*
X-91822Y661920D01*
X-89960Y660058D01*
X-87680Y658742D01*
X-85136Y658060D01*
X-82503D01*
X-79960Y658742D01*
X-77680Y660058D01*
X-75818Y661920D01*
X-74502Y664200D01*
X-73820Y666743D01*
Y669377D01*
X-74502Y671920D01*
X-75818Y674200D01*
X-77680Y676062D01*
X-79960Y677378D01*
X-82503Y678060D01*
D02*
G37*
G36*
X-107903D02*
X-110536D01*
X-113080Y677378D01*
X-115360Y676062D01*
X-117222Y674200D01*
X-118539Y671920D01*
X-119220Y669377D01*
Y666743D01*
X-118539Y664200D01*
X-117222Y661920D01*
X-115360Y660058D01*
X-113080Y658742D01*
X-110536Y658060D01*
X-107903D01*
X-105360Y658742D01*
X-103080Y660058D01*
X-101218Y661920D01*
X-99902Y664200D01*
X-99220Y666743D01*
Y669377D01*
X-99902Y671920D01*
X-101218Y674200D01*
X-103080Y676062D01*
X-105360Y677378D01*
X-107903Y678060D01*
D02*
G37*
G36*
X-133303D02*
X-135936D01*
X-138480Y677378D01*
X-140760Y676062D01*
X-142622Y674200D01*
X-143939Y671920D01*
X-144620Y669377D01*
Y666743D01*
X-143939Y664200D01*
X-142622Y661920D01*
X-140760Y660058D01*
X-138480Y658742D01*
X-135936Y658060D01*
X-133303D01*
X-130760Y658742D01*
X-128480Y660058D01*
X-126618Y661920D01*
X-125302Y664200D01*
X-124620Y666743D01*
Y669377D01*
X-125302Y671920D01*
X-126618Y674200D01*
X-128480Y676062D01*
X-130760Y677378D01*
X-133303Y678060D01*
D02*
G37*
G36*
X-158703D02*
X-161336D01*
X-163880Y677378D01*
X-166160Y676062D01*
X-168022Y674200D01*
X-169338Y671920D01*
X-170020Y669377D01*
Y666743D01*
X-169338Y664200D01*
X-168022Y661920D01*
X-166160Y660058D01*
X-163880Y658742D01*
X-161336Y658060D01*
X-158703D01*
X-156160Y658742D01*
X-153880Y660058D01*
X-152018Y661920D01*
X-150702Y664200D01*
X-150020Y666743D01*
Y669377D01*
X-150702Y671920D01*
X-152018Y674200D01*
X-153880Y676062D01*
X-156160Y677378D01*
X-158703Y678060D01*
D02*
G37*
G36*
X-184104D02*
X-186737D01*
X-189280Y677378D01*
X-191560Y676062D01*
X-193422Y674200D01*
X-194739Y671920D01*
X-195420Y669377D01*
Y666743D01*
X-194739Y664200D01*
X-193422Y661920D01*
X-191560Y660058D01*
X-189280Y658742D01*
X-186737Y658060D01*
X-184104D01*
X-181560Y658742D01*
X-179280Y660058D01*
X-177418Y661920D01*
X-176101Y664200D01*
X-175420Y666743D01*
Y669377D01*
X-176101Y671920D01*
X-177418Y674200D01*
X-179280Y676062D01*
X-181560Y677378D01*
X-184104Y678060D01*
D02*
G37*
G36*
X-234904D02*
X-237537D01*
X-240080Y677378D01*
X-242360Y676062D01*
X-244222Y674200D01*
X-245539Y671920D01*
X-246220Y669377D01*
Y666743D01*
X-245539Y664200D01*
X-244222Y661920D01*
X-242360Y660058D01*
X-240080Y658742D01*
X-237537Y658060D01*
X-234904D01*
X-232360Y658742D01*
X-230080Y660058D01*
X-228218Y661920D01*
X-226901Y664200D01*
X-226220Y666743D01*
Y669377D01*
X-226901Y671920D01*
X-228218Y674200D01*
X-230080Y676062D01*
X-232360Y677378D01*
X-234904Y678060D01*
D02*
G37*
G36*
X-260303D02*
X-262936D01*
X-265480Y677378D01*
X-267760Y676062D01*
X-269622Y674200D01*
X-270938Y671920D01*
X-271620Y669377D01*
Y666743D01*
X-270938Y664200D01*
X-269622Y661920D01*
X-267760Y660058D01*
X-265480Y658742D01*
X-262936Y658060D01*
X-260303D01*
X-257760Y658742D01*
X-255480Y660058D01*
X-253618Y661920D01*
X-252302Y664200D01*
X-251620Y666743D01*
Y669377D01*
X-252302Y671920D01*
X-253618Y674200D01*
X-255480Y676062D01*
X-257760Y677378D01*
X-260303Y678060D01*
D02*
G37*
G36*
X-285704D02*
X-288337D01*
X-290880Y677378D01*
X-293160Y676062D01*
X-295022Y674200D01*
X-296339Y671920D01*
X-297020Y669377D01*
Y666743D01*
X-296339Y664200D01*
X-295022Y661920D01*
X-293160Y660058D01*
X-290880Y658742D01*
X-288337Y658060D01*
X-285704D01*
X-283160Y658742D01*
X-280880Y660058D01*
X-279018Y661920D01*
X-277701Y664200D01*
X-277020Y666743D01*
Y669377D01*
X-277701Y671920D01*
X-279018Y674200D01*
X-280880Y676062D01*
X-283160Y677378D01*
X-285704Y678060D01*
D02*
G37*
G36*
X80120Y666790D02*
X69850D01*
Y656520D01*
X70099D01*
X73034Y657306D01*
X75666Y658826D01*
X77814Y660974D01*
X79334Y663606D01*
X80120Y666541D01*
Y666790D01*
D02*
G37*
G36*
X67310D02*
X57040D01*
Y666541D01*
X57826Y663606D01*
X59346Y660974D01*
X61494Y658826D01*
X64126Y657306D01*
X67061Y656520D01*
X67310D01*
Y666790D01*
D02*
G37*
G36*
X-199280D02*
X-209550D01*
Y656520D01*
X-209301D01*
X-206366Y657306D01*
X-203734Y658826D01*
X-201586Y660974D01*
X-200067Y663606D01*
X-199280Y666541D01*
Y666790D01*
D02*
G37*
G36*
X-212090D02*
X-222360D01*
Y666541D01*
X-221574Y663606D01*
X-220054Y660974D01*
X-217906Y658826D01*
X-215274Y657306D01*
X-212339Y656520D01*
X-212090D01*
Y666790D01*
D02*
G37*
G36*
X-300880D02*
X-311150D01*
Y656520D01*
X-310901D01*
X-307966Y657306D01*
X-305334Y658826D01*
X-303186Y660974D01*
X-301667Y663606D01*
X-300880Y666541D01*
Y666790D01*
D02*
G37*
G36*
X-313690D02*
X-323960D01*
Y666541D01*
X-323173Y663606D01*
X-321654Y660974D01*
X-319506Y658826D01*
X-316874Y657306D01*
X-313939Y656520D01*
X-313690D01*
Y666790D01*
D02*
G37*
G36*
X384673Y694310D02*
X380487D01*
X376382Y693493D01*
X372514Y691891D01*
X369034Y689566D01*
X366074Y686606D01*
X363749Y683126D01*
X362147Y679258D01*
X361330Y675153D01*
Y670967D01*
X362147Y666862D01*
X363749Y662994D01*
X366074Y659514D01*
X369034Y656554D01*
X372514Y654229D01*
X376382Y652627D01*
X380487Y651810D01*
X384673D01*
X388778Y652627D01*
X392646Y654229D01*
X396126Y656554D01*
X399086Y659514D01*
X401412Y662994D01*
X403013Y666862D01*
X403830Y670967D01*
Y675153D01*
X403013Y679258D01*
X401412Y683126D01*
X399086Y686606D01*
X396126Y689566D01*
X392646Y691891D01*
X388778Y693493D01*
X384673Y694310D01*
D02*
G37*
G36*
X-365327D02*
X-369513D01*
X-373618Y693493D01*
X-377486Y691891D01*
X-380966Y689566D01*
X-383926Y686606D01*
X-386251Y683126D01*
X-387853Y679258D01*
X-388670Y675153D01*
Y670967D01*
X-387853Y666862D01*
X-386251Y662994D01*
X-383926Y659514D01*
X-380966Y656554D01*
X-377486Y654229D01*
X-373618Y652627D01*
X-369513Y651810D01*
X-365327D01*
X-361222Y652627D01*
X-357354Y654229D01*
X-353874Y656554D01*
X-350914Y659514D01*
X-348588Y662994D01*
X-346987Y666862D01*
X-346170Y670967D01*
Y675153D01*
X-346987Y679258D01*
X-348588Y683126D01*
X-350914Y686606D01*
X-353874Y689566D01*
X-357354Y691891D01*
X-361222Y693493D01*
X-365327Y694310D01*
D02*
G37*
G36*
X695407Y798941D02*
X693815D01*
X692345Y798332D01*
X691220Y797207D01*
X690611Y795737D01*
Y794145D01*
X691220Y792675D01*
X692345Y791550D01*
X693815Y790941D01*
X695407D01*
X695888Y791141D01*
X704257Y782772D01*
Y655022D01*
X703775Y654822D01*
X702650Y653697D01*
X702041Y652227D01*
Y650635D01*
X702650Y649165D01*
X703775Y648040D01*
X705245Y647431D01*
X706837D01*
X708307Y648040D01*
X709432Y649165D01*
X710041Y650635D01*
Y652227D01*
X709432Y653697D01*
X708307Y654822D01*
X707825Y655022D01*
Y783511D01*
X707690Y784194D01*
X707303Y784773D01*
X698412Y793664D01*
X698611Y794145D01*
Y795737D01*
X698002Y797207D01*
X696877Y798332D01*
X695407Y798941D01*
D02*
G37*
G36*
X-737153Y800211D02*
X-738745D01*
X-740215Y799602D01*
X-741340Y798477D01*
X-741949Y797007D01*
Y795415D01*
X-741340Y793945D01*
X-740215Y792820D01*
X-739733Y792620D01*
Y600631D01*
X-739597Y599948D01*
X-739211Y599369D01*
X-736671Y596829D01*
X-736092Y596443D01*
X-735409Y596307D01*
X-727570D01*
X-727370Y595825D01*
X-726245Y594700D01*
X-724775Y594091D01*
X-723183D01*
X-721713Y594700D01*
X-720588Y595825D01*
X-719979Y597295D01*
Y598887D01*
X-720588Y600357D01*
X-721713Y601482D01*
X-723183Y602091D01*
X-724775D01*
X-726245Y601482D01*
X-727370Y600357D01*
X-727570Y599875D01*
X-734670D01*
X-736165Y601370D01*
Y792620D01*
X-735683Y792820D01*
X-734558Y793945D01*
X-733949Y795415D01*
Y797007D01*
X-734558Y798477D01*
X-735683Y799602D01*
X-737153Y800211D01*
D02*
G37*
G36*
X255591Y524294D02*
Y520094D01*
X259791D01*
X259017Y521962D01*
X257459Y523521D01*
X255591Y524294D01*
D02*
G37*
G36*
X253051D02*
X251183Y523521D01*
X249624Y521962D01*
X248850Y520094D01*
X253051D01*
Y524294D01*
D02*
G37*
G36*
X236541D02*
Y520094D01*
X240741D01*
X239967Y521962D01*
X238409Y523521D01*
X236541Y524294D01*
D02*
G37*
G36*
X234001D02*
X232133Y523521D01*
X230574Y521962D01*
X229800Y520094D01*
X234001D01*
Y524294D01*
D02*
G37*
G36*
X218761D02*
Y520094D01*
X222961D01*
X222187Y521962D01*
X220629Y523521D01*
X218761Y524294D01*
D02*
G37*
G36*
X216221D02*
X214353Y523521D01*
X212794Y521962D01*
X212020Y520094D01*
X216221D01*
Y524294D01*
D02*
G37*
G36*
X197171D02*
Y520094D01*
X201371D01*
X200597Y521962D01*
X199039Y523521D01*
X197171Y524294D01*
D02*
G37*
G36*
X194631D02*
X192763Y523521D01*
X191204Y521962D01*
X190430Y520094D01*
X194631D01*
Y524294D01*
D02*
G37*
G36*
X176851D02*
Y520094D01*
X181051D01*
X180277Y521962D01*
X178719Y523521D01*
X176851Y524294D01*
D02*
G37*
G36*
X174311D02*
X172443Y523521D01*
X170884Y521962D01*
X170110Y520094D01*
X174311D01*
Y524294D01*
D02*
G37*
G36*
X156531D02*
Y520094D01*
X160731D01*
X159957Y521962D01*
X158399Y523521D01*
X156531Y524294D01*
D02*
G37*
G36*
X153991D02*
X152123Y523521D01*
X150564Y521962D01*
X149790Y520094D01*
X153991D01*
Y524294D01*
D02*
G37*
G36*
X138751D02*
Y520094D01*
X142951D01*
X142177Y521962D01*
X140619Y523521D01*
X138751Y524294D01*
D02*
G37*
G36*
X136211D02*
X134343Y523521D01*
X132784Y521962D01*
X132010Y520094D01*
X136211D01*
Y524294D01*
D02*
G37*
G36*
X120971D02*
Y520094D01*
X125171D01*
X124397Y521962D01*
X122839Y523521D01*
X120971Y524294D01*
D02*
G37*
G36*
X118431D02*
X116563Y523521D01*
X115004Y521962D01*
X114230Y520094D01*
X118431D01*
Y524294D01*
D02*
G37*
G36*
X101921D02*
Y520094D01*
X106121D01*
X105347Y521962D01*
X103789Y523521D01*
X101921Y524294D01*
D02*
G37*
G36*
X99381D02*
X97513Y523521D01*
X95954Y521962D01*
X95180Y520094D01*
X99381D01*
Y524294D01*
D02*
G37*
G36*
X450667Y523767D02*
Y519567D01*
X454868D01*
X454094Y521435D01*
X452535Y522994D01*
X450667Y523767D01*
D02*
G37*
G36*
X448127D02*
X446259Y522994D01*
X444701Y521435D01*
X443927Y519567D01*
X448127D01*
Y523767D01*
D02*
G37*
G36*
X431617D02*
Y519567D01*
X435818D01*
X435044Y521435D01*
X433485Y522994D01*
X431617Y523767D01*
D02*
G37*
G36*
X429077D02*
X427209Y522994D01*
X425651Y521435D01*
X424877Y519567D01*
X429077D01*
Y523767D01*
D02*
G37*
G36*
X413837D02*
Y519567D01*
X418038D01*
X417264Y521435D01*
X415705Y522994D01*
X413837Y523767D01*
D02*
G37*
G36*
X411297D02*
X409429Y522994D01*
X407871Y521435D01*
X407097Y519567D01*
X411297D01*
Y523767D01*
D02*
G37*
G36*
X392247D02*
Y519567D01*
X396448D01*
X395674Y521435D01*
X394115Y522994D01*
X392247Y523767D01*
D02*
G37*
G36*
X389707D02*
X387839Y522994D01*
X386281Y521435D01*
X385507Y519567D01*
X389707D01*
Y523767D01*
D02*
G37*
G36*
X371927D02*
Y519567D01*
X376128D01*
X375354Y521435D01*
X373795Y522994D01*
X371927Y523767D01*
D02*
G37*
G36*
X369387D02*
X367519Y522994D01*
X365961Y521435D01*
X365187Y519567D01*
X369387D01*
Y523767D01*
D02*
G37*
G36*
X351607D02*
Y519567D01*
X355808D01*
X355034Y521435D01*
X353475Y522994D01*
X351607Y523767D01*
D02*
G37*
G36*
X349067D02*
X347199Y522994D01*
X345641Y521435D01*
X344867Y519567D01*
X349067D01*
Y523767D01*
D02*
G37*
G36*
X333827D02*
Y519567D01*
X338028D01*
X337254Y521435D01*
X335695Y522994D01*
X333827Y523767D01*
D02*
G37*
G36*
X331287D02*
X329419Y522994D01*
X327861Y521435D01*
X327087Y519567D01*
X331287D01*
Y523767D01*
D02*
G37*
G36*
X316047D02*
Y519567D01*
X320248D01*
X319474Y521435D01*
X317915Y522994D01*
X316047Y523767D01*
D02*
G37*
G36*
X313507D02*
X311639Y522994D01*
X310081Y521435D01*
X309307Y519567D01*
X313507D01*
Y523767D01*
D02*
G37*
G36*
X296997D02*
Y519567D01*
X301198D01*
X300424Y521435D01*
X298865Y522994D01*
X296997Y523767D01*
D02*
G37*
G36*
X294457D02*
X292589Y522994D01*
X291031Y521435D01*
X290257Y519567D01*
X294457D01*
Y523767D01*
D02*
G37*
G36*
X634817Y522497D02*
Y518297D01*
X639018D01*
X638244Y520165D01*
X636685Y521724D01*
X634817Y522497D01*
D02*
G37*
G36*
X632277D02*
X630409Y521724D01*
X628851Y520165D01*
X628077Y518297D01*
X632277D01*
Y522497D01*
D02*
G37*
G36*
X615767D02*
Y518297D01*
X619968D01*
X619194Y520165D01*
X617635Y521724D01*
X615767Y522497D01*
D02*
G37*
G36*
X613227D02*
X611359Y521724D01*
X609801Y520165D01*
X609027Y518297D01*
X613227D01*
Y522497D01*
D02*
G37*
G36*
X597987D02*
Y518297D01*
X602188D01*
X601414Y520165D01*
X599855Y521724D01*
X597987Y522497D01*
D02*
G37*
G36*
X595447D02*
X593579Y521724D01*
X592021Y520165D01*
X591247Y518297D01*
X595447D01*
Y522497D01*
D02*
G37*
G36*
X576397D02*
Y518297D01*
X580598D01*
X579824Y520165D01*
X578265Y521724D01*
X576397Y522497D01*
D02*
G37*
G36*
X573857D02*
X571989Y521724D01*
X570431Y520165D01*
X569657Y518297D01*
X573857D01*
Y522497D01*
D02*
G37*
G36*
X556077D02*
Y518297D01*
X560278D01*
X559504Y520165D01*
X557945Y521724D01*
X556077Y522497D01*
D02*
G37*
G36*
X553537D02*
X551669Y521724D01*
X550111Y520165D01*
X549337Y518297D01*
X553537D01*
Y522497D01*
D02*
G37*
G36*
X535757D02*
Y518297D01*
X539958D01*
X539184Y520165D01*
X537625Y521724D01*
X535757Y522497D01*
D02*
G37*
G36*
X533217D02*
X531349Y521724D01*
X529791Y520165D01*
X529017Y518297D01*
X533217D01*
Y522497D01*
D02*
G37*
G36*
X517977D02*
Y518297D01*
X522178D01*
X521404Y520165D01*
X519845Y521724D01*
X517977Y522497D01*
D02*
G37*
G36*
X515437D02*
X513569Y521724D01*
X512011Y520165D01*
X511237Y518297D01*
X515437D01*
Y522497D01*
D02*
G37*
G36*
X500197D02*
Y518297D01*
X504398D01*
X503624Y520165D01*
X502065Y521724D01*
X500197Y522497D01*
D02*
G37*
G36*
X497657D02*
X495789Y521724D01*
X494231Y520165D01*
X493457Y518297D01*
X497657D01*
Y522497D01*
D02*
G37*
G36*
X481147D02*
Y518297D01*
X485348D01*
X484574Y520165D01*
X483015Y521724D01*
X481147Y522497D01*
D02*
G37*
G36*
X478607D02*
X476739Y521724D01*
X475181Y520165D01*
X474407Y518297D01*
X478607D01*
Y522497D01*
D02*
G37*
G36*
X259791Y517554D02*
X255591D01*
Y513354D01*
X257459Y514127D01*
X259017Y515686D01*
X259791Y517554D01*
D02*
G37*
G36*
X253051D02*
X248850D01*
X249624Y515686D01*
X251183Y514127D01*
X253051Y513354D01*
Y517554D01*
D02*
G37*
G36*
X240741D02*
X236541D01*
Y513354D01*
X238409Y514127D01*
X239967Y515686D01*
X240741Y517554D01*
D02*
G37*
G36*
X234001D02*
X229800D01*
X230574Y515686D01*
X232133Y514127D01*
X234001Y513354D01*
Y517554D01*
D02*
G37*
G36*
X222961D02*
X218761D01*
Y513354D01*
X220629Y514127D01*
X222187Y515686D01*
X222961Y517554D01*
D02*
G37*
G36*
X216221D02*
X212020D01*
X212794Y515686D01*
X214353Y514127D01*
X216221Y513354D01*
Y517554D01*
D02*
G37*
G36*
X201371D02*
X197171D01*
Y513354D01*
X199039Y514127D01*
X200597Y515686D01*
X201371Y517554D01*
D02*
G37*
G36*
X194631D02*
X190430D01*
X191204Y515686D01*
X192763Y514127D01*
X194631Y513354D01*
Y517554D01*
D02*
G37*
G36*
X181051D02*
X176851D01*
Y513354D01*
X178719Y514127D01*
X180277Y515686D01*
X181051Y517554D01*
D02*
G37*
G36*
X174311D02*
X170110D01*
X170884Y515686D01*
X172443Y514127D01*
X174311Y513354D01*
Y517554D01*
D02*
G37*
G36*
X160731D02*
X156531D01*
Y513354D01*
X158399Y514127D01*
X159957Y515686D01*
X160731Y517554D01*
D02*
G37*
G36*
X153991D02*
X149790D01*
X150564Y515686D01*
X152123Y514127D01*
X153991Y513354D01*
Y517554D01*
D02*
G37*
G36*
X142951D02*
X138751D01*
Y513354D01*
X140619Y514127D01*
X142177Y515686D01*
X142951Y517554D01*
D02*
G37*
G36*
X136211D02*
X132010D01*
X132784Y515686D01*
X134343Y514127D01*
X136211Y513354D01*
Y517554D01*
D02*
G37*
G36*
X125171D02*
X120971D01*
Y513354D01*
X122839Y514127D01*
X124397Y515686D01*
X125171Y517554D01*
D02*
G37*
G36*
X118431D02*
X114230D01*
X115004Y515686D01*
X116563Y514127D01*
X118431Y513354D01*
Y517554D01*
D02*
G37*
G36*
X106121D02*
X101921D01*
Y513354D01*
X103789Y514127D01*
X105347Y515686D01*
X106121Y517554D01*
D02*
G37*
G36*
X99381D02*
X95180D01*
X95954Y515686D01*
X97513Y514127D01*
X99381Y513354D01*
Y517554D01*
D02*
G37*
G36*
X454868Y517027D02*
X450667D01*
Y512826D01*
X452535Y513600D01*
X454094Y515159D01*
X454868Y517027D01*
D02*
G37*
G36*
X448127D02*
X443927D01*
X444701Y515159D01*
X446259Y513600D01*
X448127Y512826D01*
Y517027D01*
D02*
G37*
G36*
X435818D02*
X431617D01*
Y512826D01*
X433485Y513600D01*
X435044Y515159D01*
X435818Y517027D01*
D02*
G37*
G36*
X429077D02*
X424877D01*
X425651Y515159D01*
X427209Y513600D01*
X429077Y512826D01*
Y517027D01*
D02*
G37*
G36*
X418038D02*
X413837D01*
Y512826D01*
X415705Y513600D01*
X417264Y515159D01*
X418038Y517027D01*
D02*
G37*
G36*
X411297D02*
X407097D01*
X407871Y515159D01*
X409429Y513600D01*
X411297Y512826D01*
Y517027D01*
D02*
G37*
G36*
X396448D02*
X392247D01*
Y512826D01*
X394115Y513600D01*
X395674Y515159D01*
X396448Y517027D01*
D02*
G37*
G36*
X389707D02*
X385507D01*
X386281Y515159D01*
X387839Y513600D01*
X389707Y512826D01*
Y517027D01*
D02*
G37*
G36*
X376128D02*
X371927D01*
Y512826D01*
X373795Y513600D01*
X375354Y515159D01*
X376128Y517027D01*
D02*
G37*
G36*
X369387D02*
X365187D01*
X365961Y515159D01*
X367519Y513600D01*
X369387Y512826D01*
Y517027D01*
D02*
G37*
G36*
X355808D02*
X351607D01*
Y512826D01*
X353475Y513600D01*
X355034Y515159D01*
X355808Y517027D01*
D02*
G37*
G36*
X349067D02*
X344867D01*
X345641Y515159D01*
X347199Y513600D01*
X349067Y512826D01*
Y517027D01*
D02*
G37*
G36*
X338028D02*
X333827D01*
Y512826D01*
X335695Y513600D01*
X337254Y515159D01*
X338028Y517027D01*
D02*
G37*
G36*
X331287D02*
X327087D01*
X327861Y515159D01*
X329419Y513600D01*
X331287Y512826D01*
Y517027D01*
D02*
G37*
G36*
X320248D02*
X316047D01*
Y512826D01*
X317915Y513600D01*
X319474Y515159D01*
X320248Y517027D01*
D02*
G37*
G36*
X313507D02*
X309307D01*
X310081Y515159D01*
X311639Y513600D01*
X313507Y512826D01*
Y517027D01*
D02*
G37*
G36*
X301198D02*
X296997D01*
Y512826D01*
X298865Y513600D01*
X300424Y515159D01*
X301198Y517027D01*
D02*
G37*
G36*
X294457D02*
X290257D01*
X291031Y515159D01*
X292589Y513600D01*
X294457Y512826D01*
Y517027D01*
D02*
G37*
G36*
X639018Y515757D02*
X634817D01*
Y511557D01*
X636685Y512330D01*
X638244Y513889D01*
X639018Y515757D01*
D02*
G37*
G36*
X632277D02*
X628077D01*
X628851Y513889D01*
X630409Y512330D01*
X632277Y511557D01*
Y515757D01*
D02*
G37*
G36*
X619968D02*
X615767D01*
Y511557D01*
X617635Y512330D01*
X619194Y513889D01*
X619968Y515757D01*
D02*
G37*
G36*
X613227D02*
X609027D01*
X609801Y513889D01*
X611359Y512330D01*
X613227Y511557D01*
Y515757D01*
D02*
G37*
G36*
X602188D02*
X597987D01*
Y511557D01*
X599855Y512330D01*
X601414Y513889D01*
X602188Y515757D01*
D02*
G37*
G36*
X595447D02*
X591247D01*
X592021Y513889D01*
X593579Y512330D01*
X595447Y511557D01*
Y515757D01*
D02*
G37*
G36*
X580598D02*
X576397D01*
Y511557D01*
X578265Y512330D01*
X579824Y513889D01*
X580598Y515757D01*
D02*
G37*
G36*
X573857D02*
X569657D01*
X570431Y513889D01*
X571989Y512330D01*
X573857Y511557D01*
Y515757D01*
D02*
G37*
G36*
X560278D02*
X556077D01*
Y511557D01*
X557945Y512330D01*
X559504Y513889D01*
X560278Y515757D01*
D02*
G37*
G36*
X553537D02*
X549337D01*
X550111Y513889D01*
X551669Y512330D01*
X553537Y511557D01*
Y515757D01*
D02*
G37*
G36*
X539958D02*
X535757D01*
Y511557D01*
X537625Y512330D01*
X539184Y513889D01*
X539958Y515757D01*
D02*
G37*
G36*
X533217D02*
X529017D01*
X529791Y513889D01*
X531349Y512330D01*
X533217Y511557D01*
Y515757D01*
D02*
G37*
G36*
X522178D02*
X517977D01*
Y511557D01*
X519845Y512330D01*
X521404Y513889D01*
X522178Y515757D01*
D02*
G37*
G36*
X515437D02*
X511237D01*
X512011Y513889D01*
X513569Y512330D01*
X515437Y511557D01*
Y515757D01*
D02*
G37*
G36*
X504398D02*
X500197D01*
Y511557D01*
X502065Y512330D01*
X503624Y513889D01*
X504398Y515757D01*
D02*
G37*
G36*
X497657D02*
X493457D01*
X494231Y513889D01*
X495789Y512330D01*
X497657Y511557D01*
Y515757D01*
D02*
G37*
G36*
X485348D02*
X481147D01*
Y511557D01*
X483015Y512330D01*
X484574Y513889D01*
X485348Y515757D01*
D02*
G37*
G36*
X478607D02*
X474407D01*
X475181Y513889D01*
X476739Y512330D01*
X478607Y511557D01*
Y515757D01*
D02*
G37*
G36*
X695486Y570420D02*
X693894D01*
X692424Y569811D01*
X691299Y568686D01*
X690690Y567216D01*
Y565624D01*
X691299Y564154D01*
X692424Y563029D01*
X693894Y562420D01*
X695486D01*
X695967Y562620D01*
X697986Y560601D01*
Y537949D01*
X659661Y499624D01*
X-57681D01*
X-59700Y501643D01*
X-59500Y502124D01*
Y503716D01*
X-60109Y505186D01*
X-61234Y506311D01*
X-62704Y506920D01*
X-64296D01*
X-65766Y506311D01*
X-66891Y505186D01*
X-67500Y503716D01*
Y502124D01*
X-66891Y500654D01*
X-65766Y499529D01*
X-64296Y498920D01*
X-62704D01*
X-62223Y499119D01*
X-59682Y496578D01*
X-59103Y496191D01*
X-58420Y496056D01*
X-1041D01*
X-765Y494795D01*
X-1082Y494030D01*
Y489571D01*
X-14393D01*
X-15279Y489395D01*
X-16030Y488893D01*
X-46679Y458245D01*
X-48728D01*
X-49756Y459272D01*
Y467360D01*
X-49932Y468246D01*
X-50433Y468997D01*
X-56783Y475347D01*
X-57534Y475848D01*
X-58420Y476025D01*
X-194310D01*
X-195196Y475848D01*
X-195947Y475347D01*
X-199041Y472252D01*
X-203426D01*
Y475291D01*
X-180651Y498065D01*
X-126532D01*
X-125456Y496989D01*
X-123986Y496380D01*
X-122394D01*
X-120924Y496989D01*
X-119799Y498114D01*
X-119190Y499584D01*
Y501176D01*
X-119799Y502646D01*
X-120924Y503771D01*
X-122394Y504380D01*
X-123986D01*
X-125456Y503771D01*
X-126532Y502695D01*
X-181610D01*
X-182496Y502518D01*
X-183247Y502017D01*
X-207377Y477887D01*
X-207878Y477136D01*
X-208055Y476250D01*
Y472252D01*
X-231140D01*
X-231189Y472232D01*
X-231523Y473038D01*
X-233082Y474597D01*
X-235118Y475440D01*
X-237030D01*
Y477352D01*
X-237873Y479388D01*
X-239432Y480947D01*
X-239073Y482173D01*
X-238370Y483870D01*
X-249310D01*
X-249143Y483466D01*
X-249849Y482410D01*
X-254534D01*
X-254786Y483680D01*
X-253402Y484253D01*
X-251843Y485812D01*
X-251070Y487680D01*
X-262010D01*
X-261237Y485812D01*
X-259678Y484253D01*
X-258294Y483680D01*
X-258546Y482410D01*
X-267580D01*
Y476390D01*
X-256790D01*
Y475120D01*
X-255520D01*
Y467830D01*
X-246000D01*
Y470300D01*
X-244730Y471148D01*
X-243672Y470710D01*
X-241760D01*
Y468798D01*
X-241073Y467140D01*
X-241684Y465870D01*
X-245770D01*
Y461600D01*
X-240030D01*
Y459060D01*
X-245770D01*
Y455179D01*
X-247540D01*
Y457870D01*
X-266040D01*
Y454435D01*
X-268281D01*
X-294273Y480427D01*
X-295024Y480928D01*
X-295910Y481105D01*
X-346710D01*
X-347596Y480928D01*
X-348347Y480427D01*
X-408629Y420145D01*
X-474980D01*
X-475866Y419968D01*
X-476617Y419467D01*
X-480427Y415657D01*
X-480928Y414906D01*
X-481105Y414020D01*
Y369179D01*
X-480928Y368293D01*
X-480427Y367542D01*
X-474468Y361583D01*
X-473717Y361082D01*
X-472831Y360905D01*
X-465335D01*
X-464809Y359636D01*
X-465707Y358738D01*
X-466480Y356870D01*
X-455540D01*
X-456313Y358738D01*
X-457211Y359636D01*
X-456685Y360905D01*
X-452310D01*
Y351520D01*
X-444310D01*
Y361020D01*
X-446707D01*
Y361391D01*
X-446883Y362277D01*
X-447385Y363028D01*
X-449213Y364857D01*
X-449964Y365358D01*
X-450850Y365535D01*
X-471873D01*
X-473179Y366841D01*
X-472460Y367918D01*
X-472440Y367910D01*
Y373380D01*
Y378850D01*
X-474308Y378077D01*
X-475205Y377179D01*
X-476475Y377705D01*
Y413061D01*
X-474021Y415516D01*
X-407670D01*
X-406784Y415692D01*
X-406033Y416193D01*
X-345751Y476475D01*
X-296869D01*
X-270877Y450483D01*
X-270126Y449982D01*
X-269240Y449805D01*
X-266040D01*
Y446370D01*
X-247540D01*
Y449061D01*
X-244230D01*
Y447530D01*
X-235830D01*
Y449510D01*
X-232222D01*
Y444773D01*
X-233138Y444209D01*
X-233179Y444223D01*
X-234290Y444904D01*
Y444960D01*
X-238760D01*
Y439420D01*
X-240030D01*
Y438150D01*
X-245770D01*
Y433880D01*
X-244230D01*
Y430364D01*
X-247540D01*
Y434870D01*
X-266040D01*
Y434870D01*
X-267154Y435246D01*
X-267580Y435422D01*
X-310540D01*
Y469370D01*
X-329040D01*
Y435422D01*
X-345440D01*
X-346205Y435105D01*
X-346522Y434340D01*
Y398029D01*
X-441472D01*
X-441725Y399299D01*
X-440357Y399865D01*
X-438799Y401424D01*
X-438025Y403292D01*
X-443496D01*
Y404562D01*
X-444766D01*
Y410032D01*
X-446634Y409258D01*
X-448192Y407700D01*
X-449036Y405664D01*
Y404668D01*
X-449036Y404502D01*
X-449610Y404415D01*
X-450779Y404320D01*
X-450779Y404320D01*
Y404320D01*
X-471930D01*
Y385620D01*
X-450553D01*
X-450553Y385620D01*
X-450553Y385620D01*
X-449354Y385486D01*
X-449036Y385438D01*
X-449036Y385406D01*
Y384410D01*
X-448192Y382374D01*
X-446710Y380892D01*
X-446742Y380520D01*
X-447071Y379622D01*
X-448408D01*
X-450444Y378778D01*
X-452002Y377220D01*
X-452776Y375352D01*
X-441835D01*
X-442609Y377220D01*
X-444091Y378702D01*
X-444059Y379074D01*
X-443730Y379972D01*
X-442394D01*
X-440357Y380815D01*
X-438799Y382374D01*
X-438025Y384242D01*
X-443496D01*
Y386782D01*
X-438025D01*
X-438799Y388650D01*
X-440357Y390208D01*
X-441402Y390641D01*
X-441150Y391911D01*
X-346522D01*
Y361950D01*
X-346205Y361185D01*
X-345440Y360868D01*
X-320593D01*
X-320067Y359598D01*
X-320927Y358738D01*
X-321700Y356870D01*
X-316230D01*
Y355600D01*
X-314960D01*
Y350130D01*
X-313092Y350903D01*
X-311533Y352462D01*
X-311202Y353261D01*
X-309828D01*
X-309497Y352462D01*
X-307938Y350903D01*
X-306070Y350130D01*
Y355600D01*
X-304800D01*
Y356870D01*
X-299330D01*
X-300103Y358738D01*
X-300963Y359598D01*
X-300437Y360868D01*
X-296463D01*
X-295937Y359598D01*
X-296797Y358738D01*
X-297570Y356870D01*
X-292100D01*
Y355600D01*
X-290830D01*
Y350130D01*
X-288962Y350903D01*
X-287403Y352462D01*
X-286560Y354498D01*
X-285333Y354394D01*
Y354076D01*
X-284490Y352040D01*
X-282931Y350481D01*
X-281063Y349708D01*
Y355178D01*
X-278523D01*
Y349708D01*
X-276655Y350481D01*
X-275526Y351610D01*
X-274713Y351902D01*
X-273900Y351610D01*
X-272771Y350481D01*
X-270903Y349708D01*
Y355178D01*
X-268363D01*
Y349708D01*
X-266495Y350481D01*
X-264937Y352040D01*
X-264606Y352839D01*
X-263231D01*
X-262900Y352040D01*
X-261341Y350481D01*
X-259473Y349708D01*
Y355178D01*
X-258203D01*
Y356448D01*
X-252733D01*
X-253507Y358316D01*
X-254788Y359598D01*
X-254396Y360868D01*
X-218440D01*
X-217675Y361185D01*
X-217358Y361950D01*
Y377743D01*
X-216184Y378228D01*
X-192289Y354333D01*
Y328280D01*
X-198580D01*
Y306580D01*
X-179880D01*
Y328280D01*
X-186171D01*
Y332175D01*
X-184901Y332428D01*
X-184861Y332330D01*
X-183302Y330771D01*
X-181434Y329998D01*
Y335468D01*
Y340938D01*
X-183302Y340165D01*
X-184861Y338606D01*
X-184901Y338509D01*
X-186171Y338761D01*
Y355600D01*
X-186171Y355600D01*
X-186404Y356771D01*
X-187067Y357763D01*
X-217358Y388053D01*
Y434340D01*
X-217675Y435105D01*
X-218440Y435422D01*
X-224373D01*
X-225003Y436692D01*
X-224400Y438150D01*
X-229870D01*
Y440690D01*
X-224400D01*
X-225003Y442148D01*
X-224373Y443418D01*
X-191770D01*
X-191005Y443735D01*
X-190688Y444500D01*
Y448779D01*
X-189420Y448784D01*
X-188811Y447314D01*
X-187686Y446189D01*
X-187627Y444816D01*
X-210812Y421632D01*
X-211199Y421053D01*
X-211334Y420370D01*
Y404911D01*
X-211816Y404711D01*
X-212941Y403586D01*
X-213550Y402116D01*
Y400524D01*
X-212941Y399054D01*
X-211816Y397929D01*
X-210346Y397320D01*
X-208754D01*
X-207284Y397929D01*
X-206159Y399054D01*
X-205550Y400524D01*
Y402116D01*
X-206159Y403586D01*
X-207284Y404711D01*
X-207766Y404911D01*
Y419631D01*
X-184158Y443238D01*
X-183771Y443817D01*
X-183636Y444500D01*
Y445989D01*
X-183154Y446189D01*
X-182029Y447314D01*
X-181420Y448784D01*
Y450376D01*
X-182029Y451846D01*
X-183154Y452971D01*
X-184624Y453580D01*
X-186216D01*
X-187686Y452971D01*
X-188811Y451846D01*
X-189420Y450376D01*
X-190688Y450381D01*
Y471170D01*
X-190537Y471395D01*
X-59379D01*
X-54384Y466401D01*
Y459272D01*
X-55461Y458196D01*
X-56070Y456726D01*
Y455134D01*
X-55461Y453664D01*
X-54384Y452588D01*
Y421172D01*
X-55461Y420096D01*
X-56070Y418626D01*
Y417034D01*
X-55461Y415564D01*
X-54384Y414488D01*
Y381879D01*
X-54208Y380993D01*
X-53707Y380242D01*
X-53180Y379890D01*
X-52828Y379363D01*
X-52077Y378862D01*
X-51191Y378685D01*
X-8579D01*
X33245Y336861D01*
Y334812D01*
X32218Y333784D01*
X-80478D01*
X-81554Y334861D01*
X-83024Y335470D01*
X-84616D01*
X-86086Y334861D01*
X-87211Y333736D01*
X-87820Y332266D01*
Y330674D01*
X-87211Y329204D01*
X-86086Y328079D01*
X-84616Y327470D01*
X-83024D01*
X-81554Y328079D01*
X-80478Y329156D01*
X32218D01*
X33294Y328079D01*
X34764Y327470D01*
X36356D01*
X37826Y328079D01*
X38951Y329204D01*
X39560Y330674D01*
Y332266D01*
X38951Y333736D01*
X37875Y334812D01*
Y337820D01*
X37698Y338706D01*
X37197Y339457D01*
X-5983Y382637D01*
X-6734Y383138D01*
X-7620Y383315D01*
X-49756D01*
Y414488D01*
X-48728Y415516D01*
X-45409D01*
X-33227Y403333D01*
X-32476Y402832D01*
X-31590Y402655D01*
X26480D01*
Y401470D01*
X34480D01*
Y408470D01*
X26480D01*
Y407285D01*
X-30631D01*
X-42813Y419467D01*
X-43564Y419968D01*
X-44450Y420145D01*
X-48728D01*
X-49756Y421172D01*
Y452588D01*
X-48728Y453615D01*
X-45720D01*
X-44834Y453792D01*
X-44083Y454293D01*
X-13435Y484942D01*
X-1082D01*
Y471137D01*
X-1637Y470583D01*
X-2138Y469832D01*
X-2315Y468946D01*
Y426720D01*
X-2138Y425834D01*
X-1637Y425083D01*
X7253Y416193D01*
X8004Y415692D01*
X8890Y415516D01*
X115083D01*
X116598Y414001D01*
Y413414D01*
X117207Y411944D01*
X118332Y410819D01*
X119802Y410210D01*
X121325D01*
X121691Y409843D01*
X122442Y409342D01*
X123328Y409165D01*
X140011D01*
X151355Y397821D01*
Y366719D01*
X150479Y365842D01*
X150355D01*
X149586Y366611D01*
X148116Y367220D01*
X146524D01*
X145054Y366611D01*
X143929Y365486D01*
X143320Y364016D01*
Y362424D01*
X143929Y360954D01*
X145054Y359829D01*
X146524Y359220D01*
X148116D01*
X149586Y359829D01*
X150711Y360954D01*
X150818Y361213D01*
X151437D01*
X152323Y361389D01*
X153074Y361891D01*
X155307Y364123D01*
X155808Y364874D01*
X155984Y365760D01*
Y398780D01*
X155808Y399666D01*
X155307Y400417D01*
X142607Y413117D01*
X141856Y413618D01*
X140970Y413795D01*
X124598D01*
Y415006D01*
X123989Y416476D01*
X122864Y417601D01*
X121393Y418210D01*
X119802D01*
X119189Y417956D01*
X117678Y419467D01*
X116927Y419968D01*
X116041Y420145D01*
X9849D01*
X2315Y427679D01*
Y467987D01*
X3780Y469453D01*
X41910D01*
X42675Y469770D01*
X42992Y470535D01*
Y494030D01*
X42675Y494795D01*
X42951Y496056D01*
X480034D01*
X480287Y494786D01*
X479111Y494299D01*
X477553Y492740D01*
X476779Y490872D01*
X487720D01*
X486946Y492740D01*
X485388Y494299D01*
X484212Y494786D01*
X484465Y496056D01*
X501624D01*
X501877Y494786D01*
X500701Y494299D01*
X499143Y492740D01*
X498369Y490872D01*
X509310D01*
X508536Y492740D01*
X506978Y494299D01*
X505802Y494786D01*
X506055Y496056D01*
X519404D01*
X519657Y494786D01*
X518481Y494299D01*
X516923Y492740D01*
X516149Y490872D01*
X527090D01*
X526316Y492740D01*
X524758Y494299D01*
X523582Y494786D01*
X523835Y496056D01*
X538454D01*
X538707Y494786D01*
X537531Y494299D01*
X535973Y492740D01*
X535199Y490872D01*
X546140D01*
X545366Y492740D01*
X543808Y494299D01*
X542632Y494786D01*
X542885Y496056D01*
X660400D01*
X661083Y496191D01*
X661662Y496578D01*
X701032Y535948D01*
X701419Y536527D01*
X701554Y537210D01*
Y561340D01*
X701419Y562023D01*
X701032Y562602D01*
X698491Y565143D01*
X698690Y565624D01*
Y567216D01*
X698081Y568686D01*
X696956Y569811D01*
X695486Y570420D01*
D02*
G37*
G36*
X-313690Y495690D02*
X-315558Y494917D01*
X-317117Y493358D01*
X-317448Y492559D01*
X-318822D01*
X-319153Y493358D01*
X-320712Y494917D01*
X-322580Y495690D01*
Y490220D01*
Y484750D01*
X-320712Y485523D01*
X-319153Y487082D01*
X-318822Y487881D01*
X-317448D01*
X-317117Y487082D01*
X-315558Y485523D01*
X-313690Y484750D01*
Y490220D01*
Y495690D01*
D02*
G37*
G36*
X-270510D02*
Y491490D01*
X-266310D01*
X-267083Y493358D01*
X-268642Y494917D01*
X-270510Y495690D01*
D02*
G37*
G36*
X-273050D02*
X-274918Y494917D01*
X-276477Y493358D01*
X-277250Y491490D01*
X-273050D01*
Y495690D01*
D02*
G37*
G36*
X-283210D02*
Y491490D01*
X-279010D01*
X-279783Y493358D01*
X-281342Y494917D01*
X-283210Y495690D01*
D02*
G37*
G36*
X-285750D02*
X-287618Y494917D01*
X-289177Y493358D01*
X-289950Y491490D01*
X-285750D01*
Y495690D01*
D02*
G37*
G36*
X-297180D02*
Y491490D01*
X-292980D01*
X-293753Y493358D01*
X-295312Y494917D01*
X-297180Y495690D01*
D02*
G37*
G36*
X-299720D02*
X-301588Y494917D01*
X-303147Y493358D01*
X-303920Y491490D01*
X-299720D01*
Y495690D01*
D02*
G37*
G36*
X-311150D02*
Y491490D01*
X-306950D01*
X-307723Y493358D01*
X-309282Y494917D01*
X-311150Y495690D01*
D02*
G37*
G36*
X-325120D02*
X-326988Y494917D01*
X-328547Y493358D01*
X-329320Y491490D01*
X-325120D01*
Y495690D01*
D02*
G37*
G36*
X619675Y494670D02*
Y490470D01*
X623875D01*
X623102Y492338D01*
X621543Y493896D01*
X619675Y494670D01*
D02*
G37*
G36*
X617135D02*
X615267Y493896D01*
X613708Y492338D01*
X612935Y490470D01*
X617135D01*
Y494670D01*
D02*
G37*
G36*
X600625D02*
Y490470D01*
X604825D01*
X604052Y492338D01*
X602493Y493896D01*
X600625Y494670D01*
D02*
G37*
G36*
X598085D02*
X596217Y493896D01*
X594658Y492338D01*
X593885Y490470D01*
X598085D01*
Y494670D01*
D02*
G37*
G36*
X582845D02*
Y490470D01*
X587045D01*
X586272Y492338D01*
X584713Y493896D01*
X582845Y494670D01*
D02*
G37*
G36*
X580305D02*
X578437Y493896D01*
X576878Y492338D01*
X576105Y490470D01*
X580305D01*
Y494670D01*
D02*
G37*
G36*
X561255D02*
Y490470D01*
X565455D01*
X564682Y492338D01*
X563123Y493896D01*
X561255Y494670D01*
D02*
G37*
G36*
X558715D02*
X556847Y493896D01*
X555288Y492338D01*
X554515Y490470D01*
X558715D01*
Y494670D01*
D02*
G37*
G36*
X-255270Y494420D02*
Y490220D01*
X-251070D01*
X-251843Y492088D01*
X-253402Y493647D01*
X-255270Y494420D01*
D02*
G37*
G36*
X-257810D02*
X-259678Y493647D01*
X-261237Y492088D01*
X-262010Y490220D01*
X-257810D01*
Y494420D01*
D02*
G37*
G36*
X-242570Y490610D02*
Y486410D01*
X-238370D01*
X-239143Y488278D01*
X-240702Y489837D01*
X-242570Y490610D01*
D02*
G37*
G36*
X-245110D02*
X-246978Y489837D01*
X-248537Y488278D01*
X-249310Y486410D01*
X-245110D01*
Y490610D01*
D02*
G37*
G36*
X-599235Y487440D02*
X-601103Y486666D01*
X-602410Y485359D01*
X-603717Y486666D01*
X-605585Y487440D01*
Y481969D01*
Y476499D01*
X-603717Y477273D01*
X-602410Y478580D01*
X-601103Y477273D01*
X-599235Y476499D01*
Y481969D01*
Y487440D01*
D02*
G37*
G36*
X-608125D02*
X-609993Y486666D01*
X-611328Y485331D01*
X-611935Y485194D01*
X-612541Y485331D01*
X-612748Y485537D01*
X-613877Y486666D01*
X-615745Y487440D01*
Y481969D01*
Y476499D01*
X-613877Y477273D01*
X-612748Y478401D01*
X-612541Y478608D01*
X-611935Y478745D01*
X-611328Y478608D01*
X-611122Y478401D01*
D01*
X-609993Y477273D01*
X-608125Y476499D01*
Y481969D01*
Y487440D01*
D02*
G37*
G36*
X-618285D02*
X-620153Y486666D01*
X-621488Y485331D01*
X-622095Y485194D01*
X-622701Y485331D01*
X-622908Y485537D01*
X-624037Y486666D01*
X-625905Y487440D01*
Y481969D01*
Y476499D01*
X-624037Y477273D01*
X-622908Y478401D01*
X-622701Y478608D01*
X-622095Y478745D01*
X-621488Y478608D01*
X-621282Y478401D01*
D01*
X-620153Y477273D01*
X-618285Y476499D01*
Y481969D01*
Y487440D01*
D02*
G37*
G36*
X-266310Y488950D02*
X-270510D01*
Y484750D01*
X-268642Y485523D01*
X-267083Y487082D01*
X-266310Y488950D01*
D02*
G37*
G36*
X-273050D02*
X-277250D01*
X-276477Y487082D01*
X-274918Y485523D01*
X-273050Y484750D01*
Y488950D01*
D02*
G37*
G36*
X-279010D02*
X-283210D01*
Y484750D01*
X-281342Y485523D01*
X-279783Y487082D01*
X-279010Y488950D01*
D02*
G37*
G36*
X-285750D02*
X-289950D01*
X-289177Y487082D01*
X-287618Y485523D01*
X-285750Y484750D01*
Y488950D01*
D02*
G37*
G36*
X-292980D02*
X-297180D01*
Y484750D01*
X-295312Y485523D01*
X-293753Y487082D01*
X-292980Y488950D01*
D02*
G37*
G36*
X-299720D02*
X-303920D01*
X-303147Y487082D01*
X-301588Y485523D01*
X-299720Y484750D01*
Y488950D01*
D02*
G37*
G36*
X-306950D02*
X-311150D01*
Y484750D01*
X-309282Y485523D01*
X-307723Y487082D01*
X-306950Y488950D01*
D02*
G37*
G36*
X-325120D02*
X-329320D01*
X-328547Y487082D01*
X-326988Y485523D01*
X-325120Y484750D01*
Y488950D01*
D02*
G37*
G36*
X546140Y488332D02*
X541940D01*
Y484132D01*
X543808Y484906D01*
X545366Y486464D01*
X546140Y488332D01*
D02*
G37*
G36*
X539400D02*
X535199D01*
X535973Y486464D01*
X537531Y484906D01*
X539400Y484132D01*
Y488332D01*
D02*
G37*
G36*
X527090D02*
X522890D01*
Y484132D01*
X524758Y484906D01*
X526316Y486464D01*
X527090Y488332D01*
D02*
G37*
G36*
X520350D02*
X516149D01*
X516923Y486464D01*
X518481Y484906D01*
X520350Y484132D01*
Y488332D01*
D02*
G37*
G36*
X509310D02*
X505110D01*
Y484132D01*
X506978Y484906D01*
X508536Y486464D01*
X509310Y488332D01*
D02*
G37*
G36*
X502570D02*
X498369D01*
X499143Y486464D01*
X500701Y484906D01*
X502570Y484132D01*
Y488332D01*
D02*
G37*
G36*
X487720D02*
X483520D01*
Y484132D01*
X485388Y484906D01*
X486946Y486464D01*
X487720Y488332D01*
D02*
G37*
G36*
X480980D02*
X476779D01*
X477553Y486464D01*
X479111Y484906D01*
X480980Y484132D01*
Y488332D01*
D02*
G37*
G36*
X-575105Y487440D02*
X-576973Y486666D01*
X-578531Y485107D01*
X-579009Y483955D01*
X-580091D01*
X-580237Y484308D01*
X-580485Y484906D01*
X-580568Y485107D01*
X-582127Y486666D01*
X-583995Y487440D01*
Y481969D01*
Y476499D01*
X-582127Y477273D01*
X-580568Y478831D01*
X-580091Y479983D01*
X-579009D01*
X-578863Y479631D01*
X-578531Y478831D01*
X-576973Y477273D01*
X-575105Y476499D01*
Y481969D01*
Y487440D01*
D02*
G37*
G36*
X313204Y488140D02*
Y483939D01*
X317405D01*
X316631Y485807D01*
X315073Y487366D01*
X313204Y488140D01*
D02*
G37*
G36*
X310665D02*
X308796Y487366D01*
X307238Y485807D01*
X306464Y483939D01*
X310665D01*
Y488140D01*
D02*
G37*
G36*
X294154D02*
Y483939D01*
X298355D01*
X297581Y485807D01*
X296023Y487366D01*
X294154Y488140D01*
D02*
G37*
G36*
X291614D02*
X289746Y487366D01*
X288188Y485807D01*
X287414Y483939D01*
X291614D01*
Y488140D01*
D02*
G37*
G36*
X276374D02*
Y483939D01*
X280575D01*
X279801Y485807D01*
X278243Y487366D01*
X276374Y488140D01*
D02*
G37*
G36*
X273834D02*
X271966Y487366D01*
X270408Y485807D01*
X269634Y483939D01*
X273834D01*
Y488140D01*
D02*
G37*
G36*
X254785D02*
Y483939D01*
X258985D01*
X258211Y485807D01*
X256653Y487366D01*
X254785Y488140D01*
D02*
G37*
G36*
X252244D02*
X250376Y487366D01*
X248818Y485807D01*
X248044Y483939D01*
X252244D01*
Y488140D01*
D02*
G37*
G36*
X234464D02*
Y483939D01*
X238665D01*
X237891Y485807D01*
X236333Y487366D01*
X234464Y488140D01*
D02*
G37*
G36*
X231924D02*
X230056Y487366D01*
X228498Y485807D01*
X227724Y483939D01*
X231924D01*
Y488140D01*
D02*
G37*
G36*
X214144D02*
Y483939D01*
X218345D01*
X217571Y485807D01*
X216013Y487366D01*
X214144Y488140D01*
D02*
G37*
G36*
X211604D02*
X209736Y487366D01*
X208178Y485807D01*
X207404Y483939D01*
X211604D01*
Y488140D01*
D02*
G37*
G36*
X196364D02*
Y483939D01*
X200565D01*
X199791Y485807D01*
X198233Y487366D01*
X196364Y488140D01*
D02*
G37*
G36*
X193825D02*
X191956Y487366D01*
X190398Y485807D01*
X189624Y483939D01*
X193825D01*
Y488140D01*
D02*
G37*
G36*
X178584D02*
Y483939D01*
X182785D01*
X182011Y485807D01*
X180453Y487366D01*
X178584Y488140D01*
D02*
G37*
G36*
X176045D02*
X174176Y487366D01*
X172618Y485807D01*
X171844Y483939D01*
X176045D01*
Y488140D01*
D02*
G37*
G36*
X159535D02*
Y483939D01*
X163735D01*
X162961Y485807D01*
X161403Y487366D01*
X159535Y488140D01*
D02*
G37*
G36*
X156994D02*
X155126Y487366D01*
X153568Y485807D01*
X152794Y483939D01*
X156994D01*
Y488140D01*
D02*
G37*
G36*
X623875Y487930D02*
X619675D01*
Y483730D01*
X621543Y484503D01*
X623102Y486062D01*
X623875Y487930D01*
D02*
G37*
G36*
X617135D02*
X612935D01*
X613708Y486062D01*
X615267Y484503D01*
X617135Y483730D01*
Y487930D01*
D02*
G37*
G36*
X604825D02*
X600625D01*
Y483730D01*
X602493Y484503D01*
X604052Y486062D01*
X604825Y487930D01*
D02*
G37*
G36*
X598085D02*
X593885D01*
X594658Y486062D01*
X596217Y484503D01*
X598085Y483730D01*
Y487930D01*
D02*
G37*
G36*
X587045D02*
X582845D01*
Y483730D01*
X584713Y484503D01*
X586272Y486062D01*
X587045Y487930D01*
D02*
G37*
G36*
X580305D02*
X576105D01*
X576878Y486062D01*
X578437Y484503D01*
X580305Y483730D01*
Y487930D01*
D02*
G37*
G36*
X565455D02*
X561255D01*
Y483730D01*
X563123Y484503D01*
X564682Y486062D01*
X565455Y487930D01*
D02*
G37*
G36*
X558715D02*
X554515D01*
X555288Y486062D01*
X556847Y484503D01*
X558715Y483730D01*
Y487930D01*
D02*
G37*
G36*
X-392498Y487451D02*
Y483250D01*
X-388298D01*
X-389071Y485119D01*
X-390630Y486677D01*
X-392498Y487451D01*
D02*
G37*
G36*
X-395038D02*
X-396906Y486677D01*
X-398465Y485119D01*
X-399238Y483250D01*
X-395038D01*
Y487451D01*
D02*
G37*
G36*
X-411548D02*
Y483250D01*
X-407348D01*
X-408121Y485119D01*
X-409680Y486677D01*
X-411548Y487451D01*
D02*
G37*
G36*
X-414088D02*
X-415956Y486677D01*
X-417515Y485119D01*
X-418288Y483250D01*
X-414088D01*
Y487451D01*
D02*
G37*
G36*
X-429328D02*
Y483250D01*
X-425128D01*
X-425901Y485119D01*
X-427460Y486677D01*
X-429328Y487451D01*
D02*
G37*
G36*
X-431868D02*
X-433736Y486677D01*
X-435295Y485119D01*
X-436068Y483250D01*
X-431868D01*
Y487451D01*
D02*
G37*
G36*
X-450918D02*
Y483250D01*
X-446718D01*
X-447491Y485119D01*
X-449050Y486677D01*
X-450918Y487451D01*
D02*
G37*
G36*
X-453458D02*
X-455326Y486677D01*
X-456885Y485119D01*
X-457658Y483250D01*
X-453458D01*
Y487451D01*
D02*
G37*
G36*
X-471238D02*
Y483250D01*
X-467038D01*
X-467811Y485119D01*
X-469370Y486677D01*
X-471238Y487451D01*
D02*
G37*
G36*
X-473778D02*
X-475646Y486677D01*
X-477205Y485119D01*
X-477978Y483250D01*
X-473778D01*
Y487451D01*
D02*
G37*
G36*
X-491558D02*
Y483250D01*
X-487358D01*
X-488131Y485119D01*
X-489690Y486677D01*
X-491558Y487451D01*
D02*
G37*
G36*
X-494098D02*
X-495966Y486677D01*
X-497525Y485119D01*
X-498298Y483250D01*
X-494098D01*
Y487451D01*
D02*
G37*
G36*
X-509338D02*
Y483250D01*
X-505138D01*
X-505911Y485119D01*
X-507470Y486677D01*
X-509338Y487451D01*
D02*
G37*
G36*
X-511878D02*
X-513746Y486677D01*
X-515305Y485119D01*
X-516078Y483250D01*
X-511878D01*
Y487451D01*
D02*
G37*
G36*
X-527118D02*
Y483250D01*
X-522918D01*
X-523691Y485119D01*
X-525250Y486677D01*
X-527118Y487451D01*
D02*
G37*
G36*
X-529658D02*
X-531526Y486677D01*
X-533085Y485119D01*
X-533858Y483250D01*
X-529658D01*
Y487451D01*
D02*
G37*
G36*
X-546168D02*
Y483250D01*
X-541968D01*
X-542741Y485119D01*
X-544300Y486677D01*
X-546168Y487451D01*
D02*
G37*
G36*
X-548708D02*
X-550576Y486677D01*
X-552135Y485119D01*
X-552908Y483250D01*
X-548708D01*
Y487451D01*
D02*
G37*
G36*
X-572565Y487440D02*
Y483239D01*
X-568364D01*
X-569138Y485107D01*
X-570697Y486666D01*
X-572565Y487440D01*
D02*
G37*
G36*
X-586535D02*
X-588403Y486666D01*
X-589962Y485107D01*
X-590735Y483239D01*
X-586535D01*
Y487440D01*
D02*
G37*
G36*
X-596695D02*
Y483239D01*
X-592495D01*
X-593268Y485107D01*
X-594827Y486666D01*
X-596695Y487440D01*
D02*
G37*
G36*
X-628445D02*
X-630313Y486666D01*
X-631871Y485107D01*
X-632645Y483239D01*
X-628445D01*
Y487440D01*
D02*
G37*
G36*
X317405Y481399D02*
X313204D01*
Y477199D01*
X315073Y477973D01*
X316631Y479531D01*
X317405Y481399D01*
D02*
G37*
G36*
X310665D02*
X306464D01*
X307238Y479531D01*
X308796Y477973D01*
X310665Y477199D01*
Y481399D01*
D02*
G37*
G36*
X298355D02*
X294154D01*
Y477199D01*
X296023Y477973D01*
X297581Y479531D01*
X298355Y481399D01*
D02*
G37*
G36*
X291614D02*
X287414D01*
X288188Y479531D01*
X289746Y477973D01*
X291614Y477199D01*
Y481399D01*
D02*
G37*
G36*
X280575D02*
X276374D01*
Y477199D01*
X278243Y477973D01*
X279801Y479531D01*
X280575Y481399D01*
D02*
G37*
G36*
X273834D02*
X269634D01*
X270408Y479531D01*
X271966Y477973D01*
X273834Y477199D01*
Y481399D01*
D02*
G37*
G36*
X258985D02*
X254785D01*
Y477199D01*
X256653Y477973D01*
X258211Y479531D01*
X258985Y481399D01*
D02*
G37*
G36*
X252244D02*
X248044D01*
X248818Y479531D01*
X250376Y477973D01*
X252244Y477199D01*
Y481399D01*
D02*
G37*
G36*
X238665D02*
X234464D01*
Y477199D01*
X236333Y477973D01*
X237891Y479531D01*
X238665Y481399D01*
D02*
G37*
G36*
X231924D02*
X227724D01*
X228498Y479531D01*
X230056Y477973D01*
X231924Y477199D01*
Y481399D01*
D02*
G37*
G36*
X218345D02*
X214144D01*
Y477199D01*
X216013Y477973D01*
X217571Y479531D01*
X218345Y481399D01*
D02*
G37*
G36*
X211604D02*
X207404D01*
X208178Y479531D01*
X209736Y477973D01*
X211604Y477199D01*
Y481399D01*
D02*
G37*
G36*
X200565D02*
X196364D01*
Y477199D01*
X198233Y477973D01*
X199791Y479531D01*
X200565Y481399D01*
D02*
G37*
G36*
X193825D02*
X189624D01*
X190398Y479531D01*
X191956Y477973D01*
X193825Y477199D01*
Y481399D01*
D02*
G37*
G36*
X182785D02*
X178584D01*
Y477199D01*
X180453Y477973D01*
X182011Y479531D01*
X182785Y481399D01*
D02*
G37*
G36*
X176045D02*
X171844D01*
X172618Y479531D01*
X174176Y477973D01*
X176045Y477199D01*
Y481399D01*
D02*
G37*
G36*
X163735D02*
X159535D01*
Y477199D01*
X161403Y477973D01*
X162961Y479531D01*
X163735Y481399D01*
D02*
G37*
G36*
X156994D02*
X152794D01*
X153568Y479531D01*
X155126Y477973D01*
X156994Y477199D01*
Y481399D01*
D02*
G37*
G36*
X-388298Y480710D02*
X-392498D01*
Y476510D01*
X-390630Y477284D01*
X-389071Y478842D01*
X-388298Y480710D01*
D02*
G37*
G36*
X-395038D02*
X-399238D01*
X-398465Y478842D01*
X-396906Y477284D01*
X-395038Y476510D01*
Y480710D01*
D02*
G37*
G36*
X-407348D02*
X-411548D01*
Y476510D01*
X-409680Y477284D01*
X-408121Y478842D01*
X-407348Y480710D01*
D02*
G37*
G36*
X-414088D02*
X-418288D01*
X-417515Y478842D01*
X-415956Y477284D01*
X-414088Y476510D01*
Y480710D01*
D02*
G37*
G36*
X-425128D02*
X-429328D01*
Y476510D01*
X-427460Y477284D01*
X-425901Y478842D01*
X-425128Y480710D01*
D02*
G37*
G36*
X-431868D02*
X-436068D01*
X-435295Y478842D01*
X-433736Y477284D01*
X-431868Y476510D01*
Y480710D01*
D02*
G37*
G36*
X-446718D02*
X-450918D01*
Y476510D01*
X-449050Y477284D01*
X-447491Y478842D01*
X-446718Y480710D01*
D02*
G37*
G36*
X-453458D02*
X-457658D01*
X-456885Y478842D01*
X-455326Y477284D01*
X-453458Y476510D01*
Y480710D01*
D02*
G37*
G36*
X-467038D02*
X-471238D01*
Y476510D01*
X-469370Y477284D01*
X-467811Y478842D01*
X-467038Y480710D01*
D02*
G37*
G36*
X-473778D02*
X-477978D01*
X-477205Y478842D01*
X-475646Y477284D01*
X-473778Y476510D01*
Y480710D01*
D02*
G37*
G36*
X-487358D02*
X-491558D01*
Y476510D01*
X-489690Y477284D01*
X-488131Y478842D01*
X-487358Y480710D01*
D02*
G37*
G36*
X-494098D02*
X-498298D01*
X-497525Y478842D01*
X-495966Y477284D01*
X-494098Y476510D01*
Y480710D01*
D02*
G37*
G36*
X-505138D02*
X-509338D01*
Y476510D01*
X-507470Y477284D01*
X-505911Y478842D01*
X-505138Y480710D01*
D02*
G37*
G36*
X-511878D02*
X-516078D01*
X-515305Y478842D01*
X-513746Y477284D01*
X-511878Y476510D01*
Y480710D01*
D02*
G37*
G36*
X-522918D02*
X-527118D01*
Y476510D01*
X-525250Y477284D01*
X-523691Y478842D01*
X-522918Y480710D01*
D02*
G37*
G36*
X-529658D02*
X-533858D01*
X-533085Y478842D01*
X-531526Y477284D01*
X-529658Y476510D01*
Y480710D01*
D02*
G37*
G36*
X-541968D02*
X-546168D01*
Y476510D01*
X-544300Y477284D01*
X-542741Y478842D01*
X-541968Y480710D01*
D02*
G37*
G36*
X-548708D02*
X-552908D01*
X-552135Y478842D01*
X-550576Y477284D01*
X-548708Y476510D01*
Y480710D01*
D02*
G37*
G36*
X-568364Y480699D02*
X-572565D01*
Y476499D01*
X-570697Y477273D01*
X-569138Y478831D01*
X-568364Y480699D01*
D02*
G37*
G36*
X-586535D02*
X-590735D01*
X-589962Y478831D01*
X-588403Y477273D01*
X-586535Y476499D01*
Y480699D01*
D02*
G37*
G36*
X-592495D02*
X-596695D01*
Y476499D01*
X-594827Y477273D01*
X-593268Y478831D01*
X-592495Y480699D01*
D02*
G37*
G36*
X-628445D02*
X-632645D01*
X-631871Y478831D01*
X-630313Y477273D01*
X-628445Y476499D01*
Y480699D01*
D02*
G37*
G36*
X619675Y474350D02*
Y470150D01*
X623875D01*
X623102Y472018D01*
X621543Y473576D01*
X619675Y474350D01*
D02*
G37*
G36*
X617135D02*
X615267Y473576D01*
X613708Y472018D01*
X612935Y470150D01*
X617135D01*
Y474350D01*
D02*
G37*
G36*
X600625D02*
Y470150D01*
X604825D01*
X604052Y472018D01*
X602493Y473576D01*
X600625Y474350D01*
D02*
G37*
G36*
X598085D02*
X596217Y473576D01*
X594658Y472018D01*
X593885Y470150D01*
X598085D01*
Y474350D01*
D02*
G37*
G36*
X582845D02*
Y470150D01*
X587045D01*
X586272Y472018D01*
X584713Y473576D01*
X582845Y474350D01*
D02*
G37*
G36*
X580305D02*
X578437Y473576D01*
X576878Y472018D01*
X576105Y470150D01*
X580305D01*
Y474350D01*
D02*
G37*
G36*
X561255D02*
Y470150D01*
X565455D01*
X564682Y472018D01*
X563123Y473576D01*
X561255Y474350D01*
D02*
G37*
G36*
X558715D02*
X556847Y473576D01*
X555288Y472018D01*
X554515Y470150D01*
X558715D01*
Y474350D01*
D02*
G37*
G36*
X542369Y474251D02*
Y470051D01*
X546570D01*
X545796Y471919D01*
X544237Y473478D01*
X542369Y474251D01*
D02*
G37*
G36*
X539829D02*
X537961Y473478D01*
X536403Y471919D01*
X535629Y470051D01*
X539829D01*
Y474251D01*
D02*
G37*
G36*
X523319D02*
Y470051D01*
X527519D01*
X526746Y471919D01*
X525187Y473478D01*
X523319Y474251D01*
D02*
G37*
G36*
X520779D02*
X518911Y473478D01*
X517352Y471919D01*
X516579Y470051D01*
X520779D01*
Y474251D01*
D02*
G37*
G36*
X505539D02*
Y470051D01*
X509739D01*
X508966Y471919D01*
X507407Y473478D01*
X505539Y474251D01*
D02*
G37*
G36*
X502999D02*
X501131Y473478D01*
X499572Y471919D01*
X498799Y470051D01*
X502999D01*
Y474251D01*
D02*
G37*
G36*
X483949D02*
Y470051D01*
X488149D01*
X487376Y471919D01*
X485817Y473478D01*
X483949Y474251D01*
D02*
G37*
G36*
X481409D02*
X479541Y473478D01*
X477982Y471919D01*
X477209Y470051D01*
X481409D01*
Y474251D01*
D02*
G37*
G36*
X-571500Y474100D02*
Y469900D01*
X-567300D01*
X-568073Y471768D01*
X-569632Y473327D01*
X-571500Y474100D01*
D02*
G37*
G36*
X-574040D02*
X-575908Y473327D01*
X-577467Y471768D01*
X-578240Y469900D01*
X-574040D01*
Y474100D01*
D02*
G37*
G36*
X-258060Y473850D02*
X-267580D01*
Y467830D01*
X-258060D01*
Y473850D01*
D02*
G37*
G36*
X-612450Y471331D02*
X-614680D01*
Y465500D01*
X-605517D01*
X-605591Y466068D01*
X-606301Y467780D01*
X-607429Y469251D01*
X-608900Y470379D01*
X-610612Y471089D01*
X-612450Y471331D01*
D02*
G37*
G36*
X-617220D02*
X-619450D01*
X-621288Y471089D01*
X-623000Y470379D01*
X-624471Y469251D01*
X-625599Y467780D01*
X-626309Y466068D01*
X-626384Y465500D01*
X-617220D01*
Y471331D01*
D02*
G37*
G36*
X-587950Y473888D02*
X-590180D01*
Y464500D01*
X-581792D01*
Y467730D01*
X-582261Y470087D01*
X-583595Y472085D01*
X-585593Y473420D01*
X-587950Y473888D01*
D02*
G37*
G36*
X-592720D02*
X-594950D01*
X-597307Y473420D01*
X-599305Y472085D01*
X-600639Y470087D01*
X-601108Y467730D01*
Y464500D01*
X-592720D01*
Y473888D01*
D02*
G37*
G36*
X623875Y467610D02*
X619675D01*
Y463410D01*
X621543Y464183D01*
X623102Y465742D01*
X623875Y467610D01*
D02*
G37*
G36*
X617135D02*
X612935D01*
X613708Y465742D01*
X615267Y464183D01*
X617135Y463410D01*
Y467610D01*
D02*
G37*
G36*
X604825D02*
X600625D01*
Y463410D01*
X602493Y464183D01*
X604052Y465742D01*
X604825Y467610D01*
D02*
G37*
G36*
X598085D02*
X593885D01*
X594658Y465742D01*
X596217Y464183D01*
X598085Y463410D01*
Y467610D01*
D02*
G37*
G36*
X587045D02*
X582845D01*
Y463410D01*
X584713Y464183D01*
X586272Y465742D01*
X587045Y467610D01*
D02*
G37*
G36*
X580305D02*
X576105D01*
X576878Y465742D01*
X578437Y464183D01*
X580305Y463410D01*
Y467610D01*
D02*
G37*
G36*
X565455D02*
X561255D01*
Y463410D01*
X563123Y464183D01*
X564682Y465742D01*
X565455Y467610D01*
D02*
G37*
G36*
X558715D02*
X554515D01*
X555288Y465742D01*
X556847Y464183D01*
X558715Y463410D01*
Y467610D01*
D02*
G37*
G36*
X546570Y467511D02*
X542369D01*
Y463311D01*
X544237Y464084D01*
X545796Y465643D01*
X546570Y467511D01*
D02*
G37*
G36*
X539829D02*
X535629D01*
X536403Y465643D01*
X537961Y464084D01*
X539829Y463311D01*
Y467511D01*
D02*
G37*
G36*
X527519D02*
X523319D01*
Y463311D01*
X525187Y464084D01*
X526746Y465643D01*
X527519Y467511D01*
D02*
G37*
G36*
X520779D02*
X516579D01*
X517352Y465643D01*
X518911Y464084D01*
X520779Y463311D01*
Y467511D01*
D02*
G37*
G36*
X509739D02*
X505539D01*
Y463311D01*
X507407Y464084D01*
X508966Y465643D01*
X509739Y467511D01*
D02*
G37*
G36*
X502999D02*
X498799D01*
X499572Y465643D01*
X501131Y464084D01*
X502999Y463311D01*
Y467511D01*
D02*
G37*
G36*
X488149D02*
X483949D01*
Y463311D01*
X485817Y464084D01*
X487376Y465643D01*
X488149Y467511D01*
D02*
G37*
G36*
X481409D02*
X477209D01*
X477982Y465643D01*
X479541Y464084D01*
X481409Y463311D01*
Y467511D01*
D02*
G37*
G36*
X-567300Y467360D02*
X-578240D01*
X-577467Y465492D01*
X-575908Y463933D01*
X-574756Y463456D01*
Y462374D01*
X-575755Y461960D01*
X-575908Y461897D01*
X-577467Y460338D01*
X-578240Y458470D01*
X-567300D01*
X-568073Y460338D01*
X-569632Y461897D01*
X-570784Y462374D01*
Y463456D01*
X-570431Y463602D01*
D01*
X-569632Y463933D01*
X-568073Y465492D01*
X-567300Y467360D01*
D02*
G37*
G36*
X-605517Y462960D02*
X-614680D01*
Y457129D01*
X-612450D01*
X-610612Y457371D01*
X-608900Y458081D01*
X-607429Y459209D01*
X-606301Y460680D01*
X-605591Y462392D01*
X-605517Y462960D01*
D02*
G37*
G36*
X-617220D02*
X-626384D01*
X-626309Y462392D01*
X-625599Y460680D01*
X-624471Y459209D01*
X-623000Y458081D01*
X-621288Y457371D01*
X-619450Y457129D01*
X-617220D01*
Y462960D01*
D02*
G37*
G36*
X312420Y457590D02*
Y453390D01*
X316620D01*
X315847Y455258D01*
X314288Y456817D01*
X312420Y457590D01*
D02*
G37*
G36*
X309880D02*
X308012Y456817D01*
X306453Y455258D01*
X305680Y453390D01*
X309880D01*
Y457590D01*
D02*
G37*
G36*
X293370D02*
Y453390D01*
X297570D01*
X296797Y455258D01*
X295238Y456817D01*
X293370Y457590D01*
D02*
G37*
G36*
X290830D02*
X288962Y456817D01*
X287403Y455258D01*
X286630Y453390D01*
X290830D01*
Y457590D01*
D02*
G37*
G36*
X275590D02*
Y453390D01*
X279790D01*
X279017Y455258D01*
X277458Y456817D01*
X275590Y457590D01*
D02*
G37*
G36*
X273050D02*
X271182Y456817D01*
X269623Y455258D01*
X268850Y453390D01*
X273050D01*
Y457590D01*
D02*
G37*
G36*
X254000D02*
Y453390D01*
X258200D01*
X257427Y455258D01*
X255868Y456817D01*
X254000Y457590D01*
D02*
G37*
G36*
X251460D02*
X249592Y456817D01*
X248033Y455258D01*
X247260Y453390D01*
X251460D01*
Y457590D01*
D02*
G37*
G36*
X233680D02*
Y453390D01*
X237880D01*
X237107Y455258D01*
X235548Y456817D01*
X233680Y457590D01*
D02*
G37*
G36*
X231140D02*
X229272Y456817D01*
X227713Y455258D01*
X226940Y453390D01*
X231140D01*
Y457590D01*
D02*
G37*
G36*
X213360D02*
Y453390D01*
X217560D01*
X216787Y455258D01*
X215228Y456817D01*
X213360Y457590D01*
D02*
G37*
G36*
X210820D02*
X208952Y456817D01*
X207393Y455258D01*
X206620Y453390D01*
X210820D01*
Y457590D01*
D02*
G37*
G36*
X195580D02*
Y453390D01*
X199780D01*
X199007Y455258D01*
X197448Y456817D01*
X195580Y457590D01*
D02*
G37*
G36*
X193040D02*
X191172Y456817D01*
X189613Y455258D01*
X188840Y453390D01*
X193040D01*
Y457590D01*
D02*
G37*
G36*
X177800D02*
Y453390D01*
X182000D01*
X181227Y455258D01*
X179668Y456817D01*
X177800Y457590D01*
D02*
G37*
G36*
X175260D02*
X173392Y456817D01*
X171833Y455258D01*
X171060Y453390D01*
X175260D01*
Y457590D01*
D02*
G37*
G36*
X158750D02*
Y453390D01*
X162950D01*
X162177Y455258D01*
X160618Y456817D01*
X158750Y457590D01*
D02*
G37*
G36*
X156210D02*
X154342Y456817D01*
X152783Y455258D01*
X152010Y453390D01*
X156210D01*
Y457590D01*
D02*
G37*
G36*
X-581792Y461960D02*
X-590180D01*
Y452572D01*
X-587950D01*
X-585593Y453041D01*
X-583595Y454375D01*
X-582261Y456373D01*
X-581792Y458730D01*
Y461960D01*
D02*
G37*
G36*
X-592720D02*
X-601108D01*
Y458730D01*
X-600639Y456373D01*
X-599305Y454375D01*
X-597307Y453041D01*
X-594950Y452572D01*
X-592720D01*
Y461960D01*
D02*
G37*
G36*
X-389569Y455714D02*
Y451514D01*
X-385369D01*
X-386143Y453382D01*
X-387701Y454941D01*
X-389569Y455714D01*
D02*
G37*
G36*
X-392109D02*
X-393977Y454941D01*
X-395536Y453382D01*
X-396310Y451514D01*
X-392109D01*
Y455714D01*
D02*
G37*
G36*
X-408619D02*
Y451514D01*
X-404419D01*
X-405193Y453382D01*
X-406751Y454941D01*
X-408619Y455714D01*
D02*
G37*
G36*
X-411159D02*
X-413027Y454941D01*
X-414586Y453382D01*
X-415360Y451514D01*
X-411159D01*
Y455714D01*
D02*
G37*
G36*
X-426399D02*
Y451514D01*
X-422199D01*
X-422973Y453382D01*
X-424531Y454941D01*
X-426399Y455714D01*
D02*
G37*
G36*
X-428939D02*
X-430807Y454941D01*
X-432366Y453382D01*
X-433140Y451514D01*
X-428939D01*
Y455714D01*
D02*
G37*
G36*
X-447989D02*
Y451514D01*
X-443789D01*
X-444563Y453382D01*
X-446121Y454941D01*
X-447989Y455714D01*
D02*
G37*
G36*
X-450529D02*
X-452397Y454941D01*
X-453956Y453382D01*
X-454730Y451514D01*
X-450529D01*
Y455714D01*
D02*
G37*
G36*
X-468309D02*
Y451514D01*
X-464109D01*
X-464883Y453382D01*
X-466441Y454941D01*
X-468309Y455714D01*
D02*
G37*
G36*
X-470849D02*
X-472717Y454941D01*
X-474276Y453382D01*
X-475050Y451514D01*
X-470849D01*
Y455714D01*
D02*
G37*
G36*
X-488629D02*
Y451514D01*
X-484429D01*
X-485203Y453382D01*
X-486761Y454941D01*
X-488629Y455714D01*
D02*
G37*
G36*
X-491169D02*
X-493037Y454941D01*
X-494596Y453382D01*
X-495370Y451514D01*
X-491169D01*
Y455714D01*
D02*
G37*
G36*
X-506409D02*
Y451514D01*
X-502209D01*
X-502983Y453382D01*
X-504541Y454941D01*
X-506409Y455714D01*
D02*
G37*
G36*
X-508949D02*
X-510817Y454941D01*
X-512376Y453382D01*
X-513150Y451514D01*
X-508949D01*
Y455714D01*
D02*
G37*
G36*
X-524189D02*
Y451514D01*
X-519989D01*
X-520763Y453382D01*
X-522321Y454941D01*
X-524189Y455714D01*
D02*
G37*
G36*
X-526729D02*
X-528597Y454941D01*
X-530156Y453382D01*
X-530930Y451514D01*
X-526729D01*
Y455714D01*
D02*
G37*
G36*
X-543239D02*
Y451514D01*
X-539039D01*
X-539813Y453382D01*
X-541371Y454941D01*
X-543239Y455714D01*
D02*
G37*
G36*
X-545779D02*
X-547647Y454941D01*
X-549206Y453382D01*
X-549980Y451514D01*
X-545779D01*
Y455714D01*
D02*
G37*
G36*
X-567300Y455930D02*
X-578240D01*
X-577467Y454062D01*
X-576572Y453167D01*
X-576571Y453166D01*
X-576395Y452990D01*
X-575908Y452503D01*
X-576395Y451684D01*
X-576572Y451507D01*
D01*
X-577262Y450817D01*
X-578035Y448949D01*
X-567094D01*
X-567868Y450817D01*
D01*
X-568763Y451712D01*
X-568764Y451713D01*
X-568940Y451889D01*
X-569427Y452376D01*
X-568940Y453195D01*
X-568763Y453372D01*
X-568073Y454062D01*
X-567300Y455930D01*
D02*
G37*
G36*
X619705Y453002D02*
Y448801D01*
X623905D01*
X623131Y450670D01*
X621573Y452228D01*
X619705Y453002D01*
D02*
G37*
G36*
X617165D02*
X615297Y452228D01*
X613738Y450670D01*
X612964Y448801D01*
X617165D01*
Y453002D01*
D02*
G37*
G36*
X600655D02*
Y448801D01*
X604855D01*
X604081Y450670D01*
X602523Y452228D01*
X600655Y453002D01*
D02*
G37*
G36*
X598115D02*
X596247Y452228D01*
X594688Y450670D01*
X593914Y448801D01*
X598115D01*
Y453002D01*
D02*
G37*
G36*
X582875D02*
Y448801D01*
X587075D01*
X586301Y450670D01*
X584743Y452228D01*
X582875Y453002D01*
D02*
G37*
G36*
X580335D02*
X578467Y452228D01*
X576908Y450670D01*
X576134Y448801D01*
X580335D01*
Y453002D01*
D02*
G37*
G36*
X561285D02*
Y448801D01*
X565485D01*
X564711Y450670D01*
X563153Y452228D01*
X561285Y453002D01*
D02*
G37*
G36*
X558745D02*
X556877Y452228D01*
X555318Y450670D01*
X554544Y448801D01*
X558745D01*
Y453002D01*
D02*
G37*
G36*
X542369Y452661D02*
Y448461D01*
X546570D01*
X545796Y450329D01*
X544237Y451888D01*
X542369Y452661D01*
D02*
G37*
G36*
X539829D02*
X537961Y451888D01*
X536403Y450329D01*
X535629Y448461D01*
X539829D01*
Y452661D01*
D02*
G37*
G36*
X523319D02*
Y448461D01*
X527519D01*
X526746Y450329D01*
X525187Y451888D01*
X523319Y452661D01*
D02*
G37*
G36*
X520779D02*
X518911Y451888D01*
X517352Y450329D01*
X516579Y448461D01*
X520779D01*
Y452661D01*
D02*
G37*
G36*
X505539D02*
Y448461D01*
X509739D01*
X508966Y450329D01*
X507407Y451888D01*
X505539Y452661D01*
D02*
G37*
G36*
X502999D02*
X501131Y451888D01*
X499572Y450329D01*
X498799Y448461D01*
X502999D01*
Y452661D01*
D02*
G37*
G36*
X483949D02*
Y448461D01*
X488149D01*
X487376Y450329D01*
X485817Y451888D01*
X483949Y452661D01*
D02*
G37*
G36*
X481409D02*
X479541Y451888D01*
X477982Y450329D01*
X477209Y448461D01*
X481409D01*
Y452661D01*
D02*
G37*
G36*
X316620Y450850D02*
X312420D01*
Y446650D01*
X314288Y447423D01*
X315847Y448982D01*
X316620Y450850D01*
D02*
G37*
G36*
X309880D02*
X305680D01*
X306453Y448982D01*
X308012Y447423D01*
X309880Y446650D01*
Y450850D01*
D02*
G37*
G36*
X297570D02*
X293370D01*
Y446650D01*
X295238Y447423D01*
X296797Y448982D01*
X297570Y450850D01*
D02*
G37*
G36*
X290830D02*
X286630D01*
X287403Y448982D01*
X288962Y447423D01*
X290830Y446650D01*
Y450850D01*
D02*
G37*
G36*
X279790D02*
X275590D01*
Y446650D01*
X277458Y447423D01*
X279017Y448982D01*
X279790Y450850D01*
D02*
G37*
G36*
X273050D02*
X268850D01*
X269623Y448982D01*
X271182Y447423D01*
X273050Y446650D01*
Y450850D01*
D02*
G37*
G36*
X258200D02*
X254000D01*
Y446650D01*
X255868Y447423D01*
X257427Y448982D01*
X258200Y450850D01*
D02*
G37*
G36*
X251460D02*
X247260D01*
X248033Y448982D01*
X249592Y447423D01*
X251460Y446650D01*
Y450850D01*
D02*
G37*
G36*
X237880D02*
X233680D01*
Y446650D01*
X235548Y447423D01*
X237107Y448982D01*
X237880Y450850D01*
D02*
G37*
G36*
X231140D02*
X226940D01*
X227713Y448982D01*
X229272Y447423D01*
X231140Y446650D01*
Y450850D01*
D02*
G37*
G36*
X217560D02*
X213360D01*
Y446650D01*
X215228Y447423D01*
X216787Y448982D01*
X217560Y450850D01*
D02*
G37*
G36*
X210820D02*
X206620D01*
X207393Y448982D01*
X208952Y447423D01*
X210820Y446650D01*
Y450850D01*
D02*
G37*
G36*
X199780D02*
X195580D01*
Y446650D01*
X197448Y447423D01*
X199007Y448982D01*
X199780Y450850D01*
D02*
G37*
G36*
X193040D02*
X188840D01*
X189613Y448982D01*
X191172Y447423D01*
X193040Y446650D01*
Y450850D01*
D02*
G37*
G36*
X182000D02*
X177800D01*
Y446650D01*
X179668Y447423D01*
X181227Y448982D01*
X182000Y450850D01*
D02*
G37*
G36*
X175260D02*
X171060D01*
X171833Y448982D01*
X173392Y447423D01*
X175260Y446650D01*
Y450850D01*
D02*
G37*
G36*
X162950D02*
X158750D01*
Y446650D01*
X160618Y447423D01*
X162177Y448982D01*
X162950Y450850D01*
D02*
G37*
G36*
X156210D02*
X152010D01*
X152783Y448982D01*
X154342Y447423D01*
X156210Y446650D01*
Y450850D01*
D02*
G37*
G36*
X-584450Y448859D02*
X-587930D01*
Y445500D01*
X-580074D01*
X-580173Y446001D01*
X-581177Y447503D01*
X-582679Y448507D01*
X-584450Y448859D01*
D02*
G37*
G36*
X-590470D02*
X-593950D01*
X-595721Y448507D01*
X-597223Y447503D01*
X-598227Y446001D01*
X-598326Y445500D01*
X-590470D01*
Y448859D01*
D02*
G37*
G36*
X-385369Y448974D02*
X-389569D01*
Y444774D01*
X-387701Y445547D01*
X-386143Y447106D01*
X-385369Y448974D01*
D02*
G37*
G36*
X-392109D02*
X-396310D01*
X-395536Y447106D01*
X-393977Y445547D01*
X-392109Y444774D01*
Y448974D01*
D02*
G37*
G36*
X-404419D02*
X-408619D01*
Y444774D01*
X-406751Y445547D01*
X-405193Y447106D01*
X-404419Y448974D01*
D02*
G37*
G36*
X-411159D02*
X-415360D01*
X-414586Y447106D01*
X-413027Y445547D01*
X-411159Y444774D01*
Y448974D01*
D02*
G37*
G36*
X-422199D02*
X-426399D01*
Y444774D01*
X-424531Y445547D01*
X-422973Y447106D01*
X-422199Y448974D01*
D02*
G37*
G36*
X-428939D02*
X-433140D01*
X-432366Y447106D01*
X-430807Y445547D01*
X-428939Y444774D01*
Y448974D01*
D02*
G37*
G36*
X-443789D02*
X-447989D01*
Y444774D01*
X-446121Y445547D01*
X-444563Y447106D01*
X-443789Y448974D01*
D02*
G37*
G36*
X-450529D02*
X-454730D01*
X-453956Y447106D01*
X-452397Y445547D01*
X-450529Y444774D01*
Y448974D01*
D02*
G37*
G36*
X-464109D02*
X-468309D01*
Y444774D01*
X-466441Y445547D01*
X-464883Y447106D01*
X-464109Y448974D01*
D02*
G37*
G36*
X-470849D02*
X-475050D01*
X-474276Y447106D01*
X-472717Y445547D01*
X-470849Y444774D01*
Y448974D01*
D02*
G37*
G36*
X-484429D02*
X-488629D01*
Y444774D01*
X-486761Y445547D01*
X-485203Y447106D01*
X-484429Y448974D01*
D02*
G37*
G36*
X-491169D02*
X-495370D01*
X-494596Y447106D01*
X-493037Y445547D01*
X-491169Y444774D01*
Y448974D01*
D02*
G37*
G36*
X-502209D02*
X-506409D01*
Y444774D01*
X-504541Y445547D01*
X-502983Y447106D01*
X-502209Y448974D01*
D02*
G37*
G36*
X-508949D02*
X-513150D01*
X-512376Y447106D01*
X-510817Y445547D01*
X-508949Y444774D01*
Y448974D01*
D02*
G37*
G36*
X-519989D02*
X-524189D01*
Y444774D01*
X-522321Y445547D01*
X-520763Y447106D01*
X-519989Y448974D01*
D02*
G37*
G36*
X-526729D02*
X-530930D01*
X-530156Y447106D01*
X-528597Y445547D01*
X-526729Y444774D01*
Y448974D01*
D02*
G37*
G36*
X-539039D02*
X-543239D01*
Y444774D01*
X-541371Y445547D01*
X-539813Y447106D01*
X-539039Y448974D01*
D02*
G37*
G36*
X-545779D02*
X-549980D01*
X-549206Y447106D01*
X-547647Y445547D01*
X-545779Y444774D01*
Y448974D01*
D02*
G37*
G36*
X-604410Y455270D02*
X-614680D01*
Y444500D01*
X-604410D01*
Y455270D01*
D02*
G37*
G36*
X-617220D02*
X-627490D01*
Y444500D01*
X-617220D01*
Y455270D01*
D02*
G37*
G36*
X-567094Y446409D02*
X-571295D01*
Y442209D01*
X-569427Y442983D01*
X-567868Y444541D01*
X-567094Y446409D01*
D02*
G37*
G36*
X-573835D02*
X-578035D01*
X-577262Y444541D01*
X-575703Y442983D01*
X-573835Y442209D01*
Y446409D01*
D02*
G37*
G36*
X623905Y446261D02*
X619705D01*
Y442061D01*
X621573Y442835D01*
X623131Y444393D01*
X623905Y446261D01*
D02*
G37*
G36*
X617165D02*
X612964D01*
X613738Y444393D01*
X615297Y442835D01*
X617165Y442061D01*
Y446261D01*
D02*
G37*
G36*
X604855D02*
X600655D01*
Y442061D01*
X602523Y442835D01*
X604081Y444393D01*
X604855Y446261D01*
D02*
G37*
G36*
X598115D02*
X593914D01*
X594688Y444393D01*
X596247Y442835D01*
X598115Y442061D01*
Y446261D01*
D02*
G37*
G36*
X587075D02*
X582875D01*
Y442061D01*
X584743Y442835D01*
X586301Y444393D01*
X587075Y446261D01*
D02*
G37*
G36*
X580335D02*
X576134D01*
X576908Y444393D01*
X578467Y442835D01*
X580335Y442061D01*
Y446261D01*
D02*
G37*
G36*
X565485D02*
X561285D01*
Y442061D01*
X563153Y442835D01*
X564711Y444393D01*
X565485Y446261D01*
D02*
G37*
G36*
X558745D02*
X554544D01*
X555318Y444393D01*
X556877Y442835D01*
X558745Y442061D01*
Y446261D01*
D02*
G37*
G36*
X-175734Y449770D02*
X-177326D01*
X-178796Y449161D01*
X-179921Y448036D01*
X-180530Y446566D01*
Y444974D01*
X-180331Y444493D01*
X-203192Y421632D01*
X-203578Y421053D01*
X-203714Y420370D01*
Y397290D01*
X-204196Y397091D01*
X-205321Y395966D01*
X-205930Y394496D01*
Y392904D01*
X-205321Y391434D01*
X-204196Y390309D01*
X-202726Y389700D01*
X-201134D01*
X-199664Y390309D01*
X-198539Y391434D01*
X-197930Y392904D01*
Y394496D01*
X-198539Y395966D01*
X-199664Y397091D01*
X-200146Y397290D01*
Y419631D01*
X-177807Y441969D01*
X-177326Y441770D01*
X-175734D01*
X-174264Y442379D01*
X-173139Y443504D01*
X-172530Y444974D01*
Y446566D01*
X-173139Y448036D01*
X-174264Y449161D01*
X-175734Y449770D01*
D02*
G37*
G36*
X546570Y445921D02*
X542369D01*
Y441721D01*
X544237Y442494D01*
X545796Y444053D01*
X546570Y445921D01*
D02*
G37*
G36*
X539829D02*
X535629D01*
X536403Y444053D01*
X537961Y442494D01*
X539829Y441721D01*
Y445921D01*
D02*
G37*
G36*
X527519D02*
X523319D01*
Y441721D01*
X525187Y442494D01*
X526746Y444053D01*
X527519Y445921D01*
D02*
G37*
G36*
X520779D02*
X516579D01*
X517352Y444053D01*
X518911Y442494D01*
X520779Y441721D01*
Y445921D01*
D02*
G37*
G36*
X509739D02*
X505539D01*
Y441721D01*
X507407Y442494D01*
X508966Y444053D01*
X509739Y445921D01*
D02*
G37*
G36*
X502999D02*
X498799D01*
X499572Y444053D01*
X501131Y442494D01*
X502999Y441721D01*
Y445921D01*
D02*
G37*
G36*
X488149D02*
X483949D01*
Y441721D01*
X485817Y442494D01*
X487376Y444053D01*
X488149Y445921D01*
D02*
G37*
G36*
X481409D02*
X477209D01*
X477982Y444053D01*
X479541Y442494D01*
X481409Y441721D01*
Y445921D01*
D02*
G37*
G36*
X-241300Y444960D02*
X-245770D01*
Y440690D01*
X-241300D01*
Y444960D01*
D02*
G37*
G36*
X543560Y433460D02*
Y429260D01*
X547760D01*
X546987Y431128D01*
X545428Y432687D01*
X543560Y433460D01*
D02*
G37*
G36*
X541020D02*
X539152Y432687D01*
X537593Y431128D01*
X536820Y429260D01*
X541020D01*
Y433460D01*
D02*
G37*
G36*
X483791Y433156D02*
Y428956D01*
X487991D01*
X487217Y430824D01*
X485659Y432382D01*
X483791Y433156D01*
D02*
G37*
G36*
X481251D02*
X479383Y432382D01*
X477824Y430824D01*
X477050Y428956D01*
X481251D01*
Y433156D01*
D02*
G37*
G36*
X619705Y432682D02*
Y428481D01*
X623905D01*
X623131Y430350D01*
X621573Y431908D01*
X619705Y432682D01*
D02*
G37*
G36*
X617165D02*
X615297Y431908D01*
X613738Y430350D01*
X612964Y428481D01*
X617165D01*
Y432682D01*
D02*
G37*
G36*
X600655D02*
Y428481D01*
X604855D01*
X604081Y430350D01*
X602523Y431908D01*
X600655Y432682D01*
D02*
G37*
G36*
X598115D02*
X596247Y431908D01*
X594688Y430350D01*
X593914Y428481D01*
X598115D01*
Y432682D01*
D02*
G37*
G36*
X582875D02*
Y428481D01*
X587075D01*
X586301Y430350D01*
X584743Y431908D01*
X582875Y432682D01*
D02*
G37*
G36*
X580335D02*
X578467Y431908D01*
X576908Y430350D01*
X576134Y428481D01*
X580335D01*
Y432682D01*
D02*
G37*
G36*
X561285D02*
Y428481D01*
X565485D01*
X564711Y430350D01*
X563153Y431908D01*
X561285Y432682D01*
D02*
G37*
G36*
X558745D02*
X556877Y431908D01*
X555318Y430350D01*
X554544Y428481D01*
X558745D01*
Y432682D01*
D02*
G37*
G36*
X524510Y432190D02*
Y427990D01*
X528710D01*
X527937Y429858D01*
X526378Y431417D01*
X524510Y432190D01*
D02*
G37*
G36*
X521970D02*
X520102Y431417D01*
X518543Y429858D01*
X517770Y427990D01*
X521970D01*
Y432190D01*
D02*
G37*
G36*
X505460D02*
Y427990D01*
X509660D01*
X508887Y429858D01*
X507328Y431417D01*
X505460Y432190D01*
D02*
G37*
G36*
X502920D02*
X501052Y431417D01*
X499493Y429858D01*
X498720Y427990D01*
X502920D01*
Y432190D01*
D02*
G37*
G36*
X-580074Y442960D02*
X-589200D01*
X-598326D01*
X-598227Y442459D01*
X-597223Y440957D01*
X-596113Y440215D01*
Y439893D01*
X-596776Y438900D01*
X-597009Y437730D01*
X-596776Y436559D01*
X-596113Y435567D01*
X-596079Y435544D01*
Y434017D01*
X-596473Y433753D01*
X-597247Y432596D01*
X-597519Y431230D01*
X-597247Y429864D01*
X-596473Y428707D01*
X-596336Y428615D01*
Y427345D01*
X-596473Y427253D01*
X-597247Y426096D01*
X-597519Y424730D01*
X-597311Y423687D01*
X-597948Y422937D01*
X-598314Y422714D01*
X-598334Y422722D01*
X-601980D01*
X-602745Y422405D01*
X-603062Y421640D01*
Y411480D01*
X-602745Y410715D01*
X-601980Y410398D01*
X-598129D01*
X-597744Y409128D01*
X-599305Y408085D01*
X-600639Y406087D01*
X-601108Y403730D01*
Y400500D01*
X-591450D01*
X-581792D01*
Y403730D01*
X-582261Y406087D01*
D01*
X-583595Y408085D01*
X-585156Y409128D01*
X-584771Y410398D01*
X-577662D01*
Y384810D01*
X-577345Y384045D01*
X-576580Y383728D01*
X-536600D01*
Y381680D01*
X-530860D01*
Y379140D01*
X-536600D01*
Y374870D01*
X-536600D01*
X-535773Y373600D01*
X-536125Y372749D01*
X-530655D01*
Y371479D01*
X-529385D01*
Y366009D01*
X-527517Y366783D01*
X-525958Y368341D01*
X-525627Y369141D01*
X-524253D01*
X-523922Y368341D01*
X-522363Y366783D01*
X-520495Y366009D01*
Y371479D01*
X-517955D01*
Y366009D01*
X-516087Y366783D01*
X-514528Y368341D01*
X-513685Y370377D01*
Y370576D01*
X-512415Y371424D01*
X-511605Y371089D01*
Y376559D01*
Y382030D01*
X-512420Y381692D01*
X-513690Y382541D01*
Y384680D01*
X-513690Y385596D01*
X-512430Y385620D01*
X-512430Y385620D01*
X-511311Y385620D01*
X-511311D01*
X-511307Y385620D01*
X-503439D01*
Y315740D01*
X-504580D01*
Y308480D01*
X-506120D01*
Y304210D01*
X-500380D01*
Y301670D01*
X-506120D01*
Y297400D01*
X-505844D01*
X-505233Y296130D01*
X-505850Y294640D01*
X-500380D01*
Y293370D01*
X-499110D01*
Y287900D01*
X-497242Y288673D01*
X-495683Y290232D01*
X-495352Y291031D01*
X-493978D01*
X-493647Y290232D01*
X-492088Y288673D01*
X-490220Y287900D01*
Y293370D01*
X-488950D01*
Y294640D01*
X-483480D01*
X-484097Y296130D01*
X-483486Y297400D01*
X-483210D01*
Y301670D01*
X-488950D01*
Y304210D01*
X-483210D01*
Y307333D01*
X-481940Y308062D01*
X-481510Y307810D01*
Y307810D01*
X-465510D01*
Y315810D01*
X-481510D01*
Y314799D01*
X-484750D01*
Y315740D01*
X-493150D01*
Y314799D01*
X-496180D01*
Y315740D01*
X-497321D01*
Y385620D01*
X-490730D01*
X-490177Y384579D01*
X-489955Y384045D01*
X-489190Y383728D01*
X-485140D01*
X-484375Y384045D01*
X-484058Y384810D01*
X-484058Y421640D01*
X-484375Y422405D01*
X-485140Y422722D01*
X-566068Y422722D01*
X-566594Y423992D01*
X-566415Y424171D01*
X-565730Y425825D01*
Y427615D01*
X-566415Y429269D01*
X-567676Y430530D01*
X-566415Y431791D01*
X-565730Y433445D01*
Y435235D01*
X-566415Y436889D01*
X-567681Y438155D01*
X-569335Y438840D01*
X-571125D01*
X-572779Y438155D01*
X-574045Y436889D01*
X-574730Y435235D01*
Y434289D01*
X-575495Y433524D01*
X-581255D01*
X-582135Y434385D01*
X-582287Y435567D01*
X-581624Y436559D01*
X-581391Y437730D01*
X-581624Y438900D01*
X-582287Y439893D01*
Y440215D01*
X-581177Y440957D01*
X-580173Y442459D01*
X-580074Y442960D01*
D02*
G37*
G36*
X547760Y426720D02*
X543560D01*
Y422520D01*
X545428Y423293D01*
X546987Y424852D01*
X547760Y426720D01*
D02*
G37*
G36*
X541020D02*
X536820D01*
X537593Y424852D01*
X539152Y423293D01*
X541020Y422520D01*
Y426720D01*
D02*
G37*
G36*
X487991Y426416D02*
X483791D01*
Y422215D01*
X485659Y422989D01*
X487217Y424548D01*
X487991Y426416D01*
D02*
G37*
G36*
X481251D02*
X477050D01*
X477824Y424548D01*
X479383Y422989D01*
X481251Y422215D01*
Y426416D01*
D02*
G37*
G36*
X623905Y425941D02*
X619705D01*
Y421741D01*
X621573Y422515D01*
X623131Y424073D01*
X623905Y425941D01*
D02*
G37*
G36*
X617165D02*
X612964D01*
X613738Y424073D01*
X615297Y422515D01*
X617165Y421741D01*
Y425941D01*
D02*
G37*
G36*
X604855D02*
X600655D01*
Y421741D01*
X602523Y422515D01*
X604081Y424073D01*
X604855Y425941D01*
D02*
G37*
G36*
X598115D02*
X593914D01*
X594688Y424073D01*
X596247Y422515D01*
X598115Y421741D01*
Y425941D01*
D02*
G37*
G36*
X587075D02*
X582875D01*
Y421741D01*
X584743Y422515D01*
X586301Y424073D01*
X587075Y425941D01*
D02*
G37*
G36*
X580335D02*
X576134D01*
X576908Y424073D01*
X578467Y422515D01*
X580335Y421741D01*
Y425941D01*
D02*
G37*
G36*
X565485D02*
X561285D01*
Y421741D01*
X563153Y422515D01*
X564711Y424073D01*
X565485Y425941D01*
D02*
G37*
G36*
X558745D02*
X554544D01*
X555318Y424073D01*
X556877Y422515D01*
X558745Y421741D01*
Y425941D01*
D02*
G37*
G36*
X528710Y425450D02*
X524510D01*
Y421250D01*
X526378Y422023D01*
X527937Y423582D01*
X528710Y425450D01*
D02*
G37*
G36*
X521970D02*
X517770D01*
X518543Y423582D01*
X520102Y422023D01*
X521970Y421250D01*
Y425450D01*
D02*
G37*
G36*
X509660D02*
X505460D01*
Y421250D01*
X507328Y422023D01*
X508887Y423582D01*
X509660Y425450D01*
D02*
G37*
G36*
X502920D02*
X498720D01*
X499493Y423582D01*
X501052Y422023D01*
X502920Y421250D01*
Y425450D01*
D02*
G37*
G36*
X-604410Y441960D02*
X-615950D01*
X-627490D01*
Y431190D01*
Y420500D01*
X-615950D01*
X-604410D01*
Y431190D01*
Y441960D01*
D02*
G37*
G36*
Y417960D02*
X-614680D01*
Y407190D01*
X-604410D01*
Y407523D01*
D01*
Y411386D01*
Y417960D01*
D02*
G37*
G36*
X-617220D02*
X-627490D01*
Y407190D01*
X-617220D01*
Y417960D01*
D02*
G37*
G36*
X-442226Y410032D02*
Y405832D01*
X-438025D01*
X-438799Y407700D01*
X-440357Y409258D01*
X-442226Y410032D01*
D02*
G37*
G36*
X-612450Y405331D02*
X-614680D01*
Y399500D01*
X-605517D01*
X-605591Y400068D01*
X-606301Y401780D01*
X-607429Y403251D01*
X-608900Y404379D01*
X-610612Y405089D01*
X-612450Y405331D01*
D02*
G37*
G36*
X-617220D02*
X-619450D01*
X-621288Y405089D01*
X-623000Y404379D01*
X-624471Y403251D01*
X-625599Y401780D01*
X-626309Y400068D01*
X-626384Y399500D01*
X-617220D01*
Y405331D01*
D02*
G37*
G36*
X45720Y399862D02*
X36020D01*
X35255Y399545D01*
X35210Y399438D01*
X34480Y398470D01*
X26480D01*
X25750Y399438D01*
X25705Y399545D01*
X24940Y399862D01*
X17780D01*
X17015Y399545D01*
X16698Y398780D01*
Y378460D01*
X17015Y377695D01*
X17780Y377378D01*
X23956D01*
X24212Y377198D01*
X24940Y376500D01*
Y374444D01*
X23767Y373958D01*
X23458Y374267D01*
X21590Y375040D01*
Y369570D01*
Y364100D01*
X23458Y364873D01*
X23767Y365182D01*
X24940Y364696D01*
Y364658D01*
X25783Y362622D01*
X27342Y361063D01*
X29210Y360290D01*
Y365760D01*
X30480D01*
Y367030D01*
X35950D01*
X35601Y367873D01*
X36020Y368500D01*
X36020D01*
Y372270D01*
X30480D01*
Y374810D01*
X36020D01*
Y376500D01*
X36748Y377198D01*
X37004Y377378D01*
X39936D01*
Y355790D01*
X40072Y355107D01*
X40458Y354528D01*
X45728Y349258D01*
X46307Y348871D01*
X46990Y348736D01*
X59910D01*
X60109Y348254D01*
X61234Y347129D01*
X62704Y346520D01*
X64296D01*
X65766Y347129D01*
X66891Y348254D01*
X67500Y349724D01*
Y351316D01*
X66891Y352786D01*
X65766Y353911D01*
X64296Y354520D01*
X62704D01*
X61234Y353911D01*
X60109Y352786D01*
X59910Y352304D01*
X47729D01*
X43504Y356529D01*
Y377378D01*
X45720D01*
X46485Y377695D01*
X46802Y378460D01*
Y382310D01*
X48450D01*
Y387350D01*
X50990D01*
Y382310D01*
X52741D01*
X52768Y382270D01*
X63890D01*
X63117Y384138D01*
X61558Y385697D01*
X61917Y386922D01*
X62620Y388620D01*
X57150D01*
Y391160D01*
X62620D01*
X61847Y393028D01*
X61592Y393282D01*
X62078Y394456D01*
X68949D01*
X69754Y393452D01*
X69660Y393226D01*
Y391634D01*
X70269Y390164D01*
X71394Y389039D01*
X72864Y388430D01*
X74456D01*
X75926Y389039D01*
X77051Y390164D01*
X77660Y391634D01*
Y393226D01*
X77051Y394696D01*
X75926Y395821D01*
X74456Y396430D01*
X72864D01*
X72383Y396231D01*
X71112Y397502D01*
X70533Y397888D01*
X69850Y398024D01*
X46802D01*
Y398780D01*
X46485Y399545D01*
X45720Y399862D01*
D02*
G37*
G36*
X-605517Y396960D02*
X-614680D01*
Y391129D01*
X-612450D01*
X-610612Y391371D01*
X-608900Y392081D01*
X-607429Y393209D01*
X-606301Y394680D01*
X-605591Y396392D01*
X-605517Y396960D01*
D02*
G37*
G36*
X-617220D02*
X-626384D01*
X-626309Y396392D01*
X-625599Y394680D01*
X-624471Y393209D01*
X-623000Y392081D01*
X-621288Y391371D01*
X-619450Y391129D01*
X-617220D01*
Y396960D01*
D02*
G37*
G36*
X-581792Y397960D02*
X-590180D01*
Y388572D01*
X-587950D01*
X-585593Y389040D01*
X-583595Y390375D01*
X-582261Y392373D01*
X-581792Y394730D01*
Y397960D01*
D02*
G37*
G36*
X-592720D02*
X-601108D01*
Y394730D01*
X-600639Y392373D01*
X-599305Y390375D01*
X-597307Y389040D01*
X-594950Y388572D01*
X-592720D01*
Y397960D01*
D02*
G37*
G36*
X-610665Y387110D02*
X-612533Y386336D01*
X-613840Y385029D01*
X-615147Y386336D01*
X-617015Y387110D01*
Y381639D01*
Y376169D01*
X-615147Y376943D01*
X-613840Y378250D01*
X-612533Y376943D01*
X-610665Y376169D01*
Y381639D01*
Y387110D01*
D02*
G37*
G36*
X-619555D02*
X-621423Y386336D01*
X-622730Y385029D01*
X-624037Y386336D01*
X-625905Y387110D01*
Y381639D01*
Y376169D01*
X-624037Y376943D01*
X-622730Y378250D01*
X-621423Y376943D01*
X-619555Y376169D01*
Y381639D01*
Y387110D01*
D02*
G37*
G36*
X-591225D02*
X-593093Y386336D01*
X-594651Y384777D01*
X-595261Y384656D01*
X-596302Y385697D01*
X-598170Y386470D01*
Y381000D01*
Y375530D01*
X-596302Y376303D01*
X-594743Y377862D01*
X-594133Y377983D01*
X-593093Y376943D01*
X-591225Y376169D01*
Y381639D01*
Y387110D01*
D02*
G37*
G36*
X-588685D02*
Y382909D01*
X-584484D01*
X-585258Y384777D01*
X-586816Y386336D01*
X-588685Y387110D01*
D02*
G37*
G36*
X-628445D02*
X-630313Y386336D01*
X-631871Y384777D01*
X-632645Y382909D01*
X-628445D01*
Y387110D01*
D02*
G37*
G36*
X-429873Y385862D02*
X-431464D01*
X-432934Y385253D01*
X-434059Y384127D01*
X-434668Y382657D01*
Y381066D01*
X-434548Y380775D01*
X-439412Y375912D01*
X-439799Y375333D01*
X-439934Y374650D01*
Y347449D01*
X-440829Y346554D01*
X-444310D01*
Y349520D01*
X-452310D01*
Y340020D01*
X-450094D01*
Y334810D01*
X-456510D01*
Y326850D01*
X-458050D01*
Y322580D01*
X-448510D01*
Y320040D01*
X-458050D01*
Y315770D01*
X-456510D01*
Y307810D01*
X-457590Y307352D01*
X-458050D01*
X-458211Y307286D01*
X-458385Y307299D01*
X-458579Y307133D01*
X-458815Y307035D01*
X-458882Y306874D01*
X-459015Y306761D01*
X-459435Y305935D01*
X-459455Y305680D01*
X-459552Y305444D01*
Y297180D01*
X-459235Y296415D01*
X-458470Y296098D01*
X-399862D01*
Y288410D01*
X-408810D01*
Y270870D01*
Y253330D01*
X-399540D01*
Y260030D01*
X-398780Y260538D01*
X-375920D01*
X-375155Y260855D01*
X-374838Y261620D01*
Y263204D01*
X-373620Y263330D01*
Y263330D01*
X-367350D01*
Y293370D01*
X-366080D01*
Y294640D01*
X-358540D01*
Y319580D01*
X-357038D01*
X-355002Y320423D01*
X-353443Y321982D01*
X-352670Y323850D01*
X-358140D01*
Y326390D01*
X-352670D01*
X-353152Y327556D01*
X-352351Y328825D01*
X-348609D01*
X-338867Y319083D01*
X-338116Y318582D01*
X-337230Y318405D01*
X-328050D01*
Y316720D01*
X-319650D01*
Y318405D01*
X-317070D01*
Y311310D01*
X-295070D01*
Y331310D01*
X-317070D01*
X-318110Y331865D01*
Y335060D01*
X-318110D01*
X-318370Y335448D01*
X-318174Y335919D01*
X-329115D01*
X-329077Y335827D01*
X-329590Y335060D01*
X-330250Y334619D01*
X-331265Y335040D01*
Y329569D01*
X-332535D01*
Y328299D01*
X-338005D01*
X-337231Y326431D01*
X-335673Y324873D01*
X-334301Y324305D01*
X-334554Y323035D01*
X-336271D01*
X-346013Y332777D01*
X-346764Y333278D01*
X-347650Y333455D01*
X-378070D01*
Y335410D01*
X-376530D01*
Y339680D01*
X-382270D01*
Y342220D01*
X-376530D01*
Y346490D01*
X-376530D01*
X-377172Y347760D01*
X-376800Y348660D01*
X-387740D01*
X-387368Y347760D01*
X-388010Y346490D01*
X-388010D01*
Y342940D01*
X-389280Y342460D01*
X-389890Y342712D01*
X-398320D01*
X-399085Y342395D01*
X-399860Y341900D01*
X-407860D01*
X-408635Y342395D01*
X-409400Y342712D01*
X-416560D01*
X-417325Y342395D01*
X-417642Y341630D01*
Y328213D01*
X-418912Y327687D01*
X-419772Y328547D01*
X-421640Y329320D01*
Y323850D01*
X-424180D01*
Y329320D01*
X-426048Y328547D01*
X-426260Y328335D01*
X-427530Y328861D01*
Y330032D01*
X-428373Y332068D01*
X-429932Y333627D01*
X-431800Y334400D01*
Y328930D01*
X-433070D01*
Y327660D01*
X-439291D01*
X-439827Y327415D01*
X-440510Y327674D01*
Y334810D01*
X-446526D01*
Y340020D01*
X-444310D01*
Y342986D01*
X-440090D01*
X-439407Y343121D01*
X-438828Y343508D01*
X-436888Y345448D01*
X-436502Y346027D01*
X-436366Y346710D01*
Y373911D01*
X-432136Y378140D01*
X-431464Y377862D01*
X-429873D01*
X-428402Y378471D01*
X-427277Y379596D01*
X-426668Y381066D01*
Y382657D01*
X-427277Y384127D01*
X-428402Y385253D01*
X-429873Y385862D01*
D02*
G37*
G36*
X-509065Y382030D02*
Y377829D01*
X-504865D01*
X-505638Y379697D01*
X-507197Y381256D01*
X-509065Y382030D01*
D02*
G37*
G36*
X-584484Y380369D02*
X-588685D01*
Y376169D01*
X-586816Y376943D01*
X-585258Y378501D01*
X-584484Y380369D01*
D02*
G37*
G36*
X-628445D02*
X-632645D01*
X-631871Y378501D01*
X-630313Y376943D01*
X-628445Y376169D01*
Y380369D01*
D02*
G37*
G36*
X-461010Y378850D02*
X-462878Y378077D01*
X-464437Y376518D01*
X-464768Y375719D01*
X-466142D01*
X-466473Y376518D01*
X-468032Y378077D01*
X-469900Y378850D01*
Y373380D01*
Y367910D01*
X-468032Y368683D01*
X-466473Y370242D01*
X-466142Y371041D01*
X-464768D01*
X-464437Y370242D01*
X-462878Y368683D01*
X-461010Y367910D01*
Y373380D01*
Y378850D01*
D02*
G37*
G36*
X63890Y379730D02*
X59690D01*
Y375530D01*
X61558Y376303D01*
X63117Y377862D01*
X63890Y379730D01*
D02*
G37*
G36*
X57150D02*
X52950D01*
X53723Y377862D01*
X55282Y376303D01*
X57150Y375530D01*
Y379730D01*
D02*
G37*
G36*
X-608125Y387110D02*
Y381639D01*
Y376169D01*
X-606257Y376943D01*
X-605460Y377739D01*
X-605254Y377946D01*
X-604137Y377862D01*
X-604137D01*
X-602578Y376303D01*
X-600710Y375530D01*
Y381000D01*
Y386470D01*
X-602578Y385697D01*
X-603581Y384694D01*
X-604698Y384777D01*
X-604698D01*
D01*
X-606257Y386336D01*
X-608125Y387110D01*
D02*
G37*
G36*
X-458470Y378850D02*
Y374650D01*
X-454270D01*
X-455043Y376518D01*
X-456602Y378077D01*
X-458470Y378850D01*
D02*
G37*
G36*
X-487680D02*
Y374650D01*
X-483480D01*
X-484253Y376518D01*
X-485812Y378077D01*
X-487680Y378850D01*
D02*
G37*
G36*
X-490220D02*
X-492088Y378077D01*
X-493647Y376518D01*
X-494420Y374650D01*
X-490220D01*
Y378850D01*
D02*
G37*
G36*
X-504865Y375289D02*
X-509065D01*
Y371089D01*
X-507197Y371863D01*
X-505638Y373421D01*
X-504865Y375289D01*
D02*
G37*
G36*
X19050Y375040D02*
X17182Y374267D01*
X15623Y372708D01*
X14850Y370840D01*
X19050D01*
Y375040D01*
D02*
G37*
G36*
X-416560Y372500D02*
X-418428Y371727D01*
X-419987Y370168D01*
X-420318Y369369D01*
X-421692D01*
X-422023Y370168D01*
X-423582Y371727D01*
X-425450Y372500D01*
Y367030D01*
X-426720D01*
Y365760D01*
X-432190D01*
X-431573Y364270D01*
X-432184Y363000D01*
X-432460D01*
Y358730D01*
X-426720D01*
Y356190D01*
X-432460D01*
Y351920D01*
X-430920D01*
Y344660D01*
X-422520D01*
Y346876D01*
X-419290D01*
Y344560D01*
X-411290D01*
Y346276D01*
X-407860D01*
Y343900D01*
X-399860D01*
Y353400D01*
X-402076D01*
Y356680D01*
X-400280D01*
Y364680D01*
X-407280D01*
Y356680D01*
X-405644D01*
Y353400D01*
X-407860D01*
Y349844D01*
X-411290D01*
Y351560D01*
X-419290D01*
Y350444D01*
X-422520D01*
Y351920D01*
X-421241D01*
X-421241Y351920D01*
X-420980D01*
X-420570Y353020D01*
X-419710Y353020D01*
X-416560D01*
Y358060D01*
X-415290D01*
Y359330D01*
X-409750D01*
Y363100D01*
X-409750D01*
X-410395Y364370D01*
X-409820Y365760D01*
X-415290D01*
Y367030D01*
X-416560D01*
Y372500D01*
D02*
G37*
G36*
X-441835Y372812D02*
X-446036D01*
Y368611D01*
X-444167Y369385D01*
X-442609Y370944D01*
X-441835Y372812D01*
D02*
G37*
G36*
X-448576D02*
X-452776D01*
X-452002Y370944D01*
X-450444Y369385D01*
X-448576Y368611D01*
Y372812D01*
D02*
G37*
G36*
X-414020Y372500D02*
Y368300D01*
X-409820D01*
X-410593Y370168D01*
X-412152Y371727D01*
X-414020Y372500D01*
D02*
G37*
G36*
X-427990D02*
X-429858Y371727D01*
X-431417Y370168D01*
X-432190Y368300D01*
X-427990D01*
Y372500D01*
D02*
G37*
G36*
X-454270Y372110D02*
X-458470D01*
Y367910D01*
X-456602Y368683D01*
X-455043Y370242D01*
X-454270Y372110D01*
D02*
G37*
G36*
X-483480D02*
X-487680D01*
Y367910D01*
X-485812Y368683D01*
X-484253Y370242D01*
X-483480Y372110D01*
D02*
G37*
G36*
X-490220D02*
X-494420D01*
X-493647Y370242D01*
X-492088Y368683D01*
X-490220Y367910D01*
Y372110D01*
D02*
G37*
G36*
X-531925Y370209D02*
X-536125D01*
X-535351Y368341D01*
X-533793Y366783D01*
X-531925Y366009D01*
Y370209D01*
D02*
G37*
G36*
X-545220Y378900D02*
X-554990D01*
Y365130D01*
X-545220D01*
Y378900D01*
D02*
G37*
G36*
X-557530D02*
X-567300D01*
Y365130D01*
X-557530D01*
Y378900D01*
D02*
G37*
G36*
X19050Y368300D02*
X14850D01*
X15623Y366432D01*
X17182Y364873D01*
X19050Y364100D01*
Y368300D01*
D02*
G37*
G36*
X35950Y364490D02*
X31750D01*
Y360290D01*
X33618Y361063D01*
X35177Y362622D01*
X35950Y364490D01*
D02*
G37*
G36*
X-545220Y362590D02*
X-567300D01*
Y358491D01*
X-568570Y357965D01*
X-569632Y359027D01*
X-571500Y359800D01*
Y354330D01*
X-572770D01*
Y353060D01*
X-578240D01*
X-577467Y351192D01*
X-575908Y349633D01*
X-573872Y348790D01*
X-573674D01*
X-572825Y347520D01*
X-573160Y346710D01*
X-567690D01*
Y345440D01*
X-566420D01*
Y339970D01*
X-564552Y340743D01*
X-563423Y341872D01*
X-562610Y342164D01*
X-561797Y341872D01*
X-560668Y340743D01*
X-558800Y339970D01*
Y345440D01*
X-556260D01*
Y339970D01*
X-554392Y340743D01*
X-553635Y341500D01*
X-552137Y341202D01*
X-552067Y341032D01*
X-550508Y339473D01*
X-548640Y338700D01*
Y344170D01*
X-547370D01*
Y345440D01*
X-541900D01*
X-542235Y346250D01*
X-541386Y347520D01*
X-541188D01*
X-539152Y348363D01*
X-537593Y349922D01*
X-536820Y351790D01*
X-542290D01*
Y353060D01*
X-543560D01*
Y358530D01*
X-544164Y358280D01*
X-545220Y358986D01*
Y362590D01*
D02*
G37*
G36*
X-393043Y385862D02*
X-394634D01*
X-396104Y385253D01*
X-397229Y384127D01*
X-397838Y382657D01*
Y381066D01*
X-397229Y379596D01*
X-396104Y378471D01*
X-395484Y378214D01*
Y364680D01*
X-397280D01*
Y356680D01*
X-390280D01*
Y364680D01*
X-391916D01*
Y378328D01*
X-391572Y378471D01*
X-390447Y379596D01*
X-389838Y381066D01*
Y382657D01*
X-390447Y384127D01*
X-391572Y385253D01*
X-393043Y385862D01*
D02*
G37*
G36*
X-574040Y359800D02*
X-575908Y359027D01*
X-577467Y357468D01*
X-578240Y355600D01*
X-574040D01*
Y359800D01*
D02*
G37*
G36*
X-541020Y358530D02*
Y354330D01*
X-536820D01*
X-537593Y356198D01*
X-539152Y357757D01*
X-541020Y358530D01*
D02*
G37*
G36*
X-409750Y356790D02*
X-414020D01*
Y353020D01*
X-409750D01*
Y356790D01*
D02*
G37*
G36*
X-381000Y355400D02*
Y351200D01*
X-376800D01*
X-377573Y353068D01*
X-379132Y354627D01*
X-381000Y355400D01*
D02*
G37*
G36*
X-383540D02*
X-385408Y354627D01*
X-386967Y353068D01*
X-387740Y351200D01*
X-383540D01*
Y355400D01*
D02*
G37*
G36*
X-293370Y354330D02*
X-297570D01*
X-296797Y352462D01*
X-295238Y350903D01*
X-293370Y350130D01*
Y354330D01*
D02*
G37*
G36*
X-299330D02*
X-303530D01*
Y350130D01*
X-301662Y350903D01*
X-300103Y352462D01*
X-299330Y354330D01*
D02*
G37*
G36*
X-317500D02*
X-321700D01*
X-320927Y352462D01*
X-319368Y350903D01*
X-317500Y350130D01*
Y354330D01*
D02*
G37*
G36*
X-252733Y353908D02*
X-256933D01*
Y349708D01*
X-255065Y350481D01*
X-253507Y352040D01*
X-252733Y353908D01*
D02*
G37*
G36*
X-328930Y353450D02*
Y349250D01*
X-324730D01*
X-325503Y351118D01*
X-327062Y352677D01*
X-328930Y353450D01*
D02*
G37*
G36*
X-331470D02*
X-333338Y352677D01*
X-334897Y351118D01*
X-335670Y349250D01*
X-331470D01*
Y353450D01*
D02*
G37*
G36*
X-241693Y350489D02*
Y346288D01*
X-237493D01*
X-238267Y348156D01*
X-239825Y349715D01*
X-241693Y350489D01*
D02*
G37*
G36*
X-244233D02*
X-246101Y349715D01*
X-247660Y348156D01*
X-248434Y346288D01*
X-244233D01*
Y350489D01*
D02*
G37*
G36*
X-324730Y346710D02*
X-328930D01*
Y342510D01*
X-327062Y343283D01*
X-325503Y344842D01*
X-324730Y346710D01*
D02*
G37*
G36*
X-331470D02*
X-335670D01*
X-334897Y344842D01*
X-333338Y343283D01*
X-331470Y342510D01*
Y346710D01*
D02*
G37*
G36*
X-341630Y345830D02*
Y341630D01*
X-337430D01*
X-338203Y343498D01*
X-339762Y345057D01*
X-341630Y345830D01*
D02*
G37*
G36*
X-344170D02*
X-346038Y345057D01*
X-347597Y343498D01*
X-348370Y341630D01*
X-344170D01*
Y345830D01*
D02*
G37*
G36*
X-354330D02*
Y341630D01*
X-350130D01*
X-350903Y343498D01*
X-352462Y345057D01*
X-354330Y345830D01*
D02*
G37*
G36*
X-356870D02*
X-358738Y345057D01*
X-360297Y343498D01*
X-361070Y341630D01*
X-356870D01*
Y345830D01*
D02*
G37*
G36*
X-367030D02*
Y341630D01*
X-362830D01*
X-363603Y343498D01*
X-365162Y345057D01*
X-367030Y345830D01*
D02*
G37*
G36*
X-369570D02*
X-371438Y345057D01*
X-372997Y343498D01*
X-373770Y341630D01*
X-369570D01*
Y345830D01*
D02*
G37*
G36*
X-203593Y345409D02*
Y341208D01*
X-199393D01*
X-200167Y343076D01*
X-201725Y344635D01*
X-203593Y345409D01*
D02*
G37*
G36*
X-206133D02*
X-208001Y344635D01*
X-209560Y343076D01*
X-210334Y341208D01*
X-206133D01*
Y345409D01*
D02*
G37*
G36*
X-217563D02*
Y341208D01*
X-213363D01*
X-214137Y343076D01*
X-215695Y344635D01*
X-217563Y345409D01*
D02*
G37*
G36*
X-220103D02*
X-221971Y344635D01*
X-223530Y343076D01*
X-224304Y341208D01*
X-220103D01*
Y345409D01*
D02*
G37*
G36*
X-230263D02*
Y341208D01*
X-226063D01*
X-226837Y343076D01*
X-228395Y344635D01*
X-230263Y345409D01*
D02*
G37*
G36*
X-232803D02*
X-234671Y344635D01*
X-236230Y343076D01*
X-237004Y341208D01*
X-232803D01*
Y345409D01*
D02*
G37*
G36*
X-568960Y344170D02*
X-573160D01*
X-572387Y342302D01*
X-570828Y340743D01*
X-568960Y339970D01*
Y344170D01*
D02*
G37*
G36*
X-455320Y344170D02*
X-460340D01*
Y339900D01*
X-455320D01*
Y344170D01*
D02*
G37*
G36*
X-455540Y354330D02*
X-466480D01*
X-465707Y352462D01*
X-465398Y352153D01*
X-465884Y350980D01*
X-467900D01*
Y350519D01*
X-468360Y349440D01*
X-469170Y349440D01*
X-477860D01*
Y341440D01*
X-475294D01*
Y334810D01*
X-481510D01*
Y326810D01*
X-465510D01*
Y334810D01*
X-471726D01*
Y340542D01*
X-470828Y341440D01*
X-468360Y341440D01*
X-467900Y340361D01*
Y339900D01*
X-462880D01*
Y345440D01*
X-461610D01*
Y346710D01*
X-455320D01*
Y350980D01*
X-456136D01*
X-456622Y352153D01*
X-456313Y352462D01*
X-455540Y354330D01*
D02*
G37*
G36*
X-237493Y343748D02*
X-241693D01*
Y339548D01*
X-239825Y340322D01*
X-238267Y341880D01*
X-237493Y343748D01*
D02*
G37*
G36*
X-244233D02*
X-248434D01*
X-247660Y341880D01*
X-246101Y340322D01*
X-244233Y339548D01*
Y343748D01*
D02*
G37*
G36*
X-541900Y342900D02*
X-546100D01*
Y338700D01*
X-544232Y339473D01*
X-542673Y341032D01*
X-541900Y342900D01*
D02*
G37*
G36*
X-322375Y342660D02*
Y338459D01*
X-318174D01*
X-318948Y340327D01*
X-320507Y341886D01*
X-322375Y342660D01*
D02*
G37*
G36*
X-324915D02*
X-326783Y341886D01*
X-328341Y340327D01*
X-329115Y338459D01*
X-324915D01*
Y342660D01*
D02*
G37*
G36*
X-178894Y340938D02*
Y336738D01*
X-174694D01*
X-175468Y338606D01*
X-177026Y340165D01*
X-178894Y340938D01*
D02*
G37*
G36*
X-199393Y338668D02*
X-210334D01*
X-209560Y336800D01*
X-209122Y336362D01*
X-209648Y335092D01*
X-214048D01*
X-214574Y336362D01*
X-214137Y336800D01*
X-213363Y338668D01*
X-224304D01*
X-223530Y336800D01*
X-222706Y335976D01*
X-222285Y334775D01*
X-222390Y334523D01*
X-223060Y333530D01*
X-229208D01*
X-229461Y334800D01*
X-228395Y335242D01*
X-226837Y336800D01*
X-226063Y338668D01*
X-237004D01*
X-236230Y336800D01*
X-234671Y335242D01*
X-233605Y334800D01*
X-233858Y333530D01*
X-241760D01*
X-242430Y334523D01*
X-242535Y334775D01*
X-243300Y335092D01*
X-273233D01*
X-273474Y334993D01*
X-273733Y334970D01*
X-273734Y334969D01*
X-273842Y334840D01*
X-273999Y334775D01*
X-274098Y334535D01*
X-274266Y334336D01*
Y334335D01*
X-274316Y334176D01*
X-274316Y334175D01*
X-274308Y334089D01*
X-274352Y334017D01*
X-274354Y334015D01*
X-274333Y333929D01*
X-274273Y333687D01*
X-274244Y333351D01*
X-274244Y333350D01*
X-274177Y333294D01*
X-274157Y333210D01*
X-273423Y332210D01*
X-273349Y332165D01*
X-273316Y332085D01*
X-273063Y331980D01*
X-272677Y331719D01*
X-272070Y330757D01*
Y311310D01*
X-273151Y310852D01*
X-273320D01*
X-273320Y310852D01*
X-273320Y310852D01*
X-273610Y310852D01*
X-273991Y310695D01*
X-274370Y310541D01*
X-275080Y309841D01*
X-275082Y309837D01*
X-275085Y309835D01*
X-275243Y309455D01*
X-275402Y309078D01*
X-275401Y309074D01*
X-275402Y309070D01*
X-275402Y281940D01*
X-275085Y281175D01*
X-274320Y280858D01*
X-270360D01*
Y278130D01*
X-261820D01*
Y275590D01*
X-270360D01*
Y271320D01*
X-268820D01*
Y263360D01*
X-269818Y262702D01*
X-271913D01*
X-272034Y274331D01*
X-272194Y274708D01*
X-272351Y275085D01*
X-272356Y275088D01*
X-272358Y275093D01*
X-272738Y275246D01*
X-273116Y275402D01*
X-307340Y275402D01*
X-308105Y275085D01*
X-308422Y274320D01*
Y247650D01*
X-308105Y246885D01*
X-307731Y246730D01*
X-307354Y245637D01*
X-307359Y245306D01*
X-308227Y244438D01*
X-309000Y242570D01*
X-303530D01*
Y241300D01*
X-302260D01*
Y235830D01*
X-301393Y236189D01*
X-300180Y235317D01*
Y233848D01*
X-299337Y231812D01*
X-297778Y230253D01*
X-295910Y229480D01*
Y234950D01*
X-293370D01*
Y229480D01*
X-291502Y230253D01*
X-289943Y231812D01*
X-289640Y232543D01*
X-288266D01*
X-287701Y231181D01*
X-286143Y229623D01*
X-284275Y228849D01*
Y234319D01*
X-281735D01*
Y228849D01*
X-279867Y229623D01*
X-278308Y231181D01*
X-277977Y231980D01*
X-276603D01*
X-276271Y231181D01*
X-274713Y229623D01*
X-272845Y228849D01*
Y234319D01*
X-271575D01*
Y235589D01*
X-266105D01*
X-266302Y236067D01*
X-265330Y237039D01*
X-263955Y236469D01*
Y241939D01*
X-262685D01*
Y243209D01*
X-257215D01*
X-257988Y245077D01*
X-258305Y245394D01*
X-257819Y246568D01*
X-170180D01*
X-169415Y246885D01*
X-169098Y247650D01*
Y256540D01*
Y290830D01*
X-169415Y291595D01*
X-170180Y291912D01*
X-203200D01*
X-203965Y291595D01*
X-204282Y290830D01*
X-204282Y280482D01*
X-207620D01*
X-207890Y280371D01*
X-209160Y281050D01*
Y287800D01*
X-211576D01*
Y298840D01*
X-208090D01*
Y305840D01*
X-214830D01*
X-215649Y305840D01*
X-216570Y306849D01*
X-216551Y307257D01*
X-216548Y307340D01*
X-216548Y307470D01*
Y307759D01*
X-216090Y308840D01*
X-208090D01*
Y315840D01*
X-207010Y316298D01*
X-206550D01*
X-206293Y316404D01*
X-206017Y316438D01*
X-205207Y316897D01*
X-205114Y317016D01*
X-204975Y317073D01*
X-204868Y317330D01*
X-204697Y317550D01*
X-204715Y317699D01*
X-204658Y317839D01*
Y334010D01*
X-204398Y334398D01*
X-203761D01*
X-201725Y335242D01*
X-200167Y336800D01*
X-199393Y338668D01*
D02*
G37*
G36*
X-337430Y339090D02*
X-341630D01*
Y334890D01*
X-339762Y335663D01*
X-338203Y337222D01*
X-337430Y339090D01*
D02*
G37*
G36*
X-344170D02*
X-348370D01*
X-347597Y337222D01*
X-346038Y335663D01*
X-344170Y334890D01*
Y339090D01*
D02*
G37*
G36*
X-350130D02*
X-354330D01*
Y334890D01*
X-352462Y335663D01*
X-350903Y337222D01*
X-350130Y339090D01*
D02*
G37*
G36*
X-356870D02*
X-361070D01*
X-360297Y337222D01*
X-358738Y335663D01*
X-356870Y334890D01*
Y339090D01*
D02*
G37*
G36*
X-362830D02*
X-367030D01*
Y334890D01*
X-365162Y335663D01*
X-363603Y337222D01*
X-362830Y339090D01*
D02*
G37*
G36*
X-369570D02*
X-373770D01*
X-372997Y337222D01*
X-371438Y335663D01*
X-369570Y334890D01*
Y339090D01*
D02*
G37*
G36*
X-158007Y337694D02*
Y333493D01*
X-153806D01*
X-154580Y335361D01*
X-156138Y336920D01*
X-158007Y337694D01*
D02*
G37*
G36*
X-160547D02*
X-162415Y336920D01*
X-163973Y335361D01*
X-164747Y333493D01*
X-160547D01*
Y337694D01*
D02*
G37*
G36*
X74456Y385000D02*
X72864D01*
X71394Y384391D01*
X70269Y383266D01*
X69660Y381796D01*
Y380204D01*
X70269Y378734D01*
X71394Y377609D01*
X71876Y377410D01*
Y342900D01*
X72011Y342217D01*
X72398Y341638D01*
X73987Y340050D01*
X73461Y338780D01*
X73200D01*
Y331780D01*
X79200D01*
Y338780D01*
X77984D01*
Y340360D01*
X77849Y341043D01*
X77462Y341622D01*
X75444Y343639D01*
Y377410D01*
X75926Y377609D01*
X77051Y378734D01*
X77660Y380204D01*
Y381796D01*
X77051Y383266D01*
X75926Y384391D01*
X74456Y385000D01*
D02*
G37*
G36*
X-333805Y335040D02*
X-335673Y334266D01*
X-337231Y332707D01*
X-338005Y330839D01*
X-333805D01*
Y335040D01*
D02*
G37*
G36*
X-434340Y334400D02*
X-436208Y333627D01*
X-437767Y332068D01*
X-438540Y330200D01*
X-434340D01*
Y334400D01*
D02*
G37*
G36*
X-174694Y334198D02*
X-178894D01*
Y329998D01*
X-177026Y330771D01*
X-175468Y332330D01*
X-174694Y334198D01*
D02*
G37*
G36*
X226980Y329973D02*
Y325772D01*
X231180D01*
X230406Y327640D01*
X228848Y329199D01*
X226980Y329973D01*
D02*
G37*
G36*
X224440D02*
X222571Y329199D01*
X221013Y327640D01*
X220239Y325772D01*
X224440D01*
Y329973D01*
D02*
G37*
G36*
X207930D02*
Y325772D01*
X212130D01*
X211356Y327640D01*
X209798Y329199D01*
X207930Y329973D01*
D02*
G37*
G36*
X205390D02*
X203521Y329199D01*
X201963Y327640D01*
X201189Y325772D01*
X205390D01*
Y329973D01*
D02*
G37*
G36*
X190150D02*
Y325772D01*
X194350D01*
X193576Y327640D01*
X192018Y329199D01*
X190150Y329973D01*
D02*
G37*
G36*
X187610D02*
X185741Y329199D01*
X184183Y327640D01*
X183409Y325772D01*
X187610D01*
Y329973D01*
D02*
G37*
G36*
X168560D02*
Y325772D01*
X172760D01*
X171986Y327640D01*
X170428Y329199D01*
X168560Y329973D01*
D02*
G37*
G36*
X166020D02*
X164151Y329199D01*
X162593Y327640D01*
X161819Y325772D01*
X166020D01*
Y329973D01*
D02*
G37*
G36*
X-153806Y330953D02*
X-164747D01*
X-163973Y329085D01*
X-162415Y327527D01*
X-161616Y327196D01*
Y325821D01*
X-162415Y325490D01*
X-163973Y323931D01*
X-164747Y322063D01*
X-153806D01*
X-154580Y323931D01*
X-156138Y325490D01*
X-156938Y325821D01*
Y327196D01*
X-156138Y327527D01*
X-154580Y329085D01*
X-153806Y330953D01*
D02*
G37*
G36*
X130241Y327451D02*
X128650D01*
X127180Y326842D01*
X126055Y325716D01*
X125446Y324246D01*
Y322655D01*
X126055Y321185D01*
X127180Y320060D01*
X128650Y319451D01*
X130241D01*
X131712Y320060D01*
X132837Y321185D01*
X133446Y322655D01*
Y324246D01*
X132837Y325716D01*
X131712Y326842D01*
X130241Y327451D01*
D02*
G37*
G36*
X231180Y323232D02*
X226980D01*
Y319032D01*
X228848Y319806D01*
X230406Y321364D01*
X231180Y323232D01*
D02*
G37*
G36*
X224440D02*
X220239D01*
X221013Y321364D01*
X222571Y319806D01*
X224440Y319032D01*
Y323232D01*
D02*
G37*
G36*
X212130D02*
X207930D01*
Y319032D01*
X209798Y319806D01*
X211356Y321364D01*
X212130Y323232D01*
D02*
G37*
G36*
X205390D02*
X201189D01*
X201963Y321364D01*
X203521Y319806D01*
X205390Y319032D01*
Y323232D01*
D02*
G37*
G36*
X194350D02*
X190150D01*
Y319032D01*
X192018Y319806D01*
X193576Y321364D01*
X194350Y323232D01*
D02*
G37*
G36*
X187610D02*
X183409D01*
X184183Y321364D01*
X185741Y319806D01*
X187610Y319032D01*
Y323232D01*
D02*
G37*
G36*
X172760D02*
X168560D01*
Y319032D01*
X170428Y319806D01*
X171986Y321364D01*
X172760Y323232D01*
D02*
G37*
G36*
X166020D02*
X161819D01*
X162593Y321364D01*
X164151Y319806D01*
X166020Y319032D01*
Y323232D01*
D02*
G37*
G36*
X87200Y338780D02*
X81200D01*
Y331780D01*
X82416D01*
Y326580D01*
X80400D01*
Y324364D01*
X60569D01*
X59886Y324229D01*
X59307Y323842D01*
X54618Y319153D01*
X54232Y318574D01*
X54096Y317891D01*
Y250190D01*
X54232Y249507D01*
X54618Y248928D01*
X60968Y242578D01*
X61547Y242192D01*
X62230Y242056D01*
X67700D01*
Y239840D01*
X74700D01*
Y247840D01*
X67700D01*
Y245624D01*
X62969D01*
X57664Y250929D01*
Y317152D01*
X61308Y320796D01*
X80400D01*
Y318580D01*
X87400D01*
Y326580D01*
X85984D01*
Y331780D01*
X87200D01*
Y338780D01*
D02*
G37*
G36*
X146050Y316620D02*
Y312420D01*
X150250D01*
X149477Y314288D01*
X147918Y315847D01*
X146050Y316620D01*
D02*
G37*
G36*
X143510D02*
X141642Y315847D01*
X140083Y314288D01*
X139310Y312420D01*
X143510D01*
Y316620D01*
D02*
G37*
G36*
X-153806Y319523D02*
X-164747D01*
X-163973Y317655D01*
X-162415Y316097D01*
X-161616Y315765D01*
Y314391D01*
X-162415Y314060D01*
X-163973Y312501D01*
X-164747Y310633D01*
X-153806D01*
X-154580Y312501D01*
X-156138Y314060D01*
X-156938Y314391D01*
Y315765D01*
X-156138Y316097D01*
X-154580Y317655D01*
X-153806Y319523D01*
D02*
G37*
G36*
X227409Y307881D02*
Y303681D01*
X231609D01*
X230836Y305549D01*
X229277Y307108D01*
X227409Y307881D01*
D02*
G37*
G36*
X224869D02*
X223001Y307108D01*
X221443Y305549D01*
X220669Y303681D01*
X224869D01*
Y307881D01*
D02*
G37*
G36*
X208359D02*
Y303681D01*
X212560D01*
X211786Y305549D01*
X210227Y307108D01*
X208359Y307881D01*
D02*
G37*
G36*
X205819D02*
X203951Y307108D01*
X202393Y305549D01*
X201619Y303681D01*
X205819D01*
Y307881D01*
D02*
G37*
G36*
X190579D02*
Y303681D01*
X194779D01*
X194006Y305549D01*
X192447Y307108D01*
X190579Y307881D01*
D02*
G37*
G36*
X188039D02*
X186171Y307108D01*
X184613Y305549D01*
X183839Y303681D01*
X188039D01*
Y307881D01*
D02*
G37*
G36*
X168989D02*
Y303681D01*
X173190D01*
X172416Y305549D01*
X170857Y307108D01*
X168989Y307881D01*
D02*
G37*
G36*
X166449D02*
X164581Y307108D01*
X163022Y305549D01*
X162249Y303681D01*
X166449D01*
Y307881D01*
D02*
G37*
G36*
X-153806Y308093D02*
X-164747D01*
X-163973Y306225D01*
X-162415Y304667D01*
X-161616Y304335D01*
Y302961D01*
X-162415Y302630D01*
X-163973Y301071D01*
X-164747Y299203D01*
X-153806D01*
X-154580Y301071D01*
X-156138Y302630D01*
X-156938Y302961D01*
Y304335D01*
X-156138Y304667D01*
X-154580Y306225D01*
X-153806Y308093D01*
D02*
G37*
G36*
X-62580Y303303D02*
Y299102D01*
X-58380D01*
X-59154Y300970D01*
X-60712Y302529D01*
X-62580Y303303D01*
D02*
G37*
G36*
X-65120D02*
X-66989Y302529D01*
X-68547Y300970D01*
X-69321Y299102D01*
X-65120D01*
Y303303D01*
D02*
G37*
G36*
X-81630D02*
Y299102D01*
X-77430D01*
X-78204Y300970D01*
X-79762Y302529D01*
X-81630Y303303D01*
D02*
G37*
G36*
X-84170D02*
X-86039Y302529D01*
X-87597Y300970D01*
X-88371Y299102D01*
X-84170D01*
Y303303D01*
D02*
G37*
G36*
X-99410D02*
Y299102D01*
X-95210D01*
X-95984Y300970D01*
X-97542Y302529D01*
X-99410Y303303D01*
D02*
G37*
G36*
X-101950D02*
X-103819Y302529D01*
X-105377Y300970D01*
X-106151Y299102D01*
X-101950D01*
Y303303D01*
D02*
G37*
G36*
X-121000D02*
Y299102D01*
X-116800D01*
X-117574Y300970D01*
X-119132Y302529D01*
X-121000Y303303D01*
D02*
G37*
G36*
X-123540D02*
X-125409Y302529D01*
X-126967Y300970D01*
X-127741Y299102D01*
X-123540D01*
Y303303D01*
D02*
G37*
G36*
X231609Y301141D02*
X227409D01*
Y296941D01*
X229277Y297714D01*
X230836Y299273D01*
X231609Y301141D01*
D02*
G37*
G36*
X224869D02*
X220669D01*
X221443Y299273D01*
X223001Y297714D01*
X224869Y296941D01*
Y301141D01*
D02*
G37*
G36*
X212560D02*
X208359D01*
Y296941D01*
X210227Y297714D01*
X211786Y299273D01*
X212560Y301141D01*
D02*
G37*
G36*
X205819D02*
X201619D01*
X202393Y299273D01*
X203951Y297714D01*
X205819Y296941D01*
Y301141D01*
D02*
G37*
G36*
X194779D02*
X190579D01*
Y296941D01*
X192447Y297714D01*
X194006Y299273D01*
X194779Y301141D01*
D02*
G37*
G36*
X188039D02*
X183839D01*
X184613Y299273D01*
X186171Y297714D01*
X188039Y296941D01*
Y301141D01*
D02*
G37*
G36*
X173190D02*
X168989D01*
Y296941D01*
X170857Y297714D01*
X172416Y299273D01*
X173190Y301141D01*
D02*
G37*
G36*
X166449D02*
X162249D01*
X163022Y299273D01*
X164581Y297714D01*
X166449Y296941D01*
Y301141D01*
D02*
G37*
G36*
X-153806Y296663D02*
X-158007D01*
Y292463D01*
X-156138Y293237D01*
X-154580Y294795D01*
X-153806Y296663D01*
D02*
G37*
G36*
X-160547D02*
X-164747D01*
X-163973Y294795D01*
X-162415Y293237D01*
X-160547Y292463D01*
Y296663D01*
D02*
G37*
G36*
X-58380Y296562D02*
X-62580D01*
Y292362D01*
X-60712Y293136D01*
X-59154Y294694D01*
X-58380Y296562D01*
D02*
G37*
G36*
X-65120D02*
X-69321D01*
X-68547Y294694D01*
X-66989Y293136D01*
X-65120Y292362D01*
Y296562D01*
D02*
G37*
G36*
X-77430D02*
X-81630D01*
Y292362D01*
X-79762Y293136D01*
X-78204Y294694D01*
X-77430Y296562D01*
D02*
G37*
G36*
X-84170D02*
X-88371D01*
X-87597Y294694D01*
X-86039Y293136D01*
X-84170Y292362D01*
Y296562D01*
D02*
G37*
G36*
X-95210D02*
X-99410D01*
Y292362D01*
X-97542Y293136D01*
X-95984Y294694D01*
X-95210Y296562D01*
D02*
G37*
G36*
X-101950D02*
X-106151D01*
X-105377Y294694D01*
X-103819Y293136D01*
X-101950Y292362D01*
Y296562D01*
D02*
G37*
G36*
X-116800D02*
X-121000D01*
Y292362D01*
X-119132Y293136D01*
X-117574Y294694D01*
X-116800Y296562D01*
D02*
G37*
G36*
X-123540D02*
X-127741D01*
X-126967Y294694D01*
X-125409Y293136D01*
X-123540Y292362D01*
Y296562D01*
D02*
G37*
G36*
X-483480Y292100D02*
X-487680D01*
Y287900D01*
X-485812Y288673D01*
X-484253Y290232D01*
X-483480Y292100D01*
D02*
G37*
G36*
X-501650D02*
X-505850D01*
X-505077Y290232D01*
X-503518Y288673D01*
X-501650Y287900D01*
Y292100D01*
D02*
G37*
G36*
X-411350Y288410D02*
X-420620D01*
Y287836D01*
X-421890Y286988D01*
X-422910Y287410D01*
Y281940D01*
X-424180D01*
Y280670D01*
X-429650D01*
X-428877Y278802D01*
X-427748Y277673D01*
X-427456Y276860D01*
X-427748Y276047D01*
X-428877Y274918D01*
X-429650Y273050D01*
X-424180D01*
Y270510D01*
X-429650D01*
X-428877Y268642D01*
X-427570Y267335D01*
X-428877Y266028D01*
X-429650Y264160D01*
X-424180D01*
Y261620D01*
X-429650D01*
X-428877Y259752D01*
X-427748Y258623D01*
X-427456Y257810D01*
X-427748Y256997D01*
X-428877Y255868D01*
X-429650Y254000D01*
X-424180D01*
Y252730D01*
X-422910D01*
Y247260D01*
X-421042Y248033D01*
X-419483Y249592D01*
X-418640Y251628D01*
Y253330D01*
X-411350D01*
Y270870D01*
Y288410D01*
D02*
G37*
G36*
X-158007Y290704D02*
Y286503D01*
X-153806D01*
X-154580Y288371D01*
X-156138Y289930D01*
X-158007Y290704D01*
D02*
G37*
G36*
X-160547D02*
X-162415Y289930D01*
X-163973Y288371D01*
X-164747Y286503D01*
X-160547D01*
Y290704D01*
D02*
G37*
G36*
X130336Y316420D02*
X128744D01*
X127274Y315811D01*
X126149Y314686D01*
X125540Y313216D01*
Y311624D01*
X126149Y310154D01*
X127274Y309029D01*
X128744Y308420D01*
X129799D01*
X130386Y307833D01*
Y306460D01*
X128170D01*
Y298060D01*
X135430D01*
Y296520D01*
X136020D01*
Y295030D01*
X128760D01*
Y286630D01*
X130976D01*
Y284272D01*
X130975Y284271D01*
X129920D01*
X128450Y283662D01*
X127325Y282536D01*
X126716Y281066D01*
Y279475D01*
X127325Y278005D01*
X128450Y276880D01*
X129920Y276271D01*
X131511D01*
X132982Y276880D01*
X134107Y278005D01*
X134716Y279475D01*
Y281066D01*
X134142Y282451D01*
X134408Y282850D01*
X134544Y283533D01*
Y286630D01*
X136020D01*
Y285090D01*
X138714D01*
X139562Y283820D01*
X139310Y283210D01*
X150250D01*
X149891Y284077D01*
X150764Y285290D01*
X152232D01*
X154268Y286133D01*
X155827Y287692D01*
X156600Y289560D01*
X151130D01*
Y292100D01*
X156600D01*
X155827Y293968D01*
X154268Y295527D01*
X152834Y296121D01*
Y297495D01*
X152998Y297563D01*
X154557Y299122D01*
X155330Y300990D01*
X149860D01*
Y303530D01*
X155330D01*
X154557Y305398D01*
X152998Y306957D01*
X150962Y307800D01*
X150764D01*
X149915Y309070D01*
X150250Y309880D01*
X139310D01*
X139562Y309270D01*
X138714Y308000D01*
X135430D01*
Y306460D01*
X133954D01*
Y308572D01*
X133819Y309255D01*
X133432Y309834D01*
X132984Y310282D01*
X133540Y311624D01*
Y313216D01*
X132931Y314686D01*
X131806Y315811D01*
X130336Y316420D01*
D02*
G37*
G36*
X-425450Y287410D02*
X-427318Y286637D01*
X-428877Y285078D01*
X-429650Y283210D01*
X-425450D01*
Y287410D01*
D02*
G37*
G36*
X-314083Y286989D02*
Y282788D01*
X-309883D01*
X-310657Y284656D01*
X-312215Y286215D01*
X-314083Y286989D01*
D02*
G37*
G36*
X-279820Y290360D02*
X-293820D01*
Y282360D01*
X-279820D01*
Y290360D01*
D02*
G37*
G36*
X120081Y327451D02*
X118490D01*
X117020Y326842D01*
X115895Y325716D01*
X115286Y324246D01*
Y322655D01*
X115895Y321185D01*
X117020Y320060D01*
X117501Y319860D01*
Y314210D01*
X115130D01*
Y282210D01*
X123630D01*
Y314210D01*
X121070D01*
Y319860D01*
X121552Y320060D01*
X122677Y321185D01*
X123286Y322655D01*
Y324246D01*
X122677Y325716D01*
X121552Y326842D01*
X120081Y327451D01*
D02*
G37*
G36*
X97400Y326580D02*
X90400D01*
Y318580D01*
X92356D01*
Y314210D01*
X89730D01*
Y282210D01*
X98230D01*
Y314210D01*
X95924D01*
Y318580D01*
X97400D01*
Y326580D01*
D02*
G37*
G36*
X72830Y314210D02*
X64330D01*
Y282210D01*
X72830D01*
Y314210D01*
D02*
G37*
G36*
X227409Y286291D02*
Y282091D01*
X231609D01*
X230836Y283959D01*
X229277Y285518D01*
X227409Y286291D01*
D02*
G37*
G36*
X224869D02*
X223001Y285518D01*
X221443Y283959D01*
X220669Y282091D01*
X224869D01*
Y286291D01*
D02*
G37*
G36*
X208359D02*
Y282091D01*
X212560D01*
X211786Y283959D01*
X210227Y285518D01*
X208359Y286291D01*
D02*
G37*
G36*
X205819D02*
X203951Y285518D01*
X202393Y283959D01*
X201619Y282091D01*
X205819D01*
Y286291D01*
D02*
G37*
G36*
X190579D02*
Y282091D01*
X194779D01*
X194006Y283959D01*
X192447Y285518D01*
X190579Y286291D01*
D02*
G37*
G36*
X188039D02*
X186171Y285518D01*
X184613Y283959D01*
X183839Y282091D01*
X188039D01*
Y286291D01*
D02*
G37*
G36*
X168989D02*
Y282091D01*
X173190D01*
X172416Y283959D01*
X170857Y285518D01*
X168989Y286291D01*
D02*
G37*
G36*
X166449D02*
X164581Y285518D01*
X163022Y283959D01*
X162249Y282091D01*
X166449D01*
Y286291D01*
D02*
G37*
G36*
X-62151Y281211D02*
Y277011D01*
X-57951D01*
X-58724Y278879D01*
X-60283Y280438D01*
X-62151Y281211D01*
D02*
G37*
G36*
X-64691D02*
X-66559Y280438D01*
X-68117Y278879D01*
X-68891Y277011D01*
X-64691D01*
Y281211D01*
D02*
G37*
G36*
X-81201D02*
Y277011D01*
X-77000D01*
X-77774Y278879D01*
X-79333Y280438D01*
X-81201Y281211D01*
D02*
G37*
G36*
X-83741D02*
X-85609Y280438D01*
X-87168Y278879D01*
X-87941Y277011D01*
X-83741D01*
Y281211D01*
D02*
G37*
G36*
X-98981D02*
Y277011D01*
X-94781D01*
X-95554Y278879D01*
X-97113Y280438D01*
X-98981Y281211D01*
D02*
G37*
G36*
X-101521D02*
X-103389Y280438D01*
X-104948Y278879D01*
X-105721Y277011D01*
X-101521D01*
Y281211D01*
D02*
G37*
G36*
X-120571D02*
Y277011D01*
X-116370D01*
X-117144Y278879D01*
X-118703Y280438D01*
X-120571Y281211D01*
D02*
G37*
G36*
X-123111D02*
X-124979Y280438D01*
X-126538Y278879D01*
X-127311Y277011D01*
X-123111D01*
Y281211D01*
D02*
G37*
G36*
X150250Y280670D02*
X146050D01*
Y276470D01*
X147918Y277243D01*
X149477Y278802D01*
X150250Y280670D01*
D02*
G37*
G36*
X143510D02*
X139310D01*
X140083Y278802D01*
X141642Y277243D01*
X143510Y276470D01*
Y280670D01*
D02*
G37*
G36*
X231609Y279551D02*
X227409D01*
Y275351D01*
X229277Y276124D01*
X230836Y277683D01*
X231609Y279551D01*
D02*
G37*
G36*
X224869D02*
X220669D01*
X221443Y277683D01*
X223001Y276124D01*
X224869Y275351D01*
Y279551D01*
D02*
G37*
G36*
X212560D02*
X208359D01*
Y275351D01*
X210227Y276124D01*
X211786Y277683D01*
X212560Y279551D01*
D02*
G37*
G36*
X205819D02*
X201619D01*
X202393Y277683D01*
X203951Y276124D01*
X205819Y275351D01*
Y279551D01*
D02*
G37*
G36*
X194779D02*
X190579D01*
Y275351D01*
X192447Y276124D01*
X194006Y277683D01*
X194779Y279551D01*
D02*
G37*
G36*
X188039D02*
X183839D01*
X184613Y277683D01*
X186171Y276124D01*
X188039Y275351D01*
Y279551D01*
D02*
G37*
G36*
X173190D02*
X168989D01*
Y275351D01*
X170857Y276124D01*
X172416Y277683D01*
X173190Y279551D01*
D02*
G37*
G36*
X166449D02*
X162249D01*
X163022Y277683D01*
X164581Y276124D01*
X166449Y275351D01*
Y279551D01*
D02*
G37*
G36*
X-153806Y283963D02*
X-164747D01*
X-163973Y282095D01*
X-162415Y280537D01*
X-161616Y280205D01*
Y278831D01*
X-162415Y278500D01*
X-163973Y276941D01*
X-164747Y275073D01*
X-153806D01*
X-154580Y276941D01*
X-156138Y278500D01*
X-156938Y278831D01*
Y280205D01*
X-156138Y280537D01*
X-154580Y282095D01*
X-153806Y283963D01*
D02*
G37*
G36*
X-343350Y288410D02*
X-352620D01*
Y272140D01*
X-343350D01*
Y288410D01*
D02*
G37*
G36*
X-57951Y274471D02*
X-62151D01*
Y270271D01*
X-60283Y271044D01*
X-58724Y272603D01*
X-57951Y274471D01*
D02*
G37*
G36*
X-64691D02*
X-68891D01*
X-68117Y272603D01*
X-66559Y271044D01*
X-64691Y270271D01*
Y274471D01*
D02*
G37*
G36*
X-77000D02*
X-81201D01*
Y270271D01*
X-79333Y271044D01*
X-77774Y272603D01*
X-77000Y274471D01*
D02*
G37*
G36*
X-83741D02*
X-87941D01*
X-87168Y272603D01*
X-85609Y271044D01*
X-83741Y270271D01*
Y274471D01*
D02*
G37*
G36*
X-94781D02*
X-98981D01*
Y270271D01*
X-97113Y271044D01*
X-95554Y272603D01*
X-94781Y274471D01*
D02*
G37*
G36*
X-101521D02*
X-105721D01*
X-104948Y272603D01*
X-103389Y271044D01*
X-101521Y270271D01*
Y274471D01*
D02*
G37*
G36*
X-116370D02*
X-120571D01*
Y270271D01*
X-118703Y271044D01*
X-117144Y272603D01*
X-116370Y274471D01*
D02*
G37*
G36*
X-123111D02*
X-127311D01*
X-126538Y272603D01*
X-124979Y271044D01*
X-123111Y270271D01*
Y274471D01*
D02*
G37*
G36*
X112470Y285750D02*
X107950D01*
Y269480D01*
X112470D01*
Y285750D01*
D02*
G37*
G36*
X105410D02*
X100890D01*
Y269480D01*
X105410D01*
Y285750D01*
D02*
G37*
G36*
X-153806Y272533D02*
X-164747D01*
X-163973Y270665D01*
X-162415Y269107D01*
X-161616Y268776D01*
Y267401D01*
X-162415Y267070D01*
X-163973Y265511D01*
X-164747Y263643D01*
X-153806D01*
X-154580Y265511D01*
X-156138Y267070D01*
X-156938Y267401D01*
Y268776D01*
X-156138Y269107D01*
X-154580Y270665D01*
X-153806Y272533D01*
D02*
G37*
G36*
X-358540Y292100D02*
X-364810D01*
Y263330D01*
X-358540D01*
Y292100D01*
D02*
G37*
G36*
X228600Y267090D02*
Y262890D01*
X232800D01*
X232027Y264758D01*
X230468Y266317D01*
X228600Y267090D01*
D02*
G37*
G36*
X226060D02*
X224192Y266317D01*
X222633Y264758D01*
X221860Y262890D01*
X226060D01*
Y267090D01*
D02*
G37*
G36*
X168831Y266786D02*
Y262586D01*
X173031D01*
X172257Y264454D01*
X170699Y266012D01*
X168831Y266786D01*
D02*
G37*
G36*
X166291D02*
X164422Y266012D01*
X162864Y264454D01*
X162090Y262586D01*
X166291D01*
Y266786D01*
D02*
G37*
G36*
X209550Y265820D02*
Y261620D01*
X213750D01*
X212977Y263488D01*
X211418Y265047D01*
X209550Y265820D01*
D02*
G37*
G36*
X207010D02*
X205142Y265047D01*
X203583Y263488D01*
X202810Y261620D01*
X207010D01*
Y265820D01*
D02*
G37*
G36*
X190500D02*
Y261620D01*
X194700D01*
X193927Y263488D01*
X192368Y265047D01*
X190500Y265820D01*
D02*
G37*
G36*
X187960D02*
X186092Y265047D01*
X184533Y263488D01*
X183760Y261620D01*
X187960D01*
Y265820D01*
D02*
G37*
G36*
X-331540Y288410D02*
X-340810D01*
Y270870D01*
Y253330D01*
X-333200D01*
Y252898D01*
X-332357Y250862D01*
X-330798Y249303D01*
X-328930Y248530D01*
Y254000D01*
X-327660D01*
Y255270D01*
X-322190D01*
X-322963Y257138D01*
X-324270Y258445D01*
X-322963Y259752D01*
X-322190Y261620D01*
X-327660D01*
Y264160D01*
X-322190D01*
X-322963Y266028D01*
X-324270Y267335D01*
X-322963Y268642D01*
X-322360Y270098D01*
X-322120Y270678D01*
X-320893Y270574D01*
X-320893Y269959D01*
Y268986D01*
X-320050Y266950D01*
X-318491Y265392D01*
X-317692Y265060D01*
Y263686D01*
X-318491Y263355D01*
X-320050Y261796D01*
X-320824Y259928D01*
X-309883D01*
X-310657Y261796D01*
X-312215Y263355D01*
X-313014Y263686D01*
Y265060D01*
X-312215Y265392D01*
X-310657Y266950D01*
X-309883Y268818D01*
X-315353D01*
Y271358D01*
X-309883D01*
X-310657Y273226D01*
X-312215Y274785D01*
X-313014Y275116D01*
Y276490D01*
X-312215Y276821D01*
X-310657Y278380D01*
X-309883Y280248D01*
X-315353D01*
Y281518D01*
X-316623D01*
Y286989D01*
X-318491Y286215D01*
X-320050Y284656D01*
X-320893Y282620D01*
X-322120Y282724D01*
Y283042D01*
X-322963Y285078D01*
X-324522Y286637D01*
X-326390Y287410D01*
Y281940D01*
X-328930D01*
Y287410D01*
X-330270Y286855D01*
X-331540Y287554D01*
Y288410D01*
D02*
G37*
G36*
X112470Y266940D02*
X106680D01*
X100890D01*
Y257315D01*
X99834Y256610D01*
X99060Y256930D01*
Y251460D01*
Y245990D01*
X99776Y246286D01*
X101046Y246149D01*
X101889Y244112D01*
X103448Y242554D01*
X105316Y241780D01*
Y247251D01*
X107856D01*
Y241780D01*
X109724Y242554D01*
X111282Y244112D01*
X112126Y246149D01*
X112325Y246282D01*
X113030Y245990D01*
Y251460D01*
Y257112D01*
X112470Y257486D01*
Y266940D01*
D02*
G37*
G36*
X232800Y260350D02*
X228600D01*
Y256150D01*
X230468Y256923D01*
X232027Y258482D01*
X232800Y260350D01*
D02*
G37*
G36*
X226060D02*
X221860D01*
X222633Y258482D01*
X224192Y256923D01*
X226060Y256150D01*
Y260350D01*
D02*
G37*
G36*
X173031Y260046D02*
X168831D01*
Y255845D01*
X170699Y256619D01*
X172257Y258178D01*
X173031Y260046D01*
D02*
G37*
G36*
X166291D02*
X162090D01*
X162864Y258178D01*
X164422Y256619D01*
X166291Y255845D01*
Y260046D01*
D02*
G37*
G36*
X-62151Y259621D02*
Y255421D01*
X-57951D01*
X-58724Y257289D01*
X-60283Y258848D01*
X-62151Y259621D01*
D02*
G37*
G36*
X-64691D02*
X-66559Y258848D01*
X-68117Y257289D01*
X-68891Y255421D01*
X-64691D01*
Y259621D01*
D02*
G37*
G36*
X-81201D02*
Y255421D01*
X-77000D01*
X-77774Y257289D01*
X-79333Y258848D01*
X-81201Y259621D01*
D02*
G37*
G36*
X-83741D02*
X-85609Y258848D01*
X-87168Y257289D01*
X-87941Y255421D01*
X-83741D01*
Y259621D01*
D02*
G37*
G36*
X-98981D02*
Y255421D01*
X-94781D01*
X-95554Y257289D01*
X-97113Y258848D01*
X-98981Y259621D01*
D02*
G37*
G36*
X-101521D02*
X-103389Y258848D01*
X-104948Y257289D01*
X-105721Y255421D01*
X-101521D01*
Y259621D01*
D02*
G37*
G36*
X-120571D02*
Y255421D01*
X-116370D01*
X-117144Y257289D01*
X-118703Y258848D01*
X-120571Y259621D01*
D02*
G37*
G36*
X-123111D02*
X-124979Y258848D01*
X-126538Y257289D01*
X-127311Y255421D01*
X-123111D01*
Y259621D01*
D02*
G37*
G36*
X213750Y259080D02*
X209550D01*
Y254880D01*
X211418Y255653D01*
X212977Y257212D01*
X213750Y259080D01*
D02*
G37*
G36*
X207010D02*
X202810D01*
X203583Y257212D01*
X205142Y255653D01*
X207010Y254880D01*
Y259080D01*
D02*
G37*
G36*
X194700D02*
X190500D01*
Y254880D01*
X192368Y255653D01*
X193927Y257212D01*
X194700Y259080D01*
D02*
G37*
G36*
X187960D02*
X183760D01*
X184533Y257212D01*
X186092Y255653D01*
X187960Y254880D01*
Y259080D01*
D02*
G37*
G36*
X-343350Y269600D02*
X-352620D01*
Y253330D01*
X-343350D01*
Y269600D01*
D02*
G37*
G36*
X115570Y256930D02*
Y252730D01*
X119770D01*
X118997Y254598D01*
X117438Y256157D01*
X115570Y256930D01*
D02*
G37*
G36*
X96520D02*
X94652Y256157D01*
X93093Y254598D01*
X92320Y252730D01*
X96520D01*
Y256930D01*
D02*
G37*
G36*
X-153806Y261103D02*
X-164747D01*
X-163973Y259235D01*
X-162415Y257677D01*
X-161616Y257346D01*
Y255971D01*
X-162415Y255640D01*
X-163973Y254081D01*
X-164747Y252213D01*
X-153806D01*
X-154580Y254081D01*
X-156138Y255640D01*
X-156938Y255971D01*
Y257346D01*
X-156138Y257677D01*
X-154580Y259235D01*
X-153806Y261103D01*
D02*
G37*
G36*
X-57951Y252881D02*
X-62151D01*
Y248681D01*
X-60283Y249454D01*
X-58724Y251013D01*
X-57951Y252881D01*
D02*
G37*
G36*
X-64691D02*
X-68891D01*
X-68117Y251013D01*
X-66559Y249454D01*
X-64691Y248681D01*
Y252881D01*
D02*
G37*
G36*
X-77000D02*
X-81201D01*
Y248681D01*
X-79333Y249454D01*
X-77774Y251013D01*
X-77000Y252881D01*
D02*
G37*
G36*
X-83741D02*
X-87941D01*
X-87168Y251013D01*
X-85609Y249454D01*
X-83741Y248681D01*
Y252881D01*
D02*
G37*
G36*
X-94781D02*
X-98981D01*
Y248681D01*
X-97113Y249454D01*
X-95554Y251013D01*
X-94781Y252881D01*
D02*
G37*
G36*
X-101521D02*
X-105721D01*
X-104948Y251013D01*
X-103389Y249454D01*
X-101521Y248681D01*
Y252881D01*
D02*
G37*
G36*
X-116370D02*
X-120571D01*
Y248681D01*
X-118703Y249454D01*
X-117144Y251013D01*
X-116370Y252881D01*
D02*
G37*
G36*
X-123111D02*
X-127311D01*
X-126538Y251013D01*
X-124979Y249454D01*
X-123111Y248681D01*
Y252881D01*
D02*
G37*
G36*
X-322190Y252730D02*
X-326390D01*
Y248530D01*
X-324522Y249303D01*
X-322963Y250862D01*
X-322190Y252730D01*
D02*
G37*
G36*
X-309883Y257388D02*
X-320824D01*
X-320050Y255520D01*
X-318491Y253962D01*
X-317692Y253630D01*
Y252256D01*
X-318491Y251925D01*
X-320050Y250366D01*
X-320824Y248498D01*
X-309883D01*
X-310657Y250366D01*
X-312215Y251925D01*
X-313014Y252256D01*
Y253630D01*
X-312215Y253962D01*
X-310657Y255520D01*
X-309883Y257388D01*
D02*
G37*
G36*
X-425450Y251460D02*
X-429650D01*
X-428877Y249592D01*
X-427318Y248033D01*
X-425450Y247260D01*
Y251460D01*
D02*
G37*
G36*
X119770Y250190D02*
X115570D01*
Y245990D01*
X117438Y246763D01*
X118997Y248322D01*
X119770Y250190D01*
D02*
G37*
G36*
X96520D02*
X92320D01*
X93093Y248322D01*
X94652Y246763D01*
X96520Y245990D01*
Y250190D01*
D02*
G37*
G36*
X-153806Y249673D02*
X-158007D01*
Y245473D01*
X-156138Y246247D01*
X-154580Y247805D01*
X-153806Y249673D01*
D02*
G37*
G36*
X-160547D02*
X-164747D01*
X-163973Y247805D01*
X-162415Y246247D01*
X-160547Y245473D01*
Y249673D01*
D02*
G37*
G36*
X-309883Y245958D02*
X-314083D01*
Y241758D01*
X-312215Y242532D01*
X-310657Y244090D01*
X-309883Y245958D01*
D02*
G37*
G36*
X-316623D02*
X-320824D01*
X-320050Y244090D01*
X-318491Y242532D01*
X-316623Y241758D01*
Y245958D01*
D02*
G37*
G36*
X85530Y284210D02*
X77030D01*
Y252210D01*
X79416D01*
Y247840D01*
X77700D01*
Y239840D01*
X84700D01*
Y247840D01*
X82984D01*
Y252210D01*
X85530D01*
Y284210D01*
D02*
G37*
G36*
X-170697Y242217D02*
X-172565Y241443D01*
X-174123Y239885D01*
X-174454Y239086D01*
X-175829D01*
X-176160Y239885D01*
X-177719Y241443D01*
X-179587Y242217D01*
Y236747D01*
Y231276D01*
X-177719Y232050D01*
X-176160Y233608D01*
X-175829Y234408D01*
X-174454D01*
X-174123Y233608D01*
X-172565Y232050D01*
X-170697Y231276D01*
Y236747D01*
Y242217D01*
D02*
G37*
G36*
X-182127D02*
X-183995Y241443D01*
X-185553Y239885D01*
X-185884Y239086D01*
X-187259D01*
X-187590Y239885D01*
X-189149Y241443D01*
X-191017Y242217D01*
Y236747D01*
Y231276D01*
X-189149Y232050D01*
X-187590Y233608D01*
X-187259Y234408D01*
X-185884D01*
X-185553Y233608D01*
X-183995Y232050D01*
X-182127Y231276D01*
Y236747D01*
Y242217D01*
D02*
G37*
G36*
X-193557D02*
X-195425Y241443D01*
X-196983Y239885D01*
X-197314Y239086D01*
X-198689D01*
X-199020Y239885D01*
X-200579Y241443D01*
X-202447Y242217D01*
Y236747D01*
Y231276D01*
X-200579Y232050D01*
X-199020Y233608D01*
X-198689Y234408D01*
X-197314D01*
X-196983Y233608D01*
X-195425Y232050D01*
X-193557Y231276D01*
Y236747D01*
Y242217D01*
D02*
G37*
G36*
X-217687D02*
X-219555Y241443D01*
X-221113Y239885D01*
X-221444Y239086D01*
X-222819D01*
X-223150Y239885D01*
X-224709Y241443D01*
X-226577Y242217D01*
Y236747D01*
Y231276D01*
X-224709Y232050D01*
X-223150Y233608D01*
X-222819Y234408D01*
X-221444D01*
X-221113Y233608D01*
X-219555Y232050D01*
X-217687Y231276D01*
Y236747D01*
Y242217D01*
D02*
G37*
G36*
X-229117D02*
X-230985Y241443D01*
X-232543Y239885D01*
X-232875Y239086D01*
X-234249D01*
X-234580Y239885D01*
X-236139Y241443D01*
X-238007Y242217D01*
Y236747D01*
Y231276D01*
X-236139Y232050D01*
X-234580Y233608D01*
X-234249Y234408D01*
X-232875D01*
X-232543Y233608D01*
X-230985Y232050D01*
X-229117Y231276D01*
Y236747D01*
Y242217D01*
D02*
G37*
G36*
X-240547D02*
X-242415Y241443D01*
X-243973Y239885D01*
X-244305Y239086D01*
X-245679D01*
X-246010Y239885D01*
X-247569Y241443D01*
X-249437Y242217D01*
Y236747D01*
Y231276D01*
X-247569Y232050D01*
X-246010Y233608D01*
X-245679Y234408D01*
X-244305D01*
X-243973Y233608D01*
X-242415Y232050D01*
X-240547Y231276D01*
Y236747D01*
Y242217D01*
D02*
G37*
G36*
X-168157D02*
Y238017D01*
X-163956D01*
X-164730Y239885D01*
X-166289Y241443D01*
X-168157Y242217D01*
D02*
G37*
G36*
X-204987D02*
X-206855Y241443D01*
X-208413Y239885D01*
X-209187Y238017D01*
X-204987D01*
Y242217D01*
D02*
G37*
G36*
X-215147D02*
Y238017D01*
X-210946D01*
X-211720Y239885D01*
X-213279Y241443D01*
X-215147Y242217D01*
D02*
G37*
G36*
X-251977D02*
X-253845Y241443D01*
X-255403Y239885D01*
X-256177Y238017D01*
X-251977D01*
Y242217D01*
D02*
G37*
G36*
X45885Y240979D02*
Y236779D01*
X50085D01*
X49312Y238647D01*
X47753Y240205D01*
X45885Y240979D01*
D02*
G37*
G36*
X43345D02*
X41477Y240205D01*
X39918Y238647D01*
X39145Y236779D01*
X43345D01*
Y240979D01*
D02*
G37*
G36*
X26835D02*
Y236779D01*
X31035D01*
X30262Y238647D01*
X28703Y240205D01*
X26835Y240979D01*
D02*
G37*
G36*
X24295D02*
X22427Y240205D01*
X20868Y238647D01*
X20095Y236779D01*
X24295D01*
Y240979D01*
D02*
G37*
G36*
X9055D02*
Y236779D01*
X13255D01*
X12482Y238647D01*
X10923Y240205D01*
X9055Y240979D01*
D02*
G37*
G36*
X6515D02*
X4647Y240205D01*
X3088Y238647D01*
X2315Y236779D01*
X6515D01*
Y240979D01*
D02*
G37*
G36*
X-12535D02*
Y236779D01*
X-8335D01*
X-9108Y238647D01*
X-10667Y240205D01*
X-12535Y240979D01*
D02*
G37*
G36*
X-15075D02*
X-16943Y240205D01*
X-18502Y238647D01*
X-19275Y236779D01*
X-15075D01*
Y240979D01*
D02*
G37*
G36*
X-32855D02*
Y236779D01*
X-28655D01*
X-29428Y238647D01*
X-30987Y240205D01*
X-32855Y240979D01*
D02*
G37*
G36*
X-35395D02*
X-37263Y240205D01*
X-38822Y238647D01*
X-39595Y236779D01*
X-35395D01*
Y240979D01*
D02*
G37*
G36*
X-53175D02*
Y236779D01*
X-48975D01*
X-49748Y238647D01*
X-51307Y240205D01*
X-53175Y240979D01*
D02*
G37*
G36*
X-55715D02*
X-57583Y240205D01*
X-59142Y238647D01*
X-59915Y236779D01*
X-55715D01*
Y240979D01*
D02*
G37*
G36*
X-70955D02*
Y236779D01*
X-66755D01*
X-67528Y238647D01*
X-69087Y240205D01*
X-70955Y240979D01*
D02*
G37*
G36*
X-73495D02*
X-75363Y240205D01*
X-76922Y238647D01*
X-77695Y236779D01*
X-73495D01*
Y240979D01*
D02*
G37*
G36*
X-88735D02*
Y236779D01*
X-84535D01*
X-85308Y238647D01*
X-86867Y240205D01*
X-88735Y240979D01*
D02*
G37*
G36*
X-91275D02*
X-93143Y240205D01*
X-94702Y238647D01*
X-95475Y236779D01*
X-91275D01*
Y240979D01*
D02*
G37*
G36*
X-107785D02*
Y236779D01*
X-103585D01*
X-104358Y238647D01*
X-105917Y240205D01*
X-107785Y240979D01*
D02*
G37*
G36*
X-110325D02*
X-112193Y240205D01*
X-113752Y238647D01*
X-114525Y236779D01*
X-110325D01*
Y240979D01*
D02*
G37*
G36*
X-257215Y240669D02*
X-261415D01*
Y236469D01*
X-259547Y237243D01*
X-257988Y238801D01*
X-257215Y240669D01*
D02*
G37*
G36*
X-304800Y240030D02*
X-309000D01*
X-308227Y238162D01*
X-306668Y236603D01*
X-304800Y235830D01*
Y240030D01*
D02*
G37*
G36*
X-163956Y235477D02*
X-168157D01*
Y231276D01*
X-166289Y232050D01*
X-164730Y233608D01*
X-163956Y235477D01*
D02*
G37*
G36*
X-204987D02*
X-209187D01*
X-208413Y233608D01*
X-206855Y232050D01*
X-204987Y231276D01*
Y235477D01*
D02*
G37*
G36*
X-210946D02*
X-215147D01*
Y231276D01*
X-213279Y232050D01*
X-211720Y233608D01*
X-210946Y235477D01*
D02*
G37*
G36*
X-251977D02*
X-256177D01*
X-255403Y233608D01*
X-253845Y232050D01*
X-251977Y231276D01*
Y235477D01*
D02*
G37*
G36*
X50085Y234239D02*
X45885D01*
Y230038D01*
X47753Y230812D01*
X49312Y232370D01*
X50085Y234239D01*
D02*
G37*
G36*
X43345D02*
X39145D01*
X39918Y232370D01*
X41477Y230812D01*
X43345Y230038D01*
Y234239D01*
D02*
G37*
G36*
X31035D02*
X26835D01*
Y230038D01*
X28703Y230812D01*
X30262Y232370D01*
X31035Y234239D01*
D02*
G37*
G36*
X24295D02*
X20095D01*
X20868Y232370D01*
X22427Y230812D01*
X24295Y230038D01*
Y234239D01*
D02*
G37*
G36*
X13255D02*
X9055D01*
Y230038D01*
X10923Y230812D01*
X12482Y232370D01*
X13255Y234239D01*
D02*
G37*
G36*
X6515D02*
X2315D01*
X3088Y232370D01*
X4647Y230812D01*
X6515Y230038D01*
Y234239D01*
D02*
G37*
G36*
X-8335D02*
X-12535D01*
Y230038D01*
X-10667Y230812D01*
X-9108Y232370D01*
X-8335Y234239D01*
D02*
G37*
G36*
X-15075D02*
X-19275D01*
X-18502Y232370D01*
X-16943Y230812D01*
X-15075Y230038D01*
Y234239D01*
D02*
G37*
G36*
X-28655D02*
X-32855D01*
Y230038D01*
X-30987Y230812D01*
X-29428Y232370D01*
X-28655Y234239D01*
D02*
G37*
G36*
X-35395D02*
X-39595D01*
X-38822Y232370D01*
X-37263Y230812D01*
X-35395Y230038D01*
Y234239D01*
D02*
G37*
G36*
X-48975D02*
X-53175D01*
Y230038D01*
X-51307Y230812D01*
X-49748Y232370D01*
X-48975Y234239D01*
D02*
G37*
G36*
X-55715D02*
X-59915D01*
X-59142Y232370D01*
X-57583Y230812D01*
X-55715Y230038D01*
Y234239D01*
D02*
G37*
G36*
X-66755D02*
X-70955D01*
Y230038D01*
X-69087Y230812D01*
X-67528Y232370D01*
X-66755Y234239D01*
D02*
G37*
G36*
X-73495D02*
X-77695D01*
X-76922Y232370D01*
X-75363Y230812D01*
X-73495Y230038D01*
Y234239D01*
D02*
G37*
G36*
X-84535D02*
X-88735D01*
Y230038D01*
X-86867Y230812D01*
X-85308Y232370D01*
X-84535Y234239D01*
D02*
G37*
G36*
X-91275D02*
X-95475D01*
X-94702Y232370D01*
X-93143Y230812D01*
X-91275Y230038D01*
Y234239D01*
D02*
G37*
G36*
X-103585D02*
X-107785D01*
Y230038D01*
X-105917Y230812D01*
X-104358Y232370D01*
X-103585Y234239D01*
D02*
G37*
G36*
X-110325D02*
X-114525D01*
X-113752Y232370D01*
X-112193Y230812D01*
X-110325Y230038D01*
Y234239D01*
D02*
G37*
G36*
X-266105Y233049D02*
X-270305D01*
Y228849D01*
X-268437Y229623D01*
X-266878Y231181D01*
X-266105Y233049D01*
D02*
G37*
G36*
X278451Y216954D02*
Y212754D01*
X282651D01*
X281877Y214622D01*
X280319Y216181D01*
X278451Y216954D01*
D02*
G37*
G36*
X275911D02*
X274043Y216181D01*
X272484Y214622D01*
X271710Y212754D01*
X275911D01*
Y216954D01*
D02*
G37*
G36*
X259401D02*
Y212754D01*
X263601D01*
X262827Y214622D01*
X261269Y216181D01*
X259401Y216954D01*
D02*
G37*
G36*
X256861D02*
X254993Y216181D01*
X253434Y214622D01*
X252660Y212754D01*
X256861D01*
Y216954D01*
D02*
G37*
G36*
X241621D02*
Y212754D01*
X245821D01*
X245047Y214622D01*
X243489Y216181D01*
X241621Y216954D01*
D02*
G37*
G36*
X239081D02*
X237213Y216181D01*
X235654Y214622D01*
X234880Y212754D01*
X239081D01*
Y216954D01*
D02*
G37*
G36*
X220031D02*
Y212754D01*
X224231D01*
X223457Y214622D01*
X221899Y216181D01*
X220031Y216954D01*
D02*
G37*
G36*
X217491D02*
X215623Y216181D01*
X214064Y214622D01*
X213290Y212754D01*
X217491D01*
Y216954D01*
D02*
G37*
G36*
X199711D02*
Y212754D01*
X203911D01*
X203137Y214622D01*
X201579Y216181D01*
X199711Y216954D01*
D02*
G37*
G36*
X197171D02*
X195303Y216181D01*
X193744Y214622D01*
X192970Y212754D01*
X197171D01*
Y216954D01*
D02*
G37*
G36*
X179391D02*
Y212754D01*
X183591D01*
X182817Y214622D01*
X181259Y216181D01*
X179391Y216954D01*
D02*
G37*
G36*
X176851D02*
X174983Y216181D01*
X173424Y214622D01*
X172650Y212754D01*
X176851D01*
Y216954D01*
D02*
G37*
G36*
X161611D02*
Y212754D01*
X165811D01*
X165037Y214622D01*
X163479Y216181D01*
X161611Y216954D01*
D02*
G37*
G36*
X159071D02*
X157203Y216181D01*
X155644Y214622D01*
X154870Y212754D01*
X159071D01*
Y216954D01*
D02*
G37*
G36*
X143831D02*
Y212754D01*
X148031D01*
X147257Y214622D01*
X145699Y216181D01*
X143831Y216954D01*
D02*
G37*
G36*
X141291D02*
X139423Y216181D01*
X137864Y214622D01*
X137090Y212754D01*
X141291D01*
Y216954D01*
D02*
G37*
G36*
X124781D02*
Y212754D01*
X128981D01*
X128207Y214622D01*
X126649Y216181D01*
X124781Y216954D01*
D02*
G37*
G36*
X122241D02*
X120373Y216181D01*
X118814Y214622D01*
X118040Y212754D01*
X122241D01*
Y216954D01*
D02*
G37*
G36*
X-78419Y215684D02*
Y211484D01*
X-74219D01*
X-74993Y213352D01*
X-76551Y214911D01*
X-78419Y215684D01*
D02*
G37*
G36*
X-80959D02*
X-82827Y214911D01*
X-84386Y213352D01*
X-85160Y211484D01*
X-80959D01*
Y215684D01*
D02*
G37*
G36*
X-97469D02*
Y211484D01*
X-93269D01*
X-94043Y213352D01*
X-95601Y214911D01*
X-97469Y215684D01*
D02*
G37*
G36*
X-100009D02*
X-101877Y214911D01*
X-103436Y213352D01*
X-104210Y211484D01*
X-100009D01*
Y215684D01*
D02*
G37*
G36*
X-115249D02*
Y211484D01*
X-111049D01*
X-111823Y213352D01*
X-113381Y214911D01*
X-115249Y215684D01*
D02*
G37*
G36*
X-117789D02*
X-119657Y214911D01*
X-121216Y213352D01*
X-121990Y211484D01*
X-117789D01*
Y215684D01*
D02*
G37*
G36*
X-136839D02*
Y211484D01*
X-132639D01*
X-133413Y213352D01*
X-134971Y214911D01*
X-136839Y215684D01*
D02*
G37*
G36*
X-139379D02*
X-141247Y214911D01*
X-142806Y213352D01*
X-143580Y211484D01*
X-139379D01*
Y215684D01*
D02*
G37*
G36*
X-157159D02*
Y211484D01*
X-152959D01*
X-153733Y213352D01*
X-155291Y214911D01*
X-157159Y215684D01*
D02*
G37*
G36*
X-159699D02*
X-161567Y214911D01*
X-163126Y213352D01*
X-163900Y211484D01*
X-159699D01*
Y215684D01*
D02*
G37*
G36*
X-177479D02*
Y211484D01*
X-173279D01*
X-174053Y213352D01*
X-175611Y214911D01*
X-177479Y215684D01*
D02*
G37*
G36*
X-180019D02*
X-181887Y214911D01*
X-183446Y213352D01*
X-184220Y211484D01*
X-180019D01*
Y215684D01*
D02*
G37*
G36*
X-195259D02*
Y211484D01*
X-191059D01*
X-191833Y213352D01*
X-193391Y214911D01*
X-195259Y215684D01*
D02*
G37*
G36*
X-197799D02*
X-199667Y214911D01*
X-201226Y213352D01*
X-202000Y211484D01*
X-197799D01*
Y215684D01*
D02*
G37*
G36*
X-213039D02*
Y211484D01*
X-208839D01*
X-209613Y213352D01*
X-211171Y214911D01*
X-213039Y215684D01*
D02*
G37*
G36*
X-215579D02*
X-217447Y214911D01*
X-219006Y213352D01*
X-219780Y211484D01*
X-215579D01*
Y215684D01*
D02*
G37*
G36*
X-232089D02*
Y211484D01*
X-227889D01*
X-228663Y213352D01*
X-230221Y214911D01*
X-232089Y215684D01*
D02*
G37*
G36*
X-234629D02*
X-236497Y214911D01*
X-238056Y213352D01*
X-238830Y211484D01*
X-234629D01*
Y215684D01*
D02*
G37*
G36*
X94670Y215437D02*
Y211236D01*
X98870D01*
X98097Y213104D01*
X96538Y214663D01*
X94670Y215437D01*
D02*
G37*
G36*
X92130D02*
X90262Y214663D01*
X88703Y213104D01*
X87930Y211236D01*
X92130D01*
Y215437D01*
D02*
G37*
G36*
X75620D02*
Y211236D01*
X79820D01*
X79047Y213104D01*
X77488Y214663D01*
X75620Y215437D01*
D02*
G37*
G36*
X73080D02*
X71212Y214663D01*
X69654Y213104D01*
X68880Y211236D01*
X73080D01*
Y215437D01*
D02*
G37*
G36*
X57840D02*
Y211236D01*
X62041D01*
X61267Y213104D01*
X59708Y214663D01*
X57840Y215437D01*
D02*
G37*
G36*
X55300D02*
X53432Y214663D01*
X51873Y213104D01*
X51100Y211236D01*
X55300D01*
Y215437D01*
D02*
G37*
G36*
X36250D02*
Y211236D01*
X40451D01*
X39677Y213104D01*
X38118Y214663D01*
X36250Y215437D01*
D02*
G37*
G36*
X33710D02*
X31842Y214663D01*
X30284Y213104D01*
X29510Y211236D01*
X33710D01*
Y215437D01*
D02*
G37*
G36*
X15930D02*
Y211236D01*
X20131D01*
X19357Y213104D01*
X17798Y214663D01*
X15930Y215437D01*
D02*
G37*
G36*
X13390D02*
X11522Y214663D01*
X9963Y213104D01*
X9190Y211236D01*
X13390D01*
Y215437D01*
D02*
G37*
G36*
X-4390D02*
Y211236D01*
X-190D01*
X-963Y213104D01*
X-2522Y214663D01*
X-4390Y215437D01*
D02*
G37*
G36*
X-6930D02*
X-8798Y214663D01*
X-10357Y213104D01*
X-11130Y211236D01*
X-6930D01*
Y215437D01*
D02*
G37*
G36*
X-22170D02*
Y211236D01*
X-17969D01*
X-18743Y213104D01*
X-20302Y214663D01*
X-22170Y215437D01*
D02*
G37*
G36*
X-24710D02*
X-26578Y214663D01*
X-28136Y213104D01*
X-28910Y211236D01*
X-24710D01*
Y215437D01*
D02*
G37*
G36*
X-39950D02*
Y211236D01*
X-35749D01*
X-36523Y213104D01*
X-38082Y214663D01*
X-39950Y215437D01*
D02*
G37*
G36*
X-42490D02*
X-44358Y214663D01*
X-45917Y213104D01*
X-46690Y211236D01*
X-42490D01*
Y215437D01*
D02*
G37*
G36*
X-59000D02*
Y211236D01*
X-54799D01*
X-55573Y213104D01*
X-57132Y214663D01*
X-59000Y215437D01*
D02*
G37*
G36*
X-61540D02*
X-63408Y214663D01*
X-64967Y213104D01*
X-65740Y211236D01*
X-61540D01*
Y215437D01*
D02*
G37*
G36*
X-258160Y214403D02*
Y210202D01*
X-253960D01*
X-254734Y212070D01*
X-256292Y213629D01*
X-258160Y214403D01*
D02*
G37*
G36*
X-260700D02*
X-262569Y213629D01*
X-264127Y212070D01*
X-264901Y210202D01*
X-260700D01*
Y214403D01*
D02*
G37*
G36*
X-277210D02*
Y210202D01*
X-273010D01*
X-273784Y212070D01*
X-275342Y213629D01*
X-277210Y214403D01*
D02*
G37*
G36*
X-279750D02*
X-281619Y213629D01*
X-283177Y212070D01*
X-283951Y210202D01*
X-279750D01*
Y214403D01*
D02*
G37*
G36*
X-294990D02*
Y210202D01*
X-290790D01*
X-291564Y212070D01*
X-293122Y213629D01*
X-294990Y214403D01*
D02*
G37*
G36*
X-297530D02*
X-299399Y213629D01*
X-300957Y212070D01*
X-301731Y210202D01*
X-297530D01*
Y214403D01*
D02*
G37*
G36*
X-316580D02*
Y210202D01*
X-312380D01*
X-313154Y212070D01*
X-314712Y213629D01*
X-316580Y214403D01*
D02*
G37*
G36*
X-319120D02*
X-320989Y213629D01*
X-322547Y212070D01*
X-323321Y210202D01*
X-319120D01*
Y214403D01*
D02*
G37*
G36*
X282651Y210214D02*
X278451D01*
Y206014D01*
X280319Y206787D01*
X281877Y208346D01*
X282651Y210214D01*
D02*
G37*
G36*
X275911D02*
X271710D01*
X272484Y208346D01*
X274043Y206787D01*
X275911Y206014D01*
Y210214D01*
D02*
G37*
G36*
X263601D02*
X259401D01*
Y206014D01*
X261269Y206787D01*
X262827Y208346D01*
X263601Y210214D01*
D02*
G37*
G36*
X256861D02*
X252660D01*
X253434Y208346D01*
X254993Y206787D01*
X256861Y206014D01*
Y210214D01*
D02*
G37*
G36*
X245821D02*
X241621D01*
Y206014D01*
X243489Y206787D01*
X245047Y208346D01*
X245821Y210214D01*
D02*
G37*
G36*
X239081D02*
X234880D01*
X235654Y208346D01*
X237213Y206787D01*
X239081Y206014D01*
Y210214D01*
D02*
G37*
G36*
X224231D02*
X220031D01*
Y206014D01*
X221899Y206787D01*
X223457Y208346D01*
X224231Y210214D01*
D02*
G37*
G36*
X217491D02*
X213290D01*
X214064Y208346D01*
X215623Y206787D01*
X217491Y206014D01*
Y210214D01*
D02*
G37*
G36*
X203911D02*
X199711D01*
Y206014D01*
X201579Y206787D01*
X203137Y208346D01*
X203911Y210214D01*
D02*
G37*
G36*
X197171D02*
X192970D01*
X193744Y208346D01*
X195303Y206787D01*
X197171Y206014D01*
Y210214D01*
D02*
G37*
G36*
X183591D02*
X179391D01*
Y206014D01*
X181259Y206787D01*
X182817Y208346D01*
X183591Y210214D01*
D02*
G37*
G36*
X176851D02*
X172650D01*
X173424Y208346D01*
X174983Y206787D01*
X176851Y206014D01*
Y210214D01*
D02*
G37*
G36*
X165811D02*
X161611D01*
Y206014D01*
X163479Y206787D01*
X165037Y208346D01*
X165811Y210214D01*
D02*
G37*
G36*
X159071D02*
X154870D01*
X155644Y208346D01*
X157203Y206787D01*
X159071Y206014D01*
Y210214D01*
D02*
G37*
G36*
X148031D02*
X143831D01*
Y206014D01*
X145699Y206787D01*
X147257Y208346D01*
X148031Y210214D01*
D02*
G37*
G36*
X141291D02*
X137090D01*
X137864Y208346D01*
X139423Y206787D01*
X141291Y206014D01*
Y210214D01*
D02*
G37*
G36*
X128981D02*
X124781D01*
Y206014D01*
X126649Y206787D01*
X128207Y208346D01*
X128981Y210214D01*
D02*
G37*
G36*
X122241D02*
X118040D01*
X118814Y208346D01*
X120373Y206787D01*
X122241Y206014D01*
Y210214D01*
D02*
G37*
G36*
X-74219Y208944D02*
X-78419D01*
Y204744D01*
X-76551Y205517D01*
X-74993Y207076D01*
X-74219Y208944D01*
D02*
G37*
G36*
X-80959D02*
X-85160D01*
X-84386Y207076D01*
X-82827Y205517D01*
X-80959Y204744D01*
Y208944D01*
D02*
G37*
G36*
X-93269D02*
X-97469D01*
Y204744D01*
X-95601Y205517D01*
X-94043Y207076D01*
X-93269Y208944D01*
D02*
G37*
G36*
X-100009D02*
X-104210D01*
X-103436Y207076D01*
X-101877Y205517D01*
X-100009Y204744D01*
Y208944D01*
D02*
G37*
G36*
X-111049D02*
X-115249D01*
Y204744D01*
X-113381Y205517D01*
X-111823Y207076D01*
X-111049Y208944D01*
D02*
G37*
G36*
X-117789D02*
X-121990D01*
X-121216Y207076D01*
X-119657Y205517D01*
X-117789Y204744D01*
Y208944D01*
D02*
G37*
G36*
X-132639D02*
X-136839D01*
Y204744D01*
X-134971Y205517D01*
X-133413Y207076D01*
X-132639Y208944D01*
D02*
G37*
G36*
X-139379D02*
X-143580D01*
X-142806Y207076D01*
X-141247Y205517D01*
X-139379Y204744D01*
Y208944D01*
D02*
G37*
G36*
X-152959D02*
X-157159D01*
Y204744D01*
X-155291Y205517D01*
X-153733Y207076D01*
X-152959Y208944D01*
D02*
G37*
G36*
X-159699D02*
X-163900D01*
X-163126Y207076D01*
X-161567Y205517D01*
X-159699Y204744D01*
Y208944D01*
D02*
G37*
G36*
X-173279D02*
X-177479D01*
Y204744D01*
X-175611Y205517D01*
X-174053Y207076D01*
X-173279Y208944D01*
D02*
G37*
G36*
X-180019D02*
X-184220D01*
X-183446Y207076D01*
X-181887Y205517D01*
X-180019Y204744D01*
Y208944D01*
D02*
G37*
G36*
X-191059D02*
X-195259D01*
Y204744D01*
X-193391Y205517D01*
X-191833Y207076D01*
X-191059Y208944D01*
D02*
G37*
G36*
X-197799D02*
X-202000D01*
X-201226Y207076D01*
X-199667Y205517D01*
X-197799Y204744D01*
Y208944D01*
D02*
G37*
G36*
X-208839D02*
X-213039D01*
Y204744D01*
X-211171Y205517D01*
X-209613Y207076D01*
X-208839Y208944D01*
D02*
G37*
G36*
X-215579D02*
X-219780D01*
X-219006Y207076D01*
X-217447Y205517D01*
X-215579Y204744D01*
Y208944D01*
D02*
G37*
G36*
X-227889D02*
X-232089D01*
Y204744D01*
X-230221Y205517D01*
X-228663Y207076D01*
X-227889Y208944D01*
D02*
G37*
G36*
X-234629D02*
X-238830D01*
X-238056Y207076D01*
X-236497Y205517D01*
X-234629Y204744D01*
Y208944D01*
D02*
G37*
G36*
X98870Y208696D02*
X94670D01*
Y204496D01*
X96538Y205270D01*
X98097Y206828D01*
X98870Y208696D01*
D02*
G37*
G36*
X92130D02*
X87930D01*
X88703Y206828D01*
X90262Y205270D01*
X92130Y204496D01*
Y208696D01*
D02*
G37*
G36*
X79820D02*
X75620D01*
Y204496D01*
X77488Y205270D01*
X79047Y206828D01*
X79820Y208696D01*
D02*
G37*
G36*
X73080D02*
X68880D01*
X69654Y206828D01*
X71212Y205270D01*
X73080Y204496D01*
Y208696D01*
D02*
G37*
G36*
X62041D02*
X57840D01*
Y204496D01*
X59708Y205270D01*
X61267Y206828D01*
X62041Y208696D01*
D02*
G37*
G36*
X55300D02*
X51100D01*
X51873Y206828D01*
X53432Y205270D01*
X55300Y204496D01*
Y208696D01*
D02*
G37*
G36*
X40451D02*
X36250D01*
Y204496D01*
X38118Y205270D01*
X39677Y206828D01*
X40451Y208696D01*
D02*
G37*
G36*
X33710D02*
X29510D01*
X30284Y206828D01*
X31842Y205270D01*
X33710Y204496D01*
Y208696D01*
D02*
G37*
G36*
X20131D02*
X15930D01*
Y204496D01*
X17798Y205270D01*
X19357Y206828D01*
X20131Y208696D01*
D02*
G37*
G36*
X13390D02*
X9190D01*
X9963Y206828D01*
X11522Y205270D01*
X13390Y204496D01*
Y208696D01*
D02*
G37*
G36*
X-190D02*
X-4390D01*
Y204496D01*
X-2522Y205270D01*
X-963Y206828D01*
X-190Y208696D01*
D02*
G37*
G36*
X-6930D02*
X-11130D01*
X-10357Y206828D01*
X-8798Y205270D01*
X-6930Y204496D01*
Y208696D01*
D02*
G37*
G36*
X-17969D02*
X-22170D01*
Y204496D01*
X-20302Y205270D01*
X-18743Y206828D01*
X-17969Y208696D01*
D02*
G37*
G36*
X-24710D02*
X-28910D01*
X-28136Y206828D01*
X-26578Y205270D01*
X-24710Y204496D01*
Y208696D01*
D02*
G37*
G36*
X-35749D02*
X-39950D01*
Y204496D01*
X-38082Y205270D01*
X-36523Y206828D01*
X-35749Y208696D01*
D02*
G37*
G36*
X-42490D02*
X-46690D01*
X-45917Y206828D01*
X-44358Y205270D01*
X-42490Y204496D01*
Y208696D01*
D02*
G37*
G36*
X-54799D02*
X-59000D01*
Y204496D01*
X-57132Y205270D01*
X-55573Y206828D01*
X-54799Y208696D01*
D02*
G37*
G36*
X-61540D02*
X-65740D01*
X-64967Y206828D01*
X-63408Y205270D01*
X-61540Y204496D01*
Y208696D01*
D02*
G37*
G36*
X-253960Y207662D02*
X-258160D01*
Y203462D01*
X-256292Y204236D01*
X-254734Y205794D01*
X-253960Y207662D01*
D02*
G37*
G36*
X-260700D02*
X-264901D01*
X-264127Y205794D01*
X-262569Y204236D01*
X-260700Y203462D01*
Y207662D01*
D02*
G37*
G36*
X-273010D02*
X-277210D01*
Y203462D01*
X-275342Y204236D01*
X-273784Y205794D01*
X-273010Y207662D01*
D02*
G37*
G36*
X-279750D02*
X-283951D01*
X-283177Y205794D01*
X-281619Y204236D01*
X-279750Y203462D01*
Y207662D01*
D02*
G37*
G36*
X-290790D02*
X-294990D01*
Y203462D01*
X-293122Y204236D01*
X-291564Y205794D01*
X-290790Y207662D01*
D02*
G37*
G36*
X-297530D02*
X-301731D01*
X-300957Y205794D01*
X-299399Y204236D01*
X-297530Y203462D01*
Y207662D01*
D02*
G37*
G36*
X-312380D02*
X-316580D01*
Y203462D01*
X-314712Y204236D01*
X-313154Y205794D01*
X-312380Y207662D01*
D02*
G37*
G36*
X-319120D02*
X-323321D01*
X-322547Y205794D01*
X-320989Y204236D01*
X-319120Y203462D01*
Y207662D01*
D02*
G37*
%LPD*%
G36*
X41910Y470535D02*
X0D01*
Y485775D01*
Y494030D01*
X41910D01*
Y470535D01*
D02*
G37*
G36*
X-191770Y444500D02*
X-231140D01*
Y471170D01*
X-191770D01*
Y444500D01*
D02*
G37*
G36*
X-218440Y383540D02*
Y361950D01*
X-345440D01*
Y434340D01*
X-267580D01*
Y430390D01*
X-256790D01*
Y429120D01*
X-255520D01*
Y421830D01*
X-246000D01*
Y424175D01*
X-245770Y425080D01*
X-241300D01*
Y430620D01*
X-240030D01*
Y431890D01*
X-234290D01*
Y434340D01*
X-218440D01*
Y383540D01*
D02*
G37*
%LPC*%
G36*
X10690Y492727D02*
Y488527D01*
X14891D01*
X14117Y490395D01*
X12559Y491953D01*
X10690Y492727D01*
D02*
G37*
G36*
X8151D02*
X6282Y491953D01*
X4724Y490395D01*
X3950Y488527D01*
X8151D01*
Y492727D01*
D02*
G37*
G36*
X31750Y491880D02*
Y487680D01*
X35950D01*
X35177Y489548D01*
X33618Y491107D01*
X31750Y491880D01*
D02*
G37*
G36*
X29210D02*
X27342Y491107D01*
X25783Y489548D01*
X25010Y487680D01*
X29210D01*
Y491880D01*
D02*
G37*
G36*
X14891Y485987D02*
X3950D01*
X4724Y484118D01*
X6031Y482812D01*
X4724Y481505D01*
X3950Y479637D01*
X14891D01*
X14117Y481505D01*
X12810Y482812D01*
X14117Y484118D01*
X14891Y485987D01*
D02*
G37*
G36*
X35950Y485140D02*
X25010D01*
X25783Y483272D01*
X27090Y481965D01*
X25783Y480658D01*
X25010Y478790D01*
X35950D01*
X35177Y480658D01*
X33870Y481965D01*
X35177Y483272D01*
X35950Y485140D01*
D02*
G37*
G36*
X14891Y477097D02*
X10690D01*
Y472896D01*
X12559Y473670D01*
X14117Y475228D01*
X14891Y477097D01*
D02*
G37*
G36*
X8151D02*
X3950D01*
X4724Y475228D01*
X6282Y473670D01*
X8151Y472896D01*
Y477097D01*
D02*
G37*
G36*
X35950Y476250D02*
X31750D01*
Y472050D01*
X33618Y472823D01*
X35177Y474382D01*
X35950Y476250D01*
D02*
G37*
G36*
X29210D02*
X25010D01*
X25783Y474382D01*
X27342Y472823D01*
X29210Y472050D01*
Y476250D01*
D02*
G37*
G36*
X-204470Y467750D02*
Y463550D01*
X-200270D01*
X-201043Y465418D01*
X-202602Y466977D01*
X-204470Y467750D01*
D02*
G37*
G36*
X-207010D02*
X-208878Y466977D01*
X-210437Y465418D01*
X-211210Y463550D01*
X-207010D01*
Y467750D01*
D02*
G37*
G36*
X-222250D02*
Y463550D01*
X-218050D01*
X-218823Y465418D01*
X-220382Y466977D01*
X-222250Y467750D01*
D02*
G37*
G36*
X-224790D02*
X-226658Y466977D01*
X-228217Y465418D01*
X-228990Y463550D01*
X-224790D01*
Y467750D01*
D02*
G37*
G36*
X-200270Y461010D02*
X-204470D01*
Y456810D01*
X-202602Y457583D01*
X-201043Y459142D01*
X-200270Y461010D01*
D02*
G37*
G36*
X-207010D02*
X-211210D01*
X-210437Y459142D01*
X-208878Y457583D01*
X-207010Y456810D01*
Y461010D01*
D02*
G37*
G36*
X-218050D02*
X-222250D01*
Y456810D01*
X-220382Y457583D01*
X-218823Y459142D01*
X-218050Y461010D01*
D02*
G37*
G36*
X-224790D02*
X-228990D01*
X-228217Y459142D01*
X-226658Y457583D01*
X-224790Y456810D01*
Y461010D01*
D02*
G37*
G36*
X-212090Y457590D02*
Y453390D01*
X-207890D01*
X-208663Y455258D01*
X-210222Y456817D01*
X-212090Y457590D01*
D02*
G37*
G36*
X-214630D02*
X-216498Y456817D01*
X-218057Y455258D01*
X-218830Y453390D01*
X-214630D01*
Y457590D01*
D02*
G37*
G36*
X-207890Y450850D02*
X-212090D01*
Y446650D01*
X-210222Y447423D01*
X-208663Y448982D01*
X-207890Y450850D01*
D02*
G37*
G36*
X-214630D02*
X-218830D01*
X-218057Y448982D01*
X-216498Y447423D01*
X-214630Y446650D01*
Y450850D01*
D02*
G37*
G36*
X-234290Y429350D02*
X-238760D01*
Y425080D01*
X-234290D01*
Y429350D01*
D02*
G37*
G36*
X-258060Y427850D02*
X-267580D01*
Y421830D01*
X-258060D01*
Y427850D01*
D02*
G37*
G36*
X-330200Y422883D02*
Y415290D01*
X-322607D01*
X-323186Y417451D01*
X-324356Y419479D01*
X-326011Y421134D01*
X-328039Y422304D01*
X-330200Y422883D01*
D02*
G37*
G36*
X-332740D02*
X-334901Y422304D01*
X-336929Y421134D01*
X-338584Y419479D01*
X-339754Y417451D01*
X-340333Y415290D01*
X-332740D01*
Y422883D01*
D02*
G37*
G36*
X-237490Y421613D02*
Y414020D01*
X-229897D01*
X-230476Y416181D01*
X-231646Y418209D01*
X-233301Y419864D01*
X-235329Y421034D01*
X-237490Y421613D01*
D02*
G37*
G36*
X-240030D02*
X-242191Y421034D01*
X-244219Y419864D01*
X-245874Y418209D01*
X-247044Y416181D01*
X-247623Y414020D01*
X-240030D01*
Y421613D01*
D02*
G37*
G36*
X-283210Y420343D02*
Y412750D01*
X-275617D01*
X-276196Y414911D01*
X-277366Y416939D01*
X-279021Y418594D01*
X-281049Y419764D01*
X-283210Y420343D01*
D02*
G37*
G36*
X-285750D02*
X-287911Y419764D01*
X-289939Y418594D01*
X-291594Y416939D01*
X-292764Y414911D01*
X-293343Y412750D01*
X-285750D01*
Y420343D01*
D02*
G37*
G36*
X-322607Y412750D02*
X-330200D01*
Y405157D01*
X-328039Y405736D01*
X-326011Y406906D01*
X-324356Y408561D01*
X-323186Y410589D01*
X-322607Y412750D01*
D02*
G37*
G36*
X-332740D02*
X-340333D01*
X-339754Y410589D01*
X-338584Y408561D01*
X-336929Y406906D01*
X-334901Y405736D01*
X-332740Y405157D01*
Y412750D01*
D02*
G37*
G36*
X-229897Y411480D02*
X-237490D01*
Y403887D01*
X-235329Y404466D01*
X-233301Y405636D01*
X-231646Y407291D01*
X-230476Y409319D01*
X-229897Y411480D01*
D02*
G37*
G36*
X-240030D02*
X-247623D01*
X-247044Y409319D01*
X-245874Y407291D01*
X-244219Y405636D01*
X-242191Y404466D01*
X-240030Y403887D01*
Y411480D01*
D02*
G37*
G36*
X-275617Y410210D02*
X-283210D01*
Y402617D01*
X-281049Y403196D01*
X-279021Y404366D01*
X-277366Y406021D01*
X-276196Y408049D01*
X-275617Y410210D01*
D02*
G37*
G36*
X-285750D02*
X-293343D01*
X-292764Y408049D01*
X-291594Y406021D01*
X-289939Y404366D01*
X-287911Y403196D01*
X-285750Y402617D01*
Y410210D01*
D02*
G37*
G36*
X-236220Y384783D02*
Y377190D01*
X-228627D01*
X-229206Y379351D01*
X-230376Y381379D01*
X-232031Y383034D01*
X-234059Y384204D01*
X-236220Y384783D01*
D02*
G37*
G36*
X-238760D02*
X-240921Y384204D01*
X-242949Y383034D01*
X-244604Y381379D01*
X-245774Y379351D01*
X-246353Y377190D01*
X-238760D01*
Y384783D01*
D02*
G37*
G36*
X-281940D02*
Y377190D01*
X-274347D01*
X-274926Y379351D01*
X-276096Y381379D01*
X-277751Y383034D01*
X-279779Y384204D01*
X-281940Y384783D01*
D02*
G37*
G36*
X-284480D02*
X-286641Y384204D01*
X-288669Y383034D01*
X-290324Y381379D01*
X-291494Y379351D01*
X-292073Y377190D01*
X-284480D01*
Y384783D01*
D02*
G37*
G36*
X-330200D02*
Y377190D01*
X-322607D01*
X-323186Y379351D01*
X-324356Y381379D01*
X-326011Y383034D01*
X-328039Y384204D01*
X-330200Y384783D01*
D02*
G37*
G36*
X-332740D02*
X-334901Y384204D01*
X-336929Y383034D01*
X-338584Y381379D01*
X-339754Y379351D01*
X-340333Y377190D01*
X-332740D01*
Y384783D01*
D02*
G37*
G36*
X-228627Y374650D02*
X-236220D01*
Y367057D01*
X-234059Y367636D01*
X-232031Y368806D01*
X-230376Y370461D01*
X-229206Y372489D01*
X-228627Y374650D01*
D02*
G37*
G36*
X-238760D02*
X-246353D01*
X-245774Y372489D01*
X-244604Y370461D01*
X-242949Y368806D01*
X-240921Y367636D01*
X-238760Y367057D01*
Y374650D01*
D02*
G37*
G36*
X-274347D02*
X-281940D01*
Y367057D01*
X-279779Y367636D01*
X-277751Y368806D01*
X-276096Y370461D01*
X-274926Y372489D01*
X-274347Y374650D01*
D02*
G37*
G36*
X-284480D02*
X-292073D01*
X-291494Y372489D01*
X-290324Y370461D01*
X-288669Y368806D01*
X-286641Y367636D01*
X-284480Y367057D01*
Y374650D01*
D02*
G37*
G36*
X-322607D02*
X-330200D01*
Y367057D01*
X-328039Y367636D01*
X-326011Y368806D01*
X-324356Y370461D01*
X-323186Y372489D01*
X-322607Y374650D01*
D02*
G37*
G36*
X-332740D02*
X-340333D01*
X-339754Y372489D01*
X-338584Y370461D01*
X-336929Y368806D01*
X-334901Y367636D01*
X-332740Y367057D01*
Y374650D01*
D02*
G37*
%LPD*%
G36*
X-598334Y421640D02*
X-597800Y420640D01*
X-598227Y420001D01*
X-598326Y419500D01*
X-589200D01*
Y418230D01*
D01*
Y419500D01*
X-580074D01*
X-580173Y420001D01*
X-580600Y420640D01*
X-580065Y421640D01*
X-485140Y421640D01*
X-485140Y384810D01*
X-489190D01*
Y393700D01*
X-501580D01*
Y394970D01*
X-502850D01*
Y405860D01*
X-513970D01*
Y394750D01*
X-518160D01*
Y389210D01*
X-520700D01*
Y394750D01*
X-529590D01*
Y389210D01*
X-530860D01*
Y387940D01*
X-536600D01*
Y384810D01*
X-576580D01*
Y411480D01*
X-601980D01*
Y421640D01*
X-598334D01*
D02*
G37*
%LPC*%
G36*
X-580074Y416960D02*
X-587930D01*
Y413601D01*
X-584450D01*
X-582679Y413953D01*
X-581177Y414957D01*
X-580173Y416459D01*
X-580074Y416960D01*
D02*
G37*
G36*
X-590470D02*
X-598326D01*
X-598227Y416459D01*
X-597223Y414957D01*
X-595721Y413953D01*
X-593950Y413601D01*
X-590470D01*
Y416960D01*
D02*
G37*
G36*
X-545220Y418900D02*
X-554990D01*
Y405130D01*
X-545220D01*
Y418900D01*
D02*
G37*
G36*
X-557530D02*
X-567300D01*
Y405130D01*
X-557530D01*
Y418900D01*
D02*
G37*
G36*
X-489190Y405860D02*
X-500310D01*
Y396240D01*
X-489190D01*
Y405860D01*
D02*
G37*
G36*
X-532130Y394750D02*
X-536600D01*
Y390480D01*
X-532130D01*
Y394750D01*
D02*
G37*
G36*
X-545220Y402590D02*
X-554990D01*
Y388820D01*
X-545220D01*
Y402590D01*
D02*
G37*
G36*
X-557530D02*
X-567300D01*
Y388820D01*
X-557530D01*
Y402590D01*
D02*
G37*
%LPD*%
G36*
X45720Y392390D02*
X42990D01*
Y387350D01*
Y382310D01*
X45720D01*
Y378460D01*
X37003D01*
X36020Y378500D01*
X36020Y379460D01*
Y382270D01*
X30480D01*
X24940D01*
X24940Y378500D01*
X23957Y378460D01*
X17780D01*
Y398780D01*
X24940D01*
Y396240D01*
X30480D01*
X36020D01*
Y398780D01*
X45720D01*
Y392390D01*
D02*
G37*
%LPC*%
G36*
X36020Y393700D02*
X31750D01*
Y389930D01*
X36020D01*
Y393700D01*
D02*
G37*
G36*
X29210D02*
X24940D01*
Y389930D01*
X29210D01*
Y393700D01*
D02*
G37*
G36*
X40450Y392390D02*
X37180D01*
Y388620D01*
X40450D01*
Y392390D01*
D02*
G37*
G36*
X36020Y388580D02*
X31750D01*
Y384810D01*
X36020D01*
Y388580D01*
D02*
G37*
G36*
X29210D02*
X24940D01*
Y384810D01*
X29210D01*
Y388580D01*
D02*
G37*
G36*
X40450Y386080D02*
X37180D01*
Y382310D01*
X40450D01*
Y386080D01*
D02*
G37*
%LPD*%
G36*
X-389890Y336550D02*
X-388010D01*
Y333420D01*
X-382270D01*
Y332150D01*
X-381000D01*
Y326610D01*
X-376530D01*
X-375920Y325863D01*
Y261620D01*
X-398780D01*
Y297180D01*
X-458470D01*
Y305444D01*
X-458050Y306270D01*
X-449780D01*
Y311810D01*
X-447240D01*
Y306270D01*
X-439802D01*
X-438970Y306270D01*
Y306270D01*
X-438810Y306290D01*
Y306290D01*
X-434340D01*
Y311830D01*
X-433070D01*
Y313100D01*
X-427330D01*
Y316230D01*
X-417830D01*
X-416560Y317500D01*
Y341630D01*
X-409400D01*
Y338420D01*
X-403860D01*
X-398320D01*
Y341630D01*
X-389890D01*
Y336550D01*
D02*
G37*
%LPC*%
G36*
X-398320Y335880D02*
X-402590D01*
Y330860D01*
X-398320D01*
Y335880D01*
D02*
G37*
G36*
X-405130D02*
X-409400D01*
Y330860D01*
X-405130D01*
Y335880D01*
D02*
G37*
G36*
X-383540Y330880D02*
X-388010D01*
Y326610D01*
X-383540D01*
Y330880D01*
D02*
G37*
G36*
X-427330Y310560D02*
X-431800D01*
Y306290D01*
X-427330D01*
Y310560D01*
D02*
G37*
G36*
X-378540Y323410D02*
X-384810D01*
Y294640D01*
X-378540D01*
Y323410D01*
D02*
G37*
G36*
X-387350D02*
X-393620D01*
Y294640D01*
X-387350D01*
Y323410D01*
D02*
G37*
G36*
X-378540Y292100D02*
X-384810D01*
Y263330D01*
X-378540D01*
Y292100D01*
D02*
G37*
G36*
X-387350D02*
X-393620D01*
Y263330D01*
X-387350D01*
Y292100D01*
D02*
G37*
%LPD*%
G36*
X-205740Y317839D02*
X-206550Y317380D01*
X-210820D01*
Y312340D01*
X-212090D01*
Y311070D01*
X-217630D01*
Y307340D01*
X-250190D01*
Y281940D01*
X-253280D01*
Y285090D01*
X-261820D01*
Y286360D01*
D01*
Y285090D01*
X-270360D01*
Y281940D01*
X-274320D01*
X-274320Y309070D01*
X-273610Y309770D01*
X-273320Y309770D01*
X-262340D01*
Y321310D01*
Y332850D01*
X-272551D01*
X-273284Y333850D01*
X-273233Y334010D01*
X-243300D01*
Y323950D01*
X-232410D01*
X-221520D01*
Y334010D01*
X-205740D01*
Y317839D01*
D02*
G37*
G36*
X-216090Y305515D02*
X-216090Y304632D01*
Y298840D01*
X-215144D01*
Y287800D01*
X-217560D01*
Y281050D01*
X-218830Y280371D01*
X-219100Y280482D01*
X-220520D01*
X-220980Y280482D01*
X-221073Y280444D01*
X-221171Y280465D01*
X-221445Y280290D01*
X-221745Y280165D01*
X-222957Y280485D01*
X-223060Y280529D01*
Y292908D01*
X-221981Y293487D01*
X-221980Y293488D01*
X-221520Y293488D01*
X-221427Y293526D01*
X-221329Y293505D01*
X-221055Y293680D01*
X-220755Y293805D01*
X-220716Y293898D01*
X-220632Y293952D01*
X-220091Y294728D01*
X-220022Y295046D01*
X-219898Y295346D01*
Y299720D01*
X-220215Y300485D01*
X-220980Y300802D01*
X-245110D01*
X-245875Y300485D01*
X-246192Y299720D01*
Y276007D01*
X-247462Y275377D01*
X-248920Y275980D01*
Y270510D01*
X-251460D01*
Y275980D01*
X-252224Y275664D01*
X-253280Y276369D01*
Y280858D01*
X-250190D01*
X-249425Y281175D01*
X-249108Y281940D01*
Y306258D01*
X-217808D01*
X-217630Y306258D01*
X-217514Y306276D01*
X-217090Y306342D01*
X-216090Y305515D01*
D02*
G37*
G36*
X-220980Y295346D02*
X-221520Y294570D01*
X-221980Y294570D01*
X-231140D01*
Y282180D01*
Y269790D01*
X-221520D01*
Y278624D01*
X-220980Y279400D01*
X-220520Y279400D01*
X-219100D01*
Y276270D01*
X-213360D01*
X-207620D01*
Y279400D01*
X-203200D01*
X-203200Y290830D01*
X-170180D01*
Y256540D01*
Y247650D01*
X-266040D01*
Y251460D01*
X-271780D01*
Y252730D01*
X-273050D01*
Y258270D01*
X-281940D01*
Y252730D01*
X-284480D01*
Y258270D01*
X-293370D01*
Y252730D01*
X-294640D01*
Y251460D01*
X-300380D01*
Y247650D01*
X-307340D01*
Y274320D01*
X-273116Y274320D01*
X-272984Y261620D01*
X-265430Y261620D01*
X-245110D01*
Y299720D01*
X-220980D01*
Y295346D01*
D02*
G37*
%LPC*%
G36*
X-248530Y332850D02*
X-259800D01*
Y322580D01*
X-248530D01*
Y332850D01*
D02*
G37*
G36*
X-213360Y317380D02*
X-217630D01*
Y313610D01*
X-213360D01*
Y317380D01*
D02*
G37*
G36*
X-221520Y321410D02*
X-231140D01*
Y310290D01*
X-221520D01*
Y321410D01*
D02*
G37*
G36*
X-233680D02*
X-243300D01*
Y310290D01*
X-233680D01*
Y321410D01*
D02*
G37*
G36*
X-248530Y320040D02*
X-259800D01*
Y309770D01*
X-248530D01*
Y320040D01*
D02*
G37*
G36*
X-253280Y291900D02*
X-260550D01*
Y287630D01*
X-253280D01*
Y291900D01*
D02*
G37*
G36*
X-263090D02*
X-270360D01*
Y287630D01*
X-263090D01*
Y291900D01*
D02*
G37*
G36*
X-233680Y294570D02*
X-243300D01*
Y283450D01*
X-233680D01*
Y294570D01*
D02*
G37*
G36*
X-178340Y289320D02*
X-187960D01*
Y278200D01*
X-178340D01*
Y289320D01*
D02*
G37*
G36*
X-190500D02*
X-200120D01*
Y278200D01*
X-190500D01*
Y289320D01*
D02*
G37*
G36*
X-233680Y280910D02*
X-243300D01*
Y269790D01*
X-233680D01*
Y280910D01*
D02*
G37*
G36*
X-207620Y273730D02*
X-212090D01*
Y269460D01*
X-207620D01*
Y273730D01*
D02*
G37*
G36*
X-214630D02*
X-219100D01*
Y269460D01*
X-214630D01*
Y273730D01*
D02*
G37*
G36*
X-278280Y272900D02*
X-285550D01*
Y268630D01*
X-278280D01*
Y272900D01*
D02*
G37*
G36*
X-288090D02*
X-295360D01*
Y268630D01*
X-288090D01*
Y272900D01*
D02*
G37*
G36*
X-178340Y275660D02*
X-187960D01*
Y264540D01*
X-178340D01*
Y275660D01*
D02*
G37*
G36*
X-190500D02*
X-200120D01*
Y264540D01*
X-190500D01*
Y275660D01*
D02*
G37*
G36*
X-278280Y266090D02*
X-285550D01*
Y261820D01*
X-278280D01*
Y266090D01*
D02*
G37*
G36*
X-288090D02*
X-295360D01*
Y261820D01*
X-288090D01*
Y266090D01*
D02*
G37*
G36*
X-266040Y258270D02*
X-270510D01*
Y254000D01*
X-266040D01*
Y258270D01*
D02*
G37*
G36*
X-295910D02*
X-300380D01*
Y254000D01*
X-295910D01*
Y258270D01*
D02*
G37*
%LPD*%
D14*
X-563510Y354330D02*
X-556260Y361580D01*
X-572770Y354330D02*
X-563510D01*
X119286Y298304D02*
Y323451D01*
Y298304D02*
X119380Y298210D01*
X129540Y311202D02*
Y312420D01*
Y311202D02*
X132170Y308572D01*
Y302260D02*
Y308572D01*
X132760Y283533D02*
Y290830D01*
X130716Y281488D02*
X132760Y283533D01*
X130716Y280271D02*
Y281488D01*
X50599Y380139D02*
X57559D01*
X49720Y381018D02*
Y387350D01*
Y381018D02*
X50599Y380139D01*
X57559D02*
X58420Y381000D01*
X49720Y387350D02*
X53970D01*
X56510Y389890D01*
X57150D01*
X20320Y369570D02*
X24290Y373540D01*
X30480D01*
X73660Y342900D02*
X76200Y340360D01*
Y335280D02*
Y340360D01*
X73660Y342900D02*
Y381000D01*
X106680Y259040D02*
Y268210D01*
Y257770D02*
Y259040D01*
X-589083Y463158D02*
Y466597D01*
X-596146Y461240D02*
X-591001D01*
X-589083Y463158D01*
X-596146Y461240D02*
X-591820Y465566D01*
X-596530Y461240D02*
Y469405D01*
X-332740Y328930D02*
X-332150Y329520D01*
X-264250Y243930D02*
X-261620Y241300D01*
X-530860Y370840D02*
Y380410D01*
X-556260Y359860D02*
Y361580D01*
X-366080Y317500D02*
X-364450D01*
X-433750Y321310D02*
X-433070Y321990D01*
X46990Y350520D02*
X63500D01*
X41720Y387350D02*
Y387850D01*
Y355790D02*
Y387350D01*
X40640Y394970D02*
X41910Y396240D01*
X30480Y394970D02*
X40640D01*
X-361830Y320120D02*
Y321430D01*
X-358140Y325120D02*
Y325120D01*
X-361830Y321430D02*
X-358140Y325120D01*
X-364450Y317500D02*
X-361830Y320120D01*
X-366080Y293370D02*
Y317500D01*
Y322900D01*
X-513760Y380410D02*
X-510540Y377190D01*
X-519430Y380410D02*
X-513760D01*
X-240030Y439420D02*
X-229870D01*
X-240030Y460330D02*
Y466090D01*
X-236220Y469900D01*
X-254190Y474980D02*
X-252920Y476250D01*
X-242570D01*
X-566829Y349291D02*
X-557530Y358590D01*
X-567690Y345440D02*
X-566829Y346301D01*
Y349291D01*
X-557530Y358590D02*
X-556260Y359860D01*
X-557530Y345440D02*
Y358590D01*
X-556260Y359860D02*
X-546389Y349989D01*
Y346369D02*
Y349989D01*
X-547370Y345388D02*
X-546389Y346369D01*
X-547370Y344170D02*
Y345388D01*
X-548510Y353830D02*
X-543060D01*
X-556260Y361580D02*
X-548510Y353830D01*
X-543060D02*
X-542290Y353060D01*
X-556260Y361580D02*
Y363860D01*
X-337820Y683260D02*
X347928D01*
X101508Y253960D02*
X104180D01*
X97790Y251460D02*
X99008D01*
X104180Y253960D02*
Y255270D01*
X99008Y251460D02*
X101508Y253960D01*
X104180Y255270D02*
X106680Y257770D01*
Y247650D02*
Y257770D01*
X114300Y251460D02*
Y254000D01*
X111760Y256540D02*
X114300Y254000D01*
X109180Y256540D02*
X111760D01*
X106680Y259040D02*
X109180Y256540D01*
X140970Y307340D02*
X144780Y311150D01*
X140970Y302260D02*
Y307340D01*
X141560Y285380D02*
Y290830D01*
Y285380D02*
X144780Y282160D01*
Y281940D02*
Y282160D01*
X141560Y290830D02*
X151130D01*
X140970Y302260D02*
X149860D01*
X132760Y290830D02*
X134111Y289479D01*
X-199390Y1071880D02*
X-199378Y1071868D01*
Y1066630D02*
Y1071868D01*
Y1066630D02*
X-158908Y1026160D01*
X41910Y396240D02*
X69850D01*
X-52070Y381879D02*
X-51191Y381000D01*
X30480Y365760D02*
Y373540D01*
X-342080Y267600D02*
Y270140D01*
X-589200Y424730D02*
X-577300D01*
X-575480Y426550D01*
X-570400D01*
X-570230Y426720D01*
X-338319Y260109D02*
Y263839D01*
X-334830Y256620D02*
X-331498D01*
X-328878Y254000D02*
X-327660D01*
X-342080Y267600D02*
X-338319Y263839D01*
X-331498Y256620D02*
X-328878Y254000D01*
X-338319Y260109D02*
X-334830Y256620D01*
X-341170Y271780D02*
X-327660D01*
X-342080Y270870D02*
X-341170Y271780D01*
X-342080Y270140D02*
Y270870D01*
Y270140D02*
X-334830Y262890D01*
X-327660D01*
X-342080Y274690D02*
X-334830Y281940D01*
X-328930D01*
X-420359Y253591D02*
X-410210Y263740D01*
X-424180Y252730D02*
X-423319Y253591D01*
X-410210Y263740D02*
Y265880D01*
X-423319Y253591D02*
X-420359D01*
X147320Y363220D02*
X147627Y363527D01*
X-256540Y475370D02*
Y488950D01*
X-256790Y475120D02*
X-256540Y475370D01*
X-247650Y485140D02*
X-243840D01*
X-250190Y482600D02*
X-247650Y485140D01*
X-250190Y479120D02*
Y482600D01*
X-254190Y475120D02*
X-250190Y479120D01*
X-256790Y475120D02*
X-254190D01*
X-424180Y271780D02*
X-411390D01*
X-424180Y262890D02*
X-415740D01*
X-424180Y281940D02*
X-411480D01*
X-303530Y242518D02*
X-302260Y243788D01*
Y243840D01*
X-303530Y241300D02*
Y242518D01*
X-302260Y243840D02*
X-294730D01*
X-294640Y243930D01*
X-271780D02*
X-264250D01*
X-294640D02*
X-283210D01*
X-271780D01*
Y234950D02*
Y243930D01*
X-283210Y234950D02*
Y243930D01*
X-294640Y234950D02*
Y243930D01*
X-334830Y259080D02*
Y260350D01*
X-323850Y329520D02*
Y336550D01*
X-332150Y329520D02*
X-323850D01*
X-382270Y332150D02*
X-381260Y331140D01*
X-366588Y323408D02*
X-366080Y322900D01*
X-366640Y323408D02*
X-366588D01*
X-370840Y326390D02*
X-369622D01*
X-366640Y323408D01*
X-382270Y340950D02*
Y349930D01*
X-426720Y357460D02*
Y367030D01*
X-415290Y358060D02*
Y367030D01*
X-433070Y320630D02*
X-427114D01*
X-423895Y323850D01*
X-422910D01*
X-433070Y321990D02*
Y328930D01*
X-448510Y321310D02*
X-433750D01*
X-433070Y320630D01*
X-461010Y346040D02*
Y355600D01*
X-461610Y345440D02*
X-461010Y346040D01*
X-449021Y356981D02*
X-448310Y356270D01*
X-500380Y293370D02*
Y302940D01*
X-488950Y293370D02*
Y302940D01*
X-519430Y372110D02*
Y380410D01*
X347928Y683260D02*
X353060Y678128D01*
Y676910D02*
Y678128D01*
X-58420Y497840D02*
X660400D01*
X-63500Y502920D02*
X-58420Y497840D01*
X699770Y537210D02*
Y561340D01*
X694690Y566420D02*
X699770Y561340D01*
X660400Y497840D02*
X699770Y537210D01*
X-209550Y420370D02*
X-185420Y444500D01*
X-209550Y401320D02*
Y420370D01*
X-185420Y444500D02*
Y449580D01*
X-201930Y393700D02*
Y420370D01*
X-176530Y445770D01*
X-438150Y374650D02*
X-430868Y381932D01*
X-438150Y346710D02*
Y374650D01*
X-256790Y429120D02*
X-256250Y428580D01*
X-241300D01*
X-393700Y382661D02*
X-392821Y383540D01*
X-393700Y360760D02*
Y382661D01*
X-393780Y360680D02*
X-393700Y360760D01*
X-440090Y344770D02*
X-438150Y346710D01*
X-448310Y344770D02*
X-440090D01*
X-403860Y360600D02*
X-403780Y360680D01*
X-403860Y348650D02*
Y360600D01*
X-404450Y348060D02*
X-403860Y348650D01*
X-415290Y348060D02*
X-404450D01*
X-415890Y348660D02*
X-415290Y348060D01*
X-426720Y348660D02*
X-415890D01*
X-448510Y330810D02*
X-448310Y331010D01*
Y344770D01*
X-501580Y394970D02*
X-500380Y393770D01*
X-433090Y311810D02*
X-433070Y311830D01*
X-470970Y345040D02*
X-470570Y345440D01*
X-473510Y330810D02*
Y345040D01*
X-473580Y311740D02*
X-473510Y311810D01*
X-213360Y301070D02*
X-212090Y302340D01*
X-213360Y283800D02*
Y301070D01*
X-250360Y270680D02*
X-250190Y270510D01*
X-250360Y270680D02*
Y275760D01*
X-251460Y276860D02*
X-250360Y275760D01*
X-261820Y276860D02*
X-251460D01*
X-261820Y286360D02*
X-261070Y287110D01*
X-306660Y320720D02*
X-306070Y321310D01*
X-382270Y330200D02*
X-381950Y329880D01*
Y293370D02*
Y329880D01*
X41720Y355790D02*
X46990Y350520D01*
X60569Y322580D02*
X83900D01*
X55880Y317891D02*
X60569Y322580D01*
X94140Y298370D02*
Y322580D01*
X81200Y243840D02*
Y268130D01*
X62230Y243840D02*
X71200D01*
X55880Y250190D02*
X62230Y243840D01*
X84200Y324150D02*
Y335280D01*
X83900Y323850D02*
X84200Y324150D01*
X55880Y250190D02*
Y317891D01*
X93980Y298210D02*
X94140Y298370D01*
X69850Y396240D02*
X73660Y392430D01*
X123190Y1026160D02*
X128191Y1031161D01*
X-158908Y1026160D02*
X123190D01*
X-596530Y461240D02*
X-596146D01*
X-571435Y434340D02*
X-570230D01*
X-574544Y431230D02*
X-571435Y434340D01*
X-589200Y431230D02*
X-574544D01*
X-596530Y469405D02*
X-596530D01*
X-594763Y395240D02*
X-594360D01*
X-593090Y393970D01*
X-594360Y395240D02*
Y395316D01*
X-591450Y398226D01*
X-741759Y907971D02*
Y1038781D01*
X-798909Y850821D02*
X-741759Y907971D01*
X706041Y651431D02*
Y783511D01*
X231061Y1262301D02*
X450771D01*
X81201Y1112441D02*
X231061Y1262301D01*
X81201Y1074341D02*
Y1112441D01*
X653971Y967661D02*
Y1034971D01*
Y967661D02*
X735251Y886381D01*
X-798909Y817801D02*
Y850821D01*
X694611Y794941D02*
X706041Y783511D01*
X-737949Y600631D02*
Y796211D01*
X-735409Y598091D02*
X-723979D01*
X-737949Y600631D02*
X-735409Y598091D01*
X-181689Y1184831D02*
X-138509Y1141651D01*
Y1128951D02*
Y1141651D01*
X-784939Y1101011D02*
X-768429Y1117521D01*
X-784939Y1066721D02*
Y1101011D01*
X-492839Y1184831D02*
X-181689D01*
X-768429Y1117521D02*
X-661749D01*
X-516969Y1262301D01*
X-443309D01*
X640001Y1187371D02*
X703501Y1123871D01*
Y1112441D02*
Y1123871D01*
X410131Y1187371D02*
X640001D01*
X735251Y872411D02*
Y886381D01*
X128191Y1031161D02*
Y1050211D01*
D17*
X123328Y411480D02*
X140970D01*
X-381260Y331140D02*
X-347650D01*
X-337230Y320720D01*
X116041Y417830D02*
X119661Y414210D01*
X120598D01*
X8890Y417830D02*
X116041D01*
X120598Y414210D02*
X123328Y411480D01*
X140970D02*
X153670Y398780D01*
X-14393Y487257D02*
X9420D01*
X-45720Y455930D02*
X-14393Y487257D01*
X-52070Y455930D02*
X-45720D01*
X-52070Y417830D02*
Y455930D01*
Y467360D01*
X-478790Y369179D02*
Y414020D01*
X-51191Y381000D02*
X-7620D01*
X-52070Y381879D02*
Y417830D01*
X-7620Y381000D02*
X35560Y337820D01*
Y331470D02*
Y337820D01*
X147627Y363527D02*
X151437D01*
X153670Y365760D02*
Y398780D01*
X151437Y363527D02*
X153670Y365760D01*
X-58420Y473710D02*
X-52070Y467360D01*
Y417830D02*
X-44450D01*
X-449021Y356981D02*
Y361391D01*
X-450850Y363220D02*
X-449021Y361391D01*
X-472831Y363220D02*
X-450850D01*
X-478790Y369179D02*
X-472831Y363220D01*
X-83820Y331470D02*
X35560D01*
X-44450Y417830D02*
X-31590Y404970D01*
X26670D01*
X0Y426720D02*
X8890Y417830D01*
X0Y426720D02*
Y468946D01*
X9420Y478367D01*
X-194310Y473710D02*
X-58420D01*
X-205740Y462280D02*
X-194310Y473710D01*
X-181610Y500380D02*
X-123190D01*
X-205740Y476250D02*
X-181610Y500380D01*
X-205740Y462280D02*
Y476250D01*
X-239440Y451140D02*
X-238755Y451825D01*
X-213655D02*
X-213360Y452120D01*
X-238755Y451825D02*
X-213655D01*
X-346710Y478790D02*
X-295910D01*
X-269240Y452120D02*
X-256790D01*
X-295910Y478790D02*
X-269240Y452120D01*
X-478790Y414020D02*
X-474980Y417830D01*
X-407670D01*
X-346710Y478790D01*
X-323850Y320720D02*
X-306660D01*
X-337230D02*
X-323850D01*
D21*
X-261820Y286360D02*
D03*
Y276860D02*
D03*
Y267360D02*
D03*
X-286820D02*
D03*
Y286360D02*
D03*
D23*
X-448310Y344770D02*
D03*
Y356270D02*
D03*
X-403860Y337150D02*
D03*
Y348650D02*
D03*
D25*
X140970Y302260D02*
D03*
X132170D02*
D03*
X141560Y290830D02*
D03*
X132760D02*
D03*
D27*
X-212090Y302340D02*
D03*
Y312340D02*
D03*
X30480Y383540D02*
D03*
Y373540D02*
D03*
Y394970D02*
D03*
Y404970D02*
D03*
X-415290Y348060D02*
D03*
Y358060D02*
D03*
D28*
X-473110Y345440D02*
D03*
X-461610D02*
D03*
D29*
X-294640Y243930D02*
D03*
Y252730D02*
D03*
X-283210Y243930D02*
D03*
Y252730D02*
D03*
X-271780Y243930D02*
D03*
Y252730D02*
D03*
X-213360Y275000D02*
D03*
Y283800D02*
D03*
X-240030Y460330D02*
D03*
Y451530D02*
D03*
Y439420D02*
D03*
Y430620D02*
D03*
X-323850Y329520D02*
D03*
Y320720D02*
D03*
X-500380Y302940D02*
D03*
Y311740D02*
D03*
X-433070Y320630D02*
D03*
Y311830D02*
D03*
X-488950Y302940D02*
D03*
Y311740D02*
D03*
X-382270Y340950D02*
D03*
Y332150D02*
D03*
X-426720Y357460D02*
D03*
Y348660D02*
D03*
X-530860Y389210D02*
D03*
Y380410D02*
D03*
X-519430D02*
D03*
Y389210D02*
D03*
D31*
X41720Y387350D02*
D03*
X49720D02*
D03*
X84200Y335280D02*
D03*
X76200D02*
D03*
D64*
X-461080Y394970D02*
X-228600D01*
X-189230Y317430D02*
Y355600D01*
X-228600Y394970D02*
X-189230Y355600D01*
X-240620Y452120D02*
X-240030Y451530D01*
X-256790Y452120D02*
X-240620D01*
X-500380Y311740D02*
Y393770D01*
X-488950Y311740D02*
X-473580D01*
X-500380D02*
X-488950D01*
D65*
X-312420Y988060D02*
D03*
X-287020D02*
D03*
X-261620D02*
D03*
X-236220D02*
D03*
X-210820D02*
D03*
X-185420D02*
D03*
X-160020D02*
D03*
X-134620D02*
D03*
X-109220D02*
D03*
X-83820D02*
D03*
X-58420D02*
D03*
X-33020D02*
D03*
X-7620D02*
D03*
X17780D02*
D03*
X43180D02*
D03*
X68580D02*
D03*
X-312420Y668060D02*
D03*
X-287020D02*
D03*
X-261620D02*
D03*
X-236220D02*
D03*
X-210820D02*
D03*
X-185420D02*
D03*
X-160020D02*
D03*
X-134620D02*
D03*
X-109220D02*
D03*
X-83820D02*
D03*
X-58420D02*
D03*
X-33020D02*
D03*
X-7620D02*
D03*
X17780D02*
D03*
X43180D02*
D03*
X68580D02*
D03*
D66*
X-367420Y673060D02*
D03*
X382580D02*
D03*
X-367420Y983060D02*
D03*
X382580D02*
D03*
D67*
X-615950Y464230D02*
D03*
Y398230D02*
D03*
D68*
X560015Y427211D02*
D03*
X581605D02*
D03*
X599385D02*
D03*
X618435D02*
D03*
X560015Y447531D02*
D03*
X581605D02*
D03*
X599385D02*
D03*
X618435D02*
D03*
X618405Y489200D02*
D03*
X599355D02*
D03*
X581575D02*
D03*
X559985D02*
D03*
X618405Y468880D02*
D03*
X599355D02*
D03*
X581575D02*
D03*
X559985D02*
D03*
X482679Y447191D02*
D03*
X504269D02*
D03*
X522049D02*
D03*
X541099D02*
D03*
X482679Y468781D02*
D03*
X504269D02*
D03*
X522049D02*
D03*
X541099D02*
D03*
X540670Y489602D02*
D03*
X521620D02*
D03*
X503840D02*
D03*
X482250D02*
D03*
X542290Y427990D02*
D03*
X523240Y426720D02*
D03*
X504190D02*
D03*
X482521Y427686D02*
D03*
X-572770Y354330D02*
D03*
X93400Y209966D02*
D03*
X74350D02*
D03*
X56570D02*
D03*
X34980D02*
D03*
X14660D02*
D03*
X-5660D02*
D03*
X-23440D02*
D03*
X-41220D02*
D03*
X-60270D02*
D03*
X167561Y261316D02*
D03*
X189230Y260350D02*
D03*
X208280D02*
D03*
X227330Y261620D02*
D03*
X167290Y324502D02*
D03*
X188880D02*
D03*
X206660D02*
D03*
X225710D02*
D03*
X226139Y302411D02*
D03*
X207089D02*
D03*
X189309D02*
D03*
X167719D02*
D03*
X226139Y280821D02*
D03*
X207089D02*
D03*
X189309D02*
D03*
X167719D02*
D03*
X158265Y482669D02*
D03*
X177314D02*
D03*
X195095D02*
D03*
X212875D02*
D03*
X157480Y452120D02*
D03*
X176530D02*
D03*
X194310D02*
D03*
X212090D02*
D03*
X252730D02*
D03*
X274320D02*
D03*
X292100D02*
D03*
X233195Y482669D02*
D03*
X311150Y452120D02*
D03*
X253514Y482669D02*
D03*
X275105D02*
D03*
X292885D02*
D03*
X311935D02*
D03*
X232410Y452120D02*
D03*
X-121841Y254151D02*
D03*
X-100251D02*
D03*
X-82471D02*
D03*
X-63421D02*
D03*
X-121841Y275741D02*
D03*
X-100251D02*
D03*
X-82471D02*
D03*
X-63421D02*
D03*
X-259430Y208932D02*
D03*
X-278480D02*
D03*
X-296260D02*
D03*
X-317850D02*
D03*
X-63850Y297832D02*
D03*
X-82900D02*
D03*
X-100680D02*
D03*
X-122270D02*
D03*
X44615Y235509D02*
D03*
X25565D02*
D03*
X7785D02*
D03*
X-13805D02*
D03*
X-34125D02*
D03*
X-54445D02*
D03*
X-72225D02*
D03*
X-90005D02*
D03*
X-109055D02*
D03*
X277181Y211484D02*
D03*
X258131D02*
D03*
X240351D02*
D03*
X218761D02*
D03*
X198441D02*
D03*
X178121D02*
D03*
X160341D02*
D03*
X142561D02*
D03*
X123511D02*
D03*
X633547Y517027D02*
D03*
X614497D02*
D03*
X596717D02*
D03*
X575127D02*
D03*
X554807D02*
D03*
X534487D02*
D03*
X516707D02*
D03*
X498927D02*
D03*
X479877D02*
D03*
X449397Y518297D02*
D03*
X430347D02*
D03*
X412567D02*
D03*
X390977D02*
D03*
X370657D02*
D03*
X350337D02*
D03*
X332557D02*
D03*
X314777D02*
D03*
X295727D02*
D03*
X-393768Y481980D02*
D03*
X-412818D02*
D03*
X-430598D02*
D03*
X-452188D02*
D03*
X-472508D02*
D03*
X-492828D02*
D03*
X-510608D02*
D03*
X-528388D02*
D03*
X-547438D02*
D03*
X-544509Y450244D02*
D03*
X-525459D02*
D03*
X-507679D02*
D03*
X-489899D02*
D03*
X-469579D02*
D03*
X-449259D02*
D03*
X-427669D02*
D03*
X-409889D02*
D03*
X-390839D02*
D03*
X100651Y518824D02*
D03*
X119701D02*
D03*
X137481D02*
D03*
X155261D02*
D03*
X175581D02*
D03*
X195901D02*
D03*
X217491D02*
D03*
X235271D02*
D03*
X254321D02*
D03*
X-233359Y210214D02*
D03*
X-214309D02*
D03*
X-196529D02*
D03*
X-178749D02*
D03*
X-158429D02*
D03*
X-138109D02*
D03*
X-116519D02*
D03*
X-98739D02*
D03*
X-79689D02*
D03*
X58420Y381000D02*
D03*
X57150Y389890D02*
D03*
X20320Y369570D02*
D03*
X-358140Y325120D02*
D03*
X-510335Y376559D02*
D03*
X-229870Y439420D02*
D03*
X-236220Y469900D02*
D03*
X-242570Y476250D02*
D03*
X-323850Y490220D02*
D03*
X-312420D02*
D03*
X-298450D02*
D03*
X-284480D02*
D03*
X-271780D02*
D03*
X-330200Y347980D02*
D03*
X-342900Y340360D02*
D03*
X-355600D02*
D03*
X-368300D02*
D03*
X-180164Y335468D02*
D03*
X-159277Y297933D02*
D03*
Y309363D02*
D03*
Y320793D02*
D03*
Y332223D02*
D03*
Y250943D02*
D03*
Y262373D02*
D03*
Y273803D02*
D03*
Y285233D02*
D03*
X-203717Y236747D02*
D03*
X-192287D02*
D03*
X-180857D02*
D03*
X-169427D02*
D03*
X-250707D02*
D03*
X-239277D02*
D03*
X-227847D02*
D03*
X-216417D02*
D03*
X-315353Y247228D02*
D03*
Y258658D02*
D03*
Y270088D02*
D03*
Y281518D02*
D03*
X-204863Y339938D02*
D03*
X-218833D02*
D03*
X-231533D02*
D03*
X-242963Y345018D02*
D03*
X-258203Y355178D02*
D03*
X-269633D02*
D03*
X-279793D02*
D03*
X-292100Y355600D02*
D03*
X-304800D02*
D03*
X-316230D02*
D03*
X-443496Y404562D02*
D03*
X-447306Y374082D02*
D03*
X-443496Y385512D02*
D03*
X-488950Y373380D02*
D03*
X-459740D02*
D03*
X-471170D02*
D03*
X-567690Y345440D02*
D03*
X-557530D02*
D03*
X-547370Y344170D02*
D03*
X-542290Y353060D02*
D03*
X-572565Y447679D02*
D03*
X-572770Y457200D02*
D03*
Y468630D02*
D03*
X97790Y251460D02*
D03*
X114300D02*
D03*
X106586Y247251D02*
D03*
X144780Y311150D02*
D03*
Y281940D02*
D03*
X151130Y290830D02*
D03*
X149860Y302260D02*
D03*
X129540Y312420D02*
D03*
X130716Y280271D02*
D03*
X129446Y323451D02*
D03*
X119286D02*
D03*
X-199390Y1071880D02*
D03*
X120598Y414210D02*
D03*
X-52070Y455930D02*
D03*
X73660Y381000D02*
D03*
Y392430D02*
D03*
X30480Y365760D02*
D03*
X-570230Y426720D02*
D03*
X-327660Y254000D02*
D03*
Y271780D02*
D03*
Y262890D02*
D03*
Y281940D02*
D03*
X-424180Y252730D02*
D03*
X-627175Y481969D02*
D03*
X147320Y363220D02*
D03*
X-52070Y417830D02*
D03*
X-256540Y488950D02*
D03*
X-243840Y485140D02*
D03*
X-424180Y271780D02*
D03*
Y262890D02*
D03*
Y281940D02*
D03*
X-303530Y241300D02*
D03*
X-262685Y241939D02*
D03*
X-271575Y234319D02*
D03*
X-283005D02*
D03*
X-294640Y234950D02*
D03*
X-323645Y337189D02*
D03*
X-332535Y329569D02*
D03*
X-370840Y326390D02*
D03*
X-382270Y349930D02*
D03*
X-426720Y367030D02*
D03*
X-415290D02*
D03*
X-422910Y323850D02*
D03*
X-433070Y328930D02*
D03*
X-461010Y355600D02*
D03*
X-500380Y293370D02*
D03*
X-488950D02*
D03*
X-519225Y371479D02*
D03*
X-530655D02*
D03*
X-589954Y381639D02*
D03*
X-599440Y381000D02*
D03*
X-609395Y381639D02*
D03*
X-618285D02*
D03*
X-627175D02*
D03*
X-573835Y481969D02*
D03*
X-585265D02*
D03*
X-597965D02*
D03*
X-606855D02*
D03*
X-617015D02*
D03*
X353060Y676910D02*
D03*
X-337820Y683260D02*
D03*
X-83820Y331470D02*
D03*
X35560D02*
D03*
X30480Y477520D02*
D03*
X9420Y478367D02*
D03*
X30480Y486410D02*
D03*
X9420Y487257D02*
D03*
X-63500Y502920D02*
D03*
X694690Y566420D02*
D03*
X-123190Y500380D02*
D03*
X-205740Y462280D02*
D03*
X-223520D02*
D03*
X-213360Y452120D02*
D03*
X-201930Y393700D02*
D03*
X-209550Y401320D02*
D03*
X-430668Y381862D02*
D03*
X-393838D02*
D03*
X-185420Y449580D02*
D03*
X-176530Y445770D02*
D03*
X-250190Y270510D02*
D03*
X63500Y350520D02*
D03*
X-570230Y434340D02*
D03*
X-741759Y1038781D02*
D03*
X706041Y651431D02*
D03*
X-723979Y598091D02*
D03*
X128191Y1050211D02*
D03*
X-737949Y796211D02*
D03*
X-798909Y817801D02*
D03*
X-784939Y1066721D02*
D03*
X-443309Y1262301D02*
D03*
X-492839Y1184831D02*
D03*
X-138509Y1128951D02*
D03*
X81201Y1074341D02*
D03*
X450771Y1262301D02*
D03*
X410131Y1187371D02*
D03*
X703501Y1112441D02*
D03*
X653971Y1034971D02*
D03*
X735251Y872411D02*
D03*
X694611Y794941D02*
D03*
D69*
X-284480Y411480D02*
D03*
X-283210Y375920D02*
D03*
X-237490D02*
D03*
X-238760Y412750D02*
D03*
X-331470Y375920D02*
D03*
Y414020D02*
D03*
D70*
X-306070Y321310D02*
D03*
X-261070D02*
D03*
D71*
X-189230Y317430D02*
D03*
Y276930D02*
D03*
X-232410Y282180D02*
D03*
Y322680D02*
D03*
D72*
X93900Y322580D02*
D03*
X83900D02*
D03*
X81200Y243840D02*
D03*
X71200D02*
D03*
X-403780Y360680D02*
D03*
X-393780D02*
D03*
D73*
X68580Y298210D02*
D03*
X81280Y268210D02*
D03*
X93980Y298210D02*
D03*
X106680Y268210D02*
D03*
X119380Y298210D02*
D03*
D74*
X-319790Y452120D02*
D03*
D75*
X-256790Y429120D02*
D03*
Y452120D02*
D03*
Y475120D02*
D03*
D76*
X-386080Y293370D02*
D03*
X-366080D02*
D03*
D77*
X-410080Y270870D02*
D03*
X-342080D02*
D03*
D78*
X-473510Y330810D02*
D03*
Y311810D02*
D03*
X-448510D02*
D03*
Y321310D02*
D03*
Y330810D02*
D03*
D79*
X-461080Y394970D02*
D03*
X-501580D02*
D03*
D80*
X-615950Y443230D02*
D03*
Y419230D02*
D03*
D81*
X-591450Y463230D02*
D03*
Y399230D02*
D03*
D82*
X-589200Y431230D02*
D03*
Y424730D02*
D03*
Y418230D02*
D03*
Y444230D02*
D03*
Y437730D02*
D03*
D83*
X-556260Y403860D02*
D03*
Y363860D02*
D03*
M02*
