G04*
G04 #@! TF.GenerationSoftware,Altium Limited,Altium Designer,25.3.3 (18)*
G04*
G04 Layer_Color=65535*
%FSLAX44Y44*%
%MOMM*%
G71*
G04*
G04 #@! TF.SameCoordinates,03B7C616-348C-440E-9E9C-07167A9097DF*
G04*
G04*
G04 #@! TF.FilePolarity,Positive*
G04*
G01*
G75*
%ADD10C,0.1000*%
%ADD11C,0.2000*%
%ADD12C,0.1524*%
%ADD13C,0.0000*%
%ADD14C,0.1500*%
%ADD15C,0.5000*%
%ADD16C,0.0900*%
%ADD17C,0.2540*%
G36*
X-103934Y487601D02*
X-107744D01*
Y490141D01*
X-103934D01*
Y487601D01*
D02*
G37*
G36*
X-152479Y467056D02*
X-155019D01*
Y470866D01*
X-152479D01*
Y467056D01*
D02*
G37*
G36*
X-68659Y455056D02*
X-71199D01*
Y458866D01*
X-68659D01*
Y455056D01*
D02*
G37*
G36*
X-152479Y427056D02*
X-155019D01*
Y430866D01*
X-152479D01*
Y427056D01*
D02*
G37*
G36*
X-107934Y403781D02*
X-111744D01*
Y406321D01*
X-107934D01*
Y403781D01*
D02*
G37*
G36*
X-35065Y183639D02*
X-34594D01*
Y182697D01*
X-34358D01*
Y182462D01*
X-34594D01*
Y182226D01*
X-34829D01*
Y181991D01*
X-35065D01*
Y181755D01*
X-35300D01*
Y181520D01*
X-34829D01*
Y181755D01*
X-34358D01*
Y181991D01*
X-33887D01*
Y181755D01*
X-34123D01*
Y181284D01*
X-34358D01*
Y181049D01*
X-34829D01*
Y180342D01*
X-35065D01*
Y180578D01*
X-35300D01*
Y179636D01*
X-35536D01*
Y179871D01*
X-35771D01*
Y178694D01*
X-36007D01*
Y177987D01*
X-36242D01*
Y177281D01*
X-36478D01*
Y177045D01*
X-36713D01*
Y176810D01*
X-36478D01*
Y176574D01*
X-36242D01*
Y175868D01*
X-36007D01*
Y176103D01*
X-35771D01*
Y175632D01*
X-35536D01*
Y176103D01*
X-35300D01*
Y176339D01*
X-34829D01*
Y176574D01*
X-34594D01*
Y177045D01*
X-34358D01*
Y177752D01*
X-33652D01*
Y177516D01*
X-32945D01*
Y177281D01*
X-32239D01*
Y177045D01*
X-31532D01*
Y176810D01*
X-31297D01*
Y176574D01*
X-30826D01*
Y176339D01*
X-30354D01*
Y175868D01*
X-30119D01*
Y175632D01*
X-29883D01*
Y175396D01*
X-29648D01*
Y175161D01*
X-29413D01*
Y174925D01*
X-29177D01*
Y174690D01*
X-28942D01*
Y174454D01*
X-28706D01*
Y173983D01*
X-28470D01*
Y173748D01*
X-28235D01*
Y173512D01*
X-27999D01*
Y173041D01*
X-27764D01*
Y172570D01*
X-27528D01*
Y172099D01*
X-27293D01*
Y171864D01*
X-27057D01*
Y171157D01*
X-26822D01*
Y171628D01*
X-26586D01*
Y171157D01*
X-26351D01*
Y170686D01*
X-26115D01*
Y170451D01*
X-25880D01*
Y169509D01*
X-25644D01*
Y168331D01*
X-25880D01*
Y168096D01*
X-26115D01*
Y167860D01*
X-26351D01*
Y167625D01*
X-25880D01*
Y167389D01*
X-26115D01*
Y167154D01*
X-26351D01*
Y166918D01*
X-26586D01*
Y166682D01*
X-27057D01*
Y166447D01*
X-27293D01*
Y166682D01*
X-27528D01*
Y167154D01*
X-27764D01*
Y167860D01*
X-27999D01*
Y168331D01*
X-28235D01*
Y169038D01*
X-28470D01*
Y169744D01*
X-28706D01*
Y170451D01*
X-28942D01*
Y171157D01*
X-29177D01*
Y171864D01*
X-29413D01*
Y172335D01*
X-29648D01*
Y173041D01*
X-29883D01*
Y173512D01*
X-30119D01*
Y173983D01*
X-30354D01*
Y174454D01*
X-30590D01*
Y174925D01*
X-30826D01*
Y175161D01*
X-31297D01*
Y175396D01*
X-31532D01*
Y175161D01*
X-31297D01*
Y174690D01*
X-31061D01*
Y174454D01*
X-30826D01*
Y174219D01*
X-31061D01*
Y173041D01*
X-30826D01*
Y172570D01*
X-30590D01*
Y172335D01*
X-30354D01*
Y172099D01*
X-30590D01*
Y171864D01*
X-30354D01*
Y171393D01*
X-30119D01*
Y170686D01*
X-29883D01*
Y169744D01*
X-29648D01*
Y169273D01*
X-29883D01*
Y168802D01*
X-29648D01*
Y168567D01*
X-29413D01*
Y168331D01*
X-29648D01*
Y167860D01*
X-29883D01*
Y168331D01*
X-30119D01*
Y167860D01*
X-29883D01*
Y167389D01*
X-30119D01*
Y166918D01*
X-29648D01*
Y165976D01*
X-29413D01*
Y165741D01*
X-29177D01*
Y165976D01*
X-28942D01*
Y166211D01*
X-28706D01*
Y165741D01*
X-28942D01*
Y165505D01*
X-29177D01*
Y165270D01*
X-28706D01*
Y165034D01*
X-28470D01*
Y164799D01*
X-28706D01*
Y165034D01*
X-28942D01*
Y164799D01*
X-28706D01*
Y164563D01*
X-28942D01*
Y164799D01*
X-29177D01*
Y164563D01*
X-28942D01*
Y164092D01*
X-28706D01*
Y163621D01*
X-28942D01*
Y163150D01*
X-28706D01*
Y162914D01*
X-28470D01*
Y162679D01*
X-28706D01*
Y162914D01*
X-28942D01*
Y162679D01*
X-29177D01*
Y162208D01*
X-29413D01*
Y162679D01*
X-29648D01*
Y162208D01*
X-29883D01*
Y161737D01*
X-29648D01*
Y161972D01*
X-28706D01*
Y162443D01*
X-28470D01*
Y161266D01*
X-28706D01*
Y161737D01*
X-28942D01*
Y161266D01*
X-28706D01*
Y160795D01*
X-28470D01*
Y161030D01*
X-28235D01*
Y160559D01*
X-27999D01*
Y160324D01*
X-27764D01*
Y160088D01*
X-28470D01*
Y159853D01*
X-28706D01*
Y159617D01*
X-28942D01*
Y159146D01*
X-28706D01*
Y159382D01*
X-28470D01*
Y159617D01*
X-28235D01*
Y159146D01*
D01*
D01*
X-27999D01*
Y158911D01*
X-27764D01*
Y158675D01*
X-27999D01*
Y157969D01*
X-27764D01*
Y157498D01*
X-27528D01*
Y157969D01*
X-27764D01*
Y158440D01*
X-27528D01*
Y157969D01*
X-27293D01*
Y158204D01*
X-27057D01*
Y157733D01*
X-27293D01*
Y157498D01*
X-26822D01*
Y156791D01*
X-26586D01*
Y157027D01*
X-26351D01*
Y156556D01*
X-26115D01*
Y156084D01*
X-25880D01*
Y155378D01*
X-25644D01*
Y155142D01*
X-25880D01*
Y154671D01*
X-26115D01*
Y154436D01*
X-25644D01*
Y154907D01*
X-25409D01*
Y155378D01*
X-25173D01*
Y155142D01*
X-24938D01*
Y154907D01*
X-25173D01*
Y154436D01*
X-24938D01*
Y153258D01*
X-24702D01*
Y153494D01*
X-24231D01*
Y153258D01*
X-24467D01*
Y153023D01*
X-24231D01*
Y152316D01*
X-24467D01*
Y152081D01*
X-23996D01*
Y152787D01*
X-23760D01*
Y152316D01*
X-23525D01*
Y152552D01*
X-23289D01*
Y151845D01*
X-22818D01*
Y151374D01*
X-22347D01*
Y151139D01*
X-22112D01*
Y150432D01*
X-21405D01*
Y150197D01*
X-21170D01*
Y149961D01*
X-20934D01*
Y149255D01*
D01*
D01*
X-20699D01*
Y148548D01*
X-20463D01*
Y149019D01*
X-20227D01*
Y148548D01*
X-19992D01*
Y147842D01*
X-19756D01*
Y146900D01*
X-19521D01*
Y147135D01*
X-19286D01*
Y146664D01*
X-19050D01*
Y145958D01*
X-18815D01*
Y145487D01*
X-18579D01*
Y145015D01*
X-18343D01*
Y144780D01*
X-18108D01*
Y144544D01*
X-17872D01*
Y144073D01*
X-17637D01*
Y143603D01*
X-17401D01*
Y143131D01*
X-17166D01*
Y142896D01*
X-17401D01*
Y142660D01*
X-16930D01*
Y142189D01*
X-16695D01*
Y141954D01*
X-16459D01*
Y141483D01*
X-16224D01*
Y141012D01*
X-15988D01*
Y140776D01*
X-15753D01*
Y140541D01*
X-15517D01*
Y140070D01*
X-15282D01*
Y139599D01*
X-15046D01*
Y139363D01*
X-14811D01*
Y139128D01*
X-14575D01*
Y138657D01*
X-14340D01*
Y138186D01*
X-14104D01*
Y137715D01*
X-13869D01*
Y137244D01*
X-13633D01*
Y137008D01*
X-13398D01*
Y136537D01*
X-13162D01*
Y136302D01*
X-12927D01*
Y135831D01*
X-12691D01*
Y135360D01*
X-12456D01*
Y135124D01*
X-12220D01*
Y134653D01*
X-11985D01*
Y134182D01*
X-11749D01*
Y133711D01*
X-11514D01*
Y133476D01*
X-11278D01*
Y133005D01*
X-11043D01*
Y132533D01*
X-10807D01*
Y131827D01*
X-10572D01*
Y131591D01*
X-10336D01*
Y131120D01*
X-10101D01*
Y130649D01*
X-9865D01*
Y129943D01*
X-9629D01*
Y129707D01*
X-9394D01*
Y129001D01*
X-9158D01*
Y128530D01*
X-8923D01*
Y128059D01*
X-8452D01*
Y127117D01*
X-8217D01*
Y126881D01*
X-7981D01*
Y126410D01*
X-7746D01*
Y126175D01*
X-7510D01*
Y125468D01*
X-7274D01*
Y124997D01*
X-7039D01*
Y124526D01*
X-6803D01*
Y124055D01*
X-6568D01*
Y123820D01*
X-6332D01*
Y123349D01*
X-6097D01*
Y122878D01*
X-5861D01*
Y122406D01*
X-5626D01*
Y122171D01*
X-5390D01*
Y121464D01*
X-5155D01*
Y120993D01*
X-4919D01*
Y120758D01*
X-4684D01*
Y120287D01*
X-4448D01*
Y120051D01*
X-4213D01*
Y119580D01*
X-3977D01*
Y118874D01*
X-3742D01*
Y118403D01*
X-3506D01*
Y117932D01*
X-3271D01*
Y117696D01*
X-3035D01*
Y117225D01*
X-2800D01*
Y116519D01*
X-2564D01*
Y116283D01*
X-2329D01*
Y115812D01*
X-2093D01*
Y115106D01*
X-1858D01*
Y114870D01*
X-1622D01*
Y114164D01*
X-1387D01*
Y113693D01*
X-1151D01*
Y113222D01*
X-916D01*
Y112751D01*
X-680D01*
Y112515D01*
X-445D01*
Y112044D01*
X-209D01*
Y111573D01*
X26D01*
Y111102D01*
X262D01*
Y110631D01*
X497D01*
Y110395D01*
X733D01*
Y110160D01*
X969D01*
Y109689D01*
X1204D01*
Y109453D01*
X1440D01*
Y108982D01*
X1675D01*
Y108747D01*
X1910D01*
Y108040D01*
X2146D01*
Y107569D01*
X2382D01*
Y106863D01*
X2617D01*
Y106392D01*
X2853D01*
Y105921D01*
X3088D01*
Y105450D01*
X3324D01*
Y104979D01*
X3559D01*
Y104508D01*
X3795D01*
Y104272D01*
X4030D01*
Y103801D01*
X4266D01*
Y103330D01*
X4501D01*
Y103095D01*
X4737D01*
Y102624D01*
X4972D01*
Y102153D01*
X5208D01*
Y101917D01*
X5443D01*
Y101446D01*
X5679D01*
Y100975D01*
X5914D01*
Y100504D01*
X6150D01*
Y100033D01*
X6385D01*
Y99562D01*
X6621D01*
Y99326D01*
X6856D01*
Y98855D01*
X7092D01*
Y98620D01*
X7327D01*
Y98149D01*
X7563D01*
Y97913D01*
X7798D01*
Y97678D01*
X8034D01*
Y97207D01*
X8269D01*
Y96971D01*
X8505D01*
Y96500D01*
X8740D01*
Y96265D01*
X8976D01*
Y95794D01*
X9211D01*
Y95323D01*
X9447D01*
Y94852D01*
X9682D01*
Y94616D01*
X9918D01*
Y94145D01*
X10153D01*
Y93674D01*
X10389D01*
Y93439D01*
X10624D01*
Y92968D01*
X10860D01*
Y92497D01*
X11095D01*
Y92025D01*
X11331D01*
Y91554D01*
X11566D01*
Y91083D01*
X11802D01*
Y90848D01*
X12038D01*
Y90377D01*
X12273D01*
Y89906D01*
X12508D01*
Y89670D01*
X12744D01*
Y89199D01*
X12980D01*
Y88728D01*
X13215D01*
Y88493D01*
X13451D01*
Y88022D01*
X13686D01*
Y87551D01*
X13922D01*
Y87080D01*
X14157D01*
Y86844D01*
X14393D01*
Y86373D01*
X14628D01*
Y85902D01*
X14864D01*
Y85431D01*
X15099D01*
Y85196D01*
X15335D01*
Y84725D01*
X15570D01*
Y84254D01*
X15806D01*
Y83783D01*
X16041D01*
Y83312D01*
X16277D01*
Y83076D01*
X16512D01*
Y82605D01*
X16748D01*
Y78130D01*
X16512D01*
Y77895D01*
X15335D01*
Y77659D01*
X14864D01*
Y77424D01*
X14393D01*
Y77188D01*
X14157D01*
Y76953D01*
X13922D01*
Y76717D01*
X13451D01*
Y76482D01*
X13215D01*
Y76246D01*
X12980D01*
Y76011D01*
X12744D01*
Y75775D01*
X-41188D01*
Y76011D01*
X-41424D01*
Y76717D01*
X-41659D01*
Y77188D01*
X-41895D01*
Y77659D01*
X-42130D01*
Y78366D01*
X-42366D01*
Y78837D01*
X-42601D01*
Y79308D01*
X-42837D01*
Y80014D01*
X-43072D01*
Y80485D01*
X-43308D01*
Y81192D01*
X-43543D01*
Y81663D01*
X-43779D01*
Y82369D01*
X-44014D01*
Y82841D01*
X-44250D01*
Y83547D01*
X-44485D01*
Y84018D01*
X-44721D01*
Y84725D01*
X-44956D01*
Y85196D01*
X-45192D01*
Y85902D01*
X-45427D01*
Y86373D01*
X-45663D01*
Y86844D01*
X-45898D01*
Y87315D01*
X-46134D01*
Y88022D01*
X-46369D01*
Y88493D01*
X-46605D01*
Y88964D01*
X-46840D01*
Y89435D01*
X-47076D01*
Y90141D01*
X-47311D01*
Y90612D01*
X-47547D01*
Y91083D01*
X-47782D01*
Y91554D01*
X-48018D01*
Y92025D01*
X-48253D01*
Y92732D01*
X-48489D01*
Y93203D01*
X-48724D01*
Y93674D01*
X-48960D01*
Y94145D01*
X-49195D01*
Y94616D01*
X-49431D01*
Y95087D01*
X-49666D01*
Y95558D01*
X-49902D01*
Y96265D01*
X-50138D01*
Y96736D01*
X-50373D01*
Y97442D01*
X-50609D01*
Y97913D01*
X-50844D01*
Y98384D01*
X-51080D01*
Y98855D01*
X-51315D01*
Y99562D01*
X-51550D01*
Y100033D01*
X-51786D01*
Y100739D01*
X-52022D01*
Y101210D01*
X-52257D01*
Y101917D01*
X-52493D01*
Y102388D01*
X-52728D01*
Y103095D01*
X-52964D01*
Y103566D01*
X-53199D01*
Y104272D01*
X-53435D01*
Y104979D01*
X-53670D01*
Y105685D01*
X-53906D01*
Y106156D01*
X-54141D01*
Y106863D01*
X-54377D01*
Y107569D01*
X-54612D01*
Y108276D01*
X-54848D01*
Y108982D01*
X-55083D01*
Y109689D01*
X-55319D01*
Y110395D01*
X-55554D01*
Y111102D01*
X-55790D01*
Y111573D01*
X-56025D01*
Y112280D01*
X-56261D01*
Y112986D01*
X-56496D01*
Y113457D01*
X-56732D01*
Y114164D01*
X-56967D01*
Y114870D01*
X-57203D01*
Y115577D01*
X-57438D01*
Y116283D01*
X-57674D01*
Y116990D01*
X-57909D01*
Y117696D01*
X-58145D01*
Y118403D01*
X-58380D01*
Y119109D01*
X-58616D01*
Y119816D01*
X-58851D01*
Y120522D01*
X-59087D01*
Y121464D01*
X-59322D01*
Y122406D01*
X-59558D01*
Y123584D01*
X-59794D01*
Y125468D01*
X-60029D01*
Y131827D01*
X-59794D01*
Y134417D01*
X-59558D01*
Y136537D01*
X-59322D01*
Y138892D01*
X-59087D01*
Y141718D01*
X-58851D01*
Y143838D01*
X-58616D01*
Y145487D01*
X-58380D01*
Y146900D01*
X-58145D01*
Y148548D01*
X-57909D01*
Y150197D01*
X-57674D01*
Y152552D01*
X-57438D01*
Y153965D01*
X-57674D01*
Y154200D01*
X-58616D01*
Y154436D01*
X-58851D01*
Y154671D01*
X-59087D01*
Y154907D01*
X-59322D01*
Y155142D01*
X-59558D01*
Y155613D01*
X-59794D01*
Y156084D01*
X-60029D01*
Y156556D01*
X-60265D01*
Y157262D01*
X-60500D01*
Y158675D01*
X-60736D01*
Y160324D01*
X-60971D01*
Y161266D01*
X-61206D01*
Y162208D01*
X-61442D01*
Y163621D01*
X-61677D01*
Y165976D01*
X-61442D01*
Y166682D01*
X-61206D01*
Y167154D01*
X-60971D01*
Y167860D01*
X-60736D01*
Y168331D01*
X-60500D01*
Y169038D01*
X-60265D01*
Y169509D01*
X-60029D01*
Y170215D01*
X-59794D01*
Y170686D01*
X-59558D01*
Y171157D01*
X-59322D01*
Y171864D01*
X-59087D01*
Y172335D01*
X-58851D01*
Y172806D01*
X-58616D01*
Y173277D01*
X-58380D01*
Y173748D01*
X-58145D01*
Y174454D01*
X-57909D01*
Y174925D01*
X-57674D01*
Y175632D01*
X-57438D01*
Y176339D01*
X-57203D01*
Y176810D01*
X-56967D01*
Y177281D01*
X-56732D01*
Y177516D01*
X-56496D01*
Y177752D01*
X-56261D01*
Y177987D01*
X-55790D01*
Y178223D01*
X-55083D01*
Y178458D01*
X-48724D01*
Y178223D01*
X-48018D01*
Y178458D01*
X-47782D01*
Y178223D01*
X-45898D01*
Y178458D01*
X-45663D01*
Y178694D01*
X-45427D01*
Y179165D01*
X-45192D01*
Y179636D01*
X-44956D01*
Y179871D01*
X-44721D01*
Y180107D01*
X-44485D01*
Y180342D01*
X-44250D01*
Y180578D01*
X-44014D01*
Y180813D01*
X-43308D01*
Y181049D01*
X-42130D01*
Y181284D01*
X-40953D01*
Y181520D01*
X-40482D01*
Y181755D01*
X-40010D01*
Y181991D01*
X-39539D01*
Y182226D01*
X-38833D01*
Y182462D01*
X-38597D01*
Y182697D01*
X-38362D01*
Y182933D01*
X-37891D01*
Y183168D01*
X-37655D01*
Y183404D01*
X-37184D01*
Y183639D01*
X-36713D01*
Y183875D01*
X-35065D01*
Y183639D01*
D02*
G37*
G36*
X-25644Y167625D02*
X-25880D01*
Y167860D01*
X-25644D01*
Y167625D01*
D02*
G37*
G36*
X-29413Y167389D02*
Y167154D01*
Y166918D01*
X-29648D01*
Y167625D01*
X-29413D01*
Y167389D01*
D02*
G37*
G36*
X-29177Y166211D02*
X-29413D01*
Y166447D01*
X-29177D01*
Y166211D01*
D02*
G37*
G36*
X-28235Y163856D02*
Y163621D01*
X-28470D01*
Y164092D01*
X-28235D01*
Y163856D01*
D02*
G37*
G36*
X-27764Y160795D02*
X-27999D01*
Y161030D01*
X-27764D01*
Y160795D01*
D02*
G37*
G36*
X-27528Y159617D02*
X-27764D01*
Y159853D01*
X-27528D01*
Y159617D01*
D02*
G37*
G36*
X-27057Y159382D02*
X-27293D01*
Y159617D01*
X-27057D01*
Y159382D01*
D02*
G37*
G36*
X-27764Y159146D02*
X-27999D01*
Y159617D01*
X-27764D01*
Y159146D01*
D02*
G37*
G36*
X-27057Y158911D02*
X-27293D01*
Y159146D01*
X-27057D01*
Y158911D01*
D02*
G37*
G36*
X-27293Y158440D02*
X-27528D01*
Y158675D01*
Y158911D01*
X-27293D01*
Y158440D01*
D02*
G37*
G36*
X-26586Y157498D02*
X-26822D01*
Y157733D01*
Y157969D01*
Y158204D01*
X-26586D01*
Y157498D01*
D02*
G37*
G36*
X-25409Y155613D02*
X-25644D01*
Y156084D01*
X-25409D01*
Y155613D01*
D02*
G37*
%LPC*%
G36*
X-36949Y177752D02*
X-37184D01*
Y177516D01*
X-36949D01*
Y177752D01*
D02*
G37*
G36*
X-36478Y175632D02*
X-36713D01*
Y175396D01*
X-36478D01*
Y175632D01*
D02*
G37*
G36*
X-38597Y174219D02*
X-38833D01*
Y173983D01*
X-38597D01*
Y174219D01*
D02*
G37*
G36*
X-37655Y175868D02*
X-37891D01*
Y175396D01*
X-37655D01*
Y174690D01*
Y174454D01*
Y173748D01*
X-37420D01*
Y173983D01*
X-37184D01*
Y175161D01*
X-37420D01*
Y175632D01*
X-37655D01*
Y175868D01*
D02*
G37*
G36*
X-39539Y173277D02*
X-39775D01*
Y173041D01*
Y172806D01*
X-39539D01*
Y172099D01*
X-39304D01*
Y171864D01*
X-39069D01*
Y172099D01*
X-39304D01*
Y172806D01*
X-39539D01*
Y173277D01*
D02*
G37*
G36*
X-39775Y172099D02*
X-40010D01*
Y171864D01*
X-39775D01*
Y172099D01*
D02*
G37*
G36*
X-30119Y170686D02*
X-30354D01*
Y170451D01*
X-30119D01*
Y170686D01*
D02*
G37*
G36*
X-37891Y170215D02*
X-38126D01*
Y169744D01*
X-37891D01*
Y169509D01*
X-37655D01*
X-37420Y169273D01*
Y169038D01*
X-37184D01*
Y168802D01*
X-36949D01*
Y168567D01*
X-36713D01*
Y169038D01*
X-36949D01*
Y169273D01*
X-37184D01*
Y169509D01*
X-37420D01*
Y169744D01*
X-37655D01*
Y169980D01*
X-37891D01*
Y170215D01*
D02*
G37*
G36*
X-36242Y168802D02*
X-36478D01*
Y168331D01*
X-36242Y168096D01*
X-36007D01*
Y167860D01*
X-36242D01*
Y167625D01*
X-36007D01*
Y167154D01*
X-35771D01*
Y167389D01*
X-35300D01*
Y167625D01*
X-35536D01*
Y167860D01*
X-35771D01*
Y168096D01*
X-36007D01*
Y168331D01*
X-36242D01*
Y168802D01*
D02*
G37*
G36*
X-30119Y166682D02*
X-30354D01*
Y166447D01*
X-30119D01*
Y166682D01*
D02*
G37*
G36*
X-35065Y166447D02*
X-35536D01*
Y166211D01*
X-35300D01*
Y165976D01*
X-35065D01*
Y166447D01*
D02*
G37*
G36*
X-34829Y167389D02*
X-35065D01*
Y167154D01*
X-35536D01*
Y166682D01*
X-35300D01*
Y166918D01*
X-35065D01*
Y166447D01*
X-34829D01*
Y165270D01*
X-35065D01*
Y165505D01*
X-35300D01*
Y165270D01*
X-35065D01*
Y164799D01*
X-34829D01*
Y164563D01*
X-34594D01*
Y164327D01*
X-34358D01*
Y164563D01*
X-34123D01*
Y164799D01*
X-33887D01*
Y164563D01*
X-33652D01*
Y164327D01*
X-33887D01*
Y163856D01*
X-33652D01*
Y164092D01*
X-33416D01*
Y163856D01*
X-33652D01*
Y163385D01*
X-33416D01*
Y162914D01*
X-33181D01*
Y163385D01*
X-33416D01*
Y163621D01*
X-32945D01*
Y164327D01*
X-32710Y164563D01*
Y165270D01*
X-32945D01*
Y164799D01*
Y164563D01*
X-33181D01*
Y165505D01*
X-33416D01*
Y165270D01*
X-33652D01*
Y165976D01*
X-33887D01*
Y166211D01*
X-34123D01*
Y166447D01*
X-34358D01*
Y166682D01*
X-34594D01*
Y167154D01*
X-34829D01*
Y167389D01*
D02*
G37*
G36*
X-35536Y165505D02*
X-35771D01*
Y165270D01*
X-35536D01*
Y165505D01*
D02*
G37*
G36*
X-29413D02*
X-29648D01*
Y164799D01*
X-29413D01*
Y165505D01*
D02*
G37*
G36*
X-30354Y165034D02*
X-30590D01*
Y164799D01*
X-30354D01*
Y165034D01*
D02*
G37*
G36*
X-29883Y164799D02*
X-30119D01*
Y164563D01*
X-29883D01*
Y164799D01*
D02*
G37*
G36*
X-35300Y165034D02*
X-35536D01*
Y164799D01*
X-35300D01*
Y164563D01*
X-35065D01*
Y164799D01*
X-35300D01*
Y165034D01*
D02*
G37*
G36*
X-31532Y164799D02*
X-31768D01*
Y164327D01*
X-31532D01*
Y164799D01*
D02*
G37*
G36*
X-29883Y164327D02*
X-30119D01*
Y164092D01*
X-29883D01*
Y164327D01*
D02*
G37*
G36*
X-32003Y164563D02*
X-32239D01*
Y164092D01*
X-32003D01*
Y164327D01*
Y164563D01*
D02*
G37*
G36*
X-32474Y164327D02*
X-32710D01*
Y164092D01*
X-32474D01*
Y164327D01*
D02*
G37*
G36*
X-35536Y164092D02*
X-35771D01*
Y163856D01*
X-35536D01*
Y164092D01*
D02*
G37*
G36*
X-29177Y164563D02*
X-29648D01*
Y164092D01*
X-29413D01*
Y163621D01*
X-29177D01*
Y164092D01*
X-29413D01*
Y164327D01*
X-29177D01*
Y164563D01*
D02*
G37*
G36*
X-29883Y163621D02*
X-30119D01*
Y163385D01*
X-29883D01*
Y163621D01*
D02*
G37*
G36*
X-34358D02*
X-34594D01*
Y163385D01*
X-34358D01*
Y163621D01*
D02*
G37*
G36*
X-29177Y163385D02*
X-29413D01*
Y162914D01*
X-29177D01*
Y163385D01*
D02*
G37*
G36*
X-29648Y163150D02*
X-29883D01*
Y162914D01*
X-29648D01*
Y163150D01*
D02*
G37*
G36*
X-32710Y163385D02*
X-32945D01*
Y163150D01*
Y162914D01*
X-32710D01*
Y162679D01*
X-32474D01*
Y162914D01*
X-32710D01*
Y163385D01*
D02*
G37*
G36*
X-29883Y162679D02*
X-30119D01*
Y162443D01*
X-29883D01*
Y162679D01*
D02*
G37*
G36*
X-32710D02*
X-32945D01*
Y162443D01*
X-32710D01*
Y162679D01*
D02*
G37*
G36*
Y162208D02*
X-32945D01*
Y161972D01*
X-32710D01*
Y162208D01*
D02*
G37*
G36*
X-33652Y162443D02*
X-33887D01*
Y161972D01*
X-33652D01*
Y162208D01*
Y162443D01*
D02*
G37*
G36*
X-30590Y161972D02*
X-30826D01*
Y161737D01*
X-30590D01*
Y161972D01*
D02*
G37*
G36*
X-31768D02*
X-32003D01*
Y161737D01*
X-31768D01*
Y161972D01*
D02*
G37*
G36*
X-32239D02*
X-32474D01*
Y161737D01*
X-32239D01*
Y161972D01*
D02*
G37*
G36*
X-34829D02*
X-35065D01*
Y161737D01*
X-34829D01*
Y161972D01*
D02*
G37*
G36*
X-33887Y161737D02*
X-34123D01*
Y161501D01*
X-33887D01*
Y161737D01*
D02*
G37*
G36*
X-32945Y161501D02*
X-33181D01*
Y161266D01*
X-32945D01*
Y161501D01*
D02*
G37*
G36*
X-29177Y160795D02*
X-29413D01*
Y160559D01*
X-29177D01*
Y160795D01*
D02*
G37*
G36*
X-32003D02*
X-32239D01*
Y160559D01*
X-32003D01*
Y160795D01*
D02*
G37*
G36*
X-28235Y160559D02*
X-28706D01*
Y160324D01*
X-28235D01*
Y160559D01*
D02*
G37*
G36*
Y159146D02*
X-28470D01*
Y158911D01*
X-28235D01*
Y159146D01*
D01*
D01*
D02*
G37*
G36*
Y158675D02*
X-28706D01*
Y158440D01*
X-28235D01*
Y158675D01*
D02*
G37*
G36*
Y157262D02*
X-28470D01*
Y157027D01*
X-28235D01*
Y157262D01*
D02*
G37*
G36*
X-27764Y157027D02*
X-27999D01*
Y156791D01*
X-27764D01*
Y157027D01*
D02*
G37*
G36*
X-27057Y157262D02*
X-27528D01*
Y157027D01*
X-27293D01*
Y156556D01*
X-27057D01*
Y156320D01*
X-26822D01*
Y156556D01*
X-27057D01*
Y157262D01*
D02*
G37*
G36*
X-26351Y156320D02*
X-26586D01*
Y155849D01*
X-26351D01*
Y156320D01*
D02*
G37*
G36*
X-26115Y155142D02*
X-26351D01*
Y154907D01*
X-26115D01*
Y155142D01*
D02*
G37*
G36*
X-25173Y154436D02*
X-25409D01*
Y154200D01*
X-25173D01*
Y154436D01*
D02*
G37*
G36*
X-24467Y153023D02*
X-24702D01*
Y152552D01*
X-24467D01*
Y153023D01*
D02*
G37*
G36*
X-24702Y152316D02*
X-24938D01*
Y152081D01*
X-24702D01*
Y152316D01*
D02*
G37*
G36*
X-23289Y151845D02*
X-23525D01*
Y151374D01*
X-23289D01*
Y151845D01*
D02*
G37*
G36*
X-23996Y151610D02*
X-24231D01*
Y151374D01*
X-23996D01*
Y151610D01*
D02*
G37*
G36*
X-24467D02*
X-24702D01*
Y151374D01*
X-24467D01*
Y151610D01*
D02*
G37*
G36*
X-22818Y151374D02*
X-23054D01*
Y151139D01*
X-22818D01*
Y151374D01*
D02*
G37*
G36*
X-23525D02*
X-23760D01*
Y151139D01*
X-23525D01*
Y151374D01*
D02*
G37*
G36*
X-21641Y149961D02*
X-21876D01*
Y149726D01*
X-21641D01*
Y149490D01*
X-21405D01*
Y149255D01*
X-21170D01*
Y149019D01*
X-20934D01*
Y149255D01*
D01*
D01*
X-21170D01*
Y149726D01*
X-21641D01*
Y149961D01*
D02*
G37*
G36*
X-21170Y148784D02*
X-21405D01*
Y148548D01*
X-21170D01*
Y148784D01*
D02*
G37*
G36*
X-20227Y148077D02*
X-20463D01*
Y147842D01*
X-20227D01*
Y147606D01*
X-19992D01*
Y147842D01*
X-20227D01*
Y148077D01*
D02*
G37*
G36*
X-18815Y145015D02*
X-19050D01*
Y144780D01*
X-18815D01*
Y145015D01*
D02*
G37*
G36*
X-18343Y144780D02*
X-18579D01*
Y144309D01*
X-18343D01*
Y144780D01*
D02*
G37*
G36*
X-38126Y136066D02*
X-38362D01*
Y134888D01*
X-38126D01*
Y132062D01*
X-38362D01*
Y131120D01*
X-38597D01*
Y129707D01*
X-38362D01*
Y129001D01*
X-38126D01*
Y128059D01*
X-37891D01*
Y127352D01*
X-37655D01*
Y126410D01*
X-37420D01*
Y125939D01*
X-37184D01*
Y125233D01*
X-36949D01*
Y124526D01*
X-36713D01*
Y124055D01*
X-36478D01*
Y123584D01*
X-36242D01*
Y123113D01*
X-36007D01*
Y122642D01*
X-35771D01*
Y122171D01*
X-35536D01*
Y121700D01*
X-35300D01*
Y121229D01*
X-35065D01*
Y120758D01*
X-34829D01*
Y120522D01*
X-34594D01*
Y120051D01*
X-34358D01*
Y119580D01*
X-34123D01*
Y119109D01*
X-33887D01*
Y118874D01*
X-33652D01*
Y118403D01*
X-33416D01*
Y118167D01*
Y117932D01*
X-33181D01*
Y117696D01*
X-32945D01*
Y117225D01*
X-32710D01*
Y116990D01*
X-32474D01*
Y116519D01*
X-32239D01*
Y116283D01*
X-32003D01*
Y115577D01*
X-31768D01*
Y115106D01*
X-31532D01*
Y114870D01*
X-31297D01*
Y114399D01*
X-31061D01*
Y113928D01*
X-30826D01*
Y113693D01*
X-30590D01*
Y113222D01*
X-30354D01*
Y112751D01*
X-30119D01*
Y112515D01*
X-29883D01*
Y112044D01*
X-29648D01*
Y111573D01*
X-29413D01*
Y111337D01*
X-29177D01*
Y110866D01*
X-28942D01*
Y110631D01*
X-28706D01*
Y110160D01*
X-28470D01*
Y109689D01*
X-28235D01*
Y109218D01*
X-27764D01*
Y108747D01*
X-27528D01*
Y108511D01*
X-27293D01*
Y108276D01*
X-27528D01*
Y108040D01*
X-27293D01*
Y107569D01*
X-27057D01*
Y107098D01*
X-26822D01*
Y106627D01*
X-26586D01*
Y106392D01*
X-26351D01*
Y106627D01*
X-26115D01*
Y106156D01*
X-26351D01*
Y105921D01*
X-26115D01*
Y105685D01*
X-25880D01*
Y105214D01*
X-25644D01*
Y104979D01*
X-25409D01*
Y104272D01*
X-24938D01*
Y104979D01*
X-25173D01*
Y105685D01*
X-24938D01*
Y106627D01*
X-25173D01*
Y107805D01*
X-25409D01*
Y109453D01*
X-25644D01*
Y110631D01*
X-25880D01*
Y111808D01*
X-26115D01*
Y112986D01*
X-26351D01*
Y114164D01*
X-26586D01*
Y115106D01*
X-26822D01*
Y115812D01*
X-27057D01*
Y116754D01*
X-27293D01*
Y117461D01*
X-27528D01*
Y118167D01*
X-27764D01*
Y118638D01*
X-27999D01*
Y119345D01*
X-28235D01*
Y119816D01*
X-28470D01*
Y120287D01*
X-28706D01*
Y120758D01*
X-28942D01*
Y121229D01*
X-29177D01*
Y121700D01*
X-29413D01*
Y122171D01*
X-29648D01*
Y122642D01*
X-29883D01*
Y123113D01*
X-30119D01*
Y123584D01*
X-30354D01*
Y124055D01*
X-30590D01*
Y124526D01*
X-30826D01*
Y124997D01*
X-31061D01*
Y125704D01*
X-31297D01*
Y126175D01*
X-31532D01*
Y126881D01*
X-31768D01*
Y127352D01*
X-32003D01*
Y127823D01*
X-32239D01*
Y128294D01*
X-32474D01*
Y128765D01*
X-32710D01*
Y129236D01*
X-32945D01*
Y129472D01*
X-33181D01*
Y129707D01*
X-33416D01*
Y129943D01*
X-33652D01*
Y130178D01*
X-34123D01*
Y130414D01*
X-34358D01*
Y130649D01*
X-34594D01*
Y130885D01*
X-34829D01*
Y131356D01*
X-35065D01*
Y131591D01*
X-35300D01*
Y131827D01*
X-35536D01*
Y132298D01*
X-35771D01*
Y132769D01*
X-36007D01*
Y133005D01*
X-36242D01*
Y133476D01*
X-36478D01*
Y133947D01*
X-36713D01*
Y134417D01*
X-36949D01*
Y134888D01*
X-37184D01*
Y135124D01*
X-37420D01*
Y135360D01*
X-37655D01*
Y135595D01*
X-37891D01*
Y135831D01*
X-38126D01*
Y136066D01*
D02*
G37*
%LPD*%
G36*
X-34594Y166447D02*
X-34829D01*
Y166682D01*
X-34594D01*
Y166447D01*
D02*
G37*
G36*
X-34123Y165505D02*
X-34358D01*
Y165741D01*
X-34123D01*
Y165505D01*
D02*
G37*
G36*
X-33652Y165034D02*
X-33416D01*
Y164563D01*
X-33652D01*
Y164799D01*
X-33887D01*
Y165270D01*
X-33652D01*
Y165034D01*
D02*
G37*
G36*
X-34594D02*
Y164799D01*
X-34358D01*
Y164563D01*
X-34594D01*
Y164799D01*
X-34829D01*
Y165270D01*
X-34594D01*
Y165034D01*
D02*
G37*
G36*
X-33181Y164092D02*
X-33416D01*
Y164327D01*
X-33181D01*
Y164092D01*
D02*
G37*
D10*
X-155010Y545190D02*
G03*
X-154010Y545190I500J0D01*
G01*
D02*
G03*
X-155010Y545190I-500J0D01*
G01*
X-19780Y273210D02*
X2220D01*
Y293210D01*
X220D02*
X2220D01*
X-37780D02*
X-13780D01*
X-37780Y273210D02*
Y293210D01*
Y273210D02*
X-35780D01*
D11*
X-37780Y257210D02*
G03*
X-35780Y257210I1000J0D01*
G01*
D02*
G03*
X-37780Y257210I-1000J0D01*
G01*
X-311420Y1015560D02*
G03*
X-311420Y1015560I-1000J0D01*
G01*
X-176010Y555290D02*
Y580090D01*
X-234910Y598690D02*
X-179110D01*
X-238010Y555290D02*
Y580090D01*
X-234910Y536690D02*
X-179110D01*
X102330Y482927D02*
X107662D01*
X104996D01*
Y474930D01*
X114326Y482927D02*
X111660D01*
X110327Y481594D01*
Y476263D01*
X111660Y474930D01*
X114326D01*
X115659Y476263D01*
Y481594D01*
X114326Y482927D01*
X118325D02*
Y476263D01*
X119658Y474930D01*
X122324D01*
X123656Y476263D01*
Y482927D01*
X131654Y481594D02*
X130321Y482927D01*
X127655D01*
X126322Y481594D01*
Y476263D01*
X127655Y474930D01*
X130321D01*
X131654Y476263D01*
X134320Y482927D02*
Y474930D01*
Y478928D01*
X139651D01*
Y482927D01*
Y474930D01*
X102330Y459200D02*
Y467197D01*
X104996Y464532D01*
X107662Y467197D01*
Y459200D01*
X115659Y467197D02*
X110327D01*
Y459200D01*
X115659D01*
X110327Y463199D02*
X112993D01*
X118325Y461866D02*
Y468530D01*
Y460533D02*
Y459200D01*
D12*
X95427Y458858D02*
G03*
X95427Y458858I-1016J0D01*
G01*
X-85520Y561876D02*
G03*
X-85520Y561876I-1270J0D01*
G01*
D13*
X3481Y318591D02*
G03*
X3481Y318591I-2500J0D01*
G01*
D14*
X346669Y376258D02*
Y501058D01*
X456669D01*
Y376258D02*
Y501058D01*
X321669Y356058D02*
X331669D01*
X326669Y351058D02*
Y361058D01*
X469169Y356058D02*
X479169D01*
X369169Y351058D02*
X434169D01*
X107290Y386610D02*
X113290D01*
Y357610D02*
Y386610D01*
X107290Y357610D02*
X113290D01*
X107290D02*
Y386610D01*
X91790Y388110D02*
X103790D01*
X57452Y427537D02*
Y438445D01*
X99870Y427537D02*
Y438445D01*
X78740Y398780D02*
X80010D01*
X78740Y375920D02*
Y398780D01*
Y375920D02*
X80010D01*
X87630D02*
X88900D01*
Y398780D01*
X87630D02*
X88900D01*
X78740Y387350D02*
X88900D01*
X-66440Y528470D02*
Y547970D01*
X-66540Y551470D02*
X61460D01*
Y619470D01*
X-66540D02*
X61460D01*
X-66540Y551470D02*
Y619470D01*
X-271940Y1010110D02*
Y1012110D01*
X-291940D02*
X-271940D01*
X-291940Y1010110D02*
Y1012110D01*
Y1002110D02*
Y1004110D01*
Y1002110D02*
X-271940D01*
Y1004110D01*
X-392420Y648060D02*
Y1008060D01*
Y648060D02*
X407580D01*
Y1008060D01*
X-392420D02*
X407580D01*
X25400Y454660D02*
X35560D01*
X34290Y466090D02*
X35560D01*
Y443230D02*
Y466090D01*
X34290Y443230D02*
X35560D01*
X25400D02*
X26670D01*
X25400D02*
Y466090D01*
X26670D01*
X22860Y441120D02*
Y444120D01*
X-34290Y441120D02*
X22860D01*
X-34290D02*
Y449580D01*
Y454660D02*
Y463120D01*
X22860D01*
Y460120D02*
Y463120D01*
X-6350Y441120D02*
Y463120D01*
Y452120D02*
X-1270Y448310D01*
X-6350Y452120D02*
X-1270Y455930D01*
X-8890Y452120D02*
X-6350D01*
X-1270D02*
X1270D01*
X-1270Y448310D02*
Y455930D01*
X-35560Y463120D02*
X-34290D01*
X-35560Y454660D02*
Y463120D01*
Y454660D02*
X-34290D01*
X-35560Y441120D02*
X-34290D01*
X-35560D02*
Y449580D01*
X-34290D01*
X-33020Y408940D02*
X-22860D01*
X-24130Y418940D02*
X-22860D01*
Y398940D02*
Y418940D01*
X-24130Y398940D02*
X-22860D01*
X-33020D02*
X-31750D01*
X-33020D02*
Y418940D01*
X-31750D01*
X48420Y460200D02*
Y462200D01*
X68420D01*
Y460200D02*
Y462200D01*
Y452200D02*
Y454200D01*
X48420Y452200D02*
X68420D01*
X48420D02*
Y454200D01*
X-256619Y1040051D02*
Y1041321D01*
X-279479D02*
X-256619D01*
X-279479Y1040051D02*
Y1041321D01*
Y1031161D02*
Y1032431D01*
Y1031161D02*
X-256619D01*
Y1032431D01*
X-268049Y1031161D02*
Y1041321D01*
X-280749Y1042591D02*
Y1043861D01*
X-303609D02*
X-280749D01*
X-303609Y1042591D02*
Y1043861D01*
Y1033701D02*
Y1034971D01*
Y1033701D02*
X-280749D01*
Y1034971D01*
X-292179Y1033701D02*
Y1043861D01*
X-269319Y1018461D02*
Y1019731D01*
X-280749Y1018461D02*
Y1028621D01*
X-269319Y1027351D02*
Y1028621D01*
X-292179D02*
X-269319D01*
X-292179Y1027351D02*
Y1028621D01*
Y1018461D02*
Y1019731D01*
Y1018461D02*
X-269319D01*
X-73200Y638650D02*
X-71200D01*
Y618650D02*
Y638650D01*
X-73200Y618650D02*
X-71200D01*
X-81200D02*
X-79200D01*
X-81200D02*
Y638650D01*
X-79200D01*
X-165020Y395720D02*
X-163020D01*
X-165020D02*
Y415720D01*
X-163020D01*
X-157020D02*
X-155020D01*
Y395720D02*
Y415720D01*
X-157020Y395720D02*
X-155020D01*
X-168450Y395130D02*
X-166450D01*
Y415130D01*
X-168450D02*
X-166450D01*
X-176450D02*
X-174450D01*
X-176450Y395130D02*
Y415130D01*
Y395130D02*
X-174450D01*
X35640Y346870D02*
X37640D01*
X35640D02*
Y366870D01*
X37640D01*
X43640D02*
X45640D01*
Y346870D02*
Y366870D01*
X43640Y346870D02*
X45640D01*
X150320Y387190D02*
X152320D01*
Y367190D02*
Y387190D01*
X150320Y367190D02*
X152320D01*
X142320D02*
X144320D01*
X142320D02*
Y387190D01*
X144320D01*
X138890D02*
X140890D01*
Y367190D02*
Y387190D01*
X138890Y367190D02*
X140890D01*
X130890D02*
X132890D01*
X130890D02*
Y387190D01*
X132890D01*
X128870Y389890D02*
Y400050D01*
X117440Y398780D02*
Y400050D01*
X140300D01*
Y398780D02*
Y400050D01*
Y389890D02*
Y391160D01*
X117440Y389890D02*
X140300D01*
X117440D02*
Y391160D01*
X167100Y345330D02*
X170100D01*
Y363330D01*
X167100D02*
X170100D01*
X160100Y345330D02*
X163100D01*
X160100D02*
Y363330D01*
X163100D01*
X160100Y354330D02*
X170100D01*
X77470Y356270D02*
X87630D01*
X77470Y344840D02*
X78740D01*
X77470D02*
Y367700D01*
X78740D01*
X86360D02*
X87630D01*
Y344840D02*
Y367700D01*
X86360Y344840D02*
X87630D01*
X170180Y363220D02*
Y373380D01*
X158750Y372110D02*
Y373380D01*
X181610D01*
Y372110D02*
Y373380D01*
Y363220D02*
Y364490D01*
X158750Y363220D02*
X181610D01*
X158750D02*
Y364490D01*
X58310Y356950D02*
Y359950D01*
Y356950D02*
X76310D01*
Y359950D01*
X58310Y363950D02*
Y366950D01*
X76310D01*
Y363950D02*
Y366950D01*
X67310Y356950D02*
Y366950D01*
X46990Y367030D02*
X57150D01*
X55880Y377030D02*
X57150D01*
Y357030D02*
Y377030D01*
X55880Y357030D02*
X57150D01*
X46990D02*
X48260D01*
X46990D02*
Y377030D01*
X48260D01*
X265840Y310410D02*
Y322410D01*
X280840Y337410D01*
X265840Y269410D02*
X280840Y254410D01*
X265840Y269410D02*
Y281410D01*
X280840Y337410D02*
X348840D01*
Y310410D02*
Y337410D01*
Y254410D02*
Y281410D01*
X280840Y254410D02*
X348840D01*
X284689Y395361D02*
Y397361D01*
X264689Y395361D02*
X284689D01*
X264689D02*
Y397361D01*
Y403361D02*
Y405361D01*
X284689D01*
Y403361D02*
Y405361D01*
X257140Y340360D02*
Y350520D01*
X268570Y340360D02*
Y341630D01*
X245710Y340360D02*
X268570D01*
X245710D02*
Y341630D01*
Y349250D02*
Y350520D01*
X268570D01*
Y349250D02*
Y350520D01*
X289990Y348440D02*
Y350440D01*
Y340440D02*
Y342440D01*
X269990Y340440D02*
X289990D01*
X269990D02*
Y342440D01*
Y348440D02*
Y350440D01*
X289990D01*
X290420Y421500D02*
X301420D01*
X290420Y384500D02*
Y421500D01*
Y384500D02*
X297920Y377000D01*
X301420D01*
X323536Y421303D02*
X334536D01*
Y384303D02*
Y421303D01*
X327036Y376803D02*
X334536Y384303D01*
X323536Y376803D02*
X327036D01*
X273650Y406400D02*
Y416560D01*
X262220Y415290D02*
Y416560D01*
X285080D01*
Y415290D02*
Y416560D01*
Y406400D02*
Y407670D01*
X262220Y406400D02*
X285080D01*
X262220D02*
Y407670D01*
X284241Y365761D02*
Y367761D01*
X264241Y365761D02*
X284241D01*
X264241D02*
Y367761D01*
Y373761D02*
Y375761D01*
X284241D01*
Y373761D02*
Y375761D01*
X265000Y391620D02*
Y393620D01*
X285000D01*
Y391620D02*
Y393620D01*
Y383620D02*
Y385620D01*
X265000Y383620D02*
X285000D01*
X265000D02*
Y385620D01*
X203502Y350822D02*
X245920D01*
X203502Y403400D02*
X245920D01*
X-61770Y404020D02*
X-59770D01*
Y424020D01*
X-61770D02*
X-59770D01*
X-69770D02*
X-67770D01*
X-69770Y404020D02*
Y424020D01*
Y404020D02*
X-67770D01*
X-14780Y427830D02*
X-12780D01*
Y407830D02*
Y427830D01*
X-14780Y407830D02*
X-12780D01*
X-22780D02*
X-20780D01*
X-22780D02*
Y427830D01*
X-20780D01*
X675790Y551420D02*
X687790D01*
X672290Y551920D02*
Y580920D01*
X666290D02*
X672290D01*
X666290Y551920D02*
Y580920D01*
Y551920D02*
X672290D01*
X645620Y541770D02*
X647620D01*
Y561770D01*
X645620D02*
X647620D01*
X637620D02*
X639620D01*
X637620Y541770D02*
Y561770D01*
Y541770D02*
X639620D01*
X-63119Y311231D02*
X-61119D01*
Y331231D01*
X-63119D02*
X-61119D01*
X-71119D02*
X-69119D01*
X-71119Y311231D02*
Y331231D01*
Y311231D02*
X-69119D01*
X-97268Y361371D02*
X-95268D01*
X-97268D02*
Y381371D01*
X-95268D01*
X-89268D02*
X-87268D01*
Y361371D02*
Y381371D01*
X-89268Y361371D02*
X-87268D01*
X-107870Y362110D02*
X-105870D01*
X-107870D02*
Y382110D01*
X-105870D01*
X-99870D02*
X-97870D01*
Y362110D02*
Y382110D01*
X-99870Y362110D02*
X-97870D01*
X-130810Y389890D02*
X-129540D01*
X-130810Y367030D02*
Y389890D01*
Y367030D02*
X-129540D01*
X-121920D02*
X-120650D01*
Y389890D01*
X-121920D02*
X-120650D01*
X-130810Y378460D02*
X-120650D01*
Y389890D02*
X-119380D01*
X-120650Y367030D02*
Y389890D01*
Y367030D02*
X-119380D01*
X-111760D02*
X-110490D01*
Y389890D01*
X-111760D02*
X-110490D01*
X-120650Y378460D02*
X-110490D01*
X-150970Y384890D02*
Y386890D01*
Y384890D02*
X-130970D01*
Y386890D01*
Y392890D02*
Y394890D01*
X-150970D02*
X-130970D01*
X-150970Y392890D02*
Y394890D01*
Y396320D02*
Y398320D01*
Y396320D02*
X-130970D01*
Y398320D01*
Y404320D02*
Y406320D01*
X-150970D02*
X-130970D01*
X-150970Y404320D02*
Y406320D01*
X-82710Y504270D02*
Y506270D01*
X-102710Y504270D02*
X-82710D01*
X-102710D02*
Y506270D01*
Y512270D02*
Y514270D01*
X-82710D01*
Y512270D02*
Y514270D01*
X-157020Y439260D02*
X-155020D01*
Y419260D02*
Y439260D01*
X-157020Y419260D02*
X-155020D01*
X-165020D02*
X-163020D01*
X-165020D02*
Y439260D01*
X-163020D01*
X-176450Y419260D02*
X-174450D01*
X-176450D02*
Y439260D01*
X-174450D01*
X-168450D02*
X-166450D01*
Y419260D02*
Y439260D01*
X-168450Y419260D02*
X-166450D01*
X-81623Y483283D02*
X-75517D01*
X-148161Y477177D02*
Y483283D01*
Y410639D02*
X-142055D01*
X-75517D02*
Y416745D01*
Y477177D02*
Y483283D01*
X-148161D02*
X-142055D01*
X-148161Y410639D02*
Y416745D01*
X-81623Y410639D02*
X-75517D01*
X-154480Y472280D02*
X-152480D01*
Y452280D02*
Y472280D01*
X-154480Y452280D02*
X-152480D01*
X-162480D02*
X-160480D01*
X-162480D02*
Y472280D01*
X-160480D01*
X-108760Y511650D02*
X-106760D01*
Y491650D02*
Y511650D01*
X-108760Y491650D02*
X-106760D01*
X-116760D02*
X-114760D01*
X-116760D02*
Y511650D01*
X-114760D01*
X-144320D02*
X-142320D01*
Y491650D02*
Y511650D01*
X-144320Y491650D02*
X-142320D01*
X-152320D02*
X-150320D01*
X-152320D02*
Y511650D01*
X-150320D01*
X-134160D02*
X-132160D01*
Y491650D02*
Y511650D01*
X-134160Y491650D02*
X-132160D01*
X-142160D02*
X-140160D01*
X-142160D02*
Y511650D01*
X-140160D01*
X-120190Y529430D02*
X-118190D01*
Y509430D02*
Y529430D01*
X-120190Y509430D02*
X-118190D01*
X-128190D02*
X-126190D01*
X-128190D02*
Y529430D01*
X-126190D01*
X6271Y326311D02*
X7541D01*
X6271Y303451D02*
Y326311D01*
Y303451D02*
X7541D01*
X6271Y314881D02*
X16431D01*
X15161Y303451D02*
X16431D01*
Y326311D01*
X15161D02*
X16431D01*
X17780Y314960D02*
Y316230D01*
Y314960D02*
X40640D01*
Y316230D01*
Y323850D02*
Y325120D01*
X17780D02*
X40640D01*
X17780Y323850D02*
Y325120D01*
X29210Y314960D02*
Y325120D01*
X-69850Y356870D02*
X-59690D01*
X-60960Y368300D02*
X-59690D01*
Y345440D02*
Y368300D01*
X-60960Y345440D02*
X-59690D01*
X-69850D02*
X-68580D01*
X-69850D02*
Y368300D01*
X-68580D01*
X88900Y406400D02*
Y407670D01*
Y406400D02*
X111760D01*
Y407670D01*
Y415290D02*
Y416560D01*
X88900D02*
X111760D01*
X88900Y415290D02*
Y416560D01*
X100330Y406400D02*
Y416560D01*
X128270Y435610D02*
X138430D01*
X137160Y447040D02*
X138430D01*
Y424180D02*
Y447040D01*
X137160Y424180D02*
X138430D01*
X128270D02*
X129540D01*
X128270D02*
Y447040D01*
X129540D01*
X114141Y426801D02*
Y446801D01*
X112141Y426801D02*
X114141D01*
X104141D02*
X106141D01*
X104141D02*
Y446801D01*
X106141D01*
X112141D02*
X114141D01*
X116841Y426801D02*
X118841D01*
X116841D02*
Y446801D01*
X118841D01*
X124841D02*
X126841D01*
Y426801D02*
Y446801D01*
X124841Y426801D02*
X126841D01*
X68420Y463630D02*
Y465630D01*
X48420Y463630D02*
X68420D01*
X48420D02*
Y465630D01*
Y471630D02*
Y473630D01*
X68420D01*
Y471630D02*
Y473630D01*
X-61770Y441530D02*
X-59770D01*
Y461530D01*
X-61770D02*
X-59770D01*
X-69770D02*
X-67770D01*
X-69770Y441530D02*
Y461530D01*
Y441530D02*
X-67770D01*
X78740Y463550D02*
X88900D01*
X78740Y452120D02*
X80010D01*
X78740D02*
Y474980D01*
X80010D01*
X87630D02*
X88900D01*
Y452120D02*
Y474980D01*
X87630Y452120D02*
X88900D01*
X-3019Y314091D02*
Y321591D01*
X-53019Y314091D02*
X-3019D01*
X-53019D02*
Y321591D01*
X-3019Y366591D02*
Y374091D01*
X-53019D02*
X-3019D01*
X-53019Y366591D02*
Y374091D01*
X637540Y580390D02*
X647700D01*
X646430Y591820D02*
X647700D01*
Y568960D02*
Y591820D01*
X646430Y568960D02*
X647700D01*
X637540D02*
X638810D01*
X637540D02*
Y591820D01*
X638810D01*
X724360Y584360D02*
X726360D01*
Y604360D01*
X724360D02*
X726360D01*
X716360D02*
X718360D01*
X716360Y584360D02*
Y604360D01*
Y584360D02*
X718360D01*
X708279Y604936D02*
Y621884D01*
X655701Y587121D02*
X708279D01*
X655701Y604936D02*
Y621884D01*
Y639699D02*
X708279D01*
X754761Y803991D02*
X756761D01*
Y823991D01*
X754761D02*
X756761D01*
X746761D02*
X748761D01*
X746761Y803991D02*
Y823991D01*
Y803991D02*
X748761D01*
X737410Y825717D02*
Y842665D01*
X684832Y807902D02*
X737410D01*
X684832Y825717D02*
Y842665D01*
Y860480D02*
X737410D01*
X723011Y1042751D02*
X725011D01*
Y1062751D01*
X723011D02*
X725011D01*
X715011D02*
X717011D01*
X715011Y1042751D02*
Y1062751D01*
Y1042751D02*
X717011D01*
X651812Y1100480D02*
X704390D01*
X651812Y1065717D02*
Y1082665D01*
Y1047902D02*
X704390D01*
Y1065717D02*
Y1082665D01*
X470281Y1192611D02*
X472281D01*
Y1212611D01*
X470281D02*
X472281D01*
X462281D02*
X464281D01*
X462281Y1192611D02*
Y1212611D01*
Y1192611D02*
X464281D01*
X452930Y1215717D02*
Y1232665D01*
X400352Y1197902D02*
X452930D01*
X400352Y1215717D02*
Y1232665D01*
Y1250480D02*
X452930D01*
X169291Y1059261D02*
X171291D01*
Y1079261D01*
X169291D02*
X171291D01*
X161291D02*
X163291D01*
X161291Y1059261D02*
Y1079261D01*
Y1059261D02*
X163291D01*
X99362Y1064562D02*
X151940D01*
X99362Y1082377D02*
Y1099325D01*
Y1117140D02*
X151940D01*
Y1082377D02*
Y1099325D01*
X-117729Y1059261D02*
X-115729D01*
Y1079261D01*
X-117729D02*
X-115729D01*
X-125729D02*
X-123729D01*
X-125729Y1059261D02*
Y1079261D01*
Y1059261D02*
X-123729D01*
X-136350Y1082377D02*
Y1099325D01*
X-188928Y1064562D02*
X-136350D01*
X-188928Y1082377D02*
Y1099325D01*
Y1117140D02*
X-136350D01*
X-458389Y1186181D02*
Y1188181D01*
Y1186181D02*
X-438389D01*
Y1188181D01*
Y1194181D02*
Y1196181D01*
X-458389D02*
X-438389D01*
X-458389Y1194181D02*
Y1196181D01*
X-442420Y1215727D02*
Y1232675D01*
X-494998Y1197912D02*
X-442420D01*
X-494998Y1215727D02*
Y1232675D01*
Y1250490D02*
X-442420D01*
X-726359Y1035051D02*
Y1037051D01*
Y1035051D02*
X-706359D01*
Y1037051D01*
Y1043051D02*
Y1045051D01*
X-726359D02*
X-706359D01*
X-726359Y1043051D02*
Y1045051D01*
X-710390Y1065717D02*
Y1082665D01*
X-762968Y1047902D02*
X-710390D01*
X-762968Y1065717D02*
Y1082665D01*
Y1100480D02*
X-710390D01*
X-723090Y825717D02*
Y842665D01*
X-775668Y807902D02*
X-723090D01*
X-775668Y825717D02*
Y842665D01*
Y860480D02*
X-723090D01*
X-707009Y802721D02*
X-705009D01*
Y822721D01*
X-707009D02*
X-705009D01*
X-715009D02*
X-713009D01*
X-715009Y802721D02*
Y822721D01*
Y802721D02*
X-713009D01*
X-653240Y605717D02*
Y622665D01*
X-705818Y587902D02*
X-653240D01*
X-705818Y605717D02*
Y622665D01*
Y640480D02*
X-653240D01*
X-265430Y572770D02*
X-264160D01*
Y595630D01*
X-265430D02*
X-264160D01*
X-274320D02*
X-273050D01*
X-274320Y572770D02*
Y595630D01*
Y572770D02*
X-273050D01*
X-274320Y584200D02*
X-264160D01*
X-645159Y583011D02*
X-643159D01*
X-645159D02*
Y603011D01*
X-643159D01*
X-637159D02*
X-635159D01*
Y583011D02*
Y603011D01*
X-637159Y583011D02*
X-635159D01*
X65000Y412898D02*
Y407900D01*
Y410399D01*
X68332D01*
Y412898D01*
Y407900D01*
X73331Y412898D02*
X69998D01*
Y407900D01*
X73331D01*
X69998Y410399D02*
X71664D01*
X74997Y407900D02*
Y412898D01*
X77496D01*
X78329Y412065D01*
Y410399D01*
X77496Y409566D01*
X74997D01*
X76663D02*
X78329Y407900D01*
X83327Y412898D02*
X79995D01*
Y407900D01*
X83327D01*
X79995Y410399D02*
X81661D01*
D15*
X51037Y171915D02*
X54845Y151920D01*
X51989Y171915D02*
X54845Y156681D01*
X58654Y171915D02*
X54845Y151920D01*
X58654Y171915D02*
X62463Y151920D01*
X59606Y171915D02*
X62463Y156681D01*
X66271Y171915D02*
X62463Y151920D01*
X48180Y171915D02*
X54845D01*
X63415D02*
X69128D01*
X74174D02*
X73222Y170963D01*
X74174Y170011D01*
X75127Y170963D01*
X74174Y171915D01*
Y165250D02*
Y151920D01*
X75127Y165250D02*
Y151920D01*
X71318Y165250D02*
X75127D01*
X71318Y151920D02*
X77983D01*
X87315D02*
X86362Y152872D01*
X85410Y155728D01*
Y171915D01*
X84458D01*
Y155728D01*
X85410Y152872D01*
X87315Y151920D01*
X89219D01*
X91123Y152872D01*
X92075Y154776D01*
X81601Y165250D02*
X89219D01*
X98169Y171915D02*
Y151920D01*
X99122Y171915D02*
Y151920D01*
Y162394D02*
X101026Y164298D01*
X103882Y165250D01*
X105787D01*
X108643Y164298D01*
X109595Y162394D01*
Y151920D01*
X105787Y165250D02*
X107691Y164298D01*
X108643Y162394D01*
Y151920D01*
X95313Y171915D02*
X99122D01*
X95313Y151920D02*
X101978D01*
X105787D02*
X112452D01*
X135876Y171915D02*
Y151920D01*
X136828Y171915D02*
Y151920D01*
X133019Y171915D02*
X139684D01*
X133019Y151920D02*
X147302D01*
Y157633D01*
X146349Y151920D01*
X155871Y165250D02*
X153015Y164298D01*
X151110Y162394D01*
X150158Y159537D01*
Y157633D01*
X151110Y154776D01*
X153015Y152872D01*
X155871Y151920D01*
X157776D01*
X160632Y152872D01*
X162537Y154776D01*
X163489Y157633D01*
Y159537D01*
X162537Y162394D01*
X160632Y164298D01*
X157776Y165250D01*
X155871D01*
X153967Y164298D01*
X152063Y162394D01*
X151110Y159537D01*
Y157633D01*
X152063Y154776D01*
X153967Y152872D01*
X155871Y151920D01*
X157776D02*
X159680Y152872D01*
X161584Y154776D01*
X162537Y157633D01*
Y159537D01*
X161584Y162394D01*
X159680Y164298D01*
X157776Y165250D01*
X168345D02*
X174058Y151920D01*
X169297Y165250D02*
X174058Y153824D01*
X179771Y165250D02*
X174058Y151920D01*
X166440Y165250D02*
X172153D01*
X175962D02*
X181675D01*
X185389Y159537D02*
X196815D01*
Y161441D01*
X195863Y163346D01*
X194911Y164298D01*
X193006Y165250D01*
X190150D01*
X187293Y164298D01*
X185389Y162394D01*
X184437Y159537D01*
Y157633D01*
X185389Y154776D01*
X187293Y152872D01*
X190150Y151920D01*
X192054D01*
X194911Y152872D01*
X196815Y154776D01*
X195863Y159537D02*
Y162394D01*
X194911Y164298D01*
X190150Y165250D02*
X188245Y164298D01*
X186341Y162394D01*
X185389Y159537D01*
Y157633D01*
X186341Y154776D01*
X188245Y152872D01*
X190150Y151920D01*
X200814D02*
X199862Y152872D01*
X200814Y153824D01*
X201766Y152872D01*
Y150968D01*
X200814Y149063D01*
X199862Y148111D01*
X55797Y134968D02*
X54845Y134016D01*
X55797Y133064D01*
X56750Y134016D01*
Y134968D01*
X55797Y135921D01*
X53893D01*
X51989Y134968D01*
X51037Y133064D01*
Y115925D01*
X53893Y135921D02*
X52941Y134968D01*
X51989Y133064D01*
Y115925D01*
X48180Y129255D02*
X55797D01*
X48180Y115925D02*
X54845D01*
X63034Y129255D02*
Y115925D01*
X63986Y129255D02*
Y115925D01*
Y123542D02*
X64938Y126399D01*
X66843Y128303D01*
X68747Y129255D01*
X71604D01*
X72556Y128303D01*
Y127351D01*
X71604Y126399D01*
X70651Y127351D01*
X71604Y128303D01*
X60177Y129255D02*
X63986D01*
X60177Y115925D02*
X66843D01*
X81316Y129255D02*
X78459Y128303D01*
X76555Y126399D01*
X75603Y123542D01*
Y121638D01*
X76555Y118781D01*
X78459Y116877D01*
X81316Y115925D01*
X83220D01*
X86077Y116877D01*
X87981Y118781D01*
X88933Y121638D01*
Y123542D01*
X87981Y126399D01*
X86077Y128303D01*
X83220Y129255D01*
X81316D01*
X79411Y128303D01*
X77507Y126399D01*
X76555Y123542D01*
Y121638D01*
X77507Y118781D01*
X79411Y116877D01*
X81316Y115925D01*
X83220D02*
X85125Y116877D01*
X87029Y118781D01*
X87981Y121638D01*
Y123542D01*
X87029Y126399D01*
X85125Y128303D01*
X83220Y129255D01*
X94741D02*
Y115925D01*
X95694Y129255D02*
Y115925D01*
Y126399D02*
X97598Y128303D01*
X100455Y129255D01*
X102359D01*
X105215Y128303D01*
X106168Y126399D01*
Y115925D01*
X102359Y129255D02*
X104263Y128303D01*
X105215Y126399D01*
Y115925D01*
X106168Y126399D02*
X108072Y128303D01*
X110928Y129255D01*
X112833D01*
X115689Y128303D01*
X116642Y126399D01*
Y115925D01*
X112833Y129255D02*
X114737Y128303D01*
X115689Y126399D01*
Y115925D01*
X91885Y129255D02*
X95694D01*
X91885Y115925D02*
X98550D01*
X102359D02*
X109024D01*
X112833D02*
X119498D01*
X121974D02*
X121022Y116877D01*
X121974Y117829D01*
X122926Y116877D01*
Y114973D01*
X121974Y113068D01*
X121022Y112116D01*
X51037Y99926D02*
Y79930D01*
X51989Y99926D02*
Y79930D01*
X48180Y99926D02*
X59606D01*
X62463Y98974D01*
X63415Y98021D01*
X64367Y96117D01*
Y94213D01*
X63415Y92308D01*
X62463Y91356D01*
X59606Y90404D01*
X51989D01*
X59606Y99926D02*
X61511Y98974D01*
X62463Y98021D01*
X63415Y96117D01*
Y94213D01*
X62463Y92308D01*
X61511Y91356D01*
X59606Y90404D01*
X48180Y79930D02*
X54845D01*
X56750Y90404D02*
X58654Y89452D01*
X59606Y88500D01*
X62463Y81834D01*
X63415Y80882D01*
X64367D01*
X65319Y81834D01*
X58654Y89452D02*
X59606Y87547D01*
X61511Y80882D01*
X62463Y79930D01*
X64367D01*
X65319Y81834D01*
Y82787D01*
X68842Y81834D02*
X67890Y80882D01*
X68842Y79930D01*
X69794Y80882D01*
X68842Y81834D01*
X76745Y99926D02*
Y79930D01*
X77698Y99926D02*
Y79930D01*
X73889Y99926D02*
X83411D01*
X86267Y98974D01*
X88172Y97069D01*
X89124Y95165D01*
X90076Y92308D01*
Y87547D01*
X89124Y84691D01*
X88172Y82787D01*
X86267Y80882D01*
X83411Y79930D01*
X73889D01*
X83411Y99926D02*
X85315Y98974D01*
X87219Y97069D01*
X88172Y95165D01*
X89124Y92308D01*
Y87547D01*
X88172Y84691D01*
X87219Y82787D01*
X85315Y80882D01*
X83411Y79930D01*
D16*
X346069Y507648D02*
X345569Y508148D01*
X344570D01*
X344070Y507648D01*
Y507148D01*
X344570Y506648D01*
X345569D01*
X346069Y506148D01*
Y505648D01*
X345569Y505148D01*
X344570D01*
X344070Y505648D01*
X347069Y505148D02*
X348069D01*
X347569D01*
Y508148D01*
X347069Y507648D01*
X191754Y402978D02*
X193754Y400979D01*
X191754D02*
X193754Y402978D01*
X191754Y401978D02*
X193754D01*
X192754Y400979D02*
Y402978D01*
X-64214Y422812D02*
X-66213Y424811D01*
X-64214D02*
X-66213Y422812D01*
X-64214Y423811D02*
X-66213D01*
X-65214Y424811D02*
Y422812D01*
X712089Y589712D02*
X710090Y591711D01*
X712089D02*
X710090Y589712D01*
X712089Y590712D02*
X710090D01*
X711089Y591711D02*
Y589712D01*
X741220Y810493D02*
X739221Y812492D01*
X741220D02*
X739221Y810493D01*
X741220Y811492D02*
X739221D01*
X740220Y812492D02*
Y810493D01*
X708200Y1050493D02*
X706201Y1052492D01*
X708200D02*
X706201Y1050493D01*
X708200Y1051492D02*
X706201D01*
X707200Y1052492D02*
Y1050493D01*
X456740Y1200493D02*
X454741Y1202492D01*
X456740D02*
X454741Y1200493D01*
X456740Y1201492D02*
X454741D01*
X455740Y1202492D02*
Y1200493D01*
X155750Y1067153D02*
X153751Y1069152D01*
X155750D02*
X153751Y1067153D01*
X155750Y1068152D02*
X153751D01*
X154750Y1069152D02*
Y1067153D01*
X-132540D02*
X-134539Y1069152D01*
X-132540D02*
X-134539Y1067153D01*
X-132540Y1068152D02*
X-134539D01*
X-133540Y1069152D02*
Y1067153D01*
X-438610Y1200503D02*
X-440609Y1202502D01*
X-438610D02*
X-440609Y1200503D01*
X-438610Y1201503D02*
X-440609D01*
X-439610Y1202502D02*
Y1200503D01*
X-706580Y1050493D02*
X-708579Y1052492D01*
X-706580D02*
X-708579Y1050493D01*
X-706580Y1051492D02*
X-708579D01*
X-707580Y1052492D02*
Y1050493D01*
X-719280Y810493D02*
X-721279Y812492D01*
X-719280D02*
X-721279Y810493D01*
X-719280Y811492D02*
X-721279D01*
X-720280Y812492D02*
Y810493D01*
X-649430Y590493D02*
X-651429Y592492D01*
X-649430D02*
X-651429Y590493D01*
X-649430Y591493D02*
X-651429D01*
X-650430Y592492D02*
Y590493D01*
X-69929Y654684D02*
X-68929D01*
X-69429D01*
Y651685D01*
X-69929D01*
X-68929D01*
X-65430Y654184D02*
X-65930Y654684D01*
X-66930D01*
X-67430Y654184D01*
Y652185D01*
X-66930Y651685D01*
X-65930D01*
X-65430Y652185D01*
X-64431Y654684D02*
X-62431D01*
Y654184D01*
X-64431Y652185D01*
Y651685D01*
X-392796Y1026548D02*
X-393296Y1027048D01*
X-394295D01*
X-394795Y1026548D01*
Y1026048D01*
X-394295Y1025548D01*
X-393296D01*
X-392796Y1025049D01*
Y1024549D01*
X-393296Y1024049D01*
X-394295D01*
X-394795Y1024549D01*
X-389797Y1026548D02*
X-390296Y1027048D01*
X-391296D01*
X-391796Y1026548D01*
Y1024549D01*
X-391296Y1024049D01*
X-390296D01*
X-389797Y1024549D01*
X-388797Y1023549D02*
X-386798D01*
X-385798Y1024049D02*
X-384798D01*
X-385298D01*
Y1027048D01*
X-385798Y1026548D01*
X-25359Y392700D02*
Y395699D01*
X-23860D01*
X-23360Y395200D01*
Y394200D01*
X-23860Y393700D01*
X-25359D01*
X-24360D02*
X-23360Y392700D01*
X-22360Y391701D02*
Y394700D01*
X-20861D01*
X-20361Y394200D01*
Y393200D01*
X-20861Y392700D01*
X-22360D01*
X46801Y380000D02*
Y382999D01*
X48301D01*
X48801Y382500D01*
Y381500D01*
X48301Y381000D01*
X46801D01*
X47801D02*
X48801Y380000D01*
X49800Y379001D02*
Y382000D01*
X51300D01*
X51800Y381500D01*
Y380500D01*
X51300Y380000D01*
X49800D01*
X54799D02*
X52799D01*
X54799Y382000D01*
Y382500D01*
X54299Y382999D01*
X53299D01*
X52799Y382500D01*
X92312Y390930D02*
Y393929D01*
X93812D01*
X94312Y393430D01*
Y392430D01*
X93812Y391930D01*
X92312D01*
X93312D02*
X94312Y390930D01*
X95311Y393929D02*
Y390930D01*
X96811D01*
X97311Y391430D01*
Y391930D01*
Y392430D01*
X96811Y392930D01*
X95311D01*
X98310Y390930D02*
X99310D01*
X98810D01*
Y392930D01*
X98310D01*
X101309D02*
X102309D01*
X102809Y392430D01*
Y390930D01*
X101309D01*
X100809Y391430D01*
X101309Y391930D01*
X102809D01*
X103808Y390930D02*
X105308D01*
X105808Y391430D01*
X105308Y391930D01*
X104308D01*
X103808Y392430D01*
X104308Y392930D01*
X105808D01*
X90583Y346730D02*
Y349729D01*
X92083D01*
X92583Y349230D01*
Y348230D01*
X92083Y347730D01*
X90583D01*
X91583D02*
X92583Y346730D01*
X93582Y349729D02*
Y346730D01*
X95082D01*
X95582Y347230D01*
Y347730D01*
Y348230D01*
X95082Y348730D01*
X93582D01*
X96581Y346730D02*
X97581D01*
X97081D01*
Y348730D01*
X96581D01*
X99580D02*
X100580D01*
X101080Y348230D01*
Y346730D01*
X99580D01*
X99080Y347230D01*
X99580Y347730D01*
X101080D01*
X102079Y346730D02*
X103579D01*
X104079Y347230D01*
X103579Y347730D01*
X102579D01*
X102079Y348230D01*
X102579Y348730D01*
X104079D01*
X105078Y346231D02*
X107078D01*
X110077Y346730D02*
X108077D01*
X110077Y348730D01*
Y349230D01*
X109577Y349729D01*
X108577D01*
X108077Y349230D01*
X116761Y407083D02*
Y410082D01*
X118260D01*
X118760Y409582D01*
Y408582D01*
X118260Y408083D01*
X116761D01*
X117761D02*
X118760Y407083D01*
X119760D02*
X120760D01*
X120260D01*
Y410082D01*
X119760Y409582D01*
X122259Y410082D02*
X124259D01*
Y409582D01*
X122259Y407583D01*
Y407083D01*
X109281Y393929D02*
X110281D01*
X109781D01*
Y390930D01*
X109281D01*
X110281D01*
X113780Y393430D02*
X113280Y393929D01*
X112280D01*
X111780Y393430D01*
Y391430D01*
X112280Y390930D01*
X113280D01*
X113780Y391430D01*
X114779Y393430D02*
X115279Y393929D01*
X116279D01*
X116779Y393430D01*
Y392930D01*
X116279Y392430D01*
X116779Y391930D01*
Y391430D01*
X116279Y390930D01*
X115279D01*
X114779Y391430D01*
Y391930D01*
X115279Y392430D01*
X114779Y392930D01*
Y393430D01*
X115279Y392430D02*
X116279D01*
X-23360Y433979D02*
X-23860Y434479D01*
X-24859D01*
X-25359Y433979D01*
Y431980D01*
X-24859Y431480D01*
X-23860D01*
X-23360Y431980D01*
X-22360Y430481D02*
Y433480D01*
X-20861D01*
X-20361Y432980D01*
Y431980D01*
X-20861Y431480D01*
X-22360D01*
X47531Y346940D02*
X47031Y347439D01*
X46031D01*
X45531Y346940D01*
Y344940D01*
X46031Y344440D01*
X47031D01*
X47531Y344940D01*
X48530Y343441D02*
Y346440D01*
X50030D01*
X50530Y345940D01*
Y344940D01*
X50030Y344440D01*
X48530D01*
X53529D02*
X51529D01*
X53529Y346440D01*
Y346940D01*
X53029Y347439D01*
X52029D01*
X51529Y346940D01*
X133891Y364220D02*
X133391Y364720D01*
X132391D01*
X131891Y364220D01*
Y362220D01*
X132391Y361721D01*
X133391D01*
X133891Y362220D01*
X136890Y364720D02*
X134890D01*
Y363220D01*
X135890Y363720D01*
X136390D01*
X136890Y363220D01*
Y362220D01*
X136390Y361721D01*
X135390D01*
X134890Y362220D01*
X137889Y364720D02*
X139889D01*
Y364220D01*
X137889Y362220D01*
Y361721D01*
X145321Y364220D02*
X144821Y364720D01*
X143821D01*
X143321Y364220D01*
Y362220D01*
X143821Y361721D01*
X144821D01*
X145321Y362220D01*
X148320Y364720D02*
X146320D01*
Y363220D01*
X147320Y363720D01*
X147820D01*
X148320Y363220D01*
Y362220D01*
X147820Y361721D01*
X146820D01*
X146320Y362220D01*
X151319Y364720D02*
X150319Y364220D01*
X149319Y363220D01*
Y362220D01*
X149819Y361721D01*
X150819D01*
X151319Y362220D01*
Y362720D01*
X150819Y363220D01*
X149319D01*
X61501Y354060D02*
X61001Y354560D01*
X60001D01*
X59501Y354060D01*
Y352060D01*
X60001Y351561D01*
X61001D01*
X61501Y352060D01*
X64500Y354560D02*
X62500D01*
Y353060D01*
X63500Y353560D01*
X64000D01*
X64500Y353060D01*
Y352060D01*
X64000Y351561D01*
X63000D01*
X62500Y352060D01*
X67499Y354560D02*
X65499D01*
Y353060D01*
X66499Y353560D01*
X66999D01*
X67499Y353060D01*
Y352060D01*
X66999Y351561D01*
X65999D01*
X65499Y352060D01*
X-76700Y615680D02*
X-77200Y616180D01*
X-78199D01*
X-78699Y615680D01*
Y613680D01*
X-78199Y613181D01*
X-77200D01*
X-76700Y613680D01*
X-75700Y613181D02*
X-74201D01*
X-73701Y613680D01*
X-74201Y614180D01*
X-75200D01*
X-75700Y614680D01*
X-75200Y615180D01*
X-73701D01*
X631460Y544920D02*
X630961Y544420D01*
Y543421D01*
X631460Y542921D01*
X633460D01*
X633960Y543421D01*
Y544420D01*
X633460Y544920D01*
X630961Y545920D02*
X633960D01*
Y547419D01*
X633460Y547919D01*
X632960D01*
X632460D01*
X631960Y547419D01*
Y545920D01*
X636311Y563651D02*
Y566650D01*
X637810D01*
X638310Y566150D01*
Y565150D01*
X637810Y564650D01*
X636311D01*
X637310D02*
X638310Y563651D01*
X639310Y566650D02*
Y563651D01*
X640809D01*
X641309Y564150D01*
Y564650D01*
Y565150D01*
X640809Y565650D01*
X639310D01*
X104992Y400070D02*
Y403069D01*
X106491D01*
X106991Y402570D01*
Y401570D01*
X106491Y401070D01*
X104992D01*
X105991D02*
X106991Y400070D01*
X107991Y399571D02*
X109990D01*
X112989Y402570D02*
X112489Y403069D01*
X111490D01*
X110990Y402570D01*
Y402070D01*
X111490Y401570D01*
X112489D01*
X112989Y401070D01*
Y400570D01*
X112489Y400070D01*
X111490D01*
X110990Y400570D01*
X113989Y403069D02*
Y400070D01*
X115488D01*
X115988Y400570D01*
Y402570D01*
X115488Y403069D01*
X113989D01*
X78661Y482775D02*
Y485774D01*
X80161D01*
X80660Y485274D01*
Y484274D01*
X80161Y483775D01*
X78661D01*
X79661D02*
X80660Y482775D01*
X81660Y482275D02*
X83659D01*
X86658Y485274D02*
X86159Y485774D01*
X85159D01*
X84659Y485274D01*
Y484774D01*
X85159Y484274D01*
X86159D01*
X86658Y483775D01*
Y483275D01*
X86159Y482775D01*
X85159D01*
X84659Y483275D01*
X89657Y485274D02*
X89158Y485774D01*
X88158D01*
X87658Y485274D01*
Y483275D01*
X88158Y482775D01*
X89158D01*
X89657Y483275D01*
X-69929Y376095D02*
Y379094D01*
X-68429D01*
X-67930Y378594D01*
Y377594D01*
X-68429Y377095D01*
X-69929D01*
X-68929D02*
X-67930Y376095D01*
X-66930Y375595D02*
X-64931D01*
X-61932Y376595D02*
Y378594D01*
X-62431Y379094D01*
X-63431D01*
X-63931Y378594D01*
Y376595D01*
X-63431Y376095D01*
X-62431D01*
X-62931Y377095D02*
X-61932Y376095D01*
X-62431D02*
X-61932Y376595D01*
X-60932Y376095D02*
Y379094D01*
X-59432D01*
X-58932Y378594D01*
Y377594D01*
X-59432Y377095D01*
X-60932D01*
X649031Y546329D02*
X650031D01*
X649531D01*
Y543330D01*
X649031D01*
X650031D01*
X653530Y545830D02*
X653030Y546329D01*
X652030D01*
X651530Y545830D01*
Y543830D01*
X652030Y543330D01*
X653030D01*
X653530Y543830D01*
X656529Y546329D02*
X655529Y545830D01*
X654529Y544830D01*
Y543830D01*
X655029Y543330D01*
X656029D01*
X656529Y543830D01*
Y544330D01*
X656029Y544830D01*
X654529D01*
X244610Y248650D02*
X244110Y249149D01*
X243111D01*
X242611Y248650D01*
Y246650D01*
X243111Y246150D01*
X244110D01*
X244610Y246650D01*
X247609Y249149D02*
X245610D01*
Y246150D01*
X247609D01*
X245610Y247650D02*
X246609D01*
X-162019Y478520D02*
X-162519Y479020D01*
X-163519D01*
X-164019Y478520D01*
Y476520D01*
X-163519Y476021D01*
X-162519D01*
X-162019Y476520D01*
X-159020Y476021D02*
X-161020D01*
X-159020Y478020D01*
Y478520D01*
X-159520Y479020D01*
X-160520D01*
X-161020Y478520D01*
X-158021D02*
X-157521Y479020D01*
X-156521D01*
X-156021Y478520D01*
Y478020D01*
X-156521Y477520D01*
X-157021D01*
X-156521D01*
X-156021Y477020D01*
Y476520D01*
X-156521Y476021D01*
X-157521D01*
X-158021Y476520D01*
X28001Y437920D02*
Y440919D01*
X29501D01*
X30001Y440420D01*
Y439420D01*
X29501Y438920D01*
X28001D01*
X29001D02*
X30001Y437920D01*
X31000D02*
X32000D01*
X31500D01*
Y440919D01*
X31000Y440420D01*
X35499Y437920D02*
X33499D01*
X35499Y439920D01*
Y440420D01*
X34999Y440919D01*
X33999D01*
X33499Y440420D01*
X189192Y409090D02*
Y406591D01*
X189692Y406091D01*
X190691D01*
X191191Y406591D01*
Y409090D01*
X192191Y408591D02*
X192691Y409090D01*
X193690D01*
X194190Y408591D01*
Y408091D01*
X193690Y407591D01*
X193190D01*
X193690D01*
X194190Y407091D01*
Y406591D01*
X193690Y406091D01*
X192691D01*
X192191Y406591D01*
X47031Y448540D02*
Y446040D01*
X47531Y445541D01*
X48530D01*
X49030Y446040D01*
Y448540D01*
X52029Y445541D02*
X50030D01*
X52029Y447540D01*
Y448040D01*
X51529Y448540D01*
X50530D01*
X50030Y448040D01*
X-155669Y485369D02*
Y482870D01*
X-155169Y482370D01*
X-154170D01*
X-153670Y482870D01*
Y485369D01*
X-152670Y482370D02*
X-151671D01*
X-152170D01*
Y485369D01*
X-152670Y484870D01*
X-272989Y566190D02*
Y569189D01*
X-271489D01*
X-270989Y568690D01*
Y567690D01*
X-271489Y567190D01*
X-272989D01*
X-271989D02*
X-270989Y566190D01*
X-269990D02*
X-268990D01*
X-269490D01*
Y569189D01*
X-269990Y568690D01*
X-267491D02*
X-266991Y569189D01*
X-265991D01*
X-265491Y568690D01*
Y568190D01*
X-265991Y567690D01*
X-266491D01*
X-265991D01*
X-265491Y567190D01*
Y566690D01*
X-265991Y566190D01*
X-266991D01*
X-267491Y566690D01*
X247541Y335051D02*
Y338050D01*
X249041D01*
X249540Y337550D01*
Y336550D01*
X249041Y336050D01*
X247541D01*
X248541D02*
X249540Y335051D01*
X250540D02*
X251540D01*
X251040D01*
Y338050D01*
X250540Y337550D01*
X253039Y335051D02*
X254039D01*
X253539D01*
Y338050D01*
X253039Y337550D01*
X263551Y418871D02*
Y421870D01*
X265051D01*
X265551Y421370D01*
Y420370D01*
X265051Y419870D01*
X263551D01*
X264551D02*
X265551Y418871D01*
X266550D02*
X267550D01*
X267050D01*
Y421870D01*
X266550Y421370D01*
X269049D02*
X269549Y421870D01*
X270549D01*
X271049Y421370D01*
Y419370D01*
X270549Y418871D01*
X269549D01*
X269049Y419370D01*
Y421370D01*
X158791Y375690D02*
Y378689D01*
X160290D01*
X160790Y378190D01*
Y377190D01*
X160290Y376690D01*
X158791D01*
X159790D02*
X160790Y375690D01*
X161790Y376190D02*
X162290Y375690D01*
X163289D01*
X163789Y376190D01*
Y378190D01*
X163289Y378689D01*
X162290D01*
X161790Y378190D01*
Y377690D01*
X162290Y377190D01*
X163789D01*
X140740Y446999D02*
X143740D01*
Y445500D01*
X143240Y445000D01*
X142240D01*
X141740Y445500D01*
Y446999D01*
Y445999D02*
X140740Y445000D01*
X143240Y444000D02*
X143740Y443500D01*
Y442501D01*
X143240Y442001D01*
X142740D01*
X142240Y442501D01*
X141740Y442001D01*
X141240D01*
X140740Y442501D01*
Y443500D01*
X141240Y444000D01*
X141740D01*
X142240Y443500D01*
X142740Y444000D01*
X143240D01*
X142240Y443500D02*
Y442501D01*
X-276184Y1045201D02*
Y1048201D01*
X-274685D01*
X-274185Y1047701D01*
Y1046701D01*
X-274685Y1046201D01*
X-276184D01*
X-275184D02*
X-274185Y1045201D01*
X-273185Y1048201D02*
X-271186D01*
Y1047701D01*
X-273185Y1045701D01*
Y1045201D01*
X-302219Y1025930D02*
Y1028930D01*
X-300720D01*
X-300220Y1028430D01*
Y1027430D01*
X-300720Y1026930D01*
X-302219D01*
X-301220D02*
X-300220Y1025930D01*
X-297221Y1028930D02*
X-298221Y1028430D01*
X-299220Y1027430D01*
Y1026430D01*
X-298720Y1025930D01*
X-297721D01*
X-297221Y1026430D01*
Y1026930D01*
X-297721Y1027430D01*
X-299220D01*
X-303489Y1047521D02*
Y1050519D01*
X-301990D01*
X-301490Y1050020D01*
Y1049020D01*
X-301990Y1048520D01*
X-303489D01*
X-302489D02*
X-301490Y1047521D01*
X-298491Y1050519D02*
X-300490D01*
Y1049020D01*
X-299491Y1049520D01*
X-298991D01*
X-298491Y1049020D01*
Y1048020D01*
X-298991Y1047521D01*
X-299990D01*
X-300490Y1048020D01*
X42951Y322539D02*
X45950D01*
Y321040D01*
X45450Y320540D01*
X44450D01*
X43950Y321040D01*
Y322539D01*
Y321539D02*
X42951Y320540D01*
Y318041D02*
X45950D01*
X44450Y319540D01*
Y317541D01*
X8852Y328621D02*
Y331620D01*
X10351D01*
X10851Y331121D01*
Y330121D01*
X10351Y329621D01*
X8852D01*
X9851D02*
X10851Y328621D01*
X11851Y331121D02*
X12351Y331620D01*
X13350D01*
X13850Y331121D01*
Y330621D01*
X13350Y330121D01*
X12851D01*
X13350D01*
X13850Y329621D01*
Y329121D01*
X13350Y328621D01*
X12351D01*
X11851Y329121D01*
X-126959Y392201D02*
Y395200D01*
X-125460D01*
X-124960Y394700D01*
Y393700D01*
X-125460Y393200D01*
X-126959D01*
X-125960D02*
X-124960Y392201D01*
X-121961D02*
X-123960D01*
X-121961Y394200D01*
Y394700D01*
X-122461Y395200D01*
X-123460D01*
X-123960Y394700D01*
X-117569Y392201D02*
Y395200D01*
X-116070D01*
X-115570Y394700D01*
Y393700D01*
X-116070Y393200D01*
X-117569D01*
X-116570D02*
X-115570Y392201D01*
X-114570D02*
X-113571D01*
X-114071D01*
Y395200D01*
X-114570Y394700D01*
X-707408Y647850D02*
Y644852D01*
X-705408D01*
X-704409D02*
X-703409D01*
X-703909D01*
Y647850D01*
X-704409Y647351D01*
X-701909D02*
X-701410Y647850D01*
X-700410D01*
X-699910Y647351D01*
Y645351D01*
X-700410Y644852D01*
X-701410D01*
X-701909Y645351D01*
Y647351D01*
X-776008Y867561D02*
Y864561D01*
X-774009D01*
X-773009Y865061D02*
X-772509Y864561D01*
X-771510D01*
X-771010Y865061D01*
Y867061D01*
X-771510Y867561D01*
X-772509D01*
X-773009Y867061D01*
Y866561D01*
X-772509Y866061D01*
X-771010D01*
X-764578Y1106320D02*
Y1103322D01*
X-762579D01*
X-761579Y1105821D02*
X-761079Y1106320D01*
X-760080D01*
X-759580Y1105821D01*
Y1105321D01*
X-760080Y1104821D01*
X-759580Y1104321D01*
Y1103821D01*
X-760080Y1103322D01*
X-761079D01*
X-761579Y1103821D01*
Y1104321D01*
X-761079Y1104821D01*
X-761579Y1105321D01*
Y1105821D01*
X-761079Y1104821D02*
X-760080D01*
X-496608Y1257450D02*
Y1254452D01*
X-494609D01*
X-493609Y1257450D02*
X-491610D01*
Y1256951D01*
X-493609Y1254951D01*
Y1254452D01*
X-190538Y1125370D02*
Y1122372D01*
X-188539D01*
X-185540Y1125370D02*
X-186539Y1124871D01*
X-187539Y1123871D01*
Y1122871D01*
X-187039Y1122372D01*
X-186040D01*
X-185540Y1122871D01*
Y1123371D01*
X-186040Y1123871D01*
X-187539D01*
X97752Y1124100D02*
Y1121102D01*
X99751D01*
X102750Y1124100D02*
X100751D01*
Y1122601D01*
X101750Y1123101D01*
X102250D01*
X102750Y1122601D01*
Y1121601D01*
X102250Y1121102D01*
X101251D01*
X100751Y1121601D01*
X398742Y1257450D02*
Y1254452D01*
X400741D01*
X403240D02*
Y1257450D01*
X401741Y1255951D01*
X403740D01*
X650202Y1108860D02*
Y1105862D01*
X652201D01*
X653201Y1108361D02*
X653701Y1108860D01*
X654700D01*
X655200Y1108361D01*
Y1107861D01*
X654700Y1107361D01*
X654201D01*
X654700D01*
X655200Y1106861D01*
Y1106361D01*
X654700Y1105862D01*
X653701D01*
X653201Y1106361D01*
X681952Y868830D02*
Y865832D01*
X683951D01*
X686950D02*
X684951D01*
X686950Y867831D01*
Y868331D01*
X686450Y868830D01*
X685451D01*
X684951Y868331D01*
X653321Y646659D02*
Y643661D01*
X655320D01*
X656320D02*
X657319D01*
X656820D01*
Y646659D01*
X656320Y646160D01*
X70420Y276660D02*
X71420D01*
X70920D01*
Y279160D01*
X71420Y279660D01*
X71919D01*
X72419Y279160D01*
X69420Y277160D02*
X68920Y276660D01*
X67921D01*
X67421Y277160D01*
Y277660D01*
X67921Y278160D01*
X68421D01*
X67921D01*
X67421Y278660D01*
Y279160D01*
X67921Y279660D01*
X68920D01*
X69420Y279160D01*
X-83759Y551409D02*
X-82759D01*
X-83259D01*
Y548410D01*
X-83759D01*
X-82759D01*
X-79260Y550910D02*
X-79760Y551409D01*
X-80760D01*
X-81260Y550910D01*
Y548910D01*
X-80760Y548410D01*
X-79760D01*
X-79260Y548910D01*
X-76761Y548410D02*
Y551409D01*
X-78261Y549910D01*
X-76261D01*
X-55898Y381151D02*
X-54898D01*
X-55398D01*
Y378152D01*
X-55898D01*
X-54898D01*
X-51399Y380651D02*
X-51899Y381151D01*
X-52899D01*
X-53399Y380651D01*
Y378651D01*
X-52899Y378152D01*
X-51899D01*
X-51399Y378651D01*
X-48400Y381151D02*
X-50399D01*
Y379651D01*
X-49400Y380151D01*
X-48900D01*
X-48400Y379651D01*
Y378651D01*
X-48900Y378152D01*
X-49900D01*
X-50399Y378651D01*
X-32979Y468859D02*
Y465860D01*
X-31480D01*
X-30980Y466360D01*
Y468360D01*
X-31480Y468859D01*
X-32979D01*
X-27981Y465860D02*
X-29980D01*
X-27981Y467860D01*
Y468360D01*
X-28481Y468859D01*
X-29480D01*
X-29980Y468360D01*
X290679Y427519D02*
X290180Y428018D01*
X289180D01*
X288680Y427519D01*
Y425519D01*
X289180Y425019D01*
X290180D01*
X290679Y425519D01*
X293678Y428018D02*
X291679D01*
Y426519D01*
X292679Y427019D01*
X293179D01*
X293678Y426519D01*
Y425519D01*
X293179Y425019D01*
X292179D01*
X291679Y425519D01*
X294678Y425019D02*
X295678D01*
X295178D01*
Y428018D01*
X294678Y427519D01*
X285021Y362950D02*
X284521Y363450D01*
X283521D01*
X283021Y362950D01*
Y360950D01*
X283521Y360451D01*
X284521D01*
X285021Y360950D01*
X288020Y363450D02*
X286020D01*
Y361950D01*
X287020Y362450D01*
X287520D01*
X288020Y361950D01*
Y360950D01*
X287520Y360451D01*
X286520D01*
X286020Y360950D01*
X289019Y362950D02*
X289519Y363450D01*
X290519D01*
X291019Y362950D01*
Y360950D01*
X290519Y360451D01*
X289519D01*
X289019Y360950D01*
Y362950D01*
X166041Y343290D02*
X165541Y343789D01*
X164541D01*
X164041Y343290D01*
Y341290D01*
X164541Y340790D01*
X165541D01*
X166041Y341290D01*
X168540Y340790D02*
Y343789D01*
X167040Y342290D01*
X169040D01*
X170039Y341290D02*
X170539Y340790D01*
X171539D01*
X172039Y341290D01*
Y343290D01*
X171539Y343789D01*
X170539D01*
X170039Y343290D01*
Y342790D01*
X170539Y342290D01*
X172039D01*
X286291Y379460D02*
X285791Y379959D01*
X284791D01*
X284291Y379460D01*
Y377460D01*
X284791Y376960D01*
X285791D01*
X286291Y377460D01*
X288790Y376960D02*
Y379959D01*
X287290Y378460D01*
X289290D01*
X290289Y379460D02*
X290789Y379959D01*
X291789D01*
X292289Y379460D01*
Y378960D01*
X291789Y378460D01*
X292289Y377960D01*
Y377460D01*
X291789Y376960D01*
X290789D01*
X290289Y377460D01*
Y377960D01*
X290789Y378460D01*
X290289Y378960D01*
Y379460D01*
X290789Y378460D02*
X291789D01*
X278671Y355330D02*
X278171Y355830D01*
X277171D01*
X276671Y355330D01*
Y353330D01*
X277171Y352831D01*
X278171D01*
X278671Y353330D01*
X281170Y352831D02*
Y355830D01*
X279670Y354330D01*
X281670D01*
X282669Y355830D02*
X284669D01*
Y355330D01*
X282669Y353330D01*
Y352831D01*
X277401Y421370D02*
X276901Y421870D01*
X275901D01*
X275401Y421370D01*
Y419370D01*
X275901Y418871D01*
X276901D01*
X277401Y419370D01*
X279900Y418871D02*
Y421870D01*
X278400Y420370D01*
X280400D01*
X283399Y421870D02*
X282399Y421370D01*
X281399Y420370D01*
Y419370D01*
X281899Y418871D01*
X282899D01*
X283399Y419370D01*
Y419870D01*
X282899Y420370D01*
X281399D01*
X71390Y465361D02*
X70890Y464861D01*
Y463861D01*
X71390Y463361D01*
X73390D01*
X73889Y463861D01*
Y464861D01*
X73390Y465361D01*
X73889Y467860D02*
X70890D01*
X72390Y466360D01*
Y468360D01*
X70890Y471359D02*
Y469359D01*
X72390D01*
X71890Y470359D01*
Y470859D01*
X72390Y471359D01*
X73390D01*
X73889Y470859D01*
Y469859D01*
X73390Y469359D01*
X71390Y455201D02*
X70890Y454701D01*
Y453701D01*
X71390Y453201D01*
X73390D01*
X73889Y453701D01*
Y454701D01*
X73390Y455201D01*
X73889Y457700D02*
X70890D01*
X72390Y456200D01*
Y458200D01*
X73889Y460699D02*
X70890D01*
X72390Y459199D01*
Y461199D01*
X119842Y451771D02*
X119342Y452271D01*
X118342D01*
X117842Y451771D01*
Y449771D01*
X118342Y449272D01*
X119342D01*
X119842Y449771D01*
X122341Y449272D02*
Y452271D01*
X120841Y450771D01*
X122841D01*
X123840Y451771D02*
X124340Y452271D01*
X125340D01*
X125840Y451771D01*
Y451271D01*
X125340Y450771D01*
X124840D01*
X125340D01*
X125840Y450271D01*
Y449771D01*
X125340Y449272D01*
X124340D01*
X123840Y449771D01*
X107142Y451771D02*
X106642Y452271D01*
X105642D01*
X105142Y451771D01*
Y449771D01*
X105642Y449272D01*
X106642D01*
X107142Y449771D01*
X109641Y449272D02*
Y452271D01*
X108141Y450771D01*
X110141D01*
X113140Y449272D02*
X111140D01*
X113140Y451271D01*
Y451771D01*
X112640Y452271D01*
X111640D01*
X111140Y451771D01*
X-294869Y1017000D02*
X-295369Y1017499D01*
X-296369D01*
X-296869Y1017000D01*
Y1015000D01*
X-296369Y1014501D01*
X-295369D01*
X-294869Y1015000D01*
X-292370Y1014501D02*
Y1017499D01*
X-293870Y1016000D01*
X-291870D01*
X-290871Y1014501D02*
X-289871D01*
X-290371D01*
Y1017499D01*
X-290871Y1017000D01*
X-642986Y612274D02*
X-643485Y612774D01*
X-644485D01*
X-644985Y612274D01*
Y610275D01*
X-644485Y609775D01*
X-643485D01*
X-642986Y610275D01*
X-640486Y609775D02*
Y612774D01*
X-641986Y611274D01*
X-639987D01*
X-638987Y612274D02*
X-638487Y612774D01*
X-637487D01*
X-636987Y612274D01*
Y610275D01*
X-637487Y609775D01*
X-638487D01*
X-638987Y610275D01*
Y612274D01*
X-712008Y828961D02*
X-712508Y829461D01*
X-713508D01*
X-714008Y828961D01*
Y826961D01*
X-713508Y826461D01*
X-712508D01*
X-712008Y826961D01*
X-711009Y828961D02*
X-710509Y829461D01*
X-709509D01*
X-709009Y828961D01*
Y828461D01*
X-709509Y827961D01*
X-710009D01*
X-709509D01*
X-709009Y827461D01*
Y826961D01*
X-709509Y826461D01*
X-710509D01*
X-711009Y826961D01*
X-708010D02*
X-707510Y826461D01*
X-706510D01*
X-706010Y826961D01*
Y828961D01*
X-706510Y829461D01*
X-707510D01*
X-708010Y828961D01*
Y828461D01*
X-707510Y827961D01*
X-706010D01*
X-710659Y1032240D02*
X-711159Y1032739D01*
X-712159D01*
X-712659Y1032240D01*
Y1030240D01*
X-712159Y1029741D01*
X-711159D01*
X-710659Y1030240D01*
X-709660Y1032240D02*
X-709160Y1032739D01*
X-708160D01*
X-707660Y1032240D01*
Y1031740D01*
X-708160Y1031240D01*
X-708660D01*
X-708160D01*
X-707660Y1030740D01*
Y1030240D01*
X-708160Y1029741D01*
X-709160D01*
X-709660Y1030240D01*
X-706661Y1032240D02*
X-706161Y1032739D01*
X-705161D01*
X-704661Y1032240D01*
Y1031740D01*
X-705161Y1031240D01*
X-704661Y1030740D01*
Y1030240D01*
X-705161Y1029741D01*
X-706161D01*
X-706661Y1030240D01*
Y1030740D01*
X-706161Y1031240D01*
X-706661Y1031740D01*
Y1032240D01*
X-706161Y1031240D02*
X-705161D01*
X-449118Y1183291D02*
X-449618Y1183791D01*
X-450618D01*
X-451118Y1183291D01*
Y1181291D01*
X-450618Y1180791D01*
X-449618D01*
X-449118Y1181291D01*
X-448119Y1183291D02*
X-447619Y1183791D01*
X-446619D01*
X-446119Y1183291D01*
Y1182791D01*
X-446619Y1182291D01*
X-447119D01*
X-446619D01*
X-446119Y1181791D01*
Y1181291D01*
X-446619Y1180791D01*
X-447619D01*
X-448119Y1181291D01*
X-445120Y1183791D02*
X-443120D01*
Y1183291D01*
X-445120Y1181291D01*
Y1180791D01*
X-121458Y1084231D02*
X-121958Y1084731D01*
X-122958D01*
X-123458Y1084231D01*
Y1082231D01*
X-122958Y1081731D01*
X-121958D01*
X-121458Y1082231D01*
X-120459Y1084231D02*
X-119959Y1084731D01*
X-118959D01*
X-118459Y1084231D01*
Y1083731D01*
X-118959Y1083231D01*
X-119459D01*
X-118959D01*
X-118459Y1082731D01*
Y1082231D01*
X-118959Y1081731D01*
X-119959D01*
X-120459Y1082231D01*
X-115460Y1084731D02*
X-116460Y1084231D01*
X-117460Y1083231D01*
Y1082231D01*
X-116960Y1081731D01*
X-115960D01*
X-115460Y1082231D01*
Y1082731D01*
X-115960Y1083231D01*
X-117460D01*
X164292Y1084231D02*
X163792Y1084731D01*
X162792D01*
X162292Y1084231D01*
Y1082231D01*
X162792Y1081731D01*
X163792D01*
X164292Y1082231D01*
X165291Y1084231D02*
X165791Y1084731D01*
X166791D01*
X167291Y1084231D01*
Y1083731D01*
X166791Y1083231D01*
X166291D01*
X166791D01*
X167291Y1082731D01*
Y1082231D01*
X166791Y1081731D01*
X165791D01*
X165291Y1082231D01*
X170290Y1084731D02*
X168290D01*
Y1083231D01*
X169290Y1083731D01*
X169790D01*
X170290Y1083231D01*
Y1082231D01*
X169790Y1081731D01*
X168790D01*
X168290Y1082231D01*
X464012Y1220121D02*
X463512Y1220620D01*
X462512D01*
X462012Y1220121D01*
Y1218121D01*
X462512Y1217622D01*
X463512D01*
X464012Y1218121D01*
X465011Y1220121D02*
X465511Y1220620D01*
X466511D01*
X467011Y1220121D01*
Y1219621D01*
X466511Y1219121D01*
X466011D01*
X466511D01*
X467011Y1218621D01*
Y1218121D01*
X466511Y1217622D01*
X465511D01*
X465011Y1218121D01*
X469510Y1217622D02*
Y1220620D01*
X468010Y1219121D01*
X470010D01*
X718012Y1068991D02*
X717512Y1069491D01*
X716512D01*
X716012Y1068991D01*
Y1066991D01*
X716512Y1066491D01*
X717512D01*
X718012Y1066991D01*
X719011Y1068991D02*
X719511Y1069491D01*
X720511D01*
X721011Y1068991D01*
Y1068491D01*
X720511Y1067991D01*
X720011D01*
X720511D01*
X721011Y1067491D01*
Y1066991D01*
X720511Y1066491D01*
X719511D01*
X719011Y1066991D01*
X722010Y1068991D02*
X722510Y1069491D01*
X723510D01*
X724010Y1068991D01*
Y1068491D01*
X723510Y1067991D01*
X723010D01*
X723510D01*
X724010Y1067491D01*
Y1066991D01*
X723510Y1066491D01*
X722510D01*
X722010Y1066991D01*
X749762Y830231D02*
X749262Y830731D01*
X748262D01*
X747762Y830231D01*
Y828231D01*
X748262Y827731D01*
X749262D01*
X749762Y828231D01*
X750761Y830231D02*
X751261Y830731D01*
X752261D01*
X752761Y830231D01*
Y829731D01*
X752261Y829231D01*
X751761D01*
X752261D01*
X752761Y828731D01*
Y828231D01*
X752261Y827731D01*
X751261D01*
X750761Y828231D01*
X755760Y827731D02*
X753760D01*
X755760Y829731D01*
Y830231D01*
X755260Y830731D01*
X754260D01*
X753760Y830231D01*
X718590Y610600D02*
X718091Y611100D01*
X717091D01*
X716591Y610600D01*
Y608600D01*
X717091Y608101D01*
X718091D01*
X718590Y608600D01*
X719590Y610600D02*
X720090Y611100D01*
X721090D01*
X721590Y610600D01*
Y610100D01*
X721090Y609600D01*
X720590D01*
X721090D01*
X721590Y609100D01*
Y608600D01*
X721090Y608101D01*
X720090D01*
X719590Y608600D01*
X722589Y608101D02*
X723589D01*
X723089D01*
Y611100D01*
X722589Y610600D01*
X-130269Y534400D02*
X-130769Y534899D01*
X-131769D01*
X-132269Y534400D01*
Y532400D01*
X-131769Y531900D01*
X-130769D01*
X-130269Y532400D01*
X-129270Y534400D02*
X-128770Y534899D01*
X-127770D01*
X-127270Y534400D01*
Y533900D01*
X-127770Y533400D01*
X-128270D01*
X-127770D01*
X-127270Y532900D01*
Y532400D01*
X-127770Y531900D01*
X-128770D01*
X-129270Y532400D01*
X-126271Y534400D02*
X-125771Y534899D01*
X-124771D01*
X-124271Y534400D01*
Y532400D01*
X-124771Y531900D01*
X-125771D01*
X-126271Y532400D01*
Y534400D01*
X-87089Y501380D02*
X-87589Y501880D01*
X-88589D01*
X-89089Y501380D01*
Y499380D01*
X-88589Y498881D01*
X-87589D01*
X-87089Y499380D01*
X-84090Y498881D02*
X-86090D01*
X-84090Y500880D01*
Y501380D01*
X-84590Y501880D01*
X-85590D01*
X-86090Y501380D01*
X-83091Y499380D02*
X-82591Y498881D01*
X-81591D01*
X-81091Y499380D01*
Y501380D01*
X-81591Y501880D01*
X-82591D01*
X-83091Y501380D01*
Y500880D01*
X-82591Y500380D01*
X-81091D01*
X-68118Y336201D02*
X-68618Y336701D01*
X-69618D01*
X-70118Y336201D01*
Y334201D01*
X-69618Y333702D01*
X-68618D01*
X-68118Y334201D01*
X-65119Y333702D02*
X-67119D01*
X-65119Y335701D01*
Y336201D01*
X-65619Y336701D01*
X-66619D01*
X-67119Y336201D01*
X-64120D02*
X-63620Y336701D01*
X-62620D01*
X-62120Y336201D01*
Y335701D01*
X-62620Y335201D01*
X-62120Y334701D01*
Y334201D01*
X-62620Y333702D01*
X-63620D01*
X-64120Y334201D01*
Y334701D01*
X-63620Y335201D01*
X-64120Y335701D01*
Y336201D01*
X-63620Y335201D02*
X-62620D01*
X-139159Y516620D02*
X-139659Y517119D01*
X-140659D01*
X-141159Y516620D01*
Y514620D01*
X-140659Y514120D01*
X-139659D01*
X-139159Y514620D01*
X-136160Y514120D02*
X-138160D01*
X-136160Y516120D01*
Y516620D01*
X-136660Y517119D01*
X-137660D01*
X-138160Y516620D01*
X-133161Y517119D02*
X-134161Y516620D01*
X-135161Y515620D01*
Y514620D01*
X-134661Y514120D01*
X-133661D01*
X-133161Y514620D01*
Y515120D01*
X-133661Y515620D01*
X-135161D01*
X-160749Y510270D02*
X-161249Y510770D01*
X-162249D01*
X-162749Y510270D01*
Y508270D01*
X-162249Y507771D01*
X-161249D01*
X-160749Y508270D01*
X-157750Y507771D02*
X-159750D01*
X-157750Y509770D01*
Y510270D01*
X-158250Y510770D01*
X-159250D01*
X-159750Y510270D01*
X-156751Y510770D02*
X-154751D01*
Y510270D01*
X-156751Y508270D01*
Y507771D01*
X-156939Y387080D02*
X-157439Y387579D01*
X-158439D01*
X-158939Y387080D01*
Y385080D01*
X-158439Y384580D01*
X-157439D01*
X-156939Y385080D01*
X-153940Y384580D02*
X-155940D01*
X-153940Y386580D01*
Y387080D01*
X-154440Y387579D01*
X-155440D01*
X-155940Y387080D01*
X-150941Y387579D02*
X-152941D01*
Y386080D01*
X-151941Y386580D01*
X-151441D01*
X-150941Y386080D01*
Y385080D01*
X-151441Y384580D01*
X-152441D01*
X-152941Y385080D01*
X-141699Y382000D02*
X-142199Y382500D01*
X-143199D01*
X-143699Y382000D01*
Y380000D01*
X-143199Y379501D01*
X-142199D01*
X-141699Y380000D01*
X-138700Y379501D02*
X-140700D01*
X-138700Y381500D01*
Y382000D01*
X-139200Y382500D01*
X-140200D01*
X-140700Y382000D01*
X-136201Y379501D02*
Y382500D01*
X-137701Y381000D01*
X-135701D01*
X-64229Y401050D02*
X-64729Y401549D01*
X-65729D01*
X-66229Y401050D01*
Y399050D01*
X-65729Y398550D01*
X-64729D01*
X-64229Y399050D01*
X-61230Y398550D02*
X-63230D01*
X-61230Y400550D01*
Y401050D01*
X-61730Y401549D01*
X-62730D01*
X-63230Y401050D01*
X-58231Y398550D02*
X-60231D01*
X-58231Y400550D01*
Y401050D01*
X-58731Y401549D01*
X-59731D01*
X-60231Y401050D01*
X-89208Y359061D02*
X-89708Y359561D01*
X-90708D01*
X-91208Y359061D01*
Y357061D01*
X-90708Y356562D01*
X-89708D01*
X-89208Y357061D01*
X-86209Y356562D02*
X-88209D01*
X-86209Y358561D01*
Y359061D01*
X-86709Y359561D01*
X-87709D01*
X-88209Y359061D01*
X-85210Y356562D02*
X-84210D01*
X-84710D01*
Y359561D01*
X-85210Y359061D01*
X-56486Y441961D02*
X-56986Y442461D01*
X-57986D01*
X-58485Y441961D01*
Y439961D01*
X-57986Y439462D01*
X-56986D01*
X-56486Y439961D01*
X-53487Y439462D02*
X-55486D01*
X-53487Y441461D01*
Y441961D01*
X-53987Y442461D01*
X-54987D01*
X-55486Y441961D01*
X-52487D02*
X-51988Y442461D01*
X-50988D01*
X-50488Y441961D01*
Y439961D01*
X-50988Y439462D01*
X-51988D01*
X-52487Y439961D01*
Y441961D01*
X-104619Y385810D02*
X-105119Y386310D01*
X-106119D01*
X-106619Y385810D01*
Y383810D01*
X-106119Y383311D01*
X-105119D01*
X-104619Y383810D01*
X-103620Y383311D02*
X-102620D01*
X-103120D01*
Y386310D01*
X-103620Y385810D01*
X-101121Y383810D02*
X-100621Y383311D01*
X-99621D01*
X-99121Y383810D01*
Y385810D01*
X-99621Y386310D01*
X-100621D01*
X-101121Y385810D01*
Y385310D01*
X-100621Y384810D01*
X-99121D01*
X-124939Y505190D02*
X-125439Y505690D01*
X-126439D01*
X-126939Y505190D01*
Y503190D01*
X-126439Y502691D01*
X-125439D01*
X-124939Y503190D01*
X-123940Y502691D02*
X-122940D01*
X-123440D01*
Y505690D01*
X-123940Y505190D01*
X-121441D02*
X-120941Y505690D01*
X-119941D01*
X-119441Y505190D01*
Y504690D01*
X-119941Y504190D01*
X-119441Y503690D01*
Y503190D01*
X-119941Y502691D01*
X-120941D01*
X-121441Y503190D01*
Y503690D01*
X-120941Y504190D01*
X-121441Y504690D01*
Y505190D01*
X-120941Y504190D02*
X-119941D01*
X-183359Y422640D02*
X-183859Y423139D01*
X-184859D01*
X-185359Y422640D01*
Y420640D01*
X-184859Y420140D01*
X-183859D01*
X-183359Y420640D01*
X-182360Y420140D02*
X-181360D01*
X-181860D01*
Y423139D01*
X-182360Y422640D01*
X-179861Y423139D02*
X-177861D01*
Y422640D01*
X-179861Y420640D01*
Y420140D01*
X-184629Y435340D02*
X-185129Y435840D01*
X-186129D01*
X-186629Y435340D01*
Y433340D01*
X-186129Y432840D01*
X-185129D01*
X-184629Y433340D01*
X-183630Y432840D02*
X-182630D01*
X-183130D01*
Y435840D01*
X-183630Y435340D01*
X-179131Y435840D02*
X-180131Y435340D01*
X-181131Y434340D01*
Y433340D01*
X-180631Y432840D01*
X-179631D01*
X-179131Y433340D01*
Y433840D01*
X-179631Y434340D01*
X-181131D01*
X-179549Y393430D02*
X-180049Y393929D01*
X-181049D01*
X-181549Y393430D01*
Y391430D01*
X-181049Y390930D01*
X-180049D01*
X-179549Y391430D01*
X-178550Y390930D02*
X-177550D01*
X-178050D01*
Y393929D01*
X-178550Y393430D01*
X-174551Y390930D02*
Y393929D01*
X-176051Y392430D01*
X-174051D01*
X-165579Y394020D02*
X-166079Y394520D01*
X-167079D01*
X-167579Y394020D01*
Y392020D01*
X-167079Y391521D01*
X-166079D01*
X-165579Y392020D01*
X-164580Y391521D02*
X-163580D01*
X-164080D01*
Y394520D01*
X-164580Y394020D01*
X-160081Y394520D02*
X-162081D01*
Y393020D01*
X-161081Y393520D01*
X-160581D01*
X-160081Y393020D01*
Y392020D01*
X-160581Y391521D01*
X-161581D01*
X-162081Y392020D01*
D17*
X-262461Y616887D02*
Y632122D01*
X-254843D01*
X-252304Y629583D01*
Y624505D01*
X-254843Y621965D01*
X-262461D01*
X-247226Y616887D02*
X-239608D01*
X-237069Y619426D01*
X-239608Y621965D01*
X-244687D01*
X-247226Y624505D01*
X-244687Y627044D01*
X-237069D01*
X-231991Y616887D02*
X-226912D01*
X-229452D01*
Y632122D01*
X-231991Y629583D01*
M02*
