G04*
G04 #@! TF.GenerationSoftware,Altium Limited,Altium Designer,25.3.3 (18)*
G04*
G04 Layer_Color=128*
%FSLAX44Y44*%
%MOMM*%
G71*
G04*
G04 #@! TF.SameCoordinates,03B7C616-348C-440E-9E9C-07167A9097DF*
G04*
G04*
G04 #@! TF.FilePolarity,Positive*
G04*
G01*
G75*
%ADD99C,0.1270*%
D99*
X267740Y379730D02*
X270740D01*
X269240Y378230D02*
Y381230D01*
X310999Y361749D02*
X313999D01*
X312499Y360249D02*
Y363249D01*
X632230Y556260D02*
X635230D01*
X633730Y554760D02*
Y557760D01*
X728750Y598170D02*
X731750D01*
X730250Y596670D02*
Y599670D01*
X759230Y817880D02*
X762230D01*
X760730Y816380D02*
Y819380D01*
X727480Y1056640D02*
X730480D01*
X728980Y1055140D02*
Y1058140D01*
X474750Y1206500D02*
X477750D01*
X476250Y1205000D02*
Y1208000D01*
X173760Y1073150D02*
X176760D01*
X175260Y1071650D02*
Y1074650D01*
X-632690Y596900D02*
X-629690D01*
X-631190Y595400D02*
Y598400D01*
X-702540Y817121D02*
X-699540D01*
X-701040Y815621D02*
Y818621D01*
X-702540Y1040130D02*
X-699540D01*
X-701040Y1038630D02*
Y1041630D01*
X-437110Y1191260D02*
X-434110D01*
X-435610Y1189760D02*
Y1192760D01*
X-110720Y1073150D02*
X-107720D01*
X-109220Y1071650D02*
Y1074650D01*
X-284710Y1049020D02*
X-281710D01*
X-283210Y1047520D02*
Y1050520D01*
X-298680Y1023620D02*
X-295680D01*
X-297180Y1022120D02*
Y1025120D01*
X267740Y360680D02*
X270740D01*
X269240Y359180D02*
Y362180D01*
X-87142Y632688D02*
X-84142D01*
X-85642Y631189D02*
Y634188D01*
X-305030Y1014730D02*
X-302030D01*
X-303530Y1013230D02*
Y1016230D01*
M02*
