G04*
G04 #@! TF.GenerationSoftware,Altium Limited,Altium Designer,25.3.3 (18)*
G04*
G04 Layer_Color=2752767*
%FSLAX44Y44*%
%MOMM*%
G71*
G04*
G04 #@! TF.SameCoordinates,03B7C616-348C-440E-9E9C-07167A9097DF*
G04*
G04*
G04 #@! TF.FilePolarity,Positive*
G04*
G01*
G75*
%ADD99C,0.1270*%
D99*
X449018Y334007D02*
Y331467D01*
X454098D01*
Y334007D01*
X456638D01*
Y339087D01*
X454098D01*
Y341627D01*
X449018D01*
Y339087D01*
X446478D01*
Y334007D01*
X449018D01*
X465528Y364487D02*
Y361947D01*
X470608D01*
Y364487D01*
X473148D01*
Y369567D01*
X470608D01*
Y372107D01*
X465528D01*
Y369567D01*
X462988D01*
Y364487D01*
X465528D01*
X437588Y334007D02*
Y331467D01*
X442668D01*
Y334007D01*
X445208D01*
Y339087D01*
X442668D01*
Y341627D01*
X437588D01*
Y339087D01*
X435048D01*
Y334007D01*
X437588D01*
X464452Y348810D02*
Y346270D01*
X469532D01*
Y348810D01*
X472072D01*
Y353890D01*
X469532D01*
Y356430D01*
X464452D01*
Y353890D01*
X461912D01*
Y348810D01*
X464452D01*
X460448Y334007D02*
Y331467D01*
X465528D01*
Y334007D01*
X468068D01*
Y339087D01*
X465528D01*
Y341627D01*
X460448D01*
Y339087D01*
X457908D01*
Y334007D01*
X460448D01*
X-20320Y254000D02*
Y251460D01*
X-15240D01*
Y254000D01*
X-12700D01*
Y259080D01*
X-15240D01*
Y261620D01*
X-20320D01*
Y259080D01*
X-22860D01*
Y254000D01*
X-20320D01*
X-30480Y251460D02*
Y248920D01*
X-25400D01*
Y251460D01*
X-22860D01*
Y256540D01*
X-25400D01*
Y259080D01*
X-30480D01*
Y256540D01*
X-33020D01*
Y251460D01*
X-30480D01*
X-41910Y255270D02*
Y252730D01*
X-36830D01*
Y255270D01*
X-34290D01*
Y260350D01*
X-36830D01*
Y262890D01*
X-41910D01*
Y260350D01*
X-44450D01*
Y255270D01*
X-41910D01*
Y265430D02*
Y262890D01*
X-36830D01*
Y265430D01*
X-34290D01*
Y270510D01*
X-36830D01*
Y273050D01*
X-41910D01*
Y270510D01*
X-44450D01*
Y265430D01*
X-41910D01*
X-158750Y553720D02*
Y551180D01*
X-153670D01*
Y553720D01*
X-151130D01*
Y558800D01*
X-153670D01*
Y561340D01*
X-158750D01*
Y558800D01*
X-161290D01*
Y553720D01*
X-158750D01*
X-252730Y530860D02*
Y528320D01*
X-247650D01*
Y530860D01*
X-245110D01*
Y535940D01*
X-247650D01*
Y538480D01*
X-252730D01*
Y535940D01*
X-255270D01*
Y530860D01*
X-252730D01*
X-262890Y534670D02*
Y532130D01*
X-257810D01*
Y534670D01*
X-255270D01*
Y539750D01*
X-257810D01*
Y542290D01*
X-262890D01*
Y539750D01*
X-265430D01*
Y534670D01*
X-262890D01*
Y543560D02*
Y541020D01*
X-257810D01*
Y543560D01*
X-255270D01*
Y548640D01*
X-257810D01*
Y551180D01*
X-262890D01*
Y548640D01*
X-265430D01*
Y543560D01*
X-262890D01*
X-261620Y552450D02*
Y549910D01*
X-256540D01*
Y552450D01*
X-254000D01*
Y557530D01*
X-256540D01*
Y560070D01*
X-261620D01*
Y557530D01*
X-264160D01*
Y552450D01*
X-261620D01*
X-160020Y532130D02*
Y529590D01*
X-154940D01*
Y532130D01*
X-152400D01*
Y537210D01*
X-154940D01*
Y539750D01*
X-160020D01*
Y537210D01*
X-162560D01*
Y532130D01*
X-160020D01*
X-170180Y529590D02*
Y527050D01*
X-165100D01*
Y529590D01*
X-162560D01*
Y534670D01*
X-165100D01*
Y537210D01*
X-170180D01*
Y534670D01*
X-172720D01*
Y529590D01*
X-170180D01*
X-156210Y544830D02*
Y542290D01*
X-151130D01*
Y544830D01*
X-148590D01*
Y549910D01*
X-151130D01*
Y552450D01*
X-156210D01*
Y549910D01*
X-158750D01*
Y544830D01*
X-156210D01*
X130810Y401320D02*
Y398780D01*
X135890D01*
Y401320D01*
X138430D01*
Y406400D01*
X135890D01*
Y408940D01*
X130810D01*
Y406400D01*
X128270D01*
Y401320D01*
X130810D01*
X38379Y340685D02*
Y338145D01*
X43460D01*
Y340685D01*
X45999D01*
Y345765D01*
X43460D01*
Y348305D01*
X38379D01*
Y345765D01*
X35840D01*
Y340685D01*
X38379D01*
X29210Y350520D02*
Y347980D01*
X34290D01*
Y350520D01*
X36830D01*
Y355600D01*
X34290D01*
Y358140D01*
X29210D01*
Y355600D01*
X26670D01*
Y350520D01*
X29210D01*
X276860Y377190D02*
Y374650D01*
X281940D01*
Y377190D01*
X284480D01*
Y382270D01*
X281940D01*
Y384810D01*
X276860D01*
Y382270D01*
X274320D01*
Y377190D01*
X276860D01*
X275590Y358140D02*
Y355600D01*
X280670D01*
Y358140D01*
X283210D01*
Y363220D01*
X280670D01*
Y365760D01*
X275590D01*
Y363220D01*
X273050D01*
Y358140D01*
X275590D01*
X-633393Y585191D02*
Y582651D01*
X-628313D01*
Y585191D01*
X-625773D01*
Y590271D01*
X-628313D01*
Y592811D01*
X-633393D01*
Y590271D01*
X-635933D01*
Y585191D01*
X-633393D01*
X-717550Y637540D02*
Y635000D01*
X-712470D01*
Y637540D01*
X-709930D01*
Y642620D01*
X-712470D01*
Y645160D01*
X-717550D01*
Y642620D01*
X-720090D01*
Y637540D01*
X-717550D01*
X-715943Y619481D02*
Y616941D01*
X-710863D01*
Y619481D01*
X-708323D01*
Y624561D01*
X-710863D01*
Y627101D01*
X-715943D01*
Y624561D01*
X-718483D01*
Y619481D01*
X-715943D01*
X-703580Y805180D02*
Y802640D01*
X-698500D01*
Y805180D01*
X-695960D01*
Y810260D01*
X-698500D01*
Y812800D01*
X-703580D01*
Y810260D01*
X-706120D01*
Y805180D01*
X-703580D01*
X-787400Y840740D02*
Y838200D01*
X-782320D01*
Y840740D01*
X-779780D01*
Y845820D01*
X-782320D01*
Y848360D01*
X-787400D01*
Y845820D01*
X-789940D01*
Y840740D01*
X-787400D01*
Y849630D02*
Y847090D01*
X-782320D01*
Y849630D01*
X-779780D01*
Y854710D01*
X-782320D01*
Y857250D01*
X-787400D01*
Y854710D01*
X-789940D01*
Y849630D01*
X-787400D01*
X-783590Y857250D02*
Y854710D01*
X-778510D01*
Y857250D01*
X-775970D01*
Y862330D01*
X-778510D01*
Y864870D01*
X-783590D01*
Y862330D01*
X-786130D01*
Y857250D01*
X-783590D01*
X-728980Y1028700D02*
Y1026160D01*
X-723900D01*
Y1028700D01*
X-721360D01*
Y1033780D01*
X-723900D01*
Y1036320D01*
X-728980D01*
Y1033780D01*
X-731520D01*
Y1028700D01*
X-728980D01*
X-774700Y1078230D02*
Y1075690D01*
X-769620D01*
Y1078230D01*
X-767080D01*
Y1083310D01*
X-769620D01*
Y1085850D01*
X-774700D01*
Y1083310D01*
X-777240D01*
Y1078230D01*
X-774700D01*
X-775970Y1096010D02*
Y1093470D01*
X-770890D01*
Y1096010D01*
X-768350D01*
Y1101090D01*
X-770890D01*
Y1103630D01*
X-775970D01*
Y1101090D01*
X-778510D01*
Y1096010D01*
X-775970D01*
X-458470Y1177290D02*
Y1174750D01*
X-453390D01*
Y1177290D01*
X-450850D01*
Y1182370D01*
X-453390D01*
Y1184910D01*
X-458470D01*
Y1182370D01*
X-461010D01*
Y1177290D01*
X-458470D01*
X-506393Y1229081D02*
Y1226541D01*
X-501313D01*
Y1229081D01*
X-498773D01*
Y1234161D01*
X-501313D01*
Y1236701D01*
X-506393D01*
Y1234161D01*
X-508933D01*
Y1229081D01*
X-506393D01*
X-508000Y1247140D02*
Y1244600D01*
X-502920D01*
Y1247140D01*
X-500380D01*
Y1252220D01*
X-502920D01*
Y1254760D01*
X-508000D01*
Y1252220D01*
X-510540D01*
Y1247140D01*
X-508000D01*
X-123190Y1054100D02*
Y1051560D01*
X-118110D01*
Y1054100D01*
X-115570D01*
Y1059180D01*
X-118110D01*
Y1061720D01*
X-123190D01*
Y1059180D01*
X-125730D01*
Y1054100D01*
X-123190D01*
X-200660Y1094740D02*
Y1092200D01*
X-195580D01*
Y1094740D01*
X-193040D01*
Y1099820D01*
X-195580D01*
Y1102360D01*
X-200660D01*
Y1099820D01*
X-203200D01*
Y1094740D01*
X-200660D01*
Y1103630D02*
Y1101090D01*
X-195580D01*
Y1103630D01*
X-193040D01*
Y1108710D01*
X-195580D01*
Y1111250D01*
X-200660D01*
Y1108710D01*
X-203200D01*
Y1103630D01*
X-200660D01*
Y1112520D02*
Y1109980D01*
X-195580D01*
Y1112520D01*
X-193040D01*
Y1117600D01*
X-195580D01*
Y1120140D01*
X-200660D01*
Y1117600D01*
X-203200D01*
Y1112520D01*
X-200660D01*
X173057Y1061441D02*
Y1058901D01*
X178137D01*
Y1061441D01*
X180677D01*
Y1066521D01*
X178137D01*
Y1069061D01*
X173057D01*
Y1066521D01*
X170517D01*
Y1061441D01*
X173057D01*
X91440Y1113790D02*
Y1111250D01*
X96520D01*
Y1113790D01*
X99060D01*
Y1118870D01*
X96520D01*
Y1121410D01*
X91440D01*
Y1118870D01*
X88900D01*
Y1113790D01*
X91440D01*
X90507Y1095731D02*
Y1093191D01*
X95587D01*
Y1095731D01*
X98127D01*
Y1100811D01*
X95587D01*
Y1103351D01*
X90507D01*
Y1100811D01*
X87967D01*
Y1095731D01*
X90507D01*
X455930Y1192530D02*
Y1189990D01*
X461010D01*
Y1192530D01*
X463550D01*
Y1197610D01*
X461010D01*
Y1200150D01*
X455930D01*
Y1197610D01*
X453390D01*
Y1192530D01*
X455930D01*
X388620Y1247140D02*
Y1244600D01*
X393700D01*
Y1247140D01*
X396240D01*
Y1252220D01*
X393700D01*
Y1254760D01*
X388620D01*
Y1252220D01*
X386080D01*
Y1247140D01*
X388620D01*
Y1229360D02*
Y1226820D01*
X393700D01*
Y1229360D01*
X396240D01*
Y1234440D01*
X393700D01*
Y1236980D01*
X388620D01*
Y1234440D01*
X386080D01*
Y1229360D01*
X388620D01*
X727710Y1043940D02*
Y1041400D01*
X732790D01*
Y1043940D01*
X735330D01*
Y1049020D01*
X732790D01*
Y1051560D01*
X727710D01*
Y1049020D01*
X725170D01*
Y1043940D01*
X727710D01*
X640080Y1078230D02*
Y1075690D01*
X645160D01*
Y1078230D01*
X647700D01*
Y1083310D01*
X645160D01*
Y1085850D01*
X640080D01*
Y1083310D01*
X637540D01*
Y1078230D01*
X640080D01*
X641350Y1096010D02*
Y1093470D01*
X646430D01*
Y1096010D01*
X648970D01*
Y1101090D01*
X646430D01*
Y1103630D01*
X641350D01*
Y1101090D01*
X638810D01*
Y1096010D01*
X641350D01*
X728980Y586740D02*
Y584200D01*
X734060D01*
Y586740D01*
X736600D01*
Y591820D01*
X734060D01*
Y594360D01*
X728980D01*
Y591820D01*
X726440D01*
Y586740D01*
X728980D01*
X643890Y618490D02*
Y615950D01*
X648970D01*
Y618490D01*
X651510D01*
Y623570D01*
X648970D01*
Y626110D01*
X643890D01*
Y623570D01*
X641350D01*
Y618490D01*
X643890D01*
X642620Y636270D02*
Y633730D01*
X647700D01*
Y636270D01*
X650240D01*
Y641350D01*
X647700D01*
Y643890D01*
X642620D01*
Y641350D01*
X640080D01*
Y636270D01*
X642620D01*
X759460Y805180D02*
Y802640D01*
X764540D01*
Y805180D01*
X767080D01*
Y810260D01*
X764540D01*
Y812800D01*
X759460D01*
Y810260D01*
X756920D01*
Y805180D01*
X759460D01*
X673100Y855980D02*
Y853440D01*
X678180D01*
Y855980D01*
X680720D01*
Y861060D01*
X678180D01*
Y863600D01*
X673100D01*
Y861060D01*
X670560D01*
Y855980D01*
X673100D01*
Y838200D02*
Y835660D01*
X678180D01*
Y838200D01*
X680720D01*
Y843280D01*
X678180D01*
Y845820D01*
X673100D01*
Y843280D01*
X670560D01*
Y838200D01*
X673100D01*
X-105534Y498155D02*
Y495615D01*
X-100454D01*
Y498155D01*
X-97914D01*
Y503235D01*
X-100454D01*
Y505775D01*
X-105534D01*
Y503235D01*
X-108074D01*
Y498155D01*
X-105534D01*
X-95034Y496354D02*
Y493814D01*
X-89954D01*
Y496354D01*
X-87414D01*
Y501434D01*
X-89954D01*
Y503974D01*
X-95034D01*
Y501434D01*
X-97574D01*
Y496354D01*
X-95034D01*
X-154407Y379585D02*
Y377044D01*
X-149327D01*
Y379585D01*
X-146787D01*
Y384664D01*
X-149327D01*
Y387205D01*
X-154407D01*
Y384664D01*
X-156947D01*
Y379585D01*
X-154407D01*
X-146050Y378460D02*
Y375920D01*
X-140970D01*
Y378460D01*
X-138430D01*
Y383540D01*
X-140970D01*
Y386080D01*
X-146050D01*
Y383540D01*
X-148590D01*
Y378460D01*
X-146050D01*
X-168910Y387350D02*
Y384810D01*
X-163830D01*
Y387350D01*
X-161290D01*
Y392430D01*
X-163830D01*
Y394970D01*
X-168910D01*
Y392430D01*
X-171450D01*
Y387350D01*
X-168910D01*
X-157480Y388620D02*
Y386080D01*
X-152400D01*
Y388620D01*
X-149860D01*
Y393700D01*
X-152400D01*
Y396240D01*
X-157480D01*
Y393700D01*
X-160020D01*
Y388620D01*
X-157480D01*
X63500Y623570D02*
Y621030D01*
X68580D01*
Y623570D01*
X71120D01*
Y628650D01*
X68580D01*
Y631190D01*
X63500D01*
Y628650D01*
X60960D01*
Y623570D01*
X63500D01*
Y633730D02*
Y631190D01*
X68580D01*
Y633730D01*
X71120D01*
Y638810D01*
X68580D01*
Y641350D01*
X63500D01*
Y638810D01*
X60960D01*
Y633730D01*
X63500D01*
X60960Y642620D02*
Y640080D01*
X66040D01*
Y642620D01*
X68580D01*
Y647700D01*
X66040D01*
Y650240D01*
X60960D01*
Y647700D01*
X58420D01*
Y642620D01*
X60960D01*
X62230Y534670D02*
Y532130D01*
X67310D01*
Y534670D01*
X69850D01*
Y539750D01*
X67310D01*
Y542290D01*
X62230D01*
Y539750D01*
X59690D01*
Y534670D01*
X62230D01*
X-77470Y518160D02*
Y515620D01*
X-72390D01*
Y518160D01*
X-69850D01*
Y523240D01*
X-72390D01*
Y525780D01*
X-77470D01*
Y523240D01*
X-80010D01*
Y518160D01*
X-77470D01*
X-78015Y527050D02*
Y524510D01*
X-72935D01*
Y527050D01*
X-70395D01*
Y532130D01*
X-72935D01*
Y534670D01*
X-78015D01*
Y532130D01*
X-80555D01*
Y527050D01*
X-78015D01*
X-106680Y547370D02*
Y544830D01*
X-101600D01*
Y547370D01*
X-99060D01*
Y552450D01*
X-101600D01*
Y554990D01*
X-106680D01*
Y552450D01*
X-109220D01*
Y547370D01*
X-106680D01*
X-114300D02*
Y544830D01*
X-109220D01*
Y547370D01*
X-106680D01*
Y552450D01*
X-109220D01*
Y554990D01*
X-114300D01*
Y552450D01*
X-116840D01*
Y547370D01*
X-114300D01*
X-160020Y504190D02*
Y501650D01*
X-154940D01*
Y504190D01*
X-152400D01*
Y509270D01*
X-154940D01*
Y511810D01*
X-160020D01*
Y509270D01*
X-162560D01*
Y504190D01*
X-160020D01*
X-63500Y397510D02*
Y394970D01*
X-58420D01*
Y397510D01*
X-55880D01*
Y402590D01*
X-58420D01*
Y405130D01*
X-63500D01*
Y402590D01*
X-66040D01*
Y397510D01*
X-63500D01*
X-95250Y342900D02*
Y340360D01*
X-90170D01*
Y342900D01*
X-87630D01*
Y347980D01*
X-90170D01*
Y350520D01*
X-95250D01*
Y347980D01*
X-97790D01*
Y342900D01*
X-95250D01*
X-106680D02*
Y340360D01*
X-101600D01*
Y342900D01*
X-99060D01*
Y347980D01*
X-101600D01*
Y350520D01*
X-106680D01*
Y347980D01*
X-109220D01*
Y342900D01*
X-106680D01*
X-109220Y433070D02*
Y430530D01*
X-104140D01*
Y433070D01*
X-101600D01*
Y438150D01*
X-104140D01*
Y440690D01*
X-109220D01*
Y438150D01*
X-111760D01*
Y433070D01*
X-109220D01*
X-121920D02*
Y430530D01*
X-116840D01*
Y433070D01*
X-114300D01*
Y438150D01*
X-116840D01*
Y440690D01*
X-121920D01*
Y438150D01*
X-124460D01*
Y433070D01*
X-121920D01*
X-109220Y443230D02*
Y440690D01*
X-104140D01*
Y443230D01*
X-101600D01*
Y448310D01*
X-104140D01*
Y450850D01*
X-109220D01*
Y448310D01*
X-111760D01*
Y443230D01*
X-109220D01*
X-121920D02*
Y440690D01*
X-116840D01*
Y443230D01*
X-114300D01*
Y448310D01*
X-116840D01*
Y450850D01*
X-121920D01*
Y448310D01*
X-124460D01*
Y443230D01*
X-121920D01*
X-109220Y453390D02*
Y450850D01*
X-104140D01*
Y453390D01*
X-101600D01*
Y458470D01*
X-104140D01*
Y461010D01*
X-109220D01*
Y458470D01*
X-111760D01*
Y453390D01*
X-109220D01*
X-121920D02*
Y450850D01*
X-116840D01*
Y453390D01*
X-114300D01*
Y458470D01*
X-116840D01*
Y461010D01*
X-121920D01*
Y458470D01*
X-124460D01*
Y453390D01*
X-121920D01*
X180340Y374650D02*
Y372110D01*
X185420D01*
Y374650D01*
X187960D01*
Y379730D01*
X185420D01*
Y382270D01*
X180340D01*
Y379730D01*
X177800D01*
Y374650D01*
X180340D01*
Y382270D02*
Y379730D01*
X185420D01*
Y382270D01*
X187960D01*
Y387350D01*
X185420D01*
Y389890D01*
X180340D01*
Y387350D01*
X177800D01*
Y382270D01*
X180340D01*
X494030Y354330D02*
Y351790D01*
X499110D01*
Y354330D01*
X501650D01*
Y359410D01*
X499110D01*
Y361950D01*
X494030D01*
Y359410D01*
X491490D01*
Y354330D01*
X494030D01*
Y365760D02*
Y363220D01*
X499110D01*
Y365760D01*
X501650D01*
Y370840D01*
X499110D01*
Y373380D01*
X494030D01*
Y370840D01*
X491490D01*
Y365760D01*
X494030D01*
Y342900D02*
Y340360D01*
X499110D01*
Y342900D01*
X501650D01*
Y347980D01*
X499110D01*
Y350520D01*
X494030D01*
Y347980D01*
X491490D01*
Y342900D01*
X494030D01*
X481330Y354965D02*
Y352425D01*
X486410D01*
Y354965D01*
X488950D01*
Y360045D01*
X486410D01*
Y362585D01*
X481330D01*
Y360045D01*
X478790D01*
Y354965D01*
X481330D01*
Y366395D02*
Y363855D01*
X486410D01*
Y366395D01*
X488950D01*
Y371475D01*
X486410D01*
Y374015D01*
X481330D01*
Y371475D01*
X478790D01*
Y366395D01*
X481330D01*
Y343535D02*
Y340995D01*
X486410D01*
Y343535D01*
X488950D01*
Y348615D01*
X486410D01*
Y351155D01*
X481330D01*
Y348615D01*
X478790D01*
Y343535D01*
X481330D01*
X422910Y356235D02*
Y353695D01*
X427990D01*
Y356235D01*
X430530D01*
Y361315D01*
X427990D01*
Y363855D01*
X422910D01*
Y361315D01*
X420370D01*
Y356235D01*
X422910D01*
Y367665D02*
Y365125D01*
X427990D01*
Y367665D01*
X430530D01*
Y372745D01*
X427990D01*
Y375285D01*
X422910D01*
Y372745D01*
X420370D01*
Y367665D01*
X422910D01*
Y344805D02*
Y342265D01*
X427990D01*
Y344805D01*
X430530D01*
Y349885D01*
X427990D01*
Y352425D01*
X422910D01*
Y349885D01*
X420370D01*
Y344805D01*
X422910D01*
X410210Y356235D02*
Y353695D01*
X415290D01*
Y356235D01*
X417830D01*
Y361315D01*
X415290D01*
Y363855D01*
X410210D01*
Y361315D01*
X407670D01*
Y356235D01*
X410210D01*
Y367665D02*
Y365125D01*
X415290D01*
Y367665D01*
X417830D01*
Y372745D01*
X415290D01*
Y375285D01*
X410210D01*
Y372745D01*
X407670D01*
Y367665D01*
X410210D01*
Y344805D02*
Y342265D01*
X415290D01*
Y344805D01*
X417830D01*
Y349885D01*
X415290D01*
Y352425D01*
X410210D01*
Y349885D01*
X407670D01*
Y344805D01*
X410210D01*
X397510Y356235D02*
Y353695D01*
X402590D01*
Y356235D01*
X405130D01*
Y361315D01*
X402590D01*
Y363855D01*
X397510D01*
Y361315D01*
X394970D01*
Y356235D01*
X397510D01*
Y367665D02*
Y365125D01*
X402590D01*
Y367665D01*
X405130D01*
Y372745D01*
X402590D01*
Y375285D01*
X397510D01*
Y372745D01*
X394970D01*
Y367665D01*
X397510D01*
Y344805D02*
Y342265D01*
X402590D01*
Y344805D01*
X405130D01*
Y349885D01*
X402590D01*
Y352425D01*
X397510D01*
Y349885D01*
X394970D01*
Y344805D01*
X397510D01*
X479915Y305177D02*
Y302637D01*
X484995D01*
Y305177D01*
X487535D01*
Y310257D01*
X484995D01*
Y312797D01*
X479915D01*
Y310257D01*
X477375D01*
Y305177D01*
X479915D01*
X493809Y304472D02*
Y301932D01*
X498889D01*
Y304472D01*
X501428D01*
Y309552D01*
X498889D01*
Y312092D01*
X493809D01*
Y309552D01*
X491269D01*
Y304472D01*
X493809D01*
X468485Y305177D02*
Y302637D01*
X473565D01*
Y305177D01*
X476105D01*
Y310257D01*
X473565D01*
Y312797D01*
X468485D01*
Y310257D01*
X465945D01*
Y305177D01*
X468485D01*
X444576Y305505D02*
Y302965D01*
X449656D01*
Y305505D01*
X452196D01*
Y310585D01*
X449656D01*
Y313125D01*
X444576D01*
Y310585D01*
X442036D01*
Y305505D01*
X444576D01*
X456006D02*
Y302965D01*
X461086D01*
Y305505D01*
X463626D01*
Y310585D01*
X461086D01*
Y313125D01*
X456006D01*
Y310585D01*
X453466D01*
Y305505D01*
X456006D01*
X433146D02*
Y302965D01*
X438226D01*
Y305505D01*
X440766D01*
Y310585D01*
X438226D01*
Y313125D01*
X433146D01*
Y310585D01*
X430606D01*
Y305505D01*
X433146D01*
X409016D02*
Y302965D01*
X414096D01*
Y305505D01*
X416636D01*
Y310585D01*
X414096D01*
Y313125D01*
X409016D01*
Y310585D01*
X406476D01*
Y305505D01*
X409016D01*
X420446D02*
Y302965D01*
X425526D01*
Y305505D01*
X428066D01*
Y310585D01*
X425526D01*
Y313125D01*
X420446D01*
Y310585D01*
X417906D01*
Y305505D01*
X420446D01*
X397586D02*
Y302965D01*
X402666D01*
Y305505D01*
X405206D01*
Y310585D01*
X402666D01*
Y313125D01*
X397586D01*
Y310585D01*
X395046D01*
Y305505D01*
X397586D01*
X480136Y318205D02*
Y315665D01*
X485216D01*
Y318205D01*
X487756D01*
Y323285D01*
X485216D01*
Y325825D01*
X480136D01*
Y323285D01*
X477596D01*
Y318205D01*
X480136D01*
X494030Y317500D02*
Y314960D01*
X499110D01*
Y317500D01*
X501650D01*
Y322580D01*
X499110D01*
Y325120D01*
X494030D01*
Y322580D01*
X491490D01*
Y317500D01*
X494030D01*
X468706Y318205D02*
Y315665D01*
X473786D01*
Y318205D01*
X476326D01*
Y323285D01*
X473786D01*
Y325825D01*
X468706D01*
Y323285D01*
X466166D01*
Y318205D01*
X468706D01*
X444576D02*
Y315665D01*
X449656D01*
Y318205D01*
X452196D01*
Y323285D01*
X449656D01*
Y325825D01*
X444576D01*
Y323285D01*
X442036D01*
Y318205D01*
X444576D01*
X456006D02*
Y315665D01*
X461086D01*
Y318205D01*
X463626D01*
Y323285D01*
X461086D01*
Y325825D01*
X456006D01*
Y323285D01*
X453466D01*
Y318205D01*
X456006D01*
X433146D02*
Y315665D01*
X438226D01*
Y318205D01*
X440766D01*
Y323285D01*
X438226D01*
Y325825D01*
X433146D01*
Y323285D01*
X430606D01*
Y318205D01*
X433146D01*
X409016D02*
Y315665D01*
X414096D01*
Y318205D01*
X416636D01*
Y323285D01*
X414096D01*
Y325825D01*
X409016D01*
Y323285D01*
X406476D01*
Y318205D01*
X409016D01*
X420446D02*
Y315665D01*
X425526D01*
Y318205D01*
X428066D01*
Y323285D01*
X425526D01*
Y325825D01*
X420446D01*
Y323285D01*
X417906D01*
Y318205D01*
X420446D01*
X397586D02*
Y315665D01*
X402666D01*
Y318205D01*
X405206D01*
Y323285D01*
X402666D01*
Y325825D01*
X397586D01*
Y323285D01*
X395046D01*
Y318205D01*
X397586D01*
X-206253Y653357D02*
Y650817D01*
X-201173D01*
Y653357D01*
X-198633D01*
Y658437D01*
X-201173D01*
Y660977D01*
X-206253D01*
Y658437D01*
X-208793D01*
Y653357D01*
X-206253D01*
X-214630Y651510D02*
Y648970D01*
X-209550D01*
Y651510D01*
X-207010D01*
Y656590D01*
X-209550D01*
Y659130D01*
X-214630D01*
Y656590D01*
X-217170D01*
Y651510D01*
X-214630D01*
X-225303Y657167D02*
Y654627D01*
X-220223D01*
Y657167D01*
X-217683D01*
Y662247D01*
X-220223D01*
Y664787D01*
X-225303D01*
Y662247D01*
X-227843D01*
Y657167D01*
X-225303D01*
X-314203Y650817D02*
Y648277D01*
X-309123D01*
Y650817D01*
X-306583D01*
Y655897D01*
X-309123D01*
Y658437D01*
X-314203D01*
Y655897D01*
X-316743D01*
Y650817D01*
X-314203D01*
X-323850Y654050D02*
Y651510D01*
X-318770D01*
Y654050D01*
X-316230D01*
Y659130D01*
X-318770D01*
Y661670D01*
X-323850D01*
Y659130D01*
X-326390D01*
Y654050D01*
X-323850D01*
X-328930Y665480D02*
Y662940D01*
X-323850D01*
Y665480D01*
X-321310D01*
Y670560D01*
X-323850D01*
Y673100D01*
X-328930D01*
Y670560D01*
X-331470D01*
Y665480D01*
X-328930D01*
X-314203Y1000067D02*
Y997527D01*
X-309123D01*
Y1000067D01*
X-306583D01*
Y1005147D01*
X-309123D01*
Y1007687D01*
X-314203D01*
Y1005147D01*
X-316743D01*
Y1000067D01*
X-314203D01*
X-323093Y997527D02*
Y994987D01*
X-318013D01*
Y997527D01*
X-315473D01*
Y1002607D01*
X-318013D01*
Y1005147D01*
X-323093D01*
Y1002607D01*
X-325633D01*
Y997527D01*
X-323093D01*
X-329443Y984827D02*
Y982287D01*
X-324363D01*
Y984827D01*
X-321823D01*
Y989907D01*
X-324363D01*
Y992447D01*
X-329443D01*
Y989907D01*
X-331983D01*
Y984827D01*
X-329443D01*
X-223520Y996315D02*
Y993775D01*
X-218440D01*
Y996315D01*
X-215900D01*
Y1001395D01*
X-218440D01*
Y1003935D01*
X-223520D01*
Y1001395D01*
X-226060D01*
Y996315D01*
X-223520D01*
X-204470Y996950D02*
Y994410D01*
X-199390D01*
Y996950D01*
X-196850D01*
Y1002030D01*
X-199390D01*
Y1004570D01*
X-204470D01*
Y1002030D01*
X-207010D01*
Y996950D01*
X-204470D01*
X-213360Y999490D02*
Y996950D01*
X-208280D01*
Y999490D01*
X-205740D01*
Y1004570D01*
X-208280D01*
Y1007110D01*
X-213360D01*
Y1004570D01*
X-215900D01*
Y999490D01*
X-213360D01*
X-20401Y331805D02*
Y329265D01*
X-15321D01*
Y331805D01*
X-12781D01*
Y336885D01*
X-15321D01*
Y339425D01*
X-20401D01*
Y336885D01*
X-22941D01*
Y331805D01*
X-20401D01*
X-21671Y340695D02*
Y338155D01*
X-16591D01*
Y340695D01*
X-14051D01*
Y345775D01*
X-16591D01*
Y348315D01*
X-21671D01*
Y345775D01*
X-24211D01*
Y340695D01*
X-21671D01*
X-30561Y331805D02*
Y329265D01*
X-25481D01*
Y331805D01*
X-22941D01*
Y336885D01*
X-25481D01*
Y339425D01*
X-30561D01*
Y336885D01*
X-33101D01*
Y331805D01*
X-30561D01*
X-31831Y340695D02*
Y338155D01*
X-26751D01*
Y340695D01*
X-24211D01*
Y345775D01*
X-26751D01*
Y348315D01*
X-31831D01*
Y345775D01*
X-34371D01*
Y340695D01*
X-31831D01*
X-40721Y331805D02*
Y329265D01*
X-35641D01*
Y331805D01*
X-33101D01*
Y336885D01*
X-35641D01*
Y339425D01*
X-40721D01*
Y336885D01*
X-43261D01*
Y331805D01*
X-40721D01*
Y341965D02*
Y339425D01*
X-35641D01*
Y341965D01*
X-33101D01*
Y347045D01*
X-35641D01*
Y349585D01*
X-40721D01*
Y347045D01*
X-43261D01*
Y341965D01*
X-40721D01*
X-22860Y351790D02*
Y349250D01*
X-17780D01*
Y351790D01*
X-15240D01*
Y356870D01*
X-17780D01*
Y359410D01*
X-22860D01*
Y356870D01*
X-25400D01*
Y351790D01*
X-22860D01*
X-31831Y352125D02*
Y349585D01*
X-26751D01*
Y352125D01*
X-24211D01*
Y357205D01*
X-26751D01*
Y359745D01*
X-31831D01*
Y357205D01*
X-34371D01*
Y352125D01*
X-31831D01*
X-40721D02*
Y349585D01*
X-35641D01*
Y352125D01*
X-33101D01*
Y357205D01*
X-35641D01*
Y359745D01*
X-40721D01*
Y357205D01*
X-43261D01*
Y352125D01*
X-40721D01*
X-86360Y618490D02*
Y615950D01*
X-81280D01*
Y618490D01*
X-78740D01*
Y623570D01*
X-81280D01*
Y626110D01*
X-86360D01*
Y623570D01*
X-88900D01*
Y618490D01*
X-86360D01*
X-50800Y643890D02*
Y641350D01*
X-45720D01*
Y643890D01*
X-43180D01*
Y648970D01*
X-45720D01*
Y651510D01*
X-50800D01*
Y648970D01*
X-53340D01*
Y643890D01*
X-50800D01*
X-27940Y419100D02*
Y416560D01*
X-22860D01*
Y419100D01*
X-20320D01*
Y424180D01*
X-22860D01*
Y426720D01*
X-27940D01*
Y424180D01*
X-30480D01*
Y419100D01*
X-27940D01*
X-12700Y420370D02*
Y417830D01*
X-7620D01*
Y420370D01*
X-5080D01*
Y425450D01*
X-7620D01*
Y427990D01*
X-12700D01*
Y425450D01*
X-15240D01*
Y420370D01*
X-12700D01*
X77470Y995680D02*
Y993140D01*
X82550D01*
Y995680D01*
X85090D01*
Y1000760D01*
X82550D01*
Y1003300D01*
X77470D01*
Y1000760D01*
X74930D01*
Y995680D01*
X77470D01*
X64770Y970280D02*
Y967740D01*
X69850D01*
Y970280D01*
X72390D01*
Y975360D01*
X69850D01*
Y977900D01*
X64770D01*
Y975360D01*
X62230D01*
Y970280D01*
X64770D01*
X76200Y974090D02*
Y971550D01*
X81280D01*
Y974090D01*
X83820D01*
Y979170D01*
X81280D01*
Y981710D01*
X76200D01*
Y979170D01*
X73660D01*
Y974090D01*
X76200D01*
X81280Y985520D02*
Y982980D01*
X86360D01*
Y985520D01*
X88900D01*
Y990600D01*
X86360D01*
Y993140D01*
X81280D01*
Y990600D01*
X78740D01*
Y985520D01*
X81280D01*
X69850Y1000760D02*
Y998220D01*
X74930D01*
Y1000760D01*
X77470D01*
Y1005840D01*
X74930D01*
Y1008380D01*
X69850D01*
Y1005840D01*
X67310D01*
Y1000760D01*
X69850D01*
X55880Y652780D02*
Y650240D01*
X60960D01*
Y652780D01*
X63500D01*
Y657860D01*
X60960D01*
Y660400D01*
X55880D01*
Y657860D01*
X53340D01*
Y652780D01*
X55880D01*
X80010Y661670D02*
Y659130D01*
X85090D01*
Y661670D01*
X87630D01*
Y666750D01*
X85090D01*
Y669290D01*
X80010D01*
Y666750D01*
X77470D01*
Y661670D01*
X80010D01*
Y671830D02*
Y669290D01*
X85090D01*
Y671830D01*
X87630D01*
Y676910D01*
X85090D01*
Y679450D01*
X80010D01*
Y676910D01*
X77470D01*
Y671830D01*
X80010D01*
X71120Y651510D02*
Y648970D01*
X76200D01*
Y651510D01*
X78740D01*
Y656590D01*
X76200D01*
Y659130D01*
X71120D01*
Y656590D01*
X68580D01*
Y651510D01*
X71120D01*
X-113030Y1061720D02*
Y1059180D01*
X-107950D01*
Y1061720D01*
X-105410D01*
Y1066800D01*
X-107950D01*
Y1069340D01*
X-113030D01*
Y1066800D01*
X-115570D01*
Y1061720D01*
X-113030D01*
X186690Y346710D02*
Y344170D01*
X191770D01*
Y346710D01*
X194310D01*
Y351790D01*
X191770D01*
Y354330D01*
X186690D01*
Y351790D01*
X184150D01*
Y346710D01*
X186690D01*
X119380Y421640D02*
Y419100D01*
X124460D01*
Y421640D01*
X127000D01*
Y426720D01*
X124460D01*
Y429260D01*
X119380D01*
Y426720D01*
X116840D01*
Y421640D01*
X119380D01*
X106680D02*
Y419100D01*
X111760D01*
Y421640D01*
X114300D01*
Y426720D01*
X111760D01*
Y429260D01*
X106680D01*
Y426720D01*
X104140D01*
Y421640D01*
X106680D01*
X41910Y454660D02*
Y452120D01*
X46990D01*
Y454660D01*
X49530D01*
Y459740D01*
X46990D01*
Y462280D01*
X41910D01*
Y459740D01*
X39370D01*
Y454660D01*
X41910D01*
X43180Y463550D02*
Y461010D01*
X48260D01*
Y463550D01*
X50800D01*
Y468630D01*
X48260D01*
Y471170D01*
X43180D01*
Y468630D01*
X40640D01*
Y463550D01*
X43180D01*
X71120Y452120D02*
Y449580D01*
X76200D01*
Y452120D01*
X78740D01*
Y457200D01*
X76200D01*
Y459740D01*
X71120D01*
Y457200D01*
X68580D01*
Y452120D01*
X71120D01*
X-640080Y576580D02*
Y574040D01*
X-635000D01*
Y576580D01*
X-632460D01*
Y581660D01*
X-635000D01*
Y584200D01*
X-640080D01*
Y581660D01*
X-642620D01*
Y576580D01*
X-640080D01*
X-717550Y628650D02*
Y626110D01*
X-712470D01*
Y628650D01*
X-709930D01*
Y633730D01*
X-712470D01*
Y636270D01*
X-717550D01*
Y633730D01*
X-720090D01*
Y628650D01*
X-717550D01*
X-712276Y798393D02*
Y795853D01*
X-707196D01*
Y798393D01*
X-704656D01*
Y803473D01*
X-707196D01*
Y806013D01*
X-712276D01*
Y803473D01*
X-714816D01*
Y798393D01*
X-712276D01*
X-732790Y1037590D02*
Y1035050D01*
X-727710D01*
Y1037590D01*
X-725170D01*
Y1042670D01*
X-727710D01*
Y1045210D01*
X-732790D01*
Y1042670D01*
X-735330D01*
Y1037590D01*
X-732790D01*
X-774700Y1087120D02*
Y1084580D01*
X-769620D01*
Y1087120D01*
X-767080D01*
Y1092200D01*
X-769620D01*
Y1094740D01*
X-774700D01*
Y1092200D01*
X-777240D01*
Y1087120D01*
X-774700D01*
X-464899Y1188641D02*
Y1186101D01*
X-459819D01*
Y1188641D01*
X-457279D01*
Y1193721D01*
X-459819D01*
Y1196261D01*
X-464899D01*
Y1193721D01*
X-467439D01*
Y1188641D01*
X-464899D01*
X-506730Y1238250D02*
Y1235710D01*
X-501650D01*
Y1238250D01*
X-499110D01*
Y1243330D01*
X-501650D01*
Y1245870D01*
X-506730D01*
Y1243330D01*
X-509270D01*
Y1238250D01*
X-506730D01*
X-270510Y1002030D02*
Y999490D01*
X-265430D01*
Y1002030D01*
X-262890D01*
Y1007110D01*
X-265430D01*
Y1009650D01*
X-270510D01*
Y1007110D01*
X-273050D01*
Y1002030D01*
X-270510D01*
X-265236Y1025723D02*
Y1023183D01*
X-260156D01*
Y1025723D01*
X-257616D01*
Y1030803D01*
X-260156D01*
Y1033343D01*
X-265236D01*
Y1030803D01*
X-267776D01*
Y1025723D01*
X-265236D01*
X86360Y1103630D02*
Y1101090D01*
X91440D01*
Y1103630D01*
X93980D01*
Y1108710D01*
X91440D01*
Y1111250D01*
X86360D01*
Y1108710D01*
X83820D01*
Y1103630D01*
X86360D01*
X162754Y1054933D02*
Y1052393D01*
X167834D01*
Y1054933D01*
X170374D01*
Y1060013D01*
X167834D01*
Y1062553D01*
X162754D01*
Y1060013D01*
X160214D01*
Y1054933D01*
X162754D01*
X387544Y1237813D02*
Y1235273D01*
X392624D01*
Y1237813D01*
X395164D01*
Y1242893D01*
X392624D01*
Y1245433D01*
X387544D01*
Y1242893D01*
X385004D01*
Y1237813D01*
X387544D01*
X473904Y1194633D02*
Y1192093D01*
X478984D01*
Y1194633D01*
X481524D01*
Y1199713D01*
X478984D01*
Y1202253D01*
X473904D01*
Y1199713D01*
X471364D01*
Y1194633D01*
X473904D01*
X640080Y1087120D02*
Y1084580D01*
X645160D01*
Y1087120D01*
X647700D01*
Y1092200D01*
X645160D01*
Y1094740D01*
X640080D01*
Y1092200D01*
X637540D01*
Y1087120D01*
X640080D01*
X717550Y1036320D02*
Y1033780D01*
X722630D01*
Y1036320D01*
X725170D01*
Y1041400D01*
X722630D01*
Y1043940D01*
X717550D01*
Y1041400D01*
X715010D01*
Y1036320D01*
X717550D01*
X673100Y847090D02*
Y844550D01*
X678180D01*
Y847090D01*
X680720D01*
Y852170D01*
X678180D01*
Y854710D01*
X673100D01*
Y852170D01*
X670560D01*
Y847090D01*
X673100D01*
X749494Y798393D02*
Y795853D01*
X754574D01*
Y798393D01*
X757114D01*
Y803473D01*
X754574D01*
Y806013D01*
X749494D01*
Y803473D01*
X746954D01*
Y798393D01*
X749494D01*
X642620Y627380D02*
Y624840D01*
X647700D01*
Y627380D01*
X650240D01*
Y632460D01*
X647700D01*
Y635000D01*
X642620D01*
Y632460D01*
X640080D01*
Y627380D01*
X642620D01*
X719093Y578762D02*
Y576222D01*
X724173D01*
Y578762D01*
X726713D01*
Y583842D01*
X724173D01*
Y586382D01*
X719093D01*
Y583842D01*
X716553D01*
Y578762D01*
X719093D01*
X692150Y581660D02*
Y579120D01*
X697230D01*
Y581660D01*
X699770D01*
Y586740D01*
X697230D01*
Y589280D01*
X692150D01*
Y586740D01*
X689610D01*
Y581660D01*
X692150D01*
Y572770D02*
Y570230D01*
X697230D01*
Y572770D01*
X699770D01*
Y577850D01*
X697230D01*
Y580390D01*
X692150D01*
Y577850D01*
X689610D01*
Y572770D01*
X692150D01*
X690880Y552450D02*
Y549910D01*
X695960D01*
Y552450D01*
X698500D01*
Y557530D01*
X695960D01*
Y560070D01*
X690880D01*
Y557530D01*
X688340D01*
Y552450D01*
X690880D01*
X680720Y543560D02*
Y541020D01*
X685800D01*
Y543560D01*
X688340D01*
Y548640D01*
X685800D01*
Y551180D01*
X680720D01*
Y548640D01*
X678180D01*
Y543560D01*
X680720D01*
X630114Y544393D02*
Y541853D01*
X635194D01*
Y544393D01*
X637734D01*
Y549473D01*
X635194D01*
Y552013D01*
X630114D01*
Y549473D01*
X627574D01*
Y544393D01*
X630114D01*
X299799Y431599D02*
Y429059D01*
X304879D01*
Y431599D01*
X307419D01*
Y436679D01*
X304879D01*
Y439219D01*
X299799D01*
Y436679D01*
X297259D01*
Y431599D01*
X299799D01*
X320119Y432869D02*
Y430329D01*
X325199D01*
Y432869D01*
X327739D01*
Y437949D01*
X325199D01*
Y440489D01*
X320119D01*
Y437949D01*
X317579D01*
Y432869D01*
X320119D01*
X309959D02*
Y430329D01*
X315039D01*
Y432869D01*
X317579D01*
Y437949D01*
X315039D01*
Y440489D01*
X309959D01*
Y437949D01*
X307419D01*
Y432869D01*
X309959D01*
X291024Y342463D02*
Y339923D01*
X296104D01*
Y342463D01*
X298644D01*
Y347543D01*
X296104D01*
Y350083D01*
X291024D01*
Y347543D01*
X288484D01*
Y342463D01*
X291024D01*
X181610Y389890D02*
Y387350D01*
X186690D01*
Y389890D01*
X189230D01*
Y394970D01*
X186690D01*
Y397510D01*
X181610D01*
Y394970D01*
X179070D01*
Y389890D01*
X181610D01*
X181689Y355521D02*
Y352981D01*
X186769D01*
Y355521D01*
X189309D01*
Y360601D01*
X186769D01*
Y363141D01*
X181689D01*
Y360601D01*
X179149D01*
Y355521D01*
X181689D01*
X195580Y346710D02*
Y344170D01*
X200660D01*
Y346710D01*
X203200D01*
Y351790D01*
X200660D01*
Y354330D01*
X195580D01*
Y351790D01*
X193040D01*
Y346710D01*
X195580D01*
X144780Y387350D02*
Y384810D01*
X149860D01*
Y387350D01*
X152400D01*
Y392430D01*
X149860D01*
Y394970D01*
X144780D01*
Y392430D01*
X142240D01*
Y387350D01*
X144780D01*
X142240Y394970D02*
Y392430D01*
X147320D01*
Y394970D01*
X149860D01*
Y400050D01*
X147320D01*
Y402590D01*
X142240D01*
Y400050D01*
X139700D01*
Y394970D01*
X142240D01*
X-69128Y305961D02*
Y303421D01*
X-64048D01*
Y305961D01*
X-61508D01*
Y311041D01*
X-64048D01*
Y313581D01*
X-69128D01*
Y311041D01*
X-71668D01*
Y305961D01*
X-69128D01*
X-95250Y355600D02*
Y353060D01*
X-90170D01*
Y355600D01*
X-87630D01*
Y360680D01*
X-90170D01*
Y363220D01*
X-95250D01*
Y360680D01*
X-97790D01*
Y355600D01*
X-95250D01*
X-105410D02*
Y353060D01*
X-100330D01*
Y355600D01*
X-97790D01*
Y360680D01*
X-100330D01*
Y363220D01*
X-105410D01*
Y360680D01*
X-107950D01*
Y355600D01*
X-105410D01*
X-59690Y406400D02*
Y403860D01*
X-54610D01*
Y406400D01*
X-52070D01*
Y411480D01*
X-54610D01*
Y414020D01*
X-59690D01*
Y411480D01*
X-62230D01*
Y406400D01*
X-59690D01*
X-58420Y445770D02*
Y443230D01*
X-53340D01*
Y445770D01*
X-50800D01*
Y450850D01*
X-53340D01*
Y453390D01*
X-58420D01*
Y450850D01*
X-60960D01*
Y445770D01*
X-58420D01*
X58420Y519430D02*
Y516890D01*
X63500D01*
Y519430D01*
X66040D01*
Y524510D01*
X63500D01*
Y527050D01*
X58420D01*
Y524510D01*
X55880D01*
Y519430D01*
X58420D01*
X48260D02*
Y516890D01*
X53340D01*
Y519430D01*
X55880D01*
Y524510D01*
X53340D01*
Y527050D01*
X48260D01*
Y524510D01*
X45720D01*
Y519430D01*
X48260D01*
X-67310D02*
Y516890D01*
X-62230D01*
Y519430D01*
X-59690D01*
Y524510D01*
X-62230D01*
Y527050D01*
X-67310D01*
Y524510D01*
X-69850D01*
Y519430D01*
X-67310D01*
X-58420Y520700D02*
Y518160D01*
X-53340D01*
Y520700D01*
X-50800D01*
Y525780D01*
X-53340D01*
Y528320D01*
X-58420D01*
Y525780D01*
X-60960D01*
Y520700D01*
X-58420D01*
X-81280Y506730D02*
Y504190D01*
X-76200D01*
Y506730D01*
X-73660D01*
Y511810D01*
X-76200D01*
Y514350D01*
X-81280D01*
Y511810D01*
X-83820D01*
Y506730D01*
X-81280D01*
X-123190Y535940D02*
Y533400D01*
X-118110D01*
Y535940D01*
X-115570D01*
Y541020D01*
X-118110D01*
Y543560D01*
X-123190D01*
Y541020D01*
X-125730D01*
Y535940D01*
X-123190D01*
X-134620Y519430D02*
Y516890D01*
X-129540D01*
Y519430D01*
X-127000D01*
Y524510D01*
X-129540D01*
Y527050D01*
X-134620D01*
Y524510D01*
X-137160D01*
Y519430D01*
X-134620D01*
X-139700Y511810D02*
Y509270D01*
X-134620D01*
Y511810D01*
X-132080D01*
Y516890D01*
X-134620D01*
Y519430D01*
X-139700D01*
Y516890D01*
X-142240D01*
Y511810D01*
X-139700D01*
X-149860D02*
Y509270D01*
X-144780D01*
Y511810D01*
X-142240D01*
Y516890D01*
X-144780D01*
Y519430D01*
X-149860D01*
Y516890D01*
X-152400D01*
Y511810D01*
X-149860D01*
X-170180Y464820D02*
Y462280D01*
X-165100D01*
Y464820D01*
X-162560D01*
Y469900D01*
X-165100D01*
Y472440D01*
X-170180D01*
Y469900D01*
X-172720D01*
Y464820D01*
X-170180D01*
X-161290Y440690D02*
Y438150D01*
X-156210D01*
Y440690D01*
X-153670D01*
Y445770D01*
X-156210D01*
Y448310D01*
X-161290D01*
Y445770D01*
X-163830D01*
Y440690D01*
X-161290D01*
X-170180D02*
Y438150D01*
X-165100D01*
Y440690D01*
X-162560D01*
Y445770D01*
X-165100D01*
Y448310D01*
X-170180D01*
Y445770D01*
X-172720D01*
Y440690D01*
X-170180D01*
X82117Y369232D02*
Y366692D01*
X87197D01*
Y369232D01*
X89737D01*
Y374312D01*
X87197D01*
Y376852D01*
X82117D01*
Y374312D01*
X79577D01*
Y369232D01*
X82117D01*
M02*
