G04*
G04 #@! TF.GenerationSoftware,Altium Limited,Altium Designer,25.3.3 (18)*
G04*
G04 Layer_Color=15238730*
%FSLAX44Y44*%
%MOMM*%
G71*
G04*
G04 #@! TF.SameCoordinates,03B7C616-348C-440E-9E9C-07167A9097DF*
G04*
G04*
G04 #@! TF.FilePolarity,Positive*
G04*
G01*
G75*
%ADD10C,0.1000*%
%ADD14C,0.1500*%
G36*
X-651970Y637930D02*
X-646382D01*
Y590452D01*
X-651970D01*
Y586632D01*
X-707088D01*
Y590452D01*
X-712676D01*
Y637930D01*
X-707088D01*
Y641750D01*
X-651970D01*
Y637930D01*
D02*
G37*
G36*
X-82410Y484553D02*
X-74247D01*
Y476390D01*
X-71199D01*
Y417532D01*
X-74247D01*
Y409369D01*
X-82410D01*
Y406321D01*
X-141268D01*
Y409369D01*
X-149431D01*
Y417532D01*
X-152479D01*
Y476390D01*
X-149431D01*
Y484553D01*
X-141268D01*
Y487601D01*
X-82410D01*
Y484553D01*
D02*
G37*
G36*
X-118330Y546862D02*
Y546900D01*
X-77250D01*
Y546862D01*
X-74710D01*
Y514858D01*
X-77250D01*
Y514820D01*
X-118330D01*
Y514858D01*
D01*
Y546862D01*
D01*
D02*
G37*
G36*
X-721820Y857930D02*
X-716232D01*
Y810452D01*
X-721820D01*
Y806632D01*
X-776938D01*
Y810452D01*
X-782526D01*
Y857930D01*
X-776938D01*
Y861750D01*
X-721820D01*
Y857930D01*
D02*
G37*
G36*
X-709120Y1097930D02*
X-703532D01*
Y1050452D01*
X-709120D01*
Y1046632D01*
X-764238D01*
Y1050452D01*
X-769826D01*
Y1097930D01*
X-764238D01*
Y1101750D01*
X-709120D01*
Y1097930D01*
D02*
G37*
G36*
X-441150Y1247940D02*
X-435562D01*
Y1200462D01*
X-441150D01*
Y1196642D01*
X-496268D01*
Y1200462D01*
X-501856D01*
Y1247940D01*
X-496268D01*
Y1251760D01*
X-441150D01*
Y1247940D01*
D02*
G37*
G36*
X-135080Y1114590D02*
X-129492D01*
Y1067112D01*
X-135080D01*
Y1063292D01*
X-190198D01*
Y1067112D01*
X-195786D01*
Y1114590D01*
X-190198D01*
Y1118410D01*
X-135080D01*
Y1114590D01*
D02*
G37*
G36*
X57323Y447342D02*
Y450390D01*
X99999D01*
Y447342D01*
X101140D01*
Y418640D01*
X99999D01*
Y415592D01*
X57323D01*
Y418640D01*
X56182D01*
Y447342D01*
X57323D01*
D02*
G37*
G36*
X202232Y352727D02*
X187627D01*
Y401495D01*
X202232D01*
Y404670D01*
X247190D01*
Y401495D01*
X261795D01*
Y352727D01*
X247190D01*
Y349552D01*
X202232D01*
Y352727D01*
D02*
G37*
G36*
X709549Y637149D02*
X715137D01*
Y589671D01*
X709549D01*
Y585851D01*
X654431D01*
Y589671D01*
X648843D01*
Y637149D01*
X654431D01*
Y640969D01*
X709549D01*
Y637149D01*
D02*
G37*
G36*
X738680Y857930D02*
X744268D01*
Y810452D01*
X738680D01*
Y806632D01*
X683562D01*
Y810452D01*
X677974D01*
Y857930D01*
X683562D01*
Y861750D01*
X738680D01*
Y857930D01*
D02*
G37*
G36*
X153210Y1114590D02*
X158798D01*
Y1067112D01*
X153210D01*
Y1063292D01*
X98092D01*
Y1067112D01*
X92504D01*
Y1114590D01*
X98092D01*
Y1118410D01*
X153210D01*
Y1114590D01*
D02*
G37*
G36*
X454200Y1247930D02*
X459788D01*
Y1200452D01*
X454200D01*
Y1196632D01*
X399082D01*
Y1200452D01*
X393494D01*
Y1247930D01*
X399082D01*
Y1251750D01*
X454200D01*
Y1247930D01*
D02*
G37*
G36*
X705660Y1097930D02*
X711248D01*
Y1050452D01*
X705660D01*
Y1046632D01*
X650542D01*
Y1050452D01*
X644954D01*
Y1097930D01*
X650542D01*
Y1101750D01*
X705660D01*
Y1097930D01*
D02*
G37*
D10*
X-264510Y526690D02*
X-149510D01*
X-264510D02*
Y608690D01*
X-149510D01*
Y526690D02*
Y608690D01*
X-47780Y316710D02*
X12220D01*
Y246210D02*
Y316710D01*
X-47780Y246210D02*
X12220D01*
X-47780D02*
Y316710D01*
X12220D01*
Y246210D02*
Y316710D01*
X-47780Y246210D02*
X12220D01*
X-47780D02*
Y316710D01*
D14*
X339919Y340558D02*
Y503558D01*
Y340558D02*
X463419D01*
Y503558D01*
X339919D02*
X463419D01*
X89290Y389860D02*
X131290D01*
Y354360D02*
Y389860D01*
X89290Y354360D02*
X131290D01*
X89290D02*
Y389860D01*
X57323Y450390D02*
X99999D01*
Y447342D02*
Y450390D01*
Y415592D02*
Y418640D01*
X57323Y415592D02*
X99999D01*
X57323D02*
Y418640D01*
Y447342D02*
Y450390D01*
X56182Y447342D02*
X57323D01*
X99999D02*
X101140D01*
Y418640D02*
Y447342D01*
X99999Y418640D02*
X101140D01*
X56182D02*
X57323D01*
X56182D02*
Y447342D01*
X78320Y399600D02*
X89320D01*
X78320Y375100D02*
X89320D01*
Y399600D01*
X78320Y375100D02*
Y399600D01*
X83820Y384600D02*
Y390100D01*
X81070Y387350D02*
X86570D01*
X-214840Y307340D02*
X-209340D01*
X-212090Y304590D02*
Y310090D01*
X-206590Y297340D02*
Y317340D01*
X-217590Y297340D02*
Y317340D01*
Y297340D02*
X-206590D01*
X-217590Y317340D02*
X-206590D01*
X-70040Y525970D02*
X64960D01*
Y644970D01*
X-70040D02*
X64960D01*
X-70040Y525970D02*
Y644970D01*
X-281940Y1004510D02*
Y1009710D01*
X-284540Y1007110D02*
X-279340D01*
X-291440Y1012110D02*
X-272440D01*
X-291440Y1002110D02*
X-272440D01*
X-291440D02*
Y1012110D01*
X-272440Y1002110D02*
Y1012110D01*
X-394920Y645560D02*
Y1010560D01*
Y645560D02*
X410080D01*
Y1010560D01*
X-394920D02*
X410080D01*
X27730Y454660D02*
X33230D01*
X30480Y451910D02*
Y457410D01*
X24980Y442410D02*
Y466910D01*
X35980Y442410D02*
Y466910D01*
X24980Y442410D02*
X35980D01*
X24980Y466910D02*
X35980D01*
X21590Y441120D02*
Y463120D01*
X-34290Y441120D02*
Y463120D01*
Y441120D02*
X21590D01*
X-34290Y463120D02*
X21590D01*
X-11350Y452120D02*
X-1350D01*
X-6350Y447120D02*
Y457120D01*
X-30690Y408940D02*
X-25190D01*
X-27940Y406190D02*
Y411690D01*
X-33440Y398940D02*
Y418940D01*
X-22440Y398940D02*
Y418940D01*
X-33440Y398940D02*
X-22440D01*
X-33440Y418940D02*
X-22440D01*
X48920Y452200D02*
Y462200D01*
X67920Y452200D02*
Y462200D01*
X48920D02*
X67920D01*
X48920Y452200D02*
X67920D01*
X55820Y457200D02*
X61020D01*
X58420Y454600D02*
Y459800D01*
X-255799Y1030741D02*
Y1041741D01*
X-280299Y1030741D02*
Y1041741D01*
Y1030741D02*
X-255799D01*
X-280299Y1041741D02*
X-255799D01*
X-270799Y1036241D02*
X-265299D01*
X-268049Y1033491D02*
Y1038991D01*
X-279929Y1033281D02*
Y1044281D01*
X-304429Y1033281D02*
Y1044281D01*
Y1033281D02*
X-279929D01*
X-304429Y1044281D02*
X-279929D01*
X-294929Y1038781D02*
X-289429D01*
X-292179Y1036031D02*
Y1041531D01*
X-292999Y1029041D02*
X-268499D01*
X-283499Y1023541D02*
X-277999D01*
X-280749Y1020791D02*
Y1026291D01*
X-268499Y1018041D02*
Y1029041D01*
X-292999Y1018041D02*
Y1029041D01*
Y1018041D02*
X-268499D01*
X-81200Y638150D02*
X-71200D01*
X-81200Y619150D02*
X-71200D01*
Y638150D01*
X-81200Y619150D02*
Y638150D01*
X-76200Y626050D02*
Y631250D01*
X-78800Y628650D02*
X-73600D01*
X-165020Y396220D02*
X-155020D01*
X-165020Y415220D02*
X-155020D01*
X-165020Y396220D02*
Y415220D01*
X-155020Y396220D02*
Y415220D01*
X-160020Y403120D02*
Y408320D01*
X-162620Y405720D02*
X-157420D01*
X-174050Y405130D02*
X-168850D01*
X-171450Y402530D02*
Y407730D01*
X-166450Y395630D02*
Y414630D01*
X-176450Y395630D02*
Y414630D01*
X-166450D01*
X-176450Y395630D02*
X-166450D01*
X-297240Y248330D02*
X-292040D01*
X-294640Y245730D02*
Y250930D01*
X-289640Y238830D02*
Y257830D01*
X-299640Y238830D02*
Y257830D01*
Y238830D02*
X-289640D01*
X-299640Y257830D02*
X-289640D01*
X-285810Y248330D02*
X-280610D01*
X-283210Y245730D02*
Y250930D01*
X-278210Y238830D02*
Y257830D01*
X-288210Y238830D02*
Y257830D01*
Y238830D02*
X-278210D01*
X-288210Y257830D02*
X-278210D01*
X-319570Y291810D02*
Y350810D01*
X-247570Y291810D02*
Y350810D01*
X-319570Y291810D02*
X-247570D01*
X-319570Y350810D02*
X-247570D01*
X-288570Y321310D02*
X-278570D01*
X-283570Y316310D02*
Y326310D01*
X-274380Y248330D02*
X-269180D01*
X-271780Y245730D02*
Y250930D01*
X-266780Y238830D02*
Y257830D01*
X-276780Y238830D02*
Y257830D01*
Y238830D02*
X-266780D01*
X-276780Y257830D02*
X-266780D01*
X-295320Y294610D02*
X-253320D01*
X-295320Y259110D02*
Y294610D01*
Y259110D02*
X-253320D01*
Y294610D01*
X-215960Y279400D02*
X-210760D01*
X-213360Y276800D02*
Y282000D01*
X-208360Y269900D02*
Y288900D01*
X-218360Y269900D02*
Y288900D01*
Y269900D02*
X-208360D01*
X-218360Y288900D02*
X-208360D01*
X-205480Y265580D02*
Y328780D01*
Y265580D02*
X-172980D01*
Y328780D01*
X-205480D02*
X-172980D01*
X-216160Y270830D02*
Y334030D01*
X-248660D02*
X-216160D01*
X-248660Y270830D02*
Y334030D01*
Y270830D02*
X-216160D01*
X35640Y347370D02*
X45640D01*
X35640Y366370D02*
X45640D01*
X35640Y347370D02*
Y366370D01*
X45640Y347370D02*
Y366370D01*
X40640Y354270D02*
Y359470D01*
X38040Y356870D02*
X43240D01*
X27730Y378540D02*
X33230D01*
X30480Y375790D02*
Y381290D01*
X24980Y368540D02*
Y388540D01*
X35980Y368540D02*
Y388540D01*
X24980D02*
X35980D01*
X24980Y368540D02*
X35980D01*
X45720Y384850D02*
Y389850D01*
X40970Y387350D02*
X50470D01*
X37720Y383350D02*
X53720D01*
X37720Y391350D02*
X53720D01*
X37720Y383350D02*
Y391350D01*
X53720Y383350D02*
Y391350D01*
X142320Y386690D02*
X152320D01*
X142320Y367690D02*
X152320D01*
Y386690D01*
X142320Y367690D02*
Y386690D01*
X147320Y374590D02*
Y379790D01*
X144720Y377190D02*
X149920D01*
X130890Y386690D02*
X140890D01*
X130890Y367690D02*
X140890D01*
Y386690D01*
X130890Y367690D02*
Y386690D01*
X135890Y374590D02*
Y379790D01*
X133290Y377190D02*
X138490D01*
X128870Y392220D02*
Y397720D01*
X126120Y394970D02*
X131620D01*
X116620Y389470D02*
X141120D01*
X116620Y400470D02*
X141120D01*
Y389470D02*
Y400470D01*
X116620Y389470D02*
Y400470D01*
X162600Y354330D02*
X167600D01*
X165100Y349580D02*
Y359080D01*
X169100Y346330D02*
Y362330D01*
X161100Y346330D02*
Y362330D01*
X169100D01*
X161100Y346330D02*
X169100D01*
X79800Y356270D02*
X85300D01*
X82550Y353520D02*
Y359020D01*
X88050Y344020D02*
Y368520D01*
X77050Y344020D02*
Y368520D01*
X88050D01*
X77050Y344020D02*
X88050D01*
X170180Y365550D02*
Y371050D01*
X167430Y368300D02*
X172930D01*
X157930Y362800D02*
X182430D01*
X157930Y373800D02*
X182430D01*
Y362800D02*
Y373800D01*
X157930Y362800D02*
Y373800D01*
X67310Y359450D02*
Y364450D01*
X62560Y361950D02*
X72060D01*
X59310Y357950D02*
X75310D01*
X59310Y365950D02*
X75310D01*
Y357950D02*
Y365950D01*
X59310Y357950D02*
Y365950D01*
X49320Y367030D02*
X54820D01*
X52070Y364280D02*
Y369780D01*
X46570Y357030D02*
Y377030D01*
X57570Y357030D02*
Y377030D01*
X46570Y357030D02*
X57570D01*
X46570Y377030D02*
X57570D01*
X88900Y319830D02*
Y325330D01*
X86150Y322580D02*
X91650D01*
X78900Y328080D02*
X98900D01*
X78900Y317080D02*
X98900D01*
Y328080D01*
X78900Y317080D02*
Y328080D01*
X76200Y241090D02*
Y246590D01*
X73450Y243840D02*
X78950D01*
X66200Y249340D02*
X86200D01*
X66200Y238340D02*
X86200D01*
Y249340D01*
X66200Y238340D02*
Y249340D01*
X135730Y243210D02*
Y323210D01*
X52230Y243210D02*
X135730D01*
X52230D02*
Y323210D01*
X135730D01*
X243340Y251910D02*
Y339910D01*
X371340Y251910D02*
Y339910D01*
X243340D02*
X371340D01*
X243340Y251910D02*
X371340D01*
X302340Y295910D02*
X312340D01*
X307340Y290910D02*
Y300910D01*
X284189Y395361D02*
Y405361D01*
X265189Y395361D02*
Y405361D01*
Y395361D02*
X284189D01*
X265189Y405361D02*
X284189D01*
X272089Y400361D02*
X277289D01*
X274689Y397761D02*
Y402961D01*
X257140Y342690D02*
Y348190D01*
X254390Y345440D02*
X259890D01*
X244890Y350940D02*
X269390D01*
X244890Y339940D02*
X269390D01*
X244890D02*
Y350940D01*
X269390Y339940D02*
Y350940D01*
X289490Y340440D02*
Y350440D01*
X270490Y340440D02*
Y350440D01*
Y340440D02*
X289490D01*
X270490Y350440D02*
X289490D01*
X277390Y345440D02*
X282590D01*
X279990Y342840D02*
Y348040D01*
X287420Y365500D02*
X337420D01*
X287420Y431500D02*
X337420D01*
X287420Y365500D02*
Y431500D01*
X337420Y365500D02*
Y431500D01*
X312420Y393500D02*
Y403500D01*
X307420Y398500D02*
X317420D01*
X273650Y408730D02*
Y414230D01*
X270900Y411480D02*
X276400D01*
X261400Y405980D02*
X285900D01*
X261400Y416980D02*
X285900D01*
Y405980D02*
Y416980D01*
X261400Y405980D02*
Y416980D01*
X283741Y365761D02*
Y375761D01*
X264741Y365761D02*
Y375761D01*
Y365761D02*
X283741D01*
X264741Y375761D02*
X283741D01*
X271641Y370761D02*
X276841D01*
X274241Y368161D02*
Y373361D01*
X265500Y383620D02*
Y393620D01*
X284500Y383620D02*
Y393620D01*
X265500D02*
X284500D01*
X265500Y383620D02*
X284500D01*
X272400Y388620D02*
X277600D01*
X275000Y386020D02*
Y391220D01*
X202232Y349552D02*
X247190D01*
X202232D02*
Y352727D01*
X187627D02*
X202232D01*
X187627D02*
Y401495D01*
X202232D01*
Y404670D01*
X247190D01*
Y401495D02*
Y404670D01*
Y401495D02*
X261795D01*
Y352727D02*
Y401495D01*
X247190Y352727D02*
X261795D01*
X247190Y349552D02*
Y352727D01*
X-67370Y414020D02*
X-62170D01*
X-64770Y411420D02*
Y416620D01*
X-59770Y404520D02*
Y423520D01*
X-69770Y404520D02*
Y423520D01*
X-59770D01*
X-69770Y404520D02*
X-59770D01*
X80200Y332780D02*
Y337780D01*
X75450Y335280D02*
X84950D01*
X72200Y339280D02*
X88200D01*
X72200Y331280D02*
X88200D01*
Y339280D01*
X72200Y331280D02*
Y339280D01*
X146070Y297260D02*
Y307260D01*
X127070Y297260D02*
Y307260D01*
X146070D01*
X127070Y297260D02*
X146070D01*
X133970Y302260D02*
X139170D01*
X136570Y299660D02*
Y304860D01*
X146660Y285830D02*
Y295830D01*
X127660Y285830D02*
Y295830D01*
X146660D01*
X127660Y285830D02*
X146660D01*
X134560Y290830D02*
X139760D01*
X137160Y288230D02*
Y293430D01*
X24980Y389970D02*
X35980D01*
X24980Y409970D02*
X35980D01*
Y389970D02*
Y409970D01*
X24980Y389970D02*
Y409970D01*
X30480Y397220D02*
Y402720D01*
X27730Y399970D02*
X33230D01*
X-22780Y427330D02*
X-12780D01*
X-22780Y408330D02*
X-12780D01*
Y427330D01*
X-22780Y408330D02*
Y427330D01*
X-17780Y415230D02*
Y420430D01*
X-20380Y417830D02*
X-15180D01*
X690290Y548670D02*
Y584170D01*
X648290D02*
X690290D01*
X648290Y548670D02*
Y584170D01*
Y548670D02*
X690290D01*
X640020Y551770D02*
X645220D01*
X642620Y549170D02*
Y554370D01*
X647620Y542270D02*
Y561270D01*
X637620Y542270D02*
Y561270D01*
X647620D01*
X637620Y542270D02*
X647620D01*
X-68719Y321231D02*
X-63519D01*
X-66119Y318631D02*
Y323831D01*
X-61119Y311731D02*
Y330731D01*
X-71119Y311731D02*
Y330731D01*
X-61119D01*
X-71119Y311731D02*
X-61119D01*
X-97268Y361871D02*
X-87268D01*
X-97268Y380871D02*
X-87268D01*
X-97268Y361871D02*
Y380871D01*
X-87268Y361871D02*
Y380871D01*
X-92268Y368771D02*
Y373971D01*
X-94868Y371371D02*
X-89668D01*
X-107870Y362610D02*
X-97870D01*
X-107870Y381610D02*
X-97870D01*
X-107870Y362610D02*
Y381610D01*
X-97870Y362610D02*
Y381610D01*
X-102870Y369510D02*
Y374710D01*
X-105470Y372110D02*
X-100270D01*
X-131230Y390710D02*
X-120230D01*
X-131230Y366210D02*
X-120230D01*
Y390710D01*
X-131230Y366210D02*
Y390710D01*
X-125730Y375710D02*
Y381210D01*
X-128480Y378460D02*
X-122980D01*
X-121070Y390710D02*
X-110070D01*
X-121070Y366210D02*
X-110070D01*
Y390710D01*
X-121070Y366210D02*
Y390710D01*
X-115570Y375710D02*
Y381210D01*
X-118320Y378460D02*
X-112820D01*
X-140970Y387290D02*
Y392490D01*
X-143570Y389890D02*
X-138370D01*
X-150470Y384890D02*
X-131470D01*
X-150470Y394890D02*
X-131470D01*
Y384890D02*
Y394890D01*
X-150470Y384890D02*
Y394890D01*
X-140970Y398720D02*
Y403920D01*
X-143570Y401320D02*
X-138370D01*
X-150470Y396320D02*
X-131470D01*
X-150470Y406320D02*
X-131470D01*
Y396320D02*
Y406320D01*
X-150470Y396320D02*
Y406320D01*
X-83210Y504270D02*
Y514270D01*
X-102210Y504270D02*
Y514270D01*
Y504270D02*
X-83210D01*
X-102210Y514270D02*
X-83210D01*
X-95310Y509270D02*
X-90110D01*
X-92710Y506670D02*
Y511870D01*
X-165020Y438760D02*
X-155020D01*
X-165020Y419760D02*
X-155020D01*
Y438760D01*
X-165020Y419760D02*
Y438760D01*
X-160020Y426660D02*
Y431860D01*
X-162620Y429260D02*
X-157420D01*
X-176450Y438760D02*
X-166450D01*
X-176450Y419760D02*
X-166450D01*
Y438760D01*
X-176450Y419760D02*
Y438760D01*
X-171450Y426660D02*
Y431860D01*
X-174050Y429260D02*
X-168850D01*
X-74247Y476390D02*
Y484553D01*
Y476390D02*
X-71199D01*
Y417532D02*
Y476390D01*
X-74247Y417532D02*
X-71199D01*
X-74247Y409369D02*
Y417532D01*
X-82410Y409369D02*
X-74247D01*
X-82410Y406321D02*
Y409369D01*
X-141268Y406321D02*
X-82410D01*
X-141268D02*
Y409369D01*
X-149431D02*
X-141268D01*
X-149431D02*
Y417532D01*
X-152479D02*
X-149431D01*
X-152479D02*
Y476390D01*
X-149431D01*
Y484553D01*
X-141268D01*
Y487601D01*
X-82410D01*
Y484553D02*
Y487601D01*
Y484553D02*
X-74247D01*
X-162480Y471780D02*
X-152480D01*
X-162480Y452780D02*
X-152480D01*
Y471780D01*
X-162480Y452780D02*
Y471780D01*
X-157480Y459680D02*
Y464880D01*
X-160080Y462280D02*
X-154880D01*
X-116760Y492150D02*
Y511150D01*
X-111760Y499050D02*
Y504250D01*
X-114360Y501650D02*
X-109160D01*
X-116760Y511150D02*
X-106760D01*
X-116760Y492150D02*
X-106760D01*
Y511150D01*
X-152320D02*
X-142320D01*
X-152320Y492150D02*
X-142320D01*
Y511150D01*
X-152320Y492150D02*
Y511150D01*
X-147320Y499050D02*
Y504250D01*
X-149920Y501650D02*
X-144720D01*
X-142160Y511150D02*
X-132160D01*
X-142160Y492150D02*
X-132160D01*
Y511150D01*
X-142160Y492150D02*
Y511150D01*
X-137160Y499050D02*
Y504250D01*
X-139760Y501650D02*
X-134560D01*
X-128190Y528930D02*
X-118190D01*
X-128190Y509930D02*
X-118190D01*
Y528930D01*
X-128190Y509930D02*
Y528930D01*
X-123190Y516830D02*
Y522030D01*
X-125790Y519430D02*
X-120590D01*
X-77250Y514858D02*
X-74710D01*
Y546862D01*
X-77250D02*
X-74710D01*
X-118330D02*
Y546900D01*
Y514820D02*
Y514858D01*
Y514820D02*
X-77250D01*
Y514858D01*
Y546862D02*
Y546900D01*
X-118330D02*
X-77250D01*
X-118330Y514858D02*
Y546862D01*
X5851Y302631D02*
X16851D01*
X5851Y327131D02*
X16851D01*
X5851Y302631D02*
Y327131D01*
X16851Y302631D02*
Y327131D01*
X11351Y312131D02*
Y317631D01*
X8601Y314881D02*
X14101D01*
X16960Y314540D02*
Y325540D01*
X41460Y314540D02*
Y325540D01*
X16960D02*
X41460D01*
X16960Y314540D02*
X41460D01*
X26460Y320040D02*
X31960D01*
X29210Y317290D02*
Y322790D01*
X-67520Y356870D02*
X-62020D01*
X-64770Y354120D02*
Y359620D01*
X-70270Y344620D02*
Y369120D01*
X-59270Y344620D02*
Y369120D01*
X-70270Y344620D02*
X-59270D01*
X-70270Y369120D02*
X-59270D01*
X88080Y405980D02*
Y416980D01*
X112580Y405980D02*
Y416980D01*
X88080D02*
X112580D01*
X88080Y405980D02*
X112580D01*
X97580Y411480D02*
X103080D01*
X100330Y408730D02*
Y414230D01*
X127850Y447860D02*
X138850D01*
X130600Y435610D02*
X136100D01*
X133350Y432860D02*
Y438360D01*
X127850Y423360D02*
Y447860D01*
X138850Y423360D02*
Y447860D01*
X127850Y423360D02*
X138850D01*
X104141Y446301D02*
X114141D01*
X104141Y427301D02*
X114141D01*
Y446301D01*
X104141Y427301D02*
Y446301D01*
X109141Y434201D02*
Y439401D01*
X106541Y436801D02*
X111741D01*
X116841Y427301D02*
X126841D01*
X116841Y446301D02*
X126841D01*
X116841Y427301D02*
Y446301D01*
X126841Y427301D02*
Y446301D01*
X121841Y434201D02*
Y439401D01*
X119241Y436801D02*
X124441D01*
X67920Y463630D02*
Y473630D01*
X48920Y463630D02*
Y473630D01*
Y463630D02*
X67920D01*
X48920Y473630D02*
X67920D01*
X55820Y468630D02*
X61020D01*
X58420Y466030D02*
Y471230D01*
X-67370Y451530D02*
X-62170D01*
X-64770Y448930D02*
Y454130D01*
X-59770Y442030D02*
Y461030D01*
X-69770Y442030D02*
Y461030D01*
X-59770D01*
X-69770Y442030D02*
X-59770D01*
X81070Y463550D02*
X86570D01*
X83820Y460800D02*
Y466300D01*
X89320Y451300D02*
Y475800D01*
X78320Y451300D02*
Y475800D01*
X89320D01*
X78320Y451300D02*
X89320D01*
X1981Y311591D02*
Y376591D01*
X-58019D02*
X1981D01*
X-58019Y311591D02*
Y376591D01*
Y311591D02*
X1981D01*
X639870Y580390D02*
X645370D01*
X642620Y577640D02*
Y583140D01*
X637120Y568140D02*
Y592640D01*
X648120Y568140D02*
Y592640D01*
X637120Y568140D02*
X648120D01*
X637120Y592640D02*
X648120D01*
X-245030Y465430D02*
X-235030D01*
X-245030Y446430D02*
X-235030D01*
X-245030D02*
Y465430D01*
X-235030Y446430D02*
Y465430D01*
X-240030Y453330D02*
Y458530D01*
X-242630Y455930D02*
X-237430D01*
X-245030Y444520D02*
X-235030D01*
X-245030Y425520D02*
X-235030D01*
X-245030D02*
Y444520D01*
X-235030Y425520D02*
Y444520D01*
X-240030Y432420D02*
Y437620D01*
X-242630Y435020D02*
X-237430D01*
X-246040Y416120D02*
Y488120D01*
X-330540Y416120D02*
X-246040D01*
X-330540D02*
Y488120D01*
X-246040D01*
X-428080Y235870D02*
X-324080D01*
Y330870D01*
X-428080D02*
X-324080D01*
X-428080Y235870D02*
Y330870D01*
X-328850Y334620D02*
X-318850D01*
X-328850Y315620D02*
X-318850D01*
X-328850D02*
Y334620D01*
X-318850Y315620D02*
Y334620D01*
X-323850Y322520D02*
Y327720D01*
X-326450Y325120D02*
X-321250D01*
X-467360Y342690D02*
Y348190D01*
X-470110Y345440D02*
X-464610D01*
X-479610Y339940D02*
X-455110D01*
X-479610Y350940D02*
X-455110D01*
X-479610Y339940D02*
Y350940D01*
X-455110Y339940D02*
Y350940D01*
X-453810Y338270D02*
X-442810D01*
X-453810Y362770D02*
X-442810D01*
Y338270D02*
Y362770D01*
X-453810Y338270D02*
Y362770D01*
X-448310Y347770D02*
Y353270D01*
X-451060Y350520D02*
X-445560D01*
X-505380Y297840D02*
X-495380D01*
X-505380Y316840D02*
X-495380D01*
Y297840D02*
Y316840D01*
X-505380Y297840D02*
Y316840D01*
X-500380Y304740D02*
Y309940D01*
X-502980Y307340D02*
X-497780D01*
X-438070Y325730D02*
X-428070D01*
X-438070Y306730D02*
X-428070D01*
X-438070D02*
Y325730D01*
X-428070Y306730D02*
Y325730D01*
X-433070Y313630D02*
Y318830D01*
X-435670Y316230D02*
X-430470D01*
X-493950Y297840D02*
X-483950D01*
X-493950Y316840D02*
X-483950D01*
Y297840D02*
Y316840D01*
X-493950Y297840D02*
Y316840D01*
X-488950Y304740D02*
Y309940D01*
X-491550Y307340D02*
X-486350D01*
X-439010Y303310D02*
Y339310D01*
X-483010Y303310D02*
X-439010D01*
X-483010D02*
Y339310D01*
X-439010D01*
X-387270Y346050D02*
X-377270D01*
X-387270Y327050D02*
X-377270D01*
X-387270D02*
Y346050D01*
X-377270Y327050D02*
Y346050D01*
X-382270Y333950D02*
Y339150D01*
X-384870Y336550D02*
X-379670D01*
X-418040Y353060D02*
X-412540D01*
X-415290Y350310D02*
Y355810D01*
X-409790Y343060D02*
Y363060D01*
X-420790Y343060D02*
Y363060D01*
Y343060D02*
X-409790D01*
X-420790Y363060D02*
X-409790D01*
X-431720Y362560D02*
X-421720D01*
X-431720Y343560D02*
X-421720D01*
X-431720D02*
Y362560D01*
X-421720Y343560D02*
Y362560D01*
X-426720Y350460D02*
Y355660D01*
X-429320Y353060D02*
X-424120D01*
X-398780Y357930D02*
Y363430D01*
X-401530Y360680D02*
X-396030D01*
X-408780Y355180D02*
X-388780D01*
X-408780Y366180D02*
X-388780D01*
X-408780Y355180D02*
Y366180D01*
X-388780Y355180D02*
Y366180D01*
X-406610Y342900D02*
X-401110D01*
X-403860Y340150D02*
Y345650D01*
X-398360Y330650D02*
Y355150D01*
X-409360Y330650D02*
Y355150D01*
Y330650D02*
X-398360D01*
X-409360Y355150D02*
X-398360D01*
X-512930Y411220D02*
X-449730D01*
X-512930Y378720D02*
Y411220D01*
Y378720D02*
X-449730D01*
Y411220D01*
X-621800Y431230D02*
X-609100D01*
X-615450Y424880D02*
Y437580D01*
X-647450Y386230D02*
X-577450D01*
Y476230D01*
X-647450D02*
X-577450D01*
X-647450Y386230D02*
Y476230D01*
X-535860Y375310D02*
X-525860D01*
X-535860Y394310D02*
X-525860D01*
Y375310D02*
Y394310D01*
X-535860Y375310D02*
Y394310D01*
X-530860Y382210D02*
Y387410D01*
X-533460Y384810D02*
X-528260D01*
X-524430Y375310D02*
X-514430D01*
X-524430Y394310D02*
X-514430D01*
Y375310D02*
Y394310D01*
X-524430Y375310D02*
Y394310D01*
X-519430Y382210D02*
Y387410D01*
X-522030Y384810D02*
X-516830D01*
X-573760Y348300D02*
X-538760D01*
X-573760Y419420D02*
X-538760D01*
Y348300D02*
Y419420D01*
X-573760Y348300D02*
Y419420D01*
X-556260Y378860D02*
Y388860D01*
X-561260Y383860D02*
X-551260D01*
X718760Y594360D02*
X723960D01*
X721360Y591760D02*
Y596960D01*
X726360Y584860D02*
Y603860D01*
X716360Y584860D02*
Y603860D01*
X726360D01*
X716360Y584860D02*
X726360D01*
X709549Y637149D02*
Y640969D01*
X654431D02*
X709549D01*
X654431Y637149D02*
Y640969D01*
Y585851D02*
Y589671D01*
Y585851D02*
X709549D01*
Y589671D01*
Y637149D02*
X715137D01*
X648843D02*
X654431D01*
X648843Y589671D02*
Y637149D01*
Y589671D02*
X654431D01*
X709549D02*
X715137D01*
Y637149D01*
X749161Y813991D02*
X754361D01*
X751761Y811391D02*
Y816591D01*
X756761Y804491D02*
Y823491D01*
X746761Y804491D02*
Y823491D01*
X756761D01*
X746761Y804491D02*
X756761D01*
X738680Y857930D02*
Y861750D01*
X683562D02*
X738680D01*
X683562Y857930D02*
Y861750D01*
Y806632D02*
Y810452D01*
Y806632D02*
X738680D01*
Y810452D01*
Y857930D02*
X744268D01*
X677974D02*
X683562D01*
X677974Y810452D02*
Y857930D01*
Y810452D02*
X683562D01*
X738680D02*
X744268D01*
Y857930D01*
X717411Y1052751D02*
X722611D01*
X720011Y1050151D02*
Y1055351D01*
X725011Y1043251D02*
Y1062251D01*
X715011Y1043251D02*
Y1062251D01*
X725011D01*
X715011Y1043251D02*
X725011D01*
X711248Y1050452D02*
Y1097930D01*
X705660Y1050452D02*
X711248D01*
X644954D02*
X650542D01*
X644954D02*
Y1097930D01*
X650542D01*
X705660D02*
X711248D01*
X705660Y1046632D02*
Y1050452D01*
X650542Y1046632D02*
X705660D01*
X650542D02*
Y1050452D01*
Y1097930D02*
Y1101750D01*
X705660D01*
Y1097930D02*
Y1101750D01*
X464681Y1202611D02*
X469881D01*
X467281Y1200011D02*
Y1205211D01*
X472281Y1193111D02*
Y1212111D01*
X462281Y1193111D02*
Y1212111D01*
X472281D01*
X462281Y1193111D02*
X472281D01*
X454200Y1247930D02*
Y1251750D01*
X399082D02*
X454200D01*
X399082Y1247930D02*
Y1251750D01*
Y1196632D02*
Y1200452D01*
Y1196632D02*
X454200D01*
Y1200452D01*
Y1247930D02*
X459788D01*
X393494D02*
X399082D01*
X393494Y1200452D02*
Y1247930D01*
Y1200452D02*
X399082D01*
X454200D02*
X459788D01*
Y1247930D01*
X163691Y1069261D02*
X168891D01*
X166291Y1066661D02*
Y1071861D01*
X171291Y1059761D02*
Y1078761D01*
X161291Y1059761D02*
Y1078761D01*
X171291D01*
X161291Y1059761D02*
X171291D01*
X153210Y1114590D02*
Y1118410D01*
X98092D02*
X153210D01*
X98092Y1114590D02*
Y1118410D01*
Y1063292D02*
Y1067112D01*
Y1063292D02*
X153210D01*
Y1067112D01*
Y1114590D02*
X158798D01*
X92504D02*
X98092D01*
X92504Y1067112D02*
Y1114590D01*
Y1067112D02*
X98092D01*
X153210D02*
X158798D01*
Y1114590D01*
X-123329Y1069261D02*
X-118129D01*
X-120729Y1066661D02*
Y1071861D01*
X-115729Y1059761D02*
Y1078761D01*
X-125729Y1059761D02*
Y1078761D01*
X-115729D01*
X-125729Y1059761D02*
X-115729D01*
X-135080Y1114590D02*
Y1118410D01*
X-190198D02*
X-135080D01*
X-190198Y1114590D02*
Y1118410D01*
Y1063292D02*
Y1067112D01*
Y1063292D02*
X-135080D01*
Y1067112D01*
Y1114590D02*
X-129492D01*
X-195786D02*
X-190198D01*
X-195786Y1067112D02*
Y1114590D01*
Y1067112D02*
X-190198D01*
X-135080D02*
X-129492D01*
Y1114590D01*
X-448389Y1188581D02*
Y1193781D01*
X-450989Y1191181D02*
X-445789D01*
X-457889Y1186181D02*
X-438889D01*
X-457889Y1196181D02*
X-438889D01*
Y1186181D02*
Y1196181D01*
X-457889Y1186181D02*
Y1196181D01*
X-441150Y1247940D02*
Y1251760D01*
X-496268D02*
X-441150D01*
X-496268Y1247940D02*
Y1251760D01*
Y1196642D02*
Y1200462D01*
Y1196642D02*
X-441150D01*
Y1200462D01*
Y1247940D02*
X-435562D01*
X-501856D02*
X-496268D01*
X-501856Y1200462D02*
Y1247940D01*
Y1200462D02*
X-496268D01*
X-441150D02*
X-435562D01*
Y1247940D01*
X-718959Y1040051D02*
X-713759D01*
X-725859Y1035051D02*
X-706859D01*
X-725859Y1045051D02*
X-706859D01*
Y1035051D02*
Y1045051D01*
X-725859Y1035051D02*
Y1045051D01*
X-716359Y1037451D02*
Y1042651D01*
X-709120Y1097930D02*
Y1101750D01*
X-764238D02*
X-709120D01*
X-764238Y1097930D02*
Y1101750D01*
Y1046632D02*
Y1050452D01*
Y1046632D02*
X-709120D01*
Y1050452D01*
Y1097930D02*
X-703532D01*
X-769826D02*
X-764238D01*
X-769826Y1050452D02*
Y1097930D01*
Y1050452D02*
X-764238D01*
X-709120D02*
X-703532D01*
Y1097930D01*
X-721820Y857930D02*
Y861750D01*
X-776938D02*
X-721820D01*
X-776938Y857930D02*
Y861750D01*
Y806632D02*
Y810452D01*
Y806632D02*
X-721820D01*
Y810452D01*
Y857930D02*
X-716232D01*
X-782526D02*
X-776938D01*
X-782526Y810452D02*
Y857930D01*
Y810452D02*
X-776938D01*
X-721820D02*
X-716232D01*
Y857930D01*
X-712609Y812721D02*
X-707409D01*
X-710009Y810121D02*
Y815321D01*
X-705009Y803221D02*
Y822221D01*
X-715009Y803221D02*
Y822221D01*
X-705009D01*
X-715009Y803221D02*
X-705009D01*
X-646382Y590452D02*
Y637930D01*
X-651970D02*
Y641750D01*
X-707088D02*
X-651970D01*
X-707088Y637930D02*
Y641750D01*
Y586632D02*
Y590452D01*
Y586632D02*
X-651970D01*
Y590452D01*
Y637930D02*
X-646382D01*
X-712676D02*
X-707088D01*
X-712676Y590452D02*
Y637930D01*
Y590452D02*
X-707088D01*
X-651970D02*
X-646382D01*
X-274740Y571950D02*
X-263740D01*
X-274740Y596450D02*
X-263740D01*
X-274740Y571950D02*
Y596450D01*
X-263740Y571950D02*
Y596450D01*
X-269240Y581450D02*
Y586950D01*
X-271990Y584200D02*
X-266490D01*
X-645159Y583511D02*
X-635159D01*
X-645159Y602511D02*
X-635159D01*
X-645159Y583511D02*
Y602511D01*
X-635159Y583511D02*
Y602511D01*
X-640159Y590411D02*
Y595611D01*
X-642759Y593011D02*
X-637559D01*
M02*
