G04*
G04 #@! TF.GenerationSoftware,Altium Limited,Altium Designer,25.3.3 (18)*
G04*
G04 Layer_Color=32896*
%FSLAX44Y44*%
%MOMM*%
G71*
G04*
G04 #@! TF.SameCoordinates,03B7C616-348C-440E-9E9C-07167A9097DF*
G04*
G04*
G04 #@! TF.FilePolarity,Positive*
G04*
G01*
G75*
%ADD11C,0.2000*%
%ADD14C,0.1500*%
%ADD16C,0.0900*%
D11*
X-399080Y311870D02*
G03*
X-399080Y309870I0J-1000D01*
G01*
D02*
G03*
X-399080Y311870I0J1000D01*
G01*
D14*
X-217170Y307340D02*
X-207010D01*
X-217170Y317340D02*
X-215900D01*
X-217170Y297340D02*
Y317340D01*
Y297340D02*
X-215900D01*
X-208280D02*
X-207010D01*
Y317340D01*
X-208280D02*
X-207010D01*
X-291640Y258330D02*
X-289640D01*
Y238330D02*
Y258330D01*
X-291640Y238330D02*
X-289640D01*
X-299640D02*
X-297640D01*
X-299640D02*
Y258330D01*
X-297640D01*
X-280210D02*
X-278210D01*
Y238330D02*
Y258330D01*
X-280210Y238330D02*
X-278210D01*
X-288210D02*
X-286210D01*
X-288210D02*
Y258330D01*
X-286210D01*
X-308570Y295310D02*
X-258570D01*
X-308570Y347310D02*
X-258570D01*
X-308570Y295310D02*
Y308310D01*
X-258570Y295310D02*
Y308310D01*
X-308570Y334310D02*
Y347310D01*
X-258570Y334310D02*
Y347310D01*
X-268780Y258330D02*
X-266780D01*
Y238330D02*
Y258330D01*
X-268780Y238330D02*
X-266780D01*
X-276780D02*
X-274780D01*
X-276780D02*
Y258330D01*
X-274780D01*
X-277320Y291360D02*
X-271320D01*
X-277320Y262360D02*
Y291360D01*
Y262360D02*
X-271320D01*
Y291360D01*
X-267820Y291860D02*
X-255820D01*
X-210360Y289400D02*
X-208360D01*
Y269400D02*
Y289400D01*
X-210360Y269400D02*
X-208360D01*
X-218360D02*
X-216360D01*
X-218360D02*
Y289400D01*
X-216360D01*
X-202230Y277680D02*
Y327280D01*
X-176230Y277680D02*
Y316680D01*
X-219410Y272330D02*
Y321930D01*
X-245410Y282930D02*
Y321930D01*
X25400Y378540D02*
X35560D01*
X34290Y368540D02*
X35560D01*
Y388540D01*
X34290D02*
X35560D01*
X25400D02*
X26670D01*
X25400Y368540D02*
Y388540D01*
Y368540D02*
X26670D01*
X54720Y382350D02*
Y385350D01*
X36720Y382350D02*
X54720D01*
X36720D02*
Y385350D01*
X54720Y389350D02*
Y392350D01*
X36720D02*
X54720D01*
X36720Y389350D02*
Y392350D01*
X45720Y382350D02*
Y392350D01*
X88900Y317500D02*
Y327660D01*
X78900Y317500D02*
Y318770D01*
Y317500D02*
X98900D01*
Y318770D01*
Y326390D02*
Y327660D01*
X78900D02*
X98900D01*
X78900Y326390D02*
Y327660D01*
X76200Y238760D02*
Y248920D01*
X66200Y238760D02*
Y240030D01*
Y238760D02*
X86200D01*
Y240030D01*
Y247650D02*
Y248920D01*
X66200D02*
X86200D01*
X66200Y247650D02*
Y248920D01*
X62230Y272710D02*
X73980D01*
X62230D02*
Y293710D01*
X113980Y272710D02*
X125730D01*
Y293710D01*
X71200Y337280D02*
Y340280D01*
X89200D01*
Y337280D02*
Y340280D01*
X71200Y330280D02*
Y333280D01*
Y330280D02*
X89200D01*
Y333280D01*
X80200Y330280D02*
Y340280D01*
X146570Y305260D02*
Y307260D01*
X126570D02*
X146570D01*
X126570Y305260D02*
Y307260D01*
Y297260D02*
Y299260D01*
Y297260D02*
X146570D01*
Y299260D01*
X147160Y293830D02*
Y295830D01*
X127160D02*
X147160D01*
X127160Y293830D02*
Y295830D01*
Y285830D02*
Y287830D01*
Y285830D02*
X147160D01*
Y287830D01*
X25400Y389970D02*
X26670D01*
X25400D02*
Y409970D01*
X26670D01*
X34290D02*
X35560D01*
Y389970D02*
Y409970D01*
X34290Y389970D02*
X35560D01*
X25400Y399970D02*
X35560D01*
X-245030Y465930D02*
X-243030D01*
X-245030Y445930D02*
Y465930D01*
Y445930D02*
X-243030D01*
X-237030D02*
X-235030D01*
Y465930D01*
X-237030D02*
X-235030D01*
X-245030Y445020D02*
X-243030D01*
X-245030Y425020D02*
Y445020D01*
Y425020D02*
X-243030D01*
X-237030D02*
X-235030D01*
Y445020D01*
X-237030D02*
X-235030D01*
X-265040Y483370D02*
X-248540D01*
X-270790Y419620D02*
Y484620D01*
X-305790Y419620D02*
X-270790D01*
X-305790D02*
Y484620D01*
X-270790D01*
X-415830Y295870D02*
X-401080D01*
X-415830Y290870D02*
Y295870D01*
X-351080D02*
X-336330D01*
Y290870D02*
Y295870D01*
X-415830Y245870D02*
Y250870D01*
Y245870D02*
X-336330D01*
Y250870D01*
X-328850Y335120D02*
X-326850D01*
X-328850Y315120D02*
Y335120D01*
Y315120D02*
X-326850D01*
X-320850D02*
X-318850D01*
Y335120D01*
X-320850D02*
X-318850D01*
X-467360Y340360D02*
Y350520D01*
X-455930Y349250D02*
Y350520D01*
X-478790D02*
X-455930D01*
X-478790Y349250D02*
Y350520D01*
Y340360D02*
Y341630D01*
Y340360D02*
X-455930D01*
Y341630D01*
X-453390Y339090D02*
X-452120D01*
X-453390D02*
Y361950D01*
X-452120D01*
X-444500D02*
X-443230D01*
Y339090D02*
Y361950D01*
X-444500Y339090D02*
X-443230D01*
X-453390Y350520D02*
X-443230D01*
X-497380Y297340D02*
X-495380D01*
Y317340D01*
X-497380D02*
X-495380D01*
X-505380D02*
X-503380D01*
X-505380Y297340D02*
Y317340D01*
Y297340D02*
X-503380D01*
X-438070Y326230D02*
X-436070D01*
X-438070Y306230D02*
Y326230D01*
Y306230D02*
X-436070D01*
X-430070D02*
X-428070D01*
Y326230D01*
X-430070D02*
X-428070D01*
X-485950Y297340D02*
X-483950D01*
Y317340D01*
X-485950D02*
X-483950D01*
X-493950D02*
X-491950D01*
X-493950Y297340D02*
Y317340D01*
Y297340D02*
X-491950D01*
X-455510Y336310D02*
X-441510D01*
X-459010Y306810D02*
Y335810D01*
X-463010Y306810D02*
X-459010D01*
X-463010D02*
Y335810D01*
X-459010D01*
X-387270Y346550D02*
X-385270D01*
X-387270Y326550D02*
Y346550D01*
Y326550D02*
X-385270D01*
X-379270D02*
X-377270D01*
Y346550D01*
X-379270D02*
X-377270D01*
X-420370Y353060D02*
X-410210D01*
X-420370Y363060D02*
X-419100D01*
X-420370Y343060D02*
Y363060D01*
Y343060D02*
X-419100D01*
X-411480D02*
X-410210D01*
Y363060D01*
X-411480D02*
X-410210D01*
X-431720D02*
X-429720D01*
X-431720Y343060D02*
Y363060D01*
Y343060D02*
X-429720D01*
X-423720D02*
X-421720D01*
Y363060D01*
X-423720D02*
X-421720D01*
X-398780Y355600D02*
Y365760D01*
X-388780Y364490D02*
Y365760D01*
X-408780D02*
X-388780D01*
X-408780Y364490D02*
Y365760D01*
Y355600D02*
Y356870D01*
Y355600D02*
X-388780D01*
Y356870D01*
X-408940Y342900D02*
X-398780D01*
X-408940Y354330D02*
X-407670D01*
X-408940Y331470D02*
Y354330D01*
Y331470D02*
X-407670D01*
X-400050D02*
X-398780D01*
Y354330D01*
X-400050D02*
X-398780D01*
X-500830Y407970D02*
X-451230D01*
X-500830Y381970D02*
X-461830D01*
X-643450Y468230D02*
X-632450D01*
X-643450Y394230D02*
Y468230D01*
Y394230D02*
X-632450D01*
Y468230D01*
Y394230D02*
X-625450D01*
X-606450D02*
X-601450D01*
X-587450Y410230D02*
Y413230D01*
Y449230D02*
Y452230D01*
X-606450Y468230D02*
X-601450D01*
X-632450D02*
X-625450D01*
X-527860Y374810D02*
X-525860D01*
Y394810D01*
X-527860D02*
X-525860D01*
X-535860D02*
X-533860D01*
X-535860Y374810D02*
Y394810D01*
Y374810D02*
X-533860D01*
X-516430D02*
X-514430D01*
Y394810D01*
X-516430D02*
X-514430D01*
X-524430D02*
X-522430D01*
X-524430Y374810D02*
Y394810D01*
Y374810D02*
X-522430D01*
X-539750Y347030D02*
Y421360D01*
X-544510Y347030D02*
X-539750D01*
X-553720Y421360D02*
X-539750D01*
X-572770Y347030D02*
X-568010D01*
X-553720Y419420D02*
Y421360D01*
Y419420D02*
X-539750D01*
X-572770D02*
X-558800D01*
Y421360D01*
X-572770Y347030D02*
Y421360D01*
X-558800D01*
X-561260Y387860D02*
X-551260D01*
X-556260D02*
X-552260Y380860D01*
X-561260D02*
X-556260Y387860D01*
X-561260Y380860D02*
X-552260D01*
X-556260Y387860D02*
Y388860D01*
Y378860D02*
Y380860D01*
D16*
X36769Y363070D02*
Y366069D01*
X35269D01*
X34769Y365570D01*
Y364570D01*
X35269Y364070D01*
X36769D01*
X35769D02*
X34769Y363070D01*
X33770D02*
X32770D01*
X33270D01*
Y366069D01*
X33770Y365570D01*
X31271Y363570D02*
X30771Y363070D01*
X29771D01*
X29271Y363570D01*
Y365570D01*
X29771Y366069D01*
X30771D01*
X31271Y365570D01*
Y365070D01*
X30771Y364570D01*
X29271D01*
X37871Y402571D02*
X40869D01*
Y404071D01*
X40370Y404571D01*
X39370D01*
X38870Y404071D01*
Y402571D01*
Y403571D02*
X37871Y404571D01*
Y405570D02*
Y406570D01*
Y406070D01*
X40869D01*
X40370Y405570D01*
Y408069D02*
X40869Y408569D01*
Y409569D01*
X40370Y410069D01*
X39870D01*
X39370Y409569D01*
X38870Y410069D01*
X38370D01*
X37871Y409569D01*
Y408569D01*
X38370Y408069D01*
X38870D01*
X39370Y408569D01*
X39870Y408069D01*
X40370D01*
X39370Y408569D02*
Y409569D01*
X92885Y241379D02*
X95884D01*
Y242878D01*
X95384Y243378D01*
X94384D01*
X93885Y242878D01*
Y241379D01*
Y242379D02*
X92885Y243378D01*
Y244378D02*
Y245378D01*
Y244878D01*
X95884D01*
X95384Y244378D01*
X95884Y248876D02*
Y246877D01*
X94384D01*
X94884Y247877D01*
Y248377D01*
X94384Y248876D01*
X93385D01*
X92885Y248377D01*
Y247377D01*
X93385Y246877D01*
X105585Y320119D02*
X108584D01*
Y321618D01*
X108084Y322118D01*
X107085D01*
X106585Y321618D01*
Y320119D01*
Y321119D02*
X105585Y322118D01*
Y323118D02*
Y324118D01*
Y323618D01*
X108584D01*
X108084Y323118D01*
X105585Y327117D02*
X108584D01*
X107085Y325617D01*
Y327617D01*
X55580Y332612D02*
X56579D01*
X56080D01*
Y330113D01*
X56579Y329613D01*
X57079D01*
X57579Y330113D01*
X53081Y329613D02*
Y332612D01*
X54580Y331113D01*
X52581D01*
X52611Y395240D02*
X52111Y394740D01*
X51111D01*
X50611Y395240D01*
Y397240D01*
X51111Y397739D01*
X52111D01*
X52611Y397240D01*
X55610Y394740D02*
X53610D01*
Y396240D01*
X54610Y395740D01*
X55110D01*
X55610Y396240D01*
Y397240D01*
X55110Y397739D01*
X54110D01*
X53610Y397240D01*
X56609Y395240D02*
X57109Y394740D01*
X58109D01*
X58609Y395240D01*
Y395740D01*
X58109Y396240D01*
X58609Y396740D01*
Y397240D01*
X58109Y397739D01*
X57109D01*
X56609Y397240D01*
Y396740D01*
X57109Y396240D01*
X56609Y395740D01*
Y395240D01*
X57109Y396240D02*
X58109D01*
X67851Y325390D02*
X67351Y324890D01*
X66351D01*
X65851Y325390D01*
Y327390D01*
X66351Y327890D01*
X67351D01*
X67851Y327390D01*
X70850Y324890D02*
X68850D01*
Y326390D01*
X69850Y325890D01*
X70350D01*
X70850Y326390D01*
Y327390D01*
X70350Y327890D01*
X69350D01*
X68850Y327390D01*
X73349Y327890D02*
Y324890D01*
X71849Y326390D01*
X73849D01*
X133304Y304934D02*
X133804Y305434D01*
X134803D01*
X135303Y304934D01*
Y302935D01*
X134803Y302435D01*
X133804D01*
X133304Y302935D01*
X130305Y305434D02*
X132304D01*
Y303934D01*
X131304Y304434D01*
X130805D01*
X130305Y303934D01*
Y302935D01*
X130805Y302435D01*
X131804D01*
X132304Y302935D01*
X129305Y304934D02*
X128805Y305434D01*
X127806D01*
X127306Y304934D01*
Y304434D01*
X127806Y303934D01*
X128305D01*
X127806D01*
X127306Y303435D01*
Y302935D01*
X127806Y302435D01*
X128805D01*
X129305Y302935D01*
X132796Y316364D02*
X133295Y316864D01*
X134295D01*
X134795Y316364D01*
Y314365D01*
X134295Y313865D01*
X133295D01*
X132796Y314365D01*
X129797Y316864D02*
X131796D01*
Y315364D01*
X130796Y315864D01*
X130296D01*
X129797Y315364D01*
Y314365D01*
X130296Y313865D01*
X131296D01*
X131796Y314365D01*
X126798Y313865D02*
X128797D01*
X126798Y315864D01*
Y316364D01*
X127297Y316864D01*
X128297D01*
X128797Y316364D01*
X-322405Y497458D02*
X-323405D01*
X-322905D01*
Y494459D01*
X-322405D01*
X-323405D01*
X-326903Y496958D02*
X-326404Y497458D01*
X-325404D01*
X-324904Y496958D01*
Y494959D01*
X-325404Y494459D01*
X-326404D01*
X-326903Y494959D01*
X-327903Y496958D02*
X-328403Y497458D01*
X-329403D01*
X-329902Y496958D01*
Y496458D01*
X-329403Y495959D01*
X-328903D01*
X-329403D01*
X-329902Y495459D01*
Y494959D01*
X-329403Y494459D01*
X-328403D01*
X-327903Y494959D01*
X-240509Y416830D02*
X-241009Y416330D01*
X-242009D01*
X-242509Y416830D01*
Y418830D01*
X-242009Y419329D01*
X-241009D01*
X-240509Y418830D01*
X-239510Y419329D02*
X-238510D01*
X-239010D01*
Y416330D01*
X-239510Y416830D01*
X-237011D02*
X-236511Y416330D01*
X-235511D01*
X-235011Y416830D01*
Y417330D01*
X-235511Y417830D01*
X-236011D01*
X-235511D01*
X-235011Y418330D01*
Y418830D01*
X-235511Y419329D01*
X-236511D01*
X-237011Y418830D01*
X-228121Y451260D02*
X-227621Y451759D01*
X-226621D01*
X-226121Y451260D01*
Y449260D01*
X-226621Y448760D01*
X-227621D01*
X-228121Y449260D01*
X-229120Y448760D02*
X-230120D01*
X-229620D01*
Y451759D01*
X-229120Y451260D01*
X-233619Y448760D02*
X-231619D01*
X-233619Y450760D01*
Y451260D01*
X-233119Y451759D01*
X-232119D01*
X-231619Y451260D01*
X-321102Y344304D02*
X-320602Y344804D01*
X-319603D01*
X-319103Y344304D01*
Y342305D01*
X-319603Y341805D01*
X-320602D01*
X-321102Y342305D01*
X-322102Y341805D02*
X-323102D01*
X-322602D01*
Y344804D01*
X-322102Y344304D01*
X-324601Y341805D02*
X-325601D01*
X-325101D01*
Y344804D01*
X-324601Y344304D01*
X-261141Y235950D02*
X-260641Y236450D01*
X-259641D01*
X-259141Y235950D01*
Y233950D01*
X-259641Y233451D01*
X-260641D01*
X-261141Y233950D01*
X-262140Y233451D02*
X-263140D01*
X-262640D01*
Y236450D01*
X-262140Y235950D01*
X-264639D02*
X-265139Y236450D01*
X-266139D01*
X-266639Y235950D01*
Y233950D01*
X-266139Y233451D01*
X-265139D01*
X-264639Y233950D01*
Y235950D01*
X-276360D02*
X-275860Y236450D01*
X-274861D01*
X-274361Y235950D01*
Y233950D01*
X-274861Y233451D01*
X-275860D01*
X-276360Y233950D01*
X-277360D02*
X-277860Y233451D01*
X-278859D01*
X-279359Y233950D01*
Y235950D01*
X-278859Y236450D01*
X-277860D01*
X-277360Y235950D01*
Y235450D01*
X-277860Y234950D01*
X-279359D01*
X-289060Y235950D02*
X-288560Y236450D01*
X-287561D01*
X-287061Y235950D01*
Y233950D01*
X-287561Y233451D01*
X-288560D01*
X-289060Y233950D01*
X-290060Y235950D02*
X-290560Y236450D01*
X-291559D01*
X-292059Y235950D01*
Y235450D01*
X-291559Y234950D01*
X-292059Y234450D01*
Y233950D01*
X-291559Y233451D01*
X-290560D01*
X-290060Y233950D01*
Y234450D01*
X-290560Y234950D01*
X-290060Y235450D01*
Y235950D01*
X-290560Y234950D02*
X-291559D01*
X-423972Y372244D02*
X-423473Y372744D01*
X-422473D01*
X-421973Y372244D01*
Y370245D01*
X-422473Y369745D01*
X-423473D01*
X-423972Y370245D01*
X-424972Y372744D02*
X-426971D01*
Y372244D01*
X-424972Y370245D01*
Y369745D01*
X-503420Y320310D02*
X-503920Y319810D01*
X-504919D01*
X-505419Y320310D01*
Y322310D01*
X-504919Y322809D01*
X-503920D01*
X-503420Y322310D01*
X-500421Y319810D02*
X-501421Y320310D01*
X-502420Y321310D01*
Y322310D01*
X-501920Y322809D01*
X-500921D01*
X-500421Y322310D01*
Y321810D01*
X-500921Y321310D01*
X-502420D01*
X-486910Y320310D02*
X-487410Y319810D01*
X-488409D01*
X-488909Y320310D01*
Y322310D01*
X-488409Y322809D01*
X-487410D01*
X-486910Y322310D01*
X-483911Y319810D02*
X-485910D01*
Y321310D01*
X-484911Y320810D01*
X-484411D01*
X-483911Y321310D01*
Y322310D01*
X-484411Y322809D01*
X-485410D01*
X-485910Y322310D01*
X-430322Y335414D02*
X-429823Y335914D01*
X-428823D01*
X-428323Y335414D01*
Y333415D01*
X-428823Y332915D01*
X-429823D01*
X-430322Y333415D01*
X-432822Y332915D02*
Y335914D01*
X-431322Y334414D01*
X-433321D01*
X-373880Y346980D02*
X-374380Y346480D01*
X-375379D01*
X-375879Y346980D01*
Y348980D01*
X-375379Y349479D01*
X-374380D01*
X-373880Y348980D01*
X-372880Y346980D02*
X-372380Y346480D01*
X-371381D01*
X-370881Y346980D01*
Y347480D01*
X-371381Y347980D01*
X-371880D01*
X-371381D01*
X-370881Y348480D01*
Y348980D01*
X-371381Y349479D01*
X-372380D01*
X-372880Y348980D01*
X-207321Y261390D02*
Y264389D01*
X-208821D01*
X-209321Y263890D01*
Y262890D01*
X-208821Y262390D01*
X-207321D01*
X-208321D02*
X-209321Y261390D01*
X-210320D02*
X-211820D01*
X-212320Y261890D01*
X-211820Y262390D01*
X-210820D01*
X-210320Y262890D01*
X-210820Y263390D01*
X-212320D01*
X-213319Y261390D02*
X-214319D01*
X-213819D01*
Y264389D01*
X-213319Y263890D01*
X-402481Y368070D02*
Y371069D01*
X-403981D01*
X-404481Y370570D01*
Y369570D01*
X-403981Y369070D01*
X-402481D01*
X-403481D02*
X-404481Y368070D01*
X-405480Y371069D02*
Y368070D01*
X-406980D01*
X-407480Y368570D01*
Y369070D01*
Y369570D01*
X-406980Y370070D01*
X-405480D01*
X-408479Y370570D02*
X-408979Y371069D01*
X-409979D01*
X-410479Y370570D01*
Y370070D01*
X-409979Y369570D01*
X-409479D01*
X-409979D01*
X-410479Y369070D01*
Y368570D01*
X-409979Y368070D01*
X-408979D01*
X-408479Y368570D01*
X-420559Y339319D02*
Y336320D01*
X-419059D01*
X-418559Y336820D01*
Y337820D01*
X-419059Y338320D01*
X-420559D01*
X-419559D02*
X-418559Y339319D01*
X-417560Y336320D02*
Y339319D01*
X-416060D01*
X-415560Y338820D01*
Y338320D01*
Y337820D01*
X-416060Y337320D01*
X-417560D01*
X-412561Y339319D02*
X-414561D01*
X-412561Y337320D01*
Y336820D01*
X-413061Y336320D01*
X-414061D01*
X-414561Y336820D01*
X-408629Y327890D02*
Y324890D01*
X-407129D01*
X-406629Y325390D01*
Y326390D01*
X-407129Y326890D01*
X-408629D01*
X-407629D02*
X-406629Y327890D01*
X-405630Y324890D02*
Y327890D01*
X-404130D01*
X-403630Y327390D01*
Y326890D01*
Y326390D01*
X-404130Y325890D01*
X-405630D01*
X-402631Y327890D02*
X-401631D01*
X-402131D01*
Y324890D01*
X-402631Y325390D01*
X-440563Y366030D02*
Y369029D01*
X-442062D01*
X-442562Y368530D01*
Y367530D01*
X-442062Y367030D01*
X-440563D01*
X-441562D02*
X-442562Y366030D01*
X-443562Y365531D02*
X-445561D01*
X-446561Y365031D02*
Y368030D01*
X-448060D01*
X-448560Y367530D01*
Y366530D01*
X-448060Y366030D01*
X-446561D01*
X-449560Y368030D02*
Y366530D01*
X-450060Y366030D01*
X-451559D01*
Y368030D01*
X-452559Y366030D02*
X-453558D01*
X-453059D01*
Y369029D01*
X-452559D01*
X-455058Y366030D02*
X-456058D01*
X-455558D01*
Y369029D01*
X-455058D01*
X-453783Y353330D02*
Y356329D01*
X-455282D01*
X-455782Y355830D01*
Y354830D01*
X-455282Y354330D01*
X-453783D01*
X-454782D02*
X-455782Y353330D01*
X-456782Y352831D02*
X-458781D01*
X-459781Y352331D02*
Y355330D01*
X-461280D01*
X-461780Y354830D01*
Y353830D01*
X-461280Y353330D01*
X-459781D01*
X-462780Y355330D02*
Y353330D01*
Y354330D01*
X-463280Y354830D01*
X-463779Y355330D01*
X-464279D01*
X-466279Y353330D02*
X-467278D01*
X-467778Y353830D01*
Y354830D01*
X-467278Y355330D01*
X-466279D01*
X-465779Y354830D01*
Y353830D01*
X-466279Y353330D01*
X-469778Y352331D02*
X-470277D01*
X-470777Y352831D01*
Y355330D01*
X-469278D01*
X-468778Y354830D01*
Y353830D01*
X-469278Y353330D01*
X-470777D01*
X-248237Y360044D02*
Y357045D01*
X-250236D01*
X-251236Y360044D02*
Y357045D01*
X-252736D01*
X-253235Y357545D01*
Y358045D01*
Y358545D01*
X-252736Y359044D01*
X-251236D01*
X-324620Y231369D02*
X-323620D01*
X-324120D01*
Y228870D01*
X-323620Y228370D01*
X-323121D01*
X-322621Y228870D01*
X-327619Y228370D02*
X-325620D01*
X-327619Y230370D01*
Y230870D01*
X-327119Y231369D01*
X-326120D01*
X-325620Y230870D01*
X-252791Y256770D02*
X-253791D01*
X-253291D01*
Y253771D01*
X-252791D01*
X-253791D01*
X-257290Y256270D02*
X-256790Y256770D01*
X-255790D01*
X-255290Y256270D01*
Y254270D01*
X-255790Y253771D01*
X-256790D01*
X-257290Y254270D01*
X-260289Y253771D02*
X-258289D01*
X-260289Y255770D01*
Y256270D01*
X-259789Y256770D01*
X-258789D01*
X-258289Y256270D01*
X-216233Y343788D02*
Y340789D01*
X-217733D01*
X-218232Y341289D01*
Y343288D01*
X-217733Y343788D01*
X-216233D01*
X-219232Y340789D02*
X-220732D01*
X-221231Y341289D01*
X-220732Y341789D01*
X-219732D01*
X-219232Y342289D01*
X-219732Y342788D01*
X-221231D01*
X-222231Y340789D02*
X-223231D01*
X-222731D01*
Y343788D01*
X-222231Y343288D01*
X-173561Y338454D02*
Y335455D01*
X-175061D01*
X-175560Y335955D01*
Y337954D01*
X-175061Y338454D01*
X-173561D01*
X-176560Y334955D02*
X-178559D01*
X-180059Y335455D02*
X-181059D01*
X-181558Y335955D01*
Y336954D01*
X-181059Y337454D01*
X-180059D01*
X-179559Y336954D01*
Y335955D01*
X-180059Y335455D01*
X-182558Y337454D02*
Y335455D01*
Y336455D01*
X-183058Y336954D01*
X-183558Y337454D01*
X-184058D01*
X-187556Y335455D02*
X-185557D01*
X-187556Y337454D01*
Y337954D01*
X-187057Y338454D01*
X-186057D01*
X-185557Y337954D01*
X-464968Y414810D02*
Y417810D01*
X-463468D01*
X-462968Y417310D01*
Y415310D01*
X-463468Y414810D01*
X-464968D01*
X-461969Y418309D02*
X-459969D01*
X-458470Y417810D02*
X-457470D01*
X-456970Y417310D01*
Y416310D01*
X-457470Y415810D01*
X-458470D01*
X-458970Y416310D01*
Y417310D01*
X-458470Y417810D01*
X-455971Y415810D02*
Y417810D01*
Y416810D01*
X-455471Y416310D01*
X-454971Y415810D01*
X-454471D01*
X-452972Y417810D02*
X-451972D01*
X-452472D01*
Y414810D01*
X-452972Y415310D01*
X-216129Y321580D02*
X-216629Y321080D01*
X-217629D01*
X-218129Y321580D01*
Y323580D01*
X-217629Y324080D01*
X-216629D01*
X-216129Y323580D01*
X-215130Y324080D02*
X-213630D01*
X-213130Y323580D01*
X-213630Y323080D01*
X-214630D01*
X-215130Y322580D01*
X-214630Y322080D01*
X-213130D01*
X-212131Y324080D02*
X-211131D01*
X-211631D01*
Y321080D01*
X-212131Y321580D01*
X-640850Y380201D02*
X-641850D01*
X-641350D01*
Y382700D01*
X-641850Y383200D01*
X-642349D01*
X-642849Y382700D01*
X-639850Y383200D02*
X-638851D01*
X-639351D01*
Y380201D01*
X-639850Y380700D01*
X-446479Y298220D02*
X-445479D01*
X-445979D01*
Y301220D01*
X-446479D01*
X-445479D01*
X-441980Y298720D02*
X-442480Y298220D01*
X-443480D01*
X-443980Y298720D01*
Y300720D01*
X-443480Y301220D01*
X-442480D01*
X-441980Y300720D01*
X-440981Y301220D02*
X-439981D01*
X-440481D01*
Y298220D01*
X-440981Y298720D01*
X-573499Y341400D02*
Y344399D01*
X-572000D01*
X-571500Y343900D01*
Y341900D01*
X-572000Y341400D01*
X-573499D01*
X-570500Y344399D02*
X-569501D01*
X-570000D01*
Y341400D01*
X-570500Y341900D01*
X-512580Y373110D02*
X-512080Y373610D01*
X-511081D01*
X-510581Y373110D01*
Y371110D01*
X-511081Y370611D01*
X-512080D01*
X-512580Y371110D01*
X-515579Y370611D02*
X-513580D01*
X-515579Y372610D01*
Y373110D01*
X-515079Y373610D01*
X-514080D01*
X-513580Y373110D01*
X-535940Y371840D02*
X-535440Y372340D01*
X-534440D01*
X-533941Y371840D01*
Y369840D01*
X-534440Y369341D01*
X-535440D01*
X-535940Y369840D01*
X-536940Y369341D02*
X-537939D01*
X-537439D01*
Y372340D01*
X-536940Y371840D01*
M02*
