G04*
G04 #@! TF.GenerationSoftware,Altium Limited,Altium Designer,25.3.3 (18)*
G04*
G04 Layer_Color=8388736*
%FSLAX44Y44*%
%MOMM*%
G71*
G04*
G04 #@! TF.SameCoordinates,03B7C616-348C-440E-9E9C-07167A9097DF*
G04*
G04*
G04 #@! TF.FilePolarity,Negative*
G04*
G01*
G75*
%ADD22R,0.6096X0.7112*%
%ADD34R,1.4605X0.5588*%
%ADD35R,0.1778X0.8128*%
%ADD36R,0.8128X0.1778*%
%ADD37R,1.4000X1.1000*%
%ADD40R,1.2446X0.9398*%
%ADD41R,2.2032X3.2032*%
%ADD42R,1.7532X1.5032*%
%ADD43R,1.0532X2.5532*%
%ADD44R,1.4032X0.8032*%
%ADD45R,0.8032X0.9532*%
%ADD46R,0.8532X2.1532*%
%ADD47R,0.8032X0.8432*%
%ADD48R,1.7032X1.8032*%
%ADD49R,0.8032X0.7032*%
%ADD50R,0.9532X0.8032*%
%ADD51R,0.8432X0.8032*%
%ADD52R,0.7032X0.6032*%
%ADD53R,0.6032X0.7032*%
%ADD54R,4.7532X2.5032*%
%ADD55R,1.8032X2.7032*%
%ADD56R,3.2004X3.2004*%
%ADD57R,3.6032X4.5032*%
%ADD58R,1.1632X0.6432*%
%ADD59C,2.0032*%
%ADD60C,4.2532*%
%ADD61O,1.8032X1.1032*%
%ADD62C,0.8032*%
%ADD63C,1.4732*%
D22*
X94411Y421688D02*
D03*
X83911D02*
D03*
X73411D02*
D03*
X62911D02*
D03*
Y444294D02*
D03*
X73411D02*
D03*
X83911D02*
D03*
X94411D02*
D03*
D34*
X251952Y396161D02*
D03*
Y383461D02*
D03*
Y370761D02*
D03*
Y358061D02*
D03*
X197470D02*
D03*
Y370761D02*
D03*
Y383461D02*
D03*
Y396161D02*
D03*
D35*
X-109839Y480997D02*
D03*
X-85839Y412925D02*
D03*
X-89839D02*
D03*
X-93839D02*
D03*
X-97839D02*
D03*
X-101839D02*
D03*
X-105839D02*
D03*
X-113839D02*
D03*
X-117839D02*
D03*
X-121839D02*
D03*
X-125839D02*
D03*
X-133839D02*
D03*
X-137839D02*
D03*
Y480997D02*
D03*
X-133839D02*
D03*
X-129839D02*
D03*
X-125839D02*
D03*
X-121839D02*
D03*
X-113839D02*
D03*
X-105839D02*
D03*
X-101839D02*
D03*
X-97839D02*
D03*
X-93839D02*
D03*
X-89839D02*
D03*
X-85839D02*
D03*
X-117839D02*
D03*
X-129839Y412925D02*
D03*
X-109839D02*
D03*
D36*
X-145875Y420961D02*
D03*
Y424961D02*
D03*
Y428961D02*
D03*
Y432961D02*
D03*
Y436961D02*
D03*
Y440961D02*
D03*
Y444961D02*
D03*
Y448961D02*
D03*
Y452961D02*
D03*
Y456961D02*
D03*
Y460961D02*
D03*
Y464961D02*
D03*
Y468961D02*
D03*
Y472961D02*
D03*
X-77803D02*
D03*
Y468961D02*
D03*
Y464961D02*
D03*
Y460961D02*
D03*
Y456961D02*
D03*
Y452961D02*
D03*
Y448961D02*
D03*
Y444961D02*
D03*
Y440961D02*
D03*
Y436961D02*
D03*
Y432961D02*
D03*
Y428961D02*
D03*
Y424961D02*
D03*
Y420961D02*
D03*
D37*
X-108790Y522860D02*
D03*
X-86790Y538860D02*
D03*
X-108790D02*
D03*
X-86790Y522860D02*
D03*
D40*
X706374Y596910D02*
D03*
Y629910D02*
D03*
X657606D02*
D03*
Y596910D02*
D03*
X735505Y817691D02*
D03*
Y850691D02*
D03*
X686737D02*
D03*
Y817691D02*
D03*
X653717Y1057691D02*
D03*
Y1090691D02*
D03*
X702485D02*
D03*
Y1057691D02*
D03*
X451025Y1207691D02*
D03*
Y1240691D02*
D03*
X402257D02*
D03*
Y1207691D02*
D03*
X150035Y1074351D02*
D03*
Y1107351D02*
D03*
X101267D02*
D03*
Y1074351D02*
D03*
X-138255D02*
D03*
Y1107351D02*
D03*
X-187023D02*
D03*
Y1074351D02*
D03*
X-444325Y1207701D02*
D03*
Y1240701D02*
D03*
X-493093D02*
D03*
Y1207701D02*
D03*
X-712295Y1057691D02*
D03*
Y1090691D02*
D03*
X-761063D02*
D03*
Y1057691D02*
D03*
X-724995Y817691D02*
D03*
Y850691D02*
D03*
X-773763D02*
D03*
Y817691D02*
D03*
X-655145Y597691D02*
D03*
Y630691D02*
D03*
X-703913D02*
D03*
Y597691D02*
D03*
D41*
X450919Y358058D02*
D03*
X352419D02*
D03*
D42*
X-167260Y545190D02*
D03*
Y590190D02*
D03*
X-246760Y545190D02*
D03*
Y590190D02*
D03*
D43*
X-27780Y271460D02*
D03*
X-7780Y294960D02*
D03*
D44*
X97790Y381610D02*
D03*
Y372110D02*
D03*
Y362610D02*
D03*
X122790D02*
D03*
Y372110D02*
D03*
Y381610D02*
D03*
X656790Y556920D02*
D03*
Y575920D02*
D03*
X681790D02*
D03*
Y566420D02*
D03*
Y556920D02*
D03*
D45*
X83820Y393100D02*
D03*
Y381600D02*
D03*
X30480Y460410D02*
D03*
Y448910D02*
D03*
X82550Y362020D02*
D03*
Y350520D02*
D03*
X-125730Y372710D02*
D03*
Y384210D02*
D03*
X-115570Y372710D02*
D03*
Y384210D02*
D03*
X11351Y320631D02*
D03*
Y309131D02*
D03*
X-64770Y351120D02*
D03*
Y362620D02*
D03*
X133350Y441360D02*
D03*
Y429860D02*
D03*
X83820Y469300D02*
D03*
Y457800D02*
D03*
X642620Y574640D02*
D03*
Y586140D02*
D03*
X-269240Y589950D02*
D03*
Y578450D02*
D03*
D46*
X-59690Y632720D02*
D03*
X-46990D02*
D03*
X-34290D02*
D03*
X-21590D02*
D03*
X-8890D02*
D03*
X3810D02*
D03*
X16510D02*
D03*
X29210D02*
D03*
X41910D02*
D03*
X54610D02*
D03*
Y538220D02*
D03*
X41910D02*
D03*
X29210D02*
D03*
X16510D02*
D03*
X3810D02*
D03*
X-8890D02*
D03*
X-21590D02*
D03*
X-34290D02*
D03*
X-46990D02*
D03*
X-59690D02*
D03*
D47*
X-277540Y1007110D02*
D03*
X-286340D02*
D03*
X62820Y457200D02*
D03*
X54020D02*
D03*
X270289Y400361D02*
D03*
X279089D02*
D03*
X275590Y345440D02*
D03*
X284390D02*
D03*
X269841Y370761D02*
D03*
X278641D02*
D03*
X279400Y388620D02*
D03*
X270600D02*
D03*
X-145370Y389890D02*
D03*
X-136570D02*
D03*
X-145370Y401320D02*
D03*
X-136570D02*
D03*
X-97110Y509270D02*
D03*
X-88310D02*
D03*
X54020Y468630D02*
D03*
X62820D02*
D03*
X-452789Y1191181D02*
D03*
X-443989D02*
D03*
X-720759Y1040051D02*
D03*
X-711959D02*
D03*
D48*
X-24350Y452120D02*
D03*
X11650D02*
D03*
D49*
X-27940Y403940D02*
D03*
Y413940D02*
D03*
X52070Y362030D02*
D03*
Y372030D02*
D03*
D50*
X-273799Y1036241D02*
D03*
X-262299D02*
D03*
X-297929Y1038781D02*
D03*
X-286429D02*
D03*
X-286499Y1023541D02*
D03*
X-274999D02*
D03*
X134620Y394970D02*
D03*
X123120D02*
D03*
X164430Y368300D02*
D03*
X175930D02*
D03*
X262890Y345440D02*
D03*
X251390D02*
D03*
X267900Y411480D02*
D03*
X279400D02*
D03*
X34960Y320040D02*
D03*
X23460D02*
D03*
X94580Y411480D02*
D03*
X106080D02*
D03*
D51*
X-76200Y633050D02*
D03*
Y624250D02*
D03*
X-160020Y410120D02*
D03*
Y401320D02*
D03*
X-171450Y400730D02*
D03*
Y409530D02*
D03*
X40640Y352470D02*
D03*
Y361270D02*
D03*
X147320Y381590D02*
D03*
Y372790D02*
D03*
X135890Y381590D02*
D03*
Y372790D02*
D03*
X-64770Y409620D02*
D03*
Y418420D02*
D03*
X-17780Y422230D02*
D03*
Y413430D02*
D03*
X642620Y556170D02*
D03*
Y547370D02*
D03*
X-66119Y316831D02*
D03*
Y325631D02*
D03*
X-92268Y375771D02*
D03*
Y366971D02*
D03*
X-102870Y376510D02*
D03*
Y367710D02*
D03*
X-160020Y424860D02*
D03*
Y433660D02*
D03*
X-171450Y424860D02*
D03*
Y433660D02*
D03*
X-157480Y457880D02*
D03*
Y466680D02*
D03*
X-111760Y497250D02*
D03*
Y506050D02*
D03*
X-147320Y497250D02*
D03*
Y506050D02*
D03*
X-137160D02*
D03*
Y497250D02*
D03*
X-123190Y523830D02*
D03*
Y515030D02*
D03*
X109141Y432401D02*
D03*
Y441201D02*
D03*
X121841Y441201D02*
D03*
Y432401D02*
D03*
X-64770Y447130D02*
D03*
Y455930D02*
D03*
X721360Y589960D02*
D03*
Y598760D02*
D03*
X751761Y809591D02*
D03*
Y818391D02*
D03*
X720011Y1048351D02*
D03*
Y1057151D02*
D03*
X467281Y1198211D02*
D03*
Y1207011D02*
D03*
X166291Y1064861D02*
D03*
Y1073661D02*
D03*
X-120729Y1064861D02*
D03*
Y1073661D02*
D03*
X-710009Y808321D02*
D03*
Y817121D02*
D03*
X-640159Y597411D02*
D03*
Y588611D02*
D03*
D52*
X165100Y358330D02*
D03*
Y350330D02*
D03*
D53*
X71310Y361950D02*
D03*
X63310D02*
D03*
D54*
X269340Y295910D02*
D03*
X345340D02*
D03*
D55*
X312420Y416000D02*
D03*
Y381000D02*
D03*
D56*
X-111839Y446961D02*
D03*
D57*
X-28019Y344091D02*
D03*
D58*
X-4219Y325041D02*
D03*
Y337741D02*
D03*
Y350441D02*
D03*
Y363141D02*
D03*
X-51819D02*
D03*
Y350441D02*
D03*
Y337741D02*
D03*
Y325041D02*
D03*
D59*
X-312420Y988060D02*
D03*
X-287020D02*
D03*
X-261620D02*
D03*
X-236220D02*
D03*
X-210820D02*
D03*
X-185420D02*
D03*
X-160020D02*
D03*
X-134620D02*
D03*
X-109220D02*
D03*
X-83820D02*
D03*
X-58420D02*
D03*
X-33020D02*
D03*
X-7620D02*
D03*
X17780D02*
D03*
X43180D02*
D03*
X68580D02*
D03*
X-312420Y668060D02*
D03*
X-287020D02*
D03*
X-261620D02*
D03*
X-236220D02*
D03*
X-210820D02*
D03*
X-185420D02*
D03*
X-160020D02*
D03*
X-134620D02*
D03*
X-109220D02*
D03*
X-83820D02*
D03*
X-58420D02*
D03*
X-33020D02*
D03*
X-7620D02*
D03*
X17780D02*
D03*
X43180D02*
D03*
X68580D02*
D03*
D60*
X-367420Y673060D02*
D03*
X382580D02*
D03*
X-367420Y983060D02*
D03*
X382580D02*
D03*
D61*
X-615950Y464230D02*
D03*
Y398230D02*
D03*
D62*
X560015Y427211D02*
D03*
X581605D02*
D03*
X599385D02*
D03*
X618435D02*
D03*
X560015Y447531D02*
D03*
X581605D02*
D03*
X599385D02*
D03*
X618435D02*
D03*
X618405Y489200D02*
D03*
X599355D02*
D03*
X581575D02*
D03*
X559985D02*
D03*
X618405Y468880D02*
D03*
X599355D02*
D03*
X581575D02*
D03*
X559985D02*
D03*
X451558Y336547D02*
D03*
X468068Y367027D02*
D03*
X440128Y336547D02*
D03*
X466992Y351350D02*
D03*
X462988Y336547D02*
D03*
X482679Y447191D02*
D03*
X504269D02*
D03*
X522049D02*
D03*
X541099D02*
D03*
X482679Y468781D02*
D03*
X504269D02*
D03*
X522049D02*
D03*
X541099D02*
D03*
X540670Y489602D02*
D03*
X521620D02*
D03*
X503840D02*
D03*
X482250D02*
D03*
X542290Y427990D02*
D03*
X523240Y426720D02*
D03*
X504190D02*
D03*
X482521Y427686D02*
D03*
X-572770Y354330D02*
D03*
X93400Y209966D02*
D03*
X74350D02*
D03*
X56570D02*
D03*
X34980D02*
D03*
X14660D02*
D03*
X-5660D02*
D03*
X-23440D02*
D03*
X-41220D02*
D03*
X-60270D02*
D03*
X167561Y261316D02*
D03*
X189230Y260350D02*
D03*
X208280D02*
D03*
X227330Y261620D02*
D03*
X167290Y324502D02*
D03*
X188880D02*
D03*
X206660D02*
D03*
X225710D02*
D03*
X226139Y302411D02*
D03*
X207089D02*
D03*
X189309D02*
D03*
X167719D02*
D03*
X226139Y280821D02*
D03*
X207089D02*
D03*
X189309D02*
D03*
X167719D02*
D03*
X158265Y482669D02*
D03*
X177314D02*
D03*
X195095D02*
D03*
X212875D02*
D03*
X157480Y452120D02*
D03*
X176530D02*
D03*
X194310D02*
D03*
X212090D02*
D03*
X252730D02*
D03*
X274320D02*
D03*
X292100D02*
D03*
X233195Y482669D02*
D03*
X311150Y452120D02*
D03*
X253514Y482669D02*
D03*
X275105D02*
D03*
X292885D02*
D03*
X311935D02*
D03*
X232410Y452120D02*
D03*
X-121841Y254151D02*
D03*
X-100251D02*
D03*
X-82471D02*
D03*
X-63421D02*
D03*
X-121841Y275741D02*
D03*
X-100251D02*
D03*
X-82471D02*
D03*
X-63421D02*
D03*
X-259430Y208932D02*
D03*
X-278480D02*
D03*
X-296260D02*
D03*
X-317850D02*
D03*
X-63850Y297832D02*
D03*
X-82900D02*
D03*
X-100680D02*
D03*
X-122270D02*
D03*
X44615Y235509D02*
D03*
X25565D02*
D03*
X7785D02*
D03*
X-13805D02*
D03*
X-34125D02*
D03*
X-54445D02*
D03*
X-72225D02*
D03*
X-90005D02*
D03*
X-109055D02*
D03*
X-17780Y256540D02*
D03*
X-27940Y254000D02*
D03*
X-39370Y257810D02*
D03*
Y267970D02*
D03*
X-156210Y556260D02*
D03*
X-250190Y533400D02*
D03*
X-260350Y537210D02*
D03*
Y546100D02*
D03*
X-259080Y554990D02*
D03*
X-157480Y534670D02*
D03*
X-167640Y532130D02*
D03*
X-153670Y547370D02*
D03*
X277181Y211484D02*
D03*
X258131D02*
D03*
X240351D02*
D03*
X218761D02*
D03*
X198441D02*
D03*
X178121D02*
D03*
X160341D02*
D03*
X142561D02*
D03*
X123511D02*
D03*
X633547Y517027D02*
D03*
X614497D02*
D03*
X596717D02*
D03*
X575127D02*
D03*
X554807D02*
D03*
X534487D02*
D03*
X516707D02*
D03*
X498927D02*
D03*
X479877D02*
D03*
X449397Y518297D02*
D03*
X430347D02*
D03*
X412567D02*
D03*
X390977D02*
D03*
X370657D02*
D03*
X350337D02*
D03*
X332557D02*
D03*
X314777D02*
D03*
X295727D02*
D03*
X-393768Y481980D02*
D03*
X-412818D02*
D03*
X-430598D02*
D03*
X-452188D02*
D03*
X-472508D02*
D03*
X-492828D02*
D03*
X-510608D02*
D03*
X-528388D02*
D03*
X-547438D02*
D03*
X-544509Y450244D02*
D03*
X-525459D02*
D03*
X-507679D02*
D03*
X-489899D02*
D03*
X-469579D02*
D03*
X-449259D02*
D03*
X-427669D02*
D03*
X-409889D02*
D03*
X-390839D02*
D03*
X100651Y518824D02*
D03*
X119701D02*
D03*
X137481D02*
D03*
X155261D02*
D03*
X175581D02*
D03*
X195901D02*
D03*
X217491D02*
D03*
X235271D02*
D03*
X254321D02*
D03*
X-233359Y210214D02*
D03*
X-214309D02*
D03*
X-196529D02*
D03*
X-178749D02*
D03*
X-158429D02*
D03*
X-138109D02*
D03*
X-116519D02*
D03*
X-98739D02*
D03*
X-79689D02*
D03*
X133350Y403860D02*
D03*
X58420Y381000D02*
D03*
X57150Y389890D02*
D03*
X20320Y369570D02*
D03*
X40919Y343225D02*
D03*
X31750Y353060D02*
D03*
X279400Y379730D02*
D03*
X278130Y360680D02*
D03*
X-630853Y587731D02*
D03*
X-715010Y640080D02*
D03*
X-713403Y622021D02*
D03*
X-701040Y807720D02*
D03*
X-784860Y843280D02*
D03*
Y852170D02*
D03*
X-781050Y859790D02*
D03*
X-726440Y1031240D02*
D03*
X-772160Y1080770D02*
D03*
X-773430Y1098550D02*
D03*
X-455930Y1179830D02*
D03*
X-503853Y1231621D02*
D03*
X-505460Y1249680D02*
D03*
X-120650Y1056640D02*
D03*
X-198120Y1097280D02*
D03*
Y1106170D02*
D03*
Y1115060D02*
D03*
X175597Y1063981D02*
D03*
X93980Y1116330D02*
D03*
X93047Y1098271D02*
D03*
X458470Y1195070D02*
D03*
X391160Y1249680D02*
D03*
Y1231900D02*
D03*
X730250Y1046480D02*
D03*
X642620Y1080770D02*
D03*
X643890Y1098550D02*
D03*
X731520Y589280D02*
D03*
X646430Y621030D02*
D03*
X645160Y638810D02*
D03*
X762000Y807720D02*
D03*
X675640Y858520D02*
D03*
Y840740D02*
D03*
X-102994Y500695D02*
D03*
X-92494Y498894D02*
D03*
X-358140Y325120D02*
D03*
X-510335Y376559D02*
D03*
X-229870Y439420D02*
D03*
X-236220Y469900D02*
D03*
X-242570Y476250D02*
D03*
X-323850Y490220D02*
D03*
X-312420D02*
D03*
X-298450D02*
D03*
X-284480D02*
D03*
X-271780D02*
D03*
X-151867Y382124D02*
D03*
X-143510Y381000D02*
D03*
X-166370Y389890D02*
D03*
X-154940Y391160D02*
D03*
X66040Y626110D02*
D03*
Y636270D02*
D03*
X63500Y645160D02*
D03*
X64770Y537210D02*
D03*
X-74930Y520700D02*
D03*
X-75475Y529590D02*
D03*
X-104140Y549910D02*
D03*
X-111760D02*
D03*
X-157480Y506730D02*
D03*
X-60960Y400050D02*
D03*
X-92710Y345440D02*
D03*
X-104140D02*
D03*
X-106680Y435610D02*
D03*
X-119380D02*
D03*
X-106680Y445770D02*
D03*
X-119380D02*
D03*
X-106680Y455930D02*
D03*
X-119380D02*
D03*
X182880Y377190D02*
D03*
Y384810D02*
D03*
X-330200Y347980D02*
D03*
X-342900Y340360D02*
D03*
X-355600D02*
D03*
X-368300D02*
D03*
X-180164Y335468D02*
D03*
X-159277Y297933D02*
D03*
Y309363D02*
D03*
Y320793D02*
D03*
Y332223D02*
D03*
Y250943D02*
D03*
Y262373D02*
D03*
Y273803D02*
D03*
Y285233D02*
D03*
X-203717Y236747D02*
D03*
X-192287D02*
D03*
X-180857D02*
D03*
X-169427D02*
D03*
X-250707D02*
D03*
X-239277D02*
D03*
X-227847D02*
D03*
X-216417D02*
D03*
X-315353Y247228D02*
D03*
Y258658D02*
D03*
Y270088D02*
D03*
Y281518D02*
D03*
X-204863Y339938D02*
D03*
X-218833D02*
D03*
X-231533D02*
D03*
X-242963Y345018D02*
D03*
X-258203Y355178D02*
D03*
X-269633D02*
D03*
X-279793D02*
D03*
X-292100Y355600D02*
D03*
X-304800D02*
D03*
X-316230D02*
D03*
X-443496Y404562D02*
D03*
X-447306Y374082D02*
D03*
X-443496Y385512D02*
D03*
X-488950Y373380D02*
D03*
X-459740D02*
D03*
X-471170D02*
D03*
X-567690Y345440D02*
D03*
X-557530D02*
D03*
X-547370Y344170D02*
D03*
X-542290Y353060D02*
D03*
X-572565Y447679D02*
D03*
X-572770Y457200D02*
D03*
Y468630D02*
D03*
X496570Y356870D02*
D03*
Y368300D02*
D03*
Y345440D02*
D03*
X483870Y357505D02*
D03*
Y368935D02*
D03*
Y346075D02*
D03*
X425450Y358775D02*
D03*
Y370205D02*
D03*
Y347345D02*
D03*
X412750Y358775D02*
D03*
Y370205D02*
D03*
Y347345D02*
D03*
X400050Y358775D02*
D03*
Y370205D02*
D03*
Y347345D02*
D03*
X482455Y307717D02*
D03*
X496348Y307012D02*
D03*
X471025Y307717D02*
D03*
X447116Y308045D02*
D03*
X458546D02*
D03*
X435686D02*
D03*
X411556D02*
D03*
X422986D02*
D03*
X400126D02*
D03*
X482676Y320745D02*
D03*
X496570Y320040D02*
D03*
X471246Y320745D02*
D03*
X447116D02*
D03*
X458546D02*
D03*
X435686D02*
D03*
X411556D02*
D03*
X422986D02*
D03*
X400126D02*
D03*
X-203713Y655897D02*
D03*
X-212090Y654050D02*
D03*
X-222763Y659707D02*
D03*
X-311663Y653357D02*
D03*
X-321310Y656590D02*
D03*
X-326390Y668020D02*
D03*
X-311663Y1002607D02*
D03*
X-320553Y1000067D02*
D03*
X-326903Y987367D02*
D03*
X-220980Y998855D02*
D03*
X-201930Y999490D02*
D03*
X-210820Y1002030D02*
D03*
X-17861Y334345D02*
D03*
X-19131Y343235D02*
D03*
X-28021Y334345D02*
D03*
X-29291Y343235D02*
D03*
X-38181Y334345D02*
D03*
Y344505D02*
D03*
X-20320Y354330D02*
D03*
X-29291Y354665D02*
D03*
X-38181D02*
D03*
X-83820Y621030D02*
D03*
X-48260Y646430D02*
D03*
X-25400Y421640D02*
D03*
X-10160Y422910D02*
D03*
X269240Y379730D02*
D03*
X80010Y998220D02*
D03*
X67310Y972820D02*
D03*
X78740Y976630D02*
D03*
X83820Y988060D02*
D03*
X72390Y1003300D02*
D03*
X58420Y655320D02*
D03*
X82550Y664210D02*
D03*
Y674370D02*
D03*
X73660Y654050D02*
D03*
X97790Y251460D02*
D03*
X114300D02*
D03*
X106586Y247251D02*
D03*
X144780Y311150D02*
D03*
Y281940D02*
D03*
X151130Y290830D02*
D03*
X149860Y302260D02*
D03*
X129540Y312420D02*
D03*
X130716Y280271D02*
D03*
X129446Y323451D02*
D03*
X119286D02*
D03*
X312499Y361749D02*
D03*
X633730Y556260D02*
D03*
X730250Y598170D02*
D03*
X760730Y817880D02*
D03*
X728980Y1056640D02*
D03*
X476250Y1206500D02*
D03*
X175260Y1073150D02*
D03*
X-631190Y596900D02*
D03*
X-701040Y817121D02*
D03*
Y1040130D02*
D03*
X-435610Y1191260D02*
D03*
X-110490Y1064260D02*
D03*
X-109220Y1073150D02*
D03*
X-283210Y1049020D02*
D03*
X-199390Y1071880D02*
D03*
X-297180Y1023620D02*
D03*
X120598Y414210D02*
D03*
X-52070Y455930D02*
D03*
X73660Y381000D02*
D03*
Y392430D02*
D03*
X189230Y349250D02*
D03*
X121920Y424180D02*
D03*
X109220D02*
D03*
X269240Y360680D02*
D03*
X30480Y365760D02*
D03*
X-85642Y632688D02*
D03*
X-570230Y426720D02*
D03*
X-327660Y254000D02*
D03*
Y271780D02*
D03*
Y262890D02*
D03*
Y281940D02*
D03*
X-424180Y252730D02*
D03*
X-627175Y481969D02*
D03*
X44450Y457200D02*
D03*
X45720Y466090D02*
D03*
X73660Y454660D02*
D03*
X-637540Y579120D02*
D03*
X-715010Y631190D02*
D03*
X-709736Y800933D02*
D03*
X-730250Y1040130D02*
D03*
X-772160Y1089660D02*
D03*
X-462359Y1191181D02*
D03*
X-504190Y1240790D02*
D03*
X-267970Y1004570D02*
D03*
X-262696Y1028263D02*
D03*
X88900Y1106170D02*
D03*
X165294Y1057473D02*
D03*
X390084Y1240353D02*
D03*
X476444Y1197173D02*
D03*
X642620Y1089660D02*
D03*
X720090Y1038860D02*
D03*
X675640Y849630D02*
D03*
X752034Y800933D02*
D03*
X645160Y629920D02*
D03*
X721633Y581302D02*
D03*
X694690Y584200D02*
D03*
Y575310D02*
D03*
X693420Y554990D02*
D03*
X683260Y546100D02*
D03*
X632654Y546933D02*
D03*
X302339Y434139D02*
D03*
X322659Y435409D02*
D03*
X312499D02*
D03*
X293564Y345003D02*
D03*
X184150Y392430D02*
D03*
X184229Y358061D02*
D03*
X198120Y349250D02*
D03*
X147320Y363220D02*
D03*
Y389890D02*
D03*
X144780Y397510D02*
D03*
X-66588Y308501D02*
D03*
X-92710Y358140D02*
D03*
X-102870D02*
D03*
X-57150Y408940D02*
D03*
X-55880Y448310D02*
D03*
X-52070Y417830D02*
D03*
X60960Y521970D02*
D03*
X50800D02*
D03*
X-64770D02*
D03*
X-55880Y523240D02*
D03*
X-78740Y509270D02*
D03*
X-120650Y538480D02*
D03*
X-132080Y521970D02*
D03*
X-137160Y514350D02*
D03*
X-147320D02*
D03*
X-167640Y467360D02*
D03*
X-158750Y443230D02*
D03*
X-167640D02*
D03*
X-256540Y488950D02*
D03*
X-243840Y485140D02*
D03*
X-424180Y271780D02*
D03*
Y262890D02*
D03*
Y281940D02*
D03*
X-303530Y241300D02*
D03*
X-262685Y241939D02*
D03*
X-271575Y234319D02*
D03*
X-283005D02*
D03*
X-294640Y234950D02*
D03*
X-323645Y337189D02*
D03*
X-332535Y329569D02*
D03*
X-370840Y326390D02*
D03*
X-382270Y349930D02*
D03*
X-426720Y367030D02*
D03*
X-415290D02*
D03*
X-422910Y323850D02*
D03*
X-433070Y328930D02*
D03*
X-461010Y355600D02*
D03*
X-500380Y293370D02*
D03*
X-488950D02*
D03*
X-519225Y371479D02*
D03*
X-530655D02*
D03*
X-589954Y381639D02*
D03*
X-599440Y381000D02*
D03*
X-609395Y381639D02*
D03*
X-618285D02*
D03*
X-627175D02*
D03*
X-573835Y481969D02*
D03*
X-585265D02*
D03*
X-597965D02*
D03*
X-606855D02*
D03*
X-617015D02*
D03*
X-303530Y1014730D02*
D03*
X353060Y676910D02*
D03*
X-337820Y683260D02*
D03*
X-83820Y331470D02*
D03*
X35560D02*
D03*
X30480Y477520D02*
D03*
X9420Y478367D02*
D03*
X30480Y486410D02*
D03*
X9420Y487257D02*
D03*
X-63500Y502920D02*
D03*
X694690Y566420D02*
D03*
X-123190Y500380D02*
D03*
X-205740Y462280D02*
D03*
X-223520D02*
D03*
X-213360Y452120D02*
D03*
X-201930Y393700D02*
D03*
X-209550Y401320D02*
D03*
X-430668Y381862D02*
D03*
X-393838D02*
D03*
X-185420Y449580D02*
D03*
X-176530Y445770D02*
D03*
X-250190Y270510D02*
D03*
X84657Y371772D02*
D03*
X63500Y350520D02*
D03*
X-570230Y434340D02*
D03*
X-741759Y1038781D02*
D03*
X706041Y651431D02*
D03*
X-723979Y598091D02*
D03*
X128191Y1050211D02*
D03*
X-737949Y796211D02*
D03*
X-798909Y817801D02*
D03*
X-784939Y1066721D02*
D03*
X-443309Y1262301D02*
D03*
X-492839Y1184831D02*
D03*
X-138509Y1128951D02*
D03*
X81201Y1074341D02*
D03*
X450771Y1262301D02*
D03*
X410131Y1187371D02*
D03*
X703501Y1112441D02*
D03*
X653971Y1034971D02*
D03*
X735251Y872411D02*
D03*
X694611Y794941D02*
D03*
D63*
X-284480Y411480D02*
D03*
X-283210Y375920D02*
D03*
X-237490D02*
D03*
X-238760Y412750D02*
D03*
X-331470Y375920D02*
D03*
Y414020D02*
D03*
M02*
