G04*
G04 #@! TF.GenerationSoftware,Altium Limited,Altium Designer,25.3.3 (18)*
G04*
G04 Layer_Color=128*
%FSLAX44Y44*%
%MOMM*%
G71*
G04*
G04 #@! TF.SameCoordinates,03B7C616-348C-440E-9E9C-07167A9097DF*
G04*
G04*
G04 #@! TF.FilePolarity,Positive*
G04*
G01*
G75*
%ADD99C,0.1270*%
D99*
X-318420Y988060D02*
X-306420D01*
X-312420Y982060D02*
Y994060D01*
X-293020Y988060D02*
X-281020D01*
X-287020Y982060D02*
Y994060D01*
X-267620Y988060D02*
X-255620D01*
X-261620Y982060D02*
Y994060D01*
X-242220Y988060D02*
X-230220D01*
X-236220Y982060D02*
Y994060D01*
X-216820Y988060D02*
X-204820D01*
X-210820Y982060D02*
Y994060D01*
X-191420Y988060D02*
X-179420D01*
X-185420Y982060D02*
Y994060D01*
X-166020Y988060D02*
X-154020D01*
X-160020Y982060D02*
Y994060D01*
X-140620Y988060D02*
X-128620D01*
X-134620Y982060D02*
Y994060D01*
X-115220Y988060D02*
X-103220D01*
X-109220Y982060D02*
Y994060D01*
X-89820Y988060D02*
X-77820D01*
X-83820Y982060D02*
Y994060D01*
X-64420Y988060D02*
X-52420D01*
X-58420Y982060D02*
Y994060D01*
X-39020Y988060D02*
X-27020D01*
X-33020Y982060D02*
Y994060D01*
X-13620Y988060D02*
X-1620D01*
X-7620Y982060D02*
Y994060D01*
X11780Y988060D02*
X23780D01*
X17780Y982060D02*
Y994060D01*
X37180Y988060D02*
X49180D01*
X43180Y982060D02*
Y994060D01*
X62580Y988060D02*
X74580D01*
X68580Y982060D02*
Y994060D01*
X-318420Y668060D02*
X-306420D01*
X-312420Y662060D02*
Y674060D01*
X-293020Y668060D02*
X-281020D01*
X-287020Y662060D02*
Y674060D01*
X-267620Y668060D02*
X-255620D01*
X-261620Y662060D02*
Y674060D01*
X-242220Y668060D02*
X-230220D01*
X-236220Y662060D02*
Y674060D01*
X-216820Y668060D02*
X-204820D01*
X-210820Y662060D02*
Y674060D01*
X-191420Y668060D02*
X-179420D01*
X-185420Y662060D02*
Y674060D01*
X-166020Y668060D02*
X-154020D01*
X-160020Y662060D02*
Y674060D01*
X-140620Y668060D02*
X-128620D01*
X-134620Y662060D02*
Y674060D01*
X-115220Y668060D02*
X-103220D01*
X-109220Y662060D02*
Y674060D01*
X-89820Y668060D02*
X-77820D01*
X-83820Y662060D02*
Y674060D01*
X-64420Y668060D02*
X-52420D01*
X-58420Y662060D02*
Y674060D01*
X-39020Y668060D02*
X-27020D01*
X-33020Y662060D02*
Y674060D01*
X-13620Y668060D02*
X-1620D01*
X-7620Y662060D02*
Y674060D01*
X11780Y668060D02*
X23780D01*
X17780Y662060D02*
Y674060D01*
X37180Y668060D02*
X49180D01*
X43180Y662060D02*
Y674060D01*
X62580Y668060D02*
X74580D01*
X68580Y662060D02*
Y674060D01*
X-380920Y673060D02*
X-353920D01*
X-367420Y659560D02*
Y686560D01*
X369080Y673060D02*
X396080D01*
X382580Y659560D02*
Y686560D01*
X-380920Y983060D02*
X-353920D01*
X-367420Y969560D02*
Y996560D01*
X369080Y983060D02*
X396080D01*
X382580Y969560D02*
Y996560D01*
X-618450Y464230D02*
X-613450D01*
X-615950Y461730D02*
Y466730D01*
X-618450Y398230D02*
X-613450D01*
X-615950Y395730D02*
Y400730D01*
X558515Y427211D02*
X561515D01*
X560015Y425711D02*
Y428711D01*
X580105Y427211D02*
X583105D01*
X581605Y425711D02*
Y428711D01*
X597885Y427211D02*
X600885D01*
X599385Y425711D02*
Y428711D01*
X616935Y427211D02*
X619935D01*
X618435Y425711D02*
Y428711D01*
X558515Y447531D02*
X561515D01*
X560015Y446031D02*
Y449031D01*
X580105Y447531D02*
X583105D01*
X581605Y446031D02*
Y449031D01*
X597885Y447531D02*
X600885D01*
X599385Y446031D02*
Y449031D01*
X616935Y447531D02*
X619935D01*
X618435Y446031D02*
Y449031D01*
X616905Y489200D02*
X619905D01*
X618405Y487700D02*
Y490700D01*
X597855Y489200D02*
X600855D01*
X599355Y487700D02*
Y490700D01*
X580075Y489200D02*
X583075D01*
X581575Y487700D02*
Y490700D01*
X558485Y489200D02*
X561485D01*
X559985Y487700D02*
Y490700D01*
X616905Y468880D02*
X619905D01*
X618405Y467380D02*
Y470380D01*
X597855Y468880D02*
X600855D01*
X599355Y467380D02*
Y470380D01*
X580075Y468880D02*
X583075D01*
X581575Y467380D02*
Y470380D01*
X558485Y468880D02*
X561485D01*
X559985Y467380D02*
Y470380D01*
X481179Y447191D02*
X484179D01*
X482679Y445691D02*
Y448691D01*
X502769Y447191D02*
X505769D01*
X504269Y445691D02*
Y448691D01*
X520549Y447191D02*
X523549D01*
X522049Y445691D02*
Y448691D01*
X539599Y447191D02*
X542599D01*
X541099Y445691D02*
Y448691D01*
X481179Y468781D02*
X484179D01*
X482679Y467281D02*
Y470281D01*
X502769Y468781D02*
X505769D01*
X504269Y467281D02*
Y470281D01*
X520549Y468781D02*
X523549D01*
X522049Y467281D02*
Y470281D01*
X539599Y468781D02*
X542599D01*
X541099Y467281D02*
Y470281D01*
X539170Y489602D02*
X542170D01*
X540670Y488102D02*
Y491102D01*
X520120Y489602D02*
X523120D01*
X521620Y488102D02*
Y491102D01*
X502340Y489602D02*
X505340D01*
X503840Y488102D02*
Y491102D01*
X480750Y489602D02*
X483750D01*
X482250Y488102D02*
Y491102D01*
X540790Y427990D02*
X543790D01*
X542290Y426490D02*
Y429490D01*
X521740Y426720D02*
X524740D01*
X523240Y425220D02*
Y428220D01*
X502690Y426720D02*
X505690D01*
X504190Y425220D02*
Y428220D01*
X481021Y427686D02*
X484021D01*
X482521Y426186D02*
Y429186D01*
X-574270Y354330D02*
X-571270D01*
X-572770Y352830D02*
Y355830D01*
X91900Y209966D02*
X94900D01*
X93400Y208466D02*
Y211466D01*
X72850Y209966D02*
X75850D01*
X74350Y208466D02*
Y211466D01*
X55070Y209966D02*
X58070D01*
X56570Y208466D02*
Y211466D01*
X33480Y209966D02*
X36480D01*
X34980Y208466D02*
Y211466D01*
X13160Y209966D02*
X16160D01*
X14660Y208466D02*
Y211466D01*
X-7160Y209966D02*
X-4160D01*
X-5660Y208466D02*
Y211466D01*
X-24940Y209966D02*
X-21940D01*
X-23440Y208466D02*
Y211466D01*
X-42720Y209966D02*
X-39720D01*
X-41220Y208466D02*
Y211466D01*
X-61770Y209966D02*
X-58770D01*
X-60270Y208466D02*
Y211466D01*
X166061Y261316D02*
X169061D01*
X167561Y259816D02*
Y262816D01*
X187730Y260350D02*
X190730D01*
X189230Y258850D02*
Y261850D01*
X206780Y260350D02*
X209780D01*
X208280Y258850D02*
Y261850D01*
X225830Y261620D02*
X228830D01*
X227330Y260120D02*
Y263120D01*
X165790Y324502D02*
X168790D01*
X167290Y323002D02*
Y326002D01*
X187380Y324502D02*
X190380D01*
X188880Y323002D02*
Y326002D01*
X205160Y324502D02*
X208160D01*
X206660Y323002D02*
Y326002D01*
X224210Y324502D02*
X227210D01*
X225710Y323002D02*
Y326002D01*
X224639Y302411D02*
X227639D01*
X226139Y300911D02*
Y303911D01*
X205589Y302411D02*
X208589D01*
X207089Y300911D02*
Y303911D01*
X187809Y302411D02*
X190809D01*
X189309Y300911D02*
Y303911D01*
X166219Y302411D02*
X169219D01*
X167719Y300911D02*
Y303911D01*
X224639Y280821D02*
X227639D01*
X226139Y279321D02*
Y282321D01*
X205589Y280821D02*
X208589D01*
X207089Y279321D02*
Y282321D01*
X187809Y280821D02*
X190809D01*
X189309Y279321D02*
Y282321D01*
X166219Y280821D02*
X169219D01*
X167719Y279321D02*
Y282321D01*
X156764Y482669D02*
X159764D01*
X158265Y481169D02*
Y484169D01*
X175814Y482669D02*
X178815D01*
X177314Y481169D02*
Y484169D01*
X193594Y482669D02*
X196595D01*
X195095Y481169D02*
Y484169D01*
X211374Y482669D02*
X214375D01*
X212875Y481169D02*
Y484169D01*
X155980Y452120D02*
X158980D01*
X157480Y450620D02*
Y453620D01*
X175030Y452120D02*
X178030D01*
X176530Y450620D02*
Y453620D01*
X192810Y452120D02*
X195810D01*
X194310Y450620D02*
Y453620D01*
X210590Y452120D02*
X213590D01*
X212090Y450620D02*
Y453620D01*
X251230Y452120D02*
X254230D01*
X252730Y450620D02*
Y453620D01*
X272820Y452120D02*
X275820D01*
X274320Y450620D02*
Y453620D01*
X290600Y452120D02*
X293600D01*
X292100Y450620D02*
Y453620D01*
X231695Y482669D02*
X234694D01*
X233195Y481169D02*
Y484169D01*
X309650Y452120D02*
X312650D01*
X311150Y450620D02*
Y453620D01*
X252015Y482669D02*
X255014D01*
X253514Y481169D02*
Y484169D01*
X273605Y482669D02*
X276604D01*
X275105Y481169D02*
Y484169D01*
X291385Y482669D02*
X294384D01*
X292885Y481169D02*
Y484169D01*
X310434Y482669D02*
X313435D01*
X311935Y481169D02*
Y484169D01*
X230910Y452120D02*
X233910D01*
X232410Y450620D02*
Y453620D01*
X-123341Y254151D02*
X-120341D01*
X-121841Y252651D02*
Y255651D01*
X-101751Y254151D02*
X-98751D01*
X-100251Y252651D02*
Y255651D01*
X-83971Y254151D02*
X-80971D01*
X-82471Y252651D02*
Y255651D01*
X-64921Y254151D02*
X-61921D01*
X-63421Y252651D02*
Y255651D01*
X-123341Y275741D02*
X-120341D01*
X-121841Y274241D02*
Y277241D01*
X-101751Y275741D02*
X-98751D01*
X-100251Y274241D02*
Y277241D01*
X-83971Y275741D02*
X-80971D01*
X-82471Y274241D02*
Y277241D01*
X-64921Y275741D02*
X-61921D01*
X-63421Y274241D02*
Y277241D01*
X-260930Y208932D02*
X-257930D01*
X-259430Y207432D02*
Y210432D01*
X-279980Y208932D02*
X-276980D01*
X-278480Y207432D02*
Y210432D01*
X-297760Y208932D02*
X-294760D01*
X-296260Y207432D02*
Y210432D01*
X-319350Y208932D02*
X-316350D01*
X-317850Y207432D02*
Y210432D01*
X-65350Y297832D02*
X-62350D01*
X-63850Y296332D02*
Y299332D01*
X-84400Y297832D02*
X-81400D01*
X-82900Y296332D02*
Y299332D01*
X-102180Y297832D02*
X-99180D01*
X-100680Y296332D02*
Y299332D01*
X-123770Y297832D02*
X-120770D01*
X-122270Y296332D02*
Y299332D01*
X43115Y235509D02*
X46115D01*
X44615Y234009D02*
Y237009D01*
X24065Y235509D02*
X27065D01*
X25565Y234009D02*
Y237009D01*
X6285Y235509D02*
X9285D01*
X7785Y234009D02*
Y237009D01*
X-15305Y235509D02*
X-12305D01*
X-13805Y234009D02*
Y237009D01*
X-35625Y235509D02*
X-32625D01*
X-34125Y234009D02*
Y237009D01*
X-55945Y235509D02*
X-52945D01*
X-54445Y234009D02*
Y237009D01*
X-73725Y235509D02*
X-70725D01*
X-72225Y234009D02*
Y237009D01*
X-91505Y235509D02*
X-88505D01*
X-90005Y234009D02*
Y237009D01*
X-110555Y235509D02*
X-107555D01*
X-109055Y234009D02*
Y237009D01*
X275681Y211484D02*
X278681D01*
X277181Y209984D02*
Y212984D01*
X256631Y211484D02*
X259631D01*
X258131Y209984D02*
Y212984D01*
X238851Y211484D02*
X241851D01*
X240351Y209984D02*
Y212984D01*
X217261Y211484D02*
X220261D01*
X218761Y209984D02*
Y212984D01*
X196941Y211484D02*
X199941D01*
X198441Y209984D02*
Y212984D01*
X176621Y211484D02*
X179621D01*
X178121Y209984D02*
Y212984D01*
X158841Y211484D02*
X161841D01*
X160341Y209984D02*
Y212984D01*
X141061Y211484D02*
X144061D01*
X142561Y209984D02*
Y212984D01*
X122011Y211484D02*
X125011D01*
X123511Y209984D02*
Y212984D01*
X632047Y517027D02*
X635047D01*
X633547Y515527D02*
Y518527D01*
X612997Y517027D02*
X615997D01*
X614497Y515527D02*
Y518527D01*
X595217Y517027D02*
X598217D01*
X596717Y515527D02*
Y518527D01*
X573627Y517027D02*
X576627D01*
X575127Y515527D02*
Y518527D01*
X553307Y517027D02*
X556307D01*
X554807Y515527D02*
Y518527D01*
X532987Y517027D02*
X535987D01*
X534487Y515527D02*
Y518527D01*
X515207Y517027D02*
X518207D01*
X516707Y515527D02*
Y518527D01*
X497427Y517027D02*
X500427D01*
X498927Y515527D02*
Y518527D01*
X478377Y517027D02*
X481377D01*
X479877Y515527D02*
Y518527D01*
X447897Y518297D02*
X450897D01*
X449397Y516797D02*
Y519797D01*
X428847Y518297D02*
X431847D01*
X430347Y516797D02*
Y519797D01*
X411067Y518297D02*
X414067D01*
X412567Y516797D02*
Y519797D01*
X389477Y518297D02*
X392477D01*
X390977Y516797D02*
Y519797D01*
X369157Y518297D02*
X372157D01*
X370657Y516797D02*
Y519797D01*
X348837Y518297D02*
X351837D01*
X350337Y516797D02*
Y519797D01*
X331057Y518297D02*
X334057D01*
X332557Y516797D02*
Y519797D01*
X313277Y518297D02*
X316277D01*
X314777Y516797D02*
Y519797D01*
X294227Y518297D02*
X297227D01*
X295727Y516797D02*
Y519797D01*
X-395268Y481980D02*
X-392268D01*
X-393768Y480480D02*
Y483480D01*
X-414318Y481980D02*
X-411318D01*
X-412818Y480480D02*
Y483480D01*
X-432098Y481980D02*
X-429098D01*
X-430598Y480480D02*
Y483480D01*
X-453688Y481980D02*
X-450688D01*
X-452188Y480480D02*
Y483480D01*
X-474008Y481980D02*
X-471008D01*
X-472508Y480480D02*
Y483480D01*
X-494328Y481980D02*
X-491328D01*
X-492828Y480480D02*
Y483480D01*
X-512108Y481980D02*
X-509108D01*
X-510608Y480480D02*
Y483480D01*
X-529888Y481980D02*
X-526888D01*
X-528388Y480480D02*
Y483480D01*
X-548938Y481980D02*
X-545938D01*
X-547438Y480480D02*
Y483480D01*
X-546009Y450244D02*
X-543009D01*
X-544509Y448744D02*
Y451744D01*
X-526959Y450244D02*
X-523959D01*
X-525459Y448744D02*
Y451744D01*
X-509179Y450244D02*
X-506179D01*
X-507679Y448744D02*
Y451744D01*
X-491399Y450244D02*
X-488399D01*
X-489899Y448744D02*
Y451744D01*
X-471079Y450244D02*
X-468079D01*
X-469579Y448744D02*
Y451744D01*
X-450759Y450244D02*
X-447759D01*
X-449259Y448744D02*
Y451744D01*
X-429169Y450244D02*
X-426169D01*
X-427669Y448744D02*
Y451744D01*
X-411389Y450244D02*
X-408389D01*
X-409889Y448744D02*
Y451744D01*
X-392339Y450244D02*
X-389339D01*
X-390839Y448744D02*
Y451744D01*
X99151Y518824D02*
X102151D01*
X100651Y517324D02*
Y520324D01*
X118201Y518824D02*
X121201D01*
X119701Y517324D02*
Y520324D01*
X135981Y518824D02*
X138981D01*
X137481Y517324D02*
Y520324D01*
X153761Y518824D02*
X156761D01*
X155261Y517324D02*
Y520324D01*
X174081Y518824D02*
X177081D01*
X175581Y517324D02*
Y520324D01*
X194401Y518824D02*
X197401D01*
X195901Y517324D02*
Y520324D01*
X215991Y518824D02*
X218991D01*
X217491Y517324D02*
Y520324D01*
X233771Y518824D02*
X236771D01*
X235271Y517324D02*
Y520324D01*
X252821Y518824D02*
X255821D01*
X254321Y517324D02*
Y520324D01*
X-234859Y210214D02*
X-231859D01*
X-233359Y208714D02*
Y211714D01*
X-215809Y210214D02*
X-212809D01*
X-214309Y208714D02*
Y211714D01*
X-198029Y210214D02*
X-195029D01*
X-196529Y208714D02*
Y211714D01*
X-180249Y210214D02*
X-177249D01*
X-178749Y208714D02*
Y211714D01*
X-159929Y210214D02*
X-156929D01*
X-158429Y208714D02*
Y211714D01*
X-139609Y210214D02*
X-136609D01*
X-138109Y208714D02*
Y211714D01*
X-118019Y210214D02*
X-115019D01*
X-116519Y208714D02*
Y211714D01*
X-100239Y210214D02*
X-97239D01*
X-98739Y208714D02*
Y211714D01*
X-81189Y210214D02*
X-78189D01*
X-79689Y208714D02*
Y211714D01*
X56920Y381000D02*
X59920D01*
X58420Y379500D02*
Y382500D01*
X55650Y389890D02*
X58650D01*
X57150Y388390D02*
Y391390D01*
X18820Y369570D02*
X21820D01*
X20320Y368070D02*
Y371070D01*
X-359640Y325120D02*
X-356640D01*
X-358140Y323620D02*
Y326620D01*
X-511835Y376559D02*
X-508835D01*
X-510335Y375059D02*
Y378059D01*
X-231370Y439420D02*
X-228370D01*
X-229870Y437920D02*
Y440920D01*
X-237720Y469900D02*
X-234720D01*
X-236220Y468400D02*
Y471400D01*
X-244070Y476250D02*
X-241070D01*
X-242570Y474750D02*
Y477750D01*
X-325350Y490220D02*
X-322350D01*
X-323850Y488720D02*
Y491720D01*
X-313920Y490220D02*
X-310920D01*
X-312420Y488720D02*
Y491720D01*
X-299950Y490220D02*
X-296950D01*
X-298450Y488720D02*
Y491720D01*
X-285980Y490220D02*
X-282980D01*
X-284480Y488720D02*
Y491720D01*
X-273280Y490220D02*
X-270280D01*
X-271780Y488720D02*
Y491720D01*
X-331700Y347980D02*
X-328700D01*
X-330200Y346480D02*
Y349480D01*
X-344400Y340360D02*
X-341400D01*
X-342900Y338860D02*
Y341860D01*
X-357100Y340360D02*
X-354100D01*
X-355600Y338860D02*
Y341860D01*
X-369800Y340360D02*
X-366800D01*
X-368300Y338860D02*
Y341860D01*
X-181664Y335468D02*
X-178664D01*
X-180164Y333968D02*
Y336968D01*
X-160777Y297933D02*
X-157777D01*
X-159277Y296433D02*
Y299433D01*
X-160777Y309363D02*
X-157777D01*
X-159277Y307863D02*
Y310863D01*
X-160777Y320793D02*
X-157777D01*
X-159277Y319293D02*
Y322293D01*
X-160777Y332223D02*
X-157777D01*
X-159277Y330723D02*
Y333723D01*
X-160777Y250943D02*
X-157777D01*
X-159277Y249443D02*
Y252443D01*
X-160777Y262373D02*
X-157777D01*
X-159277Y260873D02*
Y263873D01*
X-160777Y273803D02*
X-157777D01*
X-159277Y272303D02*
Y275303D01*
X-160777Y285233D02*
X-157777D01*
X-159277Y283733D02*
Y286733D01*
X-205217Y236747D02*
X-202217D01*
X-203717Y235247D02*
Y238247D01*
X-193787Y236747D02*
X-190787D01*
X-192287Y235247D02*
Y238247D01*
X-182357Y236747D02*
X-179357D01*
X-180857Y235247D02*
Y238247D01*
X-170927Y236747D02*
X-167927D01*
X-169427Y235247D02*
Y238247D01*
X-252207Y236747D02*
X-249207D01*
X-250707Y235247D02*
Y238247D01*
X-240777Y236747D02*
X-237777D01*
X-239277Y235247D02*
Y238247D01*
X-229347Y236747D02*
X-226347D01*
X-227847Y235247D02*
Y238247D01*
X-217917Y236747D02*
X-214917D01*
X-216417Y235247D02*
Y238247D01*
X-316853Y247228D02*
X-313853D01*
X-315353Y245728D02*
Y248728D01*
X-316853Y258658D02*
X-313853D01*
X-315353Y257158D02*
Y260158D01*
X-316853Y270088D02*
X-313853D01*
X-315353Y268588D02*
Y271588D01*
X-316853Y281518D02*
X-313853D01*
X-315353Y280018D02*
Y283018D01*
X-206363Y339938D02*
X-203363D01*
X-204863Y338438D02*
Y341438D01*
X-220333Y339938D02*
X-217333D01*
X-218833Y338438D02*
Y341438D01*
X-233033Y339938D02*
X-230033D01*
X-231533Y338438D02*
Y341438D01*
X-244463Y345018D02*
X-241463D01*
X-242963Y343518D02*
Y346518D01*
X-259703Y355178D02*
X-256703D01*
X-258203Y353678D02*
Y356678D01*
X-271133Y355178D02*
X-268133D01*
X-269633Y353678D02*
Y356678D01*
X-281293Y355178D02*
X-278293D01*
X-279793Y353678D02*
Y356678D01*
X-293600Y355600D02*
X-290600D01*
X-292100Y354100D02*
Y357100D01*
X-306300Y355600D02*
X-303300D01*
X-304800Y354100D02*
Y357100D01*
X-317730Y355600D02*
X-314730D01*
X-316230Y354100D02*
Y357100D01*
X-444996Y404562D02*
X-441996D01*
X-443496Y403062D02*
Y406062D01*
X-448806Y374082D02*
X-445806D01*
X-447306Y372582D02*
Y375582D01*
X-444996Y385512D02*
X-441996D01*
X-443496Y384012D02*
Y387012D01*
X-490450Y373380D02*
X-487450D01*
X-488950Y371880D02*
Y374880D01*
X-461240Y373380D02*
X-458240D01*
X-459740Y371880D02*
Y374880D01*
X-472670Y373380D02*
X-469670D01*
X-471170Y371880D02*
Y374880D01*
X-569190Y345440D02*
X-566190D01*
X-567690Y343940D02*
Y346940D01*
X-559030Y345440D02*
X-556030D01*
X-557530Y343940D02*
Y346940D01*
X-548870Y344170D02*
X-545870D01*
X-547370Y342670D02*
Y345670D01*
X-543790Y353060D02*
X-540790D01*
X-542290Y351560D02*
Y354560D01*
X-574065Y447679D02*
X-571065D01*
X-572565Y446179D02*
Y449179D01*
X-574270Y457200D02*
X-571270D01*
X-572770Y455700D02*
Y458700D01*
X-574270Y468630D02*
X-571270D01*
X-572770Y467130D02*
Y470130D01*
X96290Y251460D02*
X99290D01*
X97790Y249960D02*
Y252960D01*
X112800Y251460D02*
X115800D01*
X114300Y249960D02*
Y252960D01*
X105086Y247251D02*
X108086D01*
X106586Y245751D02*
Y248751D01*
X143280Y311150D02*
X146280D01*
X144780Y309650D02*
Y312650D01*
X143280Y281940D02*
X146280D01*
X144780Y280440D02*
Y283440D01*
X149630Y290830D02*
X152630D01*
X151130Y289330D02*
Y292330D01*
X148360Y302260D02*
X151360D01*
X149860Y300760D02*
Y303760D01*
X128040Y312420D02*
X131040D01*
X129540Y310920D02*
Y313920D01*
X129216Y280271D02*
X132216D01*
X130716Y278771D02*
Y281771D01*
X127946Y323451D02*
X130946D01*
X129446Y321951D02*
Y324951D01*
X117786Y323451D02*
X120786D01*
X119286Y321951D02*
Y324951D01*
X-200890Y1071880D02*
X-197890D01*
X-199390Y1070380D02*
Y1073380D01*
X119098Y414210D02*
X122098D01*
X120598Y412710D02*
Y415710D01*
X-53570Y455930D02*
X-50570D01*
X-52070Y454430D02*
Y457430D01*
X72160Y381000D02*
X75160D01*
X73660Y379500D02*
Y382500D01*
X72160Y392430D02*
X75160D01*
X73660Y390930D02*
Y393930D01*
X28980Y365760D02*
X31980D01*
X30480Y364260D02*
Y367260D01*
X-571730Y426720D02*
X-568730D01*
X-570230Y425220D02*
Y428220D01*
X-329160Y254000D02*
X-326160D01*
X-327660Y252500D02*
Y255500D01*
X-329160Y271780D02*
X-326160D01*
X-327660Y270280D02*
Y273280D01*
X-329160Y262890D02*
X-326160D01*
X-327660Y261390D02*
Y264390D01*
X-329160Y281940D02*
X-326160D01*
X-327660Y280440D02*
Y283440D01*
X-425680Y252730D02*
X-422680D01*
X-424180Y251230D02*
Y254230D01*
X-628675Y481969D02*
X-625675D01*
X-627175Y480469D02*
Y483469D01*
X145820Y363220D02*
X148820D01*
X147320Y361720D02*
Y364720D01*
X-53570Y417830D02*
X-50570D01*
X-52070Y416330D02*
Y419330D01*
X-258040Y488950D02*
X-255040D01*
X-256540Y487450D02*
Y490450D01*
X-245340Y485140D02*
X-242340D01*
X-243840Y483640D02*
Y486640D01*
X-425680Y271780D02*
X-422680D01*
X-424180Y270280D02*
Y273280D01*
X-425680Y262890D02*
X-422680D01*
X-424180Y261390D02*
Y264390D01*
X-425680Y281940D02*
X-422680D01*
X-424180Y280440D02*
Y283440D01*
X-305030Y241300D02*
X-302030D01*
X-303530Y239800D02*
Y242800D01*
X-264185Y241939D02*
X-261185D01*
X-262685Y240439D02*
Y243439D01*
X-273075Y234319D02*
X-270075D01*
X-271575Y232819D02*
Y235819D01*
X-284505Y234319D02*
X-281505D01*
X-283005Y232819D02*
Y235819D01*
X-296140Y234950D02*
X-293140D01*
X-294640Y233450D02*
Y236450D01*
X-325145Y337189D02*
X-322145D01*
X-323645Y335689D02*
Y338689D01*
X-334035Y329569D02*
X-331035D01*
X-332535Y328069D02*
Y331069D01*
X-372340Y326390D02*
X-369340D01*
X-370840Y324890D02*
Y327890D01*
X-383770Y349930D02*
X-380770D01*
X-382270Y348430D02*
Y351430D01*
X-428220Y367030D02*
X-425220D01*
X-426720Y365530D02*
Y368530D01*
X-416790Y367030D02*
X-413790D01*
X-415290Y365530D02*
Y368530D01*
X-424410Y323850D02*
X-421410D01*
X-422910Y322350D02*
Y325350D01*
X-434570Y328930D02*
X-431570D01*
X-433070Y327430D02*
Y330430D01*
X-462510Y355600D02*
X-459510D01*
X-461010Y354100D02*
Y357100D01*
X-501880Y293370D02*
X-498880D01*
X-500380Y291870D02*
Y294870D01*
X-490450Y293370D02*
X-487450D01*
X-488950Y291870D02*
Y294870D01*
X-520725Y371479D02*
X-517725D01*
X-519225Y369979D02*
Y372979D01*
X-532155Y371479D02*
X-529155D01*
X-530655Y369979D02*
Y372979D01*
X-591455Y381639D02*
X-588455D01*
X-589954Y380139D02*
Y383139D01*
X-600940Y381000D02*
X-597940D01*
X-599440Y379500D02*
Y382500D01*
X-610895Y381639D02*
X-607895D01*
X-609395Y380139D02*
Y383139D01*
X-619785Y381639D02*
X-616785D01*
X-618285Y380139D02*
Y383139D01*
X-628675Y381639D02*
X-625675D01*
X-627175Y380139D02*
Y383139D01*
X-575335Y481969D02*
X-572335D01*
X-573835Y480469D02*
Y483469D01*
X-586765Y481969D02*
X-583765D01*
X-585265Y480469D02*
Y483469D01*
X-599465Y481969D02*
X-596465D01*
X-597965Y480469D02*
Y483469D01*
X-608355Y481969D02*
X-605355D01*
X-606855Y480469D02*
Y483469D01*
X-618515Y481969D02*
X-615515D01*
X-617015Y480469D02*
Y483469D01*
X351560Y676910D02*
X354560D01*
X353060Y675410D02*
Y678410D01*
X-339320Y683260D02*
X-336320D01*
X-337820Y681760D02*
Y684760D01*
X-85320Y331470D02*
X-82320D01*
X-83820Y329970D02*
Y332970D01*
X34060Y331470D02*
X37060D01*
X35560Y329970D02*
Y332970D01*
X28980Y477520D02*
X31980D01*
X30480Y476020D02*
Y479020D01*
X7921Y478367D02*
X10920D01*
X9420Y476867D02*
Y479867D01*
X28980Y486410D02*
X31980D01*
X30480Y484910D02*
Y487910D01*
X7921Y487257D02*
X10920D01*
X9420Y485757D02*
Y488757D01*
X-65000Y502920D02*
X-62000D01*
X-63500Y501420D02*
Y504420D01*
X693190Y566420D02*
X696190D01*
X694690Y564920D02*
Y567920D01*
X-124690Y500380D02*
X-121690D01*
X-123190Y498880D02*
Y501880D01*
X-207240Y462280D02*
X-204240D01*
X-205740Y460780D02*
Y463780D01*
X-225020Y462280D02*
X-222020D01*
X-223520Y460780D02*
Y463780D01*
X-214860Y452120D02*
X-211860D01*
X-213360Y450620D02*
Y453620D01*
X-288036Y411480D02*
X-280924D01*
X-284480Y407924D02*
Y415036D01*
X-286766Y375920D02*
X-279654D01*
X-283210Y372364D02*
Y379476D01*
X-241046Y375920D02*
X-233934D01*
X-237490Y372364D02*
Y379476D01*
X-242316Y412750D02*
X-235204D01*
X-238760Y409194D02*
Y416306D01*
X-335026Y375920D02*
X-327914D01*
X-331470Y372364D02*
Y379476D01*
X-335026Y414020D02*
X-327914D01*
X-331470Y410464D02*
Y417576D01*
X-203430Y393700D02*
X-200430D01*
X-201930Y392200D02*
Y395200D01*
X-211050Y401320D02*
X-208050D01*
X-209550Y399820D02*
Y402820D01*
X-432168Y381862D02*
X-429168D01*
X-430668Y380362D02*
Y383362D01*
X-395338Y381862D02*
X-392338D01*
X-393838Y380362D02*
Y383362D01*
X-186920Y449580D02*
X-183920D01*
X-185420Y448080D02*
Y451080D01*
X-178030Y445770D02*
X-175030D01*
X-176530Y444270D02*
Y447270D01*
X-251690Y270510D02*
X-248690D01*
X-250190Y269010D02*
Y272010D01*
X62000Y350520D02*
X65000D01*
X63500Y349020D02*
Y352020D01*
X-571730Y434340D02*
X-568730D01*
X-570230Y432840D02*
Y435840D01*
X-743259Y1038781D02*
X-740259D01*
X-741759Y1037281D02*
Y1040281D01*
X704541Y651431D02*
X707541D01*
X706041Y649931D02*
Y652931D01*
X-725479Y598091D02*
X-722479D01*
X-723979Y596591D02*
Y599591D01*
X126691Y1050211D02*
X129691D01*
X128191Y1048711D02*
Y1051711D01*
X-739449Y796211D02*
X-736449D01*
X-737949Y794711D02*
Y797711D01*
X-800409Y817801D02*
X-797409D01*
X-798909Y816301D02*
Y819301D01*
X-786439Y1066721D02*
X-783439D01*
X-784939Y1065221D02*
Y1068221D01*
X-444809Y1262301D02*
X-441809D01*
X-443309Y1260801D02*
Y1263801D01*
X-494339Y1184831D02*
X-491339D01*
X-492839Y1183331D02*
Y1186331D01*
X-140009Y1128951D02*
X-137009D01*
X-138509Y1127451D02*
Y1130451D01*
X79701Y1074341D02*
X82701D01*
X81201Y1072841D02*
Y1075841D01*
X449271Y1262301D02*
X452271D01*
X450771Y1260801D02*
Y1263801D01*
X408631Y1187371D02*
X411631D01*
X410131Y1185871D02*
Y1188871D01*
X702001Y1112441D02*
X705001D01*
X703501Y1110941D02*
Y1113941D01*
X652471Y1034971D02*
X655471D01*
X653971Y1033471D02*
Y1036471D01*
X733751Y872411D02*
X736751D01*
X735251Y870911D02*
Y873911D01*
X693111Y794941D02*
X696111D01*
X694611Y793441D02*
Y796441D01*
M02*
