G04*
G04 #@! TF.GenerationSoftware,Altium Limited,Altium Designer,25.3.3 (18)*
G04*
G04 Layer_Color=128*
%FSLAX44Y44*%
%MOMM*%
G71*
G04*
G04 #@! TF.SameCoordinates,03B7C616-348C-440E-9E9C-07167A9097DF*
G04*
G04*
G04 #@! TF.FilePolarity,Positive*
G04*
G01*
G75*
%ADD99C,0.1270*%
D99*
X450058Y336547D02*
X453058D01*
X451558Y335047D02*
Y338047D01*
X466568Y367027D02*
X469568D01*
X468068Y365527D02*
Y368527D01*
X438628Y336547D02*
X441628D01*
X440128Y335047D02*
Y338047D01*
X465492Y351350D02*
X468492D01*
X466992Y349850D02*
Y352850D01*
X461488Y336547D02*
X464488D01*
X462988Y335047D02*
Y338047D01*
X-19280Y256540D02*
X-16280D01*
X-17780Y255040D02*
Y258040D01*
X-29440Y254000D02*
X-26440D01*
X-27940Y252500D02*
Y255500D01*
X-40870Y257810D02*
X-37870D01*
X-39370Y256310D02*
Y259310D01*
X-40870Y267970D02*
X-37870D01*
X-39370Y266470D02*
Y269470D01*
X-157710Y556260D02*
X-154710D01*
X-156210Y554760D02*
Y557760D01*
X-251690Y533400D02*
X-248690D01*
X-250190Y531900D02*
Y534900D01*
X-261850Y537210D02*
X-258850D01*
X-260350Y535710D02*
Y538710D01*
X-261850Y546100D02*
X-258850D01*
X-260350Y544600D02*
Y547600D01*
X-260580Y554990D02*
X-257580D01*
X-259080Y553490D02*
Y556490D01*
X-158980Y534670D02*
X-155980D01*
X-157480Y533170D02*
Y536170D01*
X-169140Y532130D02*
X-166140D01*
X-167640Y530630D02*
Y533630D01*
X-155170Y547370D02*
X-152170D01*
X-153670Y545870D02*
Y548870D01*
X131850Y403860D02*
X134850D01*
X133350Y402360D02*
Y405360D01*
X39420Y343225D02*
X42420D01*
X40919Y341725D02*
Y344725D01*
X30250Y353060D02*
X33250D01*
X31750Y351560D02*
Y354560D01*
X277900Y379730D02*
X280900D01*
X279400Y378230D02*
Y381230D01*
X276630Y360680D02*
X279630D01*
X278130Y359180D02*
Y362180D01*
X-632353Y587731D02*
X-629353D01*
X-630853Y586231D02*
Y589231D01*
X-716510Y640080D02*
X-713510D01*
X-715010Y638580D02*
Y641580D01*
X-714903Y622021D02*
X-711903D01*
X-713403Y620521D02*
Y623521D01*
X-702540Y807720D02*
X-699540D01*
X-701040Y806220D02*
Y809220D01*
X-786360Y843280D02*
X-783360D01*
X-784860Y841780D02*
Y844780D01*
X-786360Y852170D02*
X-783360D01*
X-784860Y850670D02*
Y853670D01*
X-782550Y859790D02*
X-779550D01*
X-781050Y858290D02*
Y861290D01*
X-727940Y1031240D02*
X-724940D01*
X-726440Y1029740D02*
Y1032740D01*
X-773660Y1080770D02*
X-770660D01*
X-772160Y1079270D02*
Y1082270D01*
X-774930Y1098550D02*
X-771930D01*
X-773430Y1097050D02*
Y1100050D01*
X-457430Y1179830D02*
X-454430D01*
X-455930Y1178330D02*
Y1181330D01*
X-505353Y1231621D02*
X-502353D01*
X-503853Y1230121D02*
Y1233121D01*
X-506960Y1249680D02*
X-503960D01*
X-505460Y1248180D02*
Y1251180D01*
X-122150Y1056640D02*
X-119150D01*
X-120650Y1055140D02*
Y1058140D01*
X-199620Y1097280D02*
X-196620D01*
X-198120Y1095780D02*
Y1098780D01*
X-199620Y1106170D02*
X-196620D01*
X-198120Y1104670D02*
Y1107670D01*
X-199620Y1115060D02*
X-196620D01*
X-198120Y1113560D02*
Y1116560D01*
X174097Y1063981D02*
X177097D01*
X175597Y1062481D02*
Y1065481D01*
X92480Y1116330D02*
X95480D01*
X93980Y1114830D02*
Y1117830D01*
X91547Y1098271D02*
X94547D01*
X93047Y1096771D02*
Y1099771D01*
X456970Y1195070D02*
X459970D01*
X458470Y1193570D02*
Y1196570D01*
X389660Y1249680D02*
X392660D01*
X391160Y1248180D02*
Y1251180D01*
X389660Y1231900D02*
X392660D01*
X391160Y1230400D02*
Y1233400D01*
X728750Y1046480D02*
X731750D01*
X730250Y1044980D02*
Y1047980D01*
X641120Y1080770D02*
X644120D01*
X642620Y1079270D02*
Y1082270D01*
X642390Y1098550D02*
X645390D01*
X643890Y1097050D02*
Y1100050D01*
X730020Y589280D02*
X733020D01*
X731520Y587780D02*
Y590780D01*
X644930Y621030D02*
X647930D01*
X646430Y619530D02*
Y622530D01*
X643660Y638810D02*
X646660D01*
X645160Y637310D02*
Y640310D01*
X760500Y807720D02*
X763500D01*
X762000Y806220D02*
Y809220D01*
X674140Y858520D02*
X677140D01*
X675640Y857020D02*
Y860020D01*
X674140Y840740D02*
X677140D01*
X675640Y839240D02*
Y842240D01*
X-104494Y500695D02*
X-101494D01*
X-102994Y499195D02*
Y502195D01*
X-93994Y498894D02*
X-90994D01*
X-92494Y497394D02*
Y500394D01*
X-153367Y382124D02*
X-150367D01*
X-151867Y380625D02*
Y383624D01*
X-145010Y381000D02*
X-142010D01*
X-143510Y379500D02*
Y382500D01*
X-167870Y389890D02*
X-164870D01*
X-166370Y388390D02*
Y391390D01*
X-156440Y391160D02*
X-153440D01*
X-154940Y389660D02*
Y392660D01*
X64540Y626110D02*
X67540D01*
X66040Y624610D02*
Y627610D01*
X64540Y636270D02*
X67540D01*
X66040Y634770D02*
Y637770D01*
X62000Y645160D02*
X65000D01*
X63500Y643660D02*
Y646660D01*
X63270Y537210D02*
X66270D01*
X64770Y535710D02*
Y538710D01*
X-76430Y520700D02*
X-73430D01*
X-74930Y519200D02*
Y522200D01*
X-76975Y529590D02*
X-73975D01*
X-75475Y528090D02*
Y531090D01*
X-105640Y549910D02*
X-102640D01*
X-104140Y548410D02*
Y551410D01*
X-113260Y549910D02*
X-110260D01*
X-111760Y548410D02*
Y551410D01*
X-158980Y506730D02*
X-155980D01*
X-157480Y505230D02*
Y508230D01*
X-62460Y400050D02*
X-59460D01*
X-60960Y398550D02*
Y401550D01*
X-94210Y345440D02*
X-91210D01*
X-92710Y343940D02*
Y346940D01*
X-105640Y345440D02*
X-102640D01*
X-104140Y343940D02*
Y346940D01*
X-108180Y435610D02*
X-105180D01*
X-106680Y434110D02*
Y437110D01*
X-120880Y435610D02*
X-117880D01*
X-119380Y434110D02*
Y437110D01*
X-108180Y445770D02*
X-105180D01*
X-106680Y444270D02*
Y447270D01*
X-120880Y445770D02*
X-117880D01*
X-119380Y444270D02*
Y447270D01*
X-108180Y455930D02*
X-105180D01*
X-106680Y454430D02*
Y457430D01*
X-120880Y455930D02*
X-117880D01*
X-119380Y454430D02*
Y457430D01*
X181380Y377190D02*
X184380D01*
X182880Y375690D02*
Y378690D01*
X181380Y384810D02*
X184380D01*
X182880Y383310D02*
Y386310D01*
X495070Y356870D02*
X498070D01*
X496570Y355370D02*
Y358370D01*
X495070Y368300D02*
X498070D01*
X496570Y366800D02*
Y369800D01*
X495070Y345440D02*
X498070D01*
X496570Y343940D02*
Y346940D01*
X482370Y357505D02*
X485370D01*
X483870Y356005D02*
Y359005D01*
X482370Y368935D02*
X485370D01*
X483870Y367435D02*
Y370435D01*
X482370Y346075D02*
X485370D01*
X483870Y344575D02*
Y347575D01*
X423950Y358775D02*
X426950D01*
X425450Y357275D02*
Y360275D01*
X423950Y370205D02*
X426950D01*
X425450Y368705D02*
Y371705D01*
X423950Y347345D02*
X426950D01*
X425450Y345845D02*
Y348845D01*
X411250Y358775D02*
X414250D01*
X412750Y357275D02*
Y360275D01*
X411250Y370205D02*
X414250D01*
X412750Y368705D02*
Y371705D01*
X411250Y347345D02*
X414250D01*
X412750Y345845D02*
Y348845D01*
X398550Y358775D02*
X401550D01*
X400050Y357275D02*
Y360275D01*
X398550Y370205D02*
X401550D01*
X400050Y368705D02*
Y371705D01*
X398550Y347345D02*
X401550D01*
X400050Y345845D02*
Y348845D01*
X480955Y307717D02*
X483955D01*
X482455Y306217D02*
Y309217D01*
X494849Y307012D02*
X497849D01*
X496348Y305512D02*
Y308512D01*
X469525Y307717D02*
X472525D01*
X471025Y306217D02*
Y309217D01*
X445616Y308045D02*
X448616D01*
X447116Y306545D02*
Y309545D01*
X457046Y308045D02*
X460046D01*
X458546Y306545D02*
Y309545D01*
X434186Y308045D02*
X437186D01*
X435686Y306545D02*
Y309545D01*
X410056Y308045D02*
X413056D01*
X411556Y306545D02*
Y309545D01*
X421486Y308045D02*
X424486D01*
X422986Y306545D02*
Y309545D01*
X398626Y308045D02*
X401626D01*
X400126Y306545D02*
Y309545D01*
X481176Y320745D02*
X484176D01*
X482676Y319245D02*
Y322245D01*
X495070Y320040D02*
X498070D01*
X496570Y318540D02*
Y321540D01*
X469746Y320745D02*
X472746D01*
X471246Y319245D02*
Y322245D01*
X445616Y320745D02*
X448616D01*
X447116Y319245D02*
Y322245D01*
X457046Y320745D02*
X460046D01*
X458546Y319245D02*
Y322245D01*
X434186Y320745D02*
X437186D01*
X435686Y319245D02*
Y322245D01*
X410056Y320745D02*
X413056D01*
X411556Y319245D02*
Y322245D01*
X421486Y320745D02*
X424486D01*
X422986Y319245D02*
Y322245D01*
X398626Y320745D02*
X401626D01*
X400126Y319245D02*
Y322245D01*
X-205213Y655897D02*
X-202213D01*
X-203713Y654397D02*
Y657397D01*
X-213590Y654050D02*
X-210590D01*
X-212090Y652550D02*
Y655550D01*
X-224263Y659707D02*
X-221263D01*
X-222763Y658207D02*
Y661207D01*
X-313163Y653357D02*
X-310163D01*
X-311663Y651857D02*
Y654857D01*
X-322810Y656590D02*
X-319810D01*
X-321310Y655090D02*
Y658090D01*
X-327890Y668020D02*
X-324890D01*
X-326390Y666520D02*
Y669520D01*
X-313163Y1002607D02*
X-310163D01*
X-311663Y1001107D02*
Y1004107D01*
X-322053Y1000067D02*
X-319053D01*
X-320553Y998567D02*
Y1001567D01*
X-328403Y987367D02*
X-325403D01*
X-326903Y985867D02*
Y988867D01*
X-222480Y998855D02*
X-219480D01*
X-220980Y997355D02*
Y1000355D01*
X-203430Y999490D02*
X-200430D01*
X-201930Y997990D02*
Y1000990D01*
X-212320Y1002030D02*
X-209320D01*
X-210820Y1000530D02*
Y1003530D01*
X-19361Y334345D02*
X-16361D01*
X-17861Y332845D02*
Y335845D01*
X-20631Y343235D02*
X-17631D01*
X-19131Y341735D02*
Y344735D01*
X-29521Y334345D02*
X-26521D01*
X-28021Y332845D02*
Y335845D01*
X-30791Y343235D02*
X-27791D01*
X-29291Y341735D02*
Y344735D01*
X-39681Y334345D02*
X-36681D01*
X-38181Y332845D02*
Y335845D01*
X-39681Y344505D02*
X-36681D01*
X-38181Y343005D02*
Y346005D01*
X-21820Y354330D02*
X-18820D01*
X-20320Y352830D02*
Y355830D01*
X-30791Y354665D02*
X-27791D01*
X-29291Y353165D02*
Y356165D01*
X-39681Y354665D02*
X-36681D01*
X-38181Y353165D02*
Y356165D01*
X-85320Y621030D02*
X-82320D01*
X-83820Y619530D02*
Y622530D01*
X-49760Y646430D02*
X-46760D01*
X-48260Y644930D02*
Y647930D01*
X-26900Y421640D02*
X-23900D01*
X-25400Y420140D02*
Y423140D01*
X-11660Y422910D02*
X-8660D01*
X-10160Y421410D02*
Y424410D01*
X78510Y998220D02*
X81510D01*
X80010Y996720D02*
Y999720D01*
X65810Y972820D02*
X68810D01*
X67310Y971320D02*
Y974320D01*
X77240Y976630D02*
X80240D01*
X78740Y975130D02*
Y978130D01*
X82320Y988060D02*
X85320D01*
X83820Y986560D02*
Y989560D01*
X70890Y1003300D02*
X73890D01*
X72390Y1001800D02*
Y1004800D01*
X56920Y655320D02*
X59920D01*
X58420Y653820D02*
Y656820D01*
X81050Y664210D02*
X84050D01*
X82550Y662710D02*
Y665710D01*
X81050Y674370D02*
X84050D01*
X82550Y672870D02*
Y675870D01*
X72160Y654050D02*
X75160D01*
X73660Y652550D02*
Y655550D01*
X-111990Y1064260D02*
X-108990D01*
X-110490Y1062760D02*
Y1065760D01*
X187730Y349250D02*
X190730D01*
X189230Y347750D02*
Y350750D01*
X120420Y424180D02*
X123420D01*
X121920Y422680D02*
Y425680D01*
X107720Y424180D02*
X110720D01*
X109220Y422680D02*
Y425680D01*
X42950Y457200D02*
X45950D01*
X44450Y455700D02*
Y458700D01*
X44220Y466090D02*
X47220D01*
X45720Y464590D02*
Y467590D01*
X72160Y454660D02*
X75160D01*
X73660Y453160D02*
Y456160D01*
X-639040Y579120D02*
X-636040D01*
X-637540Y577620D02*
Y580620D01*
X-716510Y631190D02*
X-713510D01*
X-715010Y629690D02*
Y632690D01*
X-711236Y800933D02*
X-708236D01*
X-709736Y799433D02*
Y802433D01*
X-731750Y1040130D02*
X-728750D01*
X-730250Y1038630D02*
Y1041630D01*
X-773660Y1089660D02*
X-770660D01*
X-772160Y1088160D02*
Y1091160D01*
X-463859Y1191181D02*
X-460859D01*
X-462359Y1189681D02*
Y1192681D01*
X-505690Y1240790D02*
X-502690D01*
X-504190Y1239290D02*
Y1242290D01*
X-269470Y1004570D02*
X-266470D01*
X-267970Y1003070D02*
Y1006070D01*
X-264196Y1028263D02*
X-261196D01*
X-262696Y1026763D02*
Y1029763D01*
X87400Y1106170D02*
X90400D01*
X88900Y1104670D02*
Y1107670D01*
X163794Y1057473D02*
X166794D01*
X165294Y1055973D02*
Y1058973D01*
X388584Y1240353D02*
X391584D01*
X390084Y1238853D02*
Y1241853D01*
X474944Y1197173D02*
X477944D01*
X476444Y1195673D02*
Y1198673D01*
X641120Y1089660D02*
X644120D01*
X642620Y1088160D02*
Y1091160D01*
X718590Y1038860D02*
X721590D01*
X720090Y1037360D02*
Y1040360D01*
X674140Y849630D02*
X677140D01*
X675640Y848130D02*
Y851130D01*
X750534Y800933D02*
X753534D01*
X752034Y799433D02*
Y802433D01*
X643660Y629920D02*
X646660D01*
X645160Y628420D02*
Y631420D01*
X720133Y581302D02*
X723133D01*
X721633Y579802D02*
Y582802D01*
X693190Y584200D02*
X696190D01*
X694690Y582700D02*
Y585700D01*
X693190Y575310D02*
X696190D01*
X694690Y573810D02*
Y576810D01*
X691920Y554990D02*
X694920D01*
X693420Y553490D02*
Y556490D01*
X681760Y546100D02*
X684760D01*
X683260Y544600D02*
Y547600D01*
X631154Y546933D02*
X634154D01*
X632654Y545433D02*
Y548433D01*
X300839Y434139D02*
X303839D01*
X302339Y432639D02*
Y435639D01*
X321159Y435409D02*
X324159D01*
X322659Y433909D02*
Y436909D01*
X310999Y435409D02*
X313999D01*
X312499Y433909D02*
Y436909D01*
X292064Y345003D02*
X295064D01*
X293564Y343503D02*
Y346503D01*
X182650Y392430D02*
X185650D01*
X184150Y390930D02*
Y393930D01*
X182729Y358061D02*
X185729D01*
X184229Y356561D02*
Y359561D01*
X196620Y349250D02*
X199620D01*
X198120Y347750D02*
Y350750D01*
X145820Y389890D02*
X148820D01*
X147320Y388390D02*
Y391390D01*
X143280Y397510D02*
X146280D01*
X144780Y396010D02*
Y399010D01*
X-68088Y308501D02*
X-65088D01*
X-66588Y307001D02*
Y310001D01*
X-94210Y358140D02*
X-91210D01*
X-92710Y356640D02*
Y359640D01*
X-104370Y358140D02*
X-101370D01*
X-102870Y356640D02*
Y359640D01*
X-58650Y408940D02*
X-55650D01*
X-57150Y407440D02*
Y410440D01*
X-57380Y448310D02*
X-54380D01*
X-55880Y446810D02*
Y449810D01*
X59460Y521970D02*
X62460D01*
X60960Y520470D02*
Y523470D01*
X49300Y521970D02*
X52300D01*
X50800Y520470D02*
Y523470D01*
X-66270Y521970D02*
X-63270D01*
X-64770Y520470D02*
Y523470D01*
X-57380Y523240D02*
X-54380D01*
X-55880Y521740D02*
Y524740D01*
X-80240Y509270D02*
X-77240D01*
X-78740Y507770D02*
Y510770D01*
X-122150Y538480D02*
X-119150D01*
X-120650Y536980D02*
Y539980D01*
X-133580Y521970D02*
X-130580D01*
X-132080Y520470D02*
Y523470D01*
X-138660Y514350D02*
X-135660D01*
X-137160Y512850D02*
Y515850D01*
X-148820Y514350D02*
X-145820D01*
X-147320Y512850D02*
Y515850D01*
X-169140Y467360D02*
X-166140D01*
X-167640Y465860D02*
Y468860D01*
X-160250Y443230D02*
X-157250D01*
X-158750Y441730D02*
Y444730D01*
X-169140Y443230D02*
X-166140D01*
X-167640Y441730D02*
Y444730D01*
X83157Y371772D02*
X86157D01*
X84657Y370272D02*
Y373272D01*
M02*
