%TF.GenerationSoftware,Altium Limited,Altium Designer,24.6.1 (21)*%
G04 Layer_Color=8388736*
%FSLAX45Y45*%
%MOMM*%
%TF.SameCoordinates,D6E34864-ACFE-43FA-A01B-F9739AC3D18D*%
%TF.FilePolarity,Negative*%
%TF.FileFunction,Soldermask,Top*%
%TF.Part,Single*%
G01*
G75*
%TA.AperFunction,SMDPad,CuDef*%
%ADD10R,0.17780X0.81280*%
%ADD15R,1.46050X0.55880*%
%ADD18R,1.24460X0.93980*%
%ADD25R,0.81280X0.17780*%
%ADD26R,3.20040X3.20040*%
%ADD30R,0.60960X0.71120*%
%ADD31R,1.40000X1.10000*%
%TA.AperFunction,ComponentPad*%
%ADD39C,1.57480*%
%TA.AperFunction,SMDPad,CuDef*%
%ADD58R,0.80320X0.95320*%
%ADD59R,0.80320X0.84320*%
%ADD60R,0.84320X0.80320*%
%ADD61R,0.95320X0.80320*%
%ADD62R,1.80320X2.70320*%
%ADD63R,2.20320X3.20320*%
%ADD64O,1.55320X0.60320*%
%ADD65R,2.00320X2.10320*%
G04:AMPARAMS|DCode=66|XSize=1.8032mm|YSize=1.6032mm|CornerRadius=0.4516mm|HoleSize=0mm|Usage=FLASHONLY|Rotation=90.000|XOffset=0mm|YOffset=0mm|HoleType=Round|Shape=RoundedRectangle|*
%AMROUNDEDRECTD66*
21,1,1.80320,0.70000,0,0,90.0*
21,1,0.90000,1.60320,0,0,90.0*
1,1,0.90320,0.35000,0.45000*
1,1,0.90320,0.35000,-0.45000*
1,1,0.90320,-0.35000,-0.45000*
1,1,0.90320,-0.35000,0.45000*
%
%ADD66ROUNDEDRECTD66*%
%ADD67R,1.90320X2.70320*%
%ADD68R,1.70320X2.20320*%
%ADD69R,4.00320X2.20320*%
%ADD70R,1.16320X0.64320*%
%ADD71R,3.60320X4.50320*%
%ADD72R,1.70320X1.80320*%
%TA.AperFunction,ComponentPad*%
%ADD73C,4.25320*%
%ADD74C,2.00320*%
%ADD75O,1.80320X1.10320*%
%ADD76C,2.45320*%
%ADD77R,2.45320X2.45320*%
%TA.AperFunction,ViaPad*%
%ADD78C,0.80320*%
D10*
X-1098390Y4535650D02*
D03*
X-1298390D02*
D03*
X-1178390Y5216370D02*
D03*
X-858390D02*
D03*
X-898390D02*
D03*
X-938390D02*
D03*
X-978390D02*
D03*
X-1018390D02*
D03*
X-1058390D02*
D03*
X-1138390D02*
D03*
X-1218390D02*
D03*
X-1258390D02*
D03*
X-1298390D02*
D03*
X-1338390D02*
D03*
X-1378390D02*
D03*
Y4535650D02*
D03*
X-1338390D02*
D03*
X-1258390D02*
D03*
X-1218390D02*
D03*
X-1178390D02*
D03*
X-1138390D02*
D03*
X-1058390D02*
D03*
X-1018390D02*
D03*
X-978390D02*
D03*
X-938390D02*
D03*
X-898390D02*
D03*
X-858390D02*
D03*
X-1098390Y5216370D02*
D03*
D15*
X2685895Y4202910D02*
D03*
Y4075910D02*
D03*
Y3948910D02*
D03*
Y3821910D02*
D03*
X3230725D02*
D03*
Y3948910D02*
D03*
Y4075910D02*
D03*
Y4202910D02*
D03*
D18*
X7062950Y5981010D02*
D03*
Y6311010D02*
D03*
X6575270D02*
D03*
Y5981010D02*
D03*
X7355050Y8176910D02*
D03*
Y8506910D02*
D03*
X6867370D02*
D03*
Y8176910D02*
D03*
X6537170Y10576910D02*
D03*
Y10906910D02*
D03*
X7024850D02*
D03*
Y10576910D02*
D03*
X4510250Y12076910D02*
D03*
Y12406910D02*
D03*
X4022570D02*
D03*
Y12076910D02*
D03*
X1500350Y10743510D02*
D03*
Y11073510D02*
D03*
X1012670D02*
D03*
Y10743510D02*
D03*
X-1382550D02*
D03*
Y11073510D02*
D03*
X-1870230D02*
D03*
Y10743510D02*
D03*
X-4443250Y12077010D02*
D03*
Y12407010D02*
D03*
X-4930930D02*
D03*
Y12077010D02*
D03*
X-7122950Y10576910D02*
D03*
Y10906910D02*
D03*
X-7610630D02*
D03*
Y10576910D02*
D03*
X-7249950Y8176910D02*
D03*
Y8506910D02*
D03*
X-7737630D02*
D03*
Y8176910D02*
D03*
X-6551450Y5976910D02*
D03*
Y6306910D02*
D03*
X-7039130D02*
D03*
Y5976910D02*
D03*
D25*
X-778030Y4616010D02*
D03*
Y4656010D02*
D03*
Y4696010D02*
D03*
Y4736010D02*
D03*
Y4776010D02*
D03*
Y4816010D02*
D03*
Y4856010D02*
D03*
Y4896010D02*
D03*
Y4936010D02*
D03*
Y4976010D02*
D03*
Y5016010D02*
D03*
Y5056010D02*
D03*
Y5096010D02*
D03*
Y5136010D02*
D03*
X-1458750D02*
D03*
Y5096010D02*
D03*
Y5056010D02*
D03*
Y5016010D02*
D03*
Y4976010D02*
D03*
Y4936010D02*
D03*
Y4896010D02*
D03*
Y4856010D02*
D03*
Y4816010D02*
D03*
Y4776010D02*
D03*
Y4736010D02*
D03*
Y4696010D02*
D03*
Y4656010D02*
D03*
Y4616010D02*
D03*
D26*
X-1118390Y4876010D02*
D03*
D30*
X944110Y4623280D02*
D03*
X839110D02*
D03*
X734110D02*
D03*
X629110D02*
D03*
Y4849340D02*
D03*
X734110D02*
D03*
X839110D02*
D03*
X944110D02*
D03*
D31*
X-830590Y5735810D02*
D03*
X-1050590Y5895810D02*
D03*
X-830590D02*
D03*
X-1050590Y5735810D02*
D03*
D39*
X-2786790Y4972911D02*
D03*
X-2286790D02*
D03*
Y5472910D02*
D03*
X-2786790D02*
D03*
D58*
X-1155700Y4299300D02*
D03*
Y4184300D02*
D03*
X-1257300Y4299300D02*
D03*
Y4184300D02*
D03*
X-3251990Y5478910D02*
D03*
Y5593910D02*
D03*
X113510Y3497710D02*
D03*
Y3612710D02*
D03*
X253210Y3764410D02*
D03*
Y3879410D02*
D03*
D59*
X-1397000Y4292600D02*
D03*
X-1485000D02*
D03*
X-1391100Y4394200D02*
D03*
X-1479100D02*
D03*
X3497610Y3948910D02*
D03*
X3409610D02*
D03*
X3497610Y4126710D02*
D03*
X3409610D02*
D03*
X3502087Y4244910D02*
D03*
X3414087D02*
D03*
X-4527890Y11911810D02*
D03*
X-4439890D02*
D03*
X-7207590Y10400510D02*
D03*
X-7119590D02*
D03*
X-4275689Y5097610D02*
D03*
X-4187689D02*
D03*
X-3714300Y5397500D02*
D03*
X-3626300D02*
D03*
X-655290Y5587210D02*
D03*
X-743290D02*
D03*
X-1302090Y5739610D02*
D03*
X-1214090D02*
D03*
X-1670390Y4977610D02*
D03*
X-1582390D02*
D03*
X-1809300Y4572000D02*
D03*
X-1721300D02*
D03*
X-603590Y4990310D02*
D03*
X-515590D02*
D03*
X-2864190Y10044910D02*
D03*
X-2776190D02*
D03*
X-641690Y4609310D02*
D03*
X-553690D02*
D03*
D60*
X2221710Y3955710D02*
D03*
Y4043710D02*
D03*
X3491710Y3612810D02*
D03*
Y3700810D02*
D03*
X7225510Y5898810D02*
D03*
Y5986810D02*
D03*
X7517610Y8095910D02*
D03*
Y8183910D02*
D03*
X7200110Y10483510D02*
D03*
Y10571510D02*
D03*
X4672810Y11982110D02*
D03*
Y12070110D02*
D03*
X1662910Y10648610D02*
D03*
Y10736610D02*
D03*
X-1207290Y10648610D02*
D03*
Y10736610D02*
D03*
X-7100090Y8083210D02*
D03*
Y8171210D02*
D03*
X-1118390Y5478810D02*
D03*
Y5390810D02*
D03*
X-1334290Y5454310D02*
D03*
Y5542310D02*
D03*
X-1461290D02*
D03*
Y5454310D02*
D03*
X-1588290Y4754910D02*
D03*
Y4666910D02*
D03*
X-1765300Y4476300D02*
D03*
Y4388300D02*
D03*
X-1651000D02*
D03*
Y4476300D02*
D03*
X-1028700Y3931100D02*
D03*
Y4019100D02*
D03*
X-922683Y4076110D02*
D03*
Y4164111D02*
D03*
X-661190Y3662710D02*
D03*
Y3574710D02*
D03*
X1218410Y4730410D02*
D03*
Y4818410D02*
D03*
X1091410Y4818410D02*
D03*
Y4730410D02*
D03*
X481810Y4983510D02*
D03*
Y4895510D02*
D03*
X367510Y4895510D02*
D03*
Y4983510D02*
D03*
X-6401590Y5974110D02*
D03*
Y5886110D02*
D03*
D61*
X2495110Y3948910D02*
D03*
X2380110D02*
D03*
X3256410Y3694910D02*
D03*
X3371410D02*
D03*
X3498410Y4380710D02*
D03*
X3383410D02*
D03*
X-1137790Y5587210D02*
D03*
X-1022790D02*
D03*
X932310Y5663410D02*
D03*
X1047310D02*
D03*
X1479110Y4812510D02*
D03*
X1364110D02*
D03*
X-2749990Y10235410D02*
D03*
X-2864990D02*
D03*
X-2622990Y10362410D02*
D03*
X-2737990D02*
D03*
X-2864290Y10387810D02*
D03*
X-2979290D02*
D03*
D62*
X3936210Y4078710D02*
D03*
Y4428710D02*
D03*
D63*
X4431510Y3809210D02*
D03*
X5416510D02*
D03*
D64*
X-5478690Y4176010D02*
D03*
Y4111010D02*
D03*
Y4371011D02*
D03*
Y4306010D02*
D03*
Y4241010D02*
D03*
D65*
X-5746190Y4361010D02*
D03*
Y4121010D02*
D03*
D66*
X-5501190Y4561010D02*
D03*
Y3921010D02*
D03*
D67*
X-5156990Y4961710D02*
D03*
Y4561710D02*
D03*
D68*
X-3554600Y5229900D02*
D03*
X-3784600D02*
D03*
X-4014600D02*
D03*
D69*
X-3784600Y4599900D02*
D03*
D70*
X-518190Y3656810D02*
D03*
Y3783810D02*
D03*
Y3910810D02*
D03*
Y4037810D02*
D03*
X-42190D02*
D03*
Y3910810D02*
D03*
Y3783810D02*
D03*
Y3656810D02*
D03*
D71*
X-280190Y3847310D02*
D03*
D72*
X750710Y5650710D02*
D03*
X390710D02*
D03*
D73*
X3834610Y9627010D02*
D03*
X-3665390D02*
D03*
X3834610Y6527010D02*
D03*
X-3665390D02*
D03*
D74*
X694610Y6477010D02*
D03*
X440610D02*
D03*
X186610D02*
D03*
X-67390D02*
D03*
X-321390D02*
D03*
X-575390D02*
D03*
X-829390D02*
D03*
X-1083390D02*
D03*
X-1337390D02*
D03*
X-1591390D02*
D03*
X-1845390D02*
D03*
X-2099390D02*
D03*
X-2353390D02*
D03*
X-2607390D02*
D03*
X-2861390D02*
D03*
X-3115390D02*
D03*
X694610Y9677010D02*
D03*
X440610D02*
D03*
X186610D02*
D03*
X-67390D02*
D03*
X-321390D02*
D03*
X-575390D02*
D03*
X-829390D02*
D03*
X-1083390D02*
D03*
X-1337390D02*
D03*
X-1591390D02*
D03*
X-1845390D02*
D03*
X-2099390D02*
D03*
X-2353390D02*
D03*
X-2607390D02*
D03*
X-2861390D02*
D03*
X-3115390D02*
D03*
D75*
X-5746190Y4571010D02*
D03*
Y3911010D02*
D03*
D76*
X481810Y3504410D02*
D03*
D77*
X981810D02*
D03*
D78*
X989810Y3246506D02*
D03*
X-1981990Y4837910D02*
D03*
X-2044700Y5664200D02*
D03*
X-1713825Y4764748D02*
D03*
X-1856100Y4668857D02*
D03*
X-1658889Y4825179D02*
D03*
X-869729Y3983368D02*
D03*
X-7759700Y10909300D02*
D03*
X-4334604Y4978400D02*
D03*
X-1562100Y4394200D02*
D03*
X-647700Y5689600D02*
D03*
X-431800Y4914900D02*
D03*
X-802790Y3664767D02*
D03*
X393700Y3886200D02*
D03*
X-3404390Y5248214D02*
D03*
X-1568000Y4292600D02*
D03*
X-1423190Y3707610D02*
D03*
X-2083590Y4368010D02*
D03*
X2023847Y3610428D02*
D03*
X2173847D02*
D03*
X2323847D02*
D03*
X1869959Y3609972D02*
D03*
Y3787772D02*
D03*
X2323847Y3788228D02*
D03*
X2173847D02*
D03*
X2023847D02*
D03*
X2279179Y3278421D02*
D03*
X2129179D02*
D03*
X1979179D02*
D03*
X1829179D02*
D03*
X1679179D02*
D03*
X1529179D02*
D03*
X1379179D02*
D03*
X1391879Y3468921D02*
D03*
X1541879D02*
D03*
X1691879D02*
D03*
X1841879D02*
D03*
X1991879D02*
D03*
X2141879D02*
D03*
X2291879D02*
D03*
X512173Y3787776D02*
D03*
X662173D02*
D03*
X812173D02*
D03*
X962173D02*
D03*
X1112173D02*
D03*
X1262173D02*
D03*
X1412173D02*
D03*
X1562173D02*
D03*
X524873Y3978276D02*
D03*
X674873D02*
D03*
X824873D02*
D03*
X974873D02*
D03*
X1124873D02*
D03*
X1274873D02*
D03*
X1424873D02*
D03*
X1574873D02*
D03*
X537573Y4219576D02*
D03*
X687573D02*
D03*
X837573D02*
D03*
X987573D02*
D03*
X1137573D02*
D03*
X1287573D02*
D03*
X1437573D02*
D03*
X1587573D02*
D03*
X4708951Y2540619D02*
D03*
X5026451Y3340719D02*
D03*
X4797851Y2718419D02*
D03*
X4899451Y2934319D02*
D03*
X4937551Y3124819D02*
D03*
X4456344Y3338381D02*
D03*
X4637456Y3337926D02*
D03*
X4303701Y3336655D02*
D03*
X3972589Y3337111D02*
D03*
X4122589D02*
D03*
X3818701Y3336655D02*
D03*
X3668701D02*
D03*
X4445658Y2746678D02*
D03*
X4416835Y3109717D02*
D03*
X4597947Y3109261D02*
D03*
Y2931461D02*
D03*
X4432958Y2937178D02*
D03*
X4121254Y2930871D02*
D03*
X3971254D02*
D03*
X3670932Y2912910D02*
D03*
X3833632Y2925610D02*
D03*
X4286244Y2925154D02*
D03*
Y3102954D02*
D03*
X3955132Y3103410D02*
D03*
X4105132D02*
D03*
X3801244Y3102954D02*
D03*
X3651244D02*
D03*
X3846332Y2735110D02*
D03*
X3683632Y2747810D02*
D03*
X3983954Y2740371D02*
D03*
X4133954D02*
D03*
X4288732Y2750312D02*
D03*
X3501332D02*
D03*
X4847532Y3343308D02*
D03*
X4787110Y3123410D02*
D03*
X4736310Y2932910D02*
D03*
X4644332Y2724912D02*
D03*
X4555432Y2547112D02*
D03*
X4403032D02*
D03*
X4085642Y2552829D02*
D03*
X3935642D02*
D03*
X3648020Y2547568D02*
D03*
X3798020D02*
D03*
X4250632Y2547112D02*
D03*
X-4598190Y2717010D02*
D03*
X-4469933Y2728897D02*
D03*
X-4483333Y3148236D02*
D03*
X-4633333D02*
D03*
X-4783333D02*
D03*
X-4933333D02*
D03*
X-4508733Y2915732D02*
D03*
X-4671433Y2903032D02*
D03*
X-2393846Y2740371D02*
D03*
X-2543846D02*
D03*
X-3131468Y2735110D02*
D03*
X-2981468D02*
D03*
X-2831468D02*
D03*
X-2681468D02*
D03*
X-3285356Y2734654D02*
D03*
X-3435356D02*
D03*
X-3585356D02*
D03*
X-3735356D02*
D03*
X-3885356D02*
D03*
X-4035356D02*
D03*
X-4185356D02*
D03*
X-4335356D02*
D03*
X476354Y2778471D02*
D03*
X326354D02*
D03*
X-261268Y2773210D02*
D03*
X-111268D02*
D03*
X38732D02*
D03*
X188732D02*
D03*
X-415156Y2747354D02*
D03*
X-565156D02*
D03*
X-715156D02*
D03*
X-865156D02*
D03*
X-1015156D02*
D03*
X-1165156D02*
D03*
X-1315156D02*
D03*
X-1465156D02*
D03*
X-1615156D02*
D03*
X-1765156D02*
D03*
X-1915156D02*
D03*
X-2065156D02*
D03*
X-2215156D02*
D03*
X3346554Y2740371D02*
D03*
X3196554D02*
D03*
X2608932Y2735110D02*
D03*
X2758932D02*
D03*
X2908932D02*
D03*
X3058932D02*
D03*
X2455044Y2734654D02*
D03*
X2305044D02*
D03*
X2155044D02*
D03*
X2005044D02*
D03*
X1855044D02*
D03*
X1705044D02*
D03*
X1555044D02*
D03*
X1405044D02*
D03*
X1255044D02*
D03*
X1105044D02*
D03*
X955044D02*
D03*
X805044D02*
D03*
X655044D02*
D03*
X-4476202Y2539414D02*
D03*
X-4641302Y2564814D02*
D03*
X-4755602Y2704514D02*
D03*
X-4882602Y2882314D02*
D03*
X-5077006Y3149014D02*
D03*
X-1483526Y3156843D02*
D03*
X-1333526D02*
D03*
X-1496226Y3347343D02*
D03*
X-1346226D02*
D03*
X-1969429Y3858936D02*
D03*
X-2119429D02*
D03*
X-2269429D02*
D03*
X-1831807Y3864197D02*
D03*
X-1681807Y3660997D02*
D03*
X-1831807D02*
D03*
X-1656407Y3343497D02*
D03*
X-1806407D02*
D03*
X-2244029Y3338236D02*
D03*
X-2094029D02*
D03*
X-1944029D02*
D03*
X-2269429Y3655736D02*
D03*
X-2119429D02*
D03*
X-1969429D02*
D03*
X-1643707Y3152997D02*
D03*
X-1793707D02*
D03*
X-2231329Y3147736D02*
D03*
X-2081329D02*
D03*
X-1931329D02*
D03*
X-2387781Y2547815D02*
D03*
X-2537781D02*
D03*
X-3125404Y2542553D02*
D03*
X-2975404D02*
D03*
X-2825404D02*
D03*
X-2675404D02*
D03*
X-3279292Y2542098D02*
D03*
X-3429292D02*
D03*
X-3579292D02*
D03*
X-3729292D02*
D03*
X-3879292D02*
D03*
X-4029292D02*
D03*
X-4179292D02*
D03*
X-4329292D02*
D03*
X2863844Y3102954D02*
D03*
X3013844D02*
D03*
X2863844Y3344254D02*
D03*
X3013844D02*
D03*
X3317732Y3344710D02*
D03*
X3167732D02*
D03*
X3317732Y3103410D02*
D03*
X3167732D02*
D03*
X3498844Y3344254D02*
D03*
Y3102954D02*
D03*
Y2925154D02*
D03*
Y2544154D02*
D03*
X642344D02*
D03*
X792344D02*
D03*
X942344D02*
D03*
X1092344D02*
D03*
X1242344D02*
D03*
X1392344D02*
D03*
X1542344D02*
D03*
X1692344D02*
D03*
X1842344D02*
D03*
X1992344D02*
D03*
X2142344D02*
D03*
X2292344D02*
D03*
X2442344D02*
D03*
X642344Y2925154D02*
D03*
X792344D02*
D03*
X942344D02*
D03*
X1092344D02*
D03*
X1242344D02*
D03*
X1392344D02*
D03*
X1542344D02*
D03*
X1692344D02*
D03*
X1842344D02*
D03*
X1992344D02*
D03*
X2142344D02*
D03*
X2292344D02*
D03*
X2442344D02*
D03*
X3046232Y2925610D02*
D03*
X2896232D02*
D03*
X2746232D02*
D03*
X2596232D02*
D03*
X3046232Y2544610D02*
D03*
X2896232D02*
D03*
X2746232D02*
D03*
X2596232D02*
D03*
X3183854Y2549871D02*
D03*
X3333854D02*
D03*
X3183854Y2930871D02*
D03*
X3333854D02*
D03*
X-2227856Y2556854D02*
D03*
X-2077856D02*
D03*
X-1927856D02*
D03*
X-1777856D02*
D03*
X-1627856D02*
D03*
X-1477856D02*
D03*
X-1327856D02*
D03*
X-1177856D02*
D03*
X-1027856D02*
D03*
X-877856D02*
D03*
X-727856D02*
D03*
X-577856D02*
D03*
X-427856D02*
D03*
X-2227856Y2937854D02*
D03*
X-2077856D02*
D03*
X-1927856D02*
D03*
X-1777856D02*
D03*
X-1627856D02*
D03*
X-1477856D02*
D03*
X-1327856D02*
D03*
X-1177856D02*
D03*
X-1027856D02*
D03*
X-877856D02*
D03*
X-727856D02*
D03*
X-577856D02*
D03*
X-427856D02*
D03*
X176032Y2938310D02*
D03*
X26032D02*
D03*
X-123968D02*
D03*
X-273968D02*
D03*
X176032Y2557310D02*
D03*
X26032D02*
D03*
X-123968D02*
D03*
X-273968D02*
D03*
X313654Y2562571D02*
D03*
X463654D02*
D03*
X313654Y2943571D02*
D03*
X463654D02*
D03*
X-4348056Y2925154D02*
D03*
X-4198056D02*
D03*
X-4048056D02*
D03*
X-3898056D02*
D03*
X-3748056D02*
D03*
X-3598056D02*
D03*
X-3448056D02*
D03*
X-3298056D02*
D03*
X-4322656Y3141054D02*
D03*
X-4172656D02*
D03*
X-4022656D02*
D03*
X-3872656D02*
D03*
X-3722656D02*
D03*
X-3572656D02*
D03*
X-3422656D02*
D03*
X-3272656D02*
D03*
X-2668768Y3141510D02*
D03*
X-2818768D02*
D03*
X-2968768D02*
D03*
X-3118768D02*
D03*
X-2694168Y2925610D02*
D03*
X-2844168D02*
D03*
X-2994168D02*
D03*
X-3144168D02*
D03*
X-2556546Y2930871D02*
D03*
X-2406546D02*
D03*
X-2531146Y3146771D02*
D03*
X-2381146D02*
D03*
X-5085356Y3331554D02*
D03*
X-4935356D02*
D03*
X-4785356D02*
D03*
X-4635356D02*
D03*
X-4485356D02*
D03*
X-4335356D02*
D03*
X-4185356D02*
D03*
X-4035356D02*
D03*
X-3885356D02*
D03*
X-3735356D02*
D03*
X-3585356D02*
D03*
X-3435356D02*
D03*
X-3285356D02*
D03*
X-5110756Y3649054D02*
D03*
X-4960756D02*
D03*
X-4810756D02*
D03*
X-4660756D02*
D03*
X-4510756D02*
D03*
X-4360756D02*
D03*
X-4210756D02*
D03*
X-4060756D02*
D03*
X-3910756D02*
D03*
X-3760756D02*
D03*
X-3610756D02*
D03*
X-3460756D02*
D03*
X-3310756D02*
D03*
X-2706868Y3649510D02*
D03*
X-2856868D02*
D03*
X-3006868D02*
D03*
X-3156868D02*
D03*
X-2681468Y3332010D02*
D03*
X-2831468D02*
D03*
X-2981468D02*
D03*
X-3131468D02*
D03*
X-2543846Y3337271D02*
D03*
X-2393846D02*
D03*
X-2569246Y3654771D02*
D03*
X-2419246D02*
D03*
Y4099271D02*
D03*
X-2569246D02*
D03*
X-2419246Y3857971D02*
D03*
X-2569246D02*
D03*
X-3156868Y3852710D02*
D03*
X-3006868D02*
D03*
X-2856868D02*
D03*
X-2706868D02*
D03*
X-3156868Y4094010D02*
D03*
X-3006868D02*
D03*
X-2856868D02*
D03*
X-2706868D02*
D03*
X-3310756Y4093554D02*
D03*
X-3460756D02*
D03*
X-3610756D02*
D03*
X-3760756D02*
D03*
X-3910756D02*
D03*
X-4060756D02*
D03*
X-4210756D02*
D03*
X-4360756D02*
D03*
X-4510756D02*
D03*
X-4660756D02*
D03*
X-4810756D02*
D03*
X-4960756D02*
D03*
X-5110756D02*
D03*
X-3310756Y3852254D02*
D03*
X-3460756D02*
D03*
X-3610756D02*
D03*
X-3760756D02*
D03*
X-3910756D02*
D03*
X-4060756D02*
D03*
X-4210756D02*
D03*
X-4360756D02*
D03*
X-4510756D02*
D03*
X-4660756D02*
D03*
X-4810756D02*
D03*
X-4960756D02*
D03*
X-5110756D02*
D03*
X-5322090Y4114010D02*
D03*
X4293776Y5886029D02*
D03*
X4443776D02*
D03*
X4593776D02*
D03*
X4743776D02*
D03*
X4893776D02*
D03*
X5043776D02*
D03*
X5193776D02*
D03*
X5343776D02*
D03*
X5493776D02*
D03*
X5643776D02*
D03*
X5793776D02*
D03*
X5943776D02*
D03*
X6093776D02*
D03*
X4156476Y6127329D02*
D03*
X4306476D02*
D03*
X4456476D02*
D03*
X4606476D02*
D03*
X4756476D02*
D03*
X4906476D02*
D03*
X5056476D02*
D03*
X5206476D02*
D03*
X5356476D02*
D03*
X5506476D02*
D03*
X5656476D02*
D03*
X5806476D02*
D03*
X5956476D02*
D03*
X6106476D02*
D03*
X6256476D02*
D03*
X4139410Y5879310D02*
D03*
X3764773Y5197476D02*
D03*
X3614773D02*
D03*
X3464773D02*
D03*
X3314773D02*
D03*
X3164773D02*
D03*
X3014773D02*
D03*
X2864773D02*
D03*
X2714773D02*
D03*
X2564773D02*
D03*
X2414773D02*
D03*
X2264773D02*
D03*
X2114773D02*
D03*
X1964773D02*
D03*
X1814773D02*
D03*
X3752073Y4956176D02*
D03*
X3602073D02*
D03*
X3452073D02*
D03*
X3302073D02*
D03*
X3152073D02*
D03*
X3002073D02*
D03*
X2852073D02*
D03*
X2702073D02*
D03*
X2552073D02*
D03*
X2402073D02*
D03*
X2252073D02*
D03*
X2102073D02*
D03*
X1952073D02*
D03*
X1802073D02*
D03*
X3739373Y4714876D02*
D03*
X3589373D02*
D03*
X3439373D02*
D03*
X3289373D02*
D03*
X3139373D02*
D03*
X2989373D02*
D03*
X2839373D02*
D03*
X2689373D02*
D03*
X2539373D02*
D03*
X2389373D02*
D03*
X2239373D02*
D03*
X2089373D02*
D03*
X1939373D02*
D03*
X1789373D02*
D03*
X1540276Y5644729D02*
D03*
X1690276D02*
D03*
X1840276D02*
D03*
X1990276D02*
D03*
X2140276D02*
D03*
X2290276D02*
D03*
X2440276D02*
D03*
X2590276D02*
D03*
X2740276D02*
D03*
X2890276D02*
D03*
X3040276D02*
D03*
X3190276D02*
D03*
X3340276D02*
D03*
X3490276D02*
D03*
X3640276D02*
D03*
X3790276D02*
D03*
X3940276D02*
D03*
X1552976Y5886029D02*
D03*
X1702976D02*
D03*
X1852976D02*
D03*
X2002976D02*
D03*
X2152976D02*
D03*
X2302976D02*
D03*
X2452976D02*
D03*
X2602976D02*
D03*
X2752976D02*
D03*
X2902976D02*
D03*
X3052976D02*
D03*
X3202976D02*
D03*
X3352976D02*
D03*
X3502976D02*
D03*
X3652976D02*
D03*
X3802976D02*
D03*
X3952976D02*
D03*
X1552976Y6127329D02*
D03*
X1702976D02*
D03*
X1852976D02*
D03*
X2002976D02*
D03*
X2152976D02*
D03*
X2302976D02*
D03*
X2452976D02*
D03*
X2602976D02*
D03*
X2752976D02*
D03*
X2902976D02*
D03*
X3052976D02*
D03*
X3202976D02*
D03*
X3352976D02*
D03*
X3502976D02*
D03*
X3652976D02*
D03*
X3802976D02*
D03*
X3952976D02*
D03*
X4219976Y7943429D02*
D03*
X4369976D02*
D03*
X4519976D02*
D03*
X4669976D02*
D03*
X4819976D02*
D03*
X4969976D02*
D03*
X5119976D02*
D03*
X5269976D02*
D03*
X5419976D02*
D03*
X5569976D02*
D03*
X5719976D02*
D03*
X5869976D02*
D03*
X6019976D02*
D03*
X6169976D02*
D03*
X6319976D02*
D03*
X6469976D02*
D03*
X6619976D02*
D03*
Y7765629D02*
D03*
X6469976D02*
D03*
X6319976D02*
D03*
X6169976D02*
D03*
X6019976D02*
D03*
X5869976D02*
D03*
X5719976D02*
D03*
X5569976D02*
D03*
X5419976D02*
D03*
X5269976D02*
D03*
X5119976D02*
D03*
X4969976D02*
D03*
X4819976D02*
D03*
X4669976D02*
D03*
X4519976D02*
D03*
X4369976D02*
D03*
X4219976D02*
D03*
X6619976Y7562429D02*
D03*
X6469976D02*
D03*
X6319976D02*
D03*
X6169976D02*
D03*
X6019976D02*
D03*
X5869976D02*
D03*
X5719976D02*
D03*
X5569976D02*
D03*
X5419976D02*
D03*
X5269976D02*
D03*
X5119976D02*
D03*
X4969976D02*
D03*
X4819976D02*
D03*
X4669976D02*
D03*
X4519976D02*
D03*
X4369976D02*
D03*
X4219976D02*
D03*
X6607276Y7333829D02*
D03*
X6457276D02*
D03*
X6307276D02*
D03*
X6157276D02*
D03*
X6007276D02*
D03*
X5857276D02*
D03*
X5707276D02*
D03*
X5557276D02*
D03*
X5407276D02*
D03*
X5257276D02*
D03*
X5107276D02*
D03*
X4957276D02*
D03*
X4807276D02*
D03*
X4657276D02*
D03*
X4507276D02*
D03*
X4357276D02*
D03*
X4207276D02*
D03*
X6607276Y7092529D02*
D03*
X6457276D02*
D03*
X6307276D02*
D03*
X6157276D02*
D03*
X6007276D02*
D03*
X5857276D02*
D03*
X5707276D02*
D03*
X5557276D02*
D03*
X5407276D02*
D03*
X5257276D02*
D03*
X5107276D02*
D03*
X4957276D02*
D03*
X4807276D02*
D03*
X4657276D02*
D03*
X4507276D02*
D03*
X4357276D02*
D03*
X4207276D02*
D03*
X6594576Y6851229D02*
D03*
X6444576D02*
D03*
X6294576D02*
D03*
X6144576D02*
D03*
X5994576D02*
D03*
X5844576D02*
D03*
X5694576D02*
D03*
X5544576D02*
D03*
X5394576D02*
D03*
X5244576D02*
D03*
X5094576D02*
D03*
X4944576D02*
D03*
X4794576D02*
D03*
X4644576D02*
D03*
X4494576D02*
D03*
X4344576D02*
D03*
X4194576D02*
D03*
X6581876Y6609929D02*
D03*
X6431876D02*
D03*
X6281876D02*
D03*
X6131876D02*
D03*
X5981876D02*
D03*
X5831876D02*
D03*
X5681876D02*
D03*
X5531876D02*
D03*
X5381876D02*
D03*
X5231876D02*
D03*
X5081876D02*
D03*
X4931876D02*
D03*
X4781876D02*
D03*
X4631876D02*
D03*
X4481876D02*
D03*
X4331876D02*
D03*
X4181876D02*
D03*
X6131876Y6381329D02*
D03*
X5981876D02*
D03*
X5831876D02*
D03*
X5681876D02*
D03*
X5531876D02*
D03*
X5381876D02*
D03*
X5231876D02*
D03*
X5081876D02*
D03*
X4931876D02*
D03*
X4781876D02*
D03*
X4631876D02*
D03*
X4481876D02*
D03*
X4331876D02*
D03*
X4181876D02*
D03*
X4249210Y9752810D02*
D03*
X4399210D02*
D03*
X4549210D02*
D03*
X4699210D02*
D03*
X4849210D02*
D03*
X4999210D02*
D03*
X5149210D02*
D03*
X5299210D02*
D03*
X5449210D02*
D03*
X5599210D02*
D03*
X5749210D02*
D03*
X5899210D02*
D03*
X6049210D02*
D03*
X6199210D02*
D03*
X6349210D02*
D03*
X6499210Y9575010D02*
D03*
X6349210D02*
D03*
X6199210D02*
D03*
X6049210D02*
D03*
X5899210D02*
D03*
X5749210D02*
D03*
X5599210D02*
D03*
X5449210D02*
D03*
X5299210D02*
D03*
X5149210D02*
D03*
X4999210D02*
D03*
X4849210D02*
D03*
X4699210D02*
D03*
X4549210D02*
D03*
X4399210D02*
D03*
X4249210D02*
D03*
X6649210Y9371810D02*
D03*
X6499210D02*
D03*
X6349210D02*
D03*
X6199210D02*
D03*
X6049210D02*
D03*
X5899210D02*
D03*
X5749210D02*
D03*
X5599210D02*
D03*
X5449210D02*
D03*
X5299210D02*
D03*
X5149210D02*
D03*
X4999210D02*
D03*
X4849210D02*
D03*
X4699210D02*
D03*
X4549210D02*
D03*
X4399210D02*
D03*
X4249210D02*
D03*
X6786510Y9143210D02*
D03*
X6636510D02*
D03*
X6486510D02*
D03*
X6336510D02*
D03*
X6186510D02*
D03*
X6036510D02*
D03*
X5886510D02*
D03*
X5736510D02*
D03*
X5586510D02*
D03*
X5436510D02*
D03*
X5286510D02*
D03*
X5136510D02*
D03*
X4986510D02*
D03*
X4836510D02*
D03*
X4686510D02*
D03*
X4536510D02*
D03*
X4386510D02*
D03*
X4236510D02*
D03*
X6786510Y8901910D02*
D03*
X6636510D02*
D03*
X6486510D02*
D03*
X6336510D02*
D03*
X6186510D02*
D03*
X6036510D02*
D03*
X5886510D02*
D03*
X5736510D02*
D03*
X5586510D02*
D03*
X5436510D02*
D03*
X5286510D02*
D03*
X5136510D02*
D03*
X4986510D02*
D03*
X4836510D02*
D03*
X4686510D02*
D03*
X4536510D02*
D03*
X4386510D02*
D03*
X4236510D02*
D03*
X6473810Y8660610D02*
D03*
X6323810D02*
D03*
X6173810D02*
D03*
X6023810D02*
D03*
X5873810D02*
D03*
X5723810D02*
D03*
X5573810D02*
D03*
X5423810D02*
D03*
X5273810D02*
D03*
X5123810D02*
D03*
X4973810D02*
D03*
X4823810D02*
D03*
X4673810D02*
D03*
X4523810D02*
D03*
X4373810D02*
D03*
X4223810D02*
D03*
X6461110Y8419310D02*
D03*
X6311110D02*
D03*
X6161110D02*
D03*
X6011110D02*
D03*
X5861110D02*
D03*
X5711110D02*
D03*
X5561110D02*
D03*
X5411110D02*
D03*
X5261110D02*
D03*
X5111110D02*
D03*
X4961110D02*
D03*
X4811110D02*
D03*
X4661110D02*
D03*
X4511110D02*
D03*
X4361110D02*
D03*
X4211110D02*
D03*
X6611110Y8190710D02*
D03*
X6461110D02*
D03*
X6311110D02*
D03*
X6161110D02*
D03*
X6011110D02*
D03*
X5861110D02*
D03*
X5711110D02*
D03*
X5561110D02*
D03*
X5411110D02*
D03*
X5261110D02*
D03*
X5111110D02*
D03*
X4961110D02*
D03*
X4811110D02*
D03*
X4661110D02*
D03*
X4511110D02*
D03*
X4361110D02*
D03*
X4211110D02*
D03*
X-6228356Y5414354D02*
D03*
X-6078356D02*
D03*
X-5928356D02*
D03*
X-5778356D02*
D03*
X-5628356D02*
D03*
X-5478356D02*
D03*
X-5328356D02*
D03*
X-5178356D02*
D03*
X-5028356D02*
D03*
X-4878356D02*
D03*
X-4728356D02*
D03*
X-4578356D02*
D03*
X-4428356D02*
D03*
X-6228356Y5655654D02*
D03*
X-6078356D02*
D03*
X-5928356D02*
D03*
X-5778356D02*
D03*
X-5628356D02*
D03*
X-5478356D02*
D03*
X-5328356D02*
D03*
X-5178356D02*
D03*
X-5028356D02*
D03*
X-4878356D02*
D03*
X-4728356D02*
D03*
X-4578356D02*
D03*
X-4428356D02*
D03*
X-6190256Y5858854D02*
D03*
X-6040256D02*
D03*
X-5890256D02*
D03*
X-5740256D02*
D03*
X-5590256D02*
D03*
X-5440256D02*
D03*
X-5290256D02*
D03*
X-5140256D02*
D03*
X-4990256D02*
D03*
X-4840256D02*
D03*
X-4690256D02*
D03*
X-4540256D02*
D03*
X-4390256D02*
D03*
X-6202956Y6049354D02*
D03*
X-6052956D02*
D03*
X-5902956D02*
D03*
X-5752956D02*
D03*
X-5602956D02*
D03*
X-5452956D02*
D03*
X-5302956D02*
D03*
X-5152956D02*
D03*
X-5002956D02*
D03*
X-4852956D02*
D03*
X-4702956D02*
D03*
X-4552956D02*
D03*
X-4402956D02*
D03*
X-6202956Y6265254D02*
D03*
X-6052956D02*
D03*
X-5902956D02*
D03*
X-5752956D02*
D03*
X-5602956D02*
D03*
X-5452956D02*
D03*
X-5302956D02*
D03*
X-5152956D02*
D03*
X-5002956D02*
D03*
X-4852956D02*
D03*
X-4702956D02*
D03*
X-4552956D02*
D03*
X-4402956D02*
D03*
X-4378758Y6504949D02*
D03*
X-4528758D02*
D03*
X-4678758D02*
D03*
X-4828758D02*
D03*
X-4978758D02*
D03*
X-5128758D02*
D03*
X-5278758D02*
D03*
X-5428758D02*
D03*
X-5578758D02*
D03*
X-5728758D02*
D03*
X-5878758D02*
D03*
X-6028758D02*
D03*
X-6178758D02*
D03*
X-6333307Y6746827D02*
D03*
X-6183307D02*
D03*
X-6033307D02*
D03*
X-5883307D02*
D03*
X-5733307D02*
D03*
X-5583307D02*
D03*
X-5433307D02*
D03*
X-5283307D02*
D03*
X-5133307D02*
D03*
X-4983307D02*
D03*
X-4833307D02*
D03*
X-4683307D02*
D03*
X-4533307D02*
D03*
X-4383307D02*
D03*
X-4396007Y6937327D02*
D03*
X-4546007D02*
D03*
X-4696007D02*
D03*
X-4846007D02*
D03*
X-4996007D02*
D03*
X-5146007D02*
D03*
X-5296007D02*
D03*
X-5446007D02*
D03*
X-5596007D02*
D03*
X-5746007D02*
D03*
X-5896007D02*
D03*
X-6046007D02*
D03*
X-6196007D02*
D03*
X-6346007D02*
D03*
X-6496007D02*
D03*
X-4396007Y7178627D02*
D03*
X-4546007D02*
D03*
X-4696007D02*
D03*
X-4846007D02*
D03*
X-4996007D02*
D03*
X-5146007D02*
D03*
X-5296007D02*
D03*
X-5446007D02*
D03*
X-5596007D02*
D03*
X-5746007D02*
D03*
X-5896007D02*
D03*
X-6046007D02*
D03*
X-6196007D02*
D03*
X-6346007D02*
D03*
X-6496007D02*
D03*
X-6646007D02*
D03*
X-6796007D02*
D03*
X-4421407Y7419927D02*
D03*
X-4571407D02*
D03*
X-4721407D02*
D03*
X-4871407D02*
D03*
X-5021407D02*
D03*
X-5171407D02*
D03*
X-5321407D02*
D03*
X-5471407D02*
D03*
X-5621407D02*
D03*
X-5771407D02*
D03*
X-5921407D02*
D03*
X-6071407D02*
D03*
X-6221407D02*
D03*
X-6371407D02*
D03*
X-6521407D02*
D03*
X-6671407D02*
D03*
X-6821407D02*
D03*
X-4408707Y7648527D02*
D03*
X-4558707D02*
D03*
X-4708707D02*
D03*
X-4858707D02*
D03*
X-5008707D02*
D03*
X-5158707D02*
D03*
X-5308707D02*
D03*
X-5458707D02*
D03*
X-5608707D02*
D03*
X-5758707D02*
D03*
X-5908707D02*
D03*
X-6058707D02*
D03*
X-6208707D02*
D03*
X-6358707D02*
D03*
X-6508707D02*
D03*
X-6658707D02*
D03*
X-6808707D02*
D03*
X-4421407Y7889827D02*
D03*
X-4571407D02*
D03*
X-4721407D02*
D03*
X-4871407D02*
D03*
X-5021407D02*
D03*
X-5171407D02*
D03*
X-5321407D02*
D03*
X-5471407D02*
D03*
X-5621407D02*
D03*
X-5771407D02*
D03*
X-5921407D02*
D03*
X-6071407D02*
D03*
X-6221407D02*
D03*
X-6371407D02*
D03*
X-6521407D02*
D03*
X-6671407D02*
D03*
X-6821407D02*
D03*
X-6814890Y8101810D02*
D03*
X-6664890D02*
D03*
X-6514890D02*
D03*
X-6364890D02*
D03*
X-6214890D02*
D03*
X-6064890D02*
D03*
X-5914890D02*
D03*
X-5764890D02*
D03*
X-5614890D02*
D03*
X-5464890D02*
D03*
X-5314890D02*
D03*
X-5164890D02*
D03*
X-5014890D02*
D03*
X-4864890D02*
D03*
X-4714890D02*
D03*
X-4564890D02*
D03*
X-4414890D02*
D03*
X-6964890Y8343110D02*
D03*
X-6814890D02*
D03*
X-6664890D02*
D03*
X-6514890D02*
D03*
X-6364890D02*
D03*
X-6214890D02*
D03*
X-6064890D02*
D03*
X-5914890D02*
D03*
X-5764890D02*
D03*
X-5614890D02*
D03*
X-5464890D02*
D03*
X-5314890D02*
D03*
X-5164890D02*
D03*
X-5014890D02*
D03*
X-4864890D02*
D03*
X-4714890D02*
D03*
X-4564890D02*
D03*
X-4414890D02*
D03*
X-6964890Y8571710D02*
D03*
X-6814890D02*
D03*
X-6664890D02*
D03*
X-6514890D02*
D03*
X-6364890D02*
D03*
X-6214890D02*
D03*
X-6064890D02*
D03*
X-5914890D02*
D03*
X-5764890D02*
D03*
X-5614890D02*
D03*
X-5464890D02*
D03*
X-5314890D02*
D03*
X-5164890D02*
D03*
X-5014890D02*
D03*
X-4864890D02*
D03*
X-4714890D02*
D03*
X-4564890D02*
D03*
X-4414890D02*
D03*
X-6952190Y8813010D02*
D03*
X-6802190D02*
D03*
X-6652190D02*
D03*
X-6502190D02*
D03*
X-6352190D02*
D03*
X-6202190D02*
D03*
X-6052190D02*
D03*
X-5902190D02*
D03*
X-5752190D02*
D03*
X-5602190D02*
D03*
X-5452190D02*
D03*
X-5302190D02*
D03*
X-5152190D02*
D03*
X-5002190D02*
D03*
X-4852190D02*
D03*
X-4702190D02*
D03*
X-4552190D02*
D03*
X-4402190D02*
D03*
X-6939490Y9054310D02*
D03*
X-6789490D02*
D03*
X-6639490D02*
D03*
X-6489490D02*
D03*
X-6339490D02*
D03*
X-6189490D02*
D03*
X-6039490D02*
D03*
X-5889490D02*
D03*
X-5739490D02*
D03*
X-5589490D02*
D03*
X-5439490D02*
D03*
X-5289490D02*
D03*
X-5139490D02*
D03*
X-4989490D02*
D03*
X-4839490D02*
D03*
X-4689490D02*
D03*
X-4539490D02*
D03*
X-4389490D02*
D03*
X-6939490Y9295610D02*
D03*
X-6789490D02*
D03*
X-6639490D02*
D03*
X-6489490D02*
D03*
X-6339490D02*
D03*
X-6189490D02*
D03*
X-6039490D02*
D03*
X-5889490D02*
D03*
X-5739490D02*
D03*
X-5589490D02*
D03*
X-5439490D02*
D03*
X-5289490D02*
D03*
X-5139490D02*
D03*
X-4989490D02*
D03*
X-4839490D02*
D03*
X-4689490D02*
D03*
X-4539490D02*
D03*
X-4389490D02*
D03*
X-6926790Y9524210D02*
D03*
X-6776790D02*
D03*
X-6626790D02*
D03*
X-6476790D02*
D03*
X-6326790D02*
D03*
X-6176790D02*
D03*
X-6026790D02*
D03*
X-5876790D02*
D03*
X-5726790D02*
D03*
X-5576790D02*
D03*
X-5426790D02*
D03*
X-5276790D02*
D03*
X-5126790D02*
D03*
X-4976790D02*
D03*
X-4826790D02*
D03*
X-4676790D02*
D03*
X-4526790D02*
D03*
X-4376790D02*
D03*
X-6926790Y9727410D02*
D03*
X-6776790D02*
D03*
X-6626790D02*
D03*
X-6476790D02*
D03*
X-6326790D02*
D03*
X-6176790D02*
D03*
X-6026790D02*
D03*
X-5876790D02*
D03*
X-5726790D02*
D03*
X-5576790D02*
D03*
X-5426790D02*
D03*
X-5276790D02*
D03*
X-5126790D02*
D03*
X-4976790D02*
D03*
X-4826790D02*
D03*
X-4676790D02*
D03*
X-4526790D02*
D03*
X-4376790D02*
D03*
Y9905210D02*
D03*
X-4526790D02*
D03*
X-4676790D02*
D03*
X-4826790D02*
D03*
X-4976790D02*
D03*
X-5126790D02*
D03*
X-5276790D02*
D03*
X-5426790D02*
D03*
X-5576790D02*
D03*
X-5726790D02*
D03*
X-5876790D02*
D03*
X-6026790D02*
D03*
X-6176790D02*
D03*
X-6326790D02*
D03*
X-6476790D02*
D03*
X-6626790D02*
D03*
X-6776790D02*
D03*
X-6926790D02*
D03*
X-838649Y4122521D02*
D03*
X-1155700Y3959450D02*
D03*
X3504410Y3869410D02*
D03*
X3618710Y4126710D02*
D03*
X3936210Y4647410D02*
D03*
X5416056Y3555210D02*
D03*
X1154910Y5663410D02*
D03*
X735810Y4990310D02*
D03*
X-1605080Y5214820D02*
D03*
X-1524790Y5320510D02*
D03*
X-1334290Y5625310D02*
D03*
X-1216314Y5384010D02*
D03*
X-1664490Y5117310D02*
D03*
X-838990Y5485610D02*
D03*
X-775490Y5345910D02*
D03*
X-381790Y5028410D02*
D03*
X-3378990Y5587210D02*
D03*
X-7417590Y10387810D02*
D03*
X-4623590Y11911810D02*
D03*
X-3530600Y5397500D02*
D03*
X-5144290Y5155410D02*
D03*
X-5487190Y4698210D02*
D03*
Y3771110D02*
D03*
X-6401590Y5790410D02*
D03*
X-7176290Y6311110D02*
D03*
X-7100090Y8000210D02*
D03*
X-7887490Y8495510D02*
D03*
X-7290590Y10400510D02*
D03*
X-5074144Y12407110D02*
D03*
X875610Y11073510D02*
D03*
X1644156Y10558999D02*
D03*
X3898310Y12406910D02*
D03*
X4787110Y11975310D02*
D03*
X6400010Y10908510D02*
D03*
X7194056Y10400510D02*
D03*
X6717510Y8508210D02*
D03*
X7517610Y8000210D02*
D03*
X6425410Y6311110D02*
D03*
X7225510Y5803110D02*
D03*
X3593310Y3618710D02*
D03*
X856756Y6488910D02*
D03*
Y9676610D02*
D03*
X-1207290Y10552910D02*
D03*
X-2013444Y11060910D02*
D03*
X-2616990Y10273510D02*
D03*
X-2775444Y9968710D02*
D03*
X-3264690Y9765510D02*
D03*
X-3290090Y6349210D02*
D03*
X-1600990Y6184110D02*
D03*
X-1842290D02*
D03*
X1091410Y4647410D02*
D03*
X2526510Y3821910D02*
D03*
Y4088610D02*
D03*
X265910Y4888710D02*
D03*
X-1207290Y5472910D02*
D03*
X-895844Y5612610D02*
D03*
X-638740Y4523361D02*
D03*
X-661190Y3491710D02*
D03*
X-1026033Y3856368D02*
D03*
X-1879600Y4445000D02*
D03*
X-1646811Y4295605D02*
D03*
X-1765300Y4305300D02*
D03*
X-1900811Y4575005D02*
D03*
X-1766090Y4977610D02*
D03*
X-1588290Y4888710D02*
D03*
X1485110Y4901410D02*
D03*
X1218410Y4647410D02*
D03*
X481810Y5079210D02*
D03*
X367510D02*
D03*
X-457990Y4609310D02*
D03*
X-1270790Y5842265D02*
D03*
X-1461290Y5625310D02*
D03*
X6260310Y5980910D02*
D03*
X3466310Y6603210D02*
D03*
X-3366290Y6755610D02*
D03*
X7060410Y6514310D02*
D03*
X-3759200Y5524500D02*
D03*
X-1054890Y6031710D02*
D03*
X-7239790Y5980910D02*
D03*
X1281910Y10502110D02*
D03*
X-7379490Y7962110D02*
D03*
X-7989090Y8178010D02*
D03*
X-7849390Y10667210D02*
D03*
X-4433090Y12623010D02*
D03*
X-4928390Y11848310D02*
D03*
X-1385090Y11289510D02*
D03*
X-1867690Y10540210D02*
D03*
X812010Y10743410D02*
D03*
X4507710Y12623010D02*
D03*
X4101310Y11873710D02*
D03*
X7035010Y11124410D02*
D03*
X6539710Y10349710D02*
D03*
X7352510Y8724110D02*
D03*
X6946110Y7949410D02*
D03*
X-1804190Y5422110D02*
D03*
X-2362990Y6171410D02*
D03*
X-673890Y5472910D02*
D03*
Y5307810D02*
D03*
X-1334290Y6184110D02*
D03*
%TF.MD5,4d947db0c14a0fdb1bc91de3a0c5b59e*%
M02*
