%TF.GenerationSoftware,Altium Limited,Altium Designer,24.6.1 (21)*%
G04 Layer_Color=65535*
%FSLAX45Y45*%
%MOMM*%
%TF.SameCoordinates,D6E34864-ACFE-43FA-A01B-F9739AC3D18D*%
%TF.FilePolarity,Positive*%
%TF.FileFunction,Legend,Top*%
%TF.Part,Single*%
G01*
G75*
%TA.AperFunction,NonConductor*%
%ADD35C,0.20000*%
%ADD50C,0.25000*%
%ADD51C,0.15240*%
%ADD52C,0.00000*%
%ADD53C,0.15000*%
%ADD54C,0.12700*%
%ADD55C,0.25400*%
%ADD56C,0.09000*%
%ADD57C,0.35400*%
G36*
X-1039340Y5282410D02*
X-1077440D01*
Y5307810D01*
X-1039340D01*
Y5282410D01*
D02*
G37*
G36*
X-1524790Y5076960D02*
X-1550190D01*
Y5115060D01*
X-1524790D01*
Y5076960D01*
D02*
G37*
G36*
X-3457100Y5079900D02*
X-3449600Y5049900D01*
X-3464600D01*
X-3494600Y5079900D01*
Y5099900D01*
X-3457100Y5079900D01*
D02*
G37*
G36*
X-686590Y4956960D02*
X-711990D01*
Y4995060D01*
X-686590D01*
Y4956960D01*
D02*
G37*
G36*
X-1524790Y4676960D02*
X-1550190D01*
Y4715060D01*
X-1524790D01*
Y4676960D01*
D02*
G37*
G36*
X-1079340Y4444210D02*
X-1117440D01*
Y4469610D01*
X-1079340D01*
Y4444210D01*
D02*
G37*
G36*
X93657Y2182389D02*
X98367D01*
Y2172968D01*
X100722D01*
Y2170613D01*
X98367D01*
Y2168258D01*
X96012D01*
Y2165903D01*
X93657D01*
Y2163548D01*
X91302D01*
Y2161193D01*
X96012D01*
Y2163548D01*
X100722D01*
Y2165903D01*
X105432D01*
Y2163548D01*
X103077D01*
Y2158837D01*
X100722D01*
Y2156482D01*
X96012D01*
Y2149417D01*
X93657D01*
Y2151772D01*
X91302D01*
Y2142352D01*
X88946D01*
Y2144707D01*
X86591D01*
Y2132931D01*
X84236D01*
Y2125866D01*
X81881D01*
Y2118801D01*
X79526D01*
Y2116446D01*
X77171D01*
Y2114091D01*
X79526D01*
Y2111735D01*
X81881D01*
Y2104670D01*
X84236D01*
Y2107025D01*
X86591D01*
Y2102315D01*
X88946D01*
Y2107025D01*
X91302D01*
Y2109380D01*
X96012D01*
Y2111735D01*
X98367D01*
Y2116446D01*
X100722D01*
Y2123511D01*
X107787D01*
Y2121156D01*
X114853D01*
Y2118801D01*
X121918D01*
Y2116446D01*
X128983D01*
Y2114091D01*
X131339D01*
Y2111735D01*
X136049D01*
Y2109380D01*
X140759D01*
Y2104670D01*
X143114D01*
Y2102315D01*
X145469D01*
Y2099960D01*
X147824D01*
Y2097605D01*
X150180D01*
Y2095250D01*
X152535D01*
Y2092894D01*
X154890D01*
Y2090539D01*
X157245D01*
Y2085829D01*
X159600D01*
Y2083474D01*
X161955D01*
Y2081119D01*
X164310D01*
Y2076409D01*
X166665D01*
Y2071698D01*
X169020D01*
Y2066988D01*
X171376D01*
Y2064633D01*
X173731D01*
Y2057568D01*
X176086D01*
Y2062278D01*
X178441D01*
Y2057568D01*
X180796D01*
Y2052857D01*
X183151D01*
Y2050502D01*
X185506D01*
Y2041082D01*
X187861D01*
Y2029306D01*
X185506D01*
Y2026951D01*
X183151D01*
Y2024596D01*
X180796D01*
Y2022241D01*
X185506D01*
Y2019886D01*
X183151D01*
Y2017531D01*
X180796D01*
Y2015176D01*
X178441D01*
Y2012820D01*
X173731D01*
Y2010465D01*
X171376D01*
Y2012820D01*
X169020D01*
Y2017531D01*
X166665D01*
Y2024596D01*
X164310D01*
Y2029306D01*
X161955D01*
Y2036372D01*
X159600D01*
Y2043437D01*
X157245D01*
Y2050502D01*
X154890D01*
Y2057568D01*
X152535D01*
Y2064633D01*
X150180D01*
Y2069343D01*
X147824D01*
Y2076409D01*
X145469D01*
Y2081119D01*
X143114D01*
Y2085829D01*
X140759D01*
Y2090539D01*
X138404D01*
Y2095250D01*
X136049D01*
Y2097605D01*
X131339D01*
Y2099960D01*
X128983D01*
Y2097605D01*
X131339D01*
Y2092894D01*
X133694D01*
Y2090539D01*
X136049D01*
Y2088184D01*
X133694D01*
Y2076409D01*
X136049D01*
Y2071698D01*
X138404D01*
Y2069343D01*
X140759D01*
Y2066988D01*
X138404D01*
Y2064633D01*
X140759D01*
Y2059923D01*
X143114D01*
Y2052857D01*
X145469D01*
Y2043437D01*
X147824D01*
Y2038727D01*
X145469D01*
Y2034017D01*
X147824D01*
Y2031661D01*
X150180D01*
Y2029306D01*
X147824D01*
Y2024596D01*
X145469D01*
Y2029306D01*
X143114D01*
Y2024596D01*
X145469D01*
Y2019886D01*
X143114D01*
Y2015176D01*
X147824D01*
Y2005755D01*
X150180D01*
Y2003400D01*
X152535D01*
Y2005755D01*
X154890D01*
Y2008110D01*
X157245D01*
Y2003400D01*
X154890D01*
Y2001045D01*
X152535D01*
Y1998690D01*
X157245D01*
Y1996335D01*
X159600D01*
Y1993980D01*
X157245D01*
Y1996335D01*
X154890D01*
Y1993980D01*
X157245D01*
Y1991625D01*
X154890D01*
Y1993980D01*
X152535D01*
Y1991625D01*
X154890D01*
Y1986914D01*
X157245D01*
Y1982204D01*
X154890D01*
Y1977494D01*
X157245D01*
Y1975139D01*
X159600D01*
Y1972784D01*
X157245D01*
Y1975139D01*
X154890D01*
Y1972784D01*
X152535D01*
Y1968074D01*
X150180D01*
Y1972784D01*
X147824D01*
Y1968074D01*
X145469D01*
Y1963363D01*
X147824D01*
Y1965718D01*
X157245D01*
Y1970429D01*
X159600D01*
Y1958653D01*
X157245D01*
Y1963363D01*
X154890D01*
Y1958653D01*
X157245D01*
Y1953943D01*
X159600D01*
Y1956298D01*
X161955D01*
Y1951588D01*
X164310D01*
Y1949233D01*
X166665D01*
Y1946877D01*
X159600D01*
Y1944522D01*
X157245D01*
Y1942167D01*
X154890D01*
Y1937457D01*
X157245D01*
Y1939812D01*
X159600D01*
Y1942167D01*
X161955D01*
Y1937457D01*
D01*
D01*
X164310D01*
Y1935102D01*
X166665D01*
Y1932747D01*
X164310D01*
Y1925681D01*
X166665D01*
Y1920971D01*
X169020D01*
Y1925681D01*
X166665D01*
Y1930392D01*
X169020D01*
Y1925681D01*
X171376D01*
Y1928037D01*
X173731D01*
Y1923326D01*
X171376D01*
Y1920971D01*
X176086D01*
Y1913906D01*
X178441D01*
Y1916261D01*
X180796D01*
Y1911551D01*
X183151D01*
Y1906840D01*
X185506D01*
Y1899775D01*
X187861D01*
Y1897420D01*
X185506D01*
Y1892710D01*
X183151D01*
Y1890355D01*
X187861D01*
Y1895065D01*
X190217D01*
Y1899775D01*
X192572D01*
Y1897420D01*
X194927D01*
Y1895065D01*
X192572D01*
Y1890355D01*
X194927D01*
Y1878579D01*
X197282D01*
Y1880934D01*
X201992D01*
Y1878579D01*
X199637D01*
Y1876224D01*
X201992D01*
Y1869159D01*
X199637D01*
Y1866803D01*
X204347D01*
Y1873869D01*
X206702D01*
Y1869159D01*
X209057D01*
Y1871514D01*
X211413D01*
Y1864448D01*
X216123D01*
Y1859738D01*
X220833D01*
Y1857383D01*
X223188D01*
Y1850318D01*
X230253D01*
Y1847963D01*
X232608D01*
Y1845608D01*
X234963D01*
Y1838542D01*
D01*
D01*
X237319D01*
Y1831477D01*
X239674D01*
Y1836187D01*
X242029D01*
Y1831477D01*
X244384D01*
Y1824412D01*
X246739D01*
Y1814991D01*
X249094D01*
Y1817346D01*
X251449D01*
Y1812636D01*
X253804D01*
Y1805571D01*
X256160D01*
Y1800861D01*
X258515D01*
Y1796150D01*
X260870D01*
Y1793795D01*
X263225D01*
Y1791440D01*
X265580D01*
Y1786730D01*
X267935D01*
Y1782020D01*
X270290D01*
Y1777309D01*
X272645D01*
Y1774954D01*
X270290D01*
Y1772599D01*
X275000D01*
Y1767889D01*
X277356D01*
Y1765534D01*
X279711D01*
Y1760824D01*
X282066D01*
Y1756113D01*
X284421D01*
Y1753758D01*
X286776D01*
Y1751403D01*
X289131D01*
Y1746693D01*
X291486D01*
Y1741983D01*
X293841D01*
Y1739627D01*
X296197D01*
Y1737272D01*
X298552D01*
Y1732562D01*
X300907D01*
Y1727852D01*
X303262D01*
Y1723142D01*
X305617D01*
Y1718431D01*
X307972D01*
Y1716076D01*
X310327D01*
Y1711366D01*
X312682D01*
Y1709011D01*
X315037D01*
Y1704301D01*
X317393D01*
Y1699591D01*
X319748D01*
Y1697235D01*
X322103D01*
Y1692525D01*
X324458D01*
Y1687815D01*
X326813D01*
Y1683105D01*
X329168D01*
Y1680750D01*
X331523D01*
Y1676040D01*
X333878D01*
Y1671329D01*
X336234D01*
Y1664264D01*
X338589D01*
Y1661909D01*
X340944D01*
Y1657199D01*
X343299D01*
Y1652488D01*
X345654D01*
Y1645423D01*
X348009D01*
Y1643068D01*
X350364D01*
Y1636003D01*
X352719D01*
Y1631292D01*
X355074D01*
Y1626582D01*
X359785D01*
Y1617162D01*
X362140D01*
Y1614807D01*
X364495D01*
Y1610096D01*
X366850D01*
Y1607741D01*
X369205D01*
Y1600676D01*
X371560D01*
Y1595966D01*
X373915D01*
Y1591255D01*
X376270D01*
Y1586545D01*
X378625D01*
Y1584190D01*
X380981D01*
Y1579480D01*
X383336D01*
Y1574770D01*
X385691D01*
Y1570059D01*
X388046D01*
Y1567704D01*
X390401D01*
Y1560639D01*
X392756D01*
Y1555929D01*
X395111D01*
Y1553574D01*
X397466D01*
Y1548863D01*
X399821D01*
Y1546508D01*
X402176D01*
Y1541798D01*
X404532D01*
Y1534733D01*
X406887D01*
Y1530023D01*
X409242D01*
Y1525312D01*
X411597D01*
Y1522957D01*
X413952D01*
Y1518247D01*
X416307D01*
Y1511182D01*
X418662D01*
Y1508827D01*
X421017D01*
Y1504116D01*
X423373D01*
Y1497051D01*
X425728D01*
Y1494696D01*
X428083D01*
Y1487631D01*
X430438D01*
Y1482920D01*
X432793D01*
Y1478210D01*
X435148D01*
Y1473500D01*
X437503D01*
Y1471145D01*
X439858D01*
Y1466434D01*
X442213D01*
Y1461724D01*
X444569D01*
Y1457014D01*
X446924D01*
Y1452304D01*
X449279D01*
Y1449949D01*
X451634D01*
Y1447593D01*
X453989D01*
Y1442883D01*
X456344D01*
Y1440528D01*
X458699D01*
Y1435818D01*
X461054D01*
Y1433463D01*
X463410D01*
Y1426397D01*
X465765D01*
Y1421687D01*
X468120D01*
Y1414622D01*
X470475D01*
Y1409912D01*
X472830D01*
Y1405201D01*
X475185D01*
Y1400491D01*
X477540D01*
Y1395781D01*
X479895D01*
Y1391071D01*
X482250D01*
Y1388716D01*
X484606D01*
Y1384006D01*
X486961D01*
Y1379295D01*
X489316D01*
Y1376940D01*
X491671D01*
Y1372230D01*
X494026D01*
Y1367520D01*
X496381D01*
Y1365165D01*
X498736D01*
Y1360454D01*
X501091D01*
Y1355744D01*
X503447D01*
Y1351034D01*
X505802D01*
Y1346324D01*
X508157D01*
Y1341614D01*
X510512D01*
Y1339258D01*
X512867D01*
Y1334548D01*
X515222D01*
Y1332193D01*
X517577D01*
Y1327483D01*
X519932D01*
Y1325128D01*
X522287D01*
Y1322773D01*
X524642D01*
Y1318062D01*
X526998D01*
Y1315707D01*
X529353D01*
Y1310997D01*
X531708D01*
Y1308642D01*
X534063D01*
Y1303932D01*
X536418D01*
Y1299221D01*
X538773D01*
Y1294511D01*
X541128D01*
Y1292156D01*
X543483D01*
Y1287446D01*
X545838D01*
Y1282736D01*
X548193D01*
Y1280380D01*
X550549D01*
Y1275670D01*
X552904D01*
Y1270960D01*
X555259D01*
Y1266250D01*
X557614D01*
Y1261540D01*
X559969D01*
Y1256829D01*
X562324D01*
Y1254474D01*
X564679D01*
Y1249764D01*
X567034D01*
Y1245054D01*
X569390D01*
Y1242699D01*
X571745D01*
Y1237989D01*
X574100D01*
Y1233278D01*
X576455D01*
Y1230923D01*
X578810D01*
Y1226213D01*
X581165D01*
Y1221503D01*
X583520D01*
Y1216793D01*
X585875D01*
Y1214438D01*
X588230D01*
Y1209727D01*
X590586D01*
Y1205017D01*
X592941D01*
Y1200307D01*
X595296D01*
Y1197952D01*
X597651D01*
Y1193241D01*
X600006D01*
Y1188531D01*
X602361D01*
Y1183821D01*
X604716D01*
Y1179111D01*
X607071D01*
Y1176756D01*
X609427D01*
Y1172045D01*
X611782D01*
Y1127298D01*
X609427D01*
Y1124943D01*
X597651D01*
Y1122588D01*
X592941D01*
Y1120233D01*
X588230D01*
Y1117878D01*
X585875D01*
Y1115523D01*
X583520D01*
Y1113167D01*
X578810D01*
Y1110812D01*
X576455D01*
Y1108457D01*
X574100D01*
Y1106102D01*
X571745D01*
Y1103747D01*
X32424D01*
Y1106102D01*
X30069D01*
Y1113167D01*
X27714D01*
Y1117878D01*
X25359D01*
Y1122588D01*
X23004D01*
Y1129653D01*
X20648D01*
Y1134363D01*
X18293D01*
Y1139074D01*
X15938D01*
Y1146139D01*
X13583D01*
Y1150849D01*
X11228D01*
Y1157915D01*
X8873D01*
Y1162625D01*
X6518D01*
Y1169690D01*
X4163D01*
Y1174400D01*
X1807D01*
Y1181466D01*
X-548D01*
Y1186176D01*
X-2903D01*
Y1193241D01*
X-5258D01*
Y1197952D01*
X-7613D01*
Y1205017D01*
X-9968D01*
Y1209727D01*
X-12323D01*
Y1214438D01*
X-14678D01*
Y1219148D01*
X-17033D01*
Y1226213D01*
X-19389D01*
Y1230923D01*
X-21744D01*
Y1235633D01*
X-24099D01*
Y1240344D01*
X-26454D01*
Y1247409D01*
X-28809D01*
Y1252119D01*
X-31164D01*
Y1256829D01*
X-33519D01*
Y1261540D01*
X-35874D01*
Y1266250D01*
X-38230D01*
Y1273315D01*
X-40585D01*
Y1278025D01*
X-42940D01*
Y1282736D01*
X-45295D01*
Y1287446D01*
X-47650D01*
Y1292156D01*
X-50005D01*
Y1296866D01*
X-52360D01*
Y1301577D01*
X-54715D01*
Y1308642D01*
X-57070D01*
Y1313352D01*
X-59426D01*
Y1320417D01*
X-61781D01*
Y1325128D01*
X-64136D01*
Y1329838D01*
X-66491D01*
Y1334548D01*
X-68846D01*
Y1341614D01*
X-71201D01*
Y1346324D01*
X-73556D01*
Y1353389D01*
X-75911D01*
Y1358099D01*
X-78266D01*
Y1365165D01*
X-80622D01*
Y1369875D01*
X-82977D01*
Y1376940D01*
X-85332D01*
Y1381650D01*
X-87687D01*
Y1388716D01*
X-90042D01*
Y1395781D01*
X-92397D01*
Y1402846D01*
X-94752D01*
Y1407557D01*
X-97107D01*
Y1414622D01*
X-99462D01*
Y1421687D01*
X-101817D01*
Y1428753D01*
X-104173D01*
Y1435818D01*
X-106528D01*
Y1442883D01*
X-108883D01*
Y1449949D01*
X-111238D01*
Y1457014D01*
X-113593D01*
Y1461724D01*
X-115948D01*
Y1468790D01*
X-118303D01*
Y1475855D01*
X-120658D01*
Y1480565D01*
X-123013D01*
Y1487631D01*
X-125369D01*
Y1494696D01*
X-127724D01*
Y1501761D01*
X-130079D01*
Y1508827D01*
X-132434D01*
Y1515892D01*
X-134789D01*
Y1522957D01*
X-137144D01*
Y1530023D01*
X-139499D01*
Y1537088D01*
X-141854D01*
Y1544153D01*
X-144210D01*
Y1551218D01*
X-146565D01*
Y1560639D01*
X-148920D01*
Y1570059D01*
X-151275D01*
Y1581835D01*
X-153630D01*
Y1600676D01*
X-155985D01*
Y1664264D01*
X-153630D01*
Y1690170D01*
X-151275D01*
Y1711366D01*
X-148920D01*
Y1734917D01*
X-146565D01*
Y1763179D01*
X-144210D01*
Y1784375D01*
X-141854D01*
Y1800861D01*
X-139499D01*
Y1814991D01*
X-137144D01*
Y1831477D01*
X-134789D01*
Y1847963D01*
X-132434D01*
Y1871514D01*
X-130079D01*
Y1885644D01*
X-132434D01*
Y1888000D01*
X-141854D01*
Y1890355D01*
X-144210D01*
Y1892710D01*
X-146565D01*
Y1895065D01*
X-148920D01*
Y1897420D01*
X-151275D01*
Y1902130D01*
X-153630D01*
Y1906840D01*
X-155985D01*
Y1911551D01*
X-158340D01*
Y1918616D01*
X-160695D01*
Y1932747D01*
X-163050D01*
Y1949233D01*
X-165406D01*
Y1958653D01*
X-167761D01*
Y1968074D01*
X-170116D01*
Y1982204D01*
X-172471D01*
Y2005755D01*
X-170116D01*
Y2012820D01*
X-167761D01*
Y2017531D01*
X-165406D01*
Y2024596D01*
X-163050D01*
Y2029306D01*
X-160695D01*
Y2036372D01*
X-158340D01*
Y2041082D01*
X-155985D01*
Y2048147D01*
X-153630D01*
Y2052857D01*
X-151275D01*
Y2057568D01*
X-148920D01*
Y2064633D01*
X-146565D01*
Y2069343D01*
X-144210D01*
Y2074054D01*
X-141854D01*
Y2078764D01*
X-139499D01*
Y2083474D01*
X-137144D01*
Y2090539D01*
X-134789D01*
Y2095250D01*
X-132434D01*
Y2102315D01*
X-130079D01*
Y2109380D01*
X-127724D01*
Y2114091D01*
X-125369D01*
Y2118801D01*
X-123013D01*
Y2121156D01*
X-120658D01*
Y2123511D01*
X-118303D01*
Y2125866D01*
X-113593D01*
Y2128221D01*
X-106528D01*
Y2130576D01*
X-42940D01*
Y2128221D01*
X-35874D01*
Y2130576D01*
X-33519D01*
Y2128221D01*
X-14678D01*
Y2130576D01*
X-12323D01*
Y2132931D01*
X-9968D01*
Y2137642D01*
X-7613D01*
Y2142352D01*
X-5258D01*
Y2144707D01*
X-2903D01*
Y2147062D01*
X-548D01*
Y2149417D01*
X1807D01*
Y2151772D01*
X4163D01*
Y2154127D01*
X11228D01*
Y2156482D01*
X23004D01*
Y2158837D01*
X34779D01*
Y2161193D01*
X39489D01*
Y2163548D01*
X44200D01*
Y2165903D01*
X48910D01*
Y2168258D01*
X55975D01*
Y2170613D01*
X58330D01*
Y2172968D01*
X60685D01*
Y2175323D01*
X65396D01*
Y2177678D01*
X67751D01*
Y2180033D01*
X72461D01*
Y2182389D01*
X77171D01*
Y2184744D01*
X93657D01*
Y2182389D01*
D02*
G37*
G36*
X187861Y2022241D02*
X185506D01*
Y2024596D01*
X187861D01*
Y2022241D01*
D02*
G37*
G36*
X150180Y2019886D02*
Y2017531D01*
Y2015176D01*
X147824D01*
Y2022241D01*
X150180D01*
Y2019886D01*
D02*
G37*
G36*
X152535Y2008110D02*
X150180D01*
Y2010465D01*
X152535D01*
Y2008110D01*
D02*
G37*
G36*
X161955Y1984559D02*
Y1982204D01*
X159600D01*
Y1986914D01*
X161955D01*
Y1984559D01*
D02*
G37*
G36*
X166665Y1953943D02*
X164310D01*
Y1956298D01*
X166665D01*
Y1953943D01*
D02*
G37*
G36*
X169020Y1942167D02*
X166665D01*
Y1944522D01*
X169020D01*
Y1942167D01*
D02*
G37*
G36*
X173731Y1939812D02*
X171376D01*
Y1942167D01*
X173731D01*
Y1939812D01*
D02*
G37*
G36*
X166665Y1937457D02*
X164310D01*
Y1942167D01*
X166665D01*
Y1937457D01*
D02*
G37*
G36*
X173731Y1935102D02*
X171376D01*
Y1937457D01*
X173731D01*
Y1935102D01*
D02*
G37*
G36*
X171376Y1930392D02*
X169020D01*
Y1932747D01*
Y1935102D01*
X171376D01*
Y1930392D01*
D02*
G37*
G36*
X178441Y1920971D02*
X176086D01*
Y1923326D01*
Y1925681D01*
Y1928037D01*
X178441D01*
Y1920971D01*
D02*
G37*
G36*
X190217Y1902130D02*
X187861D01*
Y1906840D01*
X190217D01*
Y1902130D01*
D02*
G37*
%LPC*%
G36*
X74816Y2123511D02*
X72461D01*
Y2121156D01*
X74816D01*
Y2123511D01*
D02*
G37*
G36*
X79526Y2102315D02*
X77171D01*
Y2099960D01*
X79526D01*
Y2102315D01*
D02*
G37*
G36*
X58330Y2088184D02*
X55975D01*
Y2085829D01*
X58330D01*
Y2088184D01*
D02*
G37*
G36*
X67751Y2104670D02*
X65396D01*
Y2099960D01*
X67751D01*
Y2092894D01*
Y2090539D01*
Y2083474D01*
X70106D01*
Y2085829D01*
X72461D01*
Y2097605D01*
X70106D01*
Y2102315D01*
X67751D01*
Y2104670D01*
D02*
G37*
G36*
X48910Y2078764D02*
X46555D01*
Y2076409D01*
Y2074054D01*
X48910D01*
Y2066988D01*
X51265D01*
Y2064633D01*
X53620D01*
Y2066988D01*
X51265D01*
Y2074054D01*
X48910D01*
Y2078764D01*
D02*
G37*
G36*
X46555Y2066988D02*
X44200D01*
Y2064633D01*
X46555D01*
Y2066988D01*
D02*
G37*
G36*
X143114Y2052857D02*
X140759D01*
Y2050502D01*
X143114D01*
Y2052857D01*
D02*
G37*
G36*
X65396Y2048147D02*
X63040D01*
Y2043437D01*
X65396D01*
Y2041082D01*
X67751D01*
X70106Y2038727D01*
Y2036372D01*
X72461D01*
Y2034017D01*
X74816D01*
Y2031661D01*
X77171D01*
Y2036372D01*
X74816D01*
Y2038727D01*
X72461D01*
Y2041082D01*
X70106D01*
Y2043437D01*
X67751D01*
Y2045792D01*
X65396D01*
Y2048147D01*
D02*
G37*
G36*
X81881Y2034017D02*
X79526D01*
Y2029306D01*
X81881Y2026951D01*
X84236D01*
Y2024596D01*
X81881D01*
Y2022241D01*
X84236D01*
Y2017531D01*
X86591D01*
Y2019886D01*
X91302D01*
Y2022241D01*
X88946D01*
Y2024596D01*
X86591D01*
Y2026951D01*
X84236D01*
Y2029306D01*
X81881D01*
Y2034017D01*
D02*
G37*
G36*
X143114Y2012820D02*
X140759D01*
Y2010465D01*
X143114D01*
Y2012820D01*
D02*
G37*
G36*
X93657Y2010465D02*
X88946D01*
Y2008110D01*
X91302D01*
Y2005755D01*
X93657D01*
Y2010465D01*
D02*
G37*
G36*
X96012Y2019886D02*
X93657D01*
Y2017531D01*
X88946D01*
Y2012820D01*
X91302D01*
Y2015176D01*
X93657D01*
Y2010465D01*
X96012D01*
Y1998690D01*
X93657D01*
Y2001045D01*
X91302D01*
Y1998690D01*
X93657D01*
Y1993980D01*
X96012D01*
Y1991625D01*
X98367D01*
Y1989269D01*
X100722D01*
Y1991625D01*
X103077D01*
Y1993980D01*
X105432D01*
Y1991625D01*
X107787D01*
Y1989269D01*
X105432D01*
Y1984559D01*
X107787D01*
Y1986914D01*
X110143D01*
Y1984559D01*
X107787D01*
Y1979849D01*
X110143D01*
Y1975139D01*
X112498D01*
Y1979849D01*
X110143D01*
Y1982204D01*
X114853D01*
Y1989269D01*
X117208Y1991625D01*
Y1998690D01*
X114853D01*
Y1993980D01*
Y1991625D01*
X112498D01*
Y2001045D01*
X110143D01*
Y1998690D01*
X107787D01*
Y2005755D01*
X105432D01*
Y2008110D01*
X103077D01*
Y2010465D01*
X100722D01*
Y2012820D01*
X98367D01*
Y2017531D01*
X96012D01*
Y2019886D01*
D02*
G37*
G36*
X88946Y2001045D02*
X86591D01*
Y1998690D01*
X88946D01*
Y2001045D01*
D02*
G37*
G36*
X150180D02*
X147824D01*
Y1993980D01*
X150180D01*
Y2001045D01*
D02*
G37*
G36*
X140759Y1996335D02*
X138404D01*
Y1993980D01*
X140759D01*
Y1996335D01*
D02*
G37*
G36*
X145469Y1993980D02*
X143114D01*
Y1991625D01*
X145469D01*
Y1993980D01*
D02*
G37*
G36*
X91302Y1996335D02*
X88946D01*
Y1993980D01*
X91302D01*
Y1991625D01*
X93657D01*
Y1993980D01*
X91302D01*
Y1996335D01*
D02*
G37*
G36*
X128983Y1993980D02*
X126628D01*
Y1989269D01*
X128983D01*
Y1993980D01*
D02*
G37*
G36*
X145469Y1989269D02*
X143114D01*
Y1986914D01*
X145469D01*
Y1989269D01*
D02*
G37*
G36*
X124273Y1991625D02*
X121918D01*
Y1986914D01*
X124273D01*
Y1989269D01*
Y1991625D01*
D02*
G37*
G36*
X119563Y1989269D02*
X117208D01*
Y1986914D01*
X119563D01*
Y1989269D01*
D02*
G37*
G36*
X88946Y1986914D02*
X86591D01*
Y1984559D01*
X88946D01*
Y1986914D01*
D02*
G37*
G36*
X152535Y1991625D02*
X147824D01*
Y1986914D01*
X150180D01*
Y1982204D01*
X152535D01*
Y1986914D01*
X150180D01*
Y1989269D01*
X152535D01*
Y1991625D01*
D02*
G37*
G36*
X145469Y1982204D02*
X143114D01*
Y1979849D01*
X145469D01*
Y1982204D01*
D02*
G37*
G36*
X100722D02*
X98367D01*
Y1979849D01*
X100722D01*
Y1982204D01*
D02*
G37*
G36*
X152535Y1979849D02*
X150180D01*
Y1975139D01*
X152535D01*
Y1979849D01*
D02*
G37*
G36*
X147824Y1977494D02*
X145469D01*
Y1975139D01*
X147824D01*
Y1977494D01*
D02*
G37*
G36*
X117208Y1979849D02*
X114853D01*
Y1977494D01*
Y1975139D01*
X117208D01*
Y1972784D01*
X119563D01*
Y1975139D01*
X117208D01*
Y1979849D01*
D02*
G37*
G36*
X145469Y1972784D02*
X143114D01*
Y1970429D01*
X145469D01*
Y1972784D01*
D02*
G37*
G36*
X117208D02*
X114853D01*
Y1970429D01*
X117208D01*
Y1972784D01*
D02*
G37*
G36*
Y1968074D02*
X114853D01*
Y1965718D01*
X117208D01*
Y1968074D01*
D02*
G37*
G36*
X107787Y1970429D02*
X105432D01*
Y1965718D01*
X107787D01*
Y1968074D01*
Y1970429D01*
D02*
G37*
G36*
X138404Y1965718D02*
X136049D01*
Y1963363D01*
X138404D01*
Y1965718D01*
D02*
G37*
G36*
X126628D02*
X124273D01*
Y1963363D01*
X126628D01*
Y1965718D01*
D02*
G37*
G36*
X121918D02*
X119563D01*
Y1963363D01*
X121918D01*
Y1965718D01*
D02*
G37*
G36*
X96012D02*
X93657D01*
Y1963363D01*
X96012D01*
Y1965718D01*
D02*
G37*
G36*
X105432Y1963363D02*
X103077D01*
Y1961008D01*
X105432D01*
Y1963363D01*
D02*
G37*
G36*
X114853Y1961008D02*
X112498D01*
Y1958653D01*
X114853D01*
Y1961008D01*
D02*
G37*
G36*
X152535Y1953943D02*
X150180D01*
Y1951588D01*
X152535D01*
Y1953943D01*
D02*
G37*
G36*
X124273D02*
X121918D01*
Y1951588D01*
X124273D01*
Y1953943D01*
D02*
G37*
G36*
X161955Y1951588D02*
X157245D01*
Y1949233D01*
X161955D01*
Y1951588D01*
D02*
G37*
G36*
Y1937457D02*
X159600D01*
Y1935102D01*
X161955D01*
Y1937457D01*
D01*
D01*
D02*
G37*
G36*
Y1932747D02*
X157245D01*
Y1930392D01*
X161955D01*
Y1932747D01*
D02*
G37*
G36*
Y1918616D02*
X159600D01*
Y1916261D01*
X161955D01*
Y1918616D01*
D02*
G37*
G36*
X166665Y1916261D02*
X164310D01*
Y1913906D01*
X166665D01*
Y1916261D01*
D02*
G37*
G36*
X173731Y1918616D02*
X169020D01*
Y1916261D01*
X171376D01*
Y1911551D01*
X173731D01*
Y1909196D01*
X176086D01*
Y1911551D01*
X173731D01*
Y1918616D01*
D02*
G37*
G36*
X180796Y1909196D02*
X178441D01*
Y1904485D01*
X180796D01*
Y1909196D01*
D02*
G37*
G36*
X183151Y1897420D02*
X180796D01*
Y1895065D01*
X183151D01*
Y1897420D01*
D02*
G37*
G36*
X192572Y1890355D02*
X190217D01*
Y1888000D01*
X192572D01*
Y1890355D01*
D02*
G37*
G36*
X199637Y1876224D02*
X197282D01*
Y1871514D01*
X199637D01*
Y1876224D01*
D02*
G37*
G36*
X197282Y1869159D02*
X194927D01*
Y1866803D01*
X197282D01*
Y1869159D01*
D02*
G37*
G36*
X211413Y1864448D02*
X209057D01*
Y1859738D01*
X211413D01*
Y1864448D01*
D02*
G37*
G36*
X204347Y1862093D02*
X201992D01*
Y1859738D01*
X204347D01*
Y1862093D01*
D02*
G37*
G36*
X199637D02*
X197282D01*
Y1859738D01*
X199637D01*
Y1862093D01*
D02*
G37*
G36*
X216123Y1859738D02*
X213768D01*
Y1857383D01*
X216123D01*
Y1859738D01*
D02*
G37*
G36*
X209057D02*
X206702D01*
Y1857383D01*
X209057D01*
Y1859738D01*
D02*
G37*
G36*
X227898Y1845608D02*
X225543D01*
Y1843252D01*
X227898D01*
Y1840897D01*
X230253D01*
Y1838542D01*
X232608D01*
Y1836187D01*
X234963D01*
Y1838542D01*
D01*
D01*
X232608D01*
Y1843252D01*
X227898D01*
Y1845608D01*
D02*
G37*
G36*
X232608Y1833832D02*
X230253D01*
Y1831477D01*
X232608D01*
Y1833832D01*
D02*
G37*
G36*
X242029Y1826767D02*
X239674D01*
Y1824412D01*
X242029D01*
Y1822057D01*
X244384D01*
Y1824412D01*
X242029D01*
Y1826767D01*
D02*
G37*
G36*
X256160Y1796150D02*
X253804D01*
Y1793795D01*
X256160D01*
Y1796150D01*
D02*
G37*
G36*
X260870Y1793795D02*
X258515D01*
Y1789085D01*
X260870D01*
Y1793795D01*
D02*
G37*
G36*
X63040Y1706656D02*
X60685D01*
Y1694880D01*
X63040D01*
Y1666619D01*
X60685D01*
Y1657199D01*
X58330D01*
Y1643068D01*
X60685D01*
Y1636003D01*
X63040D01*
Y1626582D01*
X65396D01*
Y1619517D01*
X67751D01*
Y1610096D01*
X70106D01*
Y1605386D01*
X72461D01*
Y1598321D01*
X74816D01*
Y1591255D01*
X77171D01*
Y1586545D01*
X79526D01*
Y1581835D01*
X81881D01*
Y1577125D01*
X84236D01*
Y1572414D01*
X86591D01*
Y1567704D01*
X88946D01*
Y1562994D01*
X91302D01*
Y1558284D01*
X93657D01*
Y1553574D01*
X96012D01*
Y1551218D01*
X98367D01*
Y1546508D01*
X100722D01*
Y1541798D01*
X103077D01*
Y1537088D01*
X105432D01*
Y1534733D01*
X107787D01*
Y1530023D01*
X110143D01*
Y1527667D01*
Y1525312D01*
X112498D01*
Y1522957D01*
X114853D01*
Y1518247D01*
X117208D01*
Y1515892D01*
X119563D01*
Y1511182D01*
X121918D01*
Y1508827D01*
X124273D01*
Y1501761D01*
X126628D01*
Y1497051D01*
X128983D01*
Y1494696D01*
X131339D01*
Y1489986D01*
X133694D01*
Y1485275D01*
X136049D01*
Y1482920D01*
X138404D01*
Y1478210D01*
X140759D01*
Y1473500D01*
X143114D01*
Y1471145D01*
X145469D01*
Y1466434D01*
X147824D01*
Y1461724D01*
X150180D01*
Y1459369D01*
X152535D01*
Y1454659D01*
X154890D01*
Y1452304D01*
X157245D01*
Y1447593D01*
X159600D01*
Y1442883D01*
X161955D01*
Y1438173D01*
X166665D01*
Y1433463D01*
X169020D01*
Y1431108D01*
X171376D01*
Y1428753D01*
X169020D01*
Y1426397D01*
X171376D01*
Y1421687D01*
X173731D01*
Y1416977D01*
X176086D01*
Y1412267D01*
X178441D01*
Y1409912D01*
X180796D01*
Y1412267D01*
X183151D01*
Y1407557D01*
X180796D01*
Y1405201D01*
X183151D01*
Y1402846D01*
X185506D01*
Y1398136D01*
X187861D01*
Y1395781D01*
X190217D01*
Y1388716D01*
X194927D01*
Y1395781D01*
X192572D01*
Y1402846D01*
X194927D01*
Y1412267D01*
X192572D01*
Y1424042D01*
X190217D01*
Y1440528D01*
X187861D01*
Y1452304D01*
X185506D01*
Y1464079D01*
X183151D01*
Y1475855D01*
X180796D01*
Y1487631D01*
X178441D01*
Y1497051D01*
X176086D01*
Y1504116D01*
X173731D01*
Y1513537D01*
X171376D01*
Y1520602D01*
X169020D01*
Y1527667D01*
X166665D01*
Y1532378D01*
X164310D01*
Y1539443D01*
X161955D01*
Y1544153D01*
X159600D01*
Y1548863D01*
X157245D01*
Y1553574D01*
X154890D01*
Y1558284D01*
X152535D01*
Y1562994D01*
X150180D01*
Y1567704D01*
X147824D01*
Y1572414D01*
X145469D01*
Y1577125D01*
X143114D01*
Y1581835D01*
X140759D01*
Y1586545D01*
X138404D01*
Y1591255D01*
X136049D01*
Y1595966D01*
X133694D01*
Y1603031D01*
X131339D01*
Y1607741D01*
X128983D01*
Y1614807D01*
X126628D01*
Y1619517D01*
X124273D01*
Y1624227D01*
X121918D01*
Y1628937D01*
X119563D01*
Y1633647D01*
X117208D01*
Y1638358D01*
X114853D01*
Y1640713D01*
X112498D01*
Y1643068D01*
X110143D01*
Y1645423D01*
X107787D01*
Y1647778D01*
X103077D01*
Y1650133D01*
X100722D01*
Y1652488D01*
X98367D01*
Y1654844D01*
X96012D01*
Y1659554D01*
X93657D01*
Y1661909D01*
X91302D01*
Y1664264D01*
X88946D01*
Y1668974D01*
X86591D01*
Y1673684D01*
X84236D01*
Y1676040D01*
X81881D01*
Y1680750D01*
X79526D01*
Y1685460D01*
X77171D01*
Y1690170D01*
X74816D01*
Y1694880D01*
X72461D01*
Y1697235D01*
X70106D01*
Y1699591D01*
X67751D01*
Y1701946D01*
X65396D01*
Y1704301D01*
X63040D01*
Y1706656D01*
D02*
G37*
%LPD*%
G36*
X98367Y2010465D02*
X96012D01*
Y2012820D01*
X98367D01*
Y2010465D01*
D02*
G37*
G36*
X103077Y2001045D02*
X100722D01*
Y2003400D01*
X103077D01*
Y2001045D01*
D02*
G37*
G36*
X107787Y1996335D02*
X110143D01*
Y1991625D01*
X107787D01*
Y1993980D01*
X105432D01*
Y1998690D01*
X107787D01*
Y1996335D01*
D02*
G37*
G36*
X98367D02*
Y1993980D01*
X100722D01*
Y1991625D01*
X98367D01*
Y1993980D01*
X96012D01*
Y1998690D01*
X98367D01*
Y1996335D01*
D02*
G37*
G36*
X112498Y1986914D02*
X110143D01*
Y1989269D01*
X112498D01*
Y1986914D01*
D02*
G37*
D35*
X-3105390Y9952010D02*
G03*
X-3105390Y9952010I-10000J0D01*
G01*
X-3494600Y5094900D02*
G03*
X-3449600Y5049900I45000J0D01*
G01*
X1306810Y3504410D02*
G03*
X1306810Y3504410I-10000J0D01*
G01*
X4047373Y4036743D02*
X4082373D01*
X4157373Y4111743D01*
Y4481743D01*
X4047373D02*
X4157373D01*
X3791210Y4038710D02*
X3826210D01*
X3716210Y4113710D02*
X3791210Y4038710D01*
X3716210Y4113710D02*
Y4483710D01*
X3826210D01*
X-5911190Y3871010D02*
X-5841190D01*
X-5651190D02*
X-5601190D01*
X-5461190Y4031010D02*
Y4061010D01*
Y4421010D02*
Y4451010D01*
X-5651190Y4611010D02*
X-5601190D01*
X-5911190D02*
X-5841190D01*
X-5911190Y3871010D02*
Y4611010D01*
X-6021190D02*
X-5911190D01*
X-6021190Y3871010D02*
Y4611010D01*
Y3871010D02*
X-5911190D01*
X-5156990Y4791710D02*
Y4811710D01*
Y4711710D02*
Y4721710D01*
X-5206990Y4791710D02*
X-5116990D01*
X-5206990D02*
X-5156990Y4721710D01*
X-5116990Y4791710D01*
X-5206990Y4721710D02*
X-5106990D01*
X-5322090Y4386710D02*
X-5182390D01*
X-5322090D02*
Y5130010D01*
X-5182390Y4386710D02*
Y4406110D01*
X-5322090D02*
X-5182390D01*
X-5131590D02*
X-4991890D01*
X-5131590Y4386710D02*
Y4406110D01*
X-5322090Y5130010D02*
X-5274490D01*
X-5131590Y4386710D02*
X-4991890D01*
X-5039490Y5130010D02*
X-4991890D01*
Y4386710D02*
Y5130010D01*
X-3449600Y4729900D02*
Y5077400D01*
X-3472100Y5099900D02*
X-3449600Y5077400D01*
X-4119600Y5099900D02*
X-3472100D01*
X-3494600Y5094900D02*
Y5099900D01*
X-4119600Y4729900D02*
Y5099900D01*
Y4729900D02*
X-3449600D01*
D50*
X-3412100Y5229900D02*
G03*
X-3412100Y5229900I-12500J0D01*
G01*
D51*
X-1924650Y5222911D02*
G03*
X-1924650Y5222911I-612140J0D01*
G01*
X954270Y4994980D02*
G03*
X954270Y4994980I-10160J0D01*
G01*
X-817890Y6125970D02*
G03*
X-817890Y6125970I-12700J0D01*
G01*
X2746220Y4275300D02*
X3170400D01*
X2746220Y3749520D02*
X3170400D01*
X7082000Y6061274D02*
Y6230746D01*
X6556220Y5883120D02*
X7082000D01*
X6556220Y6061274D02*
Y6230746D01*
Y6408900D02*
X7082000D01*
X7374100Y8257174D02*
Y8426646D01*
X6848320Y8079020D02*
X7374100D01*
X6848320Y8257174D02*
Y8426646D01*
Y8604800D02*
X7374100D01*
X6518120Y11004800D02*
X7043900D01*
X6518120Y10657174D02*
Y10826646D01*
Y10479020D02*
X7043900D01*
Y10657174D02*
Y10826646D01*
X4529300Y12157174D02*
Y12326646D01*
X4003520Y11979020D02*
X4529300D01*
X4003520Y12157174D02*
Y12326646D01*
Y12504800D02*
X4529300D01*
X993620Y10645620D02*
X1519400D01*
X993620Y10823774D02*
Y10993246D01*
Y11171400D02*
X1519400D01*
Y10823774D02*
Y10993246D01*
X-1363500Y10823774D02*
Y10993246D01*
X-1889280Y10645620D02*
X-1363500D01*
X-1889280Y10823774D02*
Y10993246D01*
Y11171400D02*
X-1363500D01*
X-4424200Y12157274D02*
Y12326746D01*
X-4949980Y11979120D02*
X-4424200D01*
X-4949980Y12157274D02*
Y12326746D01*
Y12504900D02*
X-4424200D01*
X-7103900Y10657174D02*
Y10826646D01*
X-7629680Y10479020D02*
X-7103900D01*
X-7629680Y10657174D02*
Y10826646D01*
Y11004800D02*
X-7103900D01*
X-7230900Y8257174D02*
Y8426646D01*
X-7756680Y8079020D02*
X-7230900D01*
X-7756680Y8257174D02*
Y8426646D01*
Y8604800D02*
X-7230900D01*
X-6532400Y6057174D02*
Y6226646D01*
X-7058180Y5879020D02*
X-6532400D01*
X-7058180Y6057174D02*
Y6226646D01*
Y6404800D02*
X-6532400D01*
X-2786790Y5885851D02*
Y6012851D01*
X-2850290Y5949351D02*
X-2723290D01*
X-816226Y4512790D02*
X-755170D01*
X-1481610D02*
Y4573846D01*
Y5239230D02*
X-1420554D01*
X-755170Y5178174D02*
Y5239230D01*
Y4512790D02*
Y4573846D01*
X-1481610Y4512790D02*
X-1420554D01*
X-1481610Y5178174D02*
Y5239230D01*
X-816226D02*
X-755170D01*
X574520Y4681772D02*
Y4790848D01*
X998700Y4681772D02*
Y4790848D01*
D52*
X34810Y3592310D02*
G03*
X34810Y3592310I-25000J0D01*
G01*
D53*
X-1206500Y4241800D02*
X-1104900D01*
X-1117600Y4356100D02*
X-1104900D01*
Y4127500D02*
Y4356100D01*
X-1117600Y4127500D02*
X-1104900D01*
X-1206500D02*
X-1193800D01*
X-1206500D02*
Y4356100D01*
X-1193800D01*
X-1308100Y4241800D02*
X-1206500D01*
X-1219200Y4356100D02*
X-1206500D01*
Y4127500D02*
Y4356100D01*
X-1219200Y4127500D02*
X-1206500D01*
X-1308100D02*
X-1295400D01*
X-1308100D02*
Y4356100D01*
X-1295400D01*
X-1541000Y4322600D02*
Y4342600D01*
X-1341000D01*
Y4322600D02*
Y4342600D01*
Y4242600D02*
Y4262600D01*
X-1541000Y4242600D02*
X-1341000D01*
X-1541000D02*
Y4262600D01*
X-1535100Y4424200D02*
Y4444200D01*
X-1335100D01*
Y4424200D02*
Y4444200D01*
Y4344200D02*
Y4364200D01*
X-1535100Y4344200D02*
X-1335100D01*
X-1535100D02*
Y4364200D01*
X2251710Y3899710D02*
X2271710D01*
Y4099710D01*
X2251710D02*
X2271710D01*
X2171710D02*
X2191710D01*
X2171710Y3899710D02*
Y4099710D01*
Y3899710D02*
X2191710D01*
X2323310Y3898110D02*
Y3910810D01*
Y3898110D02*
X2551910D01*
Y3910810D01*
Y3987010D02*
Y3999710D01*
X2323310D02*
X2551910D01*
X2323310Y3987010D02*
Y3999710D01*
X2437610Y3898110D02*
Y3999710D01*
X3428210Y3733010D02*
Y3745710D01*
X3199610D02*
X3428210D01*
X3199610Y3733010D02*
Y3745710D01*
Y3644110D02*
Y3656810D01*
Y3644110D02*
X3428210D01*
Y3656810D01*
X3313910Y3644110D02*
Y3745710D01*
X3541710Y3556810D02*
Y3756810D01*
X3521710D02*
X3541710D01*
X3441710D02*
X3461710D01*
X3441710Y3556810D02*
Y3756810D01*
Y3556810D02*
X3461710D01*
X3521710D02*
X3541710D01*
X3553610Y3978910D02*
Y3998910D01*
X3353610D02*
X3553610D01*
X3353610Y3978910D02*
Y3998910D01*
Y3898910D02*
Y3918910D01*
Y3898910D02*
X3553610D01*
Y3918910D01*
Y4156710D02*
Y4176710D01*
X3353610D02*
X3553610D01*
X3353610Y4156710D02*
Y4176710D01*
Y4076710D02*
Y4096710D01*
Y4076710D02*
X3553610D01*
Y4096710D01*
X3558087Y4274910D02*
Y4294910D01*
X3358087D02*
X3558087D01*
X3358087Y4274910D02*
Y4294910D01*
Y4194910D02*
Y4214910D01*
Y4194910D02*
X3558087D01*
Y4214910D01*
X3326610Y4329910D02*
Y4342610D01*
Y4329910D02*
X3555210D01*
Y4342610D01*
Y4418810D02*
Y4431510D01*
X3326610D02*
X3555210D01*
X3326610Y4418810D02*
Y4431510D01*
X3440910Y4329910D02*
Y4431510D01*
X7255510Y5842810D02*
X7275510D01*
Y6042810D01*
X7255510D02*
X7275510D01*
X7175510D02*
X7195510D01*
X7175510Y5842810D02*
Y6042810D01*
Y5842810D02*
X7195510D01*
X7547610Y8039910D02*
X7567610D01*
Y8239910D01*
X7547610D02*
X7567610D01*
X7467610D02*
X7487610D01*
X7467610Y8039910D02*
Y8239910D01*
Y8039910D02*
X7487610D01*
X7230110Y10427510D02*
X7250110D01*
Y10627510D01*
X7230110D02*
X7250110D01*
X7150110D02*
X7170110D01*
X7150110Y10427510D02*
Y10627510D01*
Y10427510D02*
X7170110D01*
X4702810Y11926110D02*
X4722810D01*
Y12126110D01*
X4702810D02*
X4722810D01*
X4622810D02*
X4642810D01*
X4622810Y11926110D02*
Y12126110D01*
Y11926110D02*
X4642810D01*
X1692910Y10592610D02*
X1712910D01*
Y10792610D01*
X1692910D02*
X1712910D01*
X1612910D02*
X1632910D01*
X1612910Y10592610D02*
Y10792610D01*
Y10592610D02*
X1632910D01*
X-1177290D02*
X-1157290D01*
Y10792610D01*
X-1177290D02*
X-1157290D01*
X-1257290D02*
X-1237290D01*
X-1257290Y10592610D02*
Y10792610D01*
Y10592610D02*
X-1237290D01*
X-4583890Y11861810D02*
Y11881810D01*
Y11861810D02*
X-4383890D01*
Y11881810D01*
Y11941810D02*
Y11961810D01*
X-4583890D02*
X-4383890D01*
X-4583890Y11941810D02*
Y11961810D01*
X-7263590Y10350510D02*
Y10370510D01*
Y10350510D02*
X-7063590D01*
Y10370510D01*
Y10430510D02*
Y10450510D01*
X-7263590D02*
X-7063590D01*
X-7263590Y10430510D02*
Y10450510D01*
X-7070090Y8027210D02*
X-7050090D01*
Y8227210D01*
X-7070090D02*
X-7050090D01*
X-7150090D02*
X-7130090D01*
X-7150090Y8027210D02*
Y8227210D01*
Y8027210D02*
X-7130090D01*
X-4331690Y5047610D02*
Y5067610D01*
Y5047610D02*
X-4131689D01*
Y5067610D01*
Y5127610D02*
Y5147610D01*
X-4331690D02*
X-4131689D01*
X-4331690Y5127610D02*
Y5147610D01*
X-3570300Y5427500D02*
Y5447500D01*
X-3770300D02*
X-3570300D01*
X-3770300Y5427500D02*
Y5447500D01*
Y5347500D02*
Y5367500D01*
Y5347500D02*
X-3570300D01*
Y5367500D01*
X-3302790Y5650710D02*
X-3290090D01*
X-3302790Y5422110D02*
Y5650710D01*
Y5422110D02*
X-3290090D01*
X-3213890D02*
X-3201190D01*
Y5650710D01*
X-3213890D02*
X-3201190D01*
X-3302790Y5536410D02*
X-3201190D01*
X-599290Y5617210D02*
Y5637210D01*
X-799290D02*
X-599290D01*
X-799290Y5617210D02*
Y5637210D01*
Y5537210D02*
Y5557210D01*
Y5537210D02*
X-599290D01*
Y5557210D01*
X-1158090Y5769610D02*
Y5789610D01*
X-1358090D02*
X-1158090D01*
X-1358090Y5769610D02*
Y5789610D01*
Y5689610D02*
Y5709610D01*
Y5689610D02*
X-1158090D01*
Y5709610D01*
X-1194590Y5536410D02*
Y5549110D01*
Y5536410D02*
X-965990D01*
Y5549110D01*
Y5625310D02*
Y5638010D01*
X-1194590D02*
X-965990D01*
X-1194590Y5625310D02*
Y5638010D01*
X-1080290Y5536410D02*
Y5638010D01*
X-1168390Y5534810D02*
X-1148390D01*
X-1168390Y5334810D02*
Y5534810D01*
Y5334810D02*
X-1148390D01*
X-1088390D02*
X-1068390D01*
Y5534810D01*
X-1088390D02*
X-1068390D01*
X-1384290Y5598310D02*
X-1364290D01*
X-1384290Y5398310D02*
Y5598310D01*
Y5398310D02*
X-1364290D01*
X-1304290D02*
X-1284290D01*
Y5598310D01*
X-1304290D02*
X-1284290D01*
X-1511290D02*
X-1491290D01*
X-1511290Y5398310D02*
Y5598310D01*
Y5398310D02*
X-1491290D01*
X-1431290D02*
X-1411290D01*
Y5598310D01*
X-1431290D02*
X-1411290D01*
X-1726390Y4927610D02*
Y4947610D01*
Y4927610D02*
X-1526390D01*
Y4947610D01*
Y5007610D02*
Y5027610D01*
X-1726390D02*
X-1526390D01*
X-1726390Y5007610D02*
Y5027610D01*
X-1638290Y4810910D02*
X-1618290D01*
X-1638290Y4610910D02*
Y4810910D01*
Y4610910D02*
X-1618290D01*
X-1558290D02*
X-1538290D01*
Y4810910D01*
X-1558290D02*
X-1538290D01*
X-1665300Y4602000D02*
Y4622000D01*
X-1865300D02*
X-1665300D01*
X-1865300Y4602000D02*
Y4622000D01*
Y4522000D02*
Y4542000D01*
Y4522000D02*
X-1665300D01*
Y4542000D01*
X-1815300Y4332300D02*
X-1795300D01*
X-1815300D02*
Y4532300D01*
X-1795300D01*
X-1735300D02*
X-1715300D01*
Y4332300D02*
Y4532300D01*
X-1735300Y4332300D02*
X-1715300D01*
X-1621000D02*
X-1601000D01*
Y4532300D01*
X-1621000D02*
X-1601000D01*
X-1701000D02*
X-1681000D01*
X-1701000Y4332300D02*
Y4532300D01*
Y4332300D02*
X-1681000D01*
X-998700Y3875100D02*
X-978700D01*
Y4075100D01*
X-998700D02*
X-978700D01*
X-1078700D02*
X-1058700D01*
X-1078700Y3875100D02*
Y4075100D01*
Y3875100D02*
X-1058700D01*
X-892684Y4020110D02*
X-872684D01*
Y4220110D01*
X-892684D02*
X-872684D01*
X-972683D02*
X-952683D01*
X-972683Y4020110D02*
Y4220110D01*
Y4020110D02*
X-952683D01*
X-711190Y3518710D02*
X-691190D01*
X-711190D02*
Y3718710D01*
X-691190D01*
X-631190D02*
X-611190D01*
Y3518710D02*
Y3718710D01*
X-631190Y3518710D02*
X-611190D01*
X151610Y3669510D02*
X164310D01*
Y3440910D02*
Y3669510D01*
X151610Y3440910D02*
X164310D01*
X62710Y3555210D02*
X164310D01*
X62710Y3440910D02*
X75410D01*
X62710D02*
Y3669510D01*
X75410D01*
X202410Y3821910D02*
X304010D01*
X202410Y3707610D02*
X215110D01*
X202410D02*
Y3936210D01*
X215110D01*
X291310D02*
X304010D01*
Y3707610D02*
Y3936210D01*
X291310Y3707610D02*
X304010D01*
X278610Y5625310D02*
X291310D01*
X278610Y5540710D02*
Y5625310D01*
Y5540710D02*
X291310D01*
X278610Y5676110D02*
X291310D01*
X278610D02*
Y5760710D01*
X291310D01*
X621510Y5612610D02*
Y5688810D01*
Y5650710D02*
X646910D01*
X545310D02*
X570710D01*
X621510Y5688810D01*
X570710Y5650710D02*
X621510Y5612610D01*
X570710Y5540710D02*
Y5760710D01*
X862810Y5730710D02*
Y5760710D01*
X291310D02*
X862810D01*
X291310Y5676110D02*
Y5760710D01*
Y5540710D02*
Y5625310D01*
Y5540710D02*
X862810D01*
Y5570710D01*
X1104110Y5701510D02*
Y5714210D01*
X875510D02*
X1104110D01*
X875510Y5701510D02*
Y5714210D01*
Y5612610D02*
Y5625310D01*
Y5612610D02*
X1104110D01*
Y5625310D01*
X989810Y5612610D02*
Y5714210D01*
X1307310Y4761710D02*
Y4774410D01*
Y4761710D02*
X1535910D01*
Y4774410D01*
Y4850610D02*
Y4863310D01*
X1307310D02*
X1535910D01*
X1307310Y4850610D02*
Y4863310D01*
X1421610Y4761710D02*
Y4863310D01*
X1248410Y4674410D02*
X1268410D01*
Y4874410D01*
X1248410D02*
X1268410D01*
X1168410D02*
X1188410D01*
X1168410Y4674410D02*
Y4874410D01*
Y4674410D02*
X1188410D01*
X1121410Y4874410D02*
X1141410D01*
X1041410D02*
X1061410D01*
X1041410Y4674410D02*
Y4874410D01*
Y4674410D02*
X1061410D01*
X1121410D02*
X1141410D01*
Y4874410D01*
X431810Y5039510D02*
X451810D01*
X431810Y4839510D02*
Y5039510D01*
Y4839510D02*
X451810D01*
X511810D02*
X531810D01*
Y5039510D01*
X511810D02*
X531810D01*
X397510Y4839510D02*
X417510D01*
Y5039510D01*
X397510D02*
X417510D01*
X317510D02*
X337510D01*
X317510Y4839510D02*
Y5039510D01*
Y4839510D02*
X337510D01*
X-459590Y4940310D02*
Y4960310D01*
X-659590Y4940310D02*
X-459590D01*
X-659590D02*
Y4960310D01*
Y5020310D02*
Y5040310D01*
X-459590D01*
Y5020310D02*
Y5040310D01*
X-2921790Y10184610D02*
X-2693190D01*
X-2921790D02*
Y10197310D01*
Y10273510D02*
Y10286210D01*
X-2693190D01*
Y10273510D02*
Y10286210D01*
X-2720190Y9994910D02*
Y10014910D01*
X-2920190Y9994910D02*
X-2720190D01*
X-2920190D02*
Y10014910D01*
Y10074910D02*
Y10094910D01*
X-2720190D01*
Y10074910D02*
Y10094910D01*
X-2921790Y10337010D02*
Y10438610D01*
X-2807490Y10337010D02*
Y10349710D01*
X-3036090Y10337010D02*
X-2807490D01*
X-3036090D02*
Y10349710D01*
Y10425910D02*
Y10438610D01*
X-2807490D01*
Y10425910D02*
Y10438610D01*
X-2680490Y10311610D02*
Y10413210D01*
X-2566190Y10311610D02*
Y10324310D01*
X-2794790Y10311610D02*
X-2566190D01*
X-2794790D02*
Y10324310D01*
Y10400510D02*
Y10413210D01*
X-2566190D01*
Y10400510D02*
Y10413210D01*
X-2807490Y10184610D02*
Y10286210D01*
X-2693190Y10184610D02*
Y10197310D01*
X-497690Y4559310D02*
Y4579310D01*
X-697690Y4559310D02*
X-497690D01*
X-697690D02*
Y4579310D01*
Y4639310D02*
Y4659310D01*
X-497690D01*
Y4639310D02*
Y4659310D01*
X-6451590Y5830110D02*
X-6431590D01*
X-6451590D02*
Y6030110D01*
X-6431590D01*
X-6371590D02*
X-6351590D01*
Y5830110D02*
Y6030110D01*
X-6371590Y5830110D02*
X-6351590D01*
D54*
X-3915390Y9877010D02*
X4084610D01*
Y6277010D02*
Y9877010D01*
X-3915390Y6277010D02*
X4084610D01*
X-3915390D02*
Y9877010D01*
X4599010Y3739210D02*
X5249010D01*
X5599010Y3789210D02*
X5699010D01*
X4174010Y3739210D02*
Y3839210D01*
X4124010Y3789210D02*
X4224010D01*
X5474010Y3991210D02*
Y5239210D01*
X4374010D02*
X5474010D01*
X4374010Y3991210D02*
Y5239210D01*
X-530190Y4072310D02*
Y4147310D01*
X-30190D01*
Y4072310D02*
Y4147310D01*
X-530190Y3547310D02*
Y3622310D01*
Y3547310D02*
X-30190D01*
Y3622310D01*
X1231810Y3364410D02*
Y3644410D01*
X231810Y3364410D02*
Y3644410D01*
X1126310Y3364410D02*
X1231810D01*
X1126310Y3644410D02*
X1231810D01*
X231810Y3364410D02*
X337310D01*
X231810Y3644410D02*
X337310D01*
D55*
X840576Y2007485D02*
X878663Y1807528D01*
X850097Y2007485D02*
X878663Y1855137D01*
X916750Y2007485D02*
X878663Y1807528D01*
X916750Y2007485D02*
X954837Y1807528D01*
X926272Y2007485D02*
X954837Y1855137D01*
X992924Y2007485D02*
X954837Y1807528D01*
X812010Y2007485D02*
X878663D01*
X964359D02*
X1021489D01*
X1071955D02*
X1062433Y1997963D01*
X1071955Y1988442D01*
X1081476Y1997963D01*
X1071955Y2007485D01*
Y1940833D02*
Y1807528D01*
X1081476Y1940833D02*
Y1807528D01*
X1043389Y1940833D02*
X1081476D01*
X1043389Y1807528D02*
X1110042D01*
X1203355D02*
X1193834Y1817049D01*
X1184312Y1845615D01*
Y2007485D01*
X1174790D01*
Y1845615D01*
X1184312Y1817049D01*
X1203355Y1807528D01*
X1222399D01*
X1241442Y1817049D01*
X1250964Y1836093D01*
X1146225Y1940833D02*
X1222399D01*
X1311903Y2007485D02*
Y1807528D01*
X1321425Y2007485D02*
Y1807528D01*
Y1912267D02*
X1340469Y1931311D01*
X1369034Y1940833D01*
X1388077D01*
X1416643Y1931311D01*
X1426165Y1912267D01*
Y1807528D01*
X1388077Y1940833D02*
X1407121Y1931311D01*
X1416643Y1912267D01*
Y1807528D01*
X1283338Y2007485D02*
X1321425D01*
X1283338Y1807528D02*
X1349990D01*
X1388077D02*
X1454730D01*
X1688966Y2007485D02*
Y1807528D01*
X1698487Y2007485D02*
Y1807528D01*
X1660400Y2007485D02*
X1727053D01*
X1660400Y1807528D02*
X1803227D01*
Y1864658D01*
X1793705Y1807528D01*
X1888923Y1940833D02*
X1860357Y1931311D01*
X1841314Y1912267D01*
X1831792Y1883702D01*
Y1864658D01*
X1841314Y1836093D01*
X1860357Y1817049D01*
X1888923Y1807528D01*
X1907966D01*
X1936532Y1817049D01*
X1955575Y1836093D01*
X1965097Y1864658D01*
Y1883702D01*
X1955575Y1912267D01*
X1936532Y1931311D01*
X1907966Y1940833D01*
X1888923D01*
X1869879Y1931311D01*
X1850836Y1912267D01*
X1841314Y1883702D01*
Y1864658D01*
X1850836Y1836093D01*
X1869879Y1817049D01*
X1888923Y1807528D01*
X1907966D02*
X1927010Y1817049D01*
X1946054Y1836093D01*
X1955575Y1864658D01*
Y1883702D01*
X1946054Y1912267D01*
X1927010Y1931311D01*
X1907966Y1940833D01*
X2013658D02*
X2070789Y1807528D01*
X2023180Y1940833D02*
X2070789Y1826571D01*
X2127919Y1940833D02*
X2070789Y1807528D01*
X1994615Y1940833D02*
X2051745D01*
X2089832D02*
X2146963D01*
X2184098Y1883702D02*
X2298359D01*
Y1902745D01*
X2288837Y1921789D01*
X2279315Y1931311D01*
X2260272Y1940833D01*
X2231707D01*
X2203141Y1931311D01*
X2184098Y1912267D01*
X2174576Y1883702D01*
Y1864658D01*
X2184098Y1836093D01*
X2203141Y1817049D01*
X2231707Y1807528D01*
X2250750D01*
X2279315Y1817049D01*
X2298359Y1836093D01*
X2288837Y1883702D02*
Y1912267D01*
X2279315Y1931311D01*
X2231707Y1940833D02*
X2212663Y1931311D01*
X2193620Y1912267D01*
X2184098Y1883702D01*
Y1864658D01*
X2193620Y1836093D01*
X2212663Y1817049D01*
X2231707Y1807528D01*
X2338350D02*
X2328829Y1817049D01*
X2338350Y1826571D01*
X2347872Y1817049D01*
Y1798006D01*
X2338350Y1778962D01*
X2328829Y1769441D01*
X888184Y1697055D02*
X878663Y1687533D01*
X888184Y1678011D01*
X897706Y1687533D01*
Y1697055D01*
X888184Y1706576D01*
X869141D01*
X850097Y1697055D01*
X840576Y1678011D01*
Y1506619D01*
X869141Y1706576D02*
X859619Y1697055D01*
X850097Y1678011D01*
Y1506619D01*
X812010Y1639924D02*
X888184D01*
X812010Y1506619D02*
X878663D01*
X960550Y1639924D02*
Y1506619D01*
X970072Y1639924D02*
Y1506619D01*
Y1582793D02*
X979594Y1611358D01*
X998637Y1630402D01*
X1017681Y1639924D01*
X1046246D01*
X1055768Y1630402D01*
Y1620880D01*
X1046246Y1611358D01*
X1036724Y1620880D01*
X1046246Y1630402D01*
X931985Y1639924D02*
X970072D01*
X931985Y1506619D02*
X998637D01*
X1143368Y1639924D02*
X1114803Y1630402D01*
X1095759Y1611358D01*
X1086237Y1582793D01*
Y1563750D01*
X1095759Y1535184D01*
X1114803Y1516141D01*
X1143368Y1506619D01*
X1162411D01*
X1190977Y1516141D01*
X1210020Y1535184D01*
X1219542Y1563750D01*
Y1582793D01*
X1210020Y1611358D01*
X1190977Y1630402D01*
X1162411Y1639924D01*
X1143368D01*
X1124324Y1630402D01*
X1105281Y1611358D01*
X1095759Y1582793D01*
Y1563750D01*
X1105281Y1535184D01*
X1124324Y1516141D01*
X1143368Y1506619D01*
X1162411D02*
X1181455Y1516141D01*
X1200499Y1535184D01*
X1210020Y1563750D01*
Y1582793D01*
X1200499Y1611358D01*
X1181455Y1630402D01*
X1162411Y1639924D01*
X1277625D02*
Y1506619D01*
X1287147Y1639924D02*
Y1506619D01*
Y1611358D02*
X1306190Y1630402D01*
X1334756Y1639924D01*
X1353799D01*
X1382365Y1630402D01*
X1391886Y1611358D01*
Y1506619D01*
X1353799Y1639924D02*
X1372843Y1630402D01*
X1382365Y1611358D01*
Y1506619D01*
X1391886Y1611358D02*
X1410930Y1630402D01*
X1439495Y1639924D01*
X1458539D01*
X1487104Y1630402D01*
X1496626Y1611358D01*
Y1506619D01*
X1458539Y1639924D02*
X1477582Y1630402D01*
X1487104Y1611358D01*
Y1506619D01*
X1249060Y1639924D02*
X1287147D01*
X1249060Y1506619D02*
X1315712D01*
X1353799D02*
X1420452D01*
X1458539D02*
X1525191D01*
X1549948D02*
X1540426Y1516141D01*
X1549948Y1525663D01*
X1559470Y1516141D01*
Y1497097D01*
X1549948Y1478054D01*
X1540426Y1468532D01*
X840576Y1405667D02*
Y1205710D01*
X850097Y1405667D02*
Y1205710D01*
X812010Y1405667D02*
X926272D01*
X954837Y1396146D01*
X964359Y1386624D01*
X973880Y1367580D01*
Y1348537D01*
X964359Y1329493D01*
X954837Y1319972D01*
X926272Y1310450D01*
X850097D01*
X926272Y1405667D02*
X945315Y1396146D01*
X954837Y1386624D01*
X964359Y1367580D01*
Y1348537D01*
X954837Y1329493D01*
X945315Y1319972D01*
X926272Y1310450D01*
X812010Y1205710D02*
X878663D01*
X897706Y1310450D02*
X916750Y1300928D01*
X926272Y1291406D01*
X954837Y1224754D01*
X964359Y1215232D01*
X973880D01*
X983402Y1224754D01*
X916750Y1300928D02*
X926272Y1281884D01*
X945315Y1215232D01*
X954837Y1205710D01*
X973880D01*
X983402Y1224754D01*
Y1234276D01*
X1018633Y1224754D02*
X1009111Y1215232D01*
X1018633Y1205710D01*
X1028155Y1215232D01*
X1018633Y1224754D01*
X1097664Y1405667D02*
Y1205710D01*
X1107185Y1405667D02*
Y1205710D01*
X1069098Y1405667D02*
X1164316D01*
X1192881Y1396146D01*
X1211925Y1377102D01*
X1221447Y1358059D01*
X1230968Y1329493D01*
Y1281884D01*
X1221447Y1253319D01*
X1211925Y1234276D01*
X1192881Y1215232D01*
X1164316Y1205710D01*
X1069098D01*
X1164316Y1405667D02*
X1183360Y1396146D01*
X1202403Y1377102D01*
X1211925Y1358059D01*
X1221447Y1329493D01*
Y1281884D01*
X1211925Y1253319D01*
X1202403Y1234276D01*
X1183360Y1215232D01*
X1164316Y1205710D01*
D56*
X-1175693Y4379205D02*
Y4409195D01*
X-1160698D01*
X-1155700Y4404197D01*
Y4394200D01*
X-1160698Y4389202D01*
X-1175693D01*
X-1165697D02*
X-1155700Y4379205D01*
X-1145703D02*
X-1135706D01*
X-1140705D01*
Y4409195D01*
X-1145703Y4404197D01*
X-1269592Y4379205D02*
Y4409195D01*
X-1254597D01*
X-1249598Y4404197D01*
Y4394200D01*
X-1254597Y4389202D01*
X-1269592D01*
X-1259595D02*
X-1249598Y4379205D01*
X-1219608D02*
X-1239602D01*
X-1219608Y4399198D01*
Y4404197D01*
X-1224606Y4409195D01*
X-1234603D01*
X-1239602Y4404197D01*
X-1534695Y4213697D02*
X-1539693Y4218695D01*
X-1549690D01*
X-1554688Y4213697D01*
Y4193703D01*
X-1549690Y4188705D01*
X-1539693D01*
X-1534695Y4193703D01*
X-1524698Y4188705D02*
X-1514701D01*
X-1519700D01*
Y4218695D01*
X-1524698Y4213697D01*
X-1479713Y4188705D02*
X-1499706D01*
X-1479713Y4208698D01*
Y4213697D01*
X-1484711Y4218695D01*
X-1494708D01*
X-1499706Y4213697D01*
X-3912716Y10062282D02*
X-3917715Y10067281D01*
X-3927711D01*
X-3932710Y10062282D01*
Y10057284D01*
X-3927711Y10052285D01*
X-3917715D01*
X-3912716Y10047287D01*
Y10042289D01*
X-3917715Y10037290D01*
X-3927711D01*
X-3932710Y10042289D01*
X-3882726Y10062282D02*
X-3887724Y10067281D01*
X-3897721D01*
X-3902719Y10062282D01*
Y10042289D01*
X-3897721Y10037290D01*
X-3887724D01*
X-3882726Y10042289D01*
X-3872729Y10032292D02*
X-3852736D01*
X-3842739Y10037290D02*
X-3832742D01*
X-3837740D01*
Y10067281D01*
X-3842739Y10062282D01*
X-1516094Y4480397D02*
X-1521093Y4485395D01*
X-1531089D01*
X-1536088Y4480397D01*
Y4460403D01*
X-1531089Y4455405D01*
X-1521093D01*
X-1516094Y4460403D01*
X-1506098Y4455405D02*
X-1496101D01*
X-1501099D01*
Y4485395D01*
X-1506098Y4480397D01*
X-1481106D02*
X-1476107Y4485395D01*
X-1466111D01*
X-1461112Y4480397D01*
Y4475398D01*
X-1466111Y4470400D01*
X-1471109D01*
X-1466111D01*
X-1461112Y4465402D01*
Y4460403D01*
X-1466111Y4455405D01*
X-1476107D01*
X-1481106Y4460403D01*
X2628745Y4271082D02*
X2648739Y4251089D01*
X2628745D02*
X2648739Y4271082D01*
X2628745Y4261085D02*
X2648739D01*
X2638742Y4251089D02*
Y4271082D01*
X7120100Y5909029D02*
X7100107Y5929022D01*
X7120100D02*
X7100107Y5909029D01*
X7120100Y5919025D02*
X7100107D01*
X7110104Y5929022D02*
Y5909029D01*
X7412200Y8104929D02*
X7392207Y8124922D01*
X7412200D02*
X7392207Y8104929D01*
X7412200Y8114925D02*
X7392207D01*
X7402204Y8124922D02*
Y8104929D01*
X7082000Y10504928D02*
X7062007Y10524922D01*
X7082000D02*
X7062007Y10504928D01*
X7082000Y10514925D02*
X7062007D01*
X7072004Y10524922D02*
Y10504928D01*
X4567400Y12004928D02*
X4547407Y12024922D01*
X4567400D02*
X4547407Y12004928D01*
X4567400Y12014925D02*
X4547407D01*
X4557404Y12024922D02*
Y12004928D01*
X1557500Y10671529D02*
X1537507Y10691522D01*
X1557500D02*
X1537507Y10671529D01*
X1557500Y10681525D02*
X1537507D01*
X1547504Y10691522D02*
Y10671529D01*
X-1325400D02*
X-1345393Y10691522D01*
X-1325400D02*
X-1345393Y10671529D01*
X-1325400Y10681525D02*
X-1345393D01*
X-1335396Y10691522D02*
Y10671529D01*
X-4386100Y12005029D02*
X-4406093Y12025022D01*
X-4386100D02*
X-4406093Y12005029D01*
X-4386100Y12015025D02*
X-4406093D01*
X-4396096Y12025022D02*
Y12005029D01*
X-7065800Y10504928D02*
X-7085793Y10524922D01*
X-7065800D02*
X-7085793Y10504928D01*
X-7065800Y10514925D02*
X-7085793D01*
X-7075796Y10524922D02*
Y10504928D01*
X-7192800Y8104929D02*
X-7212793Y8124922D01*
X-7192800D02*
X-7212793Y8104929D01*
X-7192800Y8114925D02*
X-7212793D01*
X-7202796Y8124922D02*
Y8104929D01*
X-6494300Y5904928D02*
X-6514293Y5924922D01*
X-6494300D02*
X-6514293Y5904928D01*
X-6494300Y5914925D02*
X-6514293D01*
X-6504296Y5924922D02*
Y5904928D01*
X-642140Y4634519D02*
X-662133Y4654512D01*
X-642140D02*
X-662133Y4634519D01*
X-642140Y4644515D02*
X-662133D01*
X-652136Y4654512D02*
Y4634519D01*
X-1768181Y5066306D02*
X-1773179Y5071305D01*
X-1783176D01*
X-1788174Y5066306D01*
Y5046313D01*
X-1783176Y5041315D01*
X-1773179D01*
X-1768181Y5046313D01*
X-1758184Y5036316D02*
X-1738190D01*
X-1728194Y5041315D02*
X-1718197D01*
X-1723195D01*
Y5071305D01*
X-1728194Y5066306D01*
X-1703202Y5041315D02*
X-1693205D01*
X-1698203D01*
Y5071305D01*
X-1703202Y5066306D01*
X-1232078Y5648415D02*
Y5678405D01*
X-1217082D01*
X-1212084Y5673407D01*
Y5663410D01*
X-1217082Y5658412D01*
X-1232078D01*
X-1222081D02*
X-1212084Y5648415D01*
X-1202087D02*
X-1192091D01*
X-1197089D01*
Y5678405D01*
X-1202087Y5673407D01*
X-1162100Y5648415D02*
Y5678405D01*
X-1177095Y5663410D01*
X-1157102D01*
X888822Y5737315D02*
Y5767305D01*
X903818D01*
X908816Y5762307D01*
Y5752310D01*
X903818Y5747312D01*
X888822D01*
X898819D02*
X908816Y5737315D01*
X918813D02*
X928809D01*
X923811D01*
Y5767305D01*
X918813Y5762307D01*
X963798Y5737315D02*
X943805D01*
X963798Y5757309D01*
Y5762307D01*
X958800Y5767305D01*
X948803D01*
X943805Y5762307D01*
X2603118Y4332205D02*
Y4307214D01*
X2608117Y4302215D01*
X2618114D01*
X2623112Y4307214D01*
Y4332205D01*
X2633109Y4327207D02*
X2638107Y4332205D01*
X2648104D01*
X2653102Y4327207D01*
Y4322209D01*
X2648104Y4317210D01*
X2643105D01*
X2648104D01*
X2653102Y4312212D01*
Y4307214D01*
X2648104Y4302215D01*
X2638107D01*
X2633109Y4307214D01*
X571118Y4967205D02*
Y4942214D01*
X576117Y4937215D01*
X586114D01*
X591112Y4942214D01*
Y4967205D01*
X621102Y4937215D02*
X601109D01*
X621102Y4957209D01*
Y4962207D01*
X616104Y4967205D01*
X606107D01*
X601109Y4962207D01*
X-1392383Y5335505D02*
Y5310514D01*
X-1387385Y5305515D01*
X-1377388D01*
X-1372389Y5310514D01*
Y5335505D01*
X-1362393Y5305515D02*
X-1352396D01*
X-1357394D01*
Y5335505D01*
X-1362393Y5330507D01*
X-3289478Y5686515D02*
Y5716505D01*
X-3274482D01*
X-3269484Y5711507D01*
Y5701510D01*
X-3274482Y5696512D01*
X-3289478D01*
X-3279481D02*
X-3269484Y5686515D01*
X-3259487D02*
X-3249491D01*
X-3254489D01*
Y5716505D01*
X-3259487Y5711507D01*
X-3234495D02*
X-3229497Y5716505D01*
X-3219500D01*
X-3214502Y5711507D01*
Y5706509D01*
X-3219500Y5701510D01*
X-3224499D01*
X-3219500D01*
X-3214502Y5696512D01*
Y5691514D01*
X-3219500Y5686515D01*
X-3229497D01*
X-3234495Y5691514D01*
X3217921Y3591015D02*
Y3621005D01*
X3232916D01*
X3237915Y3616007D01*
Y3606010D01*
X3232916Y3601012D01*
X3217921D01*
X3227918D02*
X3237915Y3591015D01*
X3247911D02*
X3257908D01*
X3252910D01*
Y3621005D01*
X3247911Y3616007D01*
X3272903Y3591015D02*
X3282900D01*
X3277901D01*
Y3621005D01*
X3272903Y3616007D01*
X3339922Y4454615D02*
Y4484605D01*
X3354918D01*
X3359916Y4479607D01*
Y4469610D01*
X3354918Y4464612D01*
X3339922D01*
X3349919D02*
X3359916Y4454615D01*
X3369913D02*
X3379909D01*
X3374911D01*
Y4484605D01*
X3369913Y4479607D01*
X3394905D02*
X3399903Y4484605D01*
X3409900D01*
X3414898Y4479607D01*
Y4459614D01*
X3409900Y4454615D01*
X3399903D01*
X3394905Y4459614D01*
Y4479607D01*
X2323718Y4022815D02*
Y4052805D01*
X2338714D01*
X2343712Y4047807D01*
Y4037810D01*
X2338714Y4032812D01*
X2323718D01*
X2333715D02*
X2343712Y4022815D01*
X2353709Y4027814D02*
X2358707Y4022815D01*
X2368704D01*
X2373702Y4027814D01*
Y4047807D01*
X2368704Y4052805D01*
X2358707D01*
X2353709Y4047807D01*
Y4042809D01*
X2358707Y4037810D01*
X2373702D01*
X1307718Y4886415D02*
Y4916405D01*
X1322714D01*
X1327712Y4911407D01*
Y4901410D01*
X1322714Y4896412D01*
X1307718D01*
X1317715D02*
X1327712Y4886415D01*
X1337709Y4911407D02*
X1342707Y4916405D01*
X1352704D01*
X1357702Y4911407D01*
Y4906409D01*
X1352704Y4901410D01*
X1357702Y4896412D01*
Y4891414D01*
X1352704Y4886415D01*
X1342707D01*
X1337709Y4891414D01*
Y4896412D01*
X1342707Y4901410D01*
X1337709Y4906409D01*
Y4911407D01*
X1342707Y4901410D02*
X1352704D01*
X-2799870Y10481790D02*
Y10511781D01*
X-2784875D01*
X-2779876Y10506782D01*
Y10496785D01*
X-2784875Y10491787D01*
X-2799870D01*
X-2789873D02*
X-2779876Y10481790D01*
X-2769879Y10511781D02*
X-2749886D01*
Y10506782D01*
X-2769879Y10486789D01*
Y10481790D01*
X-2926870Y10354790D02*
Y10384781D01*
X-2911875D01*
X-2906876Y10379782D01*
Y10369785D01*
X-2911875Y10364787D01*
X-2926870D01*
X-2916873D02*
X-2906876Y10354790D01*
X-2876886Y10384781D02*
X-2886883Y10379782D01*
X-2896879Y10369785D01*
Y10359789D01*
X-2891881Y10354790D01*
X-2881884D01*
X-2876886Y10359789D01*
Y10364787D01*
X-2881884Y10369785D01*
X-2896879D01*
X-3041170Y10507190D02*
Y10537181D01*
X-3026175D01*
X-3021176Y10532182D01*
Y10522185D01*
X-3026175Y10517187D01*
X-3041170D01*
X-3031173D02*
X-3021176Y10507190D01*
X-2991186Y10537181D02*
X-3011179D01*
Y10522185D01*
X-3001183Y10527184D01*
X-2996184D01*
X-2991186Y10522185D01*
Y10512189D01*
X-2996184Y10507190D01*
X-3006181D01*
X-3011179Y10512189D01*
X228218Y3959315D02*
Y3989305D01*
X243214D01*
X248212Y3984307D01*
Y3974310D01*
X243214Y3969312D01*
X228218D01*
X238215D02*
X248212Y3959315D01*
X273204D02*
Y3989305D01*
X258209Y3974310D01*
X278202D01*
X88518Y3692615D02*
Y3722605D01*
X103514D01*
X108512Y3717607D01*
Y3707610D01*
X103514Y3702612D01*
X88518D01*
X98515D02*
X108512Y3692615D01*
X118509Y3717607D02*
X123507Y3722605D01*
X133504D01*
X138502Y3717607D01*
Y3712609D01*
X133504Y3707610D01*
X128505D01*
X133504D01*
X138502Y3702612D01*
Y3697614D01*
X133504Y3692615D01*
X123507D01*
X118509Y3697614D01*
X-3017983Y5737315D02*
Y5767305D01*
X-3002988D01*
X-2997989Y5762307D01*
Y5752310D01*
X-3002988Y5747312D01*
X-3017983D01*
X-2987993Y5737315D02*
X-2977996D01*
X-2982994D01*
Y5767305D01*
X-2987993Y5762307D01*
X-7074078Y6478505D02*
Y6448515D01*
X-7054084D01*
X-7044087D02*
X-7034091D01*
X-7039089D01*
Y6478505D01*
X-7044087Y6473507D01*
X-7019095D02*
X-7014097Y6478505D01*
X-7004100D01*
X-6999102Y6473507D01*
Y6453514D01*
X-7004100Y6448515D01*
X-7014097D01*
X-7019095Y6453514D01*
Y6473507D01*
X-7760082Y8675605D02*
Y8645615D01*
X-7740088D01*
X-7730091Y8650614D02*
X-7725093Y8645615D01*
X-7715096D01*
X-7710098Y8650614D01*
Y8670607D01*
X-7715096Y8675605D01*
X-7725093D01*
X-7730091Y8670607D01*
Y8665609D01*
X-7725093Y8660610D01*
X-7710098D01*
X-7645782Y11063205D02*
Y11033215D01*
X-7625788D01*
X-7615791Y11058207D02*
X-7610793Y11063205D01*
X-7600796D01*
X-7595798Y11058207D01*
Y11053209D01*
X-7600796Y11048210D01*
X-7595798Y11043212D01*
Y11038214D01*
X-7600796Y11033215D01*
X-7610793D01*
X-7615791Y11038214D01*
Y11043212D01*
X-7610793Y11048210D01*
X-7615791Y11053209D01*
Y11058207D01*
X-7610793Y11048210D02*
X-7600796D01*
X-4966082Y12574505D02*
Y12544515D01*
X-4946088D01*
X-4936091Y12574505D02*
X-4916098D01*
Y12569507D01*
X-4936091Y12549514D01*
Y12544515D01*
X-1905382Y11253705D02*
Y11223715D01*
X-1885388D01*
X-1855398Y11253705D02*
X-1865395Y11248707D01*
X-1875391Y11238710D01*
Y11228714D01*
X-1870393Y11223715D01*
X-1860396D01*
X-1855398Y11228714D01*
Y11233712D01*
X-1860396Y11238710D01*
X-1875391D01*
X977518Y11241005D02*
Y11211015D01*
X997512D01*
X1027502Y11241005D02*
X1007509D01*
Y11226010D01*
X1017505Y11231009D01*
X1022504D01*
X1027502Y11226010D01*
Y11216014D01*
X1022504Y11211015D01*
X1012507D01*
X1007509Y11216014D01*
X3987418Y12574505D02*
Y12544515D01*
X4007412D01*
X4032404D02*
Y12574505D01*
X4017409Y12559510D01*
X4037402D01*
X6502018Y11088605D02*
Y11058615D01*
X6522012D01*
X6532009Y11083607D02*
X6537007Y11088605D01*
X6547004D01*
X6552002Y11083607D01*
Y11078609D01*
X6547004Y11073610D01*
X6542005D01*
X6547004D01*
X6552002Y11068612D01*
Y11063614D01*
X6547004Y11058615D01*
X6537007D01*
X6532009Y11063614D01*
X6819518Y8688305D02*
Y8658315D01*
X6839512D01*
X6869502D02*
X6849509D01*
X6869502Y8678309D01*
Y8683307D01*
X6864504Y8688305D01*
X6854507D01*
X6849509Y8683307D01*
X6532417Y6478505D02*
Y6448515D01*
X6552411D01*
X6562407D02*
X6572404D01*
X6567406D01*
Y6478505D01*
X6562407Y6473507D01*
X349812Y3709905D02*
X339815D01*
X344814D01*
Y3684914D01*
X339815Y3679915D01*
X334817D01*
X329818Y3684914D01*
X379802Y3679915D02*
X359809D01*
X379802Y3699909D01*
Y3704907D01*
X374804Y3709905D01*
X364807D01*
X359809Y3704907D01*
X-5995189Y4751305D02*
X-6005186D01*
X-6000188D01*
Y4726314D01*
X-6005186Y4721315D01*
X-6010185D01*
X-6015183Y4726314D01*
X-5985193Y4721315D02*
X-5975196D01*
X-5980194D01*
Y4751305D01*
X-5985193Y4746307D01*
X-800278Y6021305D02*
X-790281D01*
X-795279D01*
Y5991315D01*
X-800278D01*
X-790281D01*
X-755292Y6016307D02*
X-760291Y6021305D01*
X-770287D01*
X-775286Y6016307D01*
Y5996314D01*
X-770287Y5991315D01*
X-760291D01*
X-755292Y5996314D01*
X-745295Y6016307D02*
X-740297Y6021305D01*
X-730300D01*
X-725302Y6016307D01*
Y6011309D01*
X-730300Y6006310D01*
X-735299D01*
X-730300D01*
X-725302Y6001312D01*
Y5996314D01*
X-730300Y5991315D01*
X-740297D01*
X-745295Y5996314D01*
X-558978Y4217905D02*
X-548981D01*
X-553979D01*
Y4187915D01*
X-558978D01*
X-548981D01*
X-513992Y4212907D02*
X-518991Y4217905D01*
X-528987D01*
X-533986Y4212907D01*
Y4192914D01*
X-528987Y4187915D01*
X-518991D01*
X-513992Y4192914D01*
X-484002Y4187915D02*
X-503995D01*
X-484002Y4207909D01*
Y4212907D01*
X-489000Y4217905D01*
X-498997D01*
X-503995Y4212907D01*
X-4121889Y5387095D02*
X-4111893D01*
X-4116891D01*
Y5357105D01*
X-4121889D01*
X-4111893D01*
X-4076904Y5382097D02*
X-4081902Y5387095D01*
X-4091899D01*
X-4096898Y5382097D01*
Y5362103D01*
X-4091899Y5357105D01*
X-4081902D01*
X-4076904Y5362103D01*
X-4066907Y5357105D02*
X-4056911D01*
X-4061909D01*
Y5387095D01*
X-4066907Y5382097D01*
X304418Y5818105D02*
Y5788115D01*
X319414D01*
X324412Y5793114D01*
Y5813107D01*
X319414Y5818105D01*
X304418D01*
X354402Y5788115D02*
X334409D01*
X354402Y5808109D01*
Y5813107D01*
X349404Y5818105D01*
X339407D01*
X334409Y5813107D01*
X-5303983Y5208505D02*
Y5178515D01*
X-5288988D01*
X-5283989Y5183514D01*
Y5203507D01*
X-5288988Y5208505D01*
X-5303983D01*
X-5273993Y5178515D02*
X-5263996D01*
X-5268994D01*
Y5208505D01*
X-5273993Y5203507D01*
X3713807Y4543897D02*
X3708808Y4548895D01*
X3698811D01*
X3693813Y4543897D01*
Y4523903D01*
X3698811Y4518905D01*
X3708808D01*
X3713807Y4523903D01*
X3723803Y4543897D02*
X3728802Y4548895D01*
X3738798D01*
X3743797Y4543897D01*
Y4538898D01*
X3738798Y4533900D01*
X3733800D01*
X3738798D01*
X3743797Y4528902D01*
Y4523903D01*
X3738798Y4518905D01*
X3728802D01*
X3723803Y4523903D01*
X3753794D02*
X3758792Y4518905D01*
X3768789D01*
X3773787Y4523903D01*
Y4543897D01*
X3768789Y4548895D01*
X3758792D01*
X3753794Y4543897D01*
Y4538898D01*
X3758792Y4533900D01*
X3773787D01*
X3586017Y3946207D02*
X3581018Y3951205D01*
X3571022D01*
X3566023Y3946207D01*
Y3926214D01*
X3571022Y3921215D01*
X3581018D01*
X3586017Y3926214D01*
X3596014Y3946207D02*
X3601012Y3951205D01*
X3611009D01*
X3616007Y3946207D01*
Y3941209D01*
X3611009Y3936210D01*
X3606010D01*
X3611009D01*
X3616007Y3931212D01*
Y3926214D01*
X3611009Y3921215D01*
X3601012D01*
X3596014Y3926214D01*
X3626004Y3946207D02*
X3631002Y3951205D01*
X3640999D01*
X3645998Y3946207D01*
Y3941209D01*
X3640999Y3936210D01*
X3645998Y3931212D01*
Y3926214D01*
X3640999Y3921215D01*
X3631002D01*
X3626004Y3926214D01*
Y3931212D01*
X3631002Y3936210D01*
X3626004Y3941209D01*
Y3946207D01*
X3631002Y3936210D02*
X3640999D01*
X2201717Y4149407D02*
X2196718Y4154405D01*
X2186722D01*
X2181723Y4149407D01*
Y4129414D01*
X2186722Y4124415D01*
X2196718D01*
X2201717Y4129414D01*
X2211714Y4149407D02*
X2216712Y4154405D01*
X2226709D01*
X2231707Y4149407D01*
Y4144409D01*
X2226709Y4139410D01*
X2221710D01*
X2226709D01*
X2231707Y4134412D01*
Y4129414D01*
X2226709Y4124415D01*
X2216712D01*
X2211714Y4129414D01*
X2241704Y4154405D02*
X2261698D01*
Y4149407D01*
X2241704Y4129414D01*
Y4124415D01*
X3611417Y4098607D02*
X3606418Y4103605D01*
X3596422D01*
X3591423Y4098607D01*
Y4078614D01*
X3596422Y4073615D01*
X3606418D01*
X3611417Y4078614D01*
X3621414Y4098607D02*
X3626412Y4103605D01*
X3636409D01*
X3641407Y4098607D01*
Y4093609D01*
X3636409Y4088610D01*
X3631410D01*
X3636409D01*
X3641407Y4083612D01*
Y4078614D01*
X3636409Y4073615D01*
X3626412D01*
X3621414Y4078614D01*
X3671398Y4103605D02*
X3661401Y4098607D01*
X3651404Y4088610D01*
Y4078614D01*
X3656402Y4073615D01*
X3666399D01*
X3671398Y4078614D01*
Y4083612D01*
X3666399Y4088610D01*
X3651404D01*
X3573317Y3730307D02*
X3568318Y3735305D01*
X3558322D01*
X3553323Y3730307D01*
Y3710314D01*
X3558322Y3705315D01*
X3568318D01*
X3573317Y3710314D01*
X3583314Y3730307D02*
X3588312Y3735305D01*
X3598309D01*
X3603307Y3730307D01*
Y3725309D01*
X3598309Y3720310D01*
X3593310D01*
X3598309D01*
X3603307Y3715312D01*
Y3710314D01*
X3598309Y3705315D01*
X3588312D01*
X3583314Y3710314D01*
X3633298Y3735305D02*
X3613304D01*
Y3720310D01*
X3623301Y3725309D01*
X3628299D01*
X3633298Y3720310D01*
Y3710314D01*
X3628299Y3705315D01*
X3618302D01*
X3613304Y3710314D01*
X3603194Y4267607D02*
X3598195Y4272605D01*
X3588199D01*
X3583200Y4267607D01*
Y4247614D01*
X3588199Y4242615D01*
X3598195D01*
X3603194Y4247614D01*
X3613190Y4267607D02*
X3618189Y4272605D01*
X3628186D01*
X3633184Y4267607D01*
Y4262609D01*
X3628186Y4257610D01*
X3623187D01*
X3628186D01*
X3633184Y4252612D01*
Y4247614D01*
X3628186Y4242615D01*
X3618189D01*
X3613190Y4247614D01*
X3658176Y4242615D02*
Y4272605D01*
X3643181Y4257610D01*
X3663174D01*
X334817Y4809807D02*
X329818Y4814805D01*
X319822D01*
X314823Y4809807D01*
Y4789814D01*
X319822Y4784815D01*
X329818D01*
X334817Y4789814D01*
X344814Y4809807D02*
X349812Y4814805D01*
X359809D01*
X364807Y4809807D01*
Y4804809D01*
X359809Y4799810D01*
X354810D01*
X359809D01*
X364807Y4794812D01*
Y4789814D01*
X359809Y4784815D01*
X349812D01*
X344814Y4789814D01*
X374804Y4809807D02*
X379802Y4814805D01*
X389799D01*
X394798Y4809807D01*
Y4804809D01*
X389799Y4799810D01*
X384801D01*
X389799D01*
X394798Y4794812D01*
Y4789814D01*
X389799Y4784815D01*
X379802D01*
X374804Y4789814D01*
X461817Y4809807D02*
X456818Y4814805D01*
X446822D01*
X441823Y4809807D01*
Y4789814D01*
X446822Y4784815D01*
X456818D01*
X461817Y4789814D01*
X471814Y4809807D02*
X476812Y4814805D01*
X486809D01*
X491807Y4809807D01*
Y4804809D01*
X486809Y4799810D01*
X481810D01*
X486809D01*
X491807Y4794812D01*
Y4789814D01*
X486809Y4784815D01*
X476812D01*
X471814Y4789814D01*
X521798Y4784815D02*
X501804D01*
X521798Y4804809D01*
Y4809807D01*
X516799Y4814805D01*
X506802D01*
X501804Y4809807D01*
X1203415Y4924107D02*
X1198417Y4929105D01*
X1188420D01*
X1183422Y4924107D01*
Y4904114D01*
X1188420Y4899115D01*
X1198417D01*
X1203415Y4904114D01*
X1213412Y4924107D02*
X1218411Y4929105D01*
X1228407D01*
X1233406Y4924107D01*
Y4919109D01*
X1228407Y4914110D01*
X1223409D01*
X1228407D01*
X1233406Y4909112D01*
Y4904114D01*
X1228407Y4899115D01*
X1218411D01*
X1213412Y4904114D01*
X1243402Y4899115D02*
X1253399D01*
X1248401D01*
Y4929105D01*
X1243402Y4924107D01*
X1071417D02*
X1066418Y4929105D01*
X1056422D01*
X1051423Y4924107D01*
Y4904114D01*
X1056422Y4899115D01*
X1066418D01*
X1071417Y4904114D01*
X1081414Y4924107D02*
X1086412Y4929105D01*
X1096409D01*
X1101407Y4924107D01*
Y4919109D01*
X1096409Y4914110D01*
X1091410D01*
X1096409D01*
X1101407Y4909112D01*
Y4904114D01*
X1096409Y4899115D01*
X1086412D01*
X1081414Y4904114D01*
X1111404Y4924107D02*
X1116402Y4929105D01*
X1126399D01*
X1131398Y4924107D01*
Y4904114D01*
X1126399Y4899115D01*
X1116402D01*
X1111404Y4904114D01*
Y4924107D01*
X-2899256Y10186742D02*
X-2904255Y10191741D01*
X-2914251D01*
X-2919250Y10186742D01*
Y10166749D01*
X-2914251Y10161750D01*
X-2904255D01*
X-2899256Y10166749D01*
X-2869266Y10161750D02*
X-2889259D01*
X-2869266Y10181744D01*
Y10186742D01*
X-2874264Y10191741D01*
X-2884261D01*
X-2889259Y10186742D01*
X-2859269Y10166749D02*
X-2854271Y10161750D01*
X-2844274D01*
X-2839275Y10166749D01*
Y10186742D01*
X-2844274Y10191741D01*
X-2854271D01*
X-2859269Y10186742D01*
Y10181744D01*
X-2854271Y10176745D01*
X-2839275D01*
X-6429856Y6122742D02*
X-6434855Y6127741D01*
X-6444851D01*
X-6449850Y6122742D01*
Y6102749D01*
X-6444851Y6097750D01*
X-6434855D01*
X-6429856Y6102749D01*
X-6399866Y6097750D02*
X-6419859D01*
X-6399866Y6117744D01*
Y6122742D01*
X-6404864Y6127741D01*
X-6414861D01*
X-6419859Y6122742D01*
X-6389869D02*
X-6384871Y6127741D01*
X-6374874D01*
X-6369875Y6122742D01*
Y6117744D01*
X-6374874Y6112745D01*
X-6369875Y6107747D01*
Y6102749D01*
X-6374874Y6097750D01*
X-6384871D01*
X-6389869Y6102749D01*
Y6107747D01*
X-6384871Y6112745D01*
X-6389869Y6117744D01*
Y6122742D01*
X-6384871Y6112745D02*
X-6374874D01*
X-7120083Y8289607D02*
X-7125082Y8294605D01*
X-7135078D01*
X-7140077Y8289607D01*
Y8269614D01*
X-7135078Y8264615D01*
X-7125082D01*
X-7120083Y8269614D01*
X-7090093Y8264615D02*
X-7110086D01*
X-7090093Y8284609D01*
Y8289607D01*
X-7095091Y8294605D01*
X-7105088D01*
X-7110086Y8289607D01*
X-7080096Y8294605D02*
X-7060102D01*
Y8289607D01*
X-7080096Y8269614D01*
Y8264615D01*
X-7234383Y10321607D02*
X-7239382Y10326605D01*
X-7249378D01*
X-7254377Y10321607D01*
Y10301614D01*
X-7249378Y10296615D01*
X-7239382D01*
X-7234383Y10301614D01*
X-7204393Y10296615D02*
X-7224386D01*
X-7204393Y10316609D01*
Y10321607D01*
X-7209391Y10326605D01*
X-7219388D01*
X-7224386Y10321607D01*
X-7174402Y10326605D02*
X-7184399Y10321607D01*
X-7194396Y10311610D01*
Y10301614D01*
X-7189398Y10296615D01*
X-7179401D01*
X-7174402Y10301614D01*
Y10306612D01*
X-7179401Y10311610D01*
X-7194396D01*
X-4491183Y11832907D02*
X-4496182Y11837905D01*
X-4506178D01*
X-4511177Y11832907D01*
Y11812914D01*
X-4506178Y11807915D01*
X-4496182D01*
X-4491183Y11812914D01*
X-4461193Y11807915D02*
X-4481186D01*
X-4461193Y11827909D01*
Y11832907D01*
X-4466191Y11837905D01*
X-4476188D01*
X-4481186Y11832907D01*
X-4431202Y11837905D02*
X-4451196D01*
Y11822910D01*
X-4441199Y11827909D01*
X-4436201D01*
X-4431202Y11822910D01*
Y11812914D01*
X-4436201Y11807915D01*
X-4446198D01*
X-4451196Y11812914D01*
X-1214583Y10842307D02*
X-1219582Y10847305D01*
X-1229578D01*
X-1234577Y10842307D01*
Y10822314D01*
X-1229578Y10817315D01*
X-1219582D01*
X-1214583Y10822314D01*
X-1184593Y10817315D02*
X-1204586D01*
X-1184593Y10837309D01*
Y10842307D01*
X-1189591Y10847305D01*
X-1199588D01*
X-1204586Y10842307D01*
X-1159601Y10817315D02*
Y10847305D01*
X-1174596Y10832310D01*
X-1154602D01*
X1642917Y10842307D02*
X1637918Y10847305D01*
X1627922D01*
X1622923Y10842307D01*
Y10822314D01*
X1627922Y10817315D01*
X1637918D01*
X1642917Y10822314D01*
X1672907Y10817315D02*
X1652914D01*
X1672907Y10837309D01*
Y10842307D01*
X1667909Y10847305D01*
X1657912D01*
X1652914Y10842307D01*
X1682904D02*
X1687902Y10847305D01*
X1697899D01*
X1702898Y10842307D01*
Y10837309D01*
X1697899Y10832310D01*
X1692901D01*
X1697899D01*
X1702898Y10827312D01*
Y10822314D01*
X1697899Y10817315D01*
X1687902D01*
X1682904Y10822314D01*
X4640117Y12201207D02*
X4635118Y12206205D01*
X4625122D01*
X4620123Y12201207D01*
Y12181214D01*
X4625122Y12176215D01*
X4635118D01*
X4640117Y12181214D01*
X4670107Y12176215D02*
X4650114D01*
X4670107Y12196209D01*
Y12201207D01*
X4665109Y12206205D01*
X4655112D01*
X4650114Y12201207D01*
X4700098Y12176215D02*
X4680104D01*
X4700098Y12196209D01*
Y12201207D01*
X4695099Y12206205D01*
X4685102D01*
X4680104Y12201207D01*
X7185115Y10689907D02*
X7180117Y10694905D01*
X7170120D01*
X7165122Y10689907D01*
Y10669914D01*
X7170120Y10664915D01*
X7180117D01*
X7185115Y10669914D01*
X7215106Y10664915D02*
X7195112D01*
X7215106Y10684909D01*
Y10689907D01*
X7210107Y10694905D01*
X7200111D01*
X7195112Y10689907D01*
X7225102Y10664915D02*
X7235099D01*
X7230101D01*
Y10694905D01*
X7225102Y10689907D01*
X7497617Y8302307D02*
X7492618Y8307305D01*
X7482622D01*
X7477623Y8302307D01*
Y8282314D01*
X7482622Y8277315D01*
X7492618D01*
X7497617Y8282314D01*
X7527607Y8277315D02*
X7507614D01*
X7527607Y8297309D01*
Y8302307D01*
X7522609Y8307305D01*
X7512612D01*
X7507614Y8302307D01*
X7537604D02*
X7542602Y8307305D01*
X7552599D01*
X7557598Y8302307D01*
Y8282314D01*
X7552599Y8277315D01*
X7542602D01*
X7537604Y8282314D01*
Y8302307D01*
X7195316Y6105207D02*
X7190318Y6110205D01*
X7180321D01*
X7175322Y6105207D01*
Y6085214D01*
X7180321Y6080215D01*
X7190318D01*
X7195316Y6085214D01*
X7205313Y6080215D02*
X7215309D01*
X7210311D01*
Y6110205D01*
X7205313Y6105207D01*
X7230305Y6085214D02*
X7235303Y6080215D01*
X7245300D01*
X7250298Y6085214D01*
Y6105207D01*
X7245300Y6110205D01*
X7235303D01*
X7230305Y6105207D01*
Y6100209D01*
X7235303Y6095210D01*
X7250298D01*
X-1364484Y5838507D02*
X-1369482Y5843505D01*
X-1379479D01*
X-1384478Y5838507D01*
Y5818514D01*
X-1379479Y5813515D01*
X-1369482D01*
X-1364484Y5818514D01*
X-1354487Y5813515D02*
X-1344491D01*
X-1349489D01*
Y5843505D01*
X-1354487Y5838507D01*
X-1329495D02*
X-1324497Y5843505D01*
X-1314500D01*
X-1309502Y5838507D01*
Y5833509D01*
X-1314500Y5828510D01*
X-1309502Y5823512D01*
Y5818514D01*
X-1314500Y5813515D01*
X-1324497D01*
X-1329495Y5818514D01*
Y5823512D01*
X-1324497Y5828510D01*
X-1329495Y5833509D01*
Y5838507D01*
X-1324497Y5828510D02*
X-1314500D01*
X-564384Y5597207D02*
X-569382Y5602205D01*
X-579379D01*
X-584378Y5597207D01*
Y5577214D01*
X-579379Y5572215D01*
X-569382D01*
X-564384Y5577214D01*
X-554387Y5572215D02*
X-544391D01*
X-549389D01*
Y5602205D01*
X-554387Y5597207D01*
X-529395Y5602205D02*
X-509402D01*
Y5597207D01*
X-529395Y5577214D01*
Y5572215D01*
X-678684Y3768407D02*
X-683682Y3773405D01*
X-693679D01*
X-698678Y3768407D01*
Y3748414D01*
X-693679Y3743415D01*
X-683682D01*
X-678684Y3748414D01*
X-668687Y3743415D02*
X-658691D01*
X-663689D01*
Y3773405D01*
X-668687Y3768407D01*
X-623702Y3773405D02*
X-633699Y3768407D01*
X-643695Y3758410D01*
Y3748414D01*
X-638697Y3743415D01*
X-628700D01*
X-623702Y3748414D01*
Y3753412D01*
X-628700Y3758410D01*
X-643695D01*
X-1250184Y5584507D02*
X-1255182Y5589505D01*
X-1265179D01*
X-1270178Y5584507D01*
Y5564514D01*
X-1265179Y5559515D01*
X-1255182D01*
X-1250184Y5564514D01*
X-1240187Y5559515D02*
X-1230191D01*
X-1235189D01*
Y5589505D01*
X-1240187Y5584507D01*
X-1195202Y5589505D02*
X-1215195D01*
Y5574510D01*
X-1205199Y5579509D01*
X-1200200D01*
X-1195202Y5574510D01*
Y5564514D01*
X-1200200Y5559515D01*
X-1210197D01*
X-1215195Y5564514D01*
X-1593084Y5584507D02*
X-1598082Y5589505D01*
X-1608079D01*
X-1613078Y5584507D01*
Y5564514D01*
X-1608079Y5559515D01*
X-1598082D01*
X-1593084Y5564514D01*
X-1583087Y5559515D02*
X-1573091D01*
X-1578089D01*
Y5589505D01*
X-1583087Y5584507D01*
X-1543100Y5559515D02*
Y5589505D01*
X-1558095Y5574510D01*
X-1538102D01*
X-676756Y4751142D02*
X-681755Y4756141D01*
X-691751D01*
X-696750Y4751142D01*
Y4731149D01*
X-691751Y4726150D01*
X-681755D01*
X-676756Y4731149D01*
X-666759Y4726150D02*
X-656763D01*
X-661761D01*
Y4756141D01*
X-666759Y4751142D01*
X-641768Y4726150D02*
X-631771D01*
X-636769D01*
Y4756141D01*
X-641768Y4751142D01*
X-894583Y3997007D02*
X-899582Y4002005D01*
X-909579D01*
X-914577Y3997007D01*
Y3977014D01*
X-909579Y3972015D01*
X-899582D01*
X-894583Y3977014D01*
X-884587Y3972015D02*
X-874590D01*
X-879588D01*
Y4002005D01*
X-884587Y3997007D01*
X-859595D02*
X-854596Y4002005D01*
X-844600D01*
X-839601Y3997007D01*
Y3977014D01*
X-844600Y3972015D01*
X-854596D01*
X-859595Y3977014D01*
Y3997007D01*
X-602688Y5101907D02*
X-607686Y5106905D01*
X-617683D01*
X-622682Y5101907D01*
Y5081914D01*
X-617683Y5076915D01*
X-607686D01*
X-602688Y5081914D01*
X-592691D02*
X-587693Y5076915D01*
X-577696D01*
X-572698Y5081914D01*
Y5101907D01*
X-577696Y5106905D01*
X-587693D01*
X-592691Y5101907D01*
Y5096909D01*
X-587693Y5091910D01*
X-572698D01*
X-1033698Y4112097D02*
X-1038697Y4117095D01*
X-1048693D01*
X-1053692Y4112097D01*
Y4092103D01*
X-1048693Y4087105D01*
X-1038697D01*
X-1033698Y4092103D01*
X-1023702Y4112097D02*
X-1018703Y4117095D01*
X-1008706D01*
X-1003708Y4112097D01*
Y4107098D01*
X-1008706Y4102100D01*
X-1003708Y4097102D01*
Y4092103D01*
X-1008706Y4087105D01*
X-1018703D01*
X-1023702Y4092103D01*
Y4097102D01*
X-1018703Y4102100D01*
X-1023702Y4107098D01*
Y4112097D01*
X-1018703Y4102100D02*
X-1008706D01*
X-1034488Y5495607D02*
X-1039486Y5500605D01*
X-1049483D01*
X-1054482Y5495607D01*
Y5475614D01*
X-1049483Y5470615D01*
X-1039486D01*
X-1034488Y5475614D01*
X-1024491Y5500605D02*
X-1004498D01*
Y5495607D01*
X-1024491Y5475614D01*
Y5470615D01*
X-1744898Y4670897D02*
X-1749897Y4675895D01*
X-1759893D01*
X-1764892Y4670897D01*
Y4650903D01*
X-1759893Y4645905D01*
X-1749897D01*
X-1744898Y4650903D01*
X-1714908Y4675895D02*
X-1724905Y4670897D01*
X-1734902Y4660900D01*
Y4650903D01*
X-1729903Y4645905D01*
X-1719906D01*
X-1714908Y4650903D01*
Y4655902D01*
X-1719906Y4660900D01*
X-1734902D01*
X-1593288Y4847907D02*
X-1598286Y4852905D01*
X-1608283D01*
X-1613282Y4847907D01*
Y4827914D01*
X-1608283Y4822915D01*
X-1598286D01*
X-1593288Y4827914D01*
X-1563298Y4852905D02*
X-1583291D01*
Y4837910D01*
X-1573295Y4842909D01*
X-1568296D01*
X-1563298Y4837910D01*
Y4827914D01*
X-1568296Y4822915D01*
X-1578293D01*
X-1583291Y4827914D01*
X-1859198Y4378797D02*
X-1864197Y4383795D01*
X-1874193D01*
X-1879192Y4378797D01*
Y4358803D01*
X-1874193Y4353805D01*
X-1864197D01*
X-1859198Y4358803D01*
X-1834206Y4353805D02*
Y4383795D01*
X-1849202Y4368800D01*
X-1829208D01*
X-1567098Y4505797D02*
X-1572097Y4510795D01*
X-1582093D01*
X-1587092Y4505797D01*
Y4485803D01*
X-1582093Y4480805D01*
X-1572097D01*
X-1567098Y4485803D01*
X-1557102Y4505797D02*
X-1552103Y4510795D01*
X-1542106D01*
X-1537108Y4505797D01*
Y4500798D01*
X-1542106Y4495800D01*
X-1547105D01*
X-1542106D01*
X-1537108Y4490802D01*
Y4485803D01*
X-1542106Y4480805D01*
X-1552103D01*
X-1557102Y4485803D01*
X-3624498Y5496397D02*
X-3629497Y5501395D01*
X-3639493D01*
X-3644492Y5496397D01*
Y5476403D01*
X-3639493Y5471405D01*
X-3629497D01*
X-3624498Y5476403D01*
X-3594508Y5471405D02*
X-3614502D01*
X-3594508Y5491398D01*
Y5496397D01*
X-3599506Y5501395D01*
X-3609503D01*
X-3614502Y5496397D01*
X-4280689Y5190807D02*
X-4285688Y5195805D01*
X-4295685D01*
X-4300683Y5190807D01*
Y5170814D01*
X-4295685Y5165815D01*
X-4285688D01*
X-4280689Y5170814D01*
X-4270693Y5165815D02*
X-4260696D01*
X-4265694D01*
Y5195805D01*
X-4270693Y5190807D01*
X4368011Y5305107D02*
X4363012Y5310105D01*
X4353015D01*
X4348017Y5305107D01*
Y5300109D01*
X4353015Y5295110D01*
X4363012D01*
X4368011Y5290112D01*
Y5285114D01*
X4363012Y5280115D01*
X4353015D01*
X4348017Y5285114D01*
X4378007Y5280115D02*
X4388004D01*
X4383006D01*
Y5310105D01*
X4378007Y5305107D01*
D57*
X529910Y5260267D02*
X618548D01*
X574229D01*
Y5127310D01*
X729346Y5260267D02*
X685027D01*
X662867Y5238108D01*
Y5149470D01*
X685027Y5127310D01*
X729346D01*
X751505Y5149470D01*
Y5238108D01*
X729346Y5260267D01*
X795824D02*
Y5149470D01*
X817984Y5127310D01*
X862303D01*
X884462Y5149470D01*
Y5260267D01*
X1017419Y5238108D02*
X995260Y5260267D01*
X950941D01*
X928781Y5238108D01*
Y5149470D01*
X950941Y5127310D01*
X995260D01*
X1017419Y5149470D01*
X1061739Y5260267D02*
Y5127310D01*
Y5193789D01*
X1150376D01*
Y5260267D01*
Y5127310D01*
X1327653D02*
Y5260267D01*
X1371972Y5215948D01*
X1416291Y5260267D01*
Y5127310D01*
X1549248Y5260267D02*
X1460610D01*
Y5127310D01*
X1549248D01*
X1460610Y5193789D02*
X1504929D01*
X1593567Y5171629D02*
Y5282427D01*
Y5149470D02*
Y5127310D01*
X593410Y4510967D02*
Y4378010D01*
Y4444489D01*
X682048D01*
Y4510967D01*
Y4378010D01*
X815005Y4510967D02*
X726367D01*
Y4378010D01*
X815005D01*
X726367Y4444489D02*
X770686D01*
X859324Y4378010D02*
Y4510967D01*
X925803D01*
X947962Y4488808D01*
Y4444489D01*
X925803Y4422329D01*
X859324D01*
X903643D02*
X947962Y4378010D01*
X1080919Y4510967D02*
X992281D01*
Y4378010D01*
X1080919D01*
X992281Y4444489D02*
X1036600D01*
%TF.MD5,453c6bd580824d3d24847ac698f46fab*%
M02*
