%TF.GenerationSoftware,Altium Limited,Altium Designer,24.6.1 (21)*%
G04 Layer_Color=2752767*
%FSLAX45Y45*%
%MOMM*%
%TF.SameCoordinates,D6E34864-ACFE-43FA-A01B-F9739AC3D18D*%
%TF.FilePolarity,Positive*%
%TF.FileFunction,Drawing*%
%TF.Part,Single*%
G01*
G75*
%TA.AperFunction,NonConductor*%
%ADD54C,0.12700*%
D54*
X964410Y3221106D02*
Y3195706D01*
X1015210D01*
Y3221106D01*
X1040610D01*
Y3271906D01*
X1015210D01*
Y3297306D01*
X964410D01*
Y3271906D01*
X939010D01*
Y3221106D01*
X964410D01*
X-2007390Y4812510D02*
Y4787110D01*
X-1956590D01*
Y4812510D01*
X-1931190D01*
Y4863310D01*
X-1956590D01*
Y4888710D01*
X-2007390D01*
Y4863310D01*
X-2032790D01*
Y4812510D01*
X-2007390D01*
X-2070100Y5638800D02*
Y5613400D01*
X-2019300D01*
Y5638800D01*
X-1993900D01*
Y5689600D01*
X-2019300D01*
Y5715000D01*
X-2070100D01*
Y5689600D01*
X-2095500D01*
Y5638800D01*
X-2070100D01*
X-1684289Y4799779D02*
Y4774379D01*
X-1633489D01*
Y4799779D01*
X-1608089D01*
Y4850579D01*
X-1633489D01*
Y4875979D01*
X-1684289D01*
Y4850579D01*
X-1709689D01*
Y4799779D01*
X-1684289D01*
X-895129Y3957968D02*
Y3932568D01*
X-844329D01*
Y3957968D01*
X-818929D01*
Y4008768D01*
X-844329D01*
Y4034168D01*
X-895129D01*
Y4008768D01*
X-920529D01*
Y3957968D01*
X-895129D01*
X-7785100Y10883900D02*
Y10858500D01*
X-7734300D01*
Y10883900D01*
X-7708900D01*
Y10934700D01*
X-7734300D01*
Y10960100D01*
X-7785100D01*
Y10934700D01*
X-7810500D01*
Y10883900D01*
X-7785100D01*
X-4360004Y4953000D02*
Y4927600D01*
X-4309204D01*
Y4953000D01*
X-4283804D01*
Y5003800D01*
X-4309204D01*
Y5029200D01*
X-4360004D01*
Y5003800D01*
X-4385404D01*
Y4953000D01*
X-4360004D01*
X-1587500Y4368800D02*
Y4343400D01*
X-1536700D01*
Y4368800D01*
X-1511300D01*
Y4419600D01*
X-1536700D01*
Y4445000D01*
X-1587500D01*
Y4419600D01*
X-1612900D01*
Y4368800D01*
X-1587500D01*
X-673100Y5664200D02*
Y5638800D01*
X-622300D01*
Y5664200D01*
X-596900D01*
Y5715000D01*
X-622300D01*
Y5740400D01*
X-673100D01*
Y5715000D01*
X-698500D01*
Y5664200D01*
X-673100D01*
X-3429790Y5222814D02*
Y5197414D01*
X-3378990D01*
Y5222814D01*
X-3353590D01*
Y5273614D01*
X-3378990D01*
Y5299014D01*
X-3429790D01*
Y5273614D01*
X-3455190D01*
Y5222814D01*
X-3429790D01*
X-1593400Y4267200D02*
Y4241800D01*
X-1542600D01*
Y4267200D01*
X-1517200D01*
Y4318000D01*
X-1542600D01*
Y4343400D01*
X-1593400D01*
Y4318000D01*
X-1618800D01*
Y4267200D01*
X-1593400D01*
X-5347490Y4088610D02*
Y4063210D01*
X-5296690D01*
Y4088610D01*
X-5271290D01*
Y4139410D01*
X-5296690D01*
Y4164810D01*
X-5347490D01*
Y4139410D01*
X-5372890D01*
Y4088610D01*
X-5347490D01*
X3479010Y3844010D02*
Y3818610D01*
X3529810D01*
Y3844010D01*
X3555210D01*
Y3894810D01*
X3529810D01*
Y3920210D01*
X3479010D01*
Y3894810D01*
X3453610D01*
Y3844010D01*
X3479010D01*
X3593310Y4101310D02*
Y4075910D01*
X3644110D01*
Y4101310D01*
X3669510D01*
Y4152110D01*
X3644110D01*
Y4177510D01*
X3593310D01*
Y4152110D01*
X3567910D01*
Y4101310D01*
X3593310D01*
X3910810Y4622010D02*
Y4596610D01*
X3961610D01*
Y4622010D01*
X3987010D01*
Y4672810D01*
X3961610D01*
Y4698210D01*
X3910810D01*
Y4672810D01*
X3885410D01*
Y4622010D01*
X3910810D01*
X5390656Y3529810D02*
Y3504410D01*
X5441456D01*
Y3529810D01*
X5466856D01*
Y3580610D01*
X5441456D01*
Y3606010D01*
X5390656D01*
Y3580610D01*
X5365256D01*
Y3529810D01*
X5390656D01*
X710410Y4964910D02*
Y4939510D01*
X761210D01*
Y4964910D01*
X786610D01*
Y5015710D01*
X761210D01*
Y5041110D01*
X710410D01*
Y5015710D01*
X685010D01*
Y4964910D01*
X710410D01*
X-1359690Y5599910D02*
Y5574510D01*
X-1308890D01*
Y5599910D01*
X-1283490D01*
Y5650710D01*
X-1308890D01*
Y5676110D01*
X-1359690D01*
Y5650710D01*
X-1385090D01*
Y5599910D01*
X-1359690D01*
X-864390Y5460210D02*
Y5434810D01*
X-813590D01*
Y5460210D01*
X-788190D01*
Y5511010D01*
X-813590D01*
Y5536410D01*
X-864390D01*
Y5511010D01*
X-889790D01*
Y5460210D01*
X-864390D01*
X-407190Y5003010D02*
Y4977610D01*
X-356390D01*
Y5003010D01*
X-330990D01*
Y5053810D01*
X-356390D01*
Y5079210D01*
X-407190D01*
Y5053810D01*
X-432590D01*
Y5003010D01*
X-407190D01*
X-4648990Y11886410D02*
Y11861010D01*
X-4598190D01*
Y11886410D01*
X-4572790D01*
Y11937210D01*
X-4598190D01*
Y11962610D01*
X-4648990D01*
Y11937210D01*
X-4674390D01*
Y11886410D01*
X-4648990D01*
X-3556000Y5372100D02*
Y5346700D01*
X-3505200D01*
Y5372100D01*
X-3479800D01*
Y5422900D01*
X-3505200D01*
Y5448300D01*
X-3556000D01*
Y5422900D01*
X-3581400D01*
Y5372100D01*
X-3556000D01*
X-5169690Y5130010D02*
Y5104610D01*
X-5118890D01*
Y5130010D01*
X-5093490D01*
Y5180810D01*
X-5118890D01*
Y5206210D01*
X-5169690D01*
Y5180810D01*
X-5195090D01*
Y5130010D01*
X-5169690D01*
X-5512590Y4672810D02*
Y4647410D01*
X-5461790D01*
Y4672810D01*
X-5436390D01*
Y4723610D01*
X-5461790D01*
Y4749010D01*
X-5512590D01*
Y4723610D01*
X-5537990D01*
Y4672810D01*
X-5512590D01*
Y3745710D02*
Y3720310D01*
X-5461790D01*
Y3745710D01*
X-5436390D01*
Y3796510D01*
X-5461790D01*
Y3821910D01*
X-5512590D01*
Y3796510D01*
X-5537990D01*
Y3745710D01*
X-5512590D01*
X-6426990Y5765010D02*
Y5739610D01*
X-6376190D01*
Y5765010D01*
X-6350790D01*
Y5815810D01*
X-6376190D01*
Y5841210D01*
X-6426990D01*
Y5815810D01*
X-6452390D01*
Y5765010D01*
X-6426990D01*
X-7201690Y6285710D02*
Y6260310D01*
X-7150890D01*
Y6285710D01*
X-7125490D01*
Y6336510D01*
X-7150890D01*
Y6361910D01*
X-7201690D01*
Y6336510D01*
X-7227090D01*
Y6285710D01*
X-7201690D01*
X-7125490Y7974810D02*
Y7949410D01*
X-7074690D01*
Y7974810D01*
X-7049290D01*
Y8025610D01*
X-7074690D01*
Y8051010D01*
X-7125490D01*
Y8025610D01*
X-7150890D01*
Y7974810D01*
X-7125490D01*
X-7912890Y8470110D02*
Y8444710D01*
X-7862090D01*
Y8470110D01*
X-7836690D01*
Y8520910D01*
X-7862090D01*
Y8546310D01*
X-7912890D01*
Y8520910D01*
X-7938290D01*
Y8470110D01*
X-7912890D01*
X-7315990Y10375110D02*
Y10349710D01*
X-7265190D01*
Y10375110D01*
X-7239790D01*
Y10425910D01*
X-7265190D01*
Y10451310D01*
X-7315990D01*
Y10425910D01*
X-7341390D01*
Y10375110D01*
X-7315990D01*
X-5099544Y12381710D02*
Y12356310D01*
X-5048744D01*
Y12381710D01*
X-5023344D01*
Y12432510D01*
X-5048744D01*
Y12457910D01*
X-5099544D01*
Y12432510D01*
X-5124944D01*
Y12381710D01*
X-5099544D01*
X850210Y11048110D02*
Y11022710D01*
X901010D01*
Y11048110D01*
X926410D01*
Y11098910D01*
X901010D01*
Y11124310D01*
X850210D01*
Y11098910D01*
X824810D01*
Y11048110D01*
X850210D01*
X1618756Y10533599D02*
Y10508199D01*
X1669556D01*
Y10533599D01*
X1694956D01*
Y10584399D01*
X1669556D01*
Y10609799D01*
X1618756D01*
Y10584399D01*
X1593356D01*
Y10533599D01*
X1618756D01*
X3872910Y12381510D02*
Y12356110D01*
X3923710D01*
Y12381510D01*
X3949110D01*
Y12432310D01*
X3923710D01*
Y12457710D01*
X3872910D01*
Y12432310D01*
X3847510D01*
Y12381510D01*
X3872910D01*
X4761710Y11949910D02*
Y11924510D01*
X4812510D01*
Y11949910D01*
X4837910D01*
Y12000710D01*
X4812510D01*
Y12026110D01*
X4761710D01*
Y12000710D01*
X4736310D01*
Y11949910D01*
X4761710D01*
X6374610Y10883110D02*
Y10857710D01*
X6425410D01*
Y10883110D01*
X6450810D01*
Y10933910D01*
X6425410D01*
Y10959310D01*
X6374610D01*
Y10933910D01*
X6349210D01*
Y10883110D01*
X6374610D01*
X7168656Y10375110D02*
Y10349710D01*
X7219456D01*
Y10375110D01*
X7244856D01*
Y10425910D01*
X7219456D01*
Y10451310D01*
X7168656D01*
Y10425910D01*
X7143256D01*
Y10375110D01*
X7168656D01*
X6692110Y8482810D02*
Y8457410D01*
X6742910D01*
Y8482810D01*
X6768310D01*
Y8533610D01*
X6742910D01*
Y8559010D01*
X6692110D01*
Y8533610D01*
X6666710D01*
Y8482810D01*
X6692110D01*
X7492210Y7974810D02*
Y7949410D01*
X7543010D01*
Y7974810D01*
X7568410D01*
Y8025610D01*
X7543010D01*
Y8051010D01*
X7492210D01*
Y8025610D01*
X7466810D01*
Y7974810D01*
X7492210D01*
X6400010Y6285710D02*
Y6260310D01*
X6450810D01*
Y6285710D01*
X6476210D01*
Y6336510D01*
X6450810D01*
Y6361910D01*
X6400010D01*
Y6336510D01*
X6374610D01*
Y6285710D01*
X6400010D01*
X7200110Y5777710D02*
Y5752310D01*
X7250910D01*
Y5777710D01*
X7276310D01*
Y5828510D01*
X7250910D01*
Y5853910D01*
X7200110D01*
Y5828510D01*
X7174710D01*
Y5777710D01*
X7200110D01*
X3567910Y3593310D02*
Y3567910D01*
X3618710D01*
Y3593310D01*
X3644110D01*
Y3644110D01*
X3618710D01*
Y3669510D01*
X3567910D01*
Y3644110D01*
X3542510D01*
Y3593310D01*
X3567910D01*
X831356Y6463510D02*
Y6438110D01*
X882156D01*
Y6463510D01*
X907556D01*
Y6514310D01*
X882156D01*
Y6539710D01*
X831356D01*
Y6514310D01*
X805956D01*
Y6463510D01*
X831356D01*
Y9651210D02*
Y9625810D01*
X882156D01*
Y9651210D01*
X907556D01*
Y9702010D01*
X882156D01*
Y9727410D01*
X831356D01*
Y9702010D01*
X805956D01*
Y9651210D01*
X831356D01*
X-1232690Y10527510D02*
Y10502110D01*
X-1181890D01*
Y10527510D01*
X-1156490D01*
Y10578310D01*
X-1181890D01*
Y10603710D01*
X-1232690D01*
Y10578310D01*
X-1258090D01*
Y10527510D01*
X-1232690D01*
X-2038844Y11035510D02*
Y11010110D01*
X-1988044D01*
Y11035510D01*
X-1962644D01*
Y11086310D01*
X-1988044D01*
Y11111710D01*
X-2038844D01*
Y11086310D01*
X-2064244D01*
Y11035510D01*
X-2038844D01*
X-2642390Y10248110D02*
Y10222710D01*
X-2591590D01*
Y10248110D01*
X-2566190D01*
Y10298910D01*
X-2591590D01*
Y10324310D01*
X-2642390D01*
Y10298910D01*
X-2667790D01*
Y10248110D01*
X-2642390D01*
X-2800844Y9943310D02*
Y9917910D01*
X-2750044D01*
Y9943310D01*
X-2724644D01*
Y9994110D01*
X-2750044D01*
Y10019510D01*
X-2800844D01*
Y9994110D01*
X-2826244D01*
Y9943310D01*
X-2800844D01*
X-3290090Y9740110D02*
Y9714710D01*
X-3239290D01*
Y9740110D01*
X-3213890D01*
Y9790910D01*
X-3239290D01*
Y9816310D01*
X-3290090D01*
Y9790910D01*
X-3315490D01*
Y9740110D01*
X-3290090D01*
X-3315490Y6323810D02*
Y6298410D01*
X-3264690D01*
Y6323810D01*
X-3239290D01*
Y6374610D01*
X-3264690D01*
Y6400010D01*
X-3315490D01*
Y6374610D01*
X-3340890D01*
Y6323810D01*
X-3315490D01*
X1066010Y4622010D02*
Y4596610D01*
X1116810D01*
Y4622010D01*
X1142210D01*
Y4672810D01*
X1116810D01*
Y4698210D01*
X1066010D01*
Y4672810D01*
X1040610D01*
Y4622010D01*
X1066010D01*
X2501110Y3796510D02*
Y3771110D01*
X2551910D01*
Y3796510D01*
X2577310D01*
Y3847310D01*
X2551910D01*
Y3872710D01*
X2501110D01*
Y3847310D01*
X2475710D01*
Y3796510D01*
X2501110D01*
Y4063210D02*
Y4037810D01*
X2551910D01*
Y4063210D01*
X2577310D01*
Y4114010D01*
X2551910D01*
Y4139410D01*
X2501110D01*
Y4114010D01*
X2475710D01*
Y4063210D01*
X2501110D01*
X-1232690Y5447510D02*
Y5422110D01*
X-1181890D01*
Y5447510D01*
X-1156490D01*
Y5498310D01*
X-1181890D01*
Y5523710D01*
X-1232690D01*
Y5498310D01*
X-1258090D01*
Y5447510D01*
X-1232690D01*
X-921244Y5587210D02*
Y5561810D01*
X-870444D01*
Y5587210D01*
X-845044D01*
Y5638010D01*
X-870444D01*
Y5663410D01*
X-921244D01*
Y5638010D01*
X-946644D01*
Y5587210D01*
X-921244D01*
X-686590Y3466310D02*
Y3440910D01*
X-635790D01*
Y3466310D01*
X-610390D01*
Y3517110D01*
X-635790D01*
Y3542510D01*
X-686590D01*
Y3517110D01*
X-711990D01*
Y3466310D01*
X-686590D01*
X-1051433Y3830968D02*
Y3805568D01*
X-1000633D01*
Y3830968D01*
X-975233D01*
Y3881768D01*
X-1000633D01*
Y3907168D01*
X-1051433D01*
Y3881768D01*
X-1076833D01*
Y3830968D01*
X-1051433D01*
X-1672211Y4270205D02*
Y4244805D01*
X-1621411D01*
Y4270205D01*
X-1596011D01*
Y4321005D01*
X-1621411D01*
Y4346405D01*
X-1672211D01*
Y4321005D01*
X-1697611D01*
Y4270205D01*
X-1672211D01*
X-1790700Y4279900D02*
Y4254500D01*
X-1739900D01*
Y4279900D01*
X-1714500D01*
Y4330700D01*
X-1739900D01*
Y4356100D01*
X-1790700D01*
Y4330700D01*
X-1816100D01*
Y4279900D01*
X-1790700D01*
X-1926211Y4549605D02*
Y4524205D01*
X-1875411D01*
Y4549605D01*
X-1850011D01*
Y4600405D01*
X-1875411D01*
Y4625805D01*
X-1926211D01*
Y4600405D01*
X-1951611D01*
Y4549605D01*
X-1926211D01*
X-1791490Y4952210D02*
Y4926810D01*
X-1740690D01*
Y4952210D01*
X-1715290D01*
Y5003010D01*
X-1740690D01*
Y5028410D01*
X-1791490D01*
Y5003010D01*
X-1816890D01*
Y4952210D01*
X-1791490D01*
X1193010Y4622010D02*
Y4596610D01*
X1243810D01*
Y4622010D01*
X1269210D01*
Y4672810D01*
X1243810D01*
Y4698210D01*
X1193010D01*
Y4672810D01*
X1167610D01*
Y4622010D01*
X1193010D01*
X456410Y5053810D02*
Y5028410D01*
X507210D01*
Y5053810D01*
X532610D01*
Y5104610D01*
X507210D01*
Y5130010D01*
X456410D01*
Y5104610D01*
X431010D01*
Y5053810D01*
X456410D01*
X342110D02*
Y5028410D01*
X392910D01*
Y5053810D01*
X418310D01*
Y5104610D01*
X392910D01*
Y5130010D01*
X342110D01*
Y5104610D01*
X316710D01*
Y5053810D01*
X342110D01*
X-483390Y4583910D02*
Y4558510D01*
X-432590D01*
Y4583910D01*
X-407190D01*
Y4634710D01*
X-432590D01*
Y4660110D01*
X-483390D01*
Y4634710D01*
X-508790D01*
Y4583910D01*
X-483390D01*
X-1296190Y5816865D02*
Y5791465D01*
X-1245390D01*
Y5816865D01*
X-1219990D01*
Y5867665D01*
X-1245390D01*
Y5893065D01*
X-1296190D01*
Y5867665D01*
X-1321590D01*
Y5816865D01*
X-1296190D01*
X-1486690Y5599910D02*
Y5574510D01*
X-1435890D01*
Y5599910D01*
X-1410490D01*
Y5650710D01*
X-1435890D01*
Y5676110D01*
X-1486690D01*
Y5650710D01*
X-1512090D01*
Y5599910D01*
X-1486690D01*
X-1080290Y6006310D02*
Y5980910D01*
X-1029490D01*
Y6006310D01*
X-1004090D01*
Y6057110D01*
X-1029490D01*
Y6082510D01*
X-1080290D01*
Y6057110D01*
X-1105690D01*
Y6006310D01*
X-1080290D01*
%TF.MD5,256a1ba57881e508e767816de698f7ae*%
M02*
