%TF.GenerationSoftware,Altium Limited,Altium Designer,24.6.1 (21)*%
G04 Layer_Color=2752767*
%FSLAX45Y45*%
%MOMM*%
%TF.SameCoordinates,D6E34864-ACFE-43FA-A01B-F9739AC3D18D*%
%TF.FilePolarity,Positive*%
%TF.FileFunction,Drawing*%
%TF.Part,Single*%
G01*
G75*
%TA.AperFunction,NonConductor*%
%ADD54C,0.12700*%
D54*
X-1739225Y4739348D02*
Y4713948D01*
X-1688425D01*
Y4739348D01*
X-1663025D01*
Y4790148D01*
X-1688425D01*
Y4815548D01*
X-1739225D01*
Y4790148D01*
X-1764625D01*
Y4739348D01*
X-1739225D01*
X-1881500Y4643457D02*
Y4618057D01*
X-1830700D01*
Y4643457D01*
X-1805300D01*
Y4694257D01*
X-1830700D01*
Y4719657D01*
X-1881500D01*
Y4694257D01*
X-1906900D01*
Y4643457D01*
X-1881500D01*
X-457200Y4889500D02*
Y4864100D01*
X-406400D01*
Y4889500D01*
X-381000D01*
Y4940300D01*
X-406400D01*
Y4965700D01*
X-457200D01*
Y4940300D01*
X-482600D01*
Y4889500D01*
X-457200D01*
X-828190Y3639367D02*
Y3613967D01*
X-777390D01*
Y3639367D01*
X-751990D01*
Y3690167D01*
X-777390D01*
Y3715567D01*
X-828190D01*
Y3690167D01*
X-853590D01*
Y3639367D01*
X-828190D01*
X368300Y3860800D02*
Y3835400D01*
X419100D01*
Y3860800D01*
X444500D01*
Y3911600D01*
X419100D01*
Y3937000D01*
X368300D01*
Y3911600D01*
X342900D01*
Y3860800D01*
X368300D01*
X-864049Y4097121D02*
Y4071721D01*
X-813249D01*
Y4097121D01*
X-787849D01*
Y4147921D01*
X-813249D01*
Y4173321D01*
X-864049D01*
Y4147921D01*
X-889449D01*
Y4097121D01*
X-864049D01*
X-1181100Y3934050D02*
Y3908650D01*
X-1130300D01*
Y3934050D01*
X-1104900D01*
Y3984850D01*
X-1130300D01*
Y4010250D01*
X-1181100D01*
Y3984850D01*
X-1206500D01*
Y3934050D01*
X-1181100D01*
X1129510Y5638010D02*
Y5612610D01*
X1180310D01*
Y5638010D01*
X1205710D01*
Y5688810D01*
X1180310D01*
Y5714210D01*
X1129510D01*
Y5688810D01*
X1104110D01*
Y5638010D01*
X1129510D01*
X-1241714Y5358610D02*
Y5333210D01*
X-1190914D01*
Y5358610D01*
X-1165514D01*
Y5409410D01*
X-1190914D01*
Y5434810D01*
X-1241714D01*
Y5409410D01*
X-1267114D01*
Y5358610D01*
X-1241714D01*
X-3404390Y5561810D02*
Y5536410D01*
X-3353590D01*
Y5561810D01*
X-3328190D01*
Y5612610D01*
X-3353590D01*
Y5638010D01*
X-3404390D01*
Y5612610D01*
X-3429790D01*
Y5561810D01*
X-3404390D01*
X240510Y4863310D02*
Y4837910D01*
X291310D01*
Y4863310D01*
X316710D01*
Y4914110D01*
X291310D01*
Y4939510D01*
X240510D01*
Y4914110D01*
X215110D01*
Y4863310D01*
X240510D01*
X-664140Y4497961D02*
Y4472561D01*
X-613340D01*
Y4497961D01*
X-587940D01*
Y4548761D01*
X-613340D01*
Y4574161D01*
X-664140D01*
Y4548761D01*
X-689540D01*
Y4497961D01*
X-664140D01*
X-1905000Y4419600D02*
Y4394200D01*
X-1854200D01*
Y4419600D01*
X-1828800D01*
Y4470400D01*
X-1854200D01*
Y4495800D01*
X-1905000D01*
Y4470400D01*
X-1930400D01*
Y4419600D01*
X-1905000D01*
X-1613690Y4863310D02*
Y4837910D01*
X-1562890D01*
Y4863310D01*
X-1537490D01*
Y4914110D01*
X-1562890D01*
Y4939510D01*
X-1613690D01*
Y4914110D01*
X-1639090D01*
Y4863310D01*
X-1613690D01*
X1459710Y4876010D02*
Y4850610D01*
X1510510D01*
Y4876010D01*
X1535910D01*
Y4926810D01*
X1510510D01*
Y4952210D01*
X1459710D01*
Y4926810D01*
X1434310D01*
Y4876010D01*
X1459710D01*
X-3784600Y5499100D02*
Y5473700D01*
X-3733800D01*
Y5499100D01*
X-3708400D01*
Y5549900D01*
X-3733800D01*
Y5575300D01*
X-3784600D01*
Y5549900D01*
X-3810000D01*
Y5499100D01*
X-3784600D01*
%TF.MD5,fd0b59455c4cdf9a682a15a2c529b9f9*%
M02*
