%TF.GenerationSoftware,Altium Limited,Altium Designer,24.6.1 (21)*%
G04 Layer_Color=128*
%FSLAX45Y45*%
%MOMM*%
%TF.SameCoordinates,D6E34864-ACFE-43FA-A01B-F9739AC3D18D*%
%TF.FilePolarity,Positive*%
%TF.FileFunction,Drillmap*%
%TF.Part,Single*%
G01*
G75*
%TA.AperFunction,NonConductor*%
%ADD54C,0.12700*%
D54*
X974810Y3246506D02*
X1004810D01*
X989810Y3231506D02*
Y3261506D01*
X-1996990Y4837910D02*
X-1966990D01*
X-1981990Y4822910D02*
Y4852910D01*
X-2059700Y5664200D02*
X-2029700D01*
X-2044700Y5649200D02*
Y5679200D01*
X-1673889Y4825179D02*
X-1643889D01*
X-1658889Y4810179D02*
Y4840179D01*
X-884729Y3983368D02*
X-854729D01*
X-869729Y3968368D02*
Y3998368D01*
X-7774700Y10909300D02*
X-7744700D01*
X-7759700Y10894300D02*
Y10924300D01*
X-4349604Y4978400D02*
X-4319604D01*
X-4334604Y4963400D02*
Y4993400D01*
X-1577100Y4394200D02*
X-1547100D01*
X-1562100Y4379200D02*
Y4409200D01*
X-662700Y5689600D02*
X-632700D01*
X-647700Y5674600D02*
Y5704600D01*
X-3419390Y5248214D02*
X-3389390D01*
X-3404390Y5233214D02*
Y5263214D01*
X-1583000Y4292600D02*
X-1553000D01*
X-1568000Y4277600D02*
Y4307600D01*
X-5337090Y4114010D02*
X-5307090D01*
X-5322090Y4099010D02*
Y4129010D01*
X3489410Y3869410D02*
X3519410D01*
X3504410Y3854410D02*
Y3884410D01*
X3603710Y4126710D02*
X3633710D01*
X3618710Y4111710D02*
Y4141710D01*
X3921210Y4647410D02*
X3951210D01*
X3936210Y4632410D02*
Y4662410D01*
X5401056Y3555210D02*
X5431056D01*
X5416056Y3540210D02*
Y3570210D01*
X720810Y4990310D02*
X750810D01*
X735810Y4975310D02*
Y5005310D01*
X-1349290Y5625310D02*
X-1319290D01*
X-1334290Y5610310D02*
Y5640310D01*
X-853990Y5485610D02*
X-823990D01*
X-838990Y5470610D02*
Y5500610D01*
X-396790Y5028410D02*
X-366790D01*
X-381790Y5013410D02*
Y5043410D01*
X-4638590Y11911810D02*
X-4608590D01*
X-4623590Y11896810D02*
Y11926810D01*
X-3545600Y5397500D02*
X-3515600D01*
X-3530600Y5382500D02*
Y5412500D01*
X-5159290Y5155410D02*
X-5129290D01*
X-5144290Y5140410D02*
Y5170410D01*
X-5502190Y4698210D02*
X-5472190D01*
X-5487190Y4683210D02*
Y4713210D01*
X-5502190Y3771110D02*
X-5472190D01*
X-5487190Y3756110D02*
Y3786110D01*
X-6416590Y5790410D02*
X-6386590D01*
X-6401590Y5775410D02*
Y5805410D01*
X-7191290Y6311110D02*
X-7161290D01*
X-7176290Y6296110D02*
Y6326110D01*
X-7115090Y8000210D02*
X-7085090D01*
X-7100090Y7985210D02*
Y8015210D01*
X-7902490Y8495510D02*
X-7872490D01*
X-7887490Y8480510D02*
Y8510510D01*
X-7305590Y10400510D02*
X-7275590D01*
X-7290590Y10385510D02*
Y10415510D01*
X-5089144Y12407110D02*
X-5059144D01*
X-5074144Y12392110D02*
Y12422110D01*
X860610Y11073510D02*
X890610D01*
X875610Y11058510D02*
Y11088510D01*
X1629156Y10558999D02*
X1659156D01*
X1644156Y10543999D02*
Y10573999D01*
X3883310Y12406910D02*
X3913310D01*
X3898310Y12391910D02*
Y12421910D01*
X4772110Y11975310D02*
X4802110D01*
X4787110Y11960310D02*
Y11990310D01*
X6385010Y10908510D02*
X6415010D01*
X6400010Y10893510D02*
Y10923510D01*
X7179056Y10400510D02*
X7209056D01*
X7194056Y10385510D02*
Y10415510D01*
X6702510Y8508210D02*
X6732510D01*
X6717510Y8493210D02*
Y8523210D01*
X7502610Y8000210D02*
X7532610D01*
X7517610Y7985210D02*
Y8015210D01*
X6410410Y6311110D02*
X6440410D01*
X6425410Y6296110D02*
Y6326110D01*
X7210510Y5803110D02*
X7240510D01*
X7225510Y5788110D02*
Y5818110D01*
X3578310Y3618710D02*
X3608310D01*
X3593310Y3603710D02*
Y3633710D01*
X841756Y6488910D02*
X871756D01*
X856756Y6473910D02*
Y6503910D01*
X841756Y9676610D02*
X871756D01*
X856756Y9661610D02*
Y9691610D01*
X-1222290Y10552910D02*
X-1192290D01*
X-1207290Y10537910D02*
Y10567910D01*
X-2028444Y11060910D02*
X-1998444D01*
X-2013444Y11045910D02*
Y11075910D01*
X-2631990Y10273510D02*
X-2601990D01*
X-2616990Y10258510D02*
Y10288510D01*
X-2790444Y9968710D02*
X-2760444D01*
X-2775444Y9953710D02*
Y9983710D01*
X-3279690Y9765510D02*
X-3249690D01*
X-3264690Y9750510D02*
Y9780510D01*
X-3305090Y6349210D02*
X-3275090D01*
X-3290090Y6334210D02*
Y6364210D01*
X1076410Y4647410D02*
X1106410D01*
X1091410Y4632410D02*
Y4662410D01*
X2511510Y3821910D02*
X2541510D01*
X2526510Y3806910D02*
Y3836910D01*
X2511510Y4088610D02*
X2541510D01*
X2526510Y4073610D02*
Y4103610D01*
X-1222290Y5472910D02*
X-1192290D01*
X-1207290Y5457910D02*
Y5487910D01*
X-910844Y5612610D02*
X-880844D01*
X-895844Y5597610D02*
Y5627610D01*
X-676190Y3491710D02*
X-646190D01*
X-661190Y3476710D02*
Y3506710D01*
X-1041033Y3856368D02*
X-1011033D01*
X-1026033Y3841368D02*
Y3871368D01*
X-1661811Y4295605D02*
X-1631811D01*
X-1646811Y4280605D02*
Y4310605D01*
X-1780300Y4305300D02*
X-1750300D01*
X-1765300Y4290300D02*
Y4320300D01*
X-1915811Y4575005D02*
X-1885811D01*
X-1900811Y4560005D02*
Y4590005D01*
X-1781090Y4977610D02*
X-1751090D01*
X-1766090Y4962610D02*
Y4992610D01*
X1203410Y4647410D02*
X1233410D01*
X1218410Y4632410D02*
Y4662410D01*
X466810Y5079210D02*
X496810D01*
X481810Y5064210D02*
Y5094210D01*
X352510Y5079210D02*
X382510D01*
X367510Y5064210D02*
Y5094210D01*
X-472990Y4609310D02*
X-442990D01*
X-457990Y4594310D02*
Y4624310D01*
X-1285790Y5842265D02*
X-1255790D01*
X-1270790Y5827265D02*
Y5857265D01*
X-1476290Y5625310D02*
X-1446290D01*
X-1461290Y5610310D02*
Y5640310D01*
X-1069890Y6031710D02*
X-1039890D01*
X-1054890Y6016710D02*
Y6046710D01*
%TF.MD5,84ee0bef18dc39f6966574f3b9e6fa74*%
M02*
