%TF.GenerationSoftware,Altium Limited,Altium Designer,24.6.1 (21)*%
G04 Layer_Color=0*
%FSLAX45Y45*%
%MOMM*%
%TF.SameCoordinates,D6E34864-ACFE-43FA-A01B-F9739AC3D18D*%
%TF.FilePolarity,Positive*%
%TF.FileFunction,Plated,1,2,Blind,Drill*%
%TF.Part,Single*%
G01*
G75*
%TA.AperFunction,ViaDrill,NotFilled*%
%ADD90C,0.30000*%
D90*
X989810Y3246506D02*
D03*
X-1981990Y4837910D02*
D03*
X-2044700Y5664200D02*
D03*
X-1658889Y4825179D02*
D03*
X-869729Y3983368D02*
D03*
X-7759700Y10909300D02*
D03*
X-4334604Y4978400D02*
D03*
X-1562100Y4394200D02*
D03*
X-647700Y5689600D02*
D03*
X-3404390Y5248214D02*
D03*
X-1568000Y4292600D02*
D03*
X-5322090Y4114010D02*
D03*
X3504410Y3869410D02*
D03*
X3618710Y4126710D02*
D03*
X3936210Y4647410D02*
D03*
X5416056Y3555210D02*
D03*
X735810Y4990310D02*
D03*
X-1334290Y5625310D02*
D03*
X-838990Y5485610D02*
D03*
X-381790Y5028410D02*
D03*
X-4623590Y11911810D02*
D03*
X-3530600Y5397500D02*
D03*
X-5144290Y5155410D02*
D03*
X-5487190Y4698210D02*
D03*
Y3771110D02*
D03*
X-6401590Y5790410D02*
D03*
X-7176290Y6311110D02*
D03*
X-7100090Y8000210D02*
D03*
X-7887490Y8495510D02*
D03*
X-7290590Y10400510D02*
D03*
X-5074144Y12407110D02*
D03*
X875610Y11073510D02*
D03*
X1644156Y10558999D02*
D03*
X3898310Y12406910D02*
D03*
X4787110Y11975310D02*
D03*
X6400010Y10908510D02*
D03*
X7194056Y10400510D02*
D03*
X6717510Y8508210D02*
D03*
X7517610Y8000210D02*
D03*
X6425410Y6311110D02*
D03*
X7225510Y5803110D02*
D03*
X3593310Y3618710D02*
D03*
X856756Y6488910D02*
D03*
Y9676610D02*
D03*
X-1207290Y10552910D02*
D03*
X-2013444Y11060910D02*
D03*
X-2616990Y10273510D02*
D03*
X-2775444Y9968710D02*
D03*
X-3264690Y9765510D02*
D03*
X-3290090Y6349210D02*
D03*
X1091410Y4647410D02*
D03*
X2526510Y3821910D02*
D03*
Y4088610D02*
D03*
X-1207290Y5472910D02*
D03*
X-895844Y5612610D02*
D03*
X-661190Y3491710D02*
D03*
X-1026033Y3856368D02*
D03*
X-1646811Y4295605D02*
D03*
X-1765300Y4305300D02*
D03*
X-1900811Y4575005D02*
D03*
X-1766090Y4977610D02*
D03*
X1218410Y4647410D02*
D03*
X481810Y5079210D02*
D03*
X367510D02*
D03*
X-457990Y4609310D02*
D03*
X-1270790Y5842265D02*
D03*
X-1461290Y5625310D02*
D03*
X-1054890Y6031710D02*
D03*
%TF.MD5,dcc18bc0470af9383e788478ef8fe859*%
M02*
