%TF.GenerationSoftware,Altium Limited,Altium Designer,24.6.1 (21)*%
G04 Layer_Color=255*
%FSLAX45Y45*%
%MOMM*%
%TF.SameCoordinates,D6E34864-ACFE-43FA-A01B-F9739AC3D18D*%
%TF.FilePolarity,Positive*%
%TF.FileFunction,Pads,Bot*%
%TF.Part,Single*%
G01*
G75*
%TA.AperFunction,ComponentPad*%
%ADD36C,4.05000*%
%ADD37C,1.80000*%
%ADD38O,1.60000X0.90000*%
%ADD39C,1.57480*%
%ADD40C,2.25000*%
%ADD41R,2.25000X2.25000*%
D36*
X3834610Y9627010D02*
D03*
X-3665390D02*
D03*
X3834610Y6527010D02*
D03*
X-3665390D02*
D03*
D37*
X694610Y6477010D02*
D03*
X440610D02*
D03*
X186610D02*
D03*
X-67390D02*
D03*
X-321390D02*
D03*
X-575390D02*
D03*
X-829390D02*
D03*
X-1083390D02*
D03*
X-1337390D02*
D03*
X-1591390D02*
D03*
X-1845390D02*
D03*
X-2099390D02*
D03*
X-2353390D02*
D03*
X-2607390D02*
D03*
X-2861390D02*
D03*
X-3115390D02*
D03*
X694610Y9677010D02*
D03*
X440610D02*
D03*
X186610D02*
D03*
X-67390D02*
D03*
X-321390D02*
D03*
X-575390D02*
D03*
X-829390D02*
D03*
X-1083390D02*
D03*
X-1337390D02*
D03*
X-1591390D02*
D03*
X-1845390D02*
D03*
X-2099390D02*
D03*
X-2353390D02*
D03*
X-2607390D02*
D03*
X-2861390D02*
D03*
X-3115390D02*
D03*
D38*
X-5746190Y4571010D02*
D03*
Y3911010D02*
D03*
D39*
X-2786790Y4972911D02*
D03*
X-2286790D02*
D03*
Y5472910D02*
D03*
X-2786790D02*
D03*
D40*
X481810Y3504410D02*
D03*
D41*
X981810D02*
D03*
%TF.MD5,1ac8abb45439fe161b181ec62fe85683*%
M02*
