%TF.GenerationSoftware,Altium Limited,Altium Designer,24.6.1 (21)*%
G04 Layer_Color=128*
%FSLAX45Y45*%
%MOMM*%
%TF.SameCoordinates,D6E34864-ACFE-43FA-A01B-F9739AC3D18D*%
%TF.FilePolarity,Positive*%
%TF.FileFunction,Drillmap*%
%TF.Part,Single*%
G01*
G75*
%TA.AperFunction,NonConductor*%
%ADD54C,0.12700*%
D54*
X-1728825Y4764748D02*
X-1698825D01*
X-1713825Y4749748D02*
Y4779748D01*
X-1871100Y4668857D02*
X-1841100D01*
X-1856100Y4653857D02*
Y4683857D01*
X-446800Y4914900D02*
X-416800D01*
X-431800Y4899900D02*
Y4929900D01*
X-817790Y3664767D02*
X-787790D01*
X-802790Y3649767D02*
Y3679767D01*
X378700Y3886200D02*
X408700D01*
X393700Y3871200D02*
Y3901200D01*
X-853649Y4122521D02*
X-823649D01*
X-838649Y4107521D02*
Y4137521D01*
X-1170700Y3959450D02*
X-1140700D01*
X-1155700Y3944450D02*
Y3974450D01*
X1139910Y5663410D02*
X1169910D01*
X1154910Y5648410D02*
Y5678410D01*
X-1231314Y5384010D02*
X-1201314D01*
X-1216314Y5369010D02*
Y5399010D01*
X-3393990Y5587210D02*
X-3363990D01*
X-3378990Y5572210D02*
Y5602210D01*
X250910Y4888710D02*
X280910D01*
X265910Y4873710D02*
Y4903710D01*
X-653740Y4523361D02*
X-623740D01*
X-638740Y4508361D02*
Y4538360D01*
X-1894600Y4445000D02*
X-1864600D01*
X-1879600Y4430000D02*
Y4460000D01*
X-1603290Y4888710D02*
X-1573290D01*
X-1588290Y4873710D02*
Y4903710D01*
X1470110Y4901410D02*
X1500110D01*
X1485110Y4886410D02*
Y4916410D01*
X-3774200Y5524500D02*
X-3744200D01*
X-3759200Y5509500D02*
Y5539500D01*
%TF.MD5,93d08d9b38c482f7fa72777f685000b7*%
M02*
